%TF.GenerationSoftware,KiCad,Pcbnew,(5.1.6-0-10_14)*%
%TF.CreationDate,2021-04-22T17:40:41-07:00*%
%TF.ProjectId,BetsyBoardBig,42657473-7942-46f6-9172-644269672e6b,rev?*%
%TF.SameCoordinates,Original*%
%TF.FileFunction,Copper,L4,Bot*%
%TF.FilePolarity,Positive*%
%FSLAX46Y46*%
G04 Gerber Fmt 4.6, Leading zero omitted, Abs format (unit mm)*
G04 Created by KiCad (PCBNEW (5.1.6-0-10_14)) date 2021-04-22 17:40:41*
%MOMM*%
%LPD*%
G01*
G04 APERTURE LIST*
%TA.AperFunction,ComponentPad*%
%ADD10C,1.524000*%
%TD*%
%TA.AperFunction,ComponentPad*%
%ADD11O,0.900000X1.700000*%
%TD*%
%TA.AperFunction,ComponentPad*%
%ADD12O,0.900000X2.400000*%
%TD*%
%TA.AperFunction,ComponentPad*%
%ADD13C,0.700000*%
%TD*%
%TA.AperFunction,ComponentPad*%
%ADD14O,1.700000X1.700000*%
%TD*%
%TA.AperFunction,ComponentPad*%
%ADD15R,1.700000X1.700000*%
%TD*%
%TA.AperFunction,ComponentPad*%
%ADD16O,1.000000X1.000000*%
%TD*%
%TA.AperFunction,ComponentPad*%
%ADD17R,1.000000X1.000000*%
%TD*%
%TA.AperFunction,ComponentPad*%
%ADD18O,1.200000X1.750000*%
%TD*%
%TA.AperFunction,ComponentPad*%
%ADD19C,0.800000*%
%TD*%
%TA.AperFunction,ComponentPad*%
%ADD20C,6.400000*%
%TD*%
%TA.AperFunction,ViaPad*%
%ADD21C,0.600000*%
%TD*%
%TA.AperFunction,Conductor*%
%ADD22C,0.300000*%
%TD*%
%TA.AperFunction,Conductor*%
%ADD23C,0.400000*%
%TD*%
G04 APERTURE END LIST*
D10*
%TO.P,TP2-BOOT1,1*%
%TO.N,/~JTRST*%
X137795000Y-65455800D03*
%TD*%
%TO.P,TP2-BOOT0,1*%
%TO.N,/BOOT0*%
X137800000Y-60400000D03*
%TD*%
%TO.P,TP1-NRST1,1*%
%TO.N,/~RST*%
X137807700Y-62915800D03*
%TD*%
D11*
%TO.P,J3,S1*%
%TO.N,Net-(J3-PadS1)*%
X135500000Y-98260000D03*
X126850000Y-98260000D03*
D12*
X135500000Y-94880000D03*
X126850000Y-94880000D03*
D13*
%TO.P,J3,B6*%
%TO.N,/ID+*%
X131600000Y-95250000D03*
%TO.P,J3,B1*%
%TO.N,GND*%
X134150000Y-95250000D03*
%TO.P,J3,B4*%
%TO.N,/VBUS*%
X133300000Y-95250000D03*
%TO.P,J3,B5*%
%TO.N,/CC2*%
X132450000Y-95250000D03*
%TO.P,J3,B12*%
%TO.N,GND*%
X128200000Y-95250000D03*
%TO.P,J3,B8*%
%TO.N,N/C*%
X129900000Y-95250000D03*
%TO.P,J3,B7*%
%TO.N,/ID-*%
X130750000Y-95250000D03*
%TO.P,J3,B9*%
%TO.N,/VBUS*%
X129050000Y-95250000D03*
%TO.P,J3,A12*%
%TO.N,GND*%
X134150000Y-93900000D03*
%TO.P,J3,A9*%
%TO.N,/VBUS*%
X133300000Y-93900000D03*
%TO.P,J3,A8*%
%TO.N,N/C*%
X132450000Y-93900000D03*
%TO.P,J3,A7*%
%TO.N,/ID-*%
X131600000Y-93900000D03*
%TO.P,J3,A6*%
%TO.N,/ID+*%
X130750000Y-93900000D03*
%TO.P,J3,A5*%
%TO.N,/CC1*%
X129900000Y-93900000D03*
%TO.P,J3,A4*%
%TO.N,/VBUS*%
X129050000Y-93900000D03*
%TO.P,J3,A1*%
%TO.N,GND*%
X128200000Y-93900000D03*
%TD*%
D14*
%TO.P,J9,4*%
%TO.N,GND*%
X140900000Y-76970000D03*
%TO.P,J9,3*%
%TO.N,/USART1_RX*%
X140900000Y-74430000D03*
%TO.P,J9,2*%
%TO.N,/USART1_TX*%
X140900000Y-71890000D03*
D15*
%TO.P,J9,1*%
%TO.N,VCC*%
X140900000Y-69350000D03*
%TD*%
D16*
%TO.P,P2,10*%
%TO.N,/~JTRST*%
X132280000Y-69070000D03*
%TO.P,P2,9*%
%TO.N,GND*%
X133550000Y-69070000D03*
%TO.P,P2,8*%
%TO.N,/JTDI*%
X132280000Y-70340000D03*
%TO.P,P2,7*%
%TO.N,N/C*%
X133550000Y-70340000D03*
%TO.P,P2,6*%
%TO.N,/SWO_JTDO*%
X132280000Y-71610000D03*
%TO.P,P2,5*%
%TO.N,GND*%
X133550000Y-71610000D03*
%TO.P,P2,4*%
%TO.N,/SWCLK_JTCK*%
X132280000Y-72880000D03*
%TO.P,P2,3*%
%TO.N,GND*%
X133550000Y-72880000D03*
%TO.P,P2,2*%
%TO.N,/SWDIO_JTMS*%
X132280000Y-74150000D03*
D17*
%TO.P,P2,1*%
%TO.N,VCC*%
X133550000Y-74150000D03*
%TD*%
D14*
%TO.P,J1,6*%
%TO.N,GND*%
X120080000Y-51860000D03*
%TO.P,J1,5*%
%TO.N,/RTC_TS*%
X120080000Y-54400000D03*
%TO.P,J1,4*%
%TO.N,/OCLK_M*%
X117540000Y-51860000D03*
%TO.P,J1,3*%
%TO.N,/RTC_OUT*%
X117540000Y-54400000D03*
%TO.P,J1,2*%
%TO.N,/OCLK_LS*%
X115000000Y-51860000D03*
D15*
%TO.P,J1,1*%
%TO.N,VCC*%
X115000000Y-54400000D03*
%TD*%
D14*
%TO.P,J2,6*%
%TO.N,GND*%
X143240000Y-65480000D03*
%TO.P,J2,5*%
%TO.N,/SPI2_SCK*%
X140700000Y-65480000D03*
%TO.P,J2,4*%
%TO.N,/SPI2_CIPO*%
X143240000Y-62940000D03*
%TO.P,J2,3*%
%TO.N,/SPI2_COPI*%
X140700000Y-62940000D03*
%TO.P,J2,2*%
%TO.N,/SPI2_CS#*%
X143240000Y-60400000D03*
D15*
%TO.P,J2,1*%
%TO.N,VCC*%
X140700000Y-60400000D03*
%TD*%
D14*
%TO.P,SW1,3*%
%TO.N,/VBAT_IN*%
X125900000Y-51820000D03*
%TO.P,SW1,2*%
%TO.N,/VBAT*%
X125900000Y-54360000D03*
D15*
%TO.P,SW1,1*%
%TO.N,VCC*%
X125900000Y-56900000D03*
%TD*%
D18*
%TO.P,P1,2*%
%TO.N,GND*%
X132300000Y-52200000D03*
%TO.P,P1,1*%
%TO.N,/VBAT_IN*%
%TA.AperFunction,ComponentPad*%
G36*
G01*
X129700000Y-52825001D02*
X129700000Y-51574999D01*
G75*
G02*
X129949999Y-51325000I249999J0D01*
G01*
X130650001Y-51325000D01*
G75*
G02*
X130900000Y-51574999I0J-249999D01*
G01*
X130900000Y-52825001D01*
G75*
G02*
X130650001Y-53075000I-249999J0D01*
G01*
X129949999Y-53075000D01*
G75*
G02*
X129700000Y-52825001I0J249999D01*
G01*
G37*
%TD.AperFunction*%
%TD*%
D14*
%TO.P,J7,10*%
%TO.N,VDDA*%
X99100000Y-63040000D03*
%TO.P,J7,9*%
%TO.N,/OPAMP_IN-*%
X99100000Y-65580000D03*
%TO.P,J7,8*%
%TO.N,/OPAMP_IN+*%
X99100000Y-68120000D03*
%TO.P,J7,7*%
%TO.N,/OPAMP_OUT*%
X99100000Y-70660000D03*
%TO.P,J7,6*%
%TO.N,/COMP_IN-*%
X99100000Y-73200000D03*
%TO.P,J7,5*%
%TO.N,/COMP_IN+*%
X99100000Y-75740000D03*
%TO.P,J7,4*%
%TO.N,/COMP_OUT*%
X99100000Y-78280000D03*
%TO.P,J7,3*%
%TO.N,/DAC_OUT1*%
X99100000Y-80820000D03*
%TO.P,J7,2*%
%TO.N,/DAC_OUT2*%
X99100000Y-83360000D03*
D15*
%TO.P,J7,1*%
%TO.N,VSSA*%
X99100000Y-85900000D03*
%TD*%
D19*
%TO.P,H4,1*%
%TO.N,GND*%
X101697056Y-93302944D03*
X100000000Y-92600000D03*
X98302944Y-93302944D03*
X97600000Y-95000000D03*
X98302944Y-96697056D03*
X100000000Y-97400000D03*
X101697056Y-96697056D03*
X102400000Y-95000000D03*
D20*
X100000000Y-95000000D03*
%TD*%
D19*
%TO.P,H3,1*%
%TO.N,GND*%
X141697056Y-93302944D03*
X140000000Y-92600000D03*
X138302944Y-93302944D03*
X137600000Y-95000000D03*
X138302944Y-96697056D03*
X140000000Y-97400000D03*
X141697056Y-96697056D03*
X142400000Y-95000000D03*
D20*
X140000000Y-95000000D03*
%TD*%
D19*
%TO.P,H2,1*%
%TO.N,GND*%
X141697056Y-53302944D03*
X140000000Y-52600000D03*
X138302944Y-53302944D03*
X137600000Y-55000000D03*
X138302944Y-56697056D03*
X140000000Y-57400000D03*
X141697056Y-56697056D03*
X142400000Y-55000000D03*
D20*
X140000000Y-55000000D03*
%TD*%
D19*
%TO.P,H1,1*%
%TO.N,GND*%
X101697056Y-53302944D03*
X100000000Y-52600000D03*
X98302944Y-53302944D03*
X97600000Y-55000000D03*
X98302944Y-56697056D03*
X100000000Y-57400000D03*
X101697056Y-56697056D03*
X102400000Y-55000000D03*
D20*
X100000000Y-55000000D03*
%TD*%
D14*
%TO.P,J6,8*%
%TO.N,GND*%
X106220000Y-95900000D03*
%TO.P,J6,7*%
%TO.N,/USART3_CK*%
X108760000Y-95900000D03*
%TO.P,J6,6*%
%TO.N,/USART3_CTS*%
X111300000Y-95900000D03*
%TO.P,J6,5*%
%TO.N,/USART3_RTS*%
X113840000Y-95900000D03*
%TO.P,J6,4*%
%TO.N,/USART3_RXD*%
X116380000Y-95900000D03*
%TO.P,J6,3*%
%TO.N,/USART3_TXD*%
X118920000Y-95900000D03*
%TO.P,J6,2*%
%TO.N,VCC*%
X121460000Y-95900000D03*
D15*
%TO.P,J6,1*%
%TO.N,/VBUS*%
X124000000Y-95900000D03*
%TD*%
D21*
%TO.N,GND*%
X111100000Y-79400000D03*
X128093719Y-72685285D03*
X121500000Y-66700000D03*
X120500000Y-61000000D03*
X122600000Y-61000000D03*
X124600000Y-59700000D03*
X126200000Y-59700000D03*
X119550000Y-91700000D03*
X119550000Y-88350000D03*
X119550000Y-89350000D03*
X117250002Y-93600000D03*
X116400000Y-93600000D03*
X112700000Y-91150000D03*
X119850010Y-85560235D03*
X119306383Y-64693617D03*
X119405400Y-62687200D03*
X113741200Y-70485000D03*
X127712500Y-81212500D03*
X124101159Y-83821431D03*
X101279706Y-90779706D03*
X107200000Y-56700000D03*
X106800000Y-55600000D03*
X127400000Y-66700000D03*
X136000000Y-70800000D03*
X115600000Y-62100000D03*
X104500000Y-61300000D03*
X129700000Y-60300000D03*
X129800000Y-63600000D03*
X137100000Y-58400000D03*
X125500000Y-81200000D03*
X142450000Y-76900000D03*
X126400000Y-87050000D03*
X127600000Y-87600000D03*
X127350000Y-92700000D03*
X125150000Y-93250000D03*
X131850000Y-90700000D03*
X135050000Y-90250000D03*
X133850000Y-89100000D03*
X138700000Y-78200000D03*
X133863913Y-76786081D03*
%TO.N,/SDMMC_D2*%
X142900000Y-81700000D03*
X128450002Y-76838477D03*
%TO.N,/SDMMC_D3*%
X142900000Y-82900000D03*
%TO.N,/SDMMC_CMD*%
X142900000Y-83900000D03*
%TO.N,/SDMMC_D0*%
X143000000Y-88400000D03*
X127799995Y-79300003D03*
%TO.N,/SDMMC_D1*%
X143000000Y-89500000D03*
X127399996Y-79900000D03*
%TO.N,/VBAT*%
X129100000Y-58800000D03*
X129100000Y-58000000D03*
%TO.N,/SDMMC_CLK*%
X142900000Y-86200000D03*
%TO.N,VDDA*%
X117400000Y-67800000D03*
%TO.N,/SDMMC_DET*%
X141200000Y-79100000D03*
%TO.N,VSSA*%
X98000000Y-60000000D03*
X99000000Y-60000000D03*
X100700000Y-60700000D03*
X102600000Y-63600000D03*
X105000000Y-65000000D03*
X106000000Y-65000000D03*
X107000000Y-65000000D03*
X108000000Y-65000000D03*
X110300000Y-66300000D03*
X112000000Y-67000000D03*
X115000000Y-67000000D03*
X116000000Y-67000000D03*
X113000000Y-67000000D03*
X114000000Y-67000000D03*
X101400000Y-61400000D03*
X103300000Y-64300000D03*
X109700000Y-65700000D03*
X109000000Y-65000000D03*
X102000000Y-63000000D03*
X96000000Y-60000000D03*
X97000000Y-60000000D03*
X100000000Y-60000000D03*
X102000000Y-62000000D03*
X111000000Y-67000000D03*
X104000000Y-65000000D03*
X96000000Y-88000000D03*
X97000000Y-88000000D03*
X98000000Y-88000000D03*
X99000000Y-88000000D03*
X100000000Y-88000000D03*
X101000000Y-88000000D03*
X102000000Y-87000000D03*
X102000000Y-86000000D03*
X102000000Y-85000000D03*
X102000000Y-84000000D03*
X103000000Y-83000000D03*
X104000000Y-82000000D03*
X105000000Y-81000000D03*
X106000000Y-80000000D03*
X107000000Y-79000000D03*
X108000000Y-78000000D03*
X109000000Y-77000000D03*
X110000000Y-76000000D03*
X111000000Y-75000000D03*
X118364000Y-67764008D03*
%TO.N,/QSPI_IO0*%
X108750000Y-83250000D03*
X110650002Y-89350000D03*
%TO.N,/QSPI_SCK*%
X115750000Y-77450000D03*
X112250000Y-84300004D03*
%TO.N,/RTC_TS*%
X128300000Y-59300000D03*
%TO.N,/RTC_OUT*%
X112700000Y-77050000D03*
X118200000Y-70700000D03*
X115600000Y-73200000D03*
%TO.N,/USART3_CK*%
X116168918Y-82311399D03*
%TO.N,/USART3_CTS*%
X116600000Y-87900000D03*
%TO.N,/USART3_RTS*%
X116949990Y-83500000D03*
%TO.N,/USART3_RXD*%
X115750000Y-75500000D03*
%TO.N,/USART3_TXD*%
X115750000Y-74750000D03*
%TO.N,/USART1_TX*%
X120050010Y-82500000D03*
X131500000Y-82600000D03*
%TO.N,/USART1_RX*%
X121100000Y-83100000D03*
X130900000Y-83500002D03*
%TO.N,/I2C_SDA*%
X119733322Y-67914508D03*
X115050327Y-64889743D03*
%TO.N,/I2C_SCL*%
X120432631Y-67945873D03*
X115099993Y-64100007D03*
%TO.N,/COMP_OUT*%
X110000000Y-72000000D03*
X123606473Y-74756841D03*
%TO.N,/COMP_IN-*%
X110000000Y-70250000D03*
X124018007Y-73676986D03*
%TO.N,/COMP_IN+*%
X123000000Y-74300010D03*
X110500000Y-71250000D03*
%TO.N,/OCLK_M*%
X121000000Y-79200002D03*
X120999998Y-72765497D03*
X121000000Y-76100000D03*
%TO.N,/OCLK_LS*%
X116273048Y-68023351D03*
%TO.N,VCC*%
X111000000Y-72650010D03*
X128000000Y-83350022D03*
X125250000Y-83874990D03*
X126500000Y-83874990D03*
X116200000Y-89600000D03*
X117150000Y-89600000D03*
X115500000Y-85550000D03*
X118592600Y-59537600D03*
X101300000Y-89200000D03*
X120100000Y-87400000D03*
X108100000Y-56700000D03*
X108800000Y-56700000D03*
X110900000Y-80500000D03*
X136000000Y-74300000D03*
X133300000Y-56900000D03*
X133099999Y-61610236D03*
X128711084Y-69211084D03*
X139000000Y-69350000D03*
%TO.N,/SPI2_SCK*%
X119850010Y-84669193D03*
%TO.N,/SWDIO_JTMS*%
X122900000Y-79350000D03*
%TO.N,/JTDI*%
X124300000Y-76200000D03*
%TO.N,/SPI2_CIPO*%
X122900000Y-71800000D03*
X129911234Y-69867380D03*
%TO.N,/SPI2_COPI*%
X121800019Y-71850000D03*
X129800436Y-69007730D03*
%TO.N,/SDMMC_D3*%
X129700000Y-76850000D03*
%TO.N,/SDMMC_CMD*%
X131850000Y-76900000D03*
%TO.N,/~RST*%
X132749998Y-64099998D03*
%TO.N,/SDMMC_CLK*%
X130800000Y-76900000D03*
%TO.N,/SDMMC_DET*%
X127100000Y-74000000D03*
%TO.N,VCC*%
X123400000Y-87900000D03*
X136750000Y-77200000D03*
%TO.N,/SPI2_SCK*%
X132749998Y-82550002D03*
%TO.N,/SWCLK_JTCK*%
X126942933Y-78565230D03*
X129450000Y-73900000D03*
%TO.N,/SWDIO_JTMS*%
X128189389Y-74938443D03*
%TO.N,/JTDI*%
X129050000Y-71600000D03*
%TO.N,/USR_BTN*%
X129300000Y-85800000D03*
X129300000Y-84050000D03*
%TO.N,/SPI2_CS#*%
X127538935Y-73370013D03*
%TO.N,Net-(R1-Pad2)*%
X111600000Y-58100000D03*
X106100000Y-58100000D03*
%TO.N,/ID+*%
X132100000Y-92700000D03*
%TO.N,/ID-*%
X130200000Y-92700000D03*
%TO.N,/CC2*%
X135200000Y-91850000D03*
%TO.N,/CC1*%
X128600000Y-90200000D03*
%TD*%
D22*
%TO.N,/SDMMC_D2*%
X139800000Y-81700000D02*
X133850000Y-75750000D01*
X129538479Y-75750000D02*
X128450002Y-76838477D01*
X133850000Y-75750000D02*
X129538479Y-75750000D01*
X142900000Y-81700000D02*
X139800000Y-81700000D01*
D23*
%TO.N,/VBAT*%
X126860000Y-54360000D02*
X125900000Y-54360000D01*
X129100000Y-56600000D02*
X126860000Y-54360000D01*
X129100000Y-58000000D02*
X129100000Y-56600000D01*
X129100000Y-58800000D02*
X129100000Y-58000000D01*
%TO.N,/VBAT_IN*%
X126280000Y-52200000D02*
X125900000Y-51820000D01*
X130300000Y-52200000D02*
X126280000Y-52200000D01*
D22*
%TO.N,/QSPI_IO0*%
X108700000Y-87399998D02*
X110650002Y-89350000D01*
X108700000Y-83300000D02*
X108700000Y-87399998D01*
X108750000Y-83250000D02*
X108700000Y-83300000D01*
%TO.N,/QSPI_SCK*%
X112850865Y-83699137D02*
X112250000Y-84300004D01*
X115750000Y-77450000D02*
X115750000Y-79550000D01*
X112850865Y-83699137D02*
X112850865Y-82449135D01*
X112850865Y-82449135D02*
X115750000Y-79550000D01*
%TO.N,/RTC_TS*%
X120080000Y-54400000D02*
X121900000Y-54400000D01*
X121900000Y-54400000D02*
X124000000Y-56500000D01*
X124000000Y-56500000D02*
X124000000Y-57700000D01*
X124000000Y-57700000D02*
X125000000Y-58700000D01*
X127700000Y-58700000D02*
X128300000Y-59300000D01*
X125000000Y-58700000D02*
X127700000Y-58700000D01*
%TO.N,/RTC_OUT*%
X119000000Y-69900000D02*
X118200000Y-70700000D01*
X119000000Y-67600000D02*
X119000000Y-69900000D01*
X116900000Y-65500000D02*
X119000000Y-67600000D01*
X114600000Y-65500000D02*
X116900000Y-65500000D01*
X113900000Y-64800000D02*
X114600000Y-65500000D01*
X117540000Y-54760000D02*
X113900000Y-58400000D01*
X113900000Y-58400000D02*
X113900000Y-64800000D01*
X117540000Y-54400000D02*
X117540000Y-54760000D01*
X112700000Y-77050000D02*
X112700000Y-76100000D01*
X112700000Y-76100000D02*
X115600000Y-73200000D01*
%TO.N,/USART3_CK*%
X116168918Y-82350086D02*
X116168918Y-82311399D01*
X111400000Y-93260000D02*
X111400000Y-87119004D01*
X111400000Y-87119004D02*
X116168918Y-82350086D01*
X108760000Y-95900000D02*
X111400000Y-93260000D01*
%TO.N,/USART3_CTS*%
X115800000Y-87900000D02*
X116600000Y-87900000D01*
X115100000Y-88600000D02*
X115800000Y-87900000D01*
X115100000Y-96550000D02*
X115100000Y-88600000D01*
X111300000Y-95900000D02*
X112900000Y-97500000D01*
X114150000Y-97500000D02*
X115100000Y-96550000D01*
X112900000Y-97500000D02*
X114150000Y-97500000D01*
%TO.N,/USART3_RTS*%
X112149999Y-88879703D02*
X112150012Y-88879690D01*
X112150012Y-88879690D02*
X112150012Y-87799988D01*
X112149999Y-94309999D02*
X112149999Y-88879703D01*
X116450000Y-83500000D02*
X116949990Y-83500000D01*
X112150012Y-87799988D02*
X116450000Y-83500000D01*
X113840000Y-96000000D02*
X112149999Y-94309999D01*
%TO.N,/USART3_RXD*%
X116400000Y-75400000D02*
X115850000Y-75400000D01*
X116380000Y-96000000D02*
X117900000Y-94480000D01*
X117500000Y-82765700D02*
X117500000Y-76500000D01*
X115850000Y-75400000D02*
X115750000Y-75500000D01*
X117900000Y-83165700D02*
X117500000Y-82765700D01*
X117900000Y-94480000D02*
X117900000Y-83165700D01*
X117500000Y-76500000D02*
X116400000Y-75400000D01*
%TO.N,/USART3_TXD*%
X116450000Y-74750000D02*
X115750000Y-74750000D01*
X118000000Y-76300000D02*
X116450000Y-74750000D01*
X118500000Y-95580000D02*
X118500000Y-82900000D01*
X118500000Y-82900000D02*
X118000000Y-82400000D01*
X118000000Y-82400000D02*
X118000000Y-76300000D01*
X118920000Y-96000000D02*
X118500000Y-95580000D01*
%TO.N,/USART1_TX*%
X120050010Y-82500000D02*
X120750009Y-81800001D01*
X130700001Y-81800001D02*
X131500000Y-82600000D01*
X120750009Y-81800001D02*
X130700001Y-81800001D01*
%TO.N,/USART1_RX*%
X129699999Y-82300001D02*
X130900000Y-83500002D01*
X121899999Y-82300001D02*
X129699999Y-82300001D01*
X121100000Y-83100000D02*
X121899999Y-82300001D01*
%TO.N,/I2C_SDA*%
X116989743Y-64889743D02*
X115050327Y-64889743D01*
X119733322Y-67633322D02*
X116989743Y-64889743D01*
X119733322Y-67914508D02*
X119733322Y-67633322D01*
%TO.N,/I2C_SCL*%
X116889858Y-64100007D02*
X115099993Y-64100007D01*
X120432631Y-67642780D02*
X116889858Y-64100007D01*
X120432631Y-67945873D02*
X120432631Y-67642780D01*
%TO.N,/COMP_OUT*%
X116000000Y-72000000D02*
X119056840Y-75056840D01*
X110000000Y-72000000D02*
X116000000Y-72000000D01*
X119056840Y-75056840D02*
X123306474Y-75056840D01*
X123306474Y-75056840D02*
X123606473Y-74756841D01*
%TO.N,/COMP_IN-*%
X115934997Y-69934997D02*
X119676986Y-73676986D01*
X110315003Y-69934997D02*
X115934997Y-69934997D01*
X119676986Y-73676986D02*
X124018007Y-73676986D01*
X110000000Y-70250000D02*
X110315003Y-69934997D01*
%TO.N,/COMP_IN+*%
X110650000Y-71100000D02*
X110500000Y-71250000D01*
X116100000Y-71100000D02*
X110650000Y-71100000D01*
X119300010Y-74300010D02*
X116100000Y-71100000D01*
X123000000Y-74300010D02*
X119300010Y-74300010D01*
%TO.N,/OCLK_M*%
X121000000Y-79200002D02*
X121000000Y-76100000D01*
X120999998Y-67554596D02*
X120999998Y-72765497D01*
X116645402Y-63200000D02*
X120999998Y-67554596D01*
X115400000Y-63200000D02*
X116645402Y-63200000D01*
X114900000Y-62700000D02*
X115400000Y-63200000D01*
X117540000Y-51860000D02*
X118800000Y-53120000D01*
X118800000Y-55500000D02*
X114900000Y-59400000D01*
X114900000Y-59400000D02*
X114900000Y-62700000D01*
X118800000Y-53120000D02*
X118800000Y-55500000D01*
%TO.N,/OCLK_LS*%
X116273048Y-67540954D02*
X116273048Y-68023351D01*
X116550001Y-67264001D02*
X116273048Y-67540954D01*
X115849996Y-66000000D02*
X116550001Y-66700005D01*
X113800000Y-66000000D02*
X115849996Y-66000000D01*
X116550001Y-66700005D02*
X116550001Y-67264001D01*
X112700000Y-64900000D02*
X113800000Y-66000000D01*
X112700000Y-54160000D02*
X112700000Y-64900000D01*
X115000000Y-51860000D02*
X112700000Y-54160000D01*
%TO.N,/SPI2_SCK*%
X119889197Y-84630006D02*
X119850010Y-84669193D01*
%TO.N,/SPI2_COPI*%
X128308166Y-70500000D02*
X129800436Y-69007730D01*
X123150019Y-70500000D02*
X128308166Y-70500000D01*
X121800019Y-71850000D02*
X123150019Y-70500000D01*
%TO.N,/SDMMC_D3*%
X130300002Y-76249998D02*
X129700000Y-76850000D01*
X132549998Y-76249998D02*
X130300002Y-76249998D01*
X142900000Y-82900000D02*
X139200000Y-82900000D01*
X139200000Y-82900000D02*
X132549998Y-76249998D01*
%TO.N,/SDMMC_CMD*%
X131950000Y-76900000D02*
X131850000Y-76900000D01*
X138950000Y-83900000D02*
X131950000Y-76900000D01*
X142900000Y-83900000D02*
X138950000Y-83900000D01*
%TO.N,/SDMMC_D0*%
X128599992Y-80100000D02*
X127799995Y-79300003D01*
X132800000Y-80100000D02*
X128599992Y-80100000D01*
X141100000Y-88400000D02*
X132800000Y-80100000D01*
X143000000Y-88400000D02*
X141100000Y-88400000D01*
%TO.N,/SDMMC_D1*%
X132450000Y-81000000D02*
X128499996Y-81000000D01*
X140950000Y-89500000D02*
X132450000Y-81000000D01*
X128499996Y-81000000D02*
X127399996Y-79900000D01*
X143000000Y-89500000D02*
X140950000Y-89500000D01*
%TO.N,/~RST*%
X136623502Y-64099998D02*
X137807700Y-62915800D01*
X132749998Y-64099998D02*
X136623502Y-64099998D01*
%TO.N,/SDMMC_CLK*%
X140100000Y-86200000D02*
X130800000Y-76900000D01*
X142900000Y-86200000D02*
X140100000Y-86200000D01*
%TO.N,/SDMMC_DET*%
X128400000Y-74000000D02*
X127100000Y-74000000D01*
X129250000Y-73150000D02*
X128400000Y-74000000D01*
X129800000Y-73150000D02*
X129250000Y-73150000D01*
X131900000Y-75250000D02*
X129800000Y-73150000D01*
X137350000Y-75250000D02*
X131900000Y-75250000D01*
X141200000Y-79100000D02*
X137350000Y-75250000D01*
%TO.N,/SPI2_SCK*%
X129400000Y-86800000D02*
X132749998Y-83450002D01*
X127000000Y-86800000D02*
X129400000Y-86800000D01*
X132749998Y-83450002D02*
X132749998Y-82550002D01*
X121700000Y-85950000D02*
X120419193Y-84669193D01*
X126150000Y-85950000D02*
X127000000Y-86800000D01*
X126150000Y-85950000D02*
X121700000Y-85950000D01*
X119850010Y-84669193D02*
X120419193Y-84669193D01*
%TO.N,/SWCLK_JTCK*%
X126942933Y-78565230D02*
X126942933Y-76998901D01*
X129450000Y-74491834D02*
X129450000Y-73900000D01*
X126942933Y-76998901D02*
X129450000Y-74491834D01*
%TO.N,/SWDIO_JTMS*%
X127311557Y-74938443D02*
X128189389Y-74938443D01*
X122900000Y-79350000D02*
X127311557Y-74938443D01*
%TO.N,/JTDI*%
X127450000Y-72000000D02*
X128650000Y-72000000D01*
X124300000Y-75150000D02*
X127450000Y-72000000D01*
X128650000Y-72000000D02*
X129050000Y-71600000D01*
X124300000Y-76200000D02*
X124300000Y-75150000D01*
%TO.N,/USR_BTN*%
X129300000Y-85800000D02*
X129300000Y-84050000D01*
%TO.N,/SPI2_CIPO*%
X128578614Y-71200000D02*
X129911234Y-69867380D01*
X123500000Y-71200000D02*
X128578614Y-71200000D01*
X122900000Y-71800000D02*
X123500000Y-71200000D01*
%TO.N,/SPI2_CS#*%
X141840000Y-59000000D02*
X134500000Y-59000000D01*
X131150000Y-62350000D02*
X131150000Y-70500000D01*
X128279987Y-73370013D02*
X127538935Y-73370013D01*
X134500000Y-59000000D02*
X131150000Y-62350000D01*
X131150000Y-70500000D02*
X128279987Y-73370013D01*
X143240000Y-60400000D02*
X141840000Y-59000000D01*
%TO.N,Net-(R1-Pad2)*%
X111600000Y-58100000D02*
X106100000Y-58100000D01*
%TO.N,Net-(J3-PadS1)*%
X126850000Y-94880000D02*
X126850000Y-98260000D01*
X135500000Y-94880000D02*
X135500000Y-98260000D01*
X135500000Y-98260000D02*
X126850000Y-98260000D01*
%TO.N,/ID+*%
X131950000Y-92700000D02*
X132100000Y-92700000D01*
X130750000Y-93900000D02*
X131950000Y-92700000D01*
X131600000Y-94950000D02*
X131600000Y-95250000D01*
X130750000Y-94100000D02*
X131600000Y-94950000D01*
X130750000Y-93900000D02*
X130750000Y-94100000D01*
%TO.N,/CC2*%
X132950000Y-96100000D02*
X132450000Y-95600000D01*
X132450000Y-95600000D02*
X132450000Y-95250000D01*
X134250000Y-96100000D02*
X132950000Y-96100000D01*
X134750001Y-95599999D02*
X134250000Y-96100000D01*
X134750001Y-92299999D02*
X134750001Y-95599999D01*
X135200000Y-91850000D02*
X134750001Y-92299999D01*
%TO.N,/CC1*%
X129900000Y-93900000D02*
X129900000Y-93500000D01*
X129900000Y-93500000D02*
X128800000Y-92400000D01*
X128800000Y-90400000D02*
X128600000Y-90200000D01*
X128800000Y-92400000D02*
X128800000Y-90400000D01*
%TO.N,/~JTRST*%
X132280000Y-69070000D02*
X135900000Y-65450000D01*
X137789200Y-65450000D02*
X137795000Y-65455800D01*
X135900000Y-65450000D02*
X137789200Y-65450000D01*
%TD*%
M02*
