M48
; DRILL file {KiCad (5.1.6-0-10_14)} date Thursday, April 22, 2021 at 05:40:35 PM
; FORMAT={-:-/ absolute / inch / decimal}
; #@! TF.CreationDate,2021-04-22T17:40:35-07:00
; #@! TF.GenerationSoftware,Kicad,Pcbnew,(5.1.6-0-10_14)
; #@! TF.FileFunction,Plated,1,4,PTH
FMAT,2
INCH
T1C0.0157
T2C0.0197
T3C0.0236
T4C0.0256
T5C0.0295
T6C0.0394
T7C0.0394
T8C0.1260
%
G90
G05
T1
X3.7795Y-2.3622
X3.7795Y-3.4646
X3.8189Y-2.3622
X3.8189Y-3.4646
X3.8583Y-2.3622
X3.8583Y-3.4646
X3.8976Y-2.3622
X3.8976Y-3.4646
X3.937Y-2.3622
X3.937Y-3.4646
X3.9646Y-2.3898
X3.9764Y-3.4646
X3.9874Y-3.574
X3.9882Y-3.5118
X3.9921Y-2.4173
X4.0157Y-2.4409
X4.0157Y-2.4803
X4.0157Y-3.3071
X4.0157Y-3.3465
X4.0157Y-3.3858
X4.0157Y-3.4252
X4.0394Y-2.5039
X4.0551Y-3.2677
X4.0669Y-2.5315
X4.0945Y-2.5591
X4.0945Y-3.2283
X4.1142Y-2.4134
X4.1339Y-2.5591
X4.1339Y-3.189
X4.1732Y-2.5591
X4.1732Y-3.1496
X4.1772Y-2.2874
X4.2047Y-2.189
X4.2126Y-2.5591
X4.2126Y-3.1102
X4.2205Y-2.2323
X4.252Y-2.5591
X4.252Y-3.0709
X4.2559Y-2.2323
X4.2815Y-3.2776
X4.2835Y-2.2323
X4.2913Y-2.5591
X4.2913Y-3.0315
X4.3189Y-2.5866
X4.3307Y-2.7657
X4.3307Y-2.8346
X4.3307Y-2.9921
X4.3425Y-2.6102
X4.3504Y-2.8051
X4.3563Y-3.5177
X4.3661Y-3.1693
X4.3701Y-2.6378
X4.3701Y-2.8602
X4.3701Y-2.9528
X4.374Y-3.126
X4.3937Y-2.2874
X4.4094Y-2.6378
X4.4193Y-3.3189
X4.437Y-3.0335
X4.437Y-3.5886
X4.4488Y-2.6378
X4.478Y-2.775
X4.4882Y-2.6378
X4.5276Y-2.6378
X4.5295Y-2.5547
X4.5315Y-2.5236
X4.5472Y-3.3681
X4.5512Y-2.4449
X4.5512Y-2.8819
X4.5571Y-2.9429
X4.5571Y-2.9724
X4.5571Y-3.0492
X4.5669Y-2.6378
X4.5736Y-3.2406
X4.5748Y-3.5276
X4.5777Y-2.6781
X4.5827Y-3.685
X4.5906Y-3.4606
X4.6043Y-3.2874
X4.6122Y-3.5276
X4.6161Y-3.685
X4.622Y-2.6693
X4.6535Y-2.7835
X4.66Y-2.6679
X4.669Y-2.344
X4.6971Y-2.547
X4.701Y-2.468
X4.7067Y-3.4783
X4.7067Y-3.5177
X4.7067Y-3.6102
X4.7139Y-2.6738
X4.7185Y-3.3334
X4.7185Y-3.3685
X4.7264Y-3.248
X4.7283Y-3.4409
X4.7414Y-2.675
X4.7441Y-2.4016
X4.7638Y-2.8648
X4.7638Y-2.9961
X4.7638Y-3.1181
X4.7677Y-3.2717
X4.7835Y-2.626
X4.7953Y-2.8287
X4.8268Y-2.4016
X4.8386Y-2.8268
X4.8386Y-3.124
X4.8425Y-2.9252
X4.8583Y-3.4606
X4.8664Y-2.9432
X4.8826Y-2.9007
X4.8859Y-3.3001
X4.8937Y-3.0
X4.9055Y-2.3504
X4.9272Y-3.6713
X4.9311Y-3.3022
X4.9409Y-3.1969
X4.9685Y-2.3504
X4.9764Y-3.4272
X4.9803Y-3.3022
X4.9978Y-3.0931
X5.0039Y-2.9134
X5.0138Y-3.6496
X5.0157Y-3.1457
X5.0157Y-2.626
X5.0212Y-2.8886
X5.0236Y-3.4488
X5.0281Y-3.1973
X5.0315Y-3.122
X5.0394Y-3.2815
X5.0431Y-2.8616
X5.0468Y-2.9503
X5.0512Y-2.3346
X5.0571Y-3.0251
X5.063Y-3.5512
X5.0674Y-2.7248
X5.0807Y-2.8189
X5.0827Y-2.2835
X5.0827Y-2.315
X5.0906Y-3.3091
X5.0906Y-3.378
X5.0965Y-2.9094
X5.1063Y-2.374
X5.1063Y-3.0256
X5.1102Y-2.5039
X5.1103Y-2.7168
X5.1146Y-2.7507
X5.126Y-3.6496
X5.1496Y-3.0276
X5.1535Y-3.2874
X5.1772Y-3.252
X5.1909Y-3.0276
X5.1909Y-3.5709
X5.2008Y-3.6496
X5.2264Y-2.5236
X5.2264Y-3.25
X5.2402Y-2.4256
X5.248Y-2.2402
X5.2697Y-3.5079
X5.2702Y-3.0231
X5.3169Y-3.5531
X5.3228Y-3.6161
X5.3543Y-2.7874
X5.3543Y-2.9252
X5.3839Y-3.0394
X5.3976Y-2.2992
X5.4606Y-3.0787
X5.4724Y-2.7303
X5.5591Y-3.1142
X5.6083Y-3.0276
X5.626Y-3.2165
X5.626Y-3.2638
X5.626Y-3.3031
X5.626Y-3.3937
X5.6299Y-3.4803
X5.6299Y-3.5236
X5.0472Y-3.6969
X5.0472Y-3.75
X5.0807Y-3.6969
X5.0807Y-3.75
X5.1142Y-3.6969
X5.1142Y-3.75
X5.1476Y-3.6969
X5.1476Y-3.75
X5.1811Y-3.6969
X5.1811Y-3.75
X5.2146Y-3.6969
X5.2146Y-3.75
X5.248Y-3.6969
X5.248Y-3.75
X5.2815Y-3.6969
X5.2815Y-3.75
T2
X3.8425Y-3.7402
X3.8702Y-3.6733
X3.8702Y-3.807
X3.937Y-3.6457
X3.937Y-3.8346
X4.0038Y-3.6733
X4.0038Y-3.807
X4.0315Y-3.7402
X5.4173Y-2.1654
X5.445Y-2.0985
X5.445Y-2.2322
X5.5118Y-2.0709
X5.5118Y-2.2598
X5.5786Y-2.0985
X5.5786Y-2.2322
X5.6063Y-2.1654
X5.4173Y-3.7402
X5.445Y-3.6733
X5.445Y-3.807
X5.5118Y-3.6457
X5.5118Y-3.8346
X5.5786Y-3.6733
X5.5786Y-3.807
X5.6063Y-3.7402
X3.8425Y-2.1654
X3.8702Y-2.0985
X3.8702Y-2.2322
X3.937Y-2.0709
X3.937Y-2.2598
X4.0038Y-2.0985
X4.0038Y-2.2322
X4.0315Y-2.1654
T4
X5.2079Y-2.7193
X5.2079Y-2.7693
X5.2079Y-2.8193
X5.2079Y-2.8693
X5.2079Y-2.9193
X5.2579Y-2.7193
X5.2579Y-2.7693
X5.2579Y-2.8193
X5.2579Y-2.8693
X5.2579Y-2.9193
T5
X5.1299Y-2.0551
X5.2087Y-2.0551
T6
X4.5276Y-2.0417
X4.5276Y-2.1417
X4.6276Y-2.0417
X4.6276Y-2.1417
X4.7276Y-2.0417
X4.7276Y-2.1417
X4.1819Y-3.7756
X4.2819Y-3.7756
X4.3819Y-3.7756
X4.4819Y-3.7756
X4.5819Y-3.7756
X4.6819Y-3.7756
X4.7819Y-3.7756
X4.8819Y-3.7756
X5.5472Y-2.7303
X5.5472Y-2.8303
X5.5472Y-2.9303
X5.5472Y-3.0303
X5.5394Y-2.378
X5.5394Y-2.478
X5.5394Y-2.578
X5.6394Y-2.378
X5.6394Y-2.478
X5.6394Y-2.578
X4.9567Y-2.0402
X4.9567Y-2.1402
X4.9567Y-2.2402
X3.9016Y-2.4819
X3.9016Y-2.5819
X3.9016Y-2.6819
X3.9016Y-2.7819
X3.9016Y-2.8819
X3.9016Y-2.9819
X3.9016Y-3.0819
X3.9016Y-3.1819
X3.9016Y-3.2819
X3.9016Y-3.3819
T7
X5.4255Y-2.477
X5.425Y-2.577
X5.4252Y-2.378
T8
X3.937Y-3.7402
X5.5118Y-2.1654
X5.5118Y-3.7402
X3.937Y-2.1654
T3
G00X4.9941Y-3.7059
M15
G01X4.9941Y-3.765
M16
G05
G00X4.9941Y-3.8528
M15
G01X4.9941Y-3.8843
M16
G05
G00X5.3346Y-3.7059
M15
G01X5.3346Y-3.765
M16
G05
G00X5.3346Y-3.8528
M15
G01X5.3346Y-3.8843
M16
G05
T0
M30
