%TF.GenerationSoftware,KiCad,Pcbnew,(5.1.6-0-10_14)*%
%TF.CreationDate,2021-04-22T17:40:41-07:00*%
%TF.ProjectId,BetsyBoardBig,42657473-7942-46f6-9172-644269672e6b,rev?*%
%TF.SameCoordinates,Original*%
%TF.FileFunction,Paste,Top*%
%TF.FilePolarity,Positive*%
%FSLAX46Y46*%
G04 Gerber Fmt 4.6, Leading zero omitted, Abs format (unit mm)*
G04 Created by KiCad (PCBNEW (5.1.6-0-10_14)) date 2021-04-22 17:40:41*
%MOMM*%
%LPD*%
G01*
G04 APERTURE LIST*
%ADD10R,0.550000X2.910000*%
%ADD11R,1.200000X1.050000*%
%ADD12R,1.080000X1.050000*%
%ADD13R,0.780000X0.720000*%
%ADD14R,2.390000X1.050000*%
%ADD15R,1.000000X0.500000*%
%ADD16R,2.100000X1.400000*%
%ADD17R,1.400000X2.100000*%
%ADD18R,1.600000X0.300000*%
%ADD19R,1.060000X0.650000*%
%ADD20R,0.650000X1.060000*%
%ADD21R,1.000000X1.800000*%
%ADD22R,0.400000X1.900000*%
G04 APERTURE END LIST*
D10*
%TO.C,J8*%
X136610000Y-83205000D03*
D11*
X137290000Y-79975000D03*
D12*
X139900000Y-79975000D03*
D13*
X141170000Y-80000000D03*
D10*
X136610000Y-87220000D03*
D11*
X137860000Y-90625000D03*
D14*
X141050000Y-90625000D03*
D15*
X143850000Y-89450000D03*
X143850000Y-88350000D03*
X143850000Y-87250000D03*
X143850000Y-86150000D03*
X143850000Y-85050000D03*
X143850000Y-83950000D03*
X143850000Y-82850000D03*
X143850000Y-81750000D03*
%TD*%
D16*
%TO.C,SW2*%
X104550000Y-58150000D03*
X104550000Y-62650000D03*
X113650000Y-58150000D03*
X113650000Y-62650000D03*
%TD*%
D17*
%TO.C,SW3*%
X129350000Y-87500000D03*
X133850000Y-87500000D03*
X129350000Y-78400000D03*
X133850000Y-78400000D03*
%TD*%
%TO.C,R9*%
G36*
G01*
X127756250Y-89050000D02*
X127243750Y-89050000D01*
G75*
G02*
X127025000Y-88831250I0J218750D01*
G01*
X127025000Y-88393750D01*
G75*
G02*
X127243750Y-88175000I218750J0D01*
G01*
X127756250Y-88175000D01*
G75*
G02*
X127975000Y-88393750I0J-218750D01*
G01*
X127975000Y-88831250D01*
G75*
G02*
X127756250Y-89050000I-218750J0D01*
G01*
G37*
G36*
G01*
X127756250Y-90625000D02*
X127243750Y-90625000D01*
G75*
G02*
X127025000Y-90406250I0J218750D01*
G01*
X127025000Y-89968750D01*
G75*
G02*
X127243750Y-89750000I218750J0D01*
G01*
X127756250Y-89750000D01*
G75*
G02*
X127975000Y-89968750I0J-218750D01*
G01*
X127975000Y-90406250D01*
G75*
G02*
X127756250Y-90625000I-218750J0D01*
G01*
G37*
%TD*%
%TO.C,R8*%
G36*
G01*
X134406250Y-90750000D02*
X133893750Y-90750000D01*
G75*
G02*
X133675000Y-90531250I0J218750D01*
G01*
X133675000Y-90093750D01*
G75*
G02*
X133893750Y-89875000I218750J0D01*
G01*
X134406250Y-89875000D01*
G75*
G02*
X134625000Y-90093750I0J-218750D01*
G01*
X134625000Y-90531250D01*
G75*
G02*
X134406250Y-90750000I-218750J0D01*
G01*
G37*
G36*
G01*
X134406250Y-92325000D02*
X133893750Y-92325000D01*
G75*
G02*
X133675000Y-92106250I0J218750D01*
G01*
X133675000Y-91668750D01*
G75*
G02*
X133893750Y-91450000I218750J0D01*
G01*
X134406250Y-91450000D01*
G75*
G02*
X134625000Y-91668750I0J-218750D01*
G01*
X134625000Y-92106250D01*
G75*
G02*
X134406250Y-92325000I-218750J0D01*
G01*
G37*
%TD*%
D18*
%TO.C,U3*%
X134500000Y-61625000D03*
X134500000Y-62275000D03*
X134500000Y-62925000D03*
X134500000Y-63575000D03*
X131100000Y-63575000D03*
X131100000Y-62925000D03*
X131100000Y-62275000D03*
X131100000Y-61625000D03*
%TD*%
%TO.C,R3*%
G36*
G01*
X134550000Y-59843750D02*
X134550000Y-60356250D01*
G75*
G02*
X134331250Y-60575000I-218750J0D01*
G01*
X133893750Y-60575000D01*
G75*
G02*
X133675000Y-60356250I0J218750D01*
G01*
X133675000Y-59843750D01*
G75*
G02*
X133893750Y-59625000I218750J0D01*
G01*
X134331250Y-59625000D01*
G75*
G02*
X134550000Y-59843750I0J-218750D01*
G01*
G37*
G36*
G01*
X136125000Y-59843750D02*
X136125000Y-60356250D01*
G75*
G02*
X135906250Y-60575000I-218750J0D01*
G01*
X135468750Y-60575000D01*
G75*
G02*
X135250000Y-60356250I0J218750D01*
G01*
X135250000Y-59843750D01*
G75*
G02*
X135468750Y-59625000I218750J0D01*
G01*
X135906250Y-59625000D01*
G75*
G02*
X136125000Y-59843750I0J-218750D01*
G01*
G37*
%TD*%
%TO.C,R2*%
G36*
G01*
X131150000Y-58243750D02*
X131150000Y-58756250D01*
G75*
G02*
X130931250Y-58975000I-218750J0D01*
G01*
X130493750Y-58975000D01*
G75*
G02*
X130275000Y-58756250I0J218750D01*
G01*
X130275000Y-58243750D01*
G75*
G02*
X130493750Y-58025000I218750J0D01*
G01*
X130931250Y-58025000D01*
G75*
G02*
X131150000Y-58243750I0J-218750D01*
G01*
G37*
G36*
G01*
X132725000Y-58243750D02*
X132725000Y-58756250D01*
G75*
G02*
X132506250Y-58975000I-218750J0D01*
G01*
X132068750Y-58975000D01*
G75*
G02*
X131850000Y-58756250I0J218750D01*
G01*
X131850000Y-58243750D01*
G75*
G02*
X132068750Y-58025000I218750J0D01*
G01*
X132506250Y-58025000D01*
G75*
G02*
X132725000Y-58243750I0J-218750D01*
G01*
G37*
%TD*%
%TO.C,R1*%
G36*
G01*
X131150000Y-56668750D02*
X131150000Y-57181250D01*
G75*
G02*
X130931250Y-57400000I-218750J0D01*
G01*
X130493750Y-57400000D01*
G75*
G02*
X130275000Y-57181250I0J218750D01*
G01*
X130275000Y-56668750D01*
G75*
G02*
X130493750Y-56450000I218750J0D01*
G01*
X130931250Y-56450000D01*
G75*
G02*
X131150000Y-56668750I0J-218750D01*
G01*
G37*
G36*
G01*
X132725000Y-56668750D02*
X132725000Y-57181250D01*
G75*
G02*
X132506250Y-57400000I-218750J0D01*
G01*
X132068750Y-57400000D01*
G75*
G02*
X131850000Y-57181250I0J218750D01*
G01*
X131850000Y-56668750D01*
G75*
G02*
X132068750Y-56450000I218750J0D01*
G01*
X132506250Y-56450000D01*
G75*
G02*
X132725000Y-56668750I0J-218750D01*
G01*
G37*
%TD*%
%TO.C,C12*%
G36*
G01*
X135550000Y-58656250D02*
X135550000Y-57743750D01*
G75*
G02*
X135793750Y-57500000I243750J0D01*
G01*
X136281250Y-57500000D01*
G75*
G02*
X136525000Y-57743750I0J-243750D01*
G01*
X136525000Y-58656250D01*
G75*
G02*
X136281250Y-58900000I-243750J0D01*
G01*
X135793750Y-58900000D01*
G75*
G02*
X135550000Y-58656250I0J243750D01*
G01*
G37*
G36*
G01*
X133675000Y-58656250D02*
X133675000Y-57743750D01*
G75*
G02*
X133918750Y-57500000I243750J0D01*
G01*
X134406250Y-57500000D01*
G75*
G02*
X134650000Y-57743750I0J-243750D01*
G01*
X134650000Y-58656250D01*
G75*
G02*
X134406250Y-58900000I-243750J0D01*
G01*
X133918750Y-58900000D01*
G75*
G02*
X133675000Y-58656250I0J243750D01*
G01*
G37*
%TD*%
%TO.C,C11*%
G36*
G01*
X131150000Y-59843750D02*
X131150000Y-60356250D01*
G75*
G02*
X130931250Y-60575000I-218750J0D01*
G01*
X130493750Y-60575000D01*
G75*
G02*
X130275000Y-60356250I0J218750D01*
G01*
X130275000Y-59843750D01*
G75*
G02*
X130493750Y-59625000I218750J0D01*
G01*
X130931250Y-59625000D01*
G75*
G02*
X131150000Y-59843750I0J-218750D01*
G01*
G37*
G36*
G01*
X132725000Y-59843750D02*
X132725000Y-60356250D01*
G75*
G02*
X132506250Y-60575000I-218750J0D01*
G01*
X132068750Y-60575000D01*
G75*
G02*
X131850000Y-60356250I0J218750D01*
G01*
X131850000Y-59843750D01*
G75*
G02*
X132068750Y-59625000I218750J0D01*
G01*
X132506250Y-59625000D01*
G75*
G02*
X132725000Y-59843750I0J-218750D01*
G01*
G37*
%TD*%
%TO.C,C3*%
G36*
G01*
X121050000Y-88393750D02*
X121050000Y-89306250D01*
G75*
G02*
X120806250Y-89550000I-243750J0D01*
G01*
X120318750Y-89550000D01*
G75*
G02*
X120075000Y-89306250I0J243750D01*
G01*
X120075000Y-88393750D01*
G75*
G02*
X120318750Y-88150000I243750J0D01*
G01*
X120806250Y-88150000D01*
G75*
G02*
X121050000Y-88393750I0J-243750D01*
G01*
G37*
G36*
G01*
X122925000Y-88393750D02*
X122925000Y-89306250D01*
G75*
G02*
X122681250Y-89550000I-243750J0D01*
G01*
X122193750Y-89550000D01*
G75*
G02*
X121950000Y-89306250I0J243750D01*
G01*
X121950000Y-88393750D01*
G75*
G02*
X122193750Y-88150000I243750J0D01*
G01*
X122681250Y-88150000D01*
G75*
G02*
X122925000Y-88393750I0J-243750D01*
G01*
G37*
%TD*%
%TO.C,C20*%
G36*
G01*
X102207350Y-90342200D02*
X102719850Y-90342200D01*
G75*
G02*
X102938600Y-90560950I0J-218750D01*
G01*
X102938600Y-90998450D01*
G75*
G02*
X102719850Y-91217200I-218750J0D01*
G01*
X102207350Y-91217200D01*
G75*
G02*
X101988600Y-90998450I0J218750D01*
G01*
X101988600Y-90560950D01*
G75*
G02*
X102207350Y-90342200I218750J0D01*
G01*
G37*
G36*
G01*
X102207350Y-88767200D02*
X102719850Y-88767200D01*
G75*
G02*
X102938600Y-88985950I0J-218750D01*
G01*
X102938600Y-89423450D01*
G75*
G02*
X102719850Y-89642200I-218750J0D01*
G01*
X102207350Y-89642200D01*
G75*
G02*
X101988600Y-89423450I0J218750D01*
G01*
X101988600Y-88985950D01*
G75*
G02*
X102207350Y-88767200I218750J0D01*
G01*
G37*
%TD*%
%TO.C,C5*%
G36*
G01*
X118077400Y-63143450D02*
X118077400Y-62230950D01*
G75*
G02*
X118321150Y-61987200I243750J0D01*
G01*
X118808650Y-61987200D01*
G75*
G02*
X119052400Y-62230950I0J-243750D01*
G01*
X119052400Y-63143450D01*
G75*
G02*
X118808650Y-63387200I-243750J0D01*
G01*
X118321150Y-63387200D01*
G75*
G02*
X118077400Y-63143450I0J243750D01*
G01*
G37*
G36*
G01*
X116202400Y-63143450D02*
X116202400Y-62230950D01*
G75*
G02*
X116446150Y-61987200I243750J0D01*
G01*
X116933650Y-61987200D01*
G75*
G02*
X117177400Y-62230950I0J-243750D01*
G01*
X117177400Y-63143450D01*
G75*
G02*
X116933650Y-63387200I-243750J0D01*
G01*
X116446150Y-63387200D01*
G75*
G02*
X116202400Y-63143450I0J243750D01*
G01*
G37*
%TD*%
D19*
%TO.C,U5*%
X116550000Y-85550000D03*
X116550000Y-86500000D03*
X116550000Y-84600000D03*
X118750000Y-84600000D03*
X118750000Y-85550000D03*
X118750000Y-86500000D03*
%TD*%
%TO.C,C8*%
G36*
G01*
X120756250Y-62250000D02*
X120243750Y-62250000D01*
G75*
G02*
X120025000Y-62031250I0J218750D01*
G01*
X120025000Y-61593750D01*
G75*
G02*
X120243750Y-61375000I218750J0D01*
G01*
X120756250Y-61375000D01*
G75*
G02*
X120975000Y-61593750I0J-218750D01*
G01*
X120975000Y-62031250D01*
G75*
G02*
X120756250Y-62250000I-218750J0D01*
G01*
G37*
G36*
G01*
X120756250Y-63825000D02*
X120243750Y-63825000D01*
G75*
G02*
X120025000Y-63606250I0J218750D01*
G01*
X120025000Y-63168750D01*
G75*
G02*
X120243750Y-62950000I218750J0D01*
G01*
X120756250Y-62950000D01*
G75*
G02*
X120975000Y-63168750I0J-218750D01*
G01*
X120975000Y-63606250D01*
G75*
G02*
X120756250Y-63825000I-218750J0D01*
G01*
G37*
%TD*%
%TO.C,C7*%
G36*
G01*
X122856250Y-62250000D02*
X122343750Y-62250000D01*
G75*
G02*
X122125000Y-62031250I0J218750D01*
G01*
X122125000Y-61593750D01*
G75*
G02*
X122343750Y-61375000I218750J0D01*
G01*
X122856250Y-61375000D01*
G75*
G02*
X123075000Y-61593750I0J-218750D01*
G01*
X123075000Y-62031250D01*
G75*
G02*
X122856250Y-62250000I-218750J0D01*
G01*
G37*
G36*
G01*
X122856250Y-63825000D02*
X122343750Y-63825000D01*
G75*
G02*
X122125000Y-63606250I0J218750D01*
G01*
X122125000Y-63168750D01*
G75*
G02*
X122343750Y-62950000I218750J0D01*
G01*
X122856250Y-62950000D01*
G75*
G02*
X123075000Y-63168750I0J-218750D01*
G01*
X123075000Y-63606250D01*
G75*
G02*
X122856250Y-63825000I-218750J0D01*
G01*
G37*
%TD*%
%TO.C,U4*%
G36*
G01*
X124975000Y-71100000D02*
X126375000Y-71100000D01*
G75*
G02*
X126450000Y-71175000I0J-75000D01*
G01*
X126450000Y-71325000D01*
G75*
G02*
X126375000Y-71400000I-75000J0D01*
G01*
X124975000Y-71400000D01*
G75*
G02*
X124900000Y-71325000I0J75000D01*
G01*
X124900000Y-71175000D01*
G75*
G02*
X124975000Y-71100000I75000J0D01*
G01*
G37*
G36*
G01*
X124975000Y-71600000D02*
X126375000Y-71600000D01*
G75*
G02*
X126450000Y-71675000I0J-75000D01*
G01*
X126450000Y-71825000D01*
G75*
G02*
X126375000Y-71900000I-75000J0D01*
G01*
X124975000Y-71900000D01*
G75*
G02*
X124900000Y-71825000I0J75000D01*
G01*
X124900000Y-71675000D01*
G75*
G02*
X124975000Y-71600000I75000J0D01*
G01*
G37*
G36*
G01*
X124975000Y-72100000D02*
X126375000Y-72100000D01*
G75*
G02*
X126450000Y-72175000I0J-75000D01*
G01*
X126450000Y-72325000D01*
G75*
G02*
X126375000Y-72400000I-75000J0D01*
G01*
X124975000Y-72400000D01*
G75*
G02*
X124900000Y-72325000I0J75000D01*
G01*
X124900000Y-72175000D01*
G75*
G02*
X124975000Y-72100000I75000J0D01*
G01*
G37*
G36*
G01*
X124975000Y-72600000D02*
X126375000Y-72600000D01*
G75*
G02*
X126450000Y-72675000I0J-75000D01*
G01*
X126450000Y-72825000D01*
G75*
G02*
X126375000Y-72900000I-75000J0D01*
G01*
X124975000Y-72900000D01*
G75*
G02*
X124900000Y-72825000I0J75000D01*
G01*
X124900000Y-72675000D01*
G75*
G02*
X124975000Y-72600000I75000J0D01*
G01*
G37*
G36*
G01*
X124975000Y-73100000D02*
X126375000Y-73100000D01*
G75*
G02*
X126450000Y-73175000I0J-75000D01*
G01*
X126450000Y-73325000D01*
G75*
G02*
X126375000Y-73400000I-75000J0D01*
G01*
X124975000Y-73400000D01*
G75*
G02*
X124900000Y-73325000I0J75000D01*
G01*
X124900000Y-73175000D01*
G75*
G02*
X124975000Y-73100000I75000J0D01*
G01*
G37*
G36*
G01*
X124975000Y-73600000D02*
X126375000Y-73600000D01*
G75*
G02*
X126450000Y-73675000I0J-75000D01*
G01*
X126450000Y-73825000D01*
G75*
G02*
X126375000Y-73900000I-75000J0D01*
G01*
X124975000Y-73900000D01*
G75*
G02*
X124900000Y-73825000I0J75000D01*
G01*
X124900000Y-73675000D01*
G75*
G02*
X124975000Y-73600000I75000J0D01*
G01*
G37*
G36*
G01*
X124975000Y-74100000D02*
X126375000Y-74100000D01*
G75*
G02*
X126450000Y-74175000I0J-75000D01*
G01*
X126450000Y-74325000D01*
G75*
G02*
X126375000Y-74400000I-75000J0D01*
G01*
X124975000Y-74400000D01*
G75*
G02*
X124900000Y-74325000I0J75000D01*
G01*
X124900000Y-74175000D01*
G75*
G02*
X124975000Y-74100000I75000J0D01*
G01*
G37*
G36*
G01*
X124975000Y-74600000D02*
X126375000Y-74600000D01*
G75*
G02*
X126450000Y-74675000I0J-75000D01*
G01*
X126450000Y-74825000D01*
G75*
G02*
X126375000Y-74900000I-75000J0D01*
G01*
X124975000Y-74900000D01*
G75*
G02*
X124900000Y-74825000I0J75000D01*
G01*
X124900000Y-74675000D01*
G75*
G02*
X124975000Y-74600000I75000J0D01*
G01*
G37*
G36*
G01*
X124975000Y-75100000D02*
X126375000Y-75100000D01*
G75*
G02*
X126450000Y-75175000I0J-75000D01*
G01*
X126450000Y-75325000D01*
G75*
G02*
X126375000Y-75400000I-75000J0D01*
G01*
X124975000Y-75400000D01*
G75*
G02*
X124900000Y-75325000I0J75000D01*
G01*
X124900000Y-75175000D01*
G75*
G02*
X124975000Y-75100000I75000J0D01*
G01*
G37*
G36*
G01*
X124975000Y-75600000D02*
X126375000Y-75600000D01*
G75*
G02*
X126450000Y-75675000I0J-75000D01*
G01*
X126450000Y-75825000D01*
G75*
G02*
X126375000Y-75900000I-75000J0D01*
G01*
X124975000Y-75900000D01*
G75*
G02*
X124900000Y-75825000I0J75000D01*
G01*
X124900000Y-75675000D01*
G75*
G02*
X124975000Y-75600000I75000J0D01*
G01*
G37*
G36*
G01*
X124975000Y-76100000D02*
X126375000Y-76100000D01*
G75*
G02*
X126450000Y-76175000I0J-75000D01*
G01*
X126450000Y-76325000D01*
G75*
G02*
X126375000Y-76400000I-75000J0D01*
G01*
X124975000Y-76400000D01*
G75*
G02*
X124900000Y-76325000I0J75000D01*
G01*
X124900000Y-76175000D01*
G75*
G02*
X124975000Y-76100000I75000J0D01*
G01*
G37*
G36*
G01*
X124975000Y-76600000D02*
X126375000Y-76600000D01*
G75*
G02*
X126450000Y-76675000I0J-75000D01*
G01*
X126450000Y-76825000D01*
G75*
G02*
X126375000Y-76900000I-75000J0D01*
G01*
X124975000Y-76900000D01*
G75*
G02*
X124900000Y-76825000I0J75000D01*
G01*
X124900000Y-76675000D01*
G75*
G02*
X124975000Y-76600000I75000J0D01*
G01*
G37*
G36*
G01*
X124975000Y-77100000D02*
X126375000Y-77100000D01*
G75*
G02*
X126450000Y-77175000I0J-75000D01*
G01*
X126450000Y-77325000D01*
G75*
G02*
X126375000Y-77400000I-75000J0D01*
G01*
X124975000Y-77400000D01*
G75*
G02*
X124900000Y-77325000I0J75000D01*
G01*
X124900000Y-77175000D01*
G75*
G02*
X124975000Y-77100000I75000J0D01*
G01*
G37*
G36*
G01*
X124975000Y-77600000D02*
X126375000Y-77600000D01*
G75*
G02*
X126450000Y-77675000I0J-75000D01*
G01*
X126450000Y-77825000D01*
G75*
G02*
X126375000Y-77900000I-75000J0D01*
G01*
X124975000Y-77900000D01*
G75*
G02*
X124900000Y-77825000I0J75000D01*
G01*
X124900000Y-77675000D01*
G75*
G02*
X124975000Y-77600000I75000J0D01*
G01*
G37*
G36*
G01*
X124975000Y-78100000D02*
X126375000Y-78100000D01*
G75*
G02*
X126450000Y-78175000I0J-75000D01*
G01*
X126450000Y-78325000D01*
G75*
G02*
X126375000Y-78400000I-75000J0D01*
G01*
X124975000Y-78400000D01*
G75*
G02*
X124900000Y-78325000I0J75000D01*
G01*
X124900000Y-78175000D01*
G75*
G02*
X124975000Y-78100000I75000J0D01*
G01*
G37*
G36*
G01*
X124975000Y-78600000D02*
X126375000Y-78600000D01*
G75*
G02*
X126450000Y-78675000I0J-75000D01*
G01*
X126450000Y-78825000D01*
G75*
G02*
X126375000Y-78900000I-75000J0D01*
G01*
X124975000Y-78900000D01*
G75*
G02*
X124900000Y-78825000I0J75000D01*
G01*
X124900000Y-78675000D01*
G75*
G02*
X124975000Y-78600000I75000J0D01*
G01*
G37*
G36*
G01*
X123675000Y-79900000D02*
X123825000Y-79900000D01*
G75*
G02*
X123900000Y-79975000I0J-75000D01*
G01*
X123900000Y-81375000D01*
G75*
G02*
X123825000Y-81450000I-75000J0D01*
G01*
X123675000Y-81450000D01*
G75*
G02*
X123600000Y-81375000I0J75000D01*
G01*
X123600000Y-79975000D01*
G75*
G02*
X123675000Y-79900000I75000J0D01*
G01*
G37*
G36*
G01*
X123175000Y-79900000D02*
X123325000Y-79900000D01*
G75*
G02*
X123400000Y-79975000I0J-75000D01*
G01*
X123400000Y-81375000D01*
G75*
G02*
X123325000Y-81450000I-75000J0D01*
G01*
X123175000Y-81450000D01*
G75*
G02*
X123100000Y-81375000I0J75000D01*
G01*
X123100000Y-79975000D01*
G75*
G02*
X123175000Y-79900000I75000J0D01*
G01*
G37*
G36*
G01*
X122675000Y-79900000D02*
X122825000Y-79900000D01*
G75*
G02*
X122900000Y-79975000I0J-75000D01*
G01*
X122900000Y-81375000D01*
G75*
G02*
X122825000Y-81450000I-75000J0D01*
G01*
X122675000Y-81450000D01*
G75*
G02*
X122600000Y-81375000I0J75000D01*
G01*
X122600000Y-79975000D01*
G75*
G02*
X122675000Y-79900000I75000J0D01*
G01*
G37*
G36*
G01*
X122175000Y-79900000D02*
X122325000Y-79900000D01*
G75*
G02*
X122400000Y-79975000I0J-75000D01*
G01*
X122400000Y-81375000D01*
G75*
G02*
X122325000Y-81450000I-75000J0D01*
G01*
X122175000Y-81450000D01*
G75*
G02*
X122100000Y-81375000I0J75000D01*
G01*
X122100000Y-79975000D01*
G75*
G02*
X122175000Y-79900000I75000J0D01*
G01*
G37*
G36*
G01*
X121675000Y-79900000D02*
X121825000Y-79900000D01*
G75*
G02*
X121900000Y-79975000I0J-75000D01*
G01*
X121900000Y-81375000D01*
G75*
G02*
X121825000Y-81450000I-75000J0D01*
G01*
X121675000Y-81450000D01*
G75*
G02*
X121600000Y-81375000I0J75000D01*
G01*
X121600000Y-79975000D01*
G75*
G02*
X121675000Y-79900000I75000J0D01*
G01*
G37*
G36*
G01*
X121175000Y-79900000D02*
X121325000Y-79900000D01*
G75*
G02*
X121400000Y-79975000I0J-75000D01*
G01*
X121400000Y-81375000D01*
G75*
G02*
X121325000Y-81450000I-75000J0D01*
G01*
X121175000Y-81450000D01*
G75*
G02*
X121100000Y-81375000I0J75000D01*
G01*
X121100000Y-79975000D01*
G75*
G02*
X121175000Y-79900000I75000J0D01*
G01*
G37*
G36*
G01*
X120675000Y-79900000D02*
X120825000Y-79900000D01*
G75*
G02*
X120900000Y-79975000I0J-75000D01*
G01*
X120900000Y-81375000D01*
G75*
G02*
X120825000Y-81450000I-75000J0D01*
G01*
X120675000Y-81450000D01*
G75*
G02*
X120600000Y-81375000I0J75000D01*
G01*
X120600000Y-79975000D01*
G75*
G02*
X120675000Y-79900000I75000J0D01*
G01*
G37*
G36*
G01*
X120175000Y-79900000D02*
X120325000Y-79900000D01*
G75*
G02*
X120400000Y-79975000I0J-75000D01*
G01*
X120400000Y-81375000D01*
G75*
G02*
X120325000Y-81450000I-75000J0D01*
G01*
X120175000Y-81450000D01*
G75*
G02*
X120100000Y-81375000I0J75000D01*
G01*
X120100000Y-79975000D01*
G75*
G02*
X120175000Y-79900000I75000J0D01*
G01*
G37*
G36*
G01*
X119675000Y-79900000D02*
X119825000Y-79900000D01*
G75*
G02*
X119900000Y-79975000I0J-75000D01*
G01*
X119900000Y-81375000D01*
G75*
G02*
X119825000Y-81450000I-75000J0D01*
G01*
X119675000Y-81450000D01*
G75*
G02*
X119600000Y-81375000I0J75000D01*
G01*
X119600000Y-79975000D01*
G75*
G02*
X119675000Y-79900000I75000J0D01*
G01*
G37*
G36*
G01*
X119175000Y-79900000D02*
X119325000Y-79900000D01*
G75*
G02*
X119400000Y-79975000I0J-75000D01*
G01*
X119400000Y-81375000D01*
G75*
G02*
X119325000Y-81450000I-75000J0D01*
G01*
X119175000Y-81450000D01*
G75*
G02*
X119100000Y-81375000I0J75000D01*
G01*
X119100000Y-79975000D01*
G75*
G02*
X119175000Y-79900000I75000J0D01*
G01*
G37*
G36*
G01*
X118675000Y-79900000D02*
X118825000Y-79900000D01*
G75*
G02*
X118900000Y-79975000I0J-75000D01*
G01*
X118900000Y-81375000D01*
G75*
G02*
X118825000Y-81450000I-75000J0D01*
G01*
X118675000Y-81450000D01*
G75*
G02*
X118600000Y-81375000I0J75000D01*
G01*
X118600000Y-79975000D01*
G75*
G02*
X118675000Y-79900000I75000J0D01*
G01*
G37*
G36*
G01*
X118175000Y-79900000D02*
X118325000Y-79900000D01*
G75*
G02*
X118400000Y-79975000I0J-75000D01*
G01*
X118400000Y-81375000D01*
G75*
G02*
X118325000Y-81450000I-75000J0D01*
G01*
X118175000Y-81450000D01*
G75*
G02*
X118100000Y-81375000I0J75000D01*
G01*
X118100000Y-79975000D01*
G75*
G02*
X118175000Y-79900000I75000J0D01*
G01*
G37*
G36*
G01*
X117675000Y-79900000D02*
X117825000Y-79900000D01*
G75*
G02*
X117900000Y-79975000I0J-75000D01*
G01*
X117900000Y-81375000D01*
G75*
G02*
X117825000Y-81450000I-75000J0D01*
G01*
X117675000Y-81450000D01*
G75*
G02*
X117600000Y-81375000I0J75000D01*
G01*
X117600000Y-79975000D01*
G75*
G02*
X117675000Y-79900000I75000J0D01*
G01*
G37*
G36*
G01*
X117175000Y-79900000D02*
X117325000Y-79900000D01*
G75*
G02*
X117400000Y-79975000I0J-75000D01*
G01*
X117400000Y-81375000D01*
G75*
G02*
X117325000Y-81450000I-75000J0D01*
G01*
X117175000Y-81450000D01*
G75*
G02*
X117100000Y-81375000I0J75000D01*
G01*
X117100000Y-79975000D01*
G75*
G02*
X117175000Y-79900000I75000J0D01*
G01*
G37*
G36*
G01*
X116675000Y-79900000D02*
X116825000Y-79900000D01*
G75*
G02*
X116900000Y-79975000I0J-75000D01*
G01*
X116900000Y-81375000D01*
G75*
G02*
X116825000Y-81450000I-75000J0D01*
G01*
X116675000Y-81450000D01*
G75*
G02*
X116600000Y-81375000I0J75000D01*
G01*
X116600000Y-79975000D01*
G75*
G02*
X116675000Y-79900000I75000J0D01*
G01*
G37*
G36*
G01*
X116175000Y-79900000D02*
X116325000Y-79900000D01*
G75*
G02*
X116400000Y-79975000I0J-75000D01*
G01*
X116400000Y-81375000D01*
G75*
G02*
X116325000Y-81450000I-75000J0D01*
G01*
X116175000Y-81450000D01*
G75*
G02*
X116100000Y-81375000I0J75000D01*
G01*
X116100000Y-79975000D01*
G75*
G02*
X116175000Y-79900000I75000J0D01*
G01*
G37*
G36*
G01*
X113625000Y-78600000D02*
X115025000Y-78600000D01*
G75*
G02*
X115100000Y-78675000I0J-75000D01*
G01*
X115100000Y-78825000D01*
G75*
G02*
X115025000Y-78900000I-75000J0D01*
G01*
X113625000Y-78900000D01*
G75*
G02*
X113550000Y-78825000I0J75000D01*
G01*
X113550000Y-78675000D01*
G75*
G02*
X113625000Y-78600000I75000J0D01*
G01*
G37*
G36*
G01*
X113625000Y-78100000D02*
X115025000Y-78100000D01*
G75*
G02*
X115100000Y-78175000I0J-75000D01*
G01*
X115100000Y-78325000D01*
G75*
G02*
X115025000Y-78400000I-75000J0D01*
G01*
X113625000Y-78400000D01*
G75*
G02*
X113550000Y-78325000I0J75000D01*
G01*
X113550000Y-78175000D01*
G75*
G02*
X113625000Y-78100000I75000J0D01*
G01*
G37*
G36*
G01*
X113625000Y-77600000D02*
X115025000Y-77600000D01*
G75*
G02*
X115100000Y-77675000I0J-75000D01*
G01*
X115100000Y-77825000D01*
G75*
G02*
X115025000Y-77900000I-75000J0D01*
G01*
X113625000Y-77900000D01*
G75*
G02*
X113550000Y-77825000I0J75000D01*
G01*
X113550000Y-77675000D01*
G75*
G02*
X113625000Y-77600000I75000J0D01*
G01*
G37*
G36*
G01*
X113625000Y-77100000D02*
X115025000Y-77100000D01*
G75*
G02*
X115100000Y-77175000I0J-75000D01*
G01*
X115100000Y-77325000D01*
G75*
G02*
X115025000Y-77400000I-75000J0D01*
G01*
X113625000Y-77400000D01*
G75*
G02*
X113550000Y-77325000I0J75000D01*
G01*
X113550000Y-77175000D01*
G75*
G02*
X113625000Y-77100000I75000J0D01*
G01*
G37*
G36*
G01*
X113625000Y-76600000D02*
X115025000Y-76600000D01*
G75*
G02*
X115100000Y-76675000I0J-75000D01*
G01*
X115100000Y-76825000D01*
G75*
G02*
X115025000Y-76900000I-75000J0D01*
G01*
X113625000Y-76900000D01*
G75*
G02*
X113550000Y-76825000I0J75000D01*
G01*
X113550000Y-76675000D01*
G75*
G02*
X113625000Y-76600000I75000J0D01*
G01*
G37*
G36*
G01*
X113625000Y-76100000D02*
X115025000Y-76100000D01*
G75*
G02*
X115100000Y-76175000I0J-75000D01*
G01*
X115100000Y-76325000D01*
G75*
G02*
X115025000Y-76400000I-75000J0D01*
G01*
X113625000Y-76400000D01*
G75*
G02*
X113550000Y-76325000I0J75000D01*
G01*
X113550000Y-76175000D01*
G75*
G02*
X113625000Y-76100000I75000J0D01*
G01*
G37*
G36*
G01*
X113625000Y-75600000D02*
X115025000Y-75600000D01*
G75*
G02*
X115100000Y-75675000I0J-75000D01*
G01*
X115100000Y-75825000D01*
G75*
G02*
X115025000Y-75900000I-75000J0D01*
G01*
X113625000Y-75900000D01*
G75*
G02*
X113550000Y-75825000I0J75000D01*
G01*
X113550000Y-75675000D01*
G75*
G02*
X113625000Y-75600000I75000J0D01*
G01*
G37*
G36*
G01*
X113625000Y-75100000D02*
X115025000Y-75100000D01*
G75*
G02*
X115100000Y-75175000I0J-75000D01*
G01*
X115100000Y-75325000D01*
G75*
G02*
X115025000Y-75400000I-75000J0D01*
G01*
X113625000Y-75400000D01*
G75*
G02*
X113550000Y-75325000I0J75000D01*
G01*
X113550000Y-75175000D01*
G75*
G02*
X113625000Y-75100000I75000J0D01*
G01*
G37*
G36*
G01*
X113625000Y-74600000D02*
X115025000Y-74600000D01*
G75*
G02*
X115100000Y-74675000I0J-75000D01*
G01*
X115100000Y-74825000D01*
G75*
G02*
X115025000Y-74900000I-75000J0D01*
G01*
X113625000Y-74900000D01*
G75*
G02*
X113550000Y-74825000I0J75000D01*
G01*
X113550000Y-74675000D01*
G75*
G02*
X113625000Y-74600000I75000J0D01*
G01*
G37*
G36*
G01*
X113625000Y-74100000D02*
X115025000Y-74100000D01*
G75*
G02*
X115100000Y-74175000I0J-75000D01*
G01*
X115100000Y-74325000D01*
G75*
G02*
X115025000Y-74400000I-75000J0D01*
G01*
X113625000Y-74400000D01*
G75*
G02*
X113550000Y-74325000I0J75000D01*
G01*
X113550000Y-74175000D01*
G75*
G02*
X113625000Y-74100000I75000J0D01*
G01*
G37*
G36*
G01*
X113625000Y-73600000D02*
X115025000Y-73600000D01*
G75*
G02*
X115100000Y-73675000I0J-75000D01*
G01*
X115100000Y-73825000D01*
G75*
G02*
X115025000Y-73900000I-75000J0D01*
G01*
X113625000Y-73900000D01*
G75*
G02*
X113550000Y-73825000I0J75000D01*
G01*
X113550000Y-73675000D01*
G75*
G02*
X113625000Y-73600000I75000J0D01*
G01*
G37*
G36*
G01*
X113625000Y-73100000D02*
X115025000Y-73100000D01*
G75*
G02*
X115100000Y-73175000I0J-75000D01*
G01*
X115100000Y-73325000D01*
G75*
G02*
X115025000Y-73400000I-75000J0D01*
G01*
X113625000Y-73400000D01*
G75*
G02*
X113550000Y-73325000I0J75000D01*
G01*
X113550000Y-73175000D01*
G75*
G02*
X113625000Y-73100000I75000J0D01*
G01*
G37*
G36*
G01*
X113625000Y-72600000D02*
X115025000Y-72600000D01*
G75*
G02*
X115100000Y-72675000I0J-75000D01*
G01*
X115100000Y-72825000D01*
G75*
G02*
X115025000Y-72900000I-75000J0D01*
G01*
X113625000Y-72900000D01*
G75*
G02*
X113550000Y-72825000I0J75000D01*
G01*
X113550000Y-72675000D01*
G75*
G02*
X113625000Y-72600000I75000J0D01*
G01*
G37*
G36*
G01*
X113625000Y-72100000D02*
X115025000Y-72100000D01*
G75*
G02*
X115100000Y-72175000I0J-75000D01*
G01*
X115100000Y-72325000D01*
G75*
G02*
X115025000Y-72400000I-75000J0D01*
G01*
X113625000Y-72400000D01*
G75*
G02*
X113550000Y-72325000I0J75000D01*
G01*
X113550000Y-72175000D01*
G75*
G02*
X113625000Y-72100000I75000J0D01*
G01*
G37*
G36*
G01*
X113625000Y-71600000D02*
X115025000Y-71600000D01*
G75*
G02*
X115100000Y-71675000I0J-75000D01*
G01*
X115100000Y-71825000D01*
G75*
G02*
X115025000Y-71900000I-75000J0D01*
G01*
X113625000Y-71900000D01*
G75*
G02*
X113550000Y-71825000I0J75000D01*
G01*
X113550000Y-71675000D01*
G75*
G02*
X113625000Y-71600000I75000J0D01*
G01*
G37*
G36*
G01*
X113625000Y-71100000D02*
X115025000Y-71100000D01*
G75*
G02*
X115100000Y-71175000I0J-75000D01*
G01*
X115100000Y-71325000D01*
G75*
G02*
X115025000Y-71400000I-75000J0D01*
G01*
X113625000Y-71400000D01*
G75*
G02*
X113550000Y-71325000I0J75000D01*
G01*
X113550000Y-71175000D01*
G75*
G02*
X113625000Y-71100000I75000J0D01*
G01*
G37*
G36*
G01*
X116175000Y-68550000D02*
X116325000Y-68550000D01*
G75*
G02*
X116400000Y-68625000I0J-75000D01*
G01*
X116400000Y-70025000D01*
G75*
G02*
X116325000Y-70100000I-75000J0D01*
G01*
X116175000Y-70100000D01*
G75*
G02*
X116100000Y-70025000I0J75000D01*
G01*
X116100000Y-68625000D01*
G75*
G02*
X116175000Y-68550000I75000J0D01*
G01*
G37*
G36*
G01*
X116675000Y-68550000D02*
X116825000Y-68550000D01*
G75*
G02*
X116900000Y-68625000I0J-75000D01*
G01*
X116900000Y-70025000D01*
G75*
G02*
X116825000Y-70100000I-75000J0D01*
G01*
X116675000Y-70100000D01*
G75*
G02*
X116600000Y-70025000I0J75000D01*
G01*
X116600000Y-68625000D01*
G75*
G02*
X116675000Y-68550000I75000J0D01*
G01*
G37*
G36*
G01*
X117175000Y-68550000D02*
X117325000Y-68550000D01*
G75*
G02*
X117400000Y-68625000I0J-75000D01*
G01*
X117400000Y-70025000D01*
G75*
G02*
X117325000Y-70100000I-75000J0D01*
G01*
X117175000Y-70100000D01*
G75*
G02*
X117100000Y-70025000I0J75000D01*
G01*
X117100000Y-68625000D01*
G75*
G02*
X117175000Y-68550000I75000J0D01*
G01*
G37*
G36*
G01*
X117675000Y-68550000D02*
X117825000Y-68550000D01*
G75*
G02*
X117900000Y-68625000I0J-75000D01*
G01*
X117900000Y-70025000D01*
G75*
G02*
X117825000Y-70100000I-75000J0D01*
G01*
X117675000Y-70100000D01*
G75*
G02*
X117600000Y-70025000I0J75000D01*
G01*
X117600000Y-68625000D01*
G75*
G02*
X117675000Y-68550000I75000J0D01*
G01*
G37*
G36*
G01*
X118175000Y-68550000D02*
X118325000Y-68550000D01*
G75*
G02*
X118400000Y-68625000I0J-75000D01*
G01*
X118400000Y-70025000D01*
G75*
G02*
X118325000Y-70100000I-75000J0D01*
G01*
X118175000Y-70100000D01*
G75*
G02*
X118100000Y-70025000I0J75000D01*
G01*
X118100000Y-68625000D01*
G75*
G02*
X118175000Y-68550000I75000J0D01*
G01*
G37*
G36*
G01*
X118675000Y-68550000D02*
X118825000Y-68550000D01*
G75*
G02*
X118900000Y-68625000I0J-75000D01*
G01*
X118900000Y-70025000D01*
G75*
G02*
X118825000Y-70100000I-75000J0D01*
G01*
X118675000Y-70100000D01*
G75*
G02*
X118600000Y-70025000I0J75000D01*
G01*
X118600000Y-68625000D01*
G75*
G02*
X118675000Y-68550000I75000J0D01*
G01*
G37*
G36*
G01*
X119175000Y-68550000D02*
X119325000Y-68550000D01*
G75*
G02*
X119400000Y-68625000I0J-75000D01*
G01*
X119400000Y-70025000D01*
G75*
G02*
X119325000Y-70100000I-75000J0D01*
G01*
X119175000Y-70100000D01*
G75*
G02*
X119100000Y-70025000I0J75000D01*
G01*
X119100000Y-68625000D01*
G75*
G02*
X119175000Y-68550000I75000J0D01*
G01*
G37*
G36*
G01*
X119675000Y-68550000D02*
X119825000Y-68550000D01*
G75*
G02*
X119900000Y-68625000I0J-75000D01*
G01*
X119900000Y-70025000D01*
G75*
G02*
X119825000Y-70100000I-75000J0D01*
G01*
X119675000Y-70100000D01*
G75*
G02*
X119600000Y-70025000I0J75000D01*
G01*
X119600000Y-68625000D01*
G75*
G02*
X119675000Y-68550000I75000J0D01*
G01*
G37*
G36*
G01*
X120175000Y-68550000D02*
X120325000Y-68550000D01*
G75*
G02*
X120400000Y-68625000I0J-75000D01*
G01*
X120400000Y-70025000D01*
G75*
G02*
X120325000Y-70100000I-75000J0D01*
G01*
X120175000Y-70100000D01*
G75*
G02*
X120100000Y-70025000I0J75000D01*
G01*
X120100000Y-68625000D01*
G75*
G02*
X120175000Y-68550000I75000J0D01*
G01*
G37*
G36*
G01*
X120675000Y-68550000D02*
X120825000Y-68550000D01*
G75*
G02*
X120900000Y-68625000I0J-75000D01*
G01*
X120900000Y-70025000D01*
G75*
G02*
X120825000Y-70100000I-75000J0D01*
G01*
X120675000Y-70100000D01*
G75*
G02*
X120600000Y-70025000I0J75000D01*
G01*
X120600000Y-68625000D01*
G75*
G02*
X120675000Y-68550000I75000J0D01*
G01*
G37*
G36*
G01*
X121175000Y-68550000D02*
X121325000Y-68550000D01*
G75*
G02*
X121400000Y-68625000I0J-75000D01*
G01*
X121400000Y-70025000D01*
G75*
G02*
X121325000Y-70100000I-75000J0D01*
G01*
X121175000Y-70100000D01*
G75*
G02*
X121100000Y-70025000I0J75000D01*
G01*
X121100000Y-68625000D01*
G75*
G02*
X121175000Y-68550000I75000J0D01*
G01*
G37*
G36*
G01*
X121675000Y-68550000D02*
X121825000Y-68550000D01*
G75*
G02*
X121900000Y-68625000I0J-75000D01*
G01*
X121900000Y-70025000D01*
G75*
G02*
X121825000Y-70100000I-75000J0D01*
G01*
X121675000Y-70100000D01*
G75*
G02*
X121600000Y-70025000I0J75000D01*
G01*
X121600000Y-68625000D01*
G75*
G02*
X121675000Y-68550000I75000J0D01*
G01*
G37*
G36*
G01*
X122175000Y-68550000D02*
X122325000Y-68550000D01*
G75*
G02*
X122400000Y-68625000I0J-75000D01*
G01*
X122400000Y-70025000D01*
G75*
G02*
X122325000Y-70100000I-75000J0D01*
G01*
X122175000Y-70100000D01*
G75*
G02*
X122100000Y-70025000I0J75000D01*
G01*
X122100000Y-68625000D01*
G75*
G02*
X122175000Y-68550000I75000J0D01*
G01*
G37*
G36*
G01*
X122675000Y-68550000D02*
X122825000Y-68550000D01*
G75*
G02*
X122900000Y-68625000I0J-75000D01*
G01*
X122900000Y-70025000D01*
G75*
G02*
X122825000Y-70100000I-75000J0D01*
G01*
X122675000Y-70100000D01*
G75*
G02*
X122600000Y-70025000I0J75000D01*
G01*
X122600000Y-68625000D01*
G75*
G02*
X122675000Y-68550000I75000J0D01*
G01*
G37*
G36*
G01*
X123175000Y-68550000D02*
X123325000Y-68550000D01*
G75*
G02*
X123400000Y-68625000I0J-75000D01*
G01*
X123400000Y-70025000D01*
G75*
G02*
X123325000Y-70100000I-75000J0D01*
G01*
X123175000Y-70100000D01*
G75*
G02*
X123100000Y-70025000I0J75000D01*
G01*
X123100000Y-68625000D01*
G75*
G02*
X123175000Y-68550000I75000J0D01*
G01*
G37*
G36*
G01*
X123675000Y-68550000D02*
X123825000Y-68550000D01*
G75*
G02*
X123900000Y-68625000I0J-75000D01*
G01*
X123900000Y-70025000D01*
G75*
G02*
X123825000Y-70100000I-75000J0D01*
G01*
X123675000Y-70100000D01*
G75*
G02*
X123600000Y-70025000I0J75000D01*
G01*
X123600000Y-68625000D01*
G75*
G02*
X123675000Y-68550000I75000J0D01*
G01*
G37*
%TD*%
%TO.C,R4*%
G36*
G01*
X122050000Y-87356250D02*
X122050000Y-86843750D01*
G75*
G02*
X122268750Y-86625000I218750J0D01*
G01*
X122706250Y-86625000D01*
G75*
G02*
X122925000Y-86843750I0J-218750D01*
G01*
X122925000Y-87356250D01*
G75*
G02*
X122706250Y-87575000I-218750J0D01*
G01*
X122268750Y-87575000D01*
G75*
G02*
X122050000Y-87356250I0J218750D01*
G01*
G37*
G36*
G01*
X120475000Y-87356250D02*
X120475000Y-86843750D01*
G75*
G02*
X120693750Y-86625000I218750J0D01*
G01*
X121131250Y-86625000D01*
G75*
G02*
X121350000Y-86843750I0J-218750D01*
G01*
X121350000Y-87356250D01*
G75*
G02*
X121131250Y-87575000I-218750J0D01*
G01*
X120693750Y-87575000D01*
G75*
G02*
X120475000Y-87356250I0J218750D01*
G01*
G37*
%TD*%
%TO.C,R5*%
G36*
G01*
X122050000Y-85756250D02*
X122050000Y-85243750D01*
G75*
G02*
X122268750Y-85025000I218750J0D01*
G01*
X122706250Y-85025000D01*
G75*
G02*
X122925000Y-85243750I0J-218750D01*
G01*
X122925000Y-85756250D01*
G75*
G02*
X122706250Y-85975000I-218750J0D01*
G01*
X122268750Y-85975000D01*
G75*
G02*
X122050000Y-85756250I0J218750D01*
G01*
G37*
G36*
G01*
X120475000Y-85756250D02*
X120475000Y-85243750D01*
G75*
G02*
X120693750Y-85025000I218750J0D01*
G01*
X121131250Y-85025000D01*
G75*
G02*
X121350000Y-85243750I0J-218750D01*
G01*
X121350000Y-85756250D01*
G75*
G02*
X121131250Y-85975000I-218750J0D01*
G01*
X120693750Y-85975000D01*
G75*
G02*
X120475000Y-85756250I0J218750D01*
G01*
G37*
%TD*%
%TO.C,J5*%
G36*
G01*
X106800000Y-50774999D02*
X106800000Y-52075001D01*
G75*
G02*
X106550001Y-52325000I-249999J0D01*
G01*
X105849999Y-52325000D01*
G75*
G02*
X105600000Y-52075001I0J249999D01*
G01*
X105600000Y-50774999D01*
G75*
G02*
X105849999Y-50525000I249999J0D01*
G01*
X106550001Y-50525000D01*
G75*
G02*
X106800000Y-50774999I0J-249999D01*
G01*
G37*
G36*
G01*
X112400000Y-50774999D02*
X112400000Y-52075001D01*
G75*
G02*
X112150001Y-52325000I-249999J0D01*
G01*
X111449999Y-52325000D01*
G75*
G02*
X111200000Y-52075001I0J249999D01*
G01*
X111200000Y-50774999D01*
G75*
G02*
X111449999Y-50525000I249999J0D01*
G01*
X112150001Y-50525000D01*
G75*
G02*
X112400000Y-50774999I0J-249999D01*
G01*
G37*
G36*
G01*
X107800000Y-54675000D02*
X107800000Y-55925000D01*
G75*
G02*
X107650000Y-56075000I-150000J0D01*
G01*
X107350000Y-56075000D01*
G75*
G02*
X107200000Y-55925000I0J150000D01*
G01*
X107200000Y-54675000D01*
G75*
G02*
X107350000Y-54525000I150000J0D01*
G01*
X107650000Y-54525000D01*
G75*
G02*
X107800000Y-54675000I0J-150000D01*
G01*
G37*
G36*
G01*
X108800000Y-54675000D02*
X108800000Y-55925000D01*
G75*
G02*
X108650000Y-56075000I-150000J0D01*
G01*
X108350000Y-56075000D01*
G75*
G02*
X108200000Y-55925000I0J150000D01*
G01*
X108200000Y-54675000D01*
G75*
G02*
X108350000Y-54525000I150000J0D01*
G01*
X108650000Y-54525000D01*
G75*
G02*
X108800000Y-54675000I0J-150000D01*
G01*
G37*
G36*
G01*
X109800000Y-54675000D02*
X109800000Y-55925000D01*
G75*
G02*
X109650000Y-56075000I-150000J0D01*
G01*
X109350000Y-56075000D01*
G75*
G02*
X109200000Y-55925000I0J150000D01*
G01*
X109200000Y-54675000D01*
G75*
G02*
X109350000Y-54525000I150000J0D01*
G01*
X109650000Y-54525000D01*
G75*
G02*
X109800000Y-54675000I0J-150000D01*
G01*
G37*
G36*
G01*
X110800000Y-54675000D02*
X110800000Y-55925000D01*
G75*
G02*
X110650000Y-56075000I-150000J0D01*
G01*
X110350000Y-56075000D01*
G75*
G02*
X110200000Y-55925000I0J150000D01*
G01*
X110200000Y-54675000D01*
G75*
G02*
X110350000Y-54525000I150000J0D01*
G01*
X110650000Y-54525000D01*
G75*
G02*
X110800000Y-54675000I0J-150000D01*
G01*
G37*
%TD*%
%TO.C,C13*%
G36*
G01*
X125100000Y-87356250D02*
X125100000Y-86843750D01*
G75*
G02*
X125318750Y-86625000I218750J0D01*
G01*
X125756250Y-86625000D01*
G75*
G02*
X125975000Y-86843750I0J-218750D01*
G01*
X125975000Y-87356250D01*
G75*
G02*
X125756250Y-87575000I-218750J0D01*
G01*
X125318750Y-87575000D01*
G75*
G02*
X125100000Y-87356250I0J218750D01*
G01*
G37*
G36*
G01*
X123525000Y-87356250D02*
X123525000Y-86843750D01*
G75*
G02*
X123743750Y-86625000I218750J0D01*
G01*
X124181250Y-86625000D01*
G75*
G02*
X124400000Y-86843750I0J-218750D01*
G01*
X124400000Y-87356250D01*
G75*
G02*
X124181250Y-87575000I-218750J0D01*
G01*
X123743750Y-87575000D01*
G75*
G02*
X123525000Y-87356250I0J218750D01*
G01*
G37*
%TD*%
%TO.C,U6*%
G36*
G01*
X113125000Y-83705000D02*
X113125000Y-83405000D01*
G75*
G02*
X113275000Y-83255000I150000J0D01*
G01*
X115025000Y-83255000D01*
G75*
G02*
X115175000Y-83405000I0J-150000D01*
G01*
X115175000Y-83705000D01*
G75*
G02*
X115025000Y-83855000I-150000J0D01*
G01*
X113275000Y-83855000D01*
G75*
G02*
X113125000Y-83705000I0J150000D01*
G01*
G37*
G36*
G01*
X113125000Y-84975000D02*
X113125000Y-84675000D01*
G75*
G02*
X113275000Y-84525000I150000J0D01*
G01*
X115025000Y-84525000D01*
G75*
G02*
X115175000Y-84675000I0J-150000D01*
G01*
X115175000Y-84975000D01*
G75*
G02*
X115025000Y-85125000I-150000J0D01*
G01*
X113275000Y-85125000D01*
G75*
G02*
X113125000Y-84975000I0J150000D01*
G01*
G37*
G36*
G01*
X113125000Y-86245000D02*
X113125000Y-85945000D01*
G75*
G02*
X113275000Y-85795000I150000J0D01*
G01*
X115025000Y-85795000D01*
G75*
G02*
X115175000Y-85945000I0J-150000D01*
G01*
X115175000Y-86245000D01*
G75*
G02*
X115025000Y-86395000I-150000J0D01*
G01*
X113275000Y-86395000D01*
G75*
G02*
X113125000Y-86245000I0J150000D01*
G01*
G37*
G36*
G01*
X113125000Y-87515000D02*
X113125000Y-87215000D01*
G75*
G02*
X113275000Y-87065000I150000J0D01*
G01*
X115025000Y-87065000D01*
G75*
G02*
X115175000Y-87215000I0J-150000D01*
G01*
X115175000Y-87515000D01*
G75*
G02*
X115025000Y-87665000I-150000J0D01*
G01*
X113275000Y-87665000D01*
G75*
G02*
X113125000Y-87515000I0J150000D01*
G01*
G37*
G36*
G01*
X113125000Y-88785000D02*
X113125000Y-88485000D01*
G75*
G02*
X113275000Y-88335000I150000J0D01*
G01*
X115025000Y-88335000D01*
G75*
G02*
X115175000Y-88485000I0J-150000D01*
G01*
X115175000Y-88785000D01*
G75*
G02*
X115025000Y-88935000I-150000J0D01*
G01*
X113275000Y-88935000D01*
G75*
G02*
X113125000Y-88785000I0J150000D01*
G01*
G37*
G36*
G01*
X113125000Y-90055000D02*
X113125000Y-89755000D01*
G75*
G02*
X113275000Y-89605000I150000J0D01*
G01*
X115025000Y-89605000D01*
G75*
G02*
X115175000Y-89755000I0J-150000D01*
G01*
X115175000Y-90055000D01*
G75*
G02*
X115025000Y-90205000I-150000J0D01*
G01*
X113275000Y-90205000D01*
G75*
G02*
X113125000Y-90055000I0J150000D01*
G01*
G37*
G36*
G01*
X113125000Y-91325000D02*
X113125000Y-91025000D01*
G75*
G02*
X113275000Y-90875000I150000J0D01*
G01*
X115025000Y-90875000D01*
G75*
G02*
X115175000Y-91025000I0J-150000D01*
G01*
X115175000Y-91325000D01*
G75*
G02*
X115025000Y-91475000I-150000J0D01*
G01*
X113275000Y-91475000D01*
G75*
G02*
X113125000Y-91325000I0J150000D01*
G01*
G37*
G36*
G01*
X113125000Y-92595000D02*
X113125000Y-92295000D01*
G75*
G02*
X113275000Y-92145000I150000J0D01*
G01*
X115025000Y-92145000D01*
G75*
G02*
X115175000Y-92295000I0J-150000D01*
G01*
X115175000Y-92595000D01*
G75*
G02*
X115025000Y-92745000I-150000J0D01*
G01*
X113275000Y-92745000D01*
G75*
G02*
X113125000Y-92595000I0J150000D01*
G01*
G37*
G36*
G01*
X103825000Y-92595000D02*
X103825000Y-92295000D01*
G75*
G02*
X103975000Y-92145000I150000J0D01*
G01*
X105725000Y-92145000D01*
G75*
G02*
X105875000Y-92295000I0J-150000D01*
G01*
X105875000Y-92595000D01*
G75*
G02*
X105725000Y-92745000I-150000J0D01*
G01*
X103975000Y-92745000D01*
G75*
G02*
X103825000Y-92595000I0J150000D01*
G01*
G37*
G36*
G01*
X103825000Y-91325000D02*
X103825000Y-91025000D01*
G75*
G02*
X103975000Y-90875000I150000J0D01*
G01*
X105725000Y-90875000D01*
G75*
G02*
X105875000Y-91025000I0J-150000D01*
G01*
X105875000Y-91325000D01*
G75*
G02*
X105725000Y-91475000I-150000J0D01*
G01*
X103975000Y-91475000D01*
G75*
G02*
X103825000Y-91325000I0J150000D01*
G01*
G37*
G36*
G01*
X103825000Y-90055000D02*
X103825000Y-89755000D01*
G75*
G02*
X103975000Y-89605000I150000J0D01*
G01*
X105725000Y-89605000D01*
G75*
G02*
X105875000Y-89755000I0J-150000D01*
G01*
X105875000Y-90055000D01*
G75*
G02*
X105725000Y-90205000I-150000J0D01*
G01*
X103975000Y-90205000D01*
G75*
G02*
X103825000Y-90055000I0J150000D01*
G01*
G37*
G36*
G01*
X103825000Y-88785000D02*
X103825000Y-88485000D01*
G75*
G02*
X103975000Y-88335000I150000J0D01*
G01*
X105725000Y-88335000D01*
G75*
G02*
X105875000Y-88485000I0J-150000D01*
G01*
X105875000Y-88785000D01*
G75*
G02*
X105725000Y-88935000I-150000J0D01*
G01*
X103975000Y-88935000D01*
G75*
G02*
X103825000Y-88785000I0J150000D01*
G01*
G37*
G36*
G01*
X103825000Y-87515000D02*
X103825000Y-87215000D01*
G75*
G02*
X103975000Y-87065000I150000J0D01*
G01*
X105725000Y-87065000D01*
G75*
G02*
X105875000Y-87215000I0J-150000D01*
G01*
X105875000Y-87515000D01*
G75*
G02*
X105725000Y-87665000I-150000J0D01*
G01*
X103975000Y-87665000D01*
G75*
G02*
X103825000Y-87515000I0J150000D01*
G01*
G37*
G36*
G01*
X103825000Y-86245000D02*
X103825000Y-85945000D01*
G75*
G02*
X103975000Y-85795000I150000J0D01*
G01*
X105725000Y-85795000D01*
G75*
G02*
X105875000Y-85945000I0J-150000D01*
G01*
X105875000Y-86245000D01*
G75*
G02*
X105725000Y-86395000I-150000J0D01*
G01*
X103975000Y-86395000D01*
G75*
G02*
X103825000Y-86245000I0J150000D01*
G01*
G37*
G36*
G01*
X103825000Y-84975000D02*
X103825000Y-84675000D01*
G75*
G02*
X103975000Y-84525000I150000J0D01*
G01*
X105725000Y-84525000D01*
G75*
G02*
X105875000Y-84675000I0J-150000D01*
G01*
X105875000Y-84975000D01*
G75*
G02*
X105725000Y-85125000I-150000J0D01*
G01*
X103975000Y-85125000D01*
G75*
G02*
X103825000Y-84975000I0J150000D01*
G01*
G37*
G36*
G01*
X103825000Y-83705000D02*
X103825000Y-83405000D01*
G75*
G02*
X103975000Y-83255000I150000J0D01*
G01*
X105725000Y-83255000D01*
G75*
G02*
X105875000Y-83405000I0J-150000D01*
G01*
X105875000Y-83705000D01*
G75*
G02*
X105725000Y-83855000I-150000J0D01*
G01*
X103975000Y-83855000D01*
G75*
G02*
X103825000Y-83705000I0J150000D01*
G01*
G37*
%TD*%
D20*
%TO.C,U1*%
X118600000Y-90650000D03*
X120500000Y-90650000D03*
X120500000Y-92850000D03*
X119550000Y-92850000D03*
X118600000Y-92850000D03*
%TD*%
%TO.C,FB2*%
G36*
G01*
X118102800Y-61111450D02*
X118102800Y-60198950D01*
G75*
G02*
X118346550Y-59955200I243750J0D01*
G01*
X118834050Y-59955200D01*
G75*
G02*
X119077800Y-60198950I0J-243750D01*
G01*
X119077800Y-61111450D01*
G75*
G02*
X118834050Y-61355200I-243750J0D01*
G01*
X118346550Y-61355200D01*
G75*
G02*
X118102800Y-61111450I0J243750D01*
G01*
G37*
G36*
G01*
X116227800Y-61111450D02*
X116227800Y-60198950D01*
G75*
G02*
X116471550Y-59955200I243750J0D01*
G01*
X116959050Y-59955200D01*
G75*
G02*
X117202800Y-60198950I0J-243750D01*
G01*
X117202800Y-61111450D01*
G75*
G02*
X116959050Y-61355200I-243750J0D01*
G01*
X116471550Y-61355200D01*
G75*
G02*
X116227800Y-61111450I0J243750D01*
G01*
G37*
%TD*%
%TO.C,FB1*%
G36*
G01*
X121943750Y-92000000D02*
X122856250Y-92000000D01*
G75*
G02*
X123100000Y-92243750I0J-243750D01*
G01*
X123100000Y-92731250D01*
G75*
G02*
X122856250Y-92975000I-243750J0D01*
G01*
X121943750Y-92975000D01*
G75*
G02*
X121700000Y-92731250I0J243750D01*
G01*
X121700000Y-92243750D01*
G75*
G02*
X121943750Y-92000000I243750J0D01*
G01*
G37*
G36*
G01*
X121943750Y-90125000D02*
X122856250Y-90125000D01*
G75*
G02*
X123100000Y-90368750I0J-243750D01*
G01*
X123100000Y-90856250D01*
G75*
G02*
X122856250Y-91100000I-243750J0D01*
G01*
X121943750Y-91100000D01*
G75*
G02*
X121700000Y-90856250I0J243750D01*
G01*
X121700000Y-90368750D01*
G75*
G02*
X121943750Y-90125000I243750J0D01*
G01*
G37*
%TD*%
%TO.C,C18*%
G36*
G01*
X123650000Y-82843750D02*
X123650000Y-83356250D01*
G75*
G02*
X123431250Y-83575000I-218750J0D01*
G01*
X122993750Y-83575000D01*
G75*
G02*
X122775000Y-83356250I0J218750D01*
G01*
X122775000Y-82843750D01*
G75*
G02*
X122993750Y-82625000I218750J0D01*
G01*
X123431250Y-82625000D01*
G75*
G02*
X123650000Y-82843750I0J-218750D01*
G01*
G37*
G36*
G01*
X125225000Y-82843750D02*
X125225000Y-83356250D01*
G75*
G02*
X125006250Y-83575000I-218750J0D01*
G01*
X124568750Y-83575000D01*
G75*
G02*
X124350000Y-83356250I0J218750D01*
G01*
X124350000Y-82843750D01*
G75*
G02*
X124568750Y-82625000I218750J0D01*
G01*
X125006250Y-82625000D01*
G75*
G02*
X125225000Y-82843750I0J-218750D01*
G01*
G37*
%TD*%
%TO.C,C17*%
G36*
G01*
X112256250Y-79150000D02*
X111743750Y-79150000D01*
G75*
G02*
X111525000Y-78931250I0J218750D01*
G01*
X111525000Y-78493750D01*
G75*
G02*
X111743750Y-78275000I218750J0D01*
G01*
X112256250Y-78275000D01*
G75*
G02*
X112475000Y-78493750I0J-218750D01*
G01*
X112475000Y-78931250D01*
G75*
G02*
X112256250Y-79150000I-218750J0D01*
G01*
G37*
G36*
G01*
X112256250Y-80725000D02*
X111743750Y-80725000D01*
G75*
G02*
X111525000Y-80506250I0J218750D01*
G01*
X111525000Y-80068750D01*
G75*
G02*
X111743750Y-79850000I218750J0D01*
G01*
X112256250Y-79850000D01*
G75*
G02*
X112475000Y-80068750I0J-218750D01*
G01*
X112475000Y-80506250D01*
G75*
G02*
X112256250Y-80725000I-218750J0D01*
G01*
G37*
%TD*%
%TO.C,C16*%
G36*
G01*
X112256250Y-70900000D02*
X111743750Y-70900000D01*
G75*
G02*
X111525000Y-70681250I0J218750D01*
G01*
X111525000Y-70243750D01*
G75*
G02*
X111743750Y-70025000I218750J0D01*
G01*
X112256250Y-70025000D01*
G75*
G02*
X112475000Y-70243750I0J-218750D01*
G01*
X112475000Y-70681250D01*
G75*
G02*
X112256250Y-70900000I-218750J0D01*
G01*
G37*
G36*
G01*
X112256250Y-72475000D02*
X111743750Y-72475000D01*
G75*
G02*
X111525000Y-72256250I0J218750D01*
G01*
X111525000Y-71818750D01*
G75*
G02*
X111743750Y-71600000I218750J0D01*
G01*
X112256250Y-71600000D01*
G75*
G02*
X112475000Y-71818750I0J-218750D01*
G01*
X112475000Y-72256250D01*
G75*
G02*
X112256250Y-72475000I-218750J0D01*
G01*
G37*
%TD*%
%TO.C,C15*%
G36*
G01*
X127106250Y-81700000D02*
X126193750Y-81700000D01*
G75*
G02*
X125950000Y-81456250I0J243750D01*
G01*
X125950000Y-80968750D01*
G75*
G02*
X126193750Y-80725000I243750J0D01*
G01*
X127106250Y-80725000D01*
G75*
G02*
X127350000Y-80968750I0J-243750D01*
G01*
X127350000Y-81456250D01*
G75*
G02*
X127106250Y-81700000I-243750J0D01*
G01*
G37*
G36*
G01*
X127106250Y-83575000D02*
X126193750Y-83575000D01*
G75*
G02*
X125950000Y-83331250I0J243750D01*
G01*
X125950000Y-82843750D01*
G75*
G02*
X126193750Y-82600000I243750J0D01*
G01*
X127106250Y-82600000D01*
G75*
G02*
X127350000Y-82843750I0J-243750D01*
G01*
X127350000Y-83331250D01*
G75*
G02*
X127106250Y-83575000I-243750J0D01*
G01*
G37*
%TD*%
%TO.C,C14*%
G36*
G01*
X137443750Y-77850000D02*
X137956250Y-77850000D01*
G75*
G02*
X138175000Y-78068750I0J-218750D01*
G01*
X138175000Y-78506250D01*
G75*
G02*
X137956250Y-78725000I-218750J0D01*
G01*
X137443750Y-78725000D01*
G75*
G02*
X137225000Y-78506250I0J218750D01*
G01*
X137225000Y-78068750D01*
G75*
G02*
X137443750Y-77850000I218750J0D01*
G01*
G37*
G36*
G01*
X137443750Y-76275000D02*
X137956250Y-76275000D01*
G75*
G02*
X138175000Y-76493750I0J-218750D01*
G01*
X138175000Y-76931250D01*
G75*
G02*
X137956250Y-77150000I-218750J0D01*
G01*
X137443750Y-77150000D01*
G75*
G02*
X137225000Y-76931250I0J218750D01*
G01*
X137225000Y-76493750D01*
G75*
G02*
X137443750Y-76275000I218750J0D01*
G01*
G37*
%TD*%
%TO.C,C2*%
G36*
G01*
X126706250Y-67500000D02*
X126193750Y-67500000D01*
G75*
G02*
X125975000Y-67281250I0J218750D01*
G01*
X125975000Y-66843750D01*
G75*
G02*
X126193750Y-66625000I218750J0D01*
G01*
X126706250Y-66625000D01*
G75*
G02*
X126925000Y-66843750I0J-218750D01*
G01*
X126925000Y-67281250D01*
G75*
G02*
X126706250Y-67500000I-218750J0D01*
G01*
G37*
G36*
G01*
X126706250Y-69075000D02*
X126193750Y-69075000D01*
G75*
G02*
X125975000Y-68856250I0J218750D01*
G01*
X125975000Y-68418750D01*
G75*
G02*
X126193750Y-68200000I218750J0D01*
G01*
X126706250Y-68200000D01*
G75*
G02*
X126925000Y-68418750I0J-218750D01*
G01*
X126925000Y-68856250D01*
G75*
G02*
X126706250Y-69075000I-218750J0D01*
G01*
G37*
%TD*%
%TO.C,C6*%
G36*
G01*
X117977400Y-64721450D02*
X117977400Y-64208950D01*
G75*
G02*
X118196150Y-63990200I218750J0D01*
G01*
X118633650Y-63990200D01*
G75*
G02*
X118852400Y-64208950I0J-218750D01*
G01*
X118852400Y-64721450D01*
G75*
G02*
X118633650Y-64940200I-218750J0D01*
G01*
X118196150Y-64940200D01*
G75*
G02*
X117977400Y-64721450I0J218750D01*
G01*
G37*
G36*
G01*
X116402400Y-64721450D02*
X116402400Y-64208950D01*
G75*
G02*
X116621150Y-63990200I218750J0D01*
G01*
X117058650Y-63990200D01*
G75*
G02*
X117277400Y-64208950I0J-218750D01*
G01*
X117277400Y-64721450D01*
G75*
G02*
X117058650Y-64940200I-218750J0D01*
G01*
X116621150Y-64940200D01*
G75*
G02*
X116402400Y-64721450I0J218750D01*
G01*
G37*
%TD*%
%TO.C,C4*%
G36*
G01*
X116193750Y-92150000D02*
X117106250Y-92150000D01*
G75*
G02*
X117350000Y-92393750I0J-243750D01*
G01*
X117350000Y-92881250D01*
G75*
G02*
X117106250Y-93125000I-243750J0D01*
G01*
X116193750Y-93125000D01*
G75*
G02*
X115950000Y-92881250I0J243750D01*
G01*
X115950000Y-92393750D01*
G75*
G02*
X116193750Y-92150000I243750J0D01*
G01*
G37*
G36*
G01*
X116193750Y-90275000D02*
X117106250Y-90275000D01*
G75*
G02*
X117350000Y-90518750I0J-243750D01*
G01*
X117350000Y-91006250D01*
G75*
G02*
X117106250Y-91250000I-243750J0D01*
G01*
X116193750Y-91250000D01*
G75*
G02*
X115950000Y-91006250I0J243750D01*
G01*
X115950000Y-90518750D01*
G75*
G02*
X116193750Y-90275000I243750J0D01*
G01*
G37*
%TD*%
D21*
%TO.C,Y1*%
X124150000Y-64200000D03*
X126650000Y-64200000D03*
%TD*%
D22*
%TO.C,X1*%
X122720000Y-65215000D03*
X121520000Y-65215000D03*
X120320000Y-65215000D03*
%TD*%
D20*
%TO.C,U2*%
X131150000Y-91800000D03*
X132100000Y-91800000D03*
X130200000Y-91800000D03*
X130200000Y-89600000D03*
X131150000Y-89600000D03*
X132100000Y-89600000D03*
%TD*%
%TO.C,R7*%
G36*
G01*
X123993750Y-92850000D02*
X124506250Y-92850000D01*
G75*
G02*
X124725000Y-93068750I0J-218750D01*
G01*
X124725000Y-93506250D01*
G75*
G02*
X124506250Y-93725000I-218750J0D01*
G01*
X123993750Y-93725000D01*
G75*
G02*
X123775000Y-93506250I0J218750D01*
G01*
X123775000Y-93068750D01*
G75*
G02*
X123993750Y-92850000I218750J0D01*
G01*
G37*
G36*
G01*
X123993750Y-91275000D02*
X124506250Y-91275000D01*
G75*
G02*
X124725000Y-91493750I0J-218750D01*
G01*
X124725000Y-91931250D01*
G75*
G02*
X124506250Y-92150000I-218750J0D01*
G01*
X123993750Y-92150000D01*
G75*
G02*
X123775000Y-91931250I0J218750D01*
G01*
X123775000Y-91493750D01*
G75*
G02*
X123993750Y-91275000I218750J0D01*
G01*
G37*
%TD*%
%TO.C,R6*%
G36*
G01*
X126900000Y-92006250D02*
X126900000Y-91493750D01*
G75*
G02*
X127118750Y-91275000I218750J0D01*
G01*
X127556250Y-91275000D01*
G75*
G02*
X127775000Y-91493750I0J-218750D01*
G01*
X127775000Y-92006250D01*
G75*
G02*
X127556250Y-92225000I-218750J0D01*
G01*
X127118750Y-92225000D01*
G75*
G02*
X126900000Y-92006250I0J218750D01*
G01*
G37*
G36*
G01*
X125325000Y-92006250D02*
X125325000Y-91493750D01*
G75*
G02*
X125543750Y-91275000I218750J0D01*
G01*
X125981250Y-91275000D01*
G75*
G02*
X126200000Y-91493750I0J-218750D01*
G01*
X126200000Y-92006250D01*
G75*
G02*
X125981250Y-92225000I-218750J0D01*
G01*
X125543750Y-92225000D01*
G75*
G02*
X125325000Y-92006250I0J218750D01*
G01*
G37*
%TD*%
%TO.C,D2*%
G36*
G01*
X124506250Y-89050000D02*
X123993750Y-89050000D01*
G75*
G02*
X123775000Y-88831250I0J218750D01*
G01*
X123775000Y-88393750D01*
G75*
G02*
X123993750Y-88175000I218750J0D01*
G01*
X124506250Y-88175000D01*
G75*
G02*
X124725000Y-88393750I0J-218750D01*
G01*
X124725000Y-88831250D01*
G75*
G02*
X124506250Y-89050000I-218750J0D01*
G01*
G37*
G36*
G01*
X124506250Y-90625000D02*
X123993750Y-90625000D01*
G75*
G02*
X123775000Y-90406250I0J218750D01*
G01*
X123775000Y-89968750D01*
G75*
G02*
X123993750Y-89750000I218750J0D01*
G01*
X124506250Y-89750000D01*
G75*
G02*
X124725000Y-89968750I0J-218750D01*
G01*
X124725000Y-90406250D01*
G75*
G02*
X124506250Y-90625000I-218750J0D01*
G01*
G37*
%TD*%
%TO.C,D1*%
G36*
G01*
X126106250Y-89050000D02*
X125593750Y-89050000D01*
G75*
G02*
X125375000Y-88831250I0J218750D01*
G01*
X125375000Y-88393750D01*
G75*
G02*
X125593750Y-88175000I218750J0D01*
G01*
X126106250Y-88175000D01*
G75*
G02*
X126325000Y-88393750I0J-218750D01*
G01*
X126325000Y-88831250D01*
G75*
G02*
X126106250Y-89050000I-218750J0D01*
G01*
G37*
G36*
G01*
X126106250Y-90625000D02*
X125593750Y-90625000D01*
G75*
G02*
X125375000Y-90406250I0J218750D01*
G01*
X125375000Y-89968750D01*
G75*
G02*
X125593750Y-89750000I218750J0D01*
G01*
X126106250Y-89750000D01*
G75*
G02*
X126325000Y-89968750I0J-218750D01*
G01*
X126325000Y-90406250D01*
G75*
G02*
X126106250Y-90625000I-218750J0D01*
G01*
G37*
%TD*%
%TO.C,C19*%
G36*
G01*
X127743750Y-71312500D02*
X128256250Y-71312500D01*
G75*
G02*
X128475000Y-71531250I0J-218750D01*
G01*
X128475000Y-71968750D01*
G75*
G02*
X128256250Y-72187500I-218750J0D01*
G01*
X127743750Y-72187500D01*
G75*
G02*
X127525000Y-71968750I0J218750D01*
G01*
X127525000Y-71531250D01*
G75*
G02*
X127743750Y-71312500I218750J0D01*
G01*
G37*
G36*
G01*
X127743750Y-69737500D02*
X128256250Y-69737500D01*
G75*
G02*
X128475000Y-69956250I0J-218750D01*
G01*
X128475000Y-70393750D01*
G75*
G02*
X128256250Y-70612500I-218750J0D01*
G01*
X127743750Y-70612500D01*
G75*
G02*
X127525000Y-70393750I0J218750D01*
G01*
X127525000Y-69956250D01*
G75*
G02*
X127743750Y-69737500I218750J0D01*
G01*
G37*
%TD*%
%TO.C,C10*%
G36*
G01*
X124856250Y-61050000D02*
X124343750Y-61050000D01*
G75*
G02*
X124125000Y-60831250I0J218750D01*
G01*
X124125000Y-60393750D01*
G75*
G02*
X124343750Y-60175000I218750J0D01*
G01*
X124856250Y-60175000D01*
G75*
G02*
X125075000Y-60393750I0J-218750D01*
G01*
X125075000Y-60831250D01*
G75*
G02*
X124856250Y-61050000I-218750J0D01*
G01*
G37*
G36*
G01*
X124856250Y-62625000D02*
X124343750Y-62625000D01*
G75*
G02*
X124125000Y-62406250I0J218750D01*
G01*
X124125000Y-61968750D01*
G75*
G02*
X124343750Y-61750000I218750J0D01*
G01*
X124856250Y-61750000D01*
G75*
G02*
X125075000Y-61968750I0J-218750D01*
G01*
X125075000Y-62406250D01*
G75*
G02*
X124856250Y-62625000I-218750J0D01*
G01*
G37*
%TD*%
%TO.C,C9*%
G36*
G01*
X126456250Y-61050000D02*
X125943750Y-61050000D01*
G75*
G02*
X125725000Y-60831250I0J218750D01*
G01*
X125725000Y-60393750D01*
G75*
G02*
X125943750Y-60175000I218750J0D01*
G01*
X126456250Y-60175000D01*
G75*
G02*
X126675000Y-60393750I0J-218750D01*
G01*
X126675000Y-60831250D01*
G75*
G02*
X126456250Y-61050000I-218750J0D01*
G01*
G37*
G36*
G01*
X126456250Y-62625000D02*
X125943750Y-62625000D01*
G75*
G02*
X125725000Y-62406250I0J218750D01*
G01*
X125725000Y-61968750D01*
G75*
G02*
X125943750Y-61750000I218750J0D01*
G01*
X126456250Y-61750000D01*
G75*
G02*
X126675000Y-61968750I0J-218750D01*
G01*
X126675000Y-62406250D01*
G75*
G02*
X126456250Y-62625000I-218750J0D01*
G01*
G37*
%TD*%
%TO.C,C1*%
G36*
G01*
X136256250Y-72150000D02*
X135743750Y-72150000D01*
G75*
G02*
X135525000Y-71931250I0J218750D01*
G01*
X135525000Y-71493750D01*
G75*
G02*
X135743750Y-71275000I218750J0D01*
G01*
X136256250Y-71275000D01*
G75*
G02*
X136475000Y-71493750I0J-218750D01*
G01*
X136475000Y-71931250D01*
G75*
G02*
X136256250Y-72150000I-218750J0D01*
G01*
G37*
G36*
G01*
X136256250Y-73725000D02*
X135743750Y-73725000D01*
G75*
G02*
X135525000Y-73506250I0J218750D01*
G01*
X135525000Y-73068750D01*
G75*
G02*
X135743750Y-72850000I218750J0D01*
G01*
X136256250Y-72850000D01*
G75*
G02*
X136475000Y-73068750I0J-218750D01*
G01*
X136475000Y-73506250D01*
G75*
G02*
X136256250Y-73725000I-218750J0D01*
G01*
G37*
%TD*%
M02*
