G04 #@! TF.FileFunction,Soldermask,Bot*
%FSLAX46Y46*%
G04 Gerber Fmt 4.6, Leading zero omitted, Abs format (unit mm)*
G04 Created by KiCad (PCBNEW 0.201509300352+6225~30~ubuntu15.04.1-product) date Thu 01 Oct 2015 02:18:51 AM PDT*
%MOMM*%
G01*
G04 APERTURE LIST*
%ADD10C,0.100000*%
%ADD11R,0.797560X1.498600*%
%ADD12R,1.447800X0.899160*%
%ADD13R,1.470000X2.070000*%
%ADD14C,0.899160*%
%ADD15R,2.199640X1.524000*%
%ADD16O,2.199640X1.524000*%
G04 APERTURE END LIST*
D10*
D11*
X141424660Y-139268200D03*
X142524480Y-139268200D03*
X143624300Y-139268200D03*
X144724120Y-139268200D03*
X145823940Y-139268200D03*
X146923760Y-139268200D03*
X148023580Y-139268200D03*
X149123400Y-139268200D03*
D12*
X137850880Y-143565880D03*
X151597360Y-131866640D03*
D13*
X151599120Y-133568360D03*
X151599120Y-141868360D03*
X137849120Y-141868360D03*
X137849120Y-133568360D03*
D14*
X146977100Y-101701600D03*
X142580360Y-101701600D03*
D15*
X154940000Y-99060000D03*
D16*
X154940000Y-101600000D03*
X154940000Y-104140000D03*
X154940000Y-106680000D03*
X154940000Y-109220000D03*
X154940000Y-111760000D03*
X154940000Y-114300000D03*
X154940000Y-116840000D03*
X154940000Y-119380000D03*
X154940000Y-121920000D03*
X154940000Y-124460000D03*
X154940000Y-127000000D03*
X154940000Y-129540000D03*
X154940000Y-132080000D03*
X154940000Y-134620000D03*
X154940000Y-137160000D03*
X154940000Y-139700000D03*
X154940000Y-142240000D03*
X154940000Y-144780000D03*
D15*
X134620000Y-99060000D03*
D16*
X134620000Y-101600000D03*
X134620000Y-104140000D03*
X134620000Y-106680000D03*
X134620000Y-109220000D03*
X134620000Y-111760000D03*
X134620000Y-114300000D03*
X134620000Y-116840000D03*
X134620000Y-119380000D03*
X134620000Y-121920000D03*
X134620000Y-124460000D03*
X134620000Y-127000000D03*
X134620000Y-129540000D03*
X134620000Y-132080000D03*
X134620000Y-134620000D03*
X134620000Y-137160000D03*
X134620000Y-139700000D03*
X134620000Y-142240000D03*
X134620000Y-144780000D03*
M02*
