M48
;DRILL file {KiCad 0.201509300352+6225~30~ubuntu15.04.1-product} date Thu 01 Oct 2015 02:19:09 AM PDT
;FORMAT={-:-/ absolute / inch / decimal}
FMAT,2
INCH,TZ
T1C0.016
T2C0.035
T3C0.039
%
G90
G05
M72
T1
X5.5064Y-5.4016
X5.51Y-4.525
X5.5121Y-4.0197
X5.52Y-5.465
X5.52Y-5.65
X5.5362Y-5.4123
X5.5426Y-4.9624
X5.5474Y-5.3608
X5.5555Y-5.3017
X5.57Y-4.94
X5.5722Y-5.5391
X5.585Y-5.365
X5.5869Y-5.2981
X5.5995Y-4.9549
X5.6026Y-5.5598
X5.6068Y-5.2735
X5.6195Y-5.1678
X5.6214Y-5.242
X5.6234Y-4.1902
X5.6234Y-5.4091
X5.6307Y-5.5454
X5.631Y-5.0614
X5.6367Y-5.1131
X5.641Y-5.3828
X5.6478Y-5.1819
X5.6558Y-4.8799
X5.6589Y-5.5599
X5.66Y-5.34
X5.6698Y-4.9082
X5.6836Y-5.5398
X5.6858Y-5.1408
X5.6869Y-5.3624
X5.7003Y-5.4334
X5.7008Y-4.765
X5.7011Y-4.1674
X5.7034Y-4.8927
X5.705Y-4.71
X5.7062Y-4.6475
X5.7065Y-5.565
X5.7075Y-4.7984
X5.7174Y-4.9211
X5.7312Y-5.54
X5.735Y-4.17
X5.749Y-4.9204
X5.7534Y-4.9539
X5.7541Y-5.5701
X5.7632Y-5.4327
X5.7775Y-5.335
X5.7864Y-5.3755
X5.795Y-5.54
X5.825Y-5.565
X5.83Y-5.18
X5.8322Y-5.1419
X5.84Y-5.225
X5.8404Y-4.1698
X5.845Y-4.975
X5.845Y-5.535
X5.8456Y-5.3086
X5.85Y-5.365
X5.8624Y-5.1751
X5.8662Y-5.1071
X5.8689Y-5.395
X5.875Y-5.245
X5.875Y-5.325
X5.925Y-5.445
X5.9565Y-5.4473
X5.97Y-5.115
T2
X5.6134Y-4.004
X5.7865Y-4.004
T3
X5.3Y-3.9
X5.3Y-4.
X5.3Y-4.1
X5.3Y-4.2
X5.3Y-4.3
X5.3Y-4.4
X5.3Y-4.5
X5.3Y-4.6
X5.3Y-4.7
X5.3Y-4.8
X5.3Y-4.9
X5.3Y-5.
X5.3Y-5.1
X5.3Y-5.2
X5.3Y-5.3
X5.3Y-5.4
X5.3Y-5.5
X5.3Y-5.6
X5.3Y-5.7
X6.1Y-3.9
X6.1Y-4.
X6.1Y-4.1
X6.1Y-4.2
X6.1Y-4.3
X6.1Y-4.4
X6.1Y-4.5
X6.1Y-4.6
X6.1Y-4.7
X6.1Y-4.8
X6.1Y-4.9
X6.1Y-5.
X6.1Y-5.1
X6.1Y-5.2
X6.1Y-5.3
X6.1Y-5.4
X6.1Y-5.5
X6.1Y-5.6
X6.1Y-5.7
T0
M30
