G04 #@! TF.FileFunction,Legend,Bot*
%FSLAX46Y46*%
G04 Gerber Fmt 4.6, Leading zero omitted, Abs format (unit mm)*
G04 Created by KiCad (PCBNEW 0.201509300352+6225~30~ubuntu15.04.1-product) date Thu 01 Oct 2015 02:18:51 AM PDT*
%MOMM*%
G01*
G04 APERTURE LIST*
%ADD10C,0.100000*%
%ADD11C,0.200000*%
%ADD12C,0.300000*%
%ADD13C,0.304800*%
%ADD14R,0.797560X1.498600*%
%ADD15R,1.447800X0.899160*%
%ADD16R,1.470000X2.070000*%
%ADD17C,0.899160*%
%ADD18R,2.199640X1.524000*%
%ADD19O,2.199640X1.524000*%
G04 APERTURE END LIST*
D10*
D11*
X149303810Y-126652381D02*
X149303810Y-125652381D01*
X148732381Y-126652381D01*
X148732381Y-125652381D01*
X148113334Y-126652381D02*
X148208572Y-126604762D01*
X148256191Y-126557143D01*
X148303810Y-126461905D01*
X148303810Y-126176190D01*
X148256191Y-126080952D01*
X148208572Y-126033333D01*
X148113334Y-125985714D01*
X147970476Y-125985714D01*
X147875238Y-126033333D01*
X147827619Y-126080952D01*
X147780000Y-126176190D01*
X147780000Y-126461905D01*
X147827619Y-126557143D01*
X147875238Y-126604762D01*
X147970476Y-126652381D01*
X148113334Y-126652381D01*
X146684762Y-125985714D02*
X146494286Y-126652381D01*
X146303809Y-126176190D01*
X146113333Y-126652381D01*
X145922857Y-125985714D01*
X145113333Y-126652381D02*
X145113333Y-126128571D01*
X145160952Y-126033333D01*
X145256190Y-125985714D01*
X145446667Y-125985714D01*
X145541905Y-126033333D01*
X145113333Y-126604762D02*
X145208571Y-126652381D01*
X145446667Y-126652381D01*
X145541905Y-126604762D01*
X145589524Y-126509524D01*
X145589524Y-126414286D01*
X145541905Y-126319048D01*
X145446667Y-126271429D01*
X145208571Y-126271429D01*
X145113333Y-126223810D01*
X144637143Y-126652381D02*
X144637143Y-125985714D01*
X144637143Y-126176190D02*
X144589524Y-126080952D01*
X144541905Y-126033333D01*
X144446667Y-125985714D01*
X144351428Y-125985714D01*
X144018095Y-126652381D02*
X144018095Y-125985714D01*
X144018095Y-126176190D02*
X143970476Y-126080952D01*
X143922857Y-126033333D01*
X143827619Y-125985714D01*
X143732380Y-125985714D01*
X142970475Y-126652381D02*
X142970475Y-126128571D01*
X143018094Y-126033333D01*
X143113332Y-125985714D01*
X143303809Y-125985714D01*
X143399047Y-126033333D01*
X142970475Y-126604762D02*
X143065713Y-126652381D01*
X143303809Y-126652381D01*
X143399047Y-126604762D01*
X143446666Y-126509524D01*
X143446666Y-126414286D01*
X143399047Y-126319048D01*
X143303809Y-126271429D01*
X143065713Y-126271429D01*
X142970475Y-126223810D01*
X142494285Y-125985714D02*
X142494285Y-126652381D01*
X142494285Y-126080952D02*
X142446666Y-126033333D01*
X142351428Y-125985714D01*
X142208570Y-125985714D01*
X142113332Y-126033333D01*
X142065713Y-126128571D01*
X142065713Y-126652381D01*
X141732380Y-125985714D02*
X141351428Y-125985714D01*
X141589523Y-125652381D02*
X141589523Y-126509524D01*
X141541904Y-126604762D01*
X141446666Y-126652381D01*
X141351428Y-126652381D01*
X141113332Y-125985714D02*
X140875237Y-126652381D01*
X140637141Y-125985714D02*
X140875237Y-126652381D01*
X140970475Y-126890476D01*
X141018094Y-126938095D01*
X141113332Y-126985714D01*
X140256189Y-126557143D02*
X140208570Y-126604762D01*
X140256189Y-126652381D01*
X140303808Y-126604762D01*
X140256189Y-126557143D01*
X140256189Y-126652381D01*
X140256189Y-126271429D02*
X140303808Y-125700000D01*
X140256189Y-125652381D01*
X140208570Y-125700000D01*
X140256189Y-126271429D01*
X140256189Y-125652381D01*
X152780001Y-127252381D02*
X152780001Y-128061905D01*
X152732382Y-128157143D01*
X152684763Y-128204762D01*
X152589525Y-128252381D01*
X152399048Y-128252381D01*
X152303810Y-128204762D01*
X152256191Y-128157143D01*
X152208572Y-128061905D01*
X152208572Y-127252381D01*
X151780001Y-128204762D02*
X151684763Y-128252381D01*
X151494287Y-128252381D01*
X151399048Y-128204762D01*
X151351429Y-128109524D01*
X151351429Y-128061905D01*
X151399048Y-127966667D01*
X151494287Y-127919048D01*
X151637144Y-127919048D01*
X151732382Y-127871429D01*
X151780001Y-127776190D01*
X151780001Y-127728571D01*
X151732382Y-127633333D01*
X151637144Y-127585714D01*
X151494287Y-127585714D01*
X151399048Y-127633333D01*
X150541905Y-128204762D02*
X150637143Y-128252381D01*
X150827620Y-128252381D01*
X150922858Y-128204762D01*
X150970477Y-128109524D01*
X150970477Y-127728571D01*
X150922858Y-127633333D01*
X150827620Y-127585714D01*
X150637143Y-127585714D01*
X150541905Y-127633333D01*
X150494286Y-127728571D01*
X150494286Y-127823810D01*
X150970477Y-127919048D01*
X148875238Y-128252381D02*
X148875238Y-127728571D01*
X148922857Y-127633333D01*
X149018095Y-127585714D01*
X149208572Y-127585714D01*
X149303810Y-127633333D01*
X148875238Y-128204762D02*
X148970476Y-128252381D01*
X149208572Y-128252381D01*
X149303810Y-128204762D01*
X149351429Y-128109524D01*
X149351429Y-128014286D01*
X149303810Y-127919048D01*
X149208572Y-127871429D01*
X148970476Y-127871429D01*
X148875238Y-127823810D01*
X148541905Y-127585714D02*
X148160953Y-127585714D01*
X148399048Y-127252381D02*
X148399048Y-128109524D01*
X148351429Y-128204762D01*
X148256191Y-128252381D01*
X148160953Y-128252381D01*
X147160952Y-127585714D02*
X146922857Y-128252381D01*
X146684761Y-127585714D02*
X146922857Y-128252381D01*
X147018095Y-128490476D01*
X147065714Y-128538095D01*
X147160952Y-128585714D01*
X146160952Y-128252381D02*
X146256190Y-128204762D01*
X146303809Y-128157143D01*
X146351428Y-128061905D01*
X146351428Y-127776190D01*
X146303809Y-127680952D01*
X146256190Y-127633333D01*
X146160952Y-127585714D01*
X146018094Y-127585714D01*
X145922856Y-127633333D01*
X145875237Y-127680952D01*
X145827618Y-127776190D01*
X145827618Y-128061905D01*
X145875237Y-128157143D01*
X145922856Y-128204762D01*
X146018094Y-128252381D01*
X146160952Y-128252381D01*
X144970475Y-127585714D02*
X144970475Y-128252381D01*
X145399047Y-127585714D02*
X145399047Y-128109524D01*
X145351428Y-128204762D01*
X145256190Y-128252381D01*
X145113332Y-128252381D01*
X145018094Y-128204762D01*
X144970475Y-128157143D01*
X144494285Y-128252381D02*
X144494285Y-127585714D01*
X144494285Y-127776190D02*
X144446666Y-127680952D01*
X144399047Y-127633333D01*
X144303809Y-127585714D01*
X144208570Y-127585714D01*
X142970475Y-128252381D02*
X143065713Y-128204762D01*
X143113332Y-128157143D01*
X143160951Y-128061905D01*
X143160951Y-127776190D01*
X143113332Y-127680952D01*
X143065713Y-127633333D01*
X142970475Y-127585714D01*
X142827617Y-127585714D01*
X142732379Y-127633333D01*
X142684760Y-127680952D01*
X142637141Y-127776190D01*
X142637141Y-128061905D01*
X142684760Y-128157143D01*
X142732379Y-128204762D01*
X142827617Y-128252381D01*
X142970475Y-128252381D01*
X142303808Y-127585714D02*
X142113332Y-128252381D01*
X141922855Y-127776190D01*
X141732379Y-128252381D01*
X141541903Y-127585714D01*
X141160951Y-127585714D02*
X141160951Y-128252381D01*
X141160951Y-127680952D02*
X141113332Y-127633333D01*
X141018094Y-127585714D01*
X140875236Y-127585714D01*
X140779998Y-127633333D01*
X140732379Y-127728571D01*
X140732379Y-128252381D01*
X139494284Y-128252381D02*
X139494284Y-127585714D01*
X139494284Y-127776190D02*
X139446665Y-127680952D01*
X139399046Y-127633333D01*
X139303808Y-127585714D01*
X139208569Y-127585714D01*
X138875236Y-128252381D02*
X138875236Y-127585714D01*
X138875236Y-127252381D02*
X138922855Y-127300000D01*
X138875236Y-127347619D01*
X138827617Y-127300000D01*
X138875236Y-127252381D01*
X138875236Y-127347619D01*
X138446665Y-128204762D02*
X138351427Y-128252381D01*
X138160951Y-128252381D01*
X138065712Y-128204762D01*
X138018093Y-128109524D01*
X138018093Y-128061905D01*
X138065712Y-127966667D01*
X138160951Y-127919048D01*
X138303808Y-127919048D01*
X138399046Y-127871429D01*
X138446665Y-127776190D01*
X138446665Y-127728571D01*
X138399046Y-127633333D01*
X138303808Y-127585714D01*
X138160951Y-127585714D01*
X138065712Y-127633333D01*
X137589522Y-128252381D02*
X137589522Y-127252381D01*
X137494284Y-127871429D02*
X137208569Y-128252381D01*
X137208569Y-127585714D02*
X137589522Y-127966667D01*
X136779998Y-128157143D02*
X136732379Y-128204762D01*
X136779998Y-128252381D01*
X136827617Y-128204762D01*
X136779998Y-128157143D01*
X136779998Y-128252381D01*
D12*
X148838036Y-114332857D02*
X148338036Y-114332857D01*
X148221964Y-115118571D02*
X148936250Y-115118571D01*
X148748750Y-113618571D01*
X148034464Y-113618571D01*
X147454107Y-114118571D02*
X147579107Y-115118571D01*
X147471965Y-114261429D02*
X147391608Y-114190000D01*
X147239821Y-114118571D01*
X147025536Y-114118571D01*
X146891608Y-114190000D01*
X146838036Y-114332857D01*
X146936250Y-115118571D01*
X145454107Y-114118571D02*
X145605893Y-115332857D01*
X145695179Y-115475714D01*
X145775536Y-115547143D01*
X145927321Y-115618571D01*
X146141607Y-115618571D01*
X146275536Y-115547143D01*
X145570179Y-115047143D02*
X145721964Y-115118571D01*
X146007678Y-115118571D01*
X146141608Y-115047143D01*
X146204107Y-114975714D01*
X146257679Y-114832857D01*
X146204108Y-114404286D01*
X146114822Y-114261429D01*
X146034465Y-114190000D01*
X145882678Y-114118571D01*
X145596964Y-114118571D01*
X145463036Y-114190000D01*
X144927322Y-115047143D02*
X144793393Y-115118571D01*
X144507678Y-115118571D01*
X144355893Y-115047143D01*
X144266608Y-114904286D01*
X144257679Y-114832857D01*
X144311250Y-114690000D01*
X144445178Y-114618571D01*
X144659464Y-114618571D01*
X144793393Y-114547143D01*
X144846965Y-114404286D01*
X144838036Y-114332857D01*
X144748750Y-114190000D01*
X144596964Y-114118571D01*
X144382678Y-114118571D01*
X144248750Y-114190000D01*
X143739821Y-114118571D02*
X143168392Y-114118571D01*
X143463035Y-113618571D02*
X143623750Y-114904286D01*
X143570179Y-115047143D01*
X143436249Y-115118571D01*
X143293392Y-115118571D01*
X142150535Y-115118571D02*
X142052321Y-114332857D01*
X142105893Y-114190000D01*
X142239821Y-114118571D01*
X142525535Y-114118571D01*
X142677321Y-114190000D01*
X142141607Y-115047143D02*
X142293392Y-115118571D01*
X142650535Y-115118571D01*
X142784464Y-115047143D01*
X142838036Y-114904286D01*
X142820179Y-114761429D01*
X142730892Y-114618571D01*
X142579107Y-114547143D01*
X142221964Y-114547143D01*
X142070178Y-114475714D01*
X140793392Y-115118571D02*
X140605892Y-113618571D01*
X140784464Y-115047143D02*
X140936249Y-115118571D01*
X141221963Y-115118571D01*
X141355893Y-115047143D01*
X141418392Y-114975714D01*
X141471964Y-114832857D01*
X141418393Y-114404286D01*
X141329107Y-114261429D01*
X141248750Y-114190000D01*
X141096963Y-114118571D01*
X140811249Y-114118571D01*
X140677321Y-114190000D01*
X148221964Y-117518571D02*
X148034464Y-116018571D01*
X147677321Y-116018571D01*
X147471965Y-116090000D01*
X147346964Y-116232857D01*
X147293393Y-116375714D01*
X147257679Y-116661429D01*
X147284464Y-116875714D01*
X147391608Y-117161429D01*
X147480893Y-117304286D01*
X147641608Y-117447143D01*
X147864821Y-117518571D01*
X148221964Y-117518571D01*
X146141608Y-117447143D02*
X146293393Y-117518571D01*
X146579107Y-117518571D01*
X146713036Y-117447143D01*
X146766608Y-117304286D01*
X146695179Y-116732857D01*
X146605893Y-116590000D01*
X146454107Y-116518571D01*
X146168393Y-116518571D01*
X146034465Y-116590000D01*
X145980893Y-116732857D01*
X145998750Y-116875714D01*
X146730893Y-117018571D01*
X145498751Y-117447143D02*
X145364822Y-117518571D01*
X145079107Y-117518571D01*
X144927322Y-117447143D01*
X144838037Y-117304286D01*
X144829108Y-117232857D01*
X144882679Y-117090000D01*
X145016607Y-117018571D01*
X145230893Y-117018571D01*
X145364822Y-116947143D01*
X145418394Y-116804286D01*
X145409465Y-116732857D01*
X145320179Y-116590000D01*
X145168393Y-116518571D01*
X144954107Y-116518571D01*
X144820179Y-116590000D01*
X144221964Y-117518571D02*
X144096964Y-116518571D01*
X144034464Y-116018571D02*
X144114822Y-116090000D01*
X144052322Y-116161429D01*
X143971965Y-116090000D01*
X144034464Y-116018571D01*
X144052322Y-116161429D01*
X142739821Y-116518571D02*
X142891607Y-117732857D01*
X142980893Y-117875714D01*
X143061250Y-117947143D01*
X143213035Y-118018571D01*
X143427321Y-118018571D01*
X143561250Y-117947143D01*
X142855893Y-117447143D02*
X143007678Y-117518571D01*
X143293392Y-117518571D01*
X143427322Y-117447143D01*
X143489821Y-117375714D01*
X143543393Y-117232857D01*
X143489822Y-116804286D01*
X143400536Y-116661429D01*
X143320179Y-116590000D01*
X143168392Y-116518571D01*
X142882678Y-116518571D01*
X142748750Y-116590000D01*
X142025535Y-116518571D02*
X142150535Y-117518571D01*
X142043393Y-116661429D02*
X141963036Y-116590000D01*
X141811249Y-116518571D01*
X141596964Y-116518571D01*
X141463036Y-116590000D01*
X141409464Y-116732857D01*
X141507678Y-117518571D01*
X148105893Y-119847143D02*
X147900535Y-119918571D01*
X147543392Y-119918571D01*
X147391607Y-119847143D01*
X147311249Y-119775714D01*
X147221964Y-119632857D01*
X147204107Y-119490000D01*
X147257678Y-119347143D01*
X147320178Y-119275714D01*
X147454107Y-119204286D01*
X147730892Y-119132857D01*
X147864822Y-119061429D01*
X147927321Y-118990000D01*
X147980893Y-118847143D01*
X147963036Y-118704286D01*
X147873750Y-118561429D01*
X147793393Y-118490000D01*
X147641606Y-118418571D01*
X147284464Y-118418571D01*
X147079107Y-118490000D01*
X146704107Y-118918571D02*
X146132678Y-118918571D01*
X146427321Y-118418571D02*
X146588036Y-119704286D01*
X146534465Y-119847143D01*
X146400535Y-119918571D01*
X146257678Y-119918571D01*
X144989821Y-118918571D02*
X145114821Y-119918571D01*
X145632678Y-118918571D02*
X145730893Y-119704286D01*
X145677322Y-119847143D01*
X145543392Y-119918571D01*
X145329107Y-119918571D01*
X145177322Y-119847143D01*
X145096964Y-119775714D01*
X143757678Y-119918571D02*
X143570178Y-118418571D01*
X143748750Y-119847143D02*
X143900535Y-119918571D01*
X144186249Y-119918571D01*
X144320179Y-119847143D01*
X144382678Y-119775714D01*
X144436250Y-119632857D01*
X144382679Y-119204286D01*
X144293393Y-119061429D01*
X144213036Y-118990000D01*
X144061249Y-118918571D01*
X143775535Y-118918571D01*
X143641607Y-118990000D01*
X143043392Y-119918571D02*
X142918392Y-118918571D01*
X142855892Y-118418571D02*
X142936250Y-118490000D01*
X142873750Y-118561429D01*
X142793393Y-118490000D01*
X142855892Y-118418571D01*
X142873750Y-118561429D01*
X142114820Y-119918571D02*
X142248750Y-119847143D01*
X142311249Y-119775714D01*
X142364821Y-119632857D01*
X142311250Y-119204286D01*
X142221964Y-119061429D01*
X142141607Y-118990000D01*
X141989820Y-118918571D01*
X141775535Y-118918571D01*
X141641607Y-118990000D01*
X141579107Y-119061429D01*
X141525535Y-119204286D01*
X141579106Y-119632857D01*
X141668392Y-119775714D01*
X141748750Y-119847143D01*
X141900535Y-119918571D01*
X142114820Y-119918571D01*
X150744285Y-107982857D02*
X150529999Y-108054286D01*
X150458571Y-108125714D01*
X150387142Y-108268571D01*
X150387142Y-108482857D01*
X150458571Y-108625714D01*
X150529999Y-108697143D01*
X150672857Y-108768571D01*
X151244285Y-108768571D01*
X151244285Y-107268571D01*
X150744285Y-107268571D01*
X150601428Y-107340000D01*
X150529999Y-107411429D01*
X150458571Y-107554286D01*
X150458571Y-107697143D01*
X150529999Y-107840000D01*
X150601428Y-107911429D01*
X150744285Y-107982857D01*
X151244285Y-107982857D01*
X149172857Y-108697143D02*
X149315714Y-108768571D01*
X149601428Y-108768571D01*
X149744285Y-108697143D01*
X149815714Y-108554286D01*
X149815714Y-107982857D01*
X149744285Y-107840000D01*
X149601428Y-107768571D01*
X149315714Y-107768571D01*
X149172857Y-107840000D01*
X149101428Y-107982857D01*
X149101428Y-108125714D01*
X149815714Y-108268571D01*
X148672857Y-107768571D02*
X148101428Y-107768571D01*
X148458571Y-107268571D02*
X148458571Y-108554286D01*
X148387143Y-108697143D01*
X148244285Y-108768571D01*
X148101428Y-108768571D01*
X147672857Y-108697143D02*
X147530000Y-108768571D01*
X147244285Y-108768571D01*
X147101428Y-108697143D01*
X147030000Y-108554286D01*
X147030000Y-108482857D01*
X147101428Y-108340000D01*
X147244285Y-108268571D01*
X147458571Y-108268571D01*
X147601428Y-108197143D01*
X147672857Y-108054286D01*
X147672857Y-107982857D01*
X147601428Y-107840000D01*
X147458571Y-107768571D01*
X147244285Y-107768571D01*
X147101428Y-107840000D01*
X146529999Y-107768571D02*
X146172856Y-108768571D01*
X145815714Y-107768571D02*
X146172856Y-108768571D01*
X146315714Y-109125714D01*
X146387142Y-109197143D01*
X146529999Y-109268571D01*
X144744285Y-107982857D02*
X144529999Y-108054286D01*
X144458571Y-108125714D01*
X144387142Y-108268571D01*
X144387142Y-108482857D01*
X144458571Y-108625714D01*
X144529999Y-108697143D01*
X144672857Y-108768571D01*
X145244285Y-108768571D01*
X145244285Y-107268571D01*
X144744285Y-107268571D01*
X144601428Y-107340000D01*
X144529999Y-107411429D01*
X144458571Y-107554286D01*
X144458571Y-107697143D01*
X144529999Y-107840000D01*
X144601428Y-107911429D01*
X144744285Y-107982857D01*
X145244285Y-107982857D01*
X143529999Y-108768571D02*
X143672857Y-108697143D01*
X143744285Y-108625714D01*
X143815714Y-108482857D01*
X143815714Y-108054286D01*
X143744285Y-107911429D01*
X143672857Y-107840000D01*
X143529999Y-107768571D01*
X143315714Y-107768571D01*
X143172857Y-107840000D01*
X143101428Y-107911429D01*
X143029999Y-108054286D01*
X143029999Y-108482857D01*
X143101428Y-108625714D01*
X143172857Y-108697143D01*
X143315714Y-108768571D01*
X143529999Y-108768571D01*
X141744285Y-108768571D02*
X141744285Y-107982857D01*
X141815714Y-107840000D01*
X141958571Y-107768571D01*
X142244285Y-107768571D01*
X142387142Y-107840000D01*
X141744285Y-108697143D02*
X141887142Y-108768571D01*
X142244285Y-108768571D01*
X142387142Y-108697143D01*
X142458571Y-108554286D01*
X142458571Y-108411429D01*
X142387142Y-108268571D01*
X142244285Y-108197143D01*
X141887142Y-108197143D01*
X141744285Y-108125714D01*
X141029999Y-108768571D02*
X141029999Y-107768571D01*
X141029999Y-108054286D02*
X140958571Y-107911429D01*
X140887142Y-107840000D01*
X140744285Y-107768571D01*
X140601428Y-107768571D01*
X139458571Y-108768571D02*
X139458571Y-107268571D01*
X139458571Y-108697143D02*
X139601428Y-108768571D01*
X139887142Y-108768571D01*
X140030000Y-108697143D01*
X140101428Y-108625714D01*
X140172857Y-108482857D01*
X140172857Y-108054286D01*
X140101428Y-107911429D01*
X140030000Y-107840000D01*
X139887142Y-107768571D01*
X139601428Y-107768571D01*
X139458571Y-107840000D01*
X147065714Y-109668571D02*
X146565714Y-111168571D01*
X146065714Y-109668571D01*
X145280000Y-109668571D02*
X145137143Y-109668571D01*
X144994286Y-109740000D01*
X144922857Y-109811429D01*
X144851428Y-109954286D01*
X144780000Y-110240000D01*
X144780000Y-110597143D01*
X144851428Y-110882857D01*
X144922857Y-111025714D01*
X144994286Y-111097143D01*
X145137143Y-111168571D01*
X145280000Y-111168571D01*
X145422857Y-111097143D01*
X145494286Y-111025714D01*
X145565714Y-110882857D01*
X145637143Y-110597143D01*
X145637143Y-110240000D01*
X145565714Y-109954286D01*
X145494286Y-109811429D01*
X145422857Y-109740000D01*
X145280000Y-109668571D01*
X144137143Y-111025714D02*
X144065715Y-111097143D01*
X144137143Y-111168571D01*
X144208572Y-111097143D01*
X144137143Y-111025714D01*
X144137143Y-111168571D01*
X142637143Y-111168571D02*
X143494286Y-111168571D01*
X143065714Y-111168571D02*
X143065714Y-109668571D01*
X143208571Y-109882857D01*
X143351429Y-110025714D01*
X143494286Y-110097143D01*
D13*
X150942040Y-145917920D02*
X138506200Y-145917920D01*
X138506200Y-145917920D02*
X138506200Y-129118360D01*
X138506200Y-129118360D02*
X150942040Y-129118360D01*
X150942040Y-129118360D02*
X150942040Y-145917920D01*
%LPC*%
D14*
X141424660Y-139268200D03*
X142524480Y-139268200D03*
X143624300Y-139268200D03*
X144724120Y-139268200D03*
X145823940Y-139268200D03*
X146923760Y-139268200D03*
X148023580Y-139268200D03*
X149123400Y-139268200D03*
D15*
X137850880Y-143565880D03*
X151597360Y-131866640D03*
D16*
X151599120Y-133568360D03*
X151599120Y-141868360D03*
X137849120Y-141868360D03*
X137849120Y-133568360D03*
D17*
X146977100Y-101701600D03*
X142580360Y-101701600D03*
D18*
X154940000Y-99060000D03*
D19*
X154940000Y-101600000D03*
X154940000Y-104140000D03*
X154940000Y-106680000D03*
X154940000Y-109220000D03*
X154940000Y-111760000D03*
X154940000Y-114300000D03*
X154940000Y-116840000D03*
X154940000Y-119380000D03*
X154940000Y-121920000D03*
X154940000Y-124460000D03*
X154940000Y-127000000D03*
X154940000Y-129540000D03*
X154940000Y-132080000D03*
X154940000Y-134620000D03*
X154940000Y-137160000D03*
X154940000Y-139700000D03*
X154940000Y-142240000D03*
X154940000Y-144780000D03*
D18*
X134620000Y-99060000D03*
D19*
X134620000Y-101600000D03*
X134620000Y-104140000D03*
X134620000Y-106680000D03*
X134620000Y-109220000D03*
X134620000Y-111760000D03*
X134620000Y-114300000D03*
X134620000Y-116840000D03*
X134620000Y-119380000D03*
X134620000Y-121920000D03*
X134620000Y-124460000D03*
X134620000Y-127000000D03*
X134620000Y-129540000D03*
X134620000Y-132080000D03*
X134620000Y-134620000D03*
X134620000Y-137160000D03*
X134620000Y-139700000D03*
X134620000Y-142240000D03*
X134620000Y-144780000D03*
M02*
