G04 #@! TF.FileFunction,Soldermask,Top*
%FSLAX46Y46*%
G04 Gerber Fmt 4.6, Leading zero omitted, Abs format (unit mm)*
G04 Created by KiCad (PCBNEW 0.201509300352+6225~30~ubuntu15.04.1-product) date Thu 01 Oct 2015 02:18:51 AM PDT*
%MOMM*%
G01*
G04 APERTURE LIST*
%ADD10C,0.100000*%
%ADD11R,2.400000X0.740000*%
%ADD12R,1.000000X0.250000*%
%ADD13R,0.250000X1.000000*%
%ADD14R,0.700000X0.250000*%
%ADD15R,0.610000X0.710000*%
%ADD16R,2.197100X2.197100*%
%ADD17R,0.497840X2.197100*%
%ADD18C,0.899160*%
%ADD19R,2.199640X1.524000*%
%ADD20O,2.199640X1.524000*%
%ADD21R,2.000000X0.400000*%
%ADD22R,2.800000X2.200000*%
%ADD23R,0.800000X0.750000*%
%ADD24R,1.250000X1.000000*%
%ADD25R,0.750000X0.800000*%
%ADD26R,1.600000X1.000000*%
%ADD27R,2.700000X1.000000*%
%ADD28R,0.900000X0.500000*%
%ADD29R,1.060000X0.650000*%
%ADD30R,1.198880X1.198880*%
G04 APERTURE END LIST*
D10*
D11*
X146640000Y-122174000D03*
X146640000Y-120904000D03*
X146640000Y-119634000D03*
X146640000Y-118364000D03*
X146640000Y-117094000D03*
X150540000Y-122174000D03*
X150540000Y-120904000D03*
X150540000Y-119634000D03*
X150540000Y-118364000D03*
X150540000Y-117094000D03*
D12*
X139080000Y-129600000D03*
X139080000Y-130100000D03*
X139080000Y-130600000D03*
X139080000Y-131100000D03*
X139080000Y-131600000D03*
X139080000Y-132100000D03*
X139080000Y-132600000D03*
X139080000Y-133100000D03*
X139080000Y-133600000D03*
X139080000Y-134100000D03*
X139080000Y-134600000D03*
X139080000Y-135100000D03*
X139080000Y-135600000D03*
X139080000Y-136100000D03*
X139080000Y-136600000D03*
X139080000Y-137100000D03*
D13*
X141030000Y-139050000D03*
X141530000Y-139050000D03*
X142030000Y-139050000D03*
X142530000Y-139050000D03*
X143030000Y-139050000D03*
X143530000Y-139050000D03*
X144030000Y-139050000D03*
X144530000Y-139050000D03*
X145030000Y-139050000D03*
X145530000Y-139050000D03*
X146030000Y-139050000D03*
X146530000Y-139050000D03*
X147030000Y-139050000D03*
X147530000Y-139050000D03*
X148030000Y-139050000D03*
X148530000Y-139050000D03*
D12*
X150480000Y-137100000D03*
X150480000Y-136600000D03*
X150480000Y-136100000D03*
X150480000Y-135600000D03*
X150480000Y-135100000D03*
X150480000Y-134600000D03*
X150480000Y-134100000D03*
X150480000Y-133600000D03*
X150480000Y-133100000D03*
X150480000Y-132600000D03*
X150480000Y-132100000D03*
X150480000Y-131600000D03*
X150480000Y-131100000D03*
X150480000Y-130600000D03*
X150480000Y-130100000D03*
X150480000Y-129600000D03*
D13*
X148530000Y-127650000D03*
X148030000Y-127650000D03*
X147530000Y-127650000D03*
X147030000Y-127650000D03*
X146530000Y-127650000D03*
X146030000Y-127650000D03*
X145530000Y-127650000D03*
X145030000Y-127650000D03*
X144530000Y-127650000D03*
X144030000Y-127650000D03*
X143530000Y-127650000D03*
X143030000Y-127650000D03*
X142530000Y-127650000D03*
X142030000Y-127650000D03*
X141530000Y-127650000D03*
X141030000Y-127650000D03*
D14*
X141260000Y-108984000D03*
X141260000Y-108484000D03*
X141260000Y-107984000D03*
X139410000Y-107984000D03*
X139410000Y-108484000D03*
X139410000Y-108984000D03*
D15*
X140335000Y-108129000D03*
X140335000Y-108839000D03*
D16*
X140350240Y-103949500D03*
D17*
X146377660Y-104228900D03*
X145577560Y-104228900D03*
X144780000Y-104228900D03*
X143982440Y-104228900D03*
X143182340Y-104228900D03*
D18*
X146977100Y-101701600D03*
X142580360Y-101701600D03*
D16*
X149209760Y-103949500D03*
X149209760Y-98450400D03*
X140350240Y-98450400D03*
D19*
X154940000Y-99060000D03*
D20*
X154940000Y-101600000D03*
X154940000Y-104140000D03*
X154940000Y-106680000D03*
X154940000Y-109220000D03*
X154940000Y-111760000D03*
X154940000Y-114300000D03*
X154940000Y-116840000D03*
X154940000Y-119380000D03*
X154940000Y-121920000D03*
X154940000Y-124460000D03*
X154940000Y-127000000D03*
X154940000Y-129540000D03*
X154940000Y-132080000D03*
X154940000Y-134620000D03*
X154940000Y-137160000D03*
X154940000Y-139700000D03*
X154940000Y-142240000D03*
X154940000Y-144780000D03*
D19*
X134620000Y-99060000D03*
D20*
X134620000Y-101600000D03*
X134620000Y-104140000D03*
X134620000Y-106680000D03*
X134620000Y-109220000D03*
X134620000Y-111760000D03*
X134620000Y-114300000D03*
X134620000Y-116840000D03*
X134620000Y-119380000D03*
X134620000Y-121920000D03*
X134620000Y-124460000D03*
X134620000Y-127000000D03*
X134620000Y-129540000D03*
X134620000Y-132080000D03*
X134620000Y-134620000D03*
X134620000Y-137160000D03*
X134620000Y-139700000D03*
X134620000Y-142240000D03*
X134620000Y-144780000D03*
D21*
X140335000Y-124136000D03*
X140335000Y-122936000D03*
X140335000Y-121736000D03*
D22*
X141999000Y-143510000D03*
X146799000Y-143510000D03*
D23*
X149364000Y-141224000D03*
X150864000Y-141224000D03*
D24*
X136906000Y-136128000D03*
X136906000Y-134128000D03*
X136906000Y-130572000D03*
X136906000Y-132572000D03*
X152527000Y-133493000D03*
X152527000Y-135493000D03*
D25*
X139573000Y-127242000D03*
X139573000Y-125742000D03*
D23*
X150253000Y-126111000D03*
X151753000Y-126111000D03*
D25*
X152527000Y-138545000D03*
X152527000Y-137045000D03*
D23*
X150253000Y-124587000D03*
X151753000Y-124587000D03*
D25*
X139446000Y-142101000D03*
X139446000Y-140601000D03*
D23*
X137934000Y-143637000D03*
X139434000Y-143637000D03*
D24*
X150241000Y-109204000D03*
X150241000Y-107204000D03*
X150241000Y-110887000D03*
X150241000Y-112887000D03*
D23*
X145300000Y-107188000D03*
X146800000Y-107188000D03*
D24*
X147701000Y-112538000D03*
X147701000Y-114538000D03*
D26*
X145415000Y-112292000D03*
X145415000Y-115292000D03*
D27*
X141605000Y-111041000D03*
X141605000Y-113241000D03*
D28*
X148336000Y-111113000D03*
X148336000Y-109613000D03*
X148336000Y-108446000D03*
X148336000Y-106946000D03*
D29*
X144061000Y-108905000D03*
X144061000Y-109855000D03*
X144061000Y-110805000D03*
X146261000Y-110805000D03*
X146261000Y-108905000D03*
X146261000Y-109855000D03*
D28*
X151384000Y-145022000D03*
X151384000Y-143522000D03*
D30*
X149606000Y-142841980D03*
X149606000Y-144940020D03*
M02*
