%TF.GenerationSoftware,KiCad,Pcbnew,(5.1.10-1-10_14)*%
%TF.CreationDate,2021-05-30T00:03:35-07:00*%
%TF.ProjectId,BetsyBoard,42657473-7942-46f6-9172-642e6b696361,rev?*%
%TF.SameCoordinates,Original*%
%TF.FileFunction,Legend,Top*%
%TF.FilePolarity,Positive*%
%FSLAX46Y46*%
G04 Gerber Fmt 4.6, Leading zero omitted, Abs format (unit mm)*
G04 Created by KiCad (PCBNEW (5.1.10-1-10_14)) date 2021-05-30 00:03:35*
%MOMM*%
%LPD*%
G01*
G04 APERTURE LIST*
%ADD10C,0.150000*%
%ADD11C,0.125000*%
%ADD12C,0.100000*%
%ADD13C,0.120000*%
G04 APERTURE END LIST*
D10*
X112047857Y-79517142D02*
X112047857Y-80160000D01*
X112005000Y-80288571D01*
X111919285Y-80374285D01*
X111790714Y-80417142D01*
X111705000Y-80417142D01*
X112905000Y-80417142D02*
X112476428Y-80417142D01*
X112476428Y-79517142D01*
X113719285Y-80331428D02*
X113676428Y-80374285D01*
X113547857Y-80417142D01*
X113462142Y-80417142D01*
X113333571Y-80374285D01*
X113247857Y-80288571D01*
X113205000Y-80202857D01*
X113162142Y-80031428D01*
X113162142Y-79902857D01*
X113205000Y-79731428D01*
X113247857Y-79645714D01*
X113333571Y-79560000D01*
X113462142Y-79517142D01*
X113547857Y-79517142D01*
X113676428Y-79560000D01*
X113719285Y-79602857D01*
X114362142Y-79517142D02*
X114362142Y-80160000D01*
X114319285Y-80288571D01*
X114233571Y-80374285D01*
X114105000Y-80417142D01*
X114019285Y-80417142D01*
X115219285Y-80417142D02*
X114790714Y-80417142D01*
X114790714Y-79517142D01*
X116033571Y-80331428D02*
X115990714Y-80374285D01*
X115862142Y-80417142D01*
X115776428Y-80417142D01*
X115647857Y-80374285D01*
X115562142Y-80288571D01*
X115519285Y-80202857D01*
X115476428Y-80031428D01*
X115476428Y-79902857D01*
X115519285Y-79731428D01*
X115562142Y-79645714D01*
X115647857Y-79560000D01*
X115776428Y-79517142D01*
X115862142Y-79517142D01*
X115990714Y-79560000D01*
X116033571Y-79602857D01*
X116676428Y-79517142D02*
X116676428Y-80160000D01*
X116633571Y-80288571D01*
X116547857Y-80374285D01*
X116419285Y-80417142D01*
X116333571Y-80417142D01*
X117533571Y-80417142D02*
X117105000Y-80417142D01*
X117105000Y-79517142D01*
X118347857Y-80331428D02*
X118305000Y-80374285D01*
X118176428Y-80417142D01*
X118090714Y-80417142D01*
X117962142Y-80374285D01*
X117876428Y-80288571D01*
X117833571Y-80202857D01*
X117790714Y-80031428D01*
X117790714Y-79902857D01*
X117833571Y-79731428D01*
X117876428Y-79645714D01*
X117962142Y-79560000D01*
X118090714Y-79517142D01*
X118176428Y-79517142D01*
X118305000Y-79560000D01*
X118347857Y-79602857D01*
X118990714Y-79517142D02*
X118990714Y-80160000D01*
X118947857Y-80288571D01*
X118862142Y-80374285D01*
X118733571Y-80417142D01*
X118647857Y-80417142D01*
X119847857Y-80417142D02*
X119419285Y-80417142D01*
X119419285Y-79517142D01*
X120662142Y-80331428D02*
X120619285Y-80374285D01*
X120490714Y-80417142D01*
X120405000Y-80417142D01*
X120276428Y-80374285D01*
X120190714Y-80288571D01*
X120147857Y-80202857D01*
X120105000Y-80031428D01*
X120105000Y-79902857D01*
X120147857Y-79731428D01*
X120190714Y-79645714D01*
X120276428Y-79560000D01*
X120405000Y-79517142D01*
X120490714Y-79517142D01*
X120619285Y-79560000D01*
X120662142Y-79602857D01*
D11*
X121416677Y-62356415D02*
X121315662Y-62390087D01*
X121214647Y-62491102D01*
X121147303Y-62625789D01*
X121147303Y-62760476D01*
X121180975Y-62861491D01*
X121281990Y-63029850D01*
X121383006Y-63130865D01*
X121551364Y-63231880D01*
X121652380Y-63265552D01*
X121787067Y-63265552D01*
X121921754Y-63198209D01*
X121989097Y-63130865D01*
X122056441Y-62996178D01*
X122056441Y-62928835D01*
X121820738Y-62693132D01*
X121686051Y-62827819D01*
X121955425Y-62221728D02*
X122426830Y-62693132D01*
X122022769Y-62289071D02*
X122022769Y-62221728D01*
X122056441Y-62120712D01*
X122157456Y-62019697D01*
X122258471Y-61986025D01*
X122359487Y-62019697D01*
X122729876Y-62390087D01*
X123369639Y-61750323D02*
X122662532Y-61043216D01*
X123335967Y-61716651D02*
X123302296Y-61817667D01*
X123167609Y-61952354D01*
X123066593Y-61986025D01*
X122999250Y-61986025D01*
X122898235Y-61952354D01*
X122696204Y-61750323D01*
X122662532Y-61649308D01*
X122662532Y-61581964D01*
X122696204Y-61480949D01*
X122830891Y-61346262D01*
X122931906Y-61312590D01*
D10*
X108204000Y-82550000D02*
X108204000Y-90297000D01*
X108204000Y-72390000D02*
X108204000Y-80010000D01*
X108204000Y-62357000D02*
X108204000Y-69850000D01*
X108331000Y-100457000D02*
X108331000Y-92710000D01*
X122364523Y-72842380D02*
X121793095Y-72842380D01*
X122078809Y-72842380D02*
X122078809Y-71842380D01*
X121983571Y-71985238D01*
X121888333Y-72080476D01*
X121793095Y-72128095D01*
X122745476Y-71937619D02*
X122793095Y-71890000D01*
X122888333Y-71842380D01*
X123126428Y-71842380D01*
X123221666Y-71890000D01*
X123269285Y-71937619D01*
X123316904Y-72032857D01*
X123316904Y-72128095D01*
X123269285Y-72270952D01*
X122697857Y-72842380D01*
X123316904Y-72842380D01*
X123094761Y-82430952D02*
X122999523Y-82383333D01*
X122951904Y-82335714D01*
X122904285Y-82240476D01*
X122904285Y-82192857D01*
X122951904Y-82097619D01*
X122999523Y-82050000D01*
X123094761Y-82002380D01*
X123285238Y-82002380D01*
X123380476Y-82050000D01*
X123428095Y-82097619D01*
X123475714Y-82192857D01*
X123475714Y-82240476D01*
X123428095Y-82335714D01*
X123380476Y-82383333D01*
X123285238Y-82430952D01*
X123094761Y-82430952D01*
X122999523Y-82478571D01*
X122951904Y-82526190D01*
X122904285Y-82621428D01*
X122904285Y-82811904D01*
X122951904Y-82907142D01*
X122999523Y-82954761D01*
X123094761Y-83002380D01*
X123285238Y-83002380D01*
X123380476Y-82954761D01*
X123428095Y-82907142D01*
X123475714Y-82811904D01*
X123475714Y-82621428D01*
X123428095Y-82526190D01*
X123380476Y-82478571D01*
X123285238Y-82430952D01*
X123380476Y-92495714D02*
X123380476Y-93162380D01*
X123142380Y-92114761D02*
X122904285Y-92829047D01*
X123523333Y-92829047D01*
X123825000Y-92710000D02*
X123825000Y-100330000D01*
X123825000Y-82550000D02*
X123825000Y-90170000D01*
X123825000Y-72390000D02*
X123825000Y-80010000D01*
X123825000Y-62230000D02*
X123825000Y-69850000D01*
D12*
X121068266Y-60817800D02*
X120368266Y-60817800D01*
X120868266Y-60584466D01*
X120368266Y-60351133D01*
X121068266Y-60351133D01*
X121001600Y-59617800D02*
X121034933Y-59651133D01*
X121068266Y-59751133D01*
X121068266Y-59817800D01*
X121034933Y-59917800D01*
X120968266Y-59984466D01*
X120901600Y-60017800D01*
X120768266Y-60051133D01*
X120668266Y-60051133D01*
X120534933Y-60017800D01*
X120468266Y-59984466D01*
X120401600Y-59917800D01*
X120368266Y-59817800D01*
X120368266Y-59751133D01*
X120401600Y-59651133D01*
X120434933Y-59617800D01*
X120368266Y-59184466D02*
X120368266Y-59051133D01*
X120401600Y-58984466D01*
X120468266Y-58917800D01*
X120601600Y-58884466D01*
X120834933Y-58884466D01*
X120968266Y-58917800D01*
X121034933Y-58984466D01*
X121068266Y-59051133D01*
X121068266Y-59184466D01*
X121034933Y-59251133D01*
X120968266Y-59317800D01*
X120834933Y-59351133D01*
X120601600Y-59351133D01*
X120468266Y-59317800D01*
X120401600Y-59251133D01*
X120368266Y-59184466D01*
D11*
X110746446Y-60471996D02*
X111184179Y-60909729D01*
X110679103Y-60943400D01*
X110780118Y-61044416D01*
X110813790Y-61145431D01*
X110813790Y-61212774D01*
X110780118Y-61313790D01*
X110611759Y-61482148D01*
X110510744Y-61515820D01*
X110443400Y-61515820D01*
X110342385Y-61482148D01*
X110140355Y-61280118D01*
X110106683Y-61179103D01*
X110106683Y-61111759D01*
X110847461Y-61852538D02*
X110847461Y-61919881D01*
X110780118Y-61919881D01*
X110780118Y-61852538D01*
X110847461Y-61852538D01*
X110780118Y-61919881D01*
X111756599Y-61482148D02*
X112194331Y-61919881D01*
X111689255Y-61953553D01*
X111790270Y-62054568D01*
X111823942Y-62155583D01*
X111823942Y-62222927D01*
X111790270Y-62323942D01*
X111621912Y-62492301D01*
X111520896Y-62525973D01*
X111453553Y-62525973D01*
X111352538Y-62492301D01*
X111150507Y-62290270D01*
X111116835Y-62189255D01*
X111116835Y-62121912D01*
X108850507Y-60826057D02*
X108513790Y-60489339D01*
X108143400Y-60792385D01*
X108210744Y-60792385D01*
X108311759Y-60826057D01*
X108480118Y-60994416D01*
X108513790Y-61095431D01*
X108513790Y-61162774D01*
X108480118Y-61263790D01*
X108311759Y-61432148D01*
X108210744Y-61465820D01*
X108143400Y-61465820D01*
X108042385Y-61432148D01*
X107874026Y-61263790D01*
X107840355Y-61162774D01*
X107840355Y-61095431D01*
X108547461Y-61802538D02*
X108547461Y-61869881D01*
X108480118Y-61869881D01*
X108480118Y-61802538D01*
X108547461Y-61802538D01*
X108480118Y-61869881D01*
X109658629Y-61634179D02*
X109725973Y-61701522D01*
X109759644Y-61802538D01*
X109759644Y-61869881D01*
X109725973Y-61970896D01*
X109624957Y-62139255D01*
X109456599Y-62307614D01*
X109288240Y-62408629D01*
X109187225Y-62442301D01*
X109119881Y-62442301D01*
X109018866Y-62408629D01*
X108951522Y-62341286D01*
X108917851Y-62240270D01*
X108917851Y-62172927D01*
X108951522Y-62071912D01*
X109052538Y-61903553D01*
X109220896Y-61735194D01*
X109389255Y-61634179D01*
X109490270Y-61600507D01*
X109557614Y-61600507D01*
X109658629Y-61634179D01*
D10*
X109235714Y-91058467D02*
X109278571Y-90949538D01*
X109321428Y-90916800D01*
X109407142Y-90889419D01*
X109535714Y-90905491D01*
X109621428Y-90954300D01*
X109664285Y-90997752D01*
X109707142Y-91079300D01*
X109707142Y-91384062D01*
X108807142Y-91271562D01*
X108807142Y-91004895D01*
X108850000Y-90934062D01*
X108892857Y-90901324D01*
X108978571Y-90873943D01*
X109064285Y-90884657D01*
X109150000Y-90933467D01*
X109192857Y-90976919D01*
X109235714Y-91058467D01*
X109235714Y-91325133D01*
X109664285Y-90273943D02*
X109707142Y-90355491D01*
X109707142Y-90507872D01*
X109664285Y-90578705D01*
X109578571Y-90606086D01*
X109235714Y-90563229D01*
X109150000Y-90514419D01*
X109107142Y-90432872D01*
X109107142Y-90280491D01*
X109150000Y-90209657D01*
X109235714Y-90182276D01*
X109321428Y-90192991D01*
X109407142Y-90584657D01*
X109107142Y-89937633D02*
X109107142Y-89632872D01*
X108807142Y-89785848D02*
X109578571Y-89882276D01*
X109664285Y-89854895D01*
X109707142Y-89784062D01*
X109707142Y-89707872D01*
X109664285Y-89473943D02*
X109707142Y-89403110D01*
X109707142Y-89250729D01*
X109664285Y-89169181D01*
X109578571Y-89120372D01*
X109535714Y-89115014D01*
X109450000Y-89142395D01*
X109407142Y-89213229D01*
X109407142Y-89327514D01*
X109364285Y-89398348D01*
X109278571Y-89425729D01*
X109235714Y-89420372D01*
X109150000Y-89371562D01*
X109107142Y-89290014D01*
X109107142Y-89175729D01*
X109150000Y-89104895D01*
X109107142Y-88794776D02*
X109707142Y-88679300D01*
X109107142Y-88413824D02*
X109707142Y-88679300D01*
X109921428Y-88782276D01*
X109964285Y-88825729D01*
X110007142Y-88907276D01*
X109235714Y-87858467D02*
X109278571Y-87749538D01*
X109321428Y-87716800D01*
X109407142Y-87689419D01*
X109535714Y-87705491D01*
X109621428Y-87754300D01*
X109664285Y-87797752D01*
X109707142Y-87879300D01*
X109707142Y-88184062D01*
X108807142Y-88071562D01*
X108807142Y-87804895D01*
X108850000Y-87734062D01*
X108892857Y-87701324D01*
X108978571Y-87673943D01*
X109064285Y-87684657D01*
X109150000Y-87733467D01*
X109192857Y-87776919D01*
X109235714Y-87858467D01*
X109235714Y-88125133D01*
X109707142Y-87269776D02*
X109664285Y-87340610D01*
X109621428Y-87373348D01*
X109535714Y-87400729D01*
X109278571Y-87368586D01*
X109192857Y-87319776D01*
X109150000Y-87276324D01*
X109107142Y-87194776D01*
X109107142Y-87080491D01*
X109150000Y-87009657D01*
X109192857Y-86976919D01*
X109278571Y-86949538D01*
X109535714Y-86981681D01*
X109621428Y-87030491D01*
X109664285Y-87073943D01*
X109707142Y-87155491D01*
X109707142Y-87269776D01*
X109707142Y-86317395D02*
X109235714Y-86258467D01*
X109150000Y-86285848D01*
X109107142Y-86356681D01*
X109107142Y-86509062D01*
X109150000Y-86590610D01*
X109664285Y-86312038D02*
X109707142Y-86393586D01*
X109707142Y-86584062D01*
X109664285Y-86654895D01*
X109578571Y-86682276D01*
X109492857Y-86671562D01*
X109407142Y-86622752D01*
X109364285Y-86541205D01*
X109364285Y-86350729D01*
X109321428Y-86269181D01*
X109707142Y-85936443D02*
X109107142Y-85861443D01*
X109278571Y-85882872D02*
X109192857Y-85834062D01*
X109150000Y-85790610D01*
X109107142Y-85709062D01*
X109107142Y-85632872D01*
X109707142Y-85098348D02*
X108807142Y-84985848D01*
X109664285Y-85092991D02*
X109707142Y-85174538D01*
X109707142Y-85326919D01*
X109664285Y-85397752D01*
X109621428Y-85430491D01*
X109535714Y-85457872D01*
X109278571Y-85425729D01*
X109192857Y-85376919D01*
X109150000Y-85333467D01*
X109107142Y-85251919D01*
X109107142Y-85099538D01*
X109150000Y-85028705D01*
X110307142Y-89690610D02*
X111207142Y-89536443D01*
X110307142Y-89157276D01*
X110307142Y-88738229D02*
X110307142Y-88662038D01*
X110350000Y-88591205D01*
X110392857Y-88558467D01*
X110478571Y-88531086D01*
X110650000Y-88514419D01*
X110864285Y-88541205D01*
X111035714Y-88600729D01*
X111121428Y-88649538D01*
X111164285Y-88692991D01*
X111207142Y-88774538D01*
X111207142Y-88850729D01*
X111164285Y-88921562D01*
X111121428Y-88954300D01*
X111035714Y-88981681D01*
X110864285Y-88998348D01*
X110650000Y-88971562D01*
X110478571Y-88912038D01*
X110392857Y-88863229D01*
X110350000Y-88819776D01*
X110307142Y-88738229D01*
X111121428Y-88230491D02*
X111164285Y-88197752D01*
X111207142Y-88241205D01*
X111164285Y-88273943D01*
X111121428Y-88230491D01*
X111207142Y-88241205D01*
X111207142Y-87822157D02*
X111207142Y-87669776D01*
X111164285Y-87588229D01*
X111121428Y-87544776D01*
X110992857Y-87452514D01*
X110821428Y-87392991D01*
X110478571Y-87350133D01*
X110392857Y-87377514D01*
X110350000Y-87410252D01*
X110307142Y-87481086D01*
X110307142Y-87633467D01*
X110350000Y-87715014D01*
X110392857Y-87758467D01*
X110478571Y-87807276D01*
X110692857Y-87834062D01*
X110778571Y-87806681D01*
X110821428Y-87773943D01*
X110864285Y-87703110D01*
X110864285Y-87550729D01*
X110821428Y-87469181D01*
X110778571Y-87425729D01*
X110692857Y-87376919D01*
X111164285Y-86750133D02*
X111207142Y-86831681D01*
X111207142Y-86984062D01*
X111164285Y-87054895D01*
X111121428Y-87087633D01*
X111035714Y-87115014D01*
X110778571Y-87082872D01*
X110692857Y-87034062D01*
X110650000Y-86990610D01*
X110607142Y-86909062D01*
X110607142Y-86756681D01*
X110650000Y-86685848D01*
X109145119Y-95617857D02*
X109411785Y-95617857D01*
X109473690Y-96036904D02*
X109092738Y-96036904D01*
X109192738Y-95236904D01*
X109573690Y-95236904D01*
X109883214Y-95503571D02*
X109816547Y-96036904D01*
X109873690Y-95579761D02*
X109916547Y-95541666D01*
X109997500Y-95503571D01*
X110111785Y-95503571D01*
X110183214Y-95541666D01*
X110211785Y-95617857D01*
X110159404Y-96036904D01*
X110949880Y-95503571D02*
X110868928Y-96151190D01*
X110821309Y-96227380D01*
X110778452Y-96265476D01*
X110697500Y-96303571D01*
X110583214Y-96303571D01*
X110511785Y-96265476D01*
X110887976Y-95998809D02*
X110807023Y-96036904D01*
X110654642Y-96036904D01*
X110583214Y-95998809D01*
X110549880Y-95960714D01*
X110521309Y-95884523D01*
X110549880Y-95655952D01*
X110597500Y-95579761D01*
X110640357Y-95541666D01*
X110721309Y-95503571D01*
X110873690Y-95503571D01*
X110945119Y-95541666D01*
X111230833Y-95998809D02*
X111302261Y-96036904D01*
X111454642Y-96036904D01*
X111535595Y-95998809D01*
X111583214Y-95922619D01*
X111587976Y-95884523D01*
X111559404Y-95808333D01*
X111487976Y-95770238D01*
X111373690Y-95770238D01*
X111302261Y-95732142D01*
X111273690Y-95655952D01*
X111278452Y-95617857D01*
X111326071Y-95541666D01*
X111407023Y-95503571D01*
X111521309Y-95503571D01*
X111592738Y-95541666D01*
X111864166Y-95503571D02*
X112168928Y-95503571D01*
X112011785Y-95236904D02*
X111926071Y-95922619D01*
X111954642Y-95998809D01*
X112026071Y-96036904D01*
X112102261Y-96036904D01*
X112711785Y-96036904D02*
X112764166Y-95617857D01*
X112735595Y-95541666D01*
X112664166Y-95503571D01*
X112511785Y-95503571D01*
X112430833Y-95541666D01*
X112716547Y-95998809D02*
X112635595Y-96036904D01*
X112445119Y-96036904D01*
X112373690Y-95998809D01*
X112345119Y-95922619D01*
X112354642Y-95846428D01*
X112402261Y-95770238D01*
X112483214Y-95732142D01*
X112673690Y-95732142D01*
X112754642Y-95694047D01*
X113435595Y-96036904D02*
X113535595Y-95236904D01*
X113440357Y-95998809D02*
X113359404Y-96036904D01*
X113207023Y-96036904D01*
X113135595Y-95998809D01*
X113102261Y-95960714D01*
X113073690Y-95884523D01*
X113102261Y-95655952D01*
X113149880Y-95579761D01*
X113192738Y-95541666D01*
X113273690Y-95503571D01*
X113426071Y-95503571D01*
X113497500Y-95541666D01*
X109092738Y-97386904D02*
X109192738Y-96586904D01*
X109383214Y-96586904D01*
X109492738Y-96625000D01*
X109559404Y-96701190D01*
X109587976Y-96777380D01*
X109607023Y-96929761D01*
X109592738Y-97044047D01*
X109535595Y-97196428D01*
X109487976Y-97272619D01*
X109402261Y-97348809D01*
X109283214Y-97386904D01*
X109092738Y-97386904D01*
X110202261Y-97348809D02*
X110121309Y-97386904D01*
X109968928Y-97386904D01*
X109897500Y-97348809D01*
X109868928Y-97272619D01*
X109907023Y-96967857D01*
X109954642Y-96891666D01*
X110035595Y-96853571D01*
X110187976Y-96853571D01*
X110259404Y-96891666D01*
X110287976Y-96967857D01*
X110278452Y-97044047D01*
X109887976Y-97120238D01*
X110545119Y-97348809D02*
X110616547Y-97386904D01*
X110768928Y-97386904D01*
X110849880Y-97348809D01*
X110897500Y-97272619D01*
X110902261Y-97234523D01*
X110873690Y-97158333D01*
X110802261Y-97120238D01*
X110687976Y-97120238D01*
X110616547Y-97082142D01*
X110587976Y-97005952D01*
X110592738Y-96967857D01*
X110640357Y-96891666D01*
X110721309Y-96853571D01*
X110835595Y-96853571D01*
X110907023Y-96891666D01*
X111226071Y-97386904D02*
X111292738Y-96853571D01*
X111326071Y-96586904D02*
X111283214Y-96625000D01*
X111316547Y-96663095D01*
X111359404Y-96625000D01*
X111326071Y-96586904D01*
X111316547Y-96663095D01*
X112016547Y-96853571D02*
X111935595Y-97501190D01*
X111887976Y-97577380D01*
X111845119Y-97615476D01*
X111764166Y-97653571D01*
X111649880Y-97653571D01*
X111578452Y-97615476D01*
X111954642Y-97348809D02*
X111873690Y-97386904D01*
X111721309Y-97386904D01*
X111649880Y-97348809D01*
X111616547Y-97310714D01*
X111587976Y-97234523D01*
X111616547Y-97005952D01*
X111664166Y-96929761D01*
X111707023Y-96891666D01*
X111787976Y-96853571D01*
X111940357Y-96853571D01*
X112011785Y-96891666D01*
X112397500Y-96853571D02*
X112330833Y-97386904D01*
X112387976Y-96929761D02*
X112430833Y-96891666D01*
X112511785Y-96853571D01*
X112626071Y-96853571D01*
X112697500Y-96891666D01*
X112726071Y-96967857D01*
X112673690Y-97386904D01*
D13*
%TO.C,P6*%
X123587200Y-61070800D02*
X126247200Y-61070800D01*
X123587200Y-61010800D02*
X123587200Y-61070800D01*
X126247200Y-61010800D02*
X126247200Y-61070800D01*
X123587200Y-61010800D02*
X126247200Y-61010800D01*
X123587200Y-59740800D02*
X123587200Y-58410800D01*
X123587200Y-58410800D02*
X124917200Y-58410800D01*
%TO.C,C18*%
X115210000Y-71440580D02*
X115210000Y-71159420D01*
X114190000Y-71440580D02*
X114190000Y-71159420D01*
%TO.C,C4*%
X120810000Y-71440580D02*
X120810000Y-71159420D01*
X119790000Y-71440580D02*
X119790000Y-71159420D01*
D10*
%TO.C,SW2*%
X114530000Y-95370000D02*
X117530000Y-95370000D01*
X117530000Y-98370000D02*
X114530000Y-98370000D01*
D13*
%TO.C,J1*%
X112374800Y-63319400D02*
X113374800Y-63319400D01*
X119374800Y-63319400D02*
X118374800Y-63319400D01*
X112374800Y-63319400D02*
X112374800Y-58519400D01*
X119374800Y-63319400D02*
X119374800Y-60819400D01*
X119374800Y-58519400D02*
X119374800Y-59119400D01*
%TO.C,U3*%
X120740000Y-95264800D02*
X118290000Y-95264800D01*
X118940000Y-98484800D02*
X120740000Y-98484800D01*
%TO.C,Y1*%
X118185000Y-70665000D02*
X116835000Y-70665000D01*
X118185000Y-68915000D02*
X116835000Y-68915000D01*
%TO.C,X1*%
X115900000Y-72700000D02*
X115900000Y-71450000D01*
X119100000Y-72700000D02*
X119100000Y-71450000D01*
%TO.C,P3*%
X112730000Y-93878000D02*
X112730000Y-89028000D01*
X119330000Y-89028000D02*
X119330000Y-92428000D01*
%TO.C,U2*%
X113000000Y-63990000D02*
X110550000Y-63990000D01*
X111200000Y-67210000D02*
X113000000Y-67210000D01*
%TO.C,R4*%
X110398779Y-100840000D02*
X110073221Y-100840000D01*
X110398779Y-99820000D02*
X110073221Y-99820000D01*
%TO.C,R3*%
X119062779Y-100860000D02*
X118737221Y-100860000D01*
X119062779Y-99840000D02*
X118737221Y-99840000D01*
%TO.C,D2*%
X114084000Y-99595000D02*
X111799000Y-99595000D01*
X111799000Y-99595000D02*
X111799000Y-101065000D01*
X111799000Y-101065000D02*
X114084000Y-101065000D01*
%TO.C,D1*%
X122770800Y-99620400D02*
X120485800Y-99620400D01*
X120485800Y-99620400D02*
X120485800Y-101090400D01*
X120485800Y-101090400D02*
X122770800Y-101090400D01*
%TO.C,C17*%
X123042400Y-96686621D02*
X123042400Y-97012179D01*
X122022400Y-96686621D02*
X122022400Y-97012179D01*
%TO.C,C9*%
X119212779Y-68124000D02*
X118887221Y-68124000D01*
X119212779Y-67104000D02*
X118887221Y-67104000D01*
%TO.C,C8*%
X115887221Y-67104000D02*
X116212779Y-67104000D01*
X115887221Y-68124000D02*
X116212779Y-68124000D01*
%TO.C,C3*%
X111112779Y-93160000D02*
X110787221Y-93160000D01*
X111112779Y-92140000D02*
X110787221Y-92140000D01*
%TO.C,C7*%
X120390000Y-88462779D02*
X120390000Y-88137221D01*
X121410000Y-88462779D02*
X121410000Y-88137221D01*
%TO.C,U4*%
X121180000Y-75810000D02*
X121180000Y-74910000D01*
X121180000Y-74910000D02*
X120280000Y-74910000D01*
X120280000Y-74910000D02*
X120280000Y-73560000D01*
X121180000Y-84310000D02*
X121180000Y-85210000D01*
X121180000Y-85210000D02*
X120280000Y-85210000D01*
X110880000Y-75810000D02*
X110880000Y-74910000D01*
X110880000Y-74910000D02*
X111780000Y-74910000D01*
X110880000Y-84310000D02*
X110880000Y-85210000D01*
X110880000Y-85210000D02*
X111780000Y-85210000D01*
%TO.C,C18*%
D10*
X113257142Y-69507142D02*
X113209523Y-69554761D01*
X113066666Y-69602380D01*
X112971428Y-69602380D01*
X112828571Y-69554761D01*
X112733333Y-69459523D01*
X112685714Y-69364285D01*
X112638095Y-69173809D01*
X112638095Y-69030952D01*
X112685714Y-68840476D01*
X112733333Y-68745238D01*
X112828571Y-68650000D01*
X112971428Y-68602380D01*
X113066666Y-68602380D01*
X113209523Y-68650000D01*
X113257142Y-68697619D01*
X114209523Y-69602380D02*
X113638095Y-69602380D01*
X113923809Y-69602380D02*
X113923809Y-68602380D01*
X113828571Y-68745238D01*
X113733333Y-68840476D01*
X113638095Y-68888095D01*
X114780952Y-69030952D02*
X114685714Y-68983333D01*
X114638095Y-68935714D01*
X114590476Y-68840476D01*
X114590476Y-68792857D01*
X114638095Y-68697619D01*
X114685714Y-68650000D01*
X114780952Y-68602380D01*
X114971428Y-68602380D01*
X115066666Y-68650000D01*
X115114285Y-68697619D01*
X115161904Y-68792857D01*
X115161904Y-68840476D01*
X115114285Y-68935714D01*
X115066666Y-68983333D01*
X114971428Y-69030952D01*
X114780952Y-69030952D01*
X114685714Y-69078571D01*
X114638095Y-69126190D01*
X114590476Y-69221428D01*
X114590476Y-69411904D01*
X114638095Y-69507142D01*
X114685714Y-69554761D01*
X114780952Y-69602380D01*
X114971428Y-69602380D01*
X115066666Y-69554761D01*
X115114285Y-69507142D01*
X115161904Y-69411904D01*
X115161904Y-69221428D01*
X115114285Y-69126190D01*
X115066666Y-69078571D01*
X114971428Y-69030952D01*
%TO.C,C4*%
X121733333Y-70982142D02*
X121685714Y-71029761D01*
X121542857Y-71077380D01*
X121447619Y-71077380D01*
X121304761Y-71029761D01*
X121209523Y-70934523D01*
X121161904Y-70839285D01*
X121114285Y-70648809D01*
X121114285Y-70505952D01*
X121161904Y-70315476D01*
X121209523Y-70220238D01*
X121304761Y-70125000D01*
X121447619Y-70077380D01*
X121542857Y-70077380D01*
X121685714Y-70125000D01*
X121733333Y-70172619D01*
X122590476Y-70410714D02*
X122590476Y-71077380D01*
X122352380Y-70029761D02*
X122114285Y-70744047D01*
X122733333Y-70744047D01*
%TO.C,U3*%
X119138095Y-94052380D02*
X119138095Y-94861904D01*
X119185714Y-94957142D01*
X119233333Y-95004761D01*
X119328571Y-95052380D01*
X119519047Y-95052380D01*
X119614285Y-95004761D01*
X119661904Y-94957142D01*
X119709523Y-94861904D01*
X119709523Y-94052380D01*
X120090476Y-94052380D02*
X120709523Y-94052380D01*
X120376190Y-94433333D01*
X120519047Y-94433333D01*
X120614285Y-94480952D01*
X120661904Y-94528571D01*
X120709523Y-94623809D01*
X120709523Y-94861904D01*
X120661904Y-94957142D01*
X120614285Y-95004761D01*
X120519047Y-95052380D01*
X120233333Y-95052380D01*
X120138095Y-95004761D01*
X120090476Y-94957142D01*
%TO.C,Y1*%
X119998809Y-69076190D02*
X119998809Y-69552380D01*
X119665476Y-68552380D02*
X119998809Y-69076190D01*
X120332142Y-68552380D01*
X121189285Y-69552380D02*
X120617857Y-69552380D01*
X120903571Y-69552380D02*
X120903571Y-68552380D01*
X120808333Y-68695238D01*
X120713095Y-68790476D01*
X120617857Y-68838095D01*
%TO.C,X1*%
X112190476Y-71677380D02*
X112857142Y-72677380D01*
X112857142Y-71677380D02*
X112190476Y-72677380D01*
X113761904Y-72677380D02*
X113190476Y-72677380D01*
X113476190Y-72677380D02*
X113476190Y-71677380D01*
X113380952Y-71820238D01*
X113285714Y-71915476D01*
X113190476Y-71963095D01*
%TO.C,U2*%
X108538095Y-65052380D02*
X108538095Y-65861904D01*
X108585714Y-65957142D01*
X108633333Y-66004761D01*
X108728571Y-66052380D01*
X108919047Y-66052380D01*
X109014285Y-66004761D01*
X109061904Y-65957142D01*
X109109523Y-65861904D01*
X109109523Y-65052380D01*
X109538095Y-65147619D02*
X109585714Y-65100000D01*
X109680952Y-65052380D01*
X109919047Y-65052380D01*
X110014285Y-65100000D01*
X110061904Y-65147619D01*
X110109523Y-65242857D01*
X110109523Y-65338095D01*
X110061904Y-65480952D01*
X109490476Y-66052380D01*
X110109523Y-66052380D01*
%TO.C,R4*%
X110083333Y-99352380D02*
X109750000Y-98876190D01*
X109511904Y-99352380D02*
X109511904Y-98352380D01*
X109892857Y-98352380D01*
X109988095Y-98400000D01*
X110035714Y-98447619D01*
X110083333Y-98542857D01*
X110083333Y-98685714D01*
X110035714Y-98780952D01*
X109988095Y-98828571D01*
X109892857Y-98876190D01*
X109511904Y-98876190D01*
X110940476Y-98685714D02*
X110940476Y-99352380D01*
X110702380Y-98304761D02*
X110464285Y-99019047D01*
X111083333Y-99019047D01*
%TO.C,R3*%
X118681933Y-99652380D02*
X118348600Y-99176190D01*
X118110504Y-99652380D02*
X118110504Y-98652380D01*
X118491457Y-98652380D01*
X118586695Y-98700000D01*
X118634314Y-98747619D01*
X118681933Y-98842857D01*
X118681933Y-98985714D01*
X118634314Y-99080952D01*
X118586695Y-99128571D01*
X118491457Y-99176190D01*
X118110504Y-99176190D01*
X119015266Y-98652380D02*
X119634314Y-98652380D01*
X119300980Y-99033333D01*
X119443838Y-99033333D01*
X119539076Y-99080952D01*
X119586695Y-99128571D01*
X119634314Y-99223809D01*
X119634314Y-99461904D01*
X119586695Y-99557142D01*
X119539076Y-99604761D01*
X119443838Y-99652380D01*
X119158123Y-99652380D01*
X119062885Y-99604761D01*
X119015266Y-99557142D01*
%TO.C,D2*%
X112411904Y-99352380D02*
X112411904Y-98352380D01*
X112650000Y-98352380D01*
X112792857Y-98400000D01*
X112888095Y-98495238D01*
X112935714Y-98590476D01*
X112983333Y-98780952D01*
X112983333Y-98923809D01*
X112935714Y-99114285D01*
X112888095Y-99209523D01*
X112792857Y-99304761D01*
X112650000Y-99352380D01*
X112411904Y-99352380D01*
X113364285Y-98447619D02*
X113411904Y-98400000D01*
X113507142Y-98352380D01*
X113745238Y-98352380D01*
X113840476Y-98400000D01*
X113888095Y-98447619D01*
X113935714Y-98542857D01*
X113935714Y-98638095D01*
X113888095Y-98780952D01*
X113316666Y-99352380D01*
X113935714Y-99352380D01*
%TO.C,D1*%
X121161904Y-99452380D02*
X121161904Y-98452380D01*
X121400000Y-98452380D01*
X121542857Y-98500000D01*
X121638095Y-98595238D01*
X121685714Y-98690476D01*
X121733333Y-98880952D01*
X121733333Y-99023809D01*
X121685714Y-99214285D01*
X121638095Y-99309523D01*
X121542857Y-99404761D01*
X121400000Y-99452380D01*
X121161904Y-99452380D01*
X122685714Y-99452380D02*
X122114285Y-99452380D01*
X122400000Y-99452380D02*
X122400000Y-98452380D01*
X122304761Y-98595238D01*
X122209523Y-98690476D01*
X122114285Y-98738095D01*
%TO.C,C17*%
X122857142Y-94742857D02*
X122904761Y-94790476D01*
X122952380Y-94933333D01*
X122952380Y-95028571D01*
X122904761Y-95171428D01*
X122809523Y-95266666D01*
X122714285Y-95314285D01*
X122523809Y-95361904D01*
X122380952Y-95361904D01*
X122190476Y-95314285D01*
X122095238Y-95266666D01*
X122000000Y-95171428D01*
X121952380Y-95028571D01*
X121952380Y-94933333D01*
X122000000Y-94790476D01*
X122047619Y-94742857D01*
X122952380Y-93790476D02*
X122952380Y-94361904D01*
X122952380Y-94076190D02*
X121952380Y-94076190D01*
X122095238Y-94171428D01*
X122190476Y-94266666D01*
X122238095Y-94361904D01*
X121952380Y-93457142D02*
X121952380Y-92790476D01*
X122952380Y-93219047D01*
%TO.C,C9*%
X118803333Y-66507142D02*
X118755714Y-66554761D01*
X118612857Y-66602380D01*
X118517619Y-66602380D01*
X118374761Y-66554761D01*
X118279523Y-66459523D01*
X118231904Y-66364285D01*
X118184285Y-66173809D01*
X118184285Y-66030952D01*
X118231904Y-65840476D01*
X118279523Y-65745238D01*
X118374761Y-65650000D01*
X118517619Y-65602380D01*
X118612857Y-65602380D01*
X118755714Y-65650000D01*
X118803333Y-65697619D01*
X119279523Y-66602380D02*
X119470000Y-66602380D01*
X119565238Y-66554761D01*
X119612857Y-66507142D01*
X119708095Y-66364285D01*
X119755714Y-66173809D01*
X119755714Y-65792857D01*
X119708095Y-65697619D01*
X119660476Y-65650000D01*
X119565238Y-65602380D01*
X119374761Y-65602380D01*
X119279523Y-65650000D01*
X119231904Y-65697619D01*
X119184285Y-65792857D01*
X119184285Y-66030952D01*
X119231904Y-66126190D01*
X119279523Y-66173809D01*
X119374761Y-66221428D01*
X119565238Y-66221428D01*
X119660476Y-66173809D01*
X119708095Y-66126190D01*
X119755714Y-66030952D01*
%TO.C,C8*%
X115883333Y-66541142D02*
X115835714Y-66588761D01*
X115692857Y-66636380D01*
X115597619Y-66636380D01*
X115454761Y-66588761D01*
X115359523Y-66493523D01*
X115311904Y-66398285D01*
X115264285Y-66207809D01*
X115264285Y-66064952D01*
X115311904Y-65874476D01*
X115359523Y-65779238D01*
X115454761Y-65684000D01*
X115597619Y-65636380D01*
X115692857Y-65636380D01*
X115835714Y-65684000D01*
X115883333Y-65731619D01*
X116454761Y-66064952D02*
X116359523Y-66017333D01*
X116311904Y-65969714D01*
X116264285Y-65874476D01*
X116264285Y-65826857D01*
X116311904Y-65731619D01*
X116359523Y-65684000D01*
X116454761Y-65636380D01*
X116645238Y-65636380D01*
X116740476Y-65684000D01*
X116788095Y-65731619D01*
X116835714Y-65826857D01*
X116835714Y-65874476D01*
X116788095Y-65969714D01*
X116740476Y-66017333D01*
X116645238Y-66064952D01*
X116454761Y-66064952D01*
X116359523Y-66112571D01*
X116311904Y-66160190D01*
X116264285Y-66255428D01*
X116264285Y-66445904D01*
X116311904Y-66541142D01*
X116359523Y-66588761D01*
X116454761Y-66636380D01*
X116645238Y-66636380D01*
X116740476Y-66588761D01*
X116788095Y-66541142D01*
X116835714Y-66445904D01*
X116835714Y-66255428D01*
X116788095Y-66160190D01*
X116740476Y-66112571D01*
X116645238Y-66064952D01*
%TO.C,C3*%
X110783333Y-94437142D02*
X110735714Y-94484761D01*
X110592857Y-94532380D01*
X110497619Y-94532380D01*
X110354761Y-94484761D01*
X110259523Y-94389523D01*
X110211904Y-94294285D01*
X110164285Y-94103809D01*
X110164285Y-93960952D01*
X110211904Y-93770476D01*
X110259523Y-93675238D01*
X110354761Y-93580000D01*
X110497619Y-93532380D01*
X110592857Y-93532380D01*
X110735714Y-93580000D01*
X110783333Y-93627619D01*
X111116666Y-93532380D02*
X111735714Y-93532380D01*
X111402380Y-93913333D01*
X111545238Y-93913333D01*
X111640476Y-93960952D01*
X111688095Y-94008571D01*
X111735714Y-94103809D01*
X111735714Y-94341904D01*
X111688095Y-94437142D01*
X111640476Y-94484761D01*
X111545238Y-94532380D01*
X111259523Y-94532380D01*
X111164285Y-94484761D01*
X111116666Y-94437142D01*
%TO.C,C7*%
X120783333Y-90907142D02*
X120735714Y-90954761D01*
X120592857Y-91002380D01*
X120497619Y-91002380D01*
X120354761Y-90954761D01*
X120259523Y-90859523D01*
X120211904Y-90764285D01*
X120164285Y-90573809D01*
X120164285Y-90430952D01*
X120211904Y-90240476D01*
X120259523Y-90145238D01*
X120354761Y-90050000D01*
X120497619Y-90002380D01*
X120592857Y-90002380D01*
X120735714Y-90050000D01*
X120783333Y-90097619D01*
X121116666Y-90002380D02*
X121783333Y-90002380D01*
X121354761Y-91002380D01*
%TO.C,U4*%
X109778895Y-73467980D02*
X109778895Y-74277504D01*
X109826514Y-74372742D01*
X109874133Y-74420361D01*
X109969371Y-74467980D01*
X110159847Y-74467980D01*
X110255085Y-74420361D01*
X110302704Y-74372742D01*
X110350323Y-74277504D01*
X110350323Y-73467980D01*
X111255085Y-73801314D02*
X111255085Y-74467980D01*
X111016990Y-73420361D02*
X110778895Y-74134647D01*
X111397942Y-74134647D01*
%TD*%
M02*
