M48
; DRILL file {KiCad (5.1.10-1-10_14)} date Sunday, May 30, 2021 at 12:03:43 AM
; FORMAT={-:-/ absolute / inch / decimal}
; #@! TF.CreationDate,2021-05-30T00:03:43-07:00
; #@! TF.GenerationSoftware,Kicad,Pcbnew,(5.1.10-1-10_14)
; #@! TF.FileFunction,Plated,1,4,PTH
FMAT,2
INCH
T1C0.0100
T2C0.0157
T3C0.0197
T4C0.0217
T5C0.0394
T6C0.0394
%
G90
G05
T1
X4.2933Y-3.0394
X4.3155Y-2.9443
X4.3484Y-2.9508
X4.3815Y-3.3052
X4.387Y-2.975
X4.3886Y-3.1981
X4.3897Y-3.909
X4.392Y-3.1393
X4.3925Y-3.1091
X4.3941Y-3.5126
X4.3943Y-3.4893
X4.3975Y-3.2325
X4.4025Y-3.1811
X4.4029Y-2.9999
X4.4115Y-3.5765
X4.427Y-3.918
X4.4332Y-3.5935
X4.4405Y-3.4898
X4.4406Y-3.463
X4.4409Y-3.437
X4.4445Y-3.2913
X4.4567Y-3.9213
X4.47Y-3.26
X4.4708Y-3.3412
X4.4803Y-3.7244
X4.4945Y-3.3402
X4.5177Y-3.4335
X4.5185Y-3.3406
X4.566Y-3.932
X4.5677Y-3.553
X4.57Y-3.32
X4.585Y-3.14
X4.5971Y-3.337
X4.608Y-3.932
X4.6191Y-3.3366
X4.626Y-2.7835
X4.6299Y-2.6968
X4.63Y-2.5079
X4.6535Y-2.5079
X4.6772Y-2.9575
X4.7185Y-2.5394
X4.7185Y-2.561
X4.7246Y-3.3381
X4.7295Y-3.6051
X4.7535Y-3.1819
X4.7579Y-3.6102
X4.7892Y-3.3553
X4.7953Y-3.3268
X4.8157Y-2.815
X4.8504Y-3.1949
X4.8657Y-3.1755
T2
X4.2953Y-2.5315
X4.2953Y-2.9685
X4.315Y-3.8937
X4.3167Y-2.5625
X4.318Y-2.605
X4.326Y-3.7098
X4.3413Y-3.3295
X4.3543Y-2.8425
X4.378Y-2.4764
X4.4183Y-2.6658
X4.4407Y-3.1309
X4.445Y-2.842
X4.4508Y-2.748
X4.4685Y-3.5843
X4.4828Y-3.0845
X4.4986Y-2.5263
X4.5157Y-3.5787
X4.5162Y-3.0845
X4.5276Y-2.7028
X4.5394Y-3.7244
X4.5851Y-3.7203
X4.6126Y-3.0598
X4.6142Y-3.0236
X4.6161Y-2.5874
X4.625Y-3.2487
X4.6417Y-3.7244
X4.6646Y-3.1189
X4.6752Y-2.5866
X4.6772Y-3.7234
X4.7106Y-2.8051
X4.7198Y-3.6586
X4.7244Y-3.5165
X4.7437Y-3.1161
X4.7461Y-3.4067
X4.7575Y-2.9672
X4.763Y-2.418
X4.7933Y-2.8878
X4.8189Y-3.3543
X4.8224Y-3.9
X4.8339Y-3.7378
X4.8521Y-3.9098
T5
X4.918Y-2.352
T6
X4.2181Y-2.352
X4.2181Y-2.452
X4.2181Y-2.552
X4.2181Y-2.652
X4.2181Y-2.752
X4.2181Y-2.852
X4.2181Y-2.952
X4.2181Y-3.052
X4.2181Y-3.152
X4.2181Y-3.252
X4.2181Y-3.352
X4.2181Y-3.452
X4.2181Y-3.552
X4.2181Y-3.652
X4.2181Y-3.752
X4.2181Y-3.852
X4.2181Y-3.952
X4.3181Y-2.352
X4.818Y-2.352
X4.9181Y-2.452
X4.9181Y-2.552
X4.9181Y-2.652
X4.9181Y-2.752
X4.9181Y-2.852
X4.9181Y-2.952
X4.9181Y-3.052
X4.9181Y-3.152
X4.9181Y-3.252
X4.9181Y-3.352
X4.9181Y-3.452
X4.9181Y-3.552
X4.9181Y-3.652
X4.9181Y-3.752
X4.9181Y-3.852
X4.9181Y-3.952
T3
G00X4.4242Y-2.3502
M15
G01X4.4242Y-2.3718
M16
G05
G00X4.6998Y-2.3502
M15
G01X4.6998Y-2.3718
M16
G05
T4
G00X4.4695Y-2.4673
M15
G01X4.4577Y-2.4673
M16
G05
G00X4.6663Y-2.4673
M15
G01X4.6545Y-2.4673
M16
G05
T0
M30
