%TF.GenerationSoftware,KiCad,Pcbnew,(5.1.10-1-10_14)*%
%TF.CreationDate,2021-05-30T00:03:35-07:00*%
%TF.ProjectId,BetsyBoard,42657473-7942-46f6-9172-642e6b696361,rev?*%
%TF.SameCoordinates,Original*%
%TF.FileFunction,Copper,L4,Bot*%
%TF.FilePolarity,Positive*%
%FSLAX46Y46*%
G04 Gerber Fmt 4.6, Leading zero omitted, Abs format (unit mm)*
G04 Created by KiCad (PCBNEW (5.1.10-1-10_14)) date 2021-05-30 00:03:35*
%MOMM*%
%LPD*%
G01*
G04 APERTURE LIST*
%TA.AperFunction,ComponentPad*%
%ADD10R,1.700000X1.700000*%
%TD*%
%TA.AperFunction,ComponentPad*%
%ADD11O,1.000000X1.550000*%
%TD*%
%TA.AperFunction,ComponentPad*%
%ADD12O,1.250000X0.950000*%
%TD*%
%TA.AperFunction,SMDPad,CuDef*%
%ADD13R,0.650000X1.060000*%
%TD*%
%TA.AperFunction,SMDPad,CuDef*%
%ADD14R,2.910000X0.550000*%
%TD*%
%TA.AperFunction,SMDPad,CuDef*%
%ADD15R,1.050000X1.200000*%
%TD*%
%TA.AperFunction,SMDPad,CuDef*%
%ADD16R,1.050000X1.080000*%
%TD*%
%TA.AperFunction,SMDPad,CuDef*%
%ADD17R,0.720000X0.780000*%
%TD*%
%TA.AperFunction,SMDPad,CuDef*%
%ADD18R,1.050000X2.390000*%
%TD*%
%TA.AperFunction,SMDPad,CuDef*%
%ADD19R,0.500000X1.000000*%
%TD*%
%TA.AperFunction,ComponentPad*%
%ADD20C,1.524000*%
%TD*%
%TA.AperFunction,ViaPad*%
%ADD21C,0.600000*%
%TD*%
%TA.AperFunction,ViaPad*%
%ADD22C,0.457200*%
%TD*%
%TA.AperFunction,Conductor*%
%ADD23C,0.150000*%
%TD*%
%TA.AperFunction,Conductor*%
%ADD24C,0.300000*%
%TD*%
%TA.AperFunction,Conductor*%
%ADD25C,0.250000*%
%TD*%
%TA.AperFunction,Conductor*%
%ADD26C,0.500000*%
%TD*%
%TA.AperFunction,Conductor*%
%ADD27C,0.127000*%
%TD*%
%TA.AperFunction,Conductor*%
%ADD28C,0.350000*%
%TD*%
%TA.AperFunction,Conductor*%
%ADD29C,0.254000*%
%TD*%
%TA.AperFunction,Conductor*%
%ADD30C,0.100000*%
%TD*%
G04 APERTURE END LIST*
D10*
%TO.P,P6,1*%
%TO.N,GND*%
X124917200Y-59740800D03*
%TD*%
%TO.P,F1,2*%
%TO.N,/VIN*%
%TA.AperFunction,SMDPad,CuDef*%
G36*
G01*
X110718750Y-66025000D02*
X111631250Y-66025000D01*
G75*
G02*
X111875000Y-66268750I0J-243750D01*
G01*
X111875000Y-66756250D01*
G75*
G02*
X111631250Y-67000000I-243750J0D01*
G01*
X110718750Y-67000000D01*
G75*
G02*
X110475000Y-66756250I0J243750D01*
G01*
X110475000Y-66268750D01*
G75*
G02*
X110718750Y-66025000I243750J0D01*
G01*
G37*
%TD.AperFunction*%
%TO.P,F1,1*%
%TO.N,/VBUS*%
%TA.AperFunction,SMDPad,CuDef*%
G36*
G01*
X110718750Y-64150000D02*
X111631250Y-64150000D01*
G75*
G02*
X111875000Y-64393750I0J-243750D01*
G01*
X111875000Y-64881250D01*
G75*
G02*
X111631250Y-65125000I-243750J0D01*
G01*
X110718750Y-65125000D01*
G75*
G02*
X110475000Y-64881250I0J243750D01*
G01*
X110475000Y-64393750D01*
G75*
G02*
X110718750Y-64150000I243750J0D01*
G01*
G37*
%TD.AperFunction*%
%TD*%
D11*
%TO.P,J1,6*%
%TO.N,Net-(J1-Pad6)*%
X112374800Y-59969400D03*
X119374800Y-59969400D03*
D12*
X113374800Y-62669400D03*
X118374800Y-62669400D03*
%TD*%
D13*
%TO.P,U1,5*%
%TO.N,VDD*%
X116920000Y-64620000D03*
%TO.P,U1,4*%
%TO.N,Net-(U1-Pad4)*%
X115020000Y-64620000D03*
%TO.P,U1,3*%
%TO.N,/VIN*%
X115020000Y-66820000D03*
%TO.P,U1,2*%
%TO.N,GND*%
X115970000Y-66820000D03*
%TO.P,U1,1*%
%TO.N,/VIN*%
X116920000Y-66820000D03*
%TD*%
%TO.P,C10,2*%
%TO.N,GND*%
%TA.AperFunction,SMDPad,CuDef*%
G36*
G01*
X120193750Y-73600000D02*
X120706250Y-73600000D01*
G75*
G02*
X120925000Y-73818750I0J-218750D01*
G01*
X120925000Y-74256250D01*
G75*
G02*
X120706250Y-74475000I-218750J0D01*
G01*
X120193750Y-74475000D01*
G75*
G02*
X119975000Y-74256250I0J218750D01*
G01*
X119975000Y-73818750D01*
G75*
G02*
X120193750Y-73600000I218750J0D01*
G01*
G37*
%TD.AperFunction*%
%TO.P,C10,1*%
%TO.N,VDD*%
%TA.AperFunction,SMDPad,CuDef*%
G36*
G01*
X120193750Y-72025000D02*
X120706250Y-72025000D01*
G75*
G02*
X120925000Y-72243750I0J-218750D01*
G01*
X120925000Y-72681250D01*
G75*
G02*
X120706250Y-72900000I-218750J0D01*
G01*
X120193750Y-72900000D01*
G75*
G02*
X119975000Y-72681250I0J218750D01*
G01*
X119975000Y-72243750D01*
G75*
G02*
X120193750Y-72025000I218750J0D01*
G01*
G37*
%TD.AperFunction*%
%TD*%
D14*
%TO.P,J2,*%
%TO.N,*%
X114110000Y-93465000D03*
D15*
%TO.P,J2,10*%
%TO.N,GND*%
X110880000Y-94145000D03*
D16*
X110880000Y-96755000D03*
D17*
%TO.P,J2,9*%
%TO.N,/SDMMC_DET*%
X110905000Y-98025000D03*
D14*
%TO.P,J2,*%
%TO.N,*%
X118125000Y-93465000D03*
D15*
%TO.P,J2,10*%
%TO.N,GND*%
X121530000Y-94715000D03*
D18*
X121530000Y-97905000D03*
D19*
%TO.P,J2,8*%
%TO.N,/SDMMC_D1*%
X120355000Y-100705000D03*
%TO.P,J2,7*%
%TO.N,/SDMMC_D0*%
X119255000Y-100705000D03*
%TO.P,J2,6*%
%TO.N,GND*%
X118155000Y-100705000D03*
%TO.P,J2,5*%
%TO.N,/SDMMC_CLK*%
X117055000Y-100705000D03*
%TO.P,J2,4*%
%TO.N,VDD*%
X115955000Y-100705000D03*
%TO.P,J2,3*%
%TO.N,/SDMMC_CMD*%
X114855000Y-100705000D03*
%TO.P,J2,2*%
%TO.N,/SDMMC_D3*%
X113755000Y-100705000D03*
%TO.P,J2,1*%
%TO.N,/SDMMC_D2*%
X112655000Y-100705000D03*
%TD*%
%TO.P,R2,2*%
%TO.N,/BOOT0*%
%TA.AperFunction,SMDPad,CuDef*%
G36*
G01*
X120150000Y-70106250D02*
X120150000Y-69593750D01*
G75*
G02*
X120368750Y-69375000I218750J0D01*
G01*
X120806250Y-69375000D01*
G75*
G02*
X121025000Y-69593750I0J-218750D01*
G01*
X121025000Y-70106250D01*
G75*
G02*
X120806250Y-70325000I-218750J0D01*
G01*
X120368750Y-70325000D01*
G75*
G02*
X120150000Y-70106250I0J218750D01*
G01*
G37*
%TD.AperFunction*%
%TO.P,R2,1*%
%TO.N,GND*%
%TA.AperFunction,SMDPad,CuDef*%
G36*
G01*
X118575000Y-70106250D02*
X118575000Y-69593750D01*
G75*
G02*
X118793750Y-69375000I218750J0D01*
G01*
X119231250Y-69375000D01*
G75*
G02*
X119450000Y-69593750I0J-218750D01*
G01*
X119450000Y-70106250D01*
G75*
G02*
X119231250Y-70325000I-218750J0D01*
G01*
X118793750Y-70325000D01*
G75*
G02*
X118575000Y-70106250I0J218750D01*
G01*
G37*
%TD.AperFunction*%
%TD*%
%TO.P,C15,2*%
%TO.N,GND*%
%TA.AperFunction,SMDPad,CuDef*%
G36*
G01*
X110850000Y-83343750D02*
X110850000Y-83856250D01*
G75*
G02*
X110631250Y-84075000I-218750J0D01*
G01*
X110193750Y-84075000D01*
G75*
G02*
X109975000Y-83856250I0J218750D01*
G01*
X109975000Y-83343750D01*
G75*
G02*
X110193750Y-83125000I218750J0D01*
G01*
X110631250Y-83125000D01*
G75*
G02*
X110850000Y-83343750I0J-218750D01*
G01*
G37*
%TD.AperFunction*%
%TO.P,C15,1*%
%TO.N,VDD*%
%TA.AperFunction,SMDPad,CuDef*%
G36*
G01*
X112425000Y-83343750D02*
X112425000Y-83856250D01*
G75*
G02*
X112206250Y-84075000I-218750J0D01*
G01*
X111768750Y-84075000D01*
G75*
G02*
X111550000Y-83856250I0J218750D01*
G01*
X111550000Y-83343750D01*
G75*
G02*
X111768750Y-83125000I218750J0D01*
G01*
X112206250Y-83125000D01*
G75*
G02*
X112425000Y-83343750I0J-218750D01*
G01*
G37*
%TD.AperFunction*%
%TD*%
%TO.P,C11,2*%
%TO.N,GND*%
%TA.AperFunction,SMDPad,CuDef*%
G36*
G01*
X115350000Y-91643750D02*
X115350000Y-92156250D01*
G75*
G02*
X115131250Y-92375000I-218750J0D01*
G01*
X114693750Y-92375000D01*
G75*
G02*
X114475000Y-92156250I0J218750D01*
G01*
X114475000Y-91643750D01*
G75*
G02*
X114693750Y-91425000I218750J0D01*
G01*
X115131250Y-91425000D01*
G75*
G02*
X115350000Y-91643750I0J-218750D01*
G01*
G37*
%TD.AperFunction*%
%TO.P,C11,1*%
%TO.N,VDD*%
%TA.AperFunction,SMDPad,CuDef*%
G36*
G01*
X116925000Y-91643750D02*
X116925000Y-92156250D01*
G75*
G02*
X116706250Y-92375000I-218750J0D01*
G01*
X116268750Y-92375000D01*
G75*
G02*
X116050000Y-92156250I0J218750D01*
G01*
X116050000Y-91643750D01*
G75*
G02*
X116268750Y-91425000I218750J0D01*
G01*
X116706250Y-91425000D01*
G75*
G02*
X116925000Y-91643750I0J-218750D01*
G01*
G37*
%TD.AperFunction*%
%TD*%
%TO.P,C14,2*%
%TO.N,GND*%
%TA.AperFunction,SMDPad,CuDef*%
G36*
G01*
X110643750Y-77550000D02*
X111156250Y-77550000D01*
G75*
G02*
X111375000Y-77768750I0J-218750D01*
G01*
X111375000Y-78206250D01*
G75*
G02*
X111156250Y-78425000I-218750J0D01*
G01*
X110643750Y-78425000D01*
G75*
G02*
X110425000Y-78206250I0J218750D01*
G01*
X110425000Y-77768750D01*
G75*
G02*
X110643750Y-77550000I218750J0D01*
G01*
G37*
%TD.AperFunction*%
%TO.P,C14,1*%
%TO.N,VDD*%
%TA.AperFunction,SMDPad,CuDef*%
G36*
G01*
X110643750Y-75975000D02*
X111156250Y-75975000D01*
G75*
G02*
X111375000Y-76193750I0J-218750D01*
G01*
X111375000Y-76631250D01*
G75*
G02*
X111156250Y-76850000I-218750J0D01*
G01*
X110643750Y-76850000D01*
G75*
G02*
X110425000Y-76631250I0J218750D01*
G01*
X110425000Y-76193750D01*
G75*
G02*
X110643750Y-75975000I218750J0D01*
G01*
G37*
%TD.AperFunction*%
%TD*%
%TO.P,C2,2*%
%TO.N,GND*%
%TA.AperFunction,SMDPad,CuDef*%
G36*
G01*
X118343750Y-66050000D02*
X119256250Y-66050000D01*
G75*
G02*
X119500000Y-66293750I0J-243750D01*
G01*
X119500000Y-66781250D01*
G75*
G02*
X119256250Y-67025000I-243750J0D01*
G01*
X118343750Y-67025000D01*
G75*
G02*
X118100000Y-66781250I0J243750D01*
G01*
X118100000Y-66293750D01*
G75*
G02*
X118343750Y-66050000I243750J0D01*
G01*
G37*
%TD.AperFunction*%
%TO.P,C2,1*%
%TO.N,VDD*%
%TA.AperFunction,SMDPad,CuDef*%
G36*
G01*
X118343750Y-64175000D02*
X119256250Y-64175000D01*
G75*
G02*
X119500000Y-64418750I0J-243750D01*
G01*
X119500000Y-64906250D01*
G75*
G02*
X119256250Y-65150000I-243750J0D01*
G01*
X118343750Y-65150000D01*
G75*
G02*
X118100000Y-64906250I0J243750D01*
G01*
X118100000Y-64418750D01*
G75*
G02*
X118343750Y-64175000I243750J0D01*
G01*
G37*
%TD.AperFunction*%
%TD*%
%TO.P,C13,2*%
%TO.N,GND*%
%TA.AperFunction,SMDPad,CuDef*%
G36*
G01*
X118043750Y-77800000D02*
X118956250Y-77800000D01*
G75*
G02*
X119200000Y-78043750I0J-243750D01*
G01*
X119200000Y-78531250D01*
G75*
G02*
X118956250Y-78775000I-243750J0D01*
G01*
X118043750Y-78775000D01*
G75*
G02*
X117800000Y-78531250I0J243750D01*
G01*
X117800000Y-78043750D01*
G75*
G02*
X118043750Y-77800000I243750J0D01*
G01*
G37*
%TD.AperFunction*%
%TO.P,C13,1*%
%TO.N,VDD*%
%TA.AperFunction,SMDPad,CuDef*%
G36*
G01*
X118043750Y-75925000D02*
X118956250Y-75925000D01*
G75*
G02*
X119200000Y-76168750I0J-243750D01*
G01*
X119200000Y-76656250D01*
G75*
G02*
X118956250Y-76900000I-243750J0D01*
G01*
X118043750Y-76900000D01*
G75*
G02*
X117800000Y-76656250I0J243750D01*
G01*
X117800000Y-76168750D01*
G75*
G02*
X118043750Y-75925000I243750J0D01*
G01*
G37*
%TD.AperFunction*%
%TD*%
%TO.P,C12,2*%
%TO.N,GND*%
%TA.AperFunction,SMDPad,CuDef*%
G36*
G01*
X120043750Y-77800000D02*
X120956250Y-77800000D01*
G75*
G02*
X121200000Y-78043750I0J-243750D01*
G01*
X121200000Y-78531250D01*
G75*
G02*
X120956250Y-78775000I-243750J0D01*
G01*
X120043750Y-78775000D01*
G75*
G02*
X119800000Y-78531250I0J243750D01*
G01*
X119800000Y-78043750D01*
G75*
G02*
X120043750Y-77800000I243750J0D01*
G01*
G37*
%TD.AperFunction*%
%TO.P,C12,1*%
%TO.N,VDD*%
%TA.AperFunction,SMDPad,CuDef*%
G36*
G01*
X120043750Y-75925000D02*
X120956250Y-75925000D01*
G75*
G02*
X121200000Y-76168750I0J-243750D01*
G01*
X121200000Y-76656250D01*
G75*
G02*
X120956250Y-76900000I-243750J0D01*
G01*
X120043750Y-76900000D01*
G75*
G02*
X119800000Y-76656250I0J243750D01*
G01*
X119800000Y-76168750D01*
G75*
G02*
X120043750Y-75925000I243750J0D01*
G01*
G37*
%TD.AperFunction*%
%TD*%
%TO.P,C16,2*%
%TO.N,GND*%
%TA.AperFunction,SMDPad,CuDef*%
G36*
G01*
X111163750Y-72162000D02*
X111676250Y-72162000D01*
G75*
G02*
X111895000Y-72380750I0J-218750D01*
G01*
X111895000Y-72818250D01*
G75*
G02*
X111676250Y-73037000I-218750J0D01*
G01*
X111163750Y-73037000D01*
G75*
G02*
X110945000Y-72818250I0J218750D01*
G01*
X110945000Y-72380750D01*
G75*
G02*
X111163750Y-72162000I218750J0D01*
G01*
G37*
%TD.AperFunction*%
%TO.P,C16,1*%
%TO.N,VDD*%
%TA.AperFunction,SMDPad,CuDef*%
G36*
G01*
X111163750Y-70587000D02*
X111676250Y-70587000D01*
G75*
G02*
X111895000Y-70805750I0J-218750D01*
G01*
X111895000Y-71243250D01*
G75*
G02*
X111676250Y-71462000I-218750J0D01*
G01*
X111163750Y-71462000D01*
G75*
G02*
X110945000Y-71243250I0J218750D01*
G01*
X110945000Y-70805750D01*
G75*
G02*
X111163750Y-70587000I218750J0D01*
G01*
G37*
%TD.AperFunction*%
%TD*%
%TO.P,C6,2*%
%TO.N,GND*%
%TA.AperFunction,SMDPad,CuDef*%
G36*
G01*
X115100000Y-75106250D02*
X115100000Y-74593750D01*
G75*
G02*
X115318750Y-74375000I218750J0D01*
G01*
X115756250Y-74375000D01*
G75*
G02*
X115975000Y-74593750I0J-218750D01*
G01*
X115975000Y-75106250D01*
G75*
G02*
X115756250Y-75325000I-218750J0D01*
G01*
X115318750Y-75325000D01*
G75*
G02*
X115100000Y-75106250I0J218750D01*
G01*
G37*
%TD.AperFunction*%
%TO.P,C6,1*%
%TO.N,VDDA*%
%TA.AperFunction,SMDPad,CuDef*%
G36*
G01*
X113525000Y-75106250D02*
X113525000Y-74593750D01*
G75*
G02*
X113743750Y-74375000I218750J0D01*
G01*
X114181250Y-74375000D01*
G75*
G02*
X114400000Y-74593750I0J-218750D01*
G01*
X114400000Y-75106250D01*
G75*
G02*
X114181250Y-75325000I-218750J0D01*
G01*
X113743750Y-75325000D01*
G75*
G02*
X113525000Y-75106250I0J218750D01*
G01*
G37*
%TD.AperFunction*%
%TD*%
%TO.P,C5,2*%
%TO.N,GND*%
%TA.AperFunction,SMDPad,CuDef*%
G36*
G01*
X115100000Y-73506250D02*
X115100000Y-72993750D01*
G75*
G02*
X115318750Y-72775000I218750J0D01*
G01*
X115756250Y-72775000D01*
G75*
G02*
X115975000Y-72993750I0J-218750D01*
G01*
X115975000Y-73506250D01*
G75*
G02*
X115756250Y-73725000I-218750J0D01*
G01*
X115318750Y-73725000D01*
G75*
G02*
X115100000Y-73506250I0J218750D01*
G01*
G37*
%TD.AperFunction*%
%TO.P,C5,1*%
%TO.N,VDDA*%
%TA.AperFunction,SMDPad,CuDef*%
G36*
G01*
X113525000Y-73506250D02*
X113525000Y-72993750D01*
G75*
G02*
X113743750Y-72775000I218750J0D01*
G01*
X114181250Y-72775000D01*
G75*
G02*
X114400000Y-72993750I0J-218750D01*
G01*
X114400000Y-73506250D01*
G75*
G02*
X114181250Y-73725000I-218750J0D01*
G01*
X113743750Y-73725000D01*
G75*
G02*
X113525000Y-73506250I0J218750D01*
G01*
G37*
%TD.AperFunction*%
%TD*%
%TO.P,FB2,2*%
%TO.N,VDD*%
%TA.AperFunction,SMDPad,CuDef*%
G36*
G01*
X115150000Y-77206250D02*
X115150000Y-76293750D01*
G75*
G02*
X115393750Y-76050000I243750J0D01*
G01*
X115881250Y-76050000D01*
G75*
G02*
X116125000Y-76293750I0J-243750D01*
G01*
X116125000Y-77206250D01*
G75*
G02*
X115881250Y-77450000I-243750J0D01*
G01*
X115393750Y-77450000D01*
G75*
G02*
X115150000Y-77206250I0J243750D01*
G01*
G37*
%TD.AperFunction*%
%TO.P,FB2,1*%
%TO.N,VDDA*%
%TA.AperFunction,SMDPad,CuDef*%
G36*
G01*
X113275000Y-77206250D02*
X113275000Y-76293750D01*
G75*
G02*
X113518750Y-76050000I243750J0D01*
G01*
X114006250Y-76050000D01*
G75*
G02*
X114250000Y-76293750I0J-243750D01*
G01*
X114250000Y-77206250D01*
G75*
G02*
X114006250Y-77450000I-243750J0D01*
G01*
X113518750Y-77450000D01*
G75*
G02*
X113275000Y-77206250I0J243750D01*
G01*
G37*
%TD.AperFunction*%
%TD*%
%TO.P,C1,2*%
%TO.N,GND*%
%TA.AperFunction,SMDPad,CuDef*%
G36*
G01*
X113606250Y-65120000D02*
X112693750Y-65120000D01*
G75*
G02*
X112450000Y-64876250I0J243750D01*
G01*
X112450000Y-64388750D01*
G75*
G02*
X112693750Y-64145000I243750J0D01*
G01*
X113606250Y-64145000D01*
G75*
G02*
X113850000Y-64388750I0J-243750D01*
G01*
X113850000Y-64876250D01*
G75*
G02*
X113606250Y-65120000I-243750J0D01*
G01*
G37*
%TD.AperFunction*%
%TO.P,C1,1*%
%TO.N,/VIN*%
%TA.AperFunction,SMDPad,CuDef*%
G36*
G01*
X113606250Y-66995000D02*
X112693750Y-66995000D01*
G75*
G02*
X112450000Y-66751250I0J243750D01*
G01*
X112450000Y-66263750D01*
G75*
G02*
X112693750Y-66020000I243750J0D01*
G01*
X113606250Y-66020000D01*
G75*
G02*
X113850000Y-66263750I0J-243750D01*
G01*
X113850000Y-66751250D01*
G75*
G02*
X113606250Y-66995000I-243750J0D01*
G01*
G37*
%TD.AperFunction*%
%TD*%
D20*
%TO.P,P4,1*%
%TO.N,/A1*%
X107140000Y-62280000D03*
%TO.P,P4,2*%
%TO.N,/A2*%
X107140000Y-64820000D03*
%TO.P,P4,3*%
%TO.N,/A3*%
X107140000Y-67360000D03*
%TO.P,P4,4*%
%TO.N,/A4*%
X107140000Y-69900000D03*
%TO.P,P4,5*%
%TO.N,/A5*%
X107140000Y-72440000D03*
%TO.P,P4,6*%
%TO.N,/A6*%
X107140000Y-74980000D03*
%TO.P,P4,7*%
%TO.N,/A7*%
X107140000Y-77520000D03*
%TO.P,P4,8*%
%TO.N,/A8*%
X107140000Y-80060000D03*
%TO.P,P4,9*%
%TO.N,/A9*%
X107140000Y-82600000D03*
%TO.P,P4,10*%
%TO.N,/A10*%
X107140000Y-85140000D03*
%TO.P,P4,11*%
%TO.N,/A11*%
X107140000Y-87680000D03*
%TO.P,P4,12*%
%TO.N,/A12*%
X107140000Y-90220000D03*
%TO.P,P4,13*%
%TO.N,/A13*%
X107140000Y-92760000D03*
%TO.P,P4,14*%
%TO.N,/A14*%
X107140000Y-95300000D03*
%TO.P,P4,15*%
%TO.N,/A15*%
X107140000Y-97840000D03*
%TO.P,P4,16*%
%TO.N,/A16*%
X107140000Y-100380000D03*
%TD*%
%TO.P,P5,1*%
%TO.N,/D1*%
X124920000Y-100380000D03*
%TO.P,P5,2*%
%TO.N,/D2*%
X124920000Y-97840000D03*
%TO.P,P5,3*%
%TO.N,/D3*%
X124920000Y-95300000D03*
%TO.P,P5,4*%
%TO.N,/D4*%
X124920000Y-92760000D03*
%TO.P,P5,5*%
%TO.N,/D5*%
X124920000Y-90220000D03*
%TO.P,P5,6*%
%TO.N,/D6*%
X124920000Y-87680000D03*
%TO.P,P5,7*%
%TO.N,/D7*%
X124920000Y-85140000D03*
%TO.P,P5,8*%
%TO.N,/D8*%
X124920000Y-82600000D03*
%TO.P,P5,9*%
%TO.N,/D9*%
X124920000Y-80060000D03*
%TO.P,P5,10*%
%TO.N,/D10*%
X124920000Y-77520000D03*
%TO.P,P5,11*%
%TO.N,/D11*%
X124920000Y-74980000D03*
%TO.P,P5,12*%
%TO.N,/D12*%
X124920000Y-72440000D03*
%TO.P,P5,13*%
%TO.N,/D13*%
X124920000Y-69900000D03*
%TO.P,P5,14*%
%TO.N,/D14*%
X124920000Y-67360000D03*
%TO.P,P5,15*%
%TO.N,/D15*%
X124920000Y-64820000D03*
%TO.P,P5,16*%
%TO.N,/D16*%
X124920000Y-62280000D03*
%TD*%
%TO.P,P1,1*%
%TO.N,VDD*%
X109680000Y-59740000D03*
%TD*%
%TO.P,P7,1*%
%TO.N,/MCO*%
X122377200Y-59740800D03*
%TD*%
%TO.P,P2,1*%
%TO.N,/VBUS*%
X107140000Y-59740000D03*
%TD*%
D21*
%TO.N,GND*%
X110270000Y-84570000D03*
X120980200Y-61417200D03*
X110600000Y-72200000D03*
X122400000Y-85200000D03*
X109100000Y-64300000D03*
X109100000Y-75400000D03*
X120840850Y-75366258D03*
X117473928Y-82516502D03*
D22*
X109050000Y-77200000D03*
D21*
X118750000Y-65700000D03*
X112224707Y-67710686D03*
X120000000Y-89320000D03*
X118480000Y-79220000D03*
X120490000Y-79150000D03*
D22*
X117500000Y-70700000D03*
X117600012Y-68499990D03*
D21*
X109880000Y-94230000D03*
X122490000Y-99060000D03*
X117250000Y-65720000D03*
X114264140Y-64167588D03*
X119882731Y-92928551D03*
X109600000Y-98900000D03*
X115300000Y-94600000D03*
X117900000Y-94600000D03*
X114700000Y-90899992D03*
X113050000Y-69800000D03*
X119650000Y-71250000D03*
D22*
%TO.N,VDD*%
X111290147Y-83953003D03*
D21*
X120549998Y-86530000D03*
X117160000Y-77720000D03*
X112793780Y-79524860D03*
X117200002Y-76800000D03*
D22*
X119850000Y-64500000D03*
X119850000Y-65049988D03*
D21*
X113500000Y-91040000D03*
X122780000Y-94940000D03*
X116461555Y-94495218D03*
X121750000Y-73350000D03*
D22*
X115976400Y-99872800D03*
%TO.N,/RTC_OSC_IN*%
X118800000Y-75119868D03*
D21*
X115000000Y-68650000D03*
D22*
%TO.N,/SDMMC_D2*%
X111499077Y-99287412D03*
%TO.N,/SDMMC_D3*%
X113200000Y-99600000D03*
%TO.N,/SDMMC_CMD*%
X120130000Y-91570000D03*
X113800000Y-94600000D03*
X112445798Y-99517200D03*
%TO.N,/SDMMC_D0*%
X112051047Y-90843288D03*
%TO.N,/SDMMC_D1*%
X112604504Y-91274506D03*
%TO.N,/D1*%
X111616316Y-88627384D03*
%TO.N,/BOOT0*%
X122319121Y-71500000D03*
D21*
%TO.N,/OTG_FS_D+*%
X114712300Y-78346300D03*
X109644998Y-65086680D03*
%TO.N,/OTG_FS_D-*%
X113861987Y-78346613D03*
X109677200Y-66167000D03*
D22*
%TO.N,/JTCK/SWCLK*%
X121800000Y-84500000D03*
X114750000Y-87210000D03*
%TO.N,/D10*%
X123588589Y-80657149D03*
X117323990Y-84748463D03*
%TO.N,/D9*%
X123200000Y-81150000D03*
X116766903Y-84760277D03*
%TO.N,/D8*%
X114770000Y-84850000D03*
%TO.N,/D7*%
X114160000Y-84840000D03*
%TO.N,/D6*%
X113559566Y-84865706D03*
%TO.N,/D5*%
X112800000Y-87300000D03*
%TO.N,/D4*%
X112791388Y-87960775D03*
%TO.N,/D3*%
X112788509Y-88640219D03*
%TO.N,/D2*%
X111610000Y-89220000D03*
%TO.N,/A1*%
X111833538Y-76196415D03*
%TO.N,/A2*%
X111429928Y-75564206D03*
%TO.N,/A3*%
X110449998Y-74949998D03*
%TO.N,/A4*%
X109614604Y-74785396D03*
%TO.N,/A13*%
X111570000Y-78970000D03*
%TO.N,/A14*%
X111557420Y-79739227D03*
%TO.N,/A15*%
X111823870Y-80800000D03*
%TO.N,/A16*%
X111470209Y-81230577D03*
%TO.N,/JTDO/SWO*%
X120740000Y-80820000D03*
X116020000Y-90246358D03*
%TO.N,/~RST*%
X121646272Y-85224506D03*
X120003859Y-84787289D03*
%TO.N,/SDMMC_CLK*%
X117043200Y-99872804D03*
D21*
%TO.N,VDDA*%
X112903000Y-72186800D03*
%TO.N,/VBUS*%
X111200000Y-62900000D03*
D22*
X117601672Y-63701672D03*
X118200000Y-63700000D03*
%TO.N,/SDMMC_DET*%
X112889606Y-83599602D03*
X116459000Y-79756000D03*
X113538000Y-82804000D03*
%TO.N,/RESET#*%
X120850000Y-91700000D03*
D21*
X118800000Y-94575010D03*
D22*
%TO.N,/LED*%
X111695620Y-82104380D03*
D21*
X123242673Y-99309791D03*
D22*
%TO.N,/MCO*%
X116078000Y-84328000D03*
%TD*%
D23*
%TO.N,GND*%
X111524000Y-72470000D02*
X111420000Y-72574000D01*
X111420000Y-72574000D02*
X110974000Y-72574000D01*
X110974000Y-72574000D02*
X110600000Y-72200000D01*
X120450000Y-74975408D02*
X120840850Y-75366258D01*
X120450000Y-74187500D02*
X120450000Y-74975408D01*
X109458000Y-77200000D02*
X109050000Y-77200000D01*
X110150000Y-77892000D02*
X109458000Y-77200000D01*
D24*
X118650000Y-65700000D02*
X118750000Y-65600000D01*
X118650000Y-66537500D02*
X118650000Y-65700000D01*
X114912500Y-91900000D02*
X114912500Y-92076114D01*
D25*
X115537500Y-73250000D02*
X115249988Y-73250000D01*
D26*
X118500000Y-78287500D02*
X118500000Y-79200000D01*
X118500000Y-79200000D02*
X118480000Y-79220000D01*
D24*
X120500000Y-78287500D02*
X120500000Y-79140000D01*
X120500000Y-79140000D02*
X120490000Y-79150000D01*
D23*
X110595110Y-93903000D02*
X110268110Y-94230000D01*
X110268110Y-94230000D02*
X109880000Y-94230000D01*
D25*
X121530000Y-97905000D02*
X122490000Y-98865000D01*
X122490000Y-98865000D02*
X122490000Y-99060000D01*
D24*
X116665736Y-65720000D02*
X117250000Y-65720000D01*
X115970000Y-66770000D02*
X115970000Y-66415736D01*
X115970000Y-66415736D02*
X116665736Y-65720000D01*
X113834912Y-64167588D02*
X114264140Y-64167588D01*
X113370000Y-64632500D02*
X113834912Y-64167588D01*
D23*
X118155000Y-100705000D02*
X118155000Y-99355000D01*
X118155000Y-99355000D02*
X116800000Y-98000000D01*
X112024264Y-98000000D02*
X111124264Y-98900000D01*
X116800000Y-98000000D02*
X112024264Y-98000000D01*
X111124264Y-98900000D02*
X109600000Y-98900000D01*
D25*
X114912500Y-91112492D02*
X114700000Y-90899992D01*
X114912500Y-91900000D02*
X114912500Y-91112492D01*
X115537500Y-74850000D02*
X117300000Y-74850000D01*
X120607118Y-75599990D02*
X120840850Y-75366258D01*
X118049990Y-75599990D02*
X120607118Y-75599990D01*
X117300000Y-74850000D02*
X118049990Y-75599990D01*
D23*
%TO.N,VDD*%
X109670000Y-59750000D02*
X109680000Y-59740000D01*
D25*
X111962000Y-83600000D02*
X111608997Y-83953003D01*
X111608997Y-83953003D02*
X111290147Y-83953003D01*
D26*
X120500000Y-76412500D02*
X118500000Y-76412500D01*
X116607500Y-77720000D02*
X117160000Y-77720000D01*
X115637500Y-76750000D02*
X116607500Y-77720000D01*
X118500000Y-76412500D02*
X117192500Y-77720000D01*
X117192500Y-77720000D02*
X117160000Y-77720000D01*
D25*
X114458742Y-79524860D02*
X112793780Y-79524860D01*
X115637500Y-78346102D02*
X114458742Y-79524860D01*
X115637500Y-76750000D02*
X115637500Y-78346102D01*
D26*
X118500000Y-76412500D02*
X117587502Y-76412500D01*
X117587502Y-76412500D02*
X117200002Y-76800000D01*
D25*
X110912500Y-76412500D02*
X112900000Y-78400000D01*
X110900000Y-76412500D02*
X110912500Y-76412500D01*
X112900000Y-79418640D02*
X112793780Y-79524860D01*
X112900000Y-78400000D02*
X112900000Y-79418640D01*
D26*
X118962500Y-64500000D02*
X118800000Y-64662500D01*
X119850000Y-64500000D02*
X118962500Y-64500000D01*
X120550000Y-65749988D02*
X119850000Y-65049988D01*
X121887500Y-76412500D02*
X123024989Y-75275011D01*
X120550000Y-67950000D02*
X120550000Y-65749988D01*
X120500000Y-76412500D02*
X121887500Y-76412500D01*
X123024989Y-70424989D02*
X120550000Y-67950000D01*
X123024989Y-75275011D02*
X123024989Y-70424989D01*
D25*
X116344999Y-92042501D02*
X116344999Y-92055001D01*
X116487500Y-91900000D02*
X116344999Y-92042501D01*
X116487500Y-91900000D02*
X116161556Y-92225944D01*
X116161556Y-92225944D02*
X116161556Y-94195219D01*
X116161556Y-94195219D02*
X116461555Y-94495218D01*
X120936083Y-70936083D02*
X120800000Y-70800000D01*
X120800000Y-72112500D02*
X120800000Y-70800000D01*
X120450000Y-72462500D02*
X120800000Y-72112500D01*
X121337500Y-73350000D02*
X121750000Y-73350000D01*
X120450000Y-72462500D02*
X121337500Y-73350000D01*
X112277998Y-73592748D02*
X112900000Y-74214750D01*
X112277998Y-71882498D02*
X112277998Y-73592748D01*
X111420000Y-71024500D02*
X112277998Y-71882498D01*
X112900000Y-74214750D02*
X112900000Y-78400000D01*
X115955000Y-100705000D02*
X115955000Y-99894200D01*
X115955000Y-99894200D02*
X115976400Y-99872800D01*
D23*
%TO.N,/RTC_OSC_IN*%
X115000000Y-71319868D02*
X115000000Y-68650000D01*
X118800000Y-75119868D02*
X115000000Y-71319868D01*
%TO.N,/SDMMC_D2*%
X111499077Y-99949077D02*
X111499077Y-99287412D01*
X112655000Y-100705000D02*
X112255000Y-100705000D01*
X112255000Y-100705000D02*
X111499077Y-99949077D01*
%TO.N,/SDMMC_D3*%
X113755000Y-100705000D02*
X113200000Y-100150000D01*
X113200000Y-100150000D02*
X113200000Y-99600000D01*
%TO.N,/SDMMC_CMD*%
X114300000Y-95100000D02*
X113800000Y-94600000D01*
X117100000Y-94700000D02*
X116700000Y-95100000D01*
X117100000Y-94400000D02*
X117100000Y-94700000D01*
X117400000Y-94100000D02*
X117100000Y-94400000D01*
X116700000Y-95100000D02*
X114300000Y-95100000D01*
X120358599Y-93917833D02*
X120176432Y-94100000D01*
X120176432Y-94100000D02*
X117400000Y-94100000D01*
X120358599Y-91798599D02*
X120358599Y-93917833D01*
X120130000Y-91570000D02*
X120358599Y-91798599D01*
X113771401Y-98971401D02*
X112991597Y-98971401D01*
X114855000Y-100705000D02*
X114855000Y-100055000D01*
X114855000Y-100055000D02*
X113771401Y-98971401D01*
X112991597Y-98971401D02*
X112445798Y-99517200D01*
%TO.N,/SDMMC_D0*%
X119255000Y-100124800D02*
X119255000Y-100705000D01*
X113087316Y-96030884D02*
X118281284Y-96030884D01*
X119862600Y-99517200D02*
X119255000Y-100124800D01*
X112051047Y-94994615D02*
X113087316Y-96030884D01*
X119862600Y-97612200D02*
X119862600Y-99517200D01*
X118281284Y-96030884D02*
X119862600Y-97612200D01*
X112051047Y-90843288D02*
X112051047Y-94994615D01*
%TO.N,/SDMMC_D1*%
X118460100Y-95574700D02*
X120355000Y-97469600D01*
X112984700Y-95574700D02*
X118460100Y-95574700D01*
X112375905Y-91503105D02*
X112375905Y-94965905D01*
X112375905Y-94965905D02*
X112984700Y-95574700D01*
X120355000Y-97469600D02*
X120355000Y-100705000D01*
X112604504Y-91274506D02*
X112375905Y-91503105D01*
%TO.N,/D1*%
X115425013Y-90568441D02*
X115425013Y-90601445D01*
X115723547Y-90899979D02*
X122379979Y-90899979D01*
X123482977Y-92002977D02*
X123482977Y-93416875D01*
X111166398Y-89362830D02*
X111663557Y-89859989D01*
X115425013Y-90601445D02*
X115723547Y-90899979D01*
X114716561Y-89859989D02*
X115425013Y-90568441D01*
X111166398Y-89077302D02*
X111166398Y-89362830D01*
X111663557Y-89859989D02*
X114716561Y-89859989D01*
X122379979Y-90899979D02*
X123482977Y-92002977D01*
X123690000Y-99150000D02*
X124920000Y-100380000D01*
X111616316Y-88627384D02*
X111166398Y-89077302D01*
X123482977Y-93416875D02*
X123690000Y-93623898D01*
X123690000Y-93623898D02*
X123690000Y-99150000D01*
%TO.N,/BOOT0*%
X122319121Y-70869121D02*
X122319121Y-71500000D01*
X121300000Y-69850000D02*
X122319121Y-70869121D01*
X122287479Y-71512500D02*
X122299979Y-71500000D01*
X122299979Y-71500000D02*
X122319121Y-71500000D01*
X120587500Y-69850000D02*
X121300000Y-69850000D01*
%TO.N,/JTCK/SWCLK*%
X117780000Y-86320000D02*
X115640000Y-86320000D01*
X115640000Y-86320000D02*
X114750000Y-87210000D01*
X119828599Y-84271401D02*
X117780000Y-86320000D01*
X121571401Y-84271401D02*
X119828599Y-84271401D01*
X121800000Y-84500000D02*
X121571401Y-84271401D01*
%TO.N,/D16*%
X124700000Y-62280000D02*
X124920000Y-62280000D01*
X124920000Y-62280000D02*
X124767600Y-62280000D01*
%TO.N,/D10*%
X123588589Y-80657149D02*
X123817188Y-80885748D01*
X120052453Y-82020000D02*
X117323990Y-84748463D01*
X123817188Y-80885748D02*
X123817188Y-81230144D01*
X123817188Y-81230144D02*
X123027332Y-82020000D01*
X123027332Y-82020000D02*
X120052453Y-82020000D01*
%TO.N,/D9*%
X119790002Y-81750000D02*
X117195141Y-84344861D01*
X117195141Y-84344861D02*
X116859030Y-84344861D01*
X116766903Y-84436988D02*
X116766903Y-84760277D01*
X122600000Y-81750000D02*
X119790002Y-81750000D01*
X116859030Y-84344861D02*
X116766903Y-84436988D01*
X123200000Y-81150000D02*
X122600000Y-81750000D01*
%TO.N,/D8*%
X124920000Y-82600000D02*
X124870000Y-82650000D01*
X120380000Y-82340000D02*
X124660000Y-82340000D01*
X124660000Y-82340000D02*
X124920000Y-82600000D01*
X117470000Y-85250000D02*
X120380000Y-82340000D01*
X115170000Y-85250000D02*
X117470000Y-85250000D01*
X114770000Y-84850000D02*
X115170000Y-85250000D01*
%TO.N,/D7*%
X124920000Y-84470000D02*
X124920000Y-85140000D01*
X123100000Y-82650000D02*
X124920000Y-84470000D01*
X120520000Y-82650000D02*
X123100000Y-82650000D01*
X117510000Y-85660000D02*
X120520000Y-82650000D01*
X114980000Y-85660000D02*
X117510000Y-85660000D01*
X114160000Y-84840000D02*
X114980000Y-85660000D01*
%TO.N,/D6*%
X124920000Y-87016998D02*
X124920000Y-87680000D01*
X123631501Y-83831501D02*
X123631501Y-85728499D01*
X122750000Y-82950000D02*
X123631501Y-83831501D01*
X114944931Y-85935069D02*
X117675069Y-85935069D01*
X114633860Y-85940000D02*
X114940000Y-85940000D01*
X113559566Y-84865706D02*
X114633860Y-85940000D01*
X117675069Y-85935069D02*
X120660138Y-82950000D01*
X123631501Y-85728499D02*
X124920000Y-87016998D01*
X120660138Y-82950000D02*
X122750000Y-82950000D01*
X114940000Y-85940000D02*
X114944931Y-85935069D01*
%TO.N,/D5*%
X124920000Y-90220000D02*
X124800000Y-90100000D01*
X123141999Y-88441999D02*
X124920000Y-90220000D01*
X113941999Y-88441999D02*
X123141999Y-88441999D01*
X112800000Y-87300000D02*
X113941999Y-88441999D01*
D27*
%TO.N,/D4*%
X120589941Y-90074458D02*
X116827154Y-90074458D01*
X116827154Y-90074458D02*
X115670141Y-88917445D01*
X115670141Y-88917445D02*
X113748058Y-88917445D01*
X113748058Y-88917445D02*
X112791388Y-87960775D01*
D23*
X124920000Y-92760000D02*
X124920000Y-92520000D01*
D27*
X124920000Y-92010000D02*
X124920000Y-92760000D01*
X122984458Y-90074458D02*
X124920000Y-92010000D01*
X120589941Y-90074458D02*
X122984458Y-90074458D01*
%TO.N,/D3*%
X113292746Y-89144456D02*
X112788509Y-88640219D01*
X115504456Y-89144456D02*
X113292746Y-89144456D01*
X116687010Y-90327010D02*
X115504456Y-89144456D01*
X122212990Y-90327010D02*
X116687010Y-90327010D01*
D23*
X122212990Y-90327010D02*
X122737714Y-90327010D01*
X122737714Y-90327010D02*
X123982999Y-91572295D01*
X123982999Y-91572295D02*
X123982999Y-93162295D01*
X123982999Y-93162295D02*
X124920000Y-94099296D01*
X124920000Y-94099296D02*
X124920000Y-95300000D01*
%TO.N,/D2*%
X115675024Y-90497888D02*
X115827104Y-90649968D01*
X111999978Y-89609978D02*
X114820118Y-89609978D01*
X123982999Y-93563329D02*
X123982999Y-96902999D01*
X122599968Y-90649968D02*
X123732988Y-91782988D01*
X115675024Y-90464884D02*
X115675024Y-90497888D01*
X115827104Y-90649968D02*
X122599968Y-90649968D01*
X123982999Y-96902999D02*
X124920000Y-97840000D01*
X123732988Y-91782988D02*
X123732988Y-93313318D01*
X114820118Y-89609978D02*
X115675024Y-90464884D01*
X123732988Y-93313318D02*
X123982999Y-93563329D01*
X111610000Y-89220000D02*
X111999978Y-89609978D01*
%TO.N,/A1*%
X111833538Y-75060250D02*
X111833538Y-76196415D01*
X108520000Y-68320000D02*
X109480000Y-69280000D01*
X107140000Y-62280000D02*
X108520000Y-63660000D01*
X109480000Y-72706712D02*
X111833538Y-75060250D01*
X109480000Y-69280000D02*
X109480000Y-72706712D01*
X108520000Y-63660000D02*
X108520000Y-68320000D01*
%TO.N,/A2*%
X109179989Y-69404267D02*
X109179989Y-72990978D01*
X108219989Y-68444268D02*
X109179989Y-69404267D01*
X108219989Y-65899989D02*
X108219989Y-68444268D01*
X107140000Y-64820000D02*
X108219989Y-65899989D01*
X109179989Y-72990978D02*
X111429928Y-75240917D01*
X111429928Y-75240917D02*
X111429928Y-75564206D01*
%TO.N,/A3*%
X107140000Y-68437630D02*
X108879978Y-70177608D01*
X107140000Y-67360000D02*
X107140000Y-68437630D01*
X108879978Y-70177608D02*
X108879978Y-73379978D01*
X108879978Y-73379978D02*
X110449998Y-74949998D01*
%TO.N,/A4*%
X107140000Y-69900000D02*
X108570000Y-71330000D01*
X108570000Y-71330000D02*
X108570000Y-73740792D01*
X108570000Y-73740792D02*
X109614604Y-74785396D01*
%TO.N,/A13*%
X110070000Y-78970000D02*
X111570000Y-78970000D01*
X108700000Y-80340000D02*
X110070000Y-78970000D01*
X108700000Y-91200000D02*
X108700000Y-80340000D01*
X107140000Y-92760000D02*
X108700000Y-91200000D01*
%TO.N,/A14*%
X109900773Y-79739227D02*
X111557420Y-79739227D01*
X109000000Y-80640000D02*
X109900773Y-79739227D01*
X109000000Y-92362370D02*
X109000000Y-80640000D01*
X107140000Y-94222370D02*
X109000000Y-92362370D01*
X107140000Y-95300000D02*
X107140000Y-94222370D01*
%TO.N,/A15*%
X108250000Y-96730000D02*
X107140000Y-97840000D01*
X108250000Y-93656432D02*
X108250000Y-96730000D01*
X109300000Y-81500000D02*
X109300000Y-92606432D01*
X110000000Y-80800000D02*
X109300000Y-81500000D01*
X109300000Y-92606432D02*
X108250000Y-93656432D01*
X111823870Y-80800000D02*
X110000000Y-80800000D01*
%TO.N,/A16*%
X108750000Y-98770000D02*
X107140000Y-100380000D01*
X108750000Y-93510000D02*
X108750000Y-98770000D01*
X109600000Y-92660000D02*
X108750000Y-93510000D01*
X109600000Y-81800000D02*
X109600000Y-92660000D01*
X110169423Y-81230577D02*
X109600000Y-81800000D01*
X111470209Y-81230577D02*
X110169423Y-81230577D01*
%TO.N,/JTDO/SWO*%
X120416711Y-80820000D02*
X120740000Y-80820000D01*
X116783568Y-80820000D02*
X120416711Y-80820000D01*
X112396399Y-85207169D02*
X116783568Y-80820000D01*
X112396399Y-87496399D02*
X112396399Y-85207169D01*
D27*
X112396399Y-87496399D02*
X112396399Y-88841959D01*
X115145109Y-89371467D02*
X116020000Y-90246358D01*
X112396399Y-88841959D02*
X112925907Y-89371467D01*
X112925907Y-89371467D02*
X115145109Y-89371467D01*
D23*
%TO.N,/~RST*%
X121646272Y-85224506D02*
X120441076Y-85224506D01*
X120441076Y-85224506D02*
X120003859Y-84787289D01*
%TO.N,/SDMMC_CLK*%
X117055000Y-100705000D02*
X117055000Y-99884604D01*
X117055000Y-99884604D02*
X117043200Y-99872804D01*
D24*
%TO.N,/VIN*%
X115020000Y-66770000D02*
X115020000Y-67080002D01*
X111405000Y-66507500D02*
X111400000Y-66512500D01*
X113370000Y-66507500D02*
X111405000Y-66507500D01*
X116920000Y-67380000D02*
X116920000Y-66770000D01*
X116630000Y-67670000D02*
X116920000Y-67380000D01*
X116605002Y-67670000D02*
X116630000Y-67670000D01*
X116575001Y-67700001D02*
X116605002Y-67670000D01*
X115020000Y-67305002D02*
X115294999Y-67580001D01*
X115364999Y-67700001D02*
X116575001Y-67700001D01*
X115294999Y-67630001D02*
X115364999Y-67700001D01*
X115294999Y-67580001D02*
X115294999Y-67630001D01*
X115020000Y-66770000D02*
X115020000Y-67305002D01*
X115010000Y-66780000D02*
X115020000Y-66770000D01*
X113627500Y-66780000D02*
X115010000Y-66780000D01*
X113370000Y-66522500D02*
X113627500Y-66780000D01*
%TO.N,VDDA*%
X113962500Y-73250000D02*
X113962500Y-74850000D01*
X113962500Y-76550000D02*
X113762500Y-76750000D01*
X113962500Y-74850000D02*
X113962500Y-76550000D01*
D25*
X113999990Y-72599990D02*
X113999990Y-73674990D01*
D24*
X113962500Y-73246300D02*
X112903000Y-72186800D01*
X113962500Y-73250000D02*
X113962500Y-73246300D01*
D28*
%TO.N,/VBUS*%
X111400000Y-64637500D02*
X111430000Y-64607500D01*
X111200000Y-64637500D02*
X111200000Y-62900000D01*
X111200000Y-62900000D02*
X110899999Y-62600001D01*
X110899999Y-62600001D02*
X110600000Y-62300002D01*
X109599998Y-61300000D02*
X110600000Y-62300002D01*
X108700000Y-61300000D02*
X109599998Y-61300000D01*
X107140000Y-59740000D02*
X108700000Y-61300000D01*
X111200000Y-64637500D02*
X112364427Y-63473073D01*
X112364427Y-63473073D02*
X117373073Y-63473073D01*
X117373073Y-63473073D02*
X117601672Y-63701672D01*
D23*
%TO.N,/SDMMC_DET*%
X112889606Y-83986826D02*
X112889606Y-83599602D01*
X110616376Y-88540056D02*
X111799989Y-87356443D01*
X111799989Y-85076443D02*
X112889606Y-83986826D01*
X111799989Y-87356443D02*
X111799989Y-85076443D01*
X111290000Y-90340000D02*
X110616376Y-89666376D01*
X111801036Y-91621036D02*
X111290000Y-91110000D01*
X111290000Y-91110000D02*
X111290000Y-90340000D01*
X111801036Y-97638964D02*
X111801036Y-91621036D01*
X111415000Y-98025000D02*
X111801036Y-97638964D01*
X110616376Y-89666376D02*
X110616376Y-88540056D01*
X110905000Y-98025000D02*
X111415000Y-98025000D01*
X113538000Y-82677000D02*
X113538000Y-82804000D01*
X116459000Y-79756000D02*
X113538000Y-82677000D01*
%TO.N,/RESET#*%
X120850000Y-94014264D02*
X120289254Y-94575010D01*
X120850000Y-91700000D02*
X120850000Y-94014264D01*
X120289254Y-94575010D02*
X118800000Y-94575010D01*
%TO.N,/LED*%
X114613004Y-90110000D02*
X115175002Y-90671998D01*
X113300000Y-83385471D02*
X113300000Y-83930000D01*
X113300000Y-83930000D02*
X112120000Y-85110000D01*
X115552994Y-91149990D02*
X122079990Y-91149990D01*
X112120000Y-85110000D02*
X112120000Y-87410000D01*
X111490000Y-90110000D02*
X114613004Y-90110000D01*
X111695620Y-82104380D02*
X112018909Y-82104380D01*
X123374118Y-93661584D02*
X123374118Y-99178346D01*
X110866387Y-89486387D02*
X111490000Y-90110000D01*
X112120000Y-87410000D02*
X110866387Y-88663613D01*
X123232966Y-93520432D02*
X123374118Y-93661584D01*
X123374118Y-99178346D02*
X123242673Y-99309791D01*
X110866387Y-88663613D02*
X110866387Y-89486387D01*
X123232966Y-92302966D02*
X123232966Y-93520432D01*
X112018909Y-82104380D02*
X113300000Y-83385471D01*
X122079990Y-91149990D02*
X123232966Y-92302966D01*
X115175002Y-90771998D02*
X115552994Y-91149990D01*
X115175002Y-90671998D02*
X115175002Y-90771998D01*
%TO.N,/MCO*%
X122377200Y-63068200D02*
X122377200Y-59740800D01*
X123571000Y-79121000D02*
X123571000Y-64262000D01*
X119507000Y-81280000D02*
X121412000Y-81280000D01*
X117602000Y-83185000D02*
X119507000Y-81280000D01*
X121412000Y-81280000D02*
X123571000Y-79121000D01*
X123571000Y-64262000D02*
X122377200Y-63068200D01*
X117221000Y-83185000D02*
X117602000Y-83185000D01*
X116078000Y-84328000D02*
X117221000Y-83185000D01*
%TD*%
D29*
%TO.N,VDD*%
X120673000Y-64652606D02*
X120673000Y-65873000D01*
X120452606Y-65873000D01*
X119689803Y-65110197D01*
X119670557Y-65094403D01*
X119648601Y-65082667D01*
X119624776Y-65075440D01*
X119600000Y-65073000D01*
X116507992Y-65073000D01*
X116447000Y-65002624D01*
X116447000Y-64277000D01*
X120297394Y-64277000D01*
X120673000Y-64652606D01*
%TA.AperFunction,Conductor*%
D30*
G36*
X120673000Y-64652606D02*
G01*
X120673000Y-65873000D01*
X120452606Y-65873000D01*
X119689803Y-65110197D01*
X119670557Y-65094403D01*
X119648601Y-65082667D01*
X119624776Y-65075440D01*
X119600000Y-65073000D01*
X116507992Y-65073000D01*
X116447000Y-65002624D01*
X116447000Y-64277000D01*
X120297394Y-64277000D01*
X120673000Y-64652606D01*
G37*
%TD.AperFunction*%
%TD*%
D29*
%TO.N,GND*%
X111162569Y-81605437D02*
X111241612Y-81658251D01*
X111329440Y-81694631D01*
X111414788Y-81711608D01*
X111387980Y-81729520D01*
X111320760Y-81796740D01*
X111267946Y-81875783D01*
X111231566Y-81963611D01*
X111213020Y-82056848D01*
X111213020Y-82151912D01*
X111231566Y-82245149D01*
X111267946Y-82332977D01*
X111320760Y-82412020D01*
X111387980Y-82479240D01*
X111467023Y-82532054D01*
X111554851Y-82568434D01*
X111648088Y-82586980D01*
X111743152Y-82586980D01*
X111836389Y-82568434D01*
X111924217Y-82532054D01*
X111958441Y-82509187D01*
X112249979Y-82800725D01*
X112206250Y-82796418D01*
X111768750Y-82796418D01*
X111661971Y-82806935D01*
X111559295Y-82838081D01*
X111464669Y-82888660D01*
X111446423Y-82903634D01*
X111439502Y-82880820D01*
X111380537Y-82770506D01*
X111301185Y-82673815D01*
X111204494Y-82594463D01*
X111094180Y-82535498D01*
X110974482Y-82499188D01*
X110850000Y-82486928D01*
X110698250Y-82490000D01*
X110539500Y-82648750D01*
X110539500Y-83473000D01*
X110559500Y-83473000D01*
X110559500Y-83727000D01*
X110539500Y-83727000D01*
X110539500Y-84551250D01*
X110698250Y-84710000D01*
X110850000Y-84713072D01*
X110974482Y-84700812D01*
X111094180Y-84664502D01*
X111204494Y-84605537D01*
X111301185Y-84526185D01*
X111315614Y-84508603D01*
X111344869Y-84508603D01*
X111452209Y-84487251D01*
X111553322Y-84445369D01*
X111610714Y-84407021D01*
X111631202Y-84405003D01*
X111697604Y-84398463D01*
X111702303Y-84397037D01*
X111768750Y-84403582D01*
X112007575Y-84403582D01*
X111578775Y-84832382D01*
X111566227Y-84842680D01*
X111555929Y-84855228D01*
X111525113Y-84892777D01*
X111494563Y-84949932D01*
X111482184Y-84990743D01*
X111478378Y-85003290D01*
X111475751Y-85011949D01*
X111469399Y-85076443D01*
X111470990Y-85092597D01*
X111470989Y-87220166D01*
X110395161Y-88295995D01*
X110382614Y-88306293D01*
X110372316Y-88318841D01*
X110341500Y-88356390D01*
X110310950Y-88413545D01*
X110297845Y-88456749D01*
X110292138Y-88475561D01*
X110287945Y-88518130D01*
X110285786Y-88540056D01*
X110287377Y-88556210D01*
X110287376Y-89650232D01*
X110285786Y-89666376D01*
X110287376Y-89682520D01*
X110287376Y-89682529D01*
X110292137Y-89730870D01*
X110310950Y-89792887D01*
X110341500Y-89850042D01*
X110382613Y-89900139D01*
X110395166Y-89910441D01*
X110961001Y-90476277D01*
X110961000Y-91093856D01*
X110959410Y-91110000D01*
X110961000Y-91126144D01*
X110961000Y-91126153D01*
X110965761Y-91174494D01*
X110984574Y-91236511D01*
X111015124Y-91293666D01*
X111056237Y-91343763D01*
X111068790Y-91354065D01*
X111472037Y-91757313D01*
X111472037Y-92913530D01*
X111405000Y-92906928D01*
X111165750Y-92910000D01*
X111007000Y-93068750D01*
X111007000Y-94018000D01*
X111027000Y-94018000D01*
X111027000Y-94272000D01*
X111007000Y-94272000D01*
X111007000Y-95221250D01*
X111165750Y-95380000D01*
X111405000Y-95383072D01*
X111472036Y-95376470D01*
X111472036Y-95583530D01*
X111405000Y-95576928D01*
X111165750Y-95580000D01*
X111007000Y-95738750D01*
X111007000Y-96628000D01*
X111027000Y-96628000D01*
X111027000Y-96882000D01*
X111007000Y-96882000D01*
X111007000Y-96902000D01*
X110753000Y-96902000D01*
X110753000Y-96882000D01*
X109878750Y-96882000D01*
X109720000Y-97040750D01*
X109716928Y-97295000D01*
X109729188Y-97419482D01*
X109765498Y-97539180D01*
X109824463Y-97649494D01*
X109903815Y-97746185D01*
X110000506Y-97825537D01*
X110110820Y-97884502D01*
X110230518Y-97920812D01*
X110289772Y-97926648D01*
X110289772Y-98415000D01*
X110294676Y-98464793D01*
X110309200Y-98512672D01*
X110332786Y-98556797D01*
X110364527Y-98595473D01*
X110403203Y-98627214D01*
X110447328Y-98650800D01*
X110495207Y-98665324D01*
X110545000Y-98670228D01*
X111265000Y-98670228D01*
X111314793Y-98665324D01*
X111362672Y-98650800D01*
X111406797Y-98627214D01*
X111445473Y-98595473D01*
X111477214Y-98556797D01*
X111500800Y-98512672D01*
X111515324Y-98464793D01*
X111520228Y-98415000D01*
X111520228Y-98336883D01*
X111541512Y-98330426D01*
X111598667Y-98299876D01*
X111648763Y-98258763D01*
X111659065Y-98246210D01*
X112022252Y-97883024D01*
X112034799Y-97872727D01*
X112075912Y-97822631D01*
X112106462Y-97765476D01*
X112125275Y-97703459D01*
X112130036Y-97655118D01*
X112130036Y-97655109D01*
X112131626Y-97638965D01*
X112130036Y-97622821D01*
X112130036Y-95538879D01*
X112843255Y-96252099D01*
X112853553Y-96264647D01*
X112903649Y-96305760D01*
X112960804Y-96336310D01*
X113022821Y-96355123D01*
X113087316Y-96361475D01*
X113103470Y-96359884D01*
X118145009Y-96359884D01*
X119533600Y-97748477D01*
X119533601Y-99380923D01*
X119033790Y-99880735D01*
X119021237Y-99891037D01*
X118982044Y-99938795D01*
X118942320Y-99860874D01*
X118864860Y-99762660D01*
X118769728Y-99681445D01*
X118660579Y-99620350D01*
X118541609Y-99581723D01*
X118436750Y-99570000D01*
X118278000Y-99728750D01*
X118278000Y-100578000D01*
X118302000Y-100578000D01*
X118302000Y-100832000D01*
X118278000Y-100832000D01*
X118278000Y-100852000D01*
X118032000Y-100852000D01*
X118032000Y-100832000D01*
X118008000Y-100832000D01*
X118008000Y-100578000D01*
X118032000Y-100578000D01*
X118032000Y-99728750D01*
X117873250Y-99570000D01*
X117768391Y-99581723D01*
X117649421Y-99620350D01*
X117540272Y-99681445D01*
X117500399Y-99715485D01*
X117470874Y-99644207D01*
X117418060Y-99565164D01*
X117350840Y-99497944D01*
X117271797Y-99445130D01*
X117183969Y-99408750D01*
X117090732Y-99390204D01*
X116995668Y-99390204D01*
X116902431Y-99408750D01*
X116814603Y-99445130D01*
X116735560Y-99497944D01*
X116668340Y-99565164D01*
X116615526Y-99644207D01*
X116579146Y-99732035D01*
X116560600Y-99825272D01*
X116560600Y-99920336D01*
X116579146Y-100013573D01*
X116597383Y-100057601D01*
X116592786Y-100063203D01*
X116569200Y-100107328D01*
X116554676Y-100155207D01*
X116549772Y-100205000D01*
X116549772Y-101205000D01*
X116554676Y-101254793D01*
X116569200Y-101302672D01*
X116592360Y-101346000D01*
X116500415Y-101346000D01*
X116508570Y-101330743D01*
X116527268Y-101269103D01*
X116533582Y-101205000D01*
X116533582Y-100205000D01*
X116527268Y-100140897D01*
X116508570Y-100079257D01*
X116499380Y-100062065D01*
X116510648Y-100034862D01*
X116532000Y-99927522D01*
X116532000Y-99818078D01*
X116510648Y-99710738D01*
X116468766Y-99609625D01*
X116407962Y-99518626D01*
X116330574Y-99441238D01*
X116239575Y-99380434D01*
X116138462Y-99338552D01*
X116031122Y-99317200D01*
X115921678Y-99317200D01*
X115814338Y-99338552D01*
X115713225Y-99380434D01*
X115622226Y-99441238D01*
X115544838Y-99518626D01*
X115484034Y-99609625D01*
X115442152Y-99710738D01*
X115420800Y-99818078D01*
X115420800Y-99927522D01*
X115438144Y-100014712D01*
X115431794Y-100022450D01*
X115401430Y-100079257D01*
X115382732Y-100140897D01*
X115376418Y-100205000D01*
X115376418Y-101205000D01*
X115382732Y-101269103D01*
X115401430Y-101330743D01*
X115409585Y-101346000D01*
X115317640Y-101346000D01*
X115340800Y-101302672D01*
X115355324Y-101254793D01*
X115360228Y-101205000D01*
X115360228Y-100205000D01*
X115355324Y-100155207D01*
X115340800Y-100107328D01*
X115317214Y-100063203D01*
X115285473Y-100024527D01*
X115246797Y-99992786D01*
X115202672Y-99969200D01*
X115169746Y-99959212D01*
X115160426Y-99928488D01*
X115145963Y-99901430D01*
X115129876Y-99871332D01*
X115099060Y-99833784D01*
X115088763Y-99821237D01*
X115076215Y-99810939D01*
X114015466Y-98750191D01*
X114005164Y-98737638D01*
X113955068Y-98696525D01*
X113897913Y-98665975D01*
X113835896Y-98647162D01*
X113787555Y-98642401D01*
X113787545Y-98642401D01*
X113771401Y-98640811D01*
X113755257Y-98642401D01*
X113007740Y-98642401D01*
X112991596Y-98640811D01*
X112975452Y-98642401D01*
X112975443Y-98642401D01*
X112927102Y-98647162D01*
X112865085Y-98665975D01*
X112807930Y-98696525D01*
X112757834Y-98737638D01*
X112747536Y-98750186D01*
X112463123Y-99034600D01*
X112398266Y-99034600D01*
X112305029Y-99053146D01*
X112217201Y-99089526D01*
X112138158Y-99142340D01*
X112070938Y-99209560D01*
X112018124Y-99288603D01*
X111981744Y-99376431D01*
X111963198Y-99469668D01*
X111963198Y-99564732D01*
X111981744Y-99657969D01*
X112018124Y-99745797D01*
X112070938Y-99824840D01*
X112138158Y-99892060D01*
X112217201Y-99944874D01*
X112293619Y-99976528D01*
X112263203Y-99992786D01*
X112224527Y-100024527D01*
X112192786Y-100063203D01*
X112169200Y-100107328D01*
X112158355Y-100143079D01*
X111828077Y-99812802D01*
X111828077Y-99640912D01*
X111873937Y-99595052D01*
X111926751Y-99516009D01*
X111963131Y-99428181D01*
X111981677Y-99334944D01*
X111981677Y-99239880D01*
X111963131Y-99146643D01*
X111926751Y-99058815D01*
X111873937Y-98979772D01*
X111806717Y-98912552D01*
X111727674Y-98859738D01*
X111639846Y-98823358D01*
X111546609Y-98804812D01*
X111451545Y-98804812D01*
X111358308Y-98823358D01*
X111270480Y-98859738D01*
X111191437Y-98912552D01*
X111124217Y-98979772D01*
X111071403Y-99058815D01*
X111035023Y-99146643D01*
X111016477Y-99239880D01*
X111016477Y-99334944D01*
X111035023Y-99428181D01*
X111071403Y-99516009D01*
X111124217Y-99595052D01*
X111170077Y-99640912D01*
X111170077Y-99932933D01*
X111168487Y-99949077D01*
X111170077Y-99965221D01*
X111170077Y-99965230D01*
X111174838Y-100013571D01*
X111193651Y-100075588D01*
X111224201Y-100132743D01*
X111265314Y-100182840D01*
X111277867Y-100193142D01*
X112010944Y-100926221D01*
X112021237Y-100938763D01*
X112033779Y-100949056D01*
X112033784Y-100949061D01*
X112043864Y-100957333D01*
X112071333Y-100979876D01*
X112128488Y-101010426D01*
X112149772Y-101016883D01*
X112149772Y-101205000D01*
X112154676Y-101254793D01*
X112169200Y-101302672D01*
X112192360Y-101346000D01*
X107462806Y-101346000D01*
X107621256Y-101280368D01*
X107787662Y-101169179D01*
X107929179Y-101027662D01*
X108040368Y-100861256D01*
X108116956Y-100676356D01*
X108156000Y-100480067D01*
X108156000Y-100279933D01*
X108116956Y-100083644D01*
X108053889Y-99931386D01*
X108971215Y-99014061D01*
X108983763Y-99003763D01*
X109024876Y-98953667D01*
X109055426Y-98896512D01*
X109074239Y-98834495D01*
X109079000Y-98786154D01*
X109079000Y-98786144D01*
X109080590Y-98770000D01*
X109079000Y-98753856D01*
X109079000Y-96215000D01*
X109716928Y-96215000D01*
X109720000Y-96469250D01*
X109878750Y-96628000D01*
X110753000Y-96628000D01*
X110753000Y-95738750D01*
X110594250Y-95580000D01*
X110355000Y-95576928D01*
X110230518Y-95589188D01*
X110110820Y-95625498D01*
X110000506Y-95684463D01*
X109903815Y-95763815D01*
X109824463Y-95860506D01*
X109765498Y-95970820D01*
X109729188Y-96090518D01*
X109716928Y-96215000D01*
X109079000Y-96215000D01*
X109079000Y-94745000D01*
X109716928Y-94745000D01*
X109729188Y-94869482D01*
X109765498Y-94989180D01*
X109824463Y-95099494D01*
X109903815Y-95196185D01*
X110000506Y-95275537D01*
X110110820Y-95334502D01*
X110230518Y-95370812D01*
X110355000Y-95383072D01*
X110594250Y-95380000D01*
X110753000Y-95221250D01*
X110753000Y-94272000D01*
X109878750Y-94272000D01*
X109720000Y-94430750D01*
X109716928Y-94745000D01*
X109079000Y-94745000D01*
X109079000Y-93646275D01*
X109180275Y-93545000D01*
X109716928Y-93545000D01*
X109720000Y-93859250D01*
X109878750Y-94018000D01*
X110753000Y-94018000D01*
X110753000Y-93068750D01*
X110594250Y-92910000D01*
X110355000Y-92906928D01*
X110230518Y-92919188D01*
X110110820Y-92955498D01*
X110000506Y-93014463D01*
X109903815Y-93093815D01*
X109824463Y-93190506D01*
X109765498Y-93300820D01*
X109729188Y-93420518D01*
X109716928Y-93545000D01*
X109180275Y-93545000D01*
X109821221Y-92904056D01*
X109833763Y-92893763D01*
X109844056Y-92881221D01*
X109844061Y-92881216D01*
X109874876Y-92843667D01*
X109884220Y-92826185D01*
X109905426Y-92786512D01*
X109924239Y-92724495D01*
X109929000Y-92676154D01*
X109930591Y-92660000D01*
X109929000Y-92643846D01*
X109929000Y-84708542D01*
X109975000Y-84713072D01*
X110126750Y-84710000D01*
X110285500Y-84551250D01*
X110285500Y-83727000D01*
X110265500Y-83727000D01*
X110265500Y-83473000D01*
X110285500Y-83473000D01*
X110285500Y-82648750D01*
X110126750Y-82490000D01*
X109975000Y-82486928D01*
X109929000Y-82491458D01*
X109929000Y-81936275D01*
X110305699Y-81559577D01*
X111116709Y-81559577D01*
X111162569Y-81605437D01*
%TA.AperFunction,Conductor*%
D30*
G36*
X111162569Y-81605437D02*
G01*
X111241612Y-81658251D01*
X111329440Y-81694631D01*
X111414788Y-81711608D01*
X111387980Y-81729520D01*
X111320760Y-81796740D01*
X111267946Y-81875783D01*
X111231566Y-81963611D01*
X111213020Y-82056848D01*
X111213020Y-82151912D01*
X111231566Y-82245149D01*
X111267946Y-82332977D01*
X111320760Y-82412020D01*
X111387980Y-82479240D01*
X111467023Y-82532054D01*
X111554851Y-82568434D01*
X111648088Y-82586980D01*
X111743152Y-82586980D01*
X111836389Y-82568434D01*
X111924217Y-82532054D01*
X111958441Y-82509187D01*
X112249979Y-82800725D01*
X112206250Y-82796418D01*
X111768750Y-82796418D01*
X111661971Y-82806935D01*
X111559295Y-82838081D01*
X111464669Y-82888660D01*
X111446423Y-82903634D01*
X111439502Y-82880820D01*
X111380537Y-82770506D01*
X111301185Y-82673815D01*
X111204494Y-82594463D01*
X111094180Y-82535498D01*
X110974482Y-82499188D01*
X110850000Y-82486928D01*
X110698250Y-82490000D01*
X110539500Y-82648750D01*
X110539500Y-83473000D01*
X110559500Y-83473000D01*
X110559500Y-83727000D01*
X110539500Y-83727000D01*
X110539500Y-84551250D01*
X110698250Y-84710000D01*
X110850000Y-84713072D01*
X110974482Y-84700812D01*
X111094180Y-84664502D01*
X111204494Y-84605537D01*
X111301185Y-84526185D01*
X111315614Y-84508603D01*
X111344869Y-84508603D01*
X111452209Y-84487251D01*
X111553322Y-84445369D01*
X111610714Y-84407021D01*
X111631202Y-84405003D01*
X111697604Y-84398463D01*
X111702303Y-84397037D01*
X111768750Y-84403582D01*
X112007575Y-84403582D01*
X111578775Y-84832382D01*
X111566227Y-84842680D01*
X111555929Y-84855228D01*
X111525113Y-84892777D01*
X111494563Y-84949932D01*
X111482184Y-84990743D01*
X111478378Y-85003290D01*
X111475751Y-85011949D01*
X111469399Y-85076443D01*
X111470990Y-85092597D01*
X111470989Y-87220166D01*
X110395161Y-88295995D01*
X110382614Y-88306293D01*
X110372316Y-88318841D01*
X110341500Y-88356390D01*
X110310950Y-88413545D01*
X110297845Y-88456749D01*
X110292138Y-88475561D01*
X110287945Y-88518130D01*
X110285786Y-88540056D01*
X110287377Y-88556210D01*
X110287376Y-89650232D01*
X110285786Y-89666376D01*
X110287376Y-89682520D01*
X110287376Y-89682529D01*
X110292137Y-89730870D01*
X110310950Y-89792887D01*
X110341500Y-89850042D01*
X110382613Y-89900139D01*
X110395166Y-89910441D01*
X110961001Y-90476277D01*
X110961000Y-91093856D01*
X110959410Y-91110000D01*
X110961000Y-91126144D01*
X110961000Y-91126153D01*
X110965761Y-91174494D01*
X110984574Y-91236511D01*
X111015124Y-91293666D01*
X111056237Y-91343763D01*
X111068790Y-91354065D01*
X111472037Y-91757313D01*
X111472037Y-92913530D01*
X111405000Y-92906928D01*
X111165750Y-92910000D01*
X111007000Y-93068750D01*
X111007000Y-94018000D01*
X111027000Y-94018000D01*
X111027000Y-94272000D01*
X111007000Y-94272000D01*
X111007000Y-95221250D01*
X111165750Y-95380000D01*
X111405000Y-95383072D01*
X111472036Y-95376470D01*
X111472036Y-95583530D01*
X111405000Y-95576928D01*
X111165750Y-95580000D01*
X111007000Y-95738750D01*
X111007000Y-96628000D01*
X111027000Y-96628000D01*
X111027000Y-96882000D01*
X111007000Y-96882000D01*
X111007000Y-96902000D01*
X110753000Y-96902000D01*
X110753000Y-96882000D01*
X109878750Y-96882000D01*
X109720000Y-97040750D01*
X109716928Y-97295000D01*
X109729188Y-97419482D01*
X109765498Y-97539180D01*
X109824463Y-97649494D01*
X109903815Y-97746185D01*
X110000506Y-97825537D01*
X110110820Y-97884502D01*
X110230518Y-97920812D01*
X110289772Y-97926648D01*
X110289772Y-98415000D01*
X110294676Y-98464793D01*
X110309200Y-98512672D01*
X110332786Y-98556797D01*
X110364527Y-98595473D01*
X110403203Y-98627214D01*
X110447328Y-98650800D01*
X110495207Y-98665324D01*
X110545000Y-98670228D01*
X111265000Y-98670228D01*
X111314793Y-98665324D01*
X111362672Y-98650800D01*
X111406797Y-98627214D01*
X111445473Y-98595473D01*
X111477214Y-98556797D01*
X111500800Y-98512672D01*
X111515324Y-98464793D01*
X111520228Y-98415000D01*
X111520228Y-98336883D01*
X111541512Y-98330426D01*
X111598667Y-98299876D01*
X111648763Y-98258763D01*
X111659065Y-98246210D01*
X112022252Y-97883024D01*
X112034799Y-97872727D01*
X112075912Y-97822631D01*
X112106462Y-97765476D01*
X112125275Y-97703459D01*
X112130036Y-97655118D01*
X112130036Y-97655109D01*
X112131626Y-97638965D01*
X112130036Y-97622821D01*
X112130036Y-95538879D01*
X112843255Y-96252099D01*
X112853553Y-96264647D01*
X112903649Y-96305760D01*
X112960804Y-96336310D01*
X113022821Y-96355123D01*
X113087316Y-96361475D01*
X113103470Y-96359884D01*
X118145009Y-96359884D01*
X119533600Y-97748477D01*
X119533601Y-99380923D01*
X119033790Y-99880735D01*
X119021237Y-99891037D01*
X118982044Y-99938795D01*
X118942320Y-99860874D01*
X118864860Y-99762660D01*
X118769728Y-99681445D01*
X118660579Y-99620350D01*
X118541609Y-99581723D01*
X118436750Y-99570000D01*
X118278000Y-99728750D01*
X118278000Y-100578000D01*
X118302000Y-100578000D01*
X118302000Y-100832000D01*
X118278000Y-100832000D01*
X118278000Y-100852000D01*
X118032000Y-100852000D01*
X118032000Y-100832000D01*
X118008000Y-100832000D01*
X118008000Y-100578000D01*
X118032000Y-100578000D01*
X118032000Y-99728750D01*
X117873250Y-99570000D01*
X117768391Y-99581723D01*
X117649421Y-99620350D01*
X117540272Y-99681445D01*
X117500399Y-99715485D01*
X117470874Y-99644207D01*
X117418060Y-99565164D01*
X117350840Y-99497944D01*
X117271797Y-99445130D01*
X117183969Y-99408750D01*
X117090732Y-99390204D01*
X116995668Y-99390204D01*
X116902431Y-99408750D01*
X116814603Y-99445130D01*
X116735560Y-99497944D01*
X116668340Y-99565164D01*
X116615526Y-99644207D01*
X116579146Y-99732035D01*
X116560600Y-99825272D01*
X116560600Y-99920336D01*
X116579146Y-100013573D01*
X116597383Y-100057601D01*
X116592786Y-100063203D01*
X116569200Y-100107328D01*
X116554676Y-100155207D01*
X116549772Y-100205000D01*
X116549772Y-101205000D01*
X116554676Y-101254793D01*
X116569200Y-101302672D01*
X116592360Y-101346000D01*
X116500415Y-101346000D01*
X116508570Y-101330743D01*
X116527268Y-101269103D01*
X116533582Y-101205000D01*
X116533582Y-100205000D01*
X116527268Y-100140897D01*
X116508570Y-100079257D01*
X116499380Y-100062065D01*
X116510648Y-100034862D01*
X116532000Y-99927522D01*
X116532000Y-99818078D01*
X116510648Y-99710738D01*
X116468766Y-99609625D01*
X116407962Y-99518626D01*
X116330574Y-99441238D01*
X116239575Y-99380434D01*
X116138462Y-99338552D01*
X116031122Y-99317200D01*
X115921678Y-99317200D01*
X115814338Y-99338552D01*
X115713225Y-99380434D01*
X115622226Y-99441238D01*
X115544838Y-99518626D01*
X115484034Y-99609625D01*
X115442152Y-99710738D01*
X115420800Y-99818078D01*
X115420800Y-99927522D01*
X115438144Y-100014712D01*
X115431794Y-100022450D01*
X115401430Y-100079257D01*
X115382732Y-100140897D01*
X115376418Y-100205000D01*
X115376418Y-101205000D01*
X115382732Y-101269103D01*
X115401430Y-101330743D01*
X115409585Y-101346000D01*
X115317640Y-101346000D01*
X115340800Y-101302672D01*
X115355324Y-101254793D01*
X115360228Y-101205000D01*
X115360228Y-100205000D01*
X115355324Y-100155207D01*
X115340800Y-100107328D01*
X115317214Y-100063203D01*
X115285473Y-100024527D01*
X115246797Y-99992786D01*
X115202672Y-99969200D01*
X115169746Y-99959212D01*
X115160426Y-99928488D01*
X115145963Y-99901430D01*
X115129876Y-99871332D01*
X115099060Y-99833784D01*
X115088763Y-99821237D01*
X115076215Y-99810939D01*
X114015466Y-98750191D01*
X114005164Y-98737638D01*
X113955068Y-98696525D01*
X113897913Y-98665975D01*
X113835896Y-98647162D01*
X113787555Y-98642401D01*
X113787545Y-98642401D01*
X113771401Y-98640811D01*
X113755257Y-98642401D01*
X113007740Y-98642401D01*
X112991596Y-98640811D01*
X112975452Y-98642401D01*
X112975443Y-98642401D01*
X112927102Y-98647162D01*
X112865085Y-98665975D01*
X112807930Y-98696525D01*
X112757834Y-98737638D01*
X112747536Y-98750186D01*
X112463123Y-99034600D01*
X112398266Y-99034600D01*
X112305029Y-99053146D01*
X112217201Y-99089526D01*
X112138158Y-99142340D01*
X112070938Y-99209560D01*
X112018124Y-99288603D01*
X111981744Y-99376431D01*
X111963198Y-99469668D01*
X111963198Y-99564732D01*
X111981744Y-99657969D01*
X112018124Y-99745797D01*
X112070938Y-99824840D01*
X112138158Y-99892060D01*
X112217201Y-99944874D01*
X112293619Y-99976528D01*
X112263203Y-99992786D01*
X112224527Y-100024527D01*
X112192786Y-100063203D01*
X112169200Y-100107328D01*
X112158355Y-100143079D01*
X111828077Y-99812802D01*
X111828077Y-99640912D01*
X111873937Y-99595052D01*
X111926751Y-99516009D01*
X111963131Y-99428181D01*
X111981677Y-99334944D01*
X111981677Y-99239880D01*
X111963131Y-99146643D01*
X111926751Y-99058815D01*
X111873937Y-98979772D01*
X111806717Y-98912552D01*
X111727674Y-98859738D01*
X111639846Y-98823358D01*
X111546609Y-98804812D01*
X111451545Y-98804812D01*
X111358308Y-98823358D01*
X111270480Y-98859738D01*
X111191437Y-98912552D01*
X111124217Y-98979772D01*
X111071403Y-99058815D01*
X111035023Y-99146643D01*
X111016477Y-99239880D01*
X111016477Y-99334944D01*
X111035023Y-99428181D01*
X111071403Y-99516009D01*
X111124217Y-99595052D01*
X111170077Y-99640912D01*
X111170077Y-99932933D01*
X111168487Y-99949077D01*
X111170077Y-99965221D01*
X111170077Y-99965230D01*
X111174838Y-100013571D01*
X111193651Y-100075588D01*
X111224201Y-100132743D01*
X111265314Y-100182840D01*
X111277867Y-100193142D01*
X112010944Y-100926221D01*
X112021237Y-100938763D01*
X112033779Y-100949056D01*
X112033784Y-100949061D01*
X112043864Y-100957333D01*
X112071333Y-100979876D01*
X112128488Y-101010426D01*
X112149772Y-101016883D01*
X112149772Y-101205000D01*
X112154676Y-101254793D01*
X112169200Y-101302672D01*
X112192360Y-101346000D01*
X107462806Y-101346000D01*
X107621256Y-101280368D01*
X107787662Y-101169179D01*
X107929179Y-101027662D01*
X108040368Y-100861256D01*
X108116956Y-100676356D01*
X108156000Y-100480067D01*
X108156000Y-100279933D01*
X108116956Y-100083644D01*
X108053889Y-99931386D01*
X108971215Y-99014061D01*
X108983763Y-99003763D01*
X109024876Y-98953667D01*
X109055426Y-98896512D01*
X109074239Y-98834495D01*
X109079000Y-98786154D01*
X109079000Y-98786144D01*
X109080590Y-98770000D01*
X109079000Y-98753856D01*
X109079000Y-96215000D01*
X109716928Y-96215000D01*
X109720000Y-96469250D01*
X109878750Y-96628000D01*
X110753000Y-96628000D01*
X110753000Y-95738750D01*
X110594250Y-95580000D01*
X110355000Y-95576928D01*
X110230518Y-95589188D01*
X110110820Y-95625498D01*
X110000506Y-95684463D01*
X109903815Y-95763815D01*
X109824463Y-95860506D01*
X109765498Y-95970820D01*
X109729188Y-96090518D01*
X109716928Y-96215000D01*
X109079000Y-96215000D01*
X109079000Y-94745000D01*
X109716928Y-94745000D01*
X109729188Y-94869482D01*
X109765498Y-94989180D01*
X109824463Y-95099494D01*
X109903815Y-95196185D01*
X110000506Y-95275537D01*
X110110820Y-95334502D01*
X110230518Y-95370812D01*
X110355000Y-95383072D01*
X110594250Y-95380000D01*
X110753000Y-95221250D01*
X110753000Y-94272000D01*
X109878750Y-94272000D01*
X109720000Y-94430750D01*
X109716928Y-94745000D01*
X109079000Y-94745000D01*
X109079000Y-93646275D01*
X109180275Y-93545000D01*
X109716928Y-93545000D01*
X109720000Y-93859250D01*
X109878750Y-94018000D01*
X110753000Y-94018000D01*
X110753000Y-93068750D01*
X110594250Y-92910000D01*
X110355000Y-92906928D01*
X110230518Y-92919188D01*
X110110820Y-92955498D01*
X110000506Y-93014463D01*
X109903815Y-93093815D01*
X109824463Y-93190506D01*
X109765498Y-93300820D01*
X109729188Y-93420518D01*
X109716928Y-93545000D01*
X109180275Y-93545000D01*
X109821221Y-92904056D01*
X109833763Y-92893763D01*
X109844056Y-92881221D01*
X109844061Y-92881216D01*
X109874876Y-92843667D01*
X109884220Y-92826185D01*
X109905426Y-92786512D01*
X109924239Y-92724495D01*
X109929000Y-92676154D01*
X109930591Y-92660000D01*
X109929000Y-92643846D01*
X109929000Y-84708542D01*
X109975000Y-84713072D01*
X110126750Y-84710000D01*
X110285500Y-84551250D01*
X110285500Y-83727000D01*
X110265500Y-83727000D01*
X110265500Y-83473000D01*
X110285500Y-83473000D01*
X110285500Y-82648750D01*
X110126750Y-82490000D01*
X109975000Y-82486928D01*
X109929000Y-82491458D01*
X109929000Y-81936275D01*
X110305699Y-81559577D01*
X111116709Y-81559577D01*
X111162569Y-81605437D01*
G37*
%TD.AperFunction*%
D29*
X122903966Y-92439242D02*
X122903967Y-93504278D01*
X122902376Y-93520432D01*
X122903967Y-93536586D01*
X122908728Y-93584927D01*
X122912417Y-93597089D01*
X122927540Y-93646943D01*
X122952514Y-93693666D01*
X122958091Y-93704099D01*
X122999204Y-93754195D01*
X123011752Y-93764493D01*
X123045118Y-93797859D01*
X123045118Y-94371156D01*
X122962889Y-94337095D01*
X122841754Y-94313000D01*
X122718246Y-94313000D01*
X122691084Y-94318403D01*
X122693072Y-94115000D01*
X122680812Y-93990518D01*
X122644502Y-93870820D01*
X122585537Y-93760506D01*
X122506185Y-93663815D01*
X122409494Y-93584463D01*
X122299180Y-93525498D01*
X122179482Y-93489188D01*
X122055000Y-93476928D01*
X121815750Y-93480000D01*
X121657000Y-93638750D01*
X121657000Y-94588000D01*
X121677000Y-94588000D01*
X121677000Y-94842000D01*
X121657000Y-94842000D01*
X121657000Y-95791250D01*
X121815750Y-95950000D01*
X122055000Y-95953072D01*
X122179482Y-95940812D01*
X122299180Y-95904502D01*
X122409494Y-95845537D01*
X122506185Y-95766185D01*
X122585537Y-95669494D01*
X122644502Y-95559180D01*
X122646461Y-95552721D01*
X122718246Y-95567000D01*
X122841754Y-95567000D01*
X122962889Y-95542905D01*
X123045118Y-95508844D01*
X123045119Y-98791974D01*
X122980255Y-98818842D01*
X122889518Y-98879471D01*
X122812353Y-98956636D01*
X122751724Y-99047373D01*
X122709962Y-99148195D01*
X122688673Y-99255227D01*
X122688673Y-99364355D01*
X122709962Y-99471387D01*
X122751724Y-99572209D01*
X122812353Y-99662946D01*
X122889518Y-99740111D01*
X122980255Y-99800740D01*
X123081077Y-99842502D01*
X123188109Y-99863791D01*
X123297237Y-99863791D01*
X123404269Y-99842502D01*
X123505091Y-99800740D01*
X123595828Y-99740111D01*
X123672993Y-99662946D01*
X123698899Y-99624175D01*
X124006111Y-99931386D01*
X123943044Y-100083644D01*
X123904000Y-100279933D01*
X123904000Y-100480067D01*
X123943044Y-100676356D01*
X124019632Y-100861256D01*
X124130821Y-101027662D01*
X124272338Y-101169179D01*
X124438744Y-101280368D01*
X124597194Y-101346000D01*
X120817640Y-101346000D01*
X120840800Y-101302672D01*
X120855324Y-101254793D01*
X120860228Y-101205000D01*
X120860228Y-100205000D01*
X120855324Y-100155207D01*
X120840800Y-100107328D01*
X120817214Y-100063203D01*
X120785473Y-100024527D01*
X120746797Y-99992786D01*
X120702672Y-99969200D01*
X120684000Y-99963536D01*
X120684000Y-99648440D01*
X120760820Y-99689502D01*
X120880518Y-99725812D01*
X121005000Y-99738072D01*
X121244250Y-99735000D01*
X121403000Y-99576250D01*
X121403000Y-98032000D01*
X121657000Y-98032000D01*
X121657000Y-99576250D01*
X121815750Y-99735000D01*
X122055000Y-99738072D01*
X122179482Y-99725812D01*
X122299180Y-99689502D01*
X122409494Y-99630537D01*
X122506185Y-99551185D01*
X122585537Y-99454494D01*
X122644502Y-99344180D01*
X122680812Y-99224482D01*
X122693072Y-99100000D01*
X122690000Y-98190750D01*
X122531250Y-98032000D01*
X121657000Y-98032000D01*
X121403000Y-98032000D01*
X121383000Y-98032000D01*
X121383000Y-97778000D01*
X121403000Y-97778000D01*
X121403000Y-96233750D01*
X121657000Y-96233750D01*
X121657000Y-97778000D01*
X122531250Y-97778000D01*
X122690000Y-97619250D01*
X122693072Y-96710000D01*
X122680812Y-96585518D01*
X122644502Y-96465820D01*
X122585537Y-96355506D01*
X122506185Y-96258815D01*
X122409494Y-96179463D01*
X122299180Y-96120498D01*
X122179482Y-96084188D01*
X122055000Y-96071928D01*
X121815750Y-96075000D01*
X121657000Y-96233750D01*
X121403000Y-96233750D01*
X121244250Y-96075000D01*
X121005000Y-96071928D01*
X120880518Y-96084188D01*
X120760820Y-96120498D01*
X120650506Y-96179463D01*
X120553815Y-96258815D01*
X120474463Y-96355506D01*
X120415498Y-96465820D01*
X120379188Y-96585518D01*
X120366928Y-96710000D01*
X120367966Y-97017290D01*
X118704165Y-95353490D01*
X118693863Y-95340937D01*
X118643767Y-95299824D01*
X118586612Y-95269274D01*
X118524595Y-95250461D01*
X118476254Y-95245700D01*
X118476244Y-95245700D01*
X118460100Y-95244110D01*
X118443956Y-95245700D01*
X117019575Y-95245700D01*
X117321215Y-94944061D01*
X117333763Y-94933763D01*
X117360314Y-94901411D01*
X117374876Y-94883668D01*
X117399591Y-94837428D01*
X117405426Y-94826512D01*
X117424239Y-94764495D01*
X117429000Y-94716154D01*
X117429000Y-94716145D01*
X117430590Y-94700001D01*
X117429000Y-94683857D01*
X117429000Y-94536275D01*
X117536276Y-94429000D01*
X118264189Y-94429000D01*
X118246000Y-94520446D01*
X118246000Y-94629574D01*
X118267289Y-94736606D01*
X118309051Y-94837428D01*
X118369680Y-94928165D01*
X118446845Y-95005330D01*
X118537582Y-95065959D01*
X118638404Y-95107721D01*
X118745436Y-95129010D01*
X118854564Y-95129010D01*
X118961596Y-95107721D01*
X119062418Y-95065959D01*
X119153155Y-95005330D01*
X119230320Y-94928165D01*
X119246460Y-94904010D01*
X120273110Y-94904010D01*
X120289254Y-94905600D01*
X120305398Y-94904010D01*
X120305408Y-94904010D01*
X120353749Y-94899249D01*
X120415766Y-94880436D01*
X120472921Y-94849886D01*
X120482528Y-94842002D01*
X120528748Y-94842002D01*
X120370000Y-95000750D01*
X120366928Y-95315000D01*
X120379188Y-95439482D01*
X120415498Y-95559180D01*
X120474463Y-95669494D01*
X120553815Y-95766185D01*
X120650506Y-95845537D01*
X120760820Y-95904502D01*
X120880518Y-95940812D01*
X121005000Y-95953072D01*
X121244250Y-95950000D01*
X121403000Y-95791250D01*
X121403000Y-94842000D01*
X121383000Y-94842000D01*
X121383000Y-94588000D01*
X121403000Y-94588000D01*
X121403000Y-93638750D01*
X121244250Y-93480000D01*
X121179000Y-93479162D01*
X121179000Y-92053500D01*
X121224860Y-92007640D01*
X121277674Y-91928597D01*
X121314054Y-91840769D01*
X121332600Y-91747532D01*
X121332600Y-91652468D01*
X121314054Y-91559231D01*
X121280817Y-91478990D01*
X121943715Y-91478990D01*
X122903966Y-92439242D01*
%TA.AperFunction,Conductor*%
D30*
G36*
X122903966Y-92439242D02*
G01*
X122903967Y-93504278D01*
X122902376Y-93520432D01*
X122903967Y-93536586D01*
X122908728Y-93584927D01*
X122912417Y-93597089D01*
X122927540Y-93646943D01*
X122952514Y-93693666D01*
X122958091Y-93704099D01*
X122999204Y-93754195D01*
X123011752Y-93764493D01*
X123045118Y-93797859D01*
X123045118Y-94371156D01*
X122962889Y-94337095D01*
X122841754Y-94313000D01*
X122718246Y-94313000D01*
X122691084Y-94318403D01*
X122693072Y-94115000D01*
X122680812Y-93990518D01*
X122644502Y-93870820D01*
X122585537Y-93760506D01*
X122506185Y-93663815D01*
X122409494Y-93584463D01*
X122299180Y-93525498D01*
X122179482Y-93489188D01*
X122055000Y-93476928D01*
X121815750Y-93480000D01*
X121657000Y-93638750D01*
X121657000Y-94588000D01*
X121677000Y-94588000D01*
X121677000Y-94842000D01*
X121657000Y-94842000D01*
X121657000Y-95791250D01*
X121815750Y-95950000D01*
X122055000Y-95953072D01*
X122179482Y-95940812D01*
X122299180Y-95904502D01*
X122409494Y-95845537D01*
X122506185Y-95766185D01*
X122585537Y-95669494D01*
X122644502Y-95559180D01*
X122646461Y-95552721D01*
X122718246Y-95567000D01*
X122841754Y-95567000D01*
X122962889Y-95542905D01*
X123045118Y-95508844D01*
X123045119Y-98791974D01*
X122980255Y-98818842D01*
X122889518Y-98879471D01*
X122812353Y-98956636D01*
X122751724Y-99047373D01*
X122709962Y-99148195D01*
X122688673Y-99255227D01*
X122688673Y-99364355D01*
X122709962Y-99471387D01*
X122751724Y-99572209D01*
X122812353Y-99662946D01*
X122889518Y-99740111D01*
X122980255Y-99800740D01*
X123081077Y-99842502D01*
X123188109Y-99863791D01*
X123297237Y-99863791D01*
X123404269Y-99842502D01*
X123505091Y-99800740D01*
X123595828Y-99740111D01*
X123672993Y-99662946D01*
X123698899Y-99624175D01*
X124006111Y-99931386D01*
X123943044Y-100083644D01*
X123904000Y-100279933D01*
X123904000Y-100480067D01*
X123943044Y-100676356D01*
X124019632Y-100861256D01*
X124130821Y-101027662D01*
X124272338Y-101169179D01*
X124438744Y-101280368D01*
X124597194Y-101346000D01*
X120817640Y-101346000D01*
X120840800Y-101302672D01*
X120855324Y-101254793D01*
X120860228Y-101205000D01*
X120860228Y-100205000D01*
X120855324Y-100155207D01*
X120840800Y-100107328D01*
X120817214Y-100063203D01*
X120785473Y-100024527D01*
X120746797Y-99992786D01*
X120702672Y-99969200D01*
X120684000Y-99963536D01*
X120684000Y-99648440D01*
X120760820Y-99689502D01*
X120880518Y-99725812D01*
X121005000Y-99738072D01*
X121244250Y-99735000D01*
X121403000Y-99576250D01*
X121403000Y-98032000D01*
X121657000Y-98032000D01*
X121657000Y-99576250D01*
X121815750Y-99735000D01*
X122055000Y-99738072D01*
X122179482Y-99725812D01*
X122299180Y-99689502D01*
X122409494Y-99630537D01*
X122506185Y-99551185D01*
X122585537Y-99454494D01*
X122644502Y-99344180D01*
X122680812Y-99224482D01*
X122693072Y-99100000D01*
X122690000Y-98190750D01*
X122531250Y-98032000D01*
X121657000Y-98032000D01*
X121403000Y-98032000D01*
X121383000Y-98032000D01*
X121383000Y-97778000D01*
X121403000Y-97778000D01*
X121403000Y-96233750D01*
X121657000Y-96233750D01*
X121657000Y-97778000D01*
X122531250Y-97778000D01*
X122690000Y-97619250D01*
X122693072Y-96710000D01*
X122680812Y-96585518D01*
X122644502Y-96465820D01*
X122585537Y-96355506D01*
X122506185Y-96258815D01*
X122409494Y-96179463D01*
X122299180Y-96120498D01*
X122179482Y-96084188D01*
X122055000Y-96071928D01*
X121815750Y-96075000D01*
X121657000Y-96233750D01*
X121403000Y-96233750D01*
X121244250Y-96075000D01*
X121005000Y-96071928D01*
X120880518Y-96084188D01*
X120760820Y-96120498D01*
X120650506Y-96179463D01*
X120553815Y-96258815D01*
X120474463Y-96355506D01*
X120415498Y-96465820D01*
X120379188Y-96585518D01*
X120366928Y-96710000D01*
X120367966Y-97017290D01*
X118704165Y-95353490D01*
X118693863Y-95340937D01*
X118643767Y-95299824D01*
X118586612Y-95269274D01*
X118524595Y-95250461D01*
X118476254Y-95245700D01*
X118476244Y-95245700D01*
X118460100Y-95244110D01*
X118443956Y-95245700D01*
X117019575Y-95245700D01*
X117321215Y-94944061D01*
X117333763Y-94933763D01*
X117360314Y-94901411D01*
X117374876Y-94883668D01*
X117399591Y-94837428D01*
X117405426Y-94826512D01*
X117424239Y-94764495D01*
X117429000Y-94716154D01*
X117429000Y-94716145D01*
X117430590Y-94700001D01*
X117429000Y-94683857D01*
X117429000Y-94536275D01*
X117536276Y-94429000D01*
X118264189Y-94429000D01*
X118246000Y-94520446D01*
X118246000Y-94629574D01*
X118267289Y-94736606D01*
X118309051Y-94837428D01*
X118369680Y-94928165D01*
X118446845Y-95005330D01*
X118537582Y-95065959D01*
X118638404Y-95107721D01*
X118745436Y-95129010D01*
X118854564Y-95129010D01*
X118961596Y-95107721D01*
X119062418Y-95065959D01*
X119153155Y-95005330D01*
X119230320Y-94928165D01*
X119246460Y-94904010D01*
X120273110Y-94904010D01*
X120289254Y-94905600D01*
X120305398Y-94904010D01*
X120305408Y-94904010D01*
X120353749Y-94899249D01*
X120415766Y-94880436D01*
X120472921Y-94849886D01*
X120482528Y-94842002D01*
X120528748Y-94842002D01*
X120370000Y-95000750D01*
X120366928Y-95315000D01*
X120379188Y-95439482D01*
X120415498Y-95559180D01*
X120474463Y-95669494D01*
X120553815Y-95766185D01*
X120650506Y-95845537D01*
X120760820Y-95904502D01*
X120880518Y-95940812D01*
X121005000Y-95953072D01*
X121244250Y-95950000D01*
X121403000Y-95791250D01*
X121403000Y-94842000D01*
X121383000Y-94842000D01*
X121383000Y-94588000D01*
X121403000Y-94588000D01*
X121403000Y-93638750D01*
X121244250Y-93480000D01*
X121179000Y-93479162D01*
X121179000Y-92053500D01*
X121224860Y-92007640D01*
X121277674Y-91928597D01*
X121314054Y-91840769D01*
X121332600Y-91747532D01*
X121332600Y-91652468D01*
X121314054Y-91559231D01*
X121280817Y-91478990D01*
X121943715Y-91478990D01*
X122903966Y-92439242D01*
G37*
%TD.AperFunction*%
D29*
X115709557Y-94173004D02*
X115707369Y-94195219D01*
X115716096Y-94283826D01*
X115741942Y-94369028D01*
X115771453Y-94424239D01*
X115783914Y-94447552D01*
X115834555Y-94509258D01*
X115834555Y-94556972D01*
X115858650Y-94678107D01*
X115897128Y-94771000D01*
X114436276Y-94771000D01*
X114282600Y-94617325D01*
X114282600Y-94552468D01*
X114264054Y-94459231D01*
X114227674Y-94371403D01*
X114174860Y-94292360D01*
X114107640Y-94225140D01*
X114028597Y-94172326D01*
X113940769Y-94135946D01*
X113847532Y-94117400D01*
X113752468Y-94117400D01*
X113659231Y-94135946D01*
X113571403Y-94172326D01*
X113492360Y-94225140D01*
X113425140Y-94292360D01*
X113372326Y-94371403D01*
X113335946Y-94459231D01*
X113317400Y-94552468D01*
X113317400Y-94647532D01*
X113335946Y-94740769D01*
X113372326Y-94828597D01*
X113425140Y-94907640D01*
X113492360Y-94974860D01*
X113571403Y-95027674D01*
X113659231Y-95064054D01*
X113752468Y-95082600D01*
X113817325Y-95082600D01*
X113980424Y-95245700D01*
X113120976Y-95245700D01*
X112704905Y-94829630D01*
X112704905Y-93995228D01*
X115565000Y-93995228D01*
X115614793Y-93990324D01*
X115662672Y-93975800D01*
X115706797Y-93952214D01*
X115709557Y-93949949D01*
X115709557Y-94173004D01*
%TA.AperFunction,Conductor*%
D30*
G36*
X115709557Y-94173004D02*
G01*
X115707369Y-94195219D01*
X115716096Y-94283826D01*
X115741942Y-94369028D01*
X115771453Y-94424239D01*
X115783914Y-94447552D01*
X115834555Y-94509258D01*
X115834555Y-94556972D01*
X115858650Y-94678107D01*
X115897128Y-94771000D01*
X114436276Y-94771000D01*
X114282600Y-94617325D01*
X114282600Y-94552468D01*
X114264054Y-94459231D01*
X114227674Y-94371403D01*
X114174860Y-94292360D01*
X114107640Y-94225140D01*
X114028597Y-94172326D01*
X113940769Y-94135946D01*
X113847532Y-94117400D01*
X113752468Y-94117400D01*
X113659231Y-94135946D01*
X113571403Y-94172326D01*
X113492360Y-94225140D01*
X113425140Y-94292360D01*
X113372326Y-94371403D01*
X113335946Y-94459231D01*
X113317400Y-94552468D01*
X113317400Y-94647532D01*
X113335946Y-94740769D01*
X113372326Y-94828597D01*
X113425140Y-94907640D01*
X113492360Y-94974860D01*
X113571403Y-95027674D01*
X113659231Y-95064054D01*
X113752468Y-95082600D01*
X113817325Y-95082600D01*
X113980424Y-95245700D01*
X113120976Y-95245700D01*
X112704905Y-94829630D01*
X112704905Y-93995228D01*
X115565000Y-93995228D01*
X115614793Y-93990324D01*
X115662672Y-93975800D01*
X115706797Y-93952214D01*
X115709557Y-93949949D01*
X115709557Y-94173004D01*
G37*
%TD.AperFunction*%
D29*
X119647400Y-91522468D02*
X119647400Y-91617532D01*
X119665946Y-91710769D01*
X119702326Y-91798597D01*
X119755140Y-91877640D01*
X119822360Y-91944860D01*
X119901403Y-91997674D01*
X119989231Y-92034054D01*
X120029599Y-92042084D01*
X120029600Y-93771000D01*
X119832175Y-93771000D01*
X119835228Y-93740000D01*
X119835228Y-93190000D01*
X119830324Y-93140207D01*
X119815800Y-93092328D01*
X119792214Y-93048203D01*
X119760473Y-93009527D01*
X119721797Y-92977786D01*
X119677672Y-92954200D01*
X119629793Y-92939676D01*
X119580000Y-92934772D01*
X116670000Y-92934772D01*
X116620207Y-92939676D01*
X116613556Y-92941694D01*
X116613556Y-92703582D01*
X116706250Y-92703582D01*
X116813029Y-92693065D01*
X116915705Y-92661919D01*
X117010331Y-92611340D01*
X117093272Y-92543272D01*
X117161340Y-92460331D01*
X117211919Y-92365705D01*
X117243065Y-92263029D01*
X117253582Y-92156250D01*
X117253582Y-91643750D01*
X117243065Y-91536971D01*
X117225477Y-91478990D01*
X119656048Y-91478990D01*
X119647400Y-91522468D01*
%TA.AperFunction,Conductor*%
D30*
G36*
X119647400Y-91522468D02*
G01*
X119647400Y-91617532D01*
X119665946Y-91710769D01*
X119702326Y-91798597D01*
X119755140Y-91877640D01*
X119822360Y-91944860D01*
X119901403Y-91997674D01*
X119989231Y-92034054D01*
X120029599Y-92042084D01*
X120029600Y-93771000D01*
X119832175Y-93771000D01*
X119835228Y-93740000D01*
X119835228Y-93190000D01*
X119830324Y-93140207D01*
X119815800Y-93092328D01*
X119792214Y-93048203D01*
X119760473Y-93009527D01*
X119721797Y-92977786D01*
X119677672Y-92954200D01*
X119629793Y-92939676D01*
X119580000Y-92934772D01*
X116670000Y-92934772D01*
X116620207Y-92939676D01*
X116613556Y-92941694D01*
X116613556Y-92703582D01*
X116706250Y-92703582D01*
X116813029Y-92693065D01*
X116915705Y-92661919D01*
X117010331Y-92611340D01*
X117093272Y-92543272D01*
X117161340Y-92460331D01*
X117211919Y-92365705D01*
X117243065Y-92263029D01*
X117253582Y-92156250D01*
X117253582Y-91643750D01*
X117243065Y-91536971D01*
X117225477Y-91478990D01*
X119656048Y-91478990D01*
X119647400Y-91522468D01*
G37*
%TD.AperFunction*%
D29*
X113100311Y-91527023D02*
X113203004Y-91595640D01*
X113317111Y-91642905D01*
X113438246Y-91667000D01*
X113561754Y-91667000D01*
X113682889Y-91642905D01*
X113796996Y-91595640D01*
X113839240Y-91567414D01*
X113840000Y-91614250D01*
X113998750Y-91773000D01*
X114785500Y-91773000D01*
X114785500Y-91753000D01*
X115039500Y-91753000D01*
X115039500Y-91773000D01*
X115059500Y-91773000D01*
X115059500Y-92027000D01*
X115039500Y-92027000D01*
X115039500Y-92047000D01*
X114785500Y-92047000D01*
X114785500Y-92027000D01*
X113998750Y-92027000D01*
X113840000Y-92185750D01*
X113836928Y-92375000D01*
X113849188Y-92499482D01*
X113885498Y-92619180D01*
X113944463Y-92729494D01*
X114023815Y-92826185D01*
X114120506Y-92905537D01*
X114175200Y-92934772D01*
X112704905Y-92934772D01*
X112704905Y-91746590D01*
X112745273Y-91738560D01*
X112833101Y-91702180D01*
X112912144Y-91649366D01*
X112979364Y-91582146D01*
X113032178Y-91503103D01*
X113045128Y-91471840D01*
X113100311Y-91527023D01*
%TA.AperFunction,Conductor*%
D30*
G36*
X113100311Y-91527023D02*
G01*
X113203004Y-91595640D01*
X113317111Y-91642905D01*
X113438246Y-91667000D01*
X113561754Y-91667000D01*
X113682889Y-91642905D01*
X113796996Y-91595640D01*
X113839240Y-91567414D01*
X113840000Y-91614250D01*
X113998750Y-91773000D01*
X114785500Y-91773000D01*
X114785500Y-91753000D01*
X115039500Y-91753000D01*
X115039500Y-91773000D01*
X115059500Y-91773000D01*
X115059500Y-92027000D01*
X115039500Y-92027000D01*
X115039500Y-92047000D01*
X114785500Y-92047000D01*
X114785500Y-92027000D01*
X113998750Y-92027000D01*
X113840000Y-92185750D01*
X113836928Y-92375000D01*
X113849188Y-92499482D01*
X113885498Y-92619180D01*
X113944463Y-92729494D01*
X114023815Y-92826185D01*
X114120506Y-92905537D01*
X114175200Y-92934772D01*
X112704905Y-92934772D01*
X112704905Y-91746590D01*
X112745273Y-91738560D01*
X112833101Y-91702180D01*
X112912144Y-91649366D01*
X112979364Y-91582146D01*
X113032178Y-91503103D01*
X113045128Y-91471840D01*
X113100311Y-91527023D01*
G37*
%TD.AperFunction*%
D29*
X106239632Y-70381256D02*
X106350821Y-70547662D01*
X106492338Y-70689179D01*
X106658744Y-70800368D01*
X106843644Y-70876956D01*
X107039933Y-70916000D01*
X107240067Y-70916000D01*
X107436356Y-70876956D01*
X107588613Y-70813889D01*
X108241000Y-71466276D01*
X108241001Y-73724638D01*
X108239410Y-73740792D01*
X108245762Y-73805286D01*
X108264574Y-73867303D01*
X108295124Y-73924458D01*
X108295125Y-73924459D01*
X108336238Y-73974555D01*
X108348786Y-73984853D01*
X109132004Y-74768072D01*
X109132004Y-74832928D01*
X109150550Y-74926165D01*
X109186930Y-75013993D01*
X109239744Y-75093036D01*
X109306964Y-75160256D01*
X109386007Y-75213070D01*
X109473835Y-75249450D01*
X109567072Y-75267996D01*
X109662136Y-75267996D01*
X109755373Y-75249450D01*
X109843201Y-75213070D01*
X109922244Y-75160256D01*
X109987640Y-75094860D01*
X110022324Y-75178595D01*
X110075138Y-75257638D01*
X110142358Y-75324858D01*
X110221401Y-75377672D01*
X110309229Y-75414052D01*
X110402466Y-75432598D01*
X110497530Y-75432598D01*
X110590767Y-75414052D01*
X110678595Y-75377672D01*
X110757638Y-75324858D01*
X110824858Y-75257638D01*
X110877672Y-75178595D01*
X110884894Y-75161159D01*
X111025121Y-75301386D01*
X111002254Y-75335609D01*
X110965874Y-75423437D01*
X110947328Y-75516674D01*
X110947328Y-75611738D01*
X110954226Y-75646418D01*
X110643750Y-75646418D01*
X110536971Y-75656935D01*
X110434295Y-75688081D01*
X110339669Y-75738660D01*
X110256728Y-75806728D01*
X110188660Y-75889669D01*
X110138081Y-75984295D01*
X110106935Y-76086971D01*
X110096418Y-76193750D01*
X110096418Y-76631250D01*
X110106935Y-76738029D01*
X110138081Y-76840705D01*
X110188660Y-76935331D01*
X110203634Y-76953577D01*
X110180820Y-76960498D01*
X110070506Y-77019463D01*
X109973815Y-77098815D01*
X109894463Y-77195506D01*
X109835498Y-77305820D01*
X109799188Y-77425518D01*
X109786928Y-77550000D01*
X109790000Y-77701750D01*
X109948750Y-77860500D01*
X110773000Y-77860500D01*
X110773000Y-77840500D01*
X111027000Y-77840500D01*
X111027000Y-77860500D01*
X111047000Y-77860500D01*
X111047000Y-78114500D01*
X111027000Y-78114500D01*
X111027000Y-78134500D01*
X110773000Y-78134500D01*
X110773000Y-78114500D01*
X109948750Y-78114500D01*
X109790000Y-78273250D01*
X109786928Y-78425000D01*
X109799188Y-78549482D01*
X109835498Y-78669180D01*
X109860637Y-78716211D01*
X109848784Y-78725939D01*
X109848779Y-78725944D01*
X109836237Y-78736237D01*
X109825944Y-78748779D01*
X108478786Y-80095939D01*
X108466238Y-80106237D01*
X108455940Y-80118785D01*
X108425124Y-80156334D01*
X108394574Y-80213489D01*
X108375762Y-80275506D01*
X108369410Y-80340000D01*
X108371001Y-80356154D01*
X108371000Y-91063724D01*
X107588614Y-91846111D01*
X107436356Y-91783044D01*
X107240067Y-91744000D01*
X107039933Y-91744000D01*
X106843644Y-91783044D01*
X106658744Y-91859632D01*
X106492338Y-91970821D01*
X106350821Y-92112338D01*
X106239632Y-92278744D01*
X106174000Y-92437194D01*
X106174000Y-90542806D01*
X106239632Y-90701256D01*
X106350821Y-90867662D01*
X106492338Y-91009179D01*
X106658744Y-91120368D01*
X106843644Y-91196956D01*
X107039933Y-91236000D01*
X107240067Y-91236000D01*
X107436356Y-91196956D01*
X107621256Y-91120368D01*
X107787662Y-91009179D01*
X107929179Y-90867662D01*
X108040368Y-90701256D01*
X108116956Y-90516356D01*
X108156000Y-90320067D01*
X108156000Y-90119933D01*
X108116956Y-89923644D01*
X108040368Y-89738744D01*
X107929179Y-89572338D01*
X107787662Y-89430821D01*
X107621256Y-89319632D01*
X107436356Y-89243044D01*
X107240067Y-89204000D01*
X107039933Y-89204000D01*
X106843644Y-89243044D01*
X106658744Y-89319632D01*
X106492338Y-89430821D01*
X106350821Y-89572338D01*
X106239632Y-89738744D01*
X106174000Y-89897194D01*
X106174000Y-88002806D01*
X106239632Y-88161256D01*
X106350821Y-88327662D01*
X106492338Y-88469179D01*
X106658744Y-88580368D01*
X106843644Y-88656956D01*
X107039933Y-88696000D01*
X107240067Y-88696000D01*
X107436356Y-88656956D01*
X107621256Y-88580368D01*
X107787662Y-88469179D01*
X107929179Y-88327662D01*
X108040368Y-88161256D01*
X108116956Y-87976356D01*
X108156000Y-87780067D01*
X108156000Y-87579933D01*
X108116956Y-87383644D01*
X108040368Y-87198744D01*
X107929179Y-87032338D01*
X107787662Y-86890821D01*
X107621256Y-86779632D01*
X107436356Y-86703044D01*
X107240067Y-86664000D01*
X107039933Y-86664000D01*
X106843644Y-86703044D01*
X106658744Y-86779632D01*
X106492338Y-86890821D01*
X106350821Y-87032338D01*
X106239632Y-87198744D01*
X106174000Y-87357194D01*
X106174000Y-85462806D01*
X106239632Y-85621256D01*
X106350821Y-85787662D01*
X106492338Y-85929179D01*
X106658744Y-86040368D01*
X106843644Y-86116956D01*
X107039933Y-86156000D01*
X107240067Y-86156000D01*
X107436356Y-86116956D01*
X107621256Y-86040368D01*
X107787662Y-85929179D01*
X107929179Y-85787662D01*
X108040368Y-85621256D01*
X108116956Y-85436356D01*
X108156000Y-85240067D01*
X108156000Y-85039933D01*
X108116956Y-84843644D01*
X108040368Y-84658744D01*
X107929179Y-84492338D01*
X107787662Y-84350821D01*
X107621256Y-84239632D01*
X107436356Y-84163044D01*
X107240067Y-84124000D01*
X107039933Y-84124000D01*
X106843644Y-84163044D01*
X106658744Y-84239632D01*
X106492338Y-84350821D01*
X106350821Y-84492338D01*
X106239632Y-84658744D01*
X106174000Y-84817194D01*
X106174000Y-82922806D01*
X106239632Y-83081256D01*
X106350821Y-83247662D01*
X106492338Y-83389179D01*
X106658744Y-83500368D01*
X106843644Y-83576956D01*
X107039933Y-83616000D01*
X107240067Y-83616000D01*
X107436356Y-83576956D01*
X107621256Y-83500368D01*
X107787662Y-83389179D01*
X107929179Y-83247662D01*
X108040368Y-83081256D01*
X108116956Y-82896356D01*
X108156000Y-82700067D01*
X108156000Y-82499933D01*
X108116956Y-82303644D01*
X108040368Y-82118744D01*
X107929179Y-81952338D01*
X107787662Y-81810821D01*
X107621256Y-81699632D01*
X107436356Y-81623044D01*
X107240067Y-81584000D01*
X107039933Y-81584000D01*
X106843644Y-81623044D01*
X106658744Y-81699632D01*
X106492338Y-81810821D01*
X106350821Y-81952338D01*
X106239632Y-82118744D01*
X106174000Y-82277194D01*
X106174000Y-80382806D01*
X106239632Y-80541256D01*
X106350821Y-80707662D01*
X106492338Y-80849179D01*
X106658744Y-80960368D01*
X106843644Y-81036956D01*
X107039933Y-81076000D01*
X107240067Y-81076000D01*
X107436356Y-81036956D01*
X107621256Y-80960368D01*
X107787662Y-80849179D01*
X107929179Y-80707662D01*
X108040368Y-80541256D01*
X108116956Y-80356356D01*
X108156000Y-80160067D01*
X108156000Y-79959933D01*
X108116956Y-79763644D01*
X108040368Y-79578744D01*
X107929179Y-79412338D01*
X107787662Y-79270821D01*
X107621256Y-79159632D01*
X107436356Y-79083044D01*
X107240067Y-79044000D01*
X107039933Y-79044000D01*
X106843644Y-79083044D01*
X106658744Y-79159632D01*
X106492338Y-79270821D01*
X106350821Y-79412338D01*
X106239632Y-79578744D01*
X106174000Y-79737194D01*
X106174000Y-77842806D01*
X106239632Y-78001256D01*
X106350821Y-78167662D01*
X106492338Y-78309179D01*
X106658744Y-78420368D01*
X106843644Y-78496956D01*
X107039933Y-78536000D01*
X107240067Y-78536000D01*
X107436356Y-78496956D01*
X107621256Y-78420368D01*
X107787662Y-78309179D01*
X107929179Y-78167662D01*
X108040368Y-78001256D01*
X108116956Y-77816356D01*
X108156000Y-77620067D01*
X108156000Y-77419933D01*
X108116956Y-77223644D01*
X108040368Y-77038744D01*
X107929179Y-76872338D01*
X107787662Y-76730821D01*
X107621256Y-76619632D01*
X107436356Y-76543044D01*
X107240067Y-76504000D01*
X107039933Y-76504000D01*
X106843644Y-76543044D01*
X106658744Y-76619632D01*
X106492338Y-76730821D01*
X106350821Y-76872338D01*
X106239632Y-77038744D01*
X106174000Y-77197194D01*
X106174000Y-75302806D01*
X106239632Y-75461256D01*
X106350821Y-75627662D01*
X106492338Y-75769179D01*
X106658744Y-75880368D01*
X106843644Y-75956956D01*
X107039933Y-75996000D01*
X107240067Y-75996000D01*
X107436356Y-75956956D01*
X107621256Y-75880368D01*
X107787662Y-75769179D01*
X107929179Y-75627662D01*
X108040368Y-75461256D01*
X108116956Y-75276356D01*
X108156000Y-75080067D01*
X108156000Y-74879933D01*
X108116956Y-74683644D01*
X108040368Y-74498744D01*
X107929179Y-74332338D01*
X107787662Y-74190821D01*
X107621256Y-74079632D01*
X107436356Y-74003044D01*
X107240067Y-73964000D01*
X107039933Y-73964000D01*
X106843644Y-74003044D01*
X106658744Y-74079632D01*
X106492338Y-74190821D01*
X106350821Y-74332338D01*
X106239632Y-74498744D01*
X106174000Y-74657194D01*
X106174000Y-72762806D01*
X106239632Y-72921256D01*
X106350821Y-73087662D01*
X106492338Y-73229179D01*
X106658744Y-73340368D01*
X106843644Y-73416956D01*
X107039933Y-73456000D01*
X107240067Y-73456000D01*
X107436356Y-73416956D01*
X107621256Y-73340368D01*
X107787662Y-73229179D01*
X107929179Y-73087662D01*
X108040368Y-72921256D01*
X108116956Y-72736356D01*
X108156000Y-72540067D01*
X108156000Y-72339933D01*
X108116956Y-72143644D01*
X108040368Y-71958744D01*
X107929179Y-71792338D01*
X107787662Y-71650821D01*
X107621256Y-71539632D01*
X107436356Y-71463044D01*
X107240067Y-71424000D01*
X107039933Y-71424000D01*
X106843644Y-71463044D01*
X106658744Y-71539632D01*
X106492338Y-71650821D01*
X106350821Y-71792338D01*
X106239632Y-71958744D01*
X106174000Y-72117194D01*
X106174000Y-70222806D01*
X106239632Y-70381256D01*
%TA.AperFunction,Conductor*%
D30*
G36*
X106239632Y-70381256D02*
G01*
X106350821Y-70547662D01*
X106492338Y-70689179D01*
X106658744Y-70800368D01*
X106843644Y-70876956D01*
X107039933Y-70916000D01*
X107240067Y-70916000D01*
X107436356Y-70876956D01*
X107588613Y-70813889D01*
X108241000Y-71466276D01*
X108241001Y-73724638D01*
X108239410Y-73740792D01*
X108245762Y-73805286D01*
X108264574Y-73867303D01*
X108295124Y-73924458D01*
X108295125Y-73924459D01*
X108336238Y-73974555D01*
X108348786Y-73984853D01*
X109132004Y-74768072D01*
X109132004Y-74832928D01*
X109150550Y-74926165D01*
X109186930Y-75013993D01*
X109239744Y-75093036D01*
X109306964Y-75160256D01*
X109386007Y-75213070D01*
X109473835Y-75249450D01*
X109567072Y-75267996D01*
X109662136Y-75267996D01*
X109755373Y-75249450D01*
X109843201Y-75213070D01*
X109922244Y-75160256D01*
X109987640Y-75094860D01*
X110022324Y-75178595D01*
X110075138Y-75257638D01*
X110142358Y-75324858D01*
X110221401Y-75377672D01*
X110309229Y-75414052D01*
X110402466Y-75432598D01*
X110497530Y-75432598D01*
X110590767Y-75414052D01*
X110678595Y-75377672D01*
X110757638Y-75324858D01*
X110824858Y-75257638D01*
X110877672Y-75178595D01*
X110884894Y-75161159D01*
X111025121Y-75301386D01*
X111002254Y-75335609D01*
X110965874Y-75423437D01*
X110947328Y-75516674D01*
X110947328Y-75611738D01*
X110954226Y-75646418D01*
X110643750Y-75646418D01*
X110536971Y-75656935D01*
X110434295Y-75688081D01*
X110339669Y-75738660D01*
X110256728Y-75806728D01*
X110188660Y-75889669D01*
X110138081Y-75984295D01*
X110106935Y-76086971D01*
X110096418Y-76193750D01*
X110096418Y-76631250D01*
X110106935Y-76738029D01*
X110138081Y-76840705D01*
X110188660Y-76935331D01*
X110203634Y-76953577D01*
X110180820Y-76960498D01*
X110070506Y-77019463D01*
X109973815Y-77098815D01*
X109894463Y-77195506D01*
X109835498Y-77305820D01*
X109799188Y-77425518D01*
X109786928Y-77550000D01*
X109790000Y-77701750D01*
X109948750Y-77860500D01*
X110773000Y-77860500D01*
X110773000Y-77840500D01*
X111027000Y-77840500D01*
X111027000Y-77860500D01*
X111047000Y-77860500D01*
X111047000Y-78114500D01*
X111027000Y-78114500D01*
X111027000Y-78134500D01*
X110773000Y-78134500D01*
X110773000Y-78114500D01*
X109948750Y-78114500D01*
X109790000Y-78273250D01*
X109786928Y-78425000D01*
X109799188Y-78549482D01*
X109835498Y-78669180D01*
X109860637Y-78716211D01*
X109848784Y-78725939D01*
X109848779Y-78725944D01*
X109836237Y-78736237D01*
X109825944Y-78748779D01*
X108478786Y-80095939D01*
X108466238Y-80106237D01*
X108455940Y-80118785D01*
X108425124Y-80156334D01*
X108394574Y-80213489D01*
X108375762Y-80275506D01*
X108369410Y-80340000D01*
X108371001Y-80356154D01*
X108371000Y-91063724D01*
X107588614Y-91846111D01*
X107436356Y-91783044D01*
X107240067Y-91744000D01*
X107039933Y-91744000D01*
X106843644Y-91783044D01*
X106658744Y-91859632D01*
X106492338Y-91970821D01*
X106350821Y-92112338D01*
X106239632Y-92278744D01*
X106174000Y-92437194D01*
X106174000Y-90542806D01*
X106239632Y-90701256D01*
X106350821Y-90867662D01*
X106492338Y-91009179D01*
X106658744Y-91120368D01*
X106843644Y-91196956D01*
X107039933Y-91236000D01*
X107240067Y-91236000D01*
X107436356Y-91196956D01*
X107621256Y-91120368D01*
X107787662Y-91009179D01*
X107929179Y-90867662D01*
X108040368Y-90701256D01*
X108116956Y-90516356D01*
X108156000Y-90320067D01*
X108156000Y-90119933D01*
X108116956Y-89923644D01*
X108040368Y-89738744D01*
X107929179Y-89572338D01*
X107787662Y-89430821D01*
X107621256Y-89319632D01*
X107436356Y-89243044D01*
X107240067Y-89204000D01*
X107039933Y-89204000D01*
X106843644Y-89243044D01*
X106658744Y-89319632D01*
X106492338Y-89430821D01*
X106350821Y-89572338D01*
X106239632Y-89738744D01*
X106174000Y-89897194D01*
X106174000Y-88002806D01*
X106239632Y-88161256D01*
X106350821Y-88327662D01*
X106492338Y-88469179D01*
X106658744Y-88580368D01*
X106843644Y-88656956D01*
X107039933Y-88696000D01*
X107240067Y-88696000D01*
X107436356Y-88656956D01*
X107621256Y-88580368D01*
X107787662Y-88469179D01*
X107929179Y-88327662D01*
X108040368Y-88161256D01*
X108116956Y-87976356D01*
X108156000Y-87780067D01*
X108156000Y-87579933D01*
X108116956Y-87383644D01*
X108040368Y-87198744D01*
X107929179Y-87032338D01*
X107787662Y-86890821D01*
X107621256Y-86779632D01*
X107436356Y-86703044D01*
X107240067Y-86664000D01*
X107039933Y-86664000D01*
X106843644Y-86703044D01*
X106658744Y-86779632D01*
X106492338Y-86890821D01*
X106350821Y-87032338D01*
X106239632Y-87198744D01*
X106174000Y-87357194D01*
X106174000Y-85462806D01*
X106239632Y-85621256D01*
X106350821Y-85787662D01*
X106492338Y-85929179D01*
X106658744Y-86040368D01*
X106843644Y-86116956D01*
X107039933Y-86156000D01*
X107240067Y-86156000D01*
X107436356Y-86116956D01*
X107621256Y-86040368D01*
X107787662Y-85929179D01*
X107929179Y-85787662D01*
X108040368Y-85621256D01*
X108116956Y-85436356D01*
X108156000Y-85240067D01*
X108156000Y-85039933D01*
X108116956Y-84843644D01*
X108040368Y-84658744D01*
X107929179Y-84492338D01*
X107787662Y-84350821D01*
X107621256Y-84239632D01*
X107436356Y-84163044D01*
X107240067Y-84124000D01*
X107039933Y-84124000D01*
X106843644Y-84163044D01*
X106658744Y-84239632D01*
X106492338Y-84350821D01*
X106350821Y-84492338D01*
X106239632Y-84658744D01*
X106174000Y-84817194D01*
X106174000Y-82922806D01*
X106239632Y-83081256D01*
X106350821Y-83247662D01*
X106492338Y-83389179D01*
X106658744Y-83500368D01*
X106843644Y-83576956D01*
X107039933Y-83616000D01*
X107240067Y-83616000D01*
X107436356Y-83576956D01*
X107621256Y-83500368D01*
X107787662Y-83389179D01*
X107929179Y-83247662D01*
X108040368Y-83081256D01*
X108116956Y-82896356D01*
X108156000Y-82700067D01*
X108156000Y-82499933D01*
X108116956Y-82303644D01*
X108040368Y-82118744D01*
X107929179Y-81952338D01*
X107787662Y-81810821D01*
X107621256Y-81699632D01*
X107436356Y-81623044D01*
X107240067Y-81584000D01*
X107039933Y-81584000D01*
X106843644Y-81623044D01*
X106658744Y-81699632D01*
X106492338Y-81810821D01*
X106350821Y-81952338D01*
X106239632Y-82118744D01*
X106174000Y-82277194D01*
X106174000Y-80382806D01*
X106239632Y-80541256D01*
X106350821Y-80707662D01*
X106492338Y-80849179D01*
X106658744Y-80960368D01*
X106843644Y-81036956D01*
X107039933Y-81076000D01*
X107240067Y-81076000D01*
X107436356Y-81036956D01*
X107621256Y-80960368D01*
X107787662Y-80849179D01*
X107929179Y-80707662D01*
X108040368Y-80541256D01*
X108116956Y-80356356D01*
X108156000Y-80160067D01*
X108156000Y-79959933D01*
X108116956Y-79763644D01*
X108040368Y-79578744D01*
X107929179Y-79412338D01*
X107787662Y-79270821D01*
X107621256Y-79159632D01*
X107436356Y-79083044D01*
X107240067Y-79044000D01*
X107039933Y-79044000D01*
X106843644Y-79083044D01*
X106658744Y-79159632D01*
X106492338Y-79270821D01*
X106350821Y-79412338D01*
X106239632Y-79578744D01*
X106174000Y-79737194D01*
X106174000Y-77842806D01*
X106239632Y-78001256D01*
X106350821Y-78167662D01*
X106492338Y-78309179D01*
X106658744Y-78420368D01*
X106843644Y-78496956D01*
X107039933Y-78536000D01*
X107240067Y-78536000D01*
X107436356Y-78496956D01*
X107621256Y-78420368D01*
X107787662Y-78309179D01*
X107929179Y-78167662D01*
X108040368Y-78001256D01*
X108116956Y-77816356D01*
X108156000Y-77620067D01*
X108156000Y-77419933D01*
X108116956Y-77223644D01*
X108040368Y-77038744D01*
X107929179Y-76872338D01*
X107787662Y-76730821D01*
X107621256Y-76619632D01*
X107436356Y-76543044D01*
X107240067Y-76504000D01*
X107039933Y-76504000D01*
X106843644Y-76543044D01*
X106658744Y-76619632D01*
X106492338Y-76730821D01*
X106350821Y-76872338D01*
X106239632Y-77038744D01*
X106174000Y-77197194D01*
X106174000Y-75302806D01*
X106239632Y-75461256D01*
X106350821Y-75627662D01*
X106492338Y-75769179D01*
X106658744Y-75880368D01*
X106843644Y-75956956D01*
X107039933Y-75996000D01*
X107240067Y-75996000D01*
X107436356Y-75956956D01*
X107621256Y-75880368D01*
X107787662Y-75769179D01*
X107929179Y-75627662D01*
X108040368Y-75461256D01*
X108116956Y-75276356D01*
X108156000Y-75080067D01*
X108156000Y-74879933D01*
X108116956Y-74683644D01*
X108040368Y-74498744D01*
X107929179Y-74332338D01*
X107787662Y-74190821D01*
X107621256Y-74079632D01*
X107436356Y-74003044D01*
X107240067Y-73964000D01*
X107039933Y-73964000D01*
X106843644Y-74003044D01*
X106658744Y-74079632D01*
X106492338Y-74190821D01*
X106350821Y-74332338D01*
X106239632Y-74498744D01*
X106174000Y-74657194D01*
X106174000Y-72762806D01*
X106239632Y-72921256D01*
X106350821Y-73087662D01*
X106492338Y-73229179D01*
X106658744Y-73340368D01*
X106843644Y-73416956D01*
X107039933Y-73456000D01*
X107240067Y-73456000D01*
X107436356Y-73416956D01*
X107621256Y-73340368D01*
X107787662Y-73229179D01*
X107929179Y-73087662D01*
X108040368Y-72921256D01*
X108116956Y-72736356D01*
X108156000Y-72540067D01*
X108156000Y-72339933D01*
X108116956Y-72143644D01*
X108040368Y-71958744D01*
X107929179Y-71792338D01*
X107787662Y-71650821D01*
X107621256Y-71539632D01*
X107436356Y-71463044D01*
X107240067Y-71424000D01*
X107039933Y-71424000D01*
X106843644Y-71463044D01*
X106658744Y-71539632D01*
X106492338Y-71650821D01*
X106350821Y-71792338D01*
X106239632Y-71958744D01*
X106174000Y-72117194D01*
X106174000Y-70222806D01*
X106239632Y-70381256D01*
G37*
%TD.AperFunction*%
D29*
X114827728Y-90790000D02*
X114785498Y-90790000D01*
X114785498Y-90948748D01*
X114626750Y-90790000D01*
X114475000Y-90786928D01*
X114350518Y-90799188D01*
X114230820Y-90835498D01*
X114120506Y-90894463D01*
X114111762Y-90901639D01*
X114102905Y-90857111D01*
X114055640Y-90743004D01*
X113987023Y-90640311D01*
X113899689Y-90552977D01*
X113796996Y-90484360D01*
X113687488Y-90439000D01*
X114476729Y-90439000D01*
X114827728Y-90790000D01*
%TA.AperFunction,Conductor*%
D30*
G36*
X114827728Y-90790000D02*
G01*
X114785498Y-90790000D01*
X114785498Y-90948748D01*
X114626750Y-90790000D01*
X114475000Y-90786928D01*
X114350518Y-90799188D01*
X114230820Y-90835498D01*
X114120506Y-90894463D01*
X114111762Y-90901639D01*
X114102905Y-90857111D01*
X114055640Y-90743004D01*
X113987023Y-90640311D01*
X113899689Y-90552977D01*
X113796996Y-90484360D01*
X113687488Y-90439000D01*
X114476729Y-90439000D01*
X114827728Y-90790000D01*
G37*
%TD.AperFunction*%
D29*
X124006111Y-89771387D02*
X123943044Y-89923644D01*
X123904000Y-90119933D01*
X123904000Y-90320067D01*
X123943044Y-90516356D01*
X123990898Y-90631885D01*
X123220000Y-89860988D01*
X123210051Y-89848865D01*
X123161705Y-89809189D01*
X123106548Y-89779707D01*
X123046699Y-89761552D01*
X123000054Y-89756958D01*
X122984458Y-89755422D01*
X122968862Y-89756958D01*
X116958667Y-89756958D01*
X115972707Y-88770999D01*
X123005724Y-88770999D01*
X124006111Y-89771387D01*
%TA.AperFunction,Conductor*%
D30*
G36*
X124006111Y-89771387D02*
G01*
X123943044Y-89923644D01*
X123904000Y-90119933D01*
X123904000Y-90320067D01*
X123943044Y-90516356D01*
X123990898Y-90631885D01*
X123220000Y-89860988D01*
X123210051Y-89848865D01*
X123161705Y-89809189D01*
X123106548Y-89779707D01*
X123046699Y-89761552D01*
X123000054Y-89756958D01*
X122984458Y-89755422D01*
X122968862Y-89756958D01*
X116958667Y-89756958D01*
X115972707Y-88770999D01*
X123005724Y-88770999D01*
X124006111Y-89771387D01*
G37*
%TD.AperFunction*%
D29*
X123302501Y-83967777D02*
X123302502Y-85712345D01*
X123300911Y-85728499D01*
X123307263Y-85792993D01*
X123326075Y-85855010D01*
X123352293Y-85904060D01*
X123356626Y-85912166D01*
X123397739Y-85962262D01*
X123410287Y-85972560D01*
X124306033Y-86868307D01*
X124272338Y-86890821D01*
X124130821Y-87032338D01*
X124019632Y-87198744D01*
X123943044Y-87383644D01*
X123904000Y-87579933D01*
X123904000Y-87780067D01*
X123943044Y-87976356D01*
X124019632Y-88161256D01*
X124130821Y-88327662D01*
X124272338Y-88469179D01*
X124438744Y-88580368D01*
X124623644Y-88656956D01*
X124819933Y-88696000D01*
X125020067Y-88696000D01*
X125216356Y-88656956D01*
X125401256Y-88580368D01*
X125567662Y-88469179D01*
X125709179Y-88327662D01*
X125820368Y-88161256D01*
X125886001Y-88002806D01*
X125886001Y-89897196D01*
X125820368Y-89738744D01*
X125709179Y-89572338D01*
X125567662Y-89430821D01*
X125401256Y-89319632D01*
X125216356Y-89243044D01*
X125020067Y-89204000D01*
X124819933Y-89204000D01*
X124623644Y-89243044D01*
X124471387Y-89306111D01*
X123386064Y-88220789D01*
X123375762Y-88208236D01*
X123325666Y-88167123D01*
X123268511Y-88136573D01*
X123206494Y-88117760D01*
X123158153Y-88112999D01*
X123158143Y-88112999D01*
X123141999Y-88111409D01*
X123125855Y-88112999D01*
X114078275Y-88112999D01*
X113282600Y-87317325D01*
X113282600Y-87252468D01*
X113264054Y-87159231D01*
X113227674Y-87071403D01*
X113174860Y-86992360D01*
X113107640Y-86925140D01*
X113028597Y-86872326D01*
X112940769Y-86835946D01*
X112847532Y-86817400D01*
X112752468Y-86817400D01*
X112725399Y-86822784D01*
X112725399Y-85343444D01*
X113090013Y-84978830D01*
X113095512Y-85006475D01*
X113131892Y-85094303D01*
X113184706Y-85173346D01*
X113251926Y-85240566D01*
X113330969Y-85293380D01*
X113418797Y-85329760D01*
X113512034Y-85348306D01*
X113576891Y-85348306D01*
X114389799Y-86161215D01*
X114400097Y-86173763D01*
X114450193Y-86214876D01*
X114507348Y-86245426D01*
X114569365Y-86264239D01*
X114617706Y-86269000D01*
X114617715Y-86269000D01*
X114633859Y-86270590D01*
X114650003Y-86269000D01*
X114923856Y-86269000D01*
X114940000Y-86270590D01*
X114956144Y-86269000D01*
X114956154Y-86269000D01*
X115004495Y-86264239D01*
X115005055Y-86264069D01*
X115230655Y-86264069D01*
X114767325Y-86727400D01*
X114702468Y-86727400D01*
X114609231Y-86745946D01*
X114521403Y-86782326D01*
X114442360Y-86835140D01*
X114375140Y-86902360D01*
X114322326Y-86981403D01*
X114285946Y-87069231D01*
X114267400Y-87162468D01*
X114267400Y-87257532D01*
X114285946Y-87350769D01*
X114322326Y-87438597D01*
X114375140Y-87517640D01*
X114442360Y-87584860D01*
X114521403Y-87637674D01*
X114609231Y-87674054D01*
X114702468Y-87692600D01*
X114797532Y-87692600D01*
X114890769Y-87674054D01*
X114978597Y-87637674D01*
X115057640Y-87584860D01*
X115124860Y-87517640D01*
X115177674Y-87438597D01*
X115214054Y-87350769D01*
X115232600Y-87257532D01*
X115232600Y-87192675D01*
X115776276Y-86649000D01*
X117763856Y-86649000D01*
X117780000Y-86650590D01*
X117796144Y-86649000D01*
X117796154Y-86649000D01*
X117844495Y-86644239D01*
X117906512Y-86625426D01*
X117963667Y-86594876D01*
X118013763Y-86553763D01*
X118024065Y-86541210D01*
X118097029Y-86468246D01*
X119922998Y-86468246D01*
X119922998Y-86591754D01*
X119947093Y-86712889D01*
X119994358Y-86826996D01*
X120062975Y-86929689D01*
X120150309Y-87017023D01*
X120253002Y-87085640D01*
X120367109Y-87132905D01*
X120488244Y-87157000D01*
X120611752Y-87157000D01*
X120732887Y-87132905D01*
X120846994Y-87085640D01*
X120949687Y-87017023D01*
X121037021Y-86929689D01*
X121105638Y-86826996D01*
X121152903Y-86712889D01*
X121176998Y-86591754D01*
X121176998Y-86468246D01*
X121152903Y-86347111D01*
X121105638Y-86233004D01*
X121037021Y-86130311D01*
X120949687Y-86042977D01*
X120846994Y-85974360D01*
X120732887Y-85927095D01*
X120611752Y-85903000D01*
X120488244Y-85903000D01*
X120367109Y-85927095D01*
X120253002Y-85974360D01*
X120150309Y-86042977D01*
X120062975Y-86130311D01*
X119994358Y-86233004D01*
X119947093Y-86347111D01*
X119922998Y-86468246D01*
X118097029Y-86468246D01*
X119568337Y-84996939D01*
X119576185Y-85015886D01*
X119628999Y-85094929D01*
X119696219Y-85162149D01*
X119775262Y-85214963D01*
X119863090Y-85251343D01*
X119956327Y-85269889D01*
X120021183Y-85269889D01*
X120197015Y-85445721D01*
X120207313Y-85458269D01*
X120257409Y-85499382D01*
X120314564Y-85529932D01*
X120376581Y-85548745D01*
X120424922Y-85553506D01*
X120424931Y-85553506D01*
X120441075Y-85555096D01*
X120457219Y-85553506D01*
X121292772Y-85553506D01*
X121338632Y-85599366D01*
X121417675Y-85652180D01*
X121505503Y-85688560D01*
X121598740Y-85707106D01*
X121693804Y-85707106D01*
X121787041Y-85688560D01*
X121874869Y-85652180D01*
X121953912Y-85599366D01*
X122021132Y-85532146D01*
X122073946Y-85453103D01*
X122110326Y-85365275D01*
X122128872Y-85272038D01*
X122128872Y-85176974D01*
X122110326Y-85083737D01*
X122073946Y-84995909D01*
X122028406Y-84927753D01*
X122028597Y-84927674D01*
X122107640Y-84874860D01*
X122174860Y-84807640D01*
X122227674Y-84728597D01*
X122264054Y-84640769D01*
X122282600Y-84547532D01*
X122282600Y-84452468D01*
X122264054Y-84359231D01*
X122227674Y-84271403D01*
X122174860Y-84192360D01*
X122107640Y-84125140D01*
X122028597Y-84072326D01*
X121940769Y-84035946D01*
X121847532Y-84017400D01*
X121780504Y-84017400D01*
X121755068Y-83996525D01*
X121697913Y-83965975D01*
X121635896Y-83947162D01*
X121587555Y-83942401D01*
X121587545Y-83942401D01*
X121571401Y-83940811D01*
X121555257Y-83942401D01*
X120133013Y-83942401D01*
X120796414Y-83279000D01*
X122613725Y-83279000D01*
X123302501Y-83967777D01*
%TA.AperFunction,Conductor*%
D30*
G36*
X123302501Y-83967777D02*
G01*
X123302502Y-85712345D01*
X123300911Y-85728499D01*
X123307263Y-85792993D01*
X123326075Y-85855010D01*
X123352293Y-85904060D01*
X123356626Y-85912166D01*
X123397739Y-85962262D01*
X123410287Y-85972560D01*
X124306033Y-86868307D01*
X124272338Y-86890821D01*
X124130821Y-87032338D01*
X124019632Y-87198744D01*
X123943044Y-87383644D01*
X123904000Y-87579933D01*
X123904000Y-87780067D01*
X123943044Y-87976356D01*
X124019632Y-88161256D01*
X124130821Y-88327662D01*
X124272338Y-88469179D01*
X124438744Y-88580368D01*
X124623644Y-88656956D01*
X124819933Y-88696000D01*
X125020067Y-88696000D01*
X125216356Y-88656956D01*
X125401256Y-88580368D01*
X125567662Y-88469179D01*
X125709179Y-88327662D01*
X125820368Y-88161256D01*
X125886001Y-88002806D01*
X125886001Y-89897196D01*
X125820368Y-89738744D01*
X125709179Y-89572338D01*
X125567662Y-89430821D01*
X125401256Y-89319632D01*
X125216356Y-89243044D01*
X125020067Y-89204000D01*
X124819933Y-89204000D01*
X124623644Y-89243044D01*
X124471387Y-89306111D01*
X123386064Y-88220789D01*
X123375762Y-88208236D01*
X123325666Y-88167123D01*
X123268511Y-88136573D01*
X123206494Y-88117760D01*
X123158153Y-88112999D01*
X123158143Y-88112999D01*
X123141999Y-88111409D01*
X123125855Y-88112999D01*
X114078275Y-88112999D01*
X113282600Y-87317325D01*
X113282600Y-87252468D01*
X113264054Y-87159231D01*
X113227674Y-87071403D01*
X113174860Y-86992360D01*
X113107640Y-86925140D01*
X113028597Y-86872326D01*
X112940769Y-86835946D01*
X112847532Y-86817400D01*
X112752468Y-86817400D01*
X112725399Y-86822784D01*
X112725399Y-85343444D01*
X113090013Y-84978830D01*
X113095512Y-85006475D01*
X113131892Y-85094303D01*
X113184706Y-85173346D01*
X113251926Y-85240566D01*
X113330969Y-85293380D01*
X113418797Y-85329760D01*
X113512034Y-85348306D01*
X113576891Y-85348306D01*
X114389799Y-86161215D01*
X114400097Y-86173763D01*
X114450193Y-86214876D01*
X114507348Y-86245426D01*
X114569365Y-86264239D01*
X114617706Y-86269000D01*
X114617715Y-86269000D01*
X114633859Y-86270590D01*
X114650003Y-86269000D01*
X114923856Y-86269000D01*
X114940000Y-86270590D01*
X114956144Y-86269000D01*
X114956154Y-86269000D01*
X115004495Y-86264239D01*
X115005055Y-86264069D01*
X115230655Y-86264069D01*
X114767325Y-86727400D01*
X114702468Y-86727400D01*
X114609231Y-86745946D01*
X114521403Y-86782326D01*
X114442360Y-86835140D01*
X114375140Y-86902360D01*
X114322326Y-86981403D01*
X114285946Y-87069231D01*
X114267400Y-87162468D01*
X114267400Y-87257532D01*
X114285946Y-87350769D01*
X114322326Y-87438597D01*
X114375140Y-87517640D01*
X114442360Y-87584860D01*
X114521403Y-87637674D01*
X114609231Y-87674054D01*
X114702468Y-87692600D01*
X114797532Y-87692600D01*
X114890769Y-87674054D01*
X114978597Y-87637674D01*
X115057640Y-87584860D01*
X115124860Y-87517640D01*
X115177674Y-87438597D01*
X115214054Y-87350769D01*
X115232600Y-87257532D01*
X115232600Y-87192675D01*
X115776276Y-86649000D01*
X117763856Y-86649000D01*
X117780000Y-86650590D01*
X117796144Y-86649000D01*
X117796154Y-86649000D01*
X117844495Y-86644239D01*
X117906512Y-86625426D01*
X117963667Y-86594876D01*
X118013763Y-86553763D01*
X118024065Y-86541210D01*
X118097029Y-86468246D01*
X119922998Y-86468246D01*
X119922998Y-86591754D01*
X119947093Y-86712889D01*
X119994358Y-86826996D01*
X120062975Y-86929689D01*
X120150309Y-87017023D01*
X120253002Y-87085640D01*
X120367109Y-87132905D01*
X120488244Y-87157000D01*
X120611752Y-87157000D01*
X120732887Y-87132905D01*
X120846994Y-87085640D01*
X120949687Y-87017023D01*
X121037021Y-86929689D01*
X121105638Y-86826996D01*
X121152903Y-86712889D01*
X121176998Y-86591754D01*
X121176998Y-86468246D01*
X121152903Y-86347111D01*
X121105638Y-86233004D01*
X121037021Y-86130311D01*
X120949687Y-86042977D01*
X120846994Y-85974360D01*
X120732887Y-85927095D01*
X120611752Y-85903000D01*
X120488244Y-85903000D01*
X120367109Y-85927095D01*
X120253002Y-85974360D01*
X120150309Y-86042977D01*
X120062975Y-86130311D01*
X119994358Y-86233004D01*
X119947093Y-86347111D01*
X119922998Y-86468246D01*
X118097029Y-86468246D01*
X119568337Y-84996939D01*
X119576185Y-85015886D01*
X119628999Y-85094929D01*
X119696219Y-85162149D01*
X119775262Y-85214963D01*
X119863090Y-85251343D01*
X119956327Y-85269889D01*
X120021183Y-85269889D01*
X120197015Y-85445721D01*
X120207313Y-85458269D01*
X120257409Y-85499382D01*
X120314564Y-85529932D01*
X120376581Y-85548745D01*
X120424922Y-85553506D01*
X120424931Y-85553506D01*
X120441075Y-85555096D01*
X120457219Y-85553506D01*
X121292772Y-85553506D01*
X121338632Y-85599366D01*
X121417675Y-85652180D01*
X121505503Y-85688560D01*
X121598740Y-85707106D01*
X121693804Y-85707106D01*
X121787041Y-85688560D01*
X121874869Y-85652180D01*
X121953912Y-85599366D01*
X122021132Y-85532146D01*
X122073946Y-85453103D01*
X122110326Y-85365275D01*
X122128872Y-85272038D01*
X122128872Y-85176974D01*
X122110326Y-85083737D01*
X122073946Y-84995909D01*
X122028406Y-84927753D01*
X122028597Y-84927674D01*
X122107640Y-84874860D01*
X122174860Y-84807640D01*
X122227674Y-84728597D01*
X122264054Y-84640769D01*
X122282600Y-84547532D01*
X122282600Y-84452468D01*
X122264054Y-84359231D01*
X122227674Y-84271403D01*
X122174860Y-84192360D01*
X122107640Y-84125140D01*
X122028597Y-84072326D01*
X121940769Y-84035946D01*
X121847532Y-84017400D01*
X121780504Y-84017400D01*
X121755068Y-83996525D01*
X121697913Y-83965975D01*
X121635896Y-83947162D01*
X121587555Y-83942401D01*
X121587545Y-83942401D01*
X121571401Y-83940811D01*
X121555257Y-83942401D01*
X120133013Y-83942401D01*
X120796414Y-83279000D01*
X122613725Y-83279000D01*
X123302501Y-83967777D01*
G37*
%TD.AperFunction*%
D29*
X117465725Y-82856000D02*
X117237143Y-82856000D01*
X117220999Y-82854410D01*
X117204855Y-82856000D01*
X117204846Y-82856000D01*
X117156505Y-82860761D01*
X117094488Y-82879574D01*
X117037333Y-82910124D01*
X116987237Y-82951237D01*
X116976939Y-82963785D01*
X116095325Y-83845400D01*
X116030468Y-83845400D01*
X115937231Y-83863946D01*
X115849403Y-83900326D01*
X115770360Y-83953140D01*
X115703140Y-84020360D01*
X115650326Y-84099403D01*
X115613946Y-84187231D01*
X115595400Y-84280468D01*
X115595400Y-84375532D01*
X115613946Y-84468769D01*
X115650326Y-84556597D01*
X115703140Y-84635640D01*
X115770360Y-84702860D01*
X115849403Y-84755674D01*
X115937231Y-84792054D01*
X116030468Y-84810600D01*
X116125532Y-84810600D01*
X116218769Y-84792054D01*
X116284303Y-84764909D01*
X116284303Y-84807809D01*
X116302849Y-84901046D01*
X116311114Y-84921000D01*
X115306276Y-84921000D01*
X115252600Y-84867324D01*
X115252600Y-84802468D01*
X115234054Y-84709231D01*
X115197674Y-84621403D01*
X115144860Y-84542360D01*
X115077640Y-84475140D01*
X114998597Y-84422326D01*
X114910769Y-84385946D01*
X114817532Y-84367400D01*
X114722468Y-84367400D01*
X114629231Y-84385946D01*
X114541403Y-84422326D01*
X114471520Y-84469020D01*
X114467640Y-84465140D01*
X114388597Y-84412326D01*
X114300769Y-84375946D01*
X114207532Y-84357400D01*
X114112468Y-84357400D01*
X114019231Y-84375946D01*
X113931403Y-84412326D01*
X113852360Y-84465140D01*
X113842897Y-84474603D01*
X113788163Y-84438032D01*
X113700335Y-84401652D01*
X113672690Y-84396153D01*
X116919844Y-81149000D01*
X119172724Y-81149000D01*
X117465725Y-82856000D01*
%TA.AperFunction,Conductor*%
D30*
G36*
X117465725Y-82856000D02*
G01*
X117237143Y-82856000D01*
X117220999Y-82854410D01*
X117204855Y-82856000D01*
X117204846Y-82856000D01*
X117156505Y-82860761D01*
X117094488Y-82879574D01*
X117037333Y-82910124D01*
X116987237Y-82951237D01*
X116976939Y-82963785D01*
X116095325Y-83845400D01*
X116030468Y-83845400D01*
X115937231Y-83863946D01*
X115849403Y-83900326D01*
X115770360Y-83953140D01*
X115703140Y-84020360D01*
X115650326Y-84099403D01*
X115613946Y-84187231D01*
X115595400Y-84280468D01*
X115595400Y-84375532D01*
X115613946Y-84468769D01*
X115650326Y-84556597D01*
X115703140Y-84635640D01*
X115770360Y-84702860D01*
X115849403Y-84755674D01*
X115937231Y-84792054D01*
X116030468Y-84810600D01*
X116125532Y-84810600D01*
X116218769Y-84792054D01*
X116284303Y-84764909D01*
X116284303Y-84807809D01*
X116302849Y-84901046D01*
X116311114Y-84921000D01*
X115306276Y-84921000D01*
X115252600Y-84867324D01*
X115252600Y-84802468D01*
X115234054Y-84709231D01*
X115197674Y-84621403D01*
X115144860Y-84542360D01*
X115077640Y-84475140D01*
X114998597Y-84422326D01*
X114910769Y-84385946D01*
X114817532Y-84367400D01*
X114722468Y-84367400D01*
X114629231Y-84385946D01*
X114541403Y-84422326D01*
X114471520Y-84469020D01*
X114467640Y-84465140D01*
X114388597Y-84412326D01*
X114300769Y-84375946D01*
X114207532Y-84357400D01*
X114112468Y-84357400D01*
X114019231Y-84375946D01*
X113931403Y-84412326D01*
X113852360Y-84465140D01*
X113842897Y-84474603D01*
X113788163Y-84438032D01*
X113700335Y-84401652D01*
X113672690Y-84396153D01*
X116919844Y-81149000D01*
X119172724Y-81149000D01*
X117465725Y-82856000D01*
G37*
%TD.AperFunction*%
D29*
X123242000Y-78984724D02*
X121275725Y-80951000D01*
X121205997Y-80951000D01*
X121222600Y-80867532D01*
X121222600Y-80772468D01*
X121204054Y-80679231D01*
X121167674Y-80591403D01*
X121114860Y-80512360D01*
X121047640Y-80445140D01*
X120968597Y-80392326D01*
X120880769Y-80355946D01*
X120787532Y-80337400D01*
X120692468Y-80337400D01*
X120599231Y-80355946D01*
X120511403Y-80392326D01*
X120432360Y-80445140D01*
X120386500Y-80491000D01*
X116799712Y-80491000D01*
X116783568Y-80489410D01*
X116767424Y-80491000D01*
X116767414Y-80491000D01*
X116719073Y-80495761D01*
X116657056Y-80514574D01*
X116599901Y-80545124D01*
X116549805Y-80586237D01*
X116539507Y-80598785D01*
X113629000Y-83509293D01*
X113629000Y-83401614D01*
X113630590Y-83385470D01*
X113629000Y-83369326D01*
X113629000Y-83369317D01*
X113624239Y-83320976D01*
X113612202Y-83281295D01*
X113678769Y-83268054D01*
X113766597Y-83231674D01*
X113845640Y-83178860D01*
X113912860Y-83111640D01*
X113965674Y-83032597D01*
X114002054Y-82944769D01*
X114020600Y-82851532D01*
X114020600Y-82756468D01*
X114004541Y-82675734D01*
X116441676Y-80238600D01*
X116506532Y-80238600D01*
X116599769Y-80220054D01*
X116687597Y-80183674D01*
X116766640Y-80130860D01*
X116833860Y-80063640D01*
X116886674Y-79984597D01*
X116923054Y-79896769D01*
X116941600Y-79803532D01*
X116941600Y-79708468D01*
X116923054Y-79615231D01*
X116886674Y-79527403D01*
X116833860Y-79448360D01*
X116766640Y-79381140D01*
X116687597Y-79328326D01*
X116599769Y-79291946D01*
X116506532Y-79273400D01*
X116411468Y-79273400D01*
X116318231Y-79291946D01*
X116230403Y-79328326D01*
X116151360Y-79381140D01*
X116084140Y-79448360D01*
X116031326Y-79527403D01*
X115994946Y-79615231D01*
X115976400Y-79708468D01*
X115976400Y-79773324D01*
X113412895Y-82336830D01*
X113397231Y-82339946D01*
X113309403Y-82376326D01*
X113230360Y-82429140D01*
X113163140Y-82496360D01*
X113110326Y-82575403D01*
X113073946Y-82663231D01*
X113068818Y-82689013D01*
X112262974Y-81883170D01*
X112252672Y-81870617D01*
X112202576Y-81829504D01*
X112145421Y-81798954D01*
X112083404Y-81780141D01*
X112050656Y-81776916D01*
X112003260Y-81729520D01*
X111924217Y-81676706D01*
X111836389Y-81640326D01*
X111751041Y-81623349D01*
X111777849Y-81605437D01*
X111845069Y-81538217D01*
X111897883Y-81459174D01*
X111934263Y-81371346D01*
X111952809Y-81278109D01*
X111952809Y-81266407D01*
X111964639Y-81264054D01*
X112052467Y-81227674D01*
X112131510Y-81174860D01*
X112198730Y-81107640D01*
X112251544Y-81028597D01*
X112287924Y-80940769D01*
X112306470Y-80847532D01*
X112306470Y-80752468D01*
X112287924Y-80659231D01*
X112251544Y-80571403D01*
X112198730Y-80492360D01*
X112131510Y-80425140D01*
X112052467Y-80372326D01*
X111964639Y-80335946D01*
X111871402Y-80317400D01*
X111776338Y-80317400D01*
X111683101Y-80335946D01*
X111595273Y-80372326D01*
X111516230Y-80425140D01*
X111470370Y-80471000D01*
X110016143Y-80471000D01*
X109999999Y-80469410D01*
X109983855Y-80471000D01*
X109983846Y-80471000D01*
X109935505Y-80475761D01*
X109873488Y-80494574D01*
X109838101Y-80513489D01*
X109816332Y-80525124D01*
X109796676Y-80541256D01*
X109766237Y-80566237D01*
X109755939Y-80578785D01*
X109329000Y-81005725D01*
X109329000Y-80776275D01*
X110037049Y-80068227D01*
X111203920Y-80068227D01*
X111249780Y-80114087D01*
X111328823Y-80166901D01*
X111416651Y-80203281D01*
X111509888Y-80221827D01*
X111604952Y-80221827D01*
X111698189Y-80203281D01*
X111786017Y-80166901D01*
X111865060Y-80114087D01*
X111932280Y-80046867D01*
X111985094Y-79967824D01*
X112021474Y-79879996D01*
X112040020Y-79786759D01*
X112040020Y-79691695D01*
X112021474Y-79598458D01*
X111985094Y-79510630D01*
X111932280Y-79431587D01*
X111865060Y-79364367D01*
X111856753Y-79358816D01*
X111877640Y-79344860D01*
X111944860Y-79277640D01*
X111997674Y-79198597D01*
X112034054Y-79110769D01*
X112052600Y-79017532D01*
X112052600Y-78922468D01*
X112034054Y-78829231D01*
X111997674Y-78741403D01*
X111957798Y-78681723D01*
X111964502Y-78669180D01*
X112000812Y-78549482D01*
X112013072Y-78425000D01*
X112010000Y-78273250D01*
X111851252Y-78114502D01*
X111975278Y-78114502D01*
X112448000Y-78587225D01*
X112448001Y-79001816D01*
X112394091Y-79037837D01*
X112306757Y-79125171D01*
X112238140Y-79227864D01*
X112190875Y-79341971D01*
X112166780Y-79463106D01*
X112166780Y-79586614D01*
X112190875Y-79707749D01*
X112238140Y-79821856D01*
X112306757Y-79924549D01*
X112394091Y-80011883D01*
X112496784Y-80080500D01*
X112610891Y-80127765D01*
X112732026Y-80151860D01*
X112855534Y-80151860D01*
X112976669Y-80127765D01*
X113090776Y-80080500D01*
X113193469Y-80011883D01*
X113228492Y-79976860D01*
X114436537Y-79976860D01*
X114458742Y-79979047D01*
X114480947Y-79976860D01*
X114547349Y-79970320D01*
X114632552Y-79944474D01*
X114711075Y-79902503D01*
X114779901Y-79846019D01*
X114794065Y-79828760D01*
X115941405Y-78681421D01*
X115958659Y-78667261D01*
X116015143Y-78598435D01*
X116057114Y-78519912D01*
X116066610Y-78488607D01*
X116082960Y-78434710D01*
X116091687Y-78346102D01*
X116089500Y-78323897D01*
X116089500Y-78018002D01*
X116179465Y-78107967D01*
X116197526Y-78129974D01*
X116219533Y-78148035D01*
X116219535Y-78148037D01*
X116239480Y-78164405D01*
X116285385Y-78202079D01*
X116385624Y-78255657D01*
X116494388Y-78288650D01*
X116579164Y-78297000D01*
X116579170Y-78297000D01*
X116607499Y-78299790D01*
X116635828Y-78297000D01*
X116914571Y-78297000D01*
X116977111Y-78322905D01*
X117098246Y-78347000D01*
X117165000Y-78347000D01*
X117165000Y-78414502D01*
X117323748Y-78414502D01*
X117165000Y-78573250D01*
X117161928Y-78775000D01*
X117174188Y-78899482D01*
X117210498Y-79019180D01*
X117269463Y-79129494D01*
X117348815Y-79226185D01*
X117445506Y-79305537D01*
X117555820Y-79364502D01*
X117675518Y-79400812D01*
X117800000Y-79413072D01*
X118214250Y-79410000D01*
X118373000Y-79251250D01*
X118373000Y-78414500D01*
X118627000Y-78414500D01*
X118627000Y-79251250D01*
X118785750Y-79410000D01*
X119200000Y-79413072D01*
X119324482Y-79400812D01*
X119444180Y-79364502D01*
X119500000Y-79334665D01*
X119555820Y-79364502D01*
X119675518Y-79400812D01*
X119800000Y-79413072D01*
X120214250Y-79410000D01*
X120373000Y-79251250D01*
X120373000Y-78414500D01*
X120627000Y-78414500D01*
X120627000Y-79251250D01*
X120785750Y-79410000D01*
X121200000Y-79413072D01*
X121324482Y-79400812D01*
X121444180Y-79364502D01*
X121554494Y-79305537D01*
X121651185Y-79226185D01*
X121730537Y-79129494D01*
X121789502Y-79019180D01*
X121825812Y-78899482D01*
X121838072Y-78775000D01*
X121835000Y-78573250D01*
X121676250Y-78414500D01*
X120627000Y-78414500D01*
X120373000Y-78414500D01*
X118627000Y-78414500D01*
X118373000Y-78414500D01*
X118353000Y-78414500D01*
X118353000Y-78160500D01*
X118373000Y-78160500D01*
X118373000Y-78140500D01*
X118627000Y-78140500D01*
X118627000Y-78160500D01*
X120373000Y-78160500D01*
X120373000Y-78140500D01*
X120627000Y-78140500D01*
X120627000Y-78160500D01*
X121676250Y-78160500D01*
X121835000Y-78001750D01*
X121838072Y-77800000D01*
X121825812Y-77675518D01*
X121789502Y-77555820D01*
X121730537Y-77445506D01*
X121651185Y-77348815D01*
X121554494Y-77269463D01*
X121444180Y-77210498D01*
X121324482Y-77174188D01*
X121215594Y-77163464D01*
X121274221Y-77132127D01*
X121360950Y-77060950D01*
X121419588Y-76989500D01*
X121859169Y-76989500D01*
X121887500Y-76992290D01*
X121915831Y-76989500D01*
X121915836Y-76989500D01*
X121945545Y-76986574D01*
X122000611Y-76981151D01*
X122045270Y-76967603D01*
X122109376Y-76948157D01*
X122209615Y-76894579D01*
X122297474Y-76822474D01*
X122315539Y-76800462D01*
X123242000Y-75874001D01*
X123242000Y-78984724D01*
%TA.AperFunction,Conductor*%
D30*
G36*
X123242000Y-78984724D02*
G01*
X121275725Y-80951000D01*
X121205997Y-80951000D01*
X121222600Y-80867532D01*
X121222600Y-80772468D01*
X121204054Y-80679231D01*
X121167674Y-80591403D01*
X121114860Y-80512360D01*
X121047640Y-80445140D01*
X120968597Y-80392326D01*
X120880769Y-80355946D01*
X120787532Y-80337400D01*
X120692468Y-80337400D01*
X120599231Y-80355946D01*
X120511403Y-80392326D01*
X120432360Y-80445140D01*
X120386500Y-80491000D01*
X116799712Y-80491000D01*
X116783568Y-80489410D01*
X116767424Y-80491000D01*
X116767414Y-80491000D01*
X116719073Y-80495761D01*
X116657056Y-80514574D01*
X116599901Y-80545124D01*
X116549805Y-80586237D01*
X116539507Y-80598785D01*
X113629000Y-83509293D01*
X113629000Y-83401614D01*
X113630590Y-83385470D01*
X113629000Y-83369326D01*
X113629000Y-83369317D01*
X113624239Y-83320976D01*
X113612202Y-83281295D01*
X113678769Y-83268054D01*
X113766597Y-83231674D01*
X113845640Y-83178860D01*
X113912860Y-83111640D01*
X113965674Y-83032597D01*
X114002054Y-82944769D01*
X114020600Y-82851532D01*
X114020600Y-82756468D01*
X114004541Y-82675734D01*
X116441676Y-80238600D01*
X116506532Y-80238600D01*
X116599769Y-80220054D01*
X116687597Y-80183674D01*
X116766640Y-80130860D01*
X116833860Y-80063640D01*
X116886674Y-79984597D01*
X116923054Y-79896769D01*
X116941600Y-79803532D01*
X116941600Y-79708468D01*
X116923054Y-79615231D01*
X116886674Y-79527403D01*
X116833860Y-79448360D01*
X116766640Y-79381140D01*
X116687597Y-79328326D01*
X116599769Y-79291946D01*
X116506532Y-79273400D01*
X116411468Y-79273400D01*
X116318231Y-79291946D01*
X116230403Y-79328326D01*
X116151360Y-79381140D01*
X116084140Y-79448360D01*
X116031326Y-79527403D01*
X115994946Y-79615231D01*
X115976400Y-79708468D01*
X115976400Y-79773324D01*
X113412895Y-82336830D01*
X113397231Y-82339946D01*
X113309403Y-82376326D01*
X113230360Y-82429140D01*
X113163140Y-82496360D01*
X113110326Y-82575403D01*
X113073946Y-82663231D01*
X113068818Y-82689013D01*
X112262974Y-81883170D01*
X112252672Y-81870617D01*
X112202576Y-81829504D01*
X112145421Y-81798954D01*
X112083404Y-81780141D01*
X112050656Y-81776916D01*
X112003260Y-81729520D01*
X111924217Y-81676706D01*
X111836389Y-81640326D01*
X111751041Y-81623349D01*
X111777849Y-81605437D01*
X111845069Y-81538217D01*
X111897883Y-81459174D01*
X111934263Y-81371346D01*
X111952809Y-81278109D01*
X111952809Y-81266407D01*
X111964639Y-81264054D01*
X112052467Y-81227674D01*
X112131510Y-81174860D01*
X112198730Y-81107640D01*
X112251544Y-81028597D01*
X112287924Y-80940769D01*
X112306470Y-80847532D01*
X112306470Y-80752468D01*
X112287924Y-80659231D01*
X112251544Y-80571403D01*
X112198730Y-80492360D01*
X112131510Y-80425140D01*
X112052467Y-80372326D01*
X111964639Y-80335946D01*
X111871402Y-80317400D01*
X111776338Y-80317400D01*
X111683101Y-80335946D01*
X111595273Y-80372326D01*
X111516230Y-80425140D01*
X111470370Y-80471000D01*
X110016143Y-80471000D01*
X109999999Y-80469410D01*
X109983855Y-80471000D01*
X109983846Y-80471000D01*
X109935505Y-80475761D01*
X109873488Y-80494574D01*
X109838101Y-80513489D01*
X109816332Y-80525124D01*
X109796676Y-80541256D01*
X109766237Y-80566237D01*
X109755939Y-80578785D01*
X109329000Y-81005725D01*
X109329000Y-80776275D01*
X110037049Y-80068227D01*
X111203920Y-80068227D01*
X111249780Y-80114087D01*
X111328823Y-80166901D01*
X111416651Y-80203281D01*
X111509888Y-80221827D01*
X111604952Y-80221827D01*
X111698189Y-80203281D01*
X111786017Y-80166901D01*
X111865060Y-80114087D01*
X111932280Y-80046867D01*
X111985094Y-79967824D01*
X112021474Y-79879996D01*
X112040020Y-79786759D01*
X112040020Y-79691695D01*
X112021474Y-79598458D01*
X111985094Y-79510630D01*
X111932280Y-79431587D01*
X111865060Y-79364367D01*
X111856753Y-79358816D01*
X111877640Y-79344860D01*
X111944860Y-79277640D01*
X111997674Y-79198597D01*
X112034054Y-79110769D01*
X112052600Y-79017532D01*
X112052600Y-78922468D01*
X112034054Y-78829231D01*
X111997674Y-78741403D01*
X111957798Y-78681723D01*
X111964502Y-78669180D01*
X112000812Y-78549482D01*
X112013072Y-78425000D01*
X112010000Y-78273250D01*
X111851252Y-78114502D01*
X111975278Y-78114502D01*
X112448000Y-78587225D01*
X112448001Y-79001816D01*
X112394091Y-79037837D01*
X112306757Y-79125171D01*
X112238140Y-79227864D01*
X112190875Y-79341971D01*
X112166780Y-79463106D01*
X112166780Y-79586614D01*
X112190875Y-79707749D01*
X112238140Y-79821856D01*
X112306757Y-79924549D01*
X112394091Y-80011883D01*
X112496784Y-80080500D01*
X112610891Y-80127765D01*
X112732026Y-80151860D01*
X112855534Y-80151860D01*
X112976669Y-80127765D01*
X113090776Y-80080500D01*
X113193469Y-80011883D01*
X113228492Y-79976860D01*
X114436537Y-79976860D01*
X114458742Y-79979047D01*
X114480947Y-79976860D01*
X114547349Y-79970320D01*
X114632552Y-79944474D01*
X114711075Y-79902503D01*
X114779901Y-79846019D01*
X114794065Y-79828760D01*
X115941405Y-78681421D01*
X115958659Y-78667261D01*
X116015143Y-78598435D01*
X116057114Y-78519912D01*
X116066610Y-78488607D01*
X116082960Y-78434710D01*
X116091687Y-78346102D01*
X116089500Y-78323897D01*
X116089500Y-78018002D01*
X116179465Y-78107967D01*
X116197526Y-78129974D01*
X116219533Y-78148035D01*
X116219535Y-78148037D01*
X116239480Y-78164405D01*
X116285385Y-78202079D01*
X116385624Y-78255657D01*
X116494388Y-78288650D01*
X116579164Y-78297000D01*
X116579170Y-78297000D01*
X116607499Y-78299790D01*
X116635828Y-78297000D01*
X116914571Y-78297000D01*
X116977111Y-78322905D01*
X117098246Y-78347000D01*
X117165000Y-78347000D01*
X117165000Y-78414502D01*
X117323748Y-78414502D01*
X117165000Y-78573250D01*
X117161928Y-78775000D01*
X117174188Y-78899482D01*
X117210498Y-79019180D01*
X117269463Y-79129494D01*
X117348815Y-79226185D01*
X117445506Y-79305537D01*
X117555820Y-79364502D01*
X117675518Y-79400812D01*
X117800000Y-79413072D01*
X118214250Y-79410000D01*
X118373000Y-79251250D01*
X118373000Y-78414500D01*
X118627000Y-78414500D01*
X118627000Y-79251250D01*
X118785750Y-79410000D01*
X119200000Y-79413072D01*
X119324482Y-79400812D01*
X119444180Y-79364502D01*
X119500000Y-79334665D01*
X119555820Y-79364502D01*
X119675518Y-79400812D01*
X119800000Y-79413072D01*
X120214250Y-79410000D01*
X120373000Y-79251250D01*
X120373000Y-78414500D01*
X120627000Y-78414500D01*
X120627000Y-79251250D01*
X120785750Y-79410000D01*
X121200000Y-79413072D01*
X121324482Y-79400812D01*
X121444180Y-79364502D01*
X121554494Y-79305537D01*
X121651185Y-79226185D01*
X121730537Y-79129494D01*
X121789502Y-79019180D01*
X121825812Y-78899482D01*
X121838072Y-78775000D01*
X121835000Y-78573250D01*
X121676250Y-78414500D01*
X120627000Y-78414500D01*
X120373000Y-78414500D01*
X118627000Y-78414500D01*
X118373000Y-78414500D01*
X118353000Y-78414500D01*
X118353000Y-78160500D01*
X118373000Y-78160500D01*
X118373000Y-78140500D01*
X118627000Y-78140500D01*
X118627000Y-78160500D01*
X120373000Y-78160500D01*
X120373000Y-78140500D01*
X120627000Y-78140500D01*
X120627000Y-78160500D01*
X121676250Y-78160500D01*
X121835000Y-78001750D01*
X121838072Y-77800000D01*
X121825812Y-77675518D01*
X121789502Y-77555820D01*
X121730537Y-77445506D01*
X121651185Y-77348815D01*
X121554494Y-77269463D01*
X121444180Y-77210498D01*
X121324482Y-77174188D01*
X121215594Y-77163464D01*
X121274221Y-77132127D01*
X121360950Y-77060950D01*
X121419588Y-76989500D01*
X121859169Y-76989500D01*
X121887500Y-76992290D01*
X121915831Y-76989500D01*
X121915836Y-76989500D01*
X121945545Y-76986574D01*
X122000611Y-76981151D01*
X122045270Y-76967603D01*
X122109376Y-76948157D01*
X122209615Y-76894579D01*
X122297474Y-76822474D01*
X122315539Y-76800462D01*
X123242000Y-75874001D01*
X123242000Y-78984724D01*
G37*
%TD.AperFunction*%
D29*
X123429128Y-58890800D02*
X123432200Y-59455050D01*
X123590950Y-59613800D01*
X124790200Y-59613800D01*
X124790200Y-59593800D01*
X125044200Y-59593800D01*
X125044200Y-59613800D01*
X125064200Y-59613800D01*
X125064200Y-59867800D01*
X125044200Y-59867800D01*
X125044200Y-61067050D01*
X125202950Y-61225800D01*
X125767200Y-61228872D01*
X125886000Y-61217172D01*
X125886000Y-61957194D01*
X125820368Y-61798744D01*
X125709179Y-61632338D01*
X125567662Y-61490821D01*
X125401256Y-61379632D01*
X125216356Y-61303044D01*
X125020067Y-61264000D01*
X124819933Y-61264000D01*
X124623644Y-61303044D01*
X124438744Y-61379632D01*
X124272338Y-61490821D01*
X124130821Y-61632338D01*
X124019632Y-61798744D01*
X123943044Y-61983644D01*
X123904000Y-62179933D01*
X123904000Y-62380067D01*
X123943044Y-62576356D01*
X124019632Y-62761256D01*
X124130821Y-62927662D01*
X124272338Y-63069179D01*
X124438744Y-63180368D01*
X124623644Y-63256956D01*
X124819933Y-63296000D01*
X125020067Y-63296000D01*
X125216356Y-63256956D01*
X125401256Y-63180368D01*
X125567662Y-63069179D01*
X125709179Y-62927662D01*
X125820368Y-62761256D01*
X125886000Y-62602806D01*
X125886000Y-64497194D01*
X125820368Y-64338744D01*
X125709179Y-64172338D01*
X125567662Y-64030821D01*
X125401256Y-63919632D01*
X125216356Y-63843044D01*
X125020067Y-63804000D01*
X124819933Y-63804000D01*
X124623644Y-63843044D01*
X124438744Y-63919632D01*
X124272338Y-64030821D01*
X124130821Y-64172338D01*
X124019632Y-64338744D01*
X123943044Y-64523644D01*
X123904000Y-64719933D01*
X123904000Y-64920067D01*
X123943044Y-65116356D01*
X124019632Y-65301256D01*
X124130821Y-65467662D01*
X124272338Y-65609179D01*
X124438744Y-65720368D01*
X124623644Y-65796956D01*
X124819933Y-65836000D01*
X125020067Y-65836000D01*
X125216356Y-65796956D01*
X125401256Y-65720368D01*
X125567662Y-65609179D01*
X125709179Y-65467662D01*
X125820368Y-65301256D01*
X125886000Y-65142806D01*
X125886000Y-67037194D01*
X125820368Y-66878744D01*
X125709179Y-66712338D01*
X125567662Y-66570821D01*
X125401256Y-66459632D01*
X125216356Y-66383044D01*
X125020067Y-66344000D01*
X124819933Y-66344000D01*
X124623644Y-66383044D01*
X124438744Y-66459632D01*
X124272338Y-66570821D01*
X124130821Y-66712338D01*
X124019632Y-66878744D01*
X123943044Y-67063644D01*
X123904000Y-67259933D01*
X123904000Y-67460067D01*
X123943044Y-67656356D01*
X124019632Y-67841256D01*
X124130821Y-68007662D01*
X124272338Y-68149179D01*
X124438744Y-68260368D01*
X124623644Y-68336956D01*
X124819933Y-68376000D01*
X125020067Y-68376000D01*
X125216356Y-68336956D01*
X125401256Y-68260368D01*
X125567662Y-68149179D01*
X125709179Y-68007662D01*
X125820368Y-67841256D01*
X125886000Y-67682806D01*
X125886000Y-69577194D01*
X125820368Y-69418744D01*
X125709179Y-69252338D01*
X125567662Y-69110821D01*
X125401256Y-68999632D01*
X125216356Y-68923044D01*
X125020067Y-68884000D01*
X124819933Y-68884000D01*
X124623644Y-68923044D01*
X124438744Y-68999632D01*
X124272338Y-69110821D01*
X124130821Y-69252338D01*
X124019632Y-69418744D01*
X123943044Y-69603644D01*
X123904000Y-69799933D01*
X123904000Y-70000067D01*
X123943044Y-70196356D01*
X124019632Y-70381256D01*
X124130821Y-70547662D01*
X124272338Y-70689179D01*
X124438744Y-70800368D01*
X124623644Y-70876956D01*
X124819933Y-70916000D01*
X125020067Y-70916000D01*
X125216356Y-70876956D01*
X125401256Y-70800368D01*
X125567662Y-70689179D01*
X125709179Y-70547662D01*
X125820368Y-70381256D01*
X125886000Y-70222806D01*
X125886000Y-72117194D01*
X125820368Y-71958744D01*
X125709179Y-71792338D01*
X125567662Y-71650821D01*
X125401256Y-71539632D01*
X125216356Y-71463044D01*
X125020067Y-71424000D01*
X124819933Y-71424000D01*
X124623644Y-71463044D01*
X124438744Y-71539632D01*
X124272338Y-71650821D01*
X124130821Y-71792338D01*
X124019632Y-71958744D01*
X123943044Y-72143644D01*
X123904000Y-72339933D01*
X123904000Y-72540067D01*
X123943044Y-72736356D01*
X124019632Y-72921256D01*
X124130821Y-73087662D01*
X124272338Y-73229179D01*
X124438744Y-73340368D01*
X124623644Y-73416956D01*
X124819933Y-73456000D01*
X125020067Y-73456000D01*
X125216356Y-73416956D01*
X125401256Y-73340368D01*
X125567662Y-73229179D01*
X125709179Y-73087662D01*
X125820368Y-72921256D01*
X125886000Y-72762806D01*
X125886000Y-74657194D01*
X125820368Y-74498744D01*
X125709179Y-74332338D01*
X125567662Y-74190821D01*
X125401256Y-74079632D01*
X125216356Y-74003044D01*
X125020067Y-73964000D01*
X124819933Y-73964000D01*
X124623644Y-74003044D01*
X124438744Y-74079632D01*
X124272338Y-74190821D01*
X124130821Y-74332338D01*
X124019632Y-74498744D01*
X123943044Y-74683644D01*
X123904000Y-74879933D01*
X123904000Y-75080067D01*
X123943044Y-75276356D01*
X124019632Y-75461256D01*
X124130821Y-75627662D01*
X124272338Y-75769179D01*
X124438744Y-75880368D01*
X124623644Y-75956956D01*
X124819933Y-75996000D01*
X125020067Y-75996000D01*
X125216356Y-75956956D01*
X125401256Y-75880368D01*
X125567662Y-75769179D01*
X125709179Y-75627662D01*
X125820368Y-75461256D01*
X125886000Y-75302806D01*
X125886000Y-77197194D01*
X125820368Y-77038744D01*
X125709179Y-76872338D01*
X125567662Y-76730821D01*
X125401256Y-76619632D01*
X125216356Y-76543044D01*
X125020067Y-76504000D01*
X124819933Y-76504000D01*
X124623644Y-76543044D01*
X124438744Y-76619632D01*
X124272338Y-76730821D01*
X124130821Y-76872338D01*
X124019632Y-77038744D01*
X123943044Y-77223644D01*
X123904000Y-77419933D01*
X123904000Y-77620067D01*
X123943044Y-77816356D01*
X124019632Y-78001256D01*
X124130821Y-78167662D01*
X124272338Y-78309179D01*
X124438744Y-78420368D01*
X124623644Y-78496956D01*
X124819933Y-78536000D01*
X125020067Y-78536000D01*
X125216356Y-78496956D01*
X125401256Y-78420368D01*
X125567662Y-78309179D01*
X125709179Y-78167662D01*
X125820368Y-78001256D01*
X125886000Y-77842806D01*
X125886000Y-79737194D01*
X125820368Y-79578744D01*
X125709179Y-79412338D01*
X125567662Y-79270821D01*
X125401256Y-79159632D01*
X125216356Y-79083044D01*
X125020067Y-79044000D01*
X124819933Y-79044000D01*
X124623644Y-79083044D01*
X124438744Y-79159632D01*
X124272338Y-79270821D01*
X124130821Y-79412338D01*
X124019632Y-79578744D01*
X123943044Y-79763644D01*
X123904000Y-79959933D01*
X123904000Y-80160067D01*
X123936277Y-80322337D01*
X123896229Y-80282289D01*
X123817186Y-80229475D01*
X123729358Y-80193095D01*
X123636121Y-80174549D01*
X123541057Y-80174549D01*
X123447820Y-80193095D01*
X123359992Y-80229475D01*
X123280949Y-80282289D01*
X123213729Y-80349509D01*
X123160915Y-80428552D01*
X123124535Y-80516380D01*
X123105989Y-80609617D01*
X123105989Y-80676645D01*
X123059231Y-80685946D01*
X122971403Y-80722326D01*
X122892360Y-80775140D01*
X122825140Y-80842360D01*
X122772326Y-80921403D01*
X122735946Y-81009231D01*
X122717400Y-81102468D01*
X122717400Y-81167324D01*
X122463725Y-81421000D01*
X121736275Y-81421000D01*
X123792216Y-79365060D01*
X123804763Y-79354763D01*
X123845876Y-79304667D01*
X123876426Y-79247512D01*
X123895239Y-79185495D01*
X123900000Y-79137154D01*
X123900000Y-79137145D01*
X123901590Y-79121001D01*
X123900000Y-79104857D01*
X123900000Y-64278143D01*
X123901590Y-64261999D01*
X123900000Y-64245855D01*
X123900000Y-64245846D01*
X123895239Y-64197505D01*
X123876426Y-64135488D01*
X123845876Y-64078333D01*
X123804763Y-64028237D01*
X123792215Y-64017939D01*
X122706200Y-62931925D01*
X122706200Y-60704234D01*
X122858456Y-60641168D01*
X122933836Y-60590800D01*
X123429128Y-60590800D01*
X123441388Y-60715282D01*
X123477698Y-60834980D01*
X123536663Y-60945294D01*
X123616015Y-61041985D01*
X123712706Y-61121337D01*
X123823020Y-61180302D01*
X123942718Y-61216612D01*
X124067200Y-61228872D01*
X124631450Y-61225800D01*
X124790200Y-61067050D01*
X124790200Y-59867800D01*
X123590950Y-59867800D01*
X123432200Y-60026550D01*
X123429128Y-60590800D01*
X122933836Y-60590800D01*
X123024862Y-60529979D01*
X123166379Y-60388462D01*
X123277568Y-60222056D01*
X123354156Y-60037156D01*
X123393200Y-59840867D01*
X123393200Y-59640733D01*
X123354156Y-59444444D01*
X123277568Y-59259544D01*
X123166379Y-59093138D01*
X123024862Y-58951621D01*
X122858456Y-58840432D01*
X122698075Y-58774000D01*
X123440631Y-58774000D01*
X123429128Y-58890800D01*
%TA.AperFunction,Conductor*%
D30*
G36*
X123429128Y-58890800D02*
G01*
X123432200Y-59455050D01*
X123590950Y-59613800D01*
X124790200Y-59613800D01*
X124790200Y-59593800D01*
X125044200Y-59593800D01*
X125044200Y-59613800D01*
X125064200Y-59613800D01*
X125064200Y-59867800D01*
X125044200Y-59867800D01*
X125044200Y-61067050D01*
X125202950Y-61225800D01*
X125767200Y-61228872D01*
X125886000Y-61217172D01*
X125886000Y-61957194D01*
X125820368Y-61798744D01*
X125709179Y-61632338D01*
X125567662Y-61490821D01*
X125401256Y-61379632D01*
X125216356Y-61303044D01*
X125020067Y-61264000D01*
X124819933Y-61264000D01*
X124623644Y-61303044D01*
X124438744Y-61379632D01*
X124272338Y-61490821D01*
X124130821Y-61632338D01*
X124019632Y-61798744D01*
X123943044Y-61983644D01*
X123904000Y-62179933D01*
X123904000Y-62380067D01*
X123943044Y-62576356D01*
X124019632Y-62761256D01*
X124130821Y-62927662D01*
X124272338Y-63069179D01*
X124438744Y-63180368D01*
X124623644Y-63256956D01*
X124819933Y-63296000D01*
X125020067Y-63296000D01*
X125216356Y-63256956D01*
X125401256Y-63180368D01*
X125567662Y-63069179D01*
X125709179Y-62927662D01*
X125820368Y-62761256D01*
X125886000Y-62602806D01*
X125886000Y-64497194D01*
X125820368Y-64338744D01*
X125709179Y-64172338D01*
X125567662Y-64030821D01*
X125401256Y-63919632D01*
X125216356Y-63843044D01*
X125020067Y-63804000D01*
X124819933Y-63804000D01*
X124623644Y-63843044D01*
X124438744Y-63919632D01*
X124272338Y-64030821D01*
X124130821Y-64172338D01*
X124019632Y-64338744D01*
X123943044Y-64523644D01*
X123904000Y-64719933D01*
X123904000Y-64920067D01*
X123943044Y-65116356D01*
X124019632Y-65301256D01*
X124130821Y-65467662D01*
X124272338Y-65609179D01*
X124438744Y-65720368D01*
X124623644Y-65796956D01*
X124819933Y-65836000D01*
X125020067Y-65836000D01*
X125216356Y-65796956D01*
X125401256Y-65720368D01*
X125567662Y-65609179D01*
X125709179Y-65467662D01*
X125820368Y-65301256D01*
X125886000Y-65142806D01*
X125886000Y-67037194D01*
X125820368Y-66878744D01*
X125709179Y-66712338D01*
X125567662Y-66570821D01*
X125401256Y-66459632D01*
X125216356Y-66383044D01*
X125020067Y-66344000D01*
X124819933Y-66344000D01*
X124623644Y-66383044D01*
X124438744Y-66459632D01*
X124272338Y-66570821D01*
X124130821Y-66712338D01*
X124019632Y-66878744D01*
X123943044Y-67063644D01*
X123904000Y-67259933D01*
X123904000Y-67460067D01*
X123943044Y-67656356D01*
X124019632Y-67841256D01*
X124130821Y-68007662D01*
X124272338Y-68149179D01*
X124438744Y-68260368D01*
X124623644Y-68336956D01*
X124819933Y-68376000D01*
X125020067Y-68376000D01*
X125216356Y-68336956D01*
X125401256Y-68260368D01*
X125567662Y-68149179D01*
X125709179Y-68007662D01*
X125820368Y-67841256D01*
X125886000Y-67682806D01*
X125886000Y-69577194D01*
X125820368Y-69418744D01*
X125709179Y-69252338D01*
X125567662Y-69110821D01*
X125401256Y-68999632D01*
X125216356Y-68923044D01*
X125020067Y-68884000D01*
X124819933Y-68884000D01*
X124623644Y-68923044D01*
X124438744Y-68999632D01*
X124272338Y-69110821D01*
X124130821Y-69252338D01*
X124019632Y-69418744D01*
X123943044Y-69603644D01*
X123904000Y-69799933D01*
X123904000Y-70000067D01*
X123943044Y-70196356D01*
X124019632Y-70381256D01*
X124130821Y-70547662D01*
X124272338Y-70689179D01*
X124438744Y-70800368D01*
X124623644Y-70876956D01*
X124819933Y-70916000D01*
X125020067Y-70916000D01*
X125216356Y-70876956D01*
X125401256Y-70800368D01*
X125567662Y-70689179D01*
X125709179Y-70547662D01*
X125820368Y-70381256D01*
X125886000Y-70222806D01*
X125886000Y-72117194D01*
X125820368Y-71958744D01*
X125709179Y-71792338D01*
X125567662Y-71650821D01*
X125401256Y-71539632D01*
X125216356Y-71463044D01*
X125020067Y-71424000D01*
X124819933Y-71424000D01*
X124623644Y-71463044D01*
X124438744Y-71539632D01*
X124272338Y-71650821D01*
X124130821Y-71792338D01*
X124019632Y-71958744D01*
X123943044Y-72143644D01*
X123904000Y-72339933D01*
X123904000Y-72540067D01*
X123943044Y-72736356D01*
X124019632Y-72921256D01*
X124130821Y-73087662D01*
X124272338Y-73229179D01*
X124438744Y-73340368D01*
X124623644Y-73416956D01*
X124819933Y-73456000D01*
X125020067Y-73456000D01*
X125216356Y-73416956D01*
X125401256Y-73340368D01*
X125567662Y-73229179D01*
X125709179Y-73087662D01*
X125820368Y-72921256D01*
X125886000Y-72762806D01*
X125886000Y-74657194D01*
X125820368Y-74498744D01*
X125709179Y-74332338D01*
X125567662Y-74190821D01*
X125401256Y-74079632D01*
X125216356Y-74003044D01*
X125020067Y-73964000D01*
X124819933Y-73964000D01*
X124623644Y-74003044D01*
X124438744Y-74079632D01*
X124272338Y-74190821D01*
X124130821Y-74332338D01*
X124019632Y-74498744D01*
X123943044Y-74683644D01*
X123904000Y-74879933D01*
X123904000Y-75080067D01*
X123943044Y-75276356D01*
X124019632Y-75461256D01*
X124130821Y-75627662D01*
X124272338Y-75769179D01*
X124438744Y-75880368D01*
X124623644Y-75956956D01*
X124819933Y-75996000D01*
X125020067Y-75996000D01*
X125216356Y-75956956D01*
X125401256Y-75880368D01*
X125567662Y-75769179D01*
X125709179Y-75627662D01*
X125820368Y-75461256D01*
X125886000Y-75302806D01*
X125886000Y-77197194D01*
X125820368Y-77038744D01*
X125709179Y-76872338D01*
X125567662Y-76730821D01*
X125401256Y-76619632D01*
X125216356Y-76543044D01*
X125020067Y-76504000D01*
X124819933Y-76504000D01*
X124623644Y-76543044D01*
X124438744Y-76619632D01*
X124272338Y-76730821D01*
X124130821Y-76872338D01*
X124019632Y-77038744D01*
X123943044Y-77223644D01*
X123904000Y-77419933D01*
X123904000Y-77620067D01*
X123943044Y-77816356D01*
X124019632Y-78001256D01*
X124130821Y-78167662D01*
X124272338Y-78309179D01*
X124438744Y-78420368D01*
X124623644Y-78496956D01*
X124819933Y-78536000D01*
X125020067Y-78536000D01*
X125216356Y-78496956D01*
X125401256Y-78420368D01*
X125567662Y-78309179D01*
X125709179Y-78167662D01*
X125820368Y-78001256D01*
X125886000Y-77842806D01*
X125886000Y-79737194D01*
X125820368Y-79578744D01*
X125709179Y-79412338D01*
X125567662Y-79270821D01*
X125401256Y-79159632D01*
X125216356Y-79083044D01*
X125020067Y-79044000D01*
X124819933Y-79044000D01*
X124623644Y-79083044D01*
X124438744Y-79159632D01*
X124272338Y-79270821D01*
X124130821Y-79412338D01*
X124019632Y-79578744D01*
X123943044Y-79763644D01*
X123904000Y-79959933D01*
X123904000Y-80160067D01*
X123936277Y-80322337D01*
X123896229Y-80282289D01*
X123817186Y-80229475D01*
X123729358Y-80193095D01*
X123636121Y-80174549D01*
X123541057Y-80174549D01*
X123447820Y-80193095D01*
X123359992Y-80229475D01*
X123280949Y-80282289D01*
X123213729Y-80349509D01*
X123160915Y-80428552D01*
X123124535Y-80516380D01*
X123105989Y-80609617D01*
X123105989Y-80676645D01*
X123059231Y-80685946D01*
X122971403Y-80722326D01*
X122892360Y-80775140D01*
X122825140Y-80842360D01*
X122772326Y-80921403D01*
X122735946Y-81009231D01*
X122717400Y-81102468D01*
X122717400Y-81167324D01*
X122463725Y-81421000D01*
X121736275Y-81421000D01*
X123792216Y-79365060D01*
X123804763Y-79354763D01*
X123845876Y-79304667D01*
X123876426Y-79247512D01*
X123895239Y-79185495D01*
X123900000Y-79137154D01*
X123900000Y-79137145D01*
X123901590Y-79121001D01*
X123900000Y-79104857D01*
X123900000Y-64278143D01*
X123901590Y-64261999D01*
X123900000Y-64245855D01*
X123900000Y-64245846D01*
X123895239Y-64197505D01*
X123876426Y-64135488D01*
X123845876Y-64078333D01*
X123804763Y-64028237D01*
X123792215Y-64017939D01*
X122706200Y-62931925D01*
X122706200Y-60704234D01*
X122858456Y-60641168D01*
X122933836Y-60590800D01*
X123429128Y-60590800D01*
X123441388Y-60715282D01*
X123477698Y-60834980D01*
X123536663Y-60945294D01*
X123616015Y-61041985D01*
X123712706Y-61121337D01*
X123823020Y-61180302D01*
X123942718Y-61216612D01*
X124067200Y-61228872D01*
X124631450Y-61225800D01*
X124790200Y-61067050D01*
X124790200Y-59867800D01*
X123590950Y-59867800D01*
X123432200Y-60026550D01*
X123429128Y-60590800D01*
X122933836Y-60590800D01*
X123024862Y-60529979D01*
X123166379Y-60388462D01*
X123277568Y-60222056D01*
X123354156Y-60037156D01*
X123393200Y-59840867D01*
X123393200Y-59640733D01*
X123354156Y-59444444D01*
X123277568Y-59259544D01*
X123166379Y-59093138D01*
X123024862Y-58951621D01*
X122858456Y-58840432D01*
X122698075Y-58774000D01*
X123440631Y-58774000D01*
X123429128Y-58890800D01*
G37*
%TD.AperFunction*%
D29*
X106239632Y-60221256D02*
X106350821Y-60387662D01*
X106492338Y-60529179D01*
X106658744Y-60640368D01*
X106843644Y-60716956D01*
X107039933Y-60756000D01*
X107240067Y-60756000D01*
X107436356Y-60716956D01*
X107488613Y-60695310D01*
X108381756Y-61588454D01*
X108395184Y-61604816D01*
X108411546Y-61618244D01*
X108411548Y-61618246D01*
X108445799Y-61646355D01*
X108460508Y-61658426D01*
X108535035Y-61698261D01*
X108615901Y-61722792D01*
X108678932Y-61729000D01*
X108678941Y-61729000D01*
X108699999Y-61731074D01*
X108721057Y-61729000D01*
X109422301Y-61729000D01*
X110281754Y-62588453D01*
X110611547Y-62918247D01*
X110611553Y-62918252D01*
X110646000Y-62952699D01*
X110646000Y-62954564D01*
X110667289Y-63061596D01*
X110709051Y-63162418D01*
X110769680Y-63253155D01*
X110771001Y-63254476D01*
X110771000Y-63894772D01*
X110718750Y-63894772D01*
X110621404Y-63904360D01*
X110527799Y-63932754D01*
X110441533Y-63978865D01*
X110365919Y-64040919D01*
X110303865Y-64116533D01*
X110257754Y-64202799D01*
X110229360Y-64296404D01*
X110219772Y-64393750D01*
X110219772Y-64881250D01*
X110229360Y-64978596D01*
X110257754Y-65072201D01*
X110303865Y-65158467D01*
X110365919Y-65234081D01*
X110441533Y-65296135D01*
X110527799Y-65342246D01*
X110621404Y-65370640D01*
X110718750Y-65380228D01*
X111631250Y-65380228D01*
X111728596Y-65370640D01*
X111822201Y-65342246D01*
X111849429Y-65327692D01*
X111860498Y-65364180D01*
X111919463Y-65474494D01*
X111998815Y-65571185D01*
X112095506Y-65650537D01*
X112205820Y-65709502D01*
X112325518Y-65745812D01*
X112434406Y-65756536D01*
X112375779Y-65787873D01*
X112289050Y-65859050D01*
X112217873Y-65945779D01*
X112172589Y-66030500D01*
X112149738Y-66030500D01*
X112107127Y-65950779D01*
X112035950Y-65864050D01*
X111949221Y-65792873D01*
X111850272Y-65739984D01*
X111742906Y-65707415D01*
X111631250Y-65696418D01*
X110718750Y-65696418D01*
X110607094Y-65707415D01*
X110499728Y-65739984D01*
X110400779Y-65792873D01*
X110314050Y-65864050D01*
X110242873Y-65950779D01*
X110227043Y-65980394D01*
X110190657Y-65892551D01*
X110127249Y-65797654D01*
X110046546Y-65716951D01*
X109951649Y-65653543D01*
X109871082Y-65620171D01*
X109919447Y-65600137D01*
X110014344Y-65536729D01*
X110095047Y-65456026D01*
X110158455Y-65361129D01*
X110202132Y-65255685D01*
X110224398Y-65143746D01*
X110224398Y-65029614D01*
X110202132Y-64917675D01*
X110158455Y-64812231D01*
X110095047Y-64717334D01*
X110014344Y-64636631D01*
X109919447Y-64573223D01*
X109814003Y-64529546D01*
X109702064Y-64507280D01*
X109587932Y-64507280D01*
X109475993Y-64529546D01*
X109370549Y-64573223D01*
X109275652Y-64636631D01*
X109194949Y-64717334D01*
X109131541Y-64812231D01*
X109087864Y-64917675D01*
X109065598Y-65029614D01*
X109065598Y-65143746D01*
X109087864Y-65255685D01*
X109131541Y-65361129D01*
X109194949Y-65456026D01*
X109275652Y-65536729D01*
X109370549Y-65600137D01*
X109451116Y-65633509D01*
X109402751Y-65653543D01*
X109307854Y-65716951D01*
X109227151Y-65797654D01*
X109163743Y-65892551D01*
X109120066Y-65997995D01*
X109097800Y-66109934D01*
X109097800Y-66224066D01*
X109120066Y-66336005D01*
X109163743Y-66441449D01*
X109227151Y-66536346D01*
X109307854Y-66617049D01*
X109402751Y-66680457D01*
X109508195Y-66724134D01*
X109620134Y-66746400D01*
X109734266Y-66746400D01*
X109846205Y-66724134D01*
X109951649Y-66680457D01*
X110046546Y-66617049D01*
X110127249Y-66536346D01*
X110146418Y-66507657D01*
X110146418Y-66756250D01*
X110157415Y-66867906D01*
X110189984Y-66975272D01*
X110242873Y-67074221D01*
X110314050Y-67160950D01*
X110400779Y-67232127D01*
X110499728Y-67285016D01*
X110607094Y-67317585D01*
X110718750Y-67328582D01*
X111631250Y-67328582D01*
X111742906Y-67317585D01*
X111850272Y-67285016D01*
X111949221Y-67232127D01*
X112035950Y-67160950D01*
X112107127Y-67074221D01*
X112155084Y-66984500D01*
X112172589Y-66984500D01*
X112217873Y-67069221D01*
X112289050Y-67155950D01*
X112375779Y-67227127D01*
X112474728Y-67280016D01*
X112582094Y-67312585D01*
X112693750Y-67323582D01*
X113606250Y-67323582D01*
X113717906Y-67312585D01*
X113825272Y-67280016D01*
X113868332Y-67257000D01*
X114366418Y-67257000D01*
X114366418Y-67350000D01*
X114372732Y-67414103D01*
X114391430Y-67475743D01*
X114421794Y-67532550D01*
X114462657Y-67582343D01*
X114512450Y-67623206D01*
X114569257Y-67653570D01*
X114630897Y-67672268D01*
X114695000Y-67678582D01*
X114719001Y-67678582D01*
X114851452Y-67811033D01*
X114852177Y-67813424D01*
X114896470Y-67896290D01*
X114956078Y-67968922D01*
X114974275Y-67983856D01*
X115011144Y-68020725D01*
X115026078Y-68038922D01*
X115098710Y-68098530D01*
X115117335Y-68108485D01*
X115054564Y-68096000D01*
X114945436Y-68096000D01*
X114838404Y-68117289D01*
X114737582Y-68159051D01*
X114646845Y-68219680D01*
X114569680Y-68296845D01*
X114509051Y-68387582D01*
X114467289Y-68488404D01*
X114446000Y-68595436D01*
X114446000Y-68704564D01*
X114467289Y-68811596D01*
X114509051Y-68912418D01*
X114569680Y-69003155D01*
X114646845Y-69080320D01*
X114671001Y-69096461D01*
X114671000Y-71303724D01*
X114669410Y-71319868D01*
X114671000Y-71336012D01*
X114671000Y-71336021D01*
X114675761Y-71384362D01*
X114694574Y-71446379D01*
X114725124Y-71503534D01*
X114766237Y-71553631D01*
X114778790Y-71563933D01*
X115410498Y-72195641D01*
X115410498Y-72298748D01*
X115251750Y-72140000D01*
X115100000Y-72136928D01*
X114975518Y-72149188D01*
X114855820Y-72185498D01*
X114745506Y-72244463D01*
X114648815Y-72323815D01*
X114569463Y-72420506D01*
X114510498Y-72530820D01*
X114503577Y-72553634D01*
X114485331Y-72538660D01*
X114446070Y-72517674D01*
X114445450Y-72511383D01*
X114419604Y-72426180D01*
X114377633Y-72347657D01*
X114321149Y-72278831D01*
X114252322Y-72222347D01*
X114173799Y-72180376D01*
X114088596Y-72154530D01*
X113999990Y-72145803D01*
X113911383Y-72154530D01*
X113826180Y-72180376D01*
X113747657Y-72222347D01*
X113678831Y-72278831D01*
X113674675Y-72283895D01*
X113530000Y-72139221D01*
X113530000Y-72125046D01*
X113505905Y-72003911D01*
X113458640Y-71889804D01*
X113390023Y-71787111D01*
X113302689Y-71699777D01*
X113199996Y-71631160D01*
X113085889Y-71583895D01*
X112964754Y-71559800D01*
X112841246Y-71559800D01*
X112720111Y-71583895D01*
X112643658Y-71615563D01*
X112599157Y-71561339D01*
X112581909Y-71547184D01*
X112223582Y-71188858D01*
X112223582Y-70805750D01*
X112213065Y-70698971D01*
X112181919Y-70596295D01*
X112131340Y-70501669D01*
X112063272Y-70418728D01*
X111980331Y-70350660D01*
X111885705Y-70300081D01*
X111783029Y-70268935D01*
X111676250Y-70258418D01*
X111163750Y-70258418D01*
X111056971Y-70268935D01*
X110954295Y-70300081D01*
X110859669Y-70350660D01*
X110776728Y-70418728D01*
X110708660Y-70501669D01*
X110658081Y-70596295D01*
X110626935Y-70698971D01*
X110616418Y-70805750D01*
X110616418Y-71243250D01*
X110626935Y-71350029D01*
X110658081Y-71452705D01*
X110708660Y-71547331D01*
X110723634Y-71565577D01*
X110700820Y-71572498D01*
X110590506Y-71631463D01*
X110493815Y-71710815D01*
X110414463Y-71807506D01*
X110355498Y-71917820D01*
X110319188Y-72037518D01*
X110306928Y-72162000D01*
X110310000Y-72313750D01*
X110468750Y-72472500D01*
X111293000Y-72472500D01*
X111293000Y-72452500D01*
X111547000Y-72452500D01*
X111547000Y-72472500D01*
X111567000Y-72472500D01*
X111567000Y-72726500D01*
X111547000Y-72726500D01*
X111547000Y-73513250D01*
X111705750Y-73672000D01*
X111831818Y-73674046D01*
X111832538Y-73681355D01*
X111858384Y-73766557D01*
X111873660Y-73795136D01*
X111900356Y-73845081D01*
X111956840Y-73913907D01*
X111974094Y-73928067D01*
X112448000Y-74401974D01*
X112448001Y-77308777D01*
X111818239Y-76679015D01*
X111881070Y-76679015D01*
X111974307Y-76660469D01*
X112062135Y-76624089D01*
X112141178Y-76571275D01*
X112208398Y-76504055D01*
X112261212Y-76425012D01*
X112297592Y-76337184D01*
X112316138Y-76243947D01*
X112316138Y-76148883D01*
X112297592Y-76055646D01*
X112261212Y-75967818D01*
X112208398Y-75888775D01*
X112162538Y-75842915D01*
X112162538Y-75076393D01*
X112164128Y-75060249D01*
X112162538Y-75044105D01*
X112162538Y-75044096D01*
X112157777Y-74995755D01*
X112138964Y-74933738D01*
X112108414Y-74876583D01*
X112067301Y-74826487D01*
X112054754Y-74816190D01*
X110910209Y-73671646D01*
X110945000Y-73675072D01*
X111134250Y-73672000D01*
X111293000Y-73513250D01*
X111293000Y-72726500D01*
X110468750Y-72726500D01*
X110310000Y-72885250D01*
X110306928Y-73037000D01*
X110310355Y-73071791D01*
X109809000Y-72570437D01*
X109809000Y-69296143D01*
X109810590Y-69279999D01*
X109809000Y-69263855D01*
X109809000Y-69263846D01*
X109804239Y-69215505D01*
X109785426Y-69153488D01*
X109754876Y-69096333D01*
X109713763Y-69046237D01*
X109701216Y-69035940D01*
X108849000Y-68183725D01*
X108849000Y-63676154D01*
X108850591Y-63660000D01*
X108844239Y-63595505D01*
X108825426Y-63533488D01*
X108794876Y-63476333D01*
X108764060Y-63438784D01*
X108753763Y-63426237D01*
X108741216Y-63415940D01*
X108053889Y-62728613D01*
X108116956Y-62576356D01*
X108156000Y-62380067D01*
X108156000Y-62179933D01*
X108116956Y-61983644D01*
X108040368Y-61798744D01*
X107929179Y-61632338D01*
X107787662Y-61490821D01*
X107621256Y-61379632D01*
X107436356Y-61303044D01*
X107240067Y-61264000D01*
X107039933Y-61264000D01*
X106843644Y-61303044D01*
X106658744Y-61379632D01*
X106492338Y-61490821D01*
X106350821Y-61632338D01*
X106239632Y-61798744D01*
X106174000Y-61957194D01*
X106174000Y-60062806D01*
X106239632Y-60221256D01*
%TA.AperFunction,Conductor*%
D30*
G36*
X106239632Y-60221256D02*
G01*
X106350821Y-60387662D01*
X106492338Y-60529179D01*
X106658744Y-60640368D01*
X106843644Y-60716956D01*
X107039933Y-60756000D01*
X107240067Y-60756000D01*
X107436356Y-60716956D01*
X107488613Y-60695310D01*
X108381756Y-61588454D01*
X108395184Y-61604816D01*
X108411546Y-61618244D01*
X108411548Y-61618246D01*
X108445799Y-61646355D01*
X108460508Y-61658426D01*
X108535035Y-61698261D01*
X108615901Y-61722792D01*
X108678932Y-61729000D01*
X108678941Y-61729000D01*
X108699999Y-61731074D01*
X108721057Y-61729000D01*
X109422301Y-61729000D01*
X110281754Y-62588453D01*
X110611547Y-62918247D01*
X110611553Y-62918252D01*
X110646000Y-62952699D01*
X110646000Y-62954564D01*
X110667289Y-63061596D01*
X110709051Y-63162418D01*
X110769680Y-63253155D01*
X110771001Y-63254476D01*
X110771000Y-63894772D01*
X110718750Y-63894772D01*
X110621404Y-63904360D01*
X110527799Y-63932754D01*
X110441533Y-63978865D01*
X110365919Y-64040919D01*
X110303865Y-64116533D01*
X110257754Y-64202799D01*
X110229360Y-64296404D01*
X110219772Y-64393750D01*
X110219772Y-64881250D01*
X110229360Y-64978596D01*
X110257754Y-65072201D01*
X110303865Y-65158467D01*
X110365919Y-65234081D01*
X110441533Y-65296135D01*
X110527799Y-65342246D01*
X110621404Y-65370640D01*
X110718750Y-65380228D01*
X111631250Y-65380228D01*
X111728596Y-65370640D01*
X111822201Y-65342246D01*
X111849429Y-65327692D01*
X111860498Y-65364180D01*
X111919463Y-65474494D01*
X111998815Y-65571185D01*
X112095506Y-65650537D01*
X112205820Y-65709502D01*
X112325518Y-65745812D01*
X112434406Y-65756536D01*
X112375779Y-65787873D01*
X112289050Y-65859050D01*
X112217873Y-65945779D01*
X112172589Y-66030500D01*
X112149738Y-66030500D01*
X112107127Y-65950779D01*
X112035950Y-65864050D01*
X111949221Y-65792873D01*
X111850272Y-65739984D01*
X111742906Y-65707415D01*
X111631250Y-65696418D01*
X110718750Y-65696418D01*
X110607094Y-65707415D01*
X110499728Y-65739984D01*
X110400779Y-65792873D01*
X110314050Y-65864050D01*
X110242873Y-65950779D01*
X110227043Y-65980394D01*
X110190657Y-65892551D01*
X110127249Y-65797654D01*
X110046546Y-65716951D01*
X109951649Y-65653543D01*
X109871082Y-65620171D01*
X109919447Y-65600137D01*
X110014344Y-65536729D01*
X110095047Y-65456026D01*
X110158455Y-65361129D01*
X110202132Y-65255685D01*
X110224398Y-65143746D01*
X110224398Y-65029614D01*
X110202132Y-64917675D01*
X110158455Y-64812231D01*
X110095047Y-64717334D01*
X110014344Y-64636631D01*
X109919447Y-64573223D01*
X109814003Y-64529546D01*
X109702064Y-64507280D01*
X109587932Y-64507280D01*
X109475993Y-64529546D01*
X109370549Y-64573223D01*
X109275652Y-64636631D01*
X109194949Y-64717334D01*
X109131541Y-64812231D01*
X109087864Y-64917675D01*
X109065598Y-65029614D01*
X109065598Y-65143746D01*
X109087864Y-65255685D01*
X109131541Y-65361129D01*
X109194949Y-65456026D01*
X109275652Y-65536729D01*
X109370549Y-65600137D01*
X109451116Y-65633509D01*
X109402751Y-65653543D01*
X109307854Y-65716951D01*
X109227151Y-65797654D01*
X109163743Y-65892551D01*
X109120066Y-65997995D01*
X109097800Y-66109934D01*
X109097800Y-66224066D01*
X109120066Y-66336005D01*
X109163743Y-66441449D01*
X109227151Y-66536346D01*
X109307854Y-66617049D01*
X109402751Y-66680457D01*
X109508195Y-66724134D01*
X109620134Y-66746400D01*
X109734266Y-66746400D01*
X109846205Y-66724134D01*
X109951649Y-66680457D01*
X110046546Y-66617049D01*
X110127249Y-66536346D01*
X110146418Y-66507657D01*
X110146418Y-66756250D01*
X110157415Y-66867906D01*
X110189984Y-66975272D01*
X110242873Y-67074221D01*
X110314050Y-67160950D01*
X110400779Y-67232127D01*
X110499728Y-67285016D01*
X110607094Y-67317585D01*
X110718750Y-67328582D01*
X111631250Y-67328582D01*
X111742906Y-67317585D01*
X111850272Y-67285016D01*
X111949221Y-67232127D01*
X112035950Y-67160950D01*
X112107127Y-67074221D01*
X112155084Y-66984500D01*
X112172589Y-66984500D01*
X112217873Y-67069221D01*
X112289050Y-67155950D01*
X112375779Y-67227127D01*
X112474728Y-67280016D01*
X112582094Y-67312585D01*
X112693750Y-67323582D01*
X113606250Y-67323582D01*
X113717906Y-67312585D01*
X113825272Y-67280016D01*
X113868332Y-67257000D01*
X114366418Y-67257000D01*
X114366418Y-67350000D01*
X114372732Y-67414103D01*
X114391430Y-67475743D01*
X114421794Y-67532550D01*
X114462657Y-67582343D01*
X114512450Y-67623206D01*
X114569257Y-67653570D01*
X114630897Y-67672268D01*
X114695000Y-67678582D01*
X114719001Y-67678582D01*
X114851452Y-67811033D01*
X114852177Y-67813424D01*
X114896470Y-67896290D01*
X114956078Y-67968922D01*
X114974275Y-67983856D01*
X115011144Y-68020725D01*
X115026078Y-68038922D01*
X115098710Y-68098530D01*
X115117335Y-68108485D01*
X115054564Y-68096000D01*
X114945436Y-68096000D01*
X114838404Y-68117289D01*
X114737582Y-68159051D01*
X114646845Y-68219680D01*
X114569680Y-68296845D01*
X114509051Y-68387582D01*
X114467289Y-68488404D01*
X114446000Y-68595436D01*
X114446000Y-68704564D01*
X114467289Y-68811596D01*
X114509051Y-68912418D01*
X114569680Y-69003155D01*
X114646845Y-69080320D01*
X114671001Y-69096461D01*
X114671000Y-71303724D01*
X114669410Y-71319868D01*
X114671000Y-71336012D01*
X114671000Y-71336021D01*
X114675761Y-71384362D01*
X114694574Y-71446379D01*
X114725124Y-71503534D01*
X114766237Y-71553631D01*
X114778790Y-71563933D01*
X115410498Y-72195641D01*
X115410498Y-72298748D01*
X115251750Y-72140000D01*
X115100000Y-72136928D01*
X114975518Y-72149188D01*
X114855820Y-72185498D01*
X114745506Y-72244463D01*
X114648815Y-72323815D01*
X114569463Y-72420506D01*
X114510498Y-72530820D01*
X114503577Y-72553634D01*
X114485331Y-72538660D01*
X114446070Y-72517674D01*
X114445450Y-72511383D01*
X114419604Y-72426180D01*
X114377633Y-72347657D01*
X114321149Y-72278831D01*
X114252322Y-72222347D01*
X114173799Y-72180376D01*
X114088596Y-72154530D01*
X113999990Y-72145803D01*
X113911383Y-72154530D01*
X113826180Y-72180376D01*
X113747657Y-72222347D01*
X113678831Y-72278831D01*
X113674675Y-72283895D01*
X113530000Y-72139221D01*
X113530000Y-72125046D01*
X113505905Y-72003911D01*
X113458640Y-71889804D01*
X113390023Y-71787111D01*
X113302689Y-71699777D01*
X113199996Y-71631160D01*
X113085889Y-71583895D01*
X112964754Y-71559800D01*
X112841246Y-71559800D01*
X112720111Y-71583895D01*
X112643658Y-71615563D01*
X112599157Y-71561339D01*
X112581909Y-71547184D01*
X112223582Y-71188858D01*
X112223582Y-70805750D01*
X112213065Y-70698971D01*
X112181919Y-70596295D01*
X112131340Y-70501669D01*
X112063272Y-70418728D01*
X111980331Y-70350660D01*
X111885705Y-70300081D01*
X111783029Y-70268935D01*
X111676250Y-70258418D01*
X111163750Y-70258418D01*
X111056971Y-70268935D01*
X110954295Y-70300081D01*
X110859669Y-70350660D01*
X110776728Y-70418728D01*
X110708660Y-70501669D01*
X110658081Y-70596295D01*
X110626935Y-70698971D01*
X110616418Y-70805750D01*
X110616418Y-71243250D01*
X110626935Y-71350029D01*
X110658081Y-71452705D01*
X110708660Y-71547331D01*
X110723634Y-71565577D01*
X110700820Y-71572498D01*
X110590506Y-71631463D01*
X110493815Y-71710815D01*
X110414463Y-71807506D01*
X110355498Y-71917820D01*
X110319188Y-72037518D01*
X110306928Y-72162000D01*
X110310000Y-72313750D01*
X110468750Y-72472500D01*
X111293000Y-72472500D01*
X111293000Y-72452500D01*
X111547000Y-72452500D01*
X111547000Y-72472500D01*
X111567000Y-72472500D01*
X111567000Y-72726500D01*
X111547000Y-72726500D01*
X111547000Y-73513250D01*
X111705750Y-73672000D01*
X111831818Y-73674046D01*
X111832538Y-73681355D01*
X111858384Y-73766557D01*
X111873660Y-73795136D01*
X111900356Y-73845081D01*
X111956840Y-73913907D01*
X111974094Y-73928067D01*
X112448000Y-74401974D01*
X112448001Y-77308777D01*
X111818239Y-76679015D01*
X111881070Y-76679015D01*
X111974307Y-76660469D01*
X112062135Y-76624089D01*
X112141178Y-76571275D01*
X112208398Y-76504055D01*
X112261212Y-76425012D01*
X112297592Y-76337184D01*
X112316138Y-76243947D01*
X112316138Y-76148883D01*
X112297592Y-76055646D01*
X112261212Y-75967818D01*
X112208398Y-75888775D01*
X112162538Y-75842915D01*
X112162538Y-75076393D01*
X112164128Y-75060249D01*
X112162538Y-75044105D01*
X112162538Y-75044096D01*
X112157777Y-74995755D01*
X112138964Y-74933738D01*
X112108414Y-74876583D01*
X112067301Y-74826487D01*
X112054754Y-74816190D01*
X110910209Y-73671646D01*
X110945000Y-73675072D01*
X111134250Y-73672000D01*
X111293000Y-73513250D01*
X111293000Y-72726500D01*
X110468750Y-72726500D01*
X110310000Y-72885250D01*
X110306928Y-73037000D01*
X110310355Y-73071791D01*
X109809000Y-72570437D01*
X109809000Y-69296143D01*
X109810590Y-69279999D01*
X109809000Y-69263855D01*
X109809000Y-69263846D01*
X109804239Y-69215505D01*
X109785426Y-69153488D01*
X109754876Y-69096333D01*
X109713763Y-69046237D01*
X109701216Y-69035940D01*
X108849000Y-68183725D01*
X108849000Y-63676154D01*
X108850591Y-63660000D01*
X108844239Y-63595505D01*
X108825426Y-63533488D01*
X108794876Y-63476333D01*
X108764060Y-63438784D01*
X108753763Y-63426237D01*
X108741216Y-63415940D01*
X108053889Y-62728613D01*
X108116956Y-62576356D01*
X108156000Y-62380067D01*
X108156000Y-62179933D01*
X108116956Y-61983644D01*
X108040368Y-61798744D01*
X107929179Y-61632338D01*
X107787662Y-61490821D01*
X107621256Y-61379632D01*
X107436356Y-61303044D01*
X107240067Y-61264000D01*
X107039933Y-61264000D01*
X106843644Y-61303044D01*
X106658744Y-61379632D01*
X106492338Y-61490821D01*
X106350821Y-61632338D01*
X106239632Y-61798744D01*
X106174000Y-61957194D01*
X106174000Y-60062806D01*
X106239632Y-60221256D01*
G37*
%TD.AperFunction*%
D29*
X115664500Y-73123000D02*
X115684500Y-73123000D01*
X115684500Y-73377000D01*
X115664500Y-73377000D01*
X115664500Y-74723000D01*
X116451250Y-74723000D01*
X116610000Y-74564250D01*
X116613072Y-74375000D01*
X116600812Y-74250518D01*
X116564502Y-74130820D01*
X116521302Y-74050000D01*
X116564502Y-73969180D01*
X116600812Y-73849482D01*
X116613072Y-73725000D01*
X116610000Y-73535750D01*
X116451252Y-73377002D01*
X116591858Y-73377002D01*
X118317400Y-75102545D01*
X118317400Y-75167400D01*
X118335946Y-75260637D01*
X118372326Y-75348465D01*
X118425140Y-75427508D01*
X118492360Y-75494728D01*
X118571403Y-75547542D01*
X118659231Y-75583922D01*
X118722053Y-75596418D01*
X118043750Y-75596418D01*
X117932094Y-75607415D01*
X117824728Y-75639984D01*
X117725779Y-75692873D01*
X117639050Y-75764050D01*
X117582280Y-75833224D01*
X117559171Y-75835500D01*
X117559166Y-75835500D01*
X117532388Y-75838137D01*
X117474390Y-75843849D01*
X117410284Y-75863296D01*
X117365626Y-75876843D01*
X117265387Y-75930421D01*
X117177528Y-76002526D01*
X117159459Y-76024543D01*
X116965547Y-76218455D01*
X116903006Y-76244360D01*
X116800313Y-76312977D01*
X116712979Y-76400311D01*
X116644362Y-76503004D01*
X116597097Y-76617111D01*
X116573002Y-76738246D01*
X116573002Y-76861754D01*
X116574925Y-76871424D01*
X116453582Y-76750081D01*
X116453582Y-76293750D01*
X116442585Y-76182094D01*
X116410016Y-76074728D01*
X116357127Y-75975779D01*
X116285950Y-75889050D01*
X116278396Y-75882850D01*
X116329494Y-75855537D01*
X116426185Y-75776185D01*
X116505537Y-75679494D01*
X116564502Y-75569180D01*
X116600812Y-75449482D01*
X116613072Y-75325000D01*
X116610000Y-75135750D01*
X116451250Y-74977000D01*
X115664500Y-74977000D01*
X115664500Y-74997000D01*
X115410500Y-74997000D01*
X115410500Y-74977000D01*
X115390500Y-74977000D01*
X115390500Y-74723000D01*
X115410500Y-74723000D01*
X115410500Y-73377000D01*
X115390500Y-73377000D01*
X115390500Y-73123000D01*
X115410500Y-73123000D01*
X115410500Y-73103000D01*
X115664500Y-73103000D01*
X115664500Y-73123000D01*
%TA.AperFunction,Conductor*%
D30*
G36*
X115664500Y-73123000D02*
G01*
X115684500Y-73123000D01*
X115684500Y-73377000D01*
X115664500Y-73377000D01*
X115664500Y-74723000D01*
X116451250Y-74723000D01*
X116610000Y-74564250D01*
X116613072Y-74375000D01*
X116600812Y-74250518D01*
X116564502Y-74130820D01*
X116521302Y-74050000D01*
X116564502Y-73969180D01*
X116600812Y-73849482D01*
X116613072Y-73725000D01*
X116610000Y-73535750D01*
X116451252Y-73377002D01*
X116591858Y-73377002D01*
X118317400Y-75102545D01*
X118317400Y-75167400D01*
X118335946Y-75260637D01*
X118372326Y-75348465D01*
X118425140Y-75427508D01*
X118492360Y-75494728D01*
X118571403Y-75547542D01*
X118659231Y-75583922D01*
X118722053Y-75596418D01*
X118043750Y-75596418D01*
X117932094Y-75607415D01*
X117824728Y-75639984D01*
X117725779Y-75692873D01*
X117639050Y-75764050D01*
X117582280Y-75833224D01*
X117559171Y-75835500D01*
X117559166Y-75835500D01*
X117532388Y-75838137D01*
X117474390Y-75843849D01*
X117410284Y-75863296D01*
X117365626Y-75876843D01*
X117265387Y-75930421D01*
X117177528Y-76002526D01*
X117159459Y-76024543D01*
X116965547Y-76218455D01*
X116903006Y-76244360D01*
X116800313Y-76312977D01*
X116712979Y-76400311D01*
X116644362Y-76503004D01*
X116597097Y-76617111D01*
X116573002Y-76738246D01*
X116573002Y-76861754D01*
X116574925Y-76871424D01*
X116453582Y-76750081D01*
X116453582Y-76293750D01*
X116442585Y-76182094D01*
X116410016Y-76074728D01*
X116357127Y-75975779D01*
X116285950Y-75889050D01*
X116278396Y-75882850D01*
X116329494Y-75855537D01*
X116426185Y-75776185D01*
X116505537Y-75679494D01*
X116564502Y-75569180D01*
X116600812Y-75449482D01*
X116613072Y-75325000D01*
X116610000Y-75135750D01*
X116451250Y-74977000D01*
X115664500Y-74977000D01*
X115664500Y-74997000D01*
X115410500Y-74997000D01*
X115410500Y-74977000D01*
X115390500Y-74977000D01*
X115390500Y-74723000D01*
X115410500Y-74723000D01*
X115410500Y-73377000D01*
X115390500Y-73377000D01*
X115390500Y-73123000D01*
X115410500Y-73123000D01*
X115410500Y-73103000D01*
X115664500Y-73103000D01*
X115664500Y-73123000D01*
G37*
%TD.AperFunction*%
D29*
X118927000Y-66410500D02*
X118947000Y-66410500D01*
X118947000Y-66664500D01*
X118927000Y-66664500D01*
X118927000Y-67501250D01*
X119085750Y-67660000D01*
X119500000Y-67663072D01*
X119624482Y-67650812D01*
X119744180Y-67614502D01*
X119854494Y-67555537D01*
X119873000Y-67540350D01*
X119873000Y-68150000D01*
X119875440Y-68174776D01*
X119882667Y-68198601D01*
X119894403Y-68220557D01*
X119905354Y-68234683D01*
X120697276Y-69119772D01*
X120368750Y-69119772D01*
X120276281Y-69128879D01*
X120187366Y-69155851D01*
X120105422Y-69199652D01*
X120069360Y-69229247D01*
X120039502Y-69130820D01*
X119980537Y-69020506D01*
X119901185Y-68923815D01*
X119804494Y-68844463D01*
X119694180Y-68785498D01*
X119574482Y-68749188D01*
X119450000Y-68736928D01*
X119298250Y-68740000D01*
X119139500Y-68898750D01*
X119139500Y-69723000D01*
X119159500Y-69723000D01*
X119159500Y-69977000D01*
X119139500Y-69977000D01*
X119139500Y-70801250D01*
X119298250Y-70960000D01*
X119450000Y-70963072D01*
X119574482Y-70950812D01*
X119694180Y-70914502D01*
X119804494Y-70855537D01*
X119901185Y-70776185D01*
X119980537Y-70679494D01*
X120039502Y-70569180D01*
X120069360Y-70470753D01*
X120105422Y-70500348D01*
X120187366Y-70544149D01*
X120276281Y-70571121D01*
X120368750Y-70580228D01*
X120404954Y-70580228D01*
X120380386Y-70626191D01*
X120354540Y-70711393D01*
X120345813Y-70800000D01*
X120348001Y-70822215D01*
X120348000Y-71696418D01*
X120193750Y-71696418D01*
X120086971Y-71706935D01*
X119984295Y-71738081D01*
X119889669Y-71788660D01*
X119806728Y-71856728D01*
X119738660Y-71939669D01*
X119688081Y-72034295D01*
X119656935Y-72136971D01*
X119646418Y-72243750D01*
X119646418Y-72681250D01*
X119656935Y-72788029D01*
X119688081Y-72890705D01*
X119738660Y-72985331D01*
X119753634Y-73003577D01*
X119730820Y-73010498D01*
X119620506Y-73069463D01*
X119523815Y-73148815D01*
X119444463Y-73245506D01*
X119385498Y-73355820D01*
X119349188Y-73475518D01*
X119336928Y-73600000D01*
X119340000Y-73751750D01*
X119498750Y-73910500D01*
X120323000Y-73910500D01*
X120323000Y-73890500D01*
X120577000Y-73890500D01*
X120577000Y-73910500D01*
X121401250Y-73910500D01*
X121424893Y-73886857D01*
X121453004Y-73905640D01*
X121567111Y-73952905D01*
X121688246Y-73977000D01*
X121811754Y-73977000D01*
X121932889Y-73952905D01*
X122046996Y-73905640D01*
X122149689Y-73837023D01*
X122237023Y-73749689D01*
X122305640Y-73646996D01*
X122352905Y-73532889D01*
X122377000Y-73411754D01*
X122377000Y-73288246D01*
X122352905Y-73167111D01*
X122305640Y-73053004D01*
X122237023Y-72950311D01*
X122149689Y-72862977D01*
X122046996Y-72794360D01*
X121932889Y-72747095D01*
X121811754Y-72723000D01*
X121688246Y-72723000D01*
X121567111Y-72747095D01*
X121453004Y-72794360D01*
X121433869Y-72807145D01*
X121253582Y-72626858D01*
X121253582Y-72243750D01*
X121247421Y-72181197D01*
X121254187Y-72112500D01*
X121252000Y-72090295D01*
X121252000Y-71261542D01*
X121257241Y-71257241D01*
X121313725Y-71188415D01*
X121355696Y-71109892D01*
X121381543Y-71024690D01*
X121390270Y-70936082D01*
X121381543Y-70847475D01*
X121355696Y-70762274D01*
X121313725Y-70683750D01*
X121271396Y-70632172D01*
X121135323Y-70496099D01*
X121121159Y-70478841D01*
X121108472Y-70468429D01*
X121141403Y-70441403D01*
X121200348Y-70369578D01*
X121244149Y-70287634D01*
X121250715Y-70265990D01*
X121990121Y-71005397D01*
X121990121Y-71146500D01*
X121944261Y-71192360D01*
X121891447Y-71271403D01*
X121855067Y-71359231D01*
X121836521Y-71452468D01*
X121836521Y-71547532D01*
X121855067Y-71640769D01*
X121891447Y-71728597D01*
X121944261Y-71807640D01*
X122011481Y-71874860D01*
X122090524Y-71927674D01*
X122178352Y-71964054D01*
X122271589Y-71982600D01*
X122366653Y-71982600D01*
X122447990Y-71966421D01*
X122447989Y-75036010D01*
X121648499Y-75835500D01*
X121419588Y-75835500D01*
X121360950Y-75764050D01*
X121274221Y-75692873D01*
X121175272Y-75639984D01*
X121067906Y-75607415D01*
X120956250Y-75596418D01*
X120043750Y-75596418D01*
X119932094Y-75607415D01*
X119824728Y-75639984D01*
X119725779Y-75692873D01*
X119639050Y-75764050D01*
X119580412Y-75835500D01*
X119419588Y-75835500D01*
X119360950Y-75764050D01*
X119274221Y-75692873D01*
X119175272Y-75639984D01*
X119067906Y-75607415D01*
X118956250Y-75596418D01*
X118877947Y-75596418D01*
X118940769Y-75583922D01*
X119028597Y-75547542D01*
X119107640Y-75494728D01*
X119174860Y-75427508D01*
X119227674Y-75348465D01*
X119264054Y-75260637D01*
X119282600Y-75167400D01*
X119282600Y-75072336D01*
X119264054Y-74979099D01*
X119227674Y-74891271D01*
X119174860Y-74812228D01*
X119107640Y-74745008D01*
X119028597Y-74692194D01*
X118940769Y-74655814D01*
X118847532Y-74637268D01*
X118782677Y-74637268D01*
X118620409Y-74475000D01*
X119336928Y-74475000D01*
X119349188Y-74599482D01*
X119385498Y-74719180D01*
X119444463Y-74829494D01*
X119523815Y-74926185D01*
X119620506Y-75005537D01*
X119730820Y-75064502D01*
X119850518Y-75100812D01*
X119975000Y-75113072D01*
X120164250Y-75110000D01*
X120323000Y-74951250D01*
X120323000Y-74164500D01*
X120577000Y-74164500D01*
X120577000Y-74951250D01*
X120735750Y-75110000D01*
X120925000Y-75113072D01*
X121049482Y-75100812D01*
X121169180Y-75064502D01*
X121279494Y-75005537D01*
X121376185Y-74926185D01*
X121455537Y-74829494D01*
X121514502Y-74719180D01*
X121550812Y-74599482D01*
X121563072Y-74475000D01*
X121560000Y-74323250D01*
X121401250Y-74164500D01*
X120577000Y-74164500D01*
X120323000Y-74164500D01*
X119498750Y-74164500D01*
X119340000Y-74323250D01*
X119336928Y-74475000D01*
X118620409Y-74475000D01*
X115329000Y-71183593D01*
X115329000Y-70325000D01*
X117936928Y-70325000D01*
X117949188Y-70449482D01*
X117985498Y-70569180D01*
X118044463Y-70679494D01*
X118123815Y-70776185D01*
X118220506Y-70855537D01*
X118330820Y-70914502D01*
X118450518Y-70950812D01*
X118575000Y-70963072D01*
X118726750Y-70960000D01*
X118885500Y-70801250D01*
X118885500Y-69977000D01*
X118098750Y-69977000D01*
X117940000Y-70135750D01*
X117936928Y-70325000D01*
X115329000Y-70325000D01*
X115329000Y-69375000D01*
X117936928Y-69375000D01*
X117940000Y-69564250D01*
X118098750Y-69723000D01*
X118885500Y-69723000D01*
X118885500Y-68898750D01*
X118726750Y-68740000D01*
X118575000Y-68736928D01*
X118450518Y-68749188D01*
X118330820Y-68785498D01*
X118220506Y-68844463D01*
X118123815Y-68923815D01*
X118044463Y-69020506D01*
X117985498Y-69130820D01*
X117949188Y-69250518D01*
X117936928Y-69375000D01*
X115329000Y-69375000D01*
X115329000Y-69096460D01*
X115353155Y-69080320D01*
X115430320Y-69003155D01*
X115490949Y-68912418D01*
X115532711Y-68811596D01*
X115554000Y-68704564D01*
X115554000Y-68595436D01*
X115532711Y-68488404D01*
X115490949Y-68387582D01*
X115430320Y-68296845D01*
X115353155Y-68219680D01*
X115280241Y-68170960D01*
X115341576Y-68177001D01*
X115341584Y-68177001D01*
X115364999Y-68179307D01*
X115388414Y-68177001D01*
X116551586Y-68177001D01*
X116575001Y-68179307D01*
X116598416Y-68177001D01*
X116598424Y-68177001D01*
X116668509Y-68170098D01*
X116758424Y-68142823D01*
X116841290Y-68098530D01*
X116843398Y-68096800D01*
X116896289Y-68068529D01*
X116968921Y-68008921D01*
X116983855Y-67990724D01*
X117240724Y-67733855D01*
X117258921Y-67718921D01*
X117296162Y-67673543D01*
X117309103Y-67672268D01*
X117370743Y-67653570D01*
X117427550Y-67623206D01*
X117477343Y-67582343D01*
X117518206Y-67532550D01*
X117548570Y-67475743D01*
X117567268Y-67414103D01*
X117570547Y-67380815D01*
X117648815Y-67476185D01*
X117745506Y-67555537D01*
X117855820Y-67614502D01*
X117975518Y-67650812D01*
X118100000Y-67663072D01*
X118514250Y-67660000D01*
X118673000Y-67501250D01*
X118673000Y-66664500D01*
X118653000Y-66664500D01*
X118653000Y-66410500D01*
X118673000Y-66410500D01*
X118673000Y-66390500D01*
X118927000Y-66390500D01*
X118927000Y-66410500D01*
%TA.AperFunction,Conductor*%
D30*
G36*
X118927000Y-66410500D02*
G01*
X118947000Y-66410500D01*
X118947000Y-66664500D01*
X118927000Y-66664500D01*
X118927000Y-67501250D01*
X119085750Y-67660000D01*
X119500000Y-67663072D01*
X119624482Y-67650812D01*
X119744180Y-67614502D01*
X119854494Y-67555537D01*
X119873000Y-67540350D01*
X119873000Y-68150000D01*
X119875440Y-68174776D01*
X119882667Y-68198601D01*
X119894403Y-68220557D01*
X119905354Y-68234683D01*
X120697276Y-69119772D01*
X120368750Y-69119772D01*
X120276281Y-69128879D01*
X120187366Y-69155851D01*
X120105422Y-69199652D01*
X120069360Y-69229247D01*
X120039502Y-69130820D01*
X119980537Y-69020506D01*
X119901185Y-68923815D01*
X119804494Y-68844463D01*
X119694180Y-68785498D01*
X119574482Y-68749188D01*
X119450000Y-68736928D01*
X119298250Y-68740000D01*
X119139500Y-68898750D01*
X119139500Y-69723000D01*
X119159500Y-69723000D01*
X119159500Y-69977000D01*
X119139500Y-69977000D01*
X119139500Y-70801250D01*
X119298250Y-70960000D01*
X119450000Y-70963072D01*
X119574482Y-70950812D01*
X119694180Y-70914502D01*
X119804494Y-70855537D01*
X119901185Y-70776185D01*
X119980537Y-70679494D01*
X120039502Y-70569180D01*
X120069360Y-70470753D01*
X120105422Y-70500348D01*
X120187366Y-70544149D01*
X120276281Y-70571121D01*
X120368750Y-70580228D01*
X120404954Y-70580228D01*
X120380386Y-70626191D01*
X120354540Y-70711393D01*
X120345813Y-70800000D01*
X120348001Y-70822215D01*
X120348000Y-71696418D01*
X120193750Y-71696418D01*
X120086971Y-71706935D01*
X119984295Y-71738081D01*
X119889669Y-71788660D01*
X119806728Y-71856728D01*
X119738660Y-71939669D01*
X119688081Y-72034295D01*
X119656935Y-72136971D01*
X119646418Y-72243750D01*
X119646418Y-72681250D01*
X119656935Y-72788029D01*
X119688081Y-72890705D01*
X119738660Y-72985331D01*
X119753634Y-73003577D01*
X119730820Y-73010498D01*
X119620506Y-73069463D01*
X119523815Y-73148815D01*
X119444463Y-73245506D01*
X119385498Y-73355820D01*
X119349188Y-73475518D01*
X119336928Y-73600000D01*
X119340000Y-73751750D01*
X119498750Y-73910500D01*
X120323000Y-73910500D01*
X120323000Y-73890500D01*
X120577000Y-73890500D01*
X120577000Y-73910500D01*
X121401250Y-73910500D01*
X121424893Y-73886857D01*
X121453004Y-73905640D01*
X121567111Y-73952905D01*
X121688246Y-73977000D01*
X121811754Y-73977000D01*
X121932889Y-73952905D01*
X122046996Y-73905640D01*
X122149689Y-73837023D01*
X122237023Y-73749689D01*
X122305640Y-73646996D01*
X122352905Y-73532889D01*
X122377000Y-73411754D01*
X122377000Y-73288246D01*
X122352905Y-73167111D01*
X122305640Y-73053004D01*
X122237023Y-72950311D01*
X122149689Y-72862977D01*
X122046996Y-72794360D01*
X121932889Y-72747095D01*
X121811754Y-72723000D01*
X121688246Y-72723000D01*
X121567111Y-72747095D01*
X121453004Y-72794360D01*
X121433869Y-72807145D01*
X121253582Y-72626858D01*
X121253582Y-72243750D01*
X121247421Y-72181197D01*
X121254187Y-72112500D01*
X121252000Y-72090295D01*
X121252000Y-71261542D01*
X121257241Y-71257241D01*
X121313725Y-71188415D01*
X121355696Y-71109892D01*
X121381543Y-71024690D01*
X121390270Y-70936082D01*
X121381543Y-70847475D01*
X121355696Y-70762274D01*
X121313725Y-70683750D01*
X121271396Y-70632172D01*
X121135323Y-70496099D01*
X121121159Y-70478841D01*
X121108472Y-70468429D01*
X121141403Y-70441403D01*
X121200348Y-70369578D01*
X121244149Y-70287634D01*
X121250715Y-70265990D01*
X121990121Y-71005397D01*
X121990121Y-71146500D01*
X121944261Y-71192360D01*
X121891447Y-71271403D01*
X121855067Y-71359231D01*
X121836521Y-71452468D01*
X121836521Y-71547532D01*
X121855067Y-71640769D01*
X121891447Y-71728597D01*
X121944261Y-71807640D01*
X122011481Y-71874860D01*
X122090524Y-71927674D01*
X122178352Y-71964054D01*
X122271589Y-71982600D01*
X122366653Y-71982600D01*
X122447990Y-71966421D01*
X122447989Y-75036010D01*
X121648499Y-75835500D01*
X121419588Y-75835500D01*
X121360950Y-75764050D01*
X121274221Y-75692873D01*
X121175272Y-75639984D01*
X121067906Y-75607415D01*
X120956250Y-75596418D01*
X120043750Y-75596418D01*
X119932094Y-75607415D01*
X119824728Y-75639984D01*
X119725779Y-75692873D01*
X119639050Y-75764050D01*
X119580412Y-75835500D01*
X119419588Y-75835500D01*
X119360950Y-75764050D01*
X119274221Y-75692873D01*
X119175272Y-75639984D01*
X119067906Y-75607415D01*
X118956250Y-75596418D01*
X118877947Y-75596418D01*
X118940769Y-75583922D01*
X119028597Y-75547542D01*
X119107640Y-75494728D01*
X119174860Y-75427508D01*
X119227674Y-75348465D01*
X119264054Y-75260637D01*
X119282600Y-75167400D01*
X119282600Y-75072336D01*
X119264054Y-74979099D01*
X119227674Y-74891271D01*
X119174860Y-74812228D01*
X119107640Y-74745008D01*
X119028597Y-74692194D01*
X118940769Y-74655814D01*
X118847532Y-74637268D01*
X118782677Y-74637268D01*
X118620409Y-74475000D01*
X119336928Y-74475000D01*
X119349188Y-74599482D01*
X119385498Y-74719180D01*
X119444463Y-74829494D01*
X119523815Y-74926185D01*
X119620506Y-75005537D01*
X119730820Y-75064502D01*
X119850518Y-75100812D01*
X119975000Y-75113072D01*
X120164250Y-75110000D01*
X120323000Y-74951250D01*
X120323000Y-74164500D01*
X120577000Y-74164500D01*
X120577000Y-74951250D01*
X120735750Y-75110000D01*
X120925000Y-75113072D01*
X121049482Y-75100812D01*
X121169180Y-75064502D01*
X121279494Y-75005537D01*
X121376185Y-74926185D01*
X121455537Y-74829494D01*
X121514502Y-74719180D01*
X121550812Y-74599482D01*
X121563072Y-74475000D01*
X121560000Y-74323250D01*
X121401250Y-74164500D01*
X120577000Y-74164500D01*
X120323000Y-74164500D01*
X119498750Y-74164500D01*
X119340000Y-74323250D01*
X119336928Y-74475000D01*
X118620409Y-74475000D01*
X115329000Y-71183593D01*
X115329000Y-70325000D01*
X117936928Y-70325000D01*
X117949188Y-70449482D01*
X117985498Y-70569180D01*
X118044463Y-70679494D01*
X118123815Y-70776185D01*
X118220506Y-70855537D01*
X118330820Y-70914502D01*
X118450518Y-70950812D01*
X118575000Y-70963072D01*
X118726750Y-70960000D01*
X118885500Y-70801250D01*
X118885500Y-69977000D01*
X118098750Y-69977000D01*
X117940000Y-70135750D01*
X117936928Y-70325000D01*
X115329000Y-70325000D01*
X115329000Y-69375000D01*
X117936928Y-69375000D01*
X117940000Y-69564250D01*
X118098750Y-69723000D01*
X118885500Y-69723000D01*
X118885500Y-68898750D01*
X118726750Y-68740000D01*
X118575000Y-68736928D01*
X118450518Y-68749188D01*
X118330820Y-68785498D01*
X118220506Y-68844463D01*
X118123815Y-68923815D01*
X118044463Y-69020506D01*
X117985498Y-69130820D01*
X117949188Y-69250518D01*
X117936928Y-69375000D01*
X115329000Y-69375000D01*
X115329000Y-69096460D01*
X115353155Y-69080320D01*
X115430320Y-69003155D01*
X115490949Y-68912418D01*
X115532711Y-68811596D01*
X115554000Y-68704564D01*
X115554000Y-68595436D01*
X115532711Y-68488404D01*
X115490949Y-68387582D01*
X115430320Y-68296845D01*
X115353155Y-68219680D01*
X115280241Y-68170960D01*
X115341576Y-68177001D01*
X115341584Y-68177001D01*
X115364999Y-68179307D01*
X115388414Y-68177001D01*
X116551586Y-68177001D01*
X116575001Y-68179307D01*
X116598416Y-68177001D01*
X116598424Y-68177001D01*
X116668509Y-68170098D01*
X116758424Y-68142823D01*
X116841290Y-68098530D01*
X116843398Y-68096800D01*
X116896289Y-68068529D01*
X116968921Y-68008921D01*
X116983855Y-67990724D01*
X117240724Y-67733855D01*
X117258921Y-67718921D01*
X117296162Y-67673543D01*
X117309103Y-67672268D01*
X117370743Y-67653570D01*
X117427550Y-67623206D01*
X117477343Y-67582343D01*
X117518206Y-67532550D01*
X117548570Y-67475743D01*
X117567268Y-67414103D01*
X117570547Y-67380815D01*
X117648815Y-67476185D01*
X117745506Y-67555537D01*
X117855820Y-67614502D01*
X117975518Y-67650812D01*
X118100000Y-67663072D01*
X118514250Y-67660000D01*
X118673000Y-67501250D01*
X118673000Y-66664500D01*
X118653000Y-66664500D01*
X118653000Y-66410500D01*
X118673000Y-66410500D01*
X118673000Y-66390500D01*
X118927000Y-66390500D01*
X118927000Y-66410500D01*
G37*
%TD.AperFunction*%
D29*
X109164165Y-58774941D02*
X108985803Y-58894119D01*
X108834119Y-59045803D01*
X108714941Y-59224165D01*
X108632850Y-59422350D01*
X108591000Y-59632743D01*
X108591000Y-59847257D01*
X108632850Y-60057650D01*
X108714941Y-60255835D01*
X108834119Y-60434197D01*
X108985803Y-60585881D01*
X109164165Y-60705059D01*
X109362350Y-60787150D01*
X109572743Y-60829000D01*
X109787257Y-60829000D01*
X109997650Y-60787150D01*
X110195835Y-60705059D01*
X110374197Y-60585881D01*
X110525881Y-60434197D01*
X110645059Y-60255835D01*
X110727150Y-60057650D01*
X110769000Y-59847257D01*
X110769000Y-59657361D01*
X111620800Y-59657361D01*
X111620800Y-60281438D01*
X111631710Y-60392209D01*
X111674825Y-60534338D01*
X111744839Y-60665326D01*
X111839062Y-60780138D01*
X111953873Y-60874361D01*
X112084861Y-60944375D01*
X112226990Y-60987490D01*
X112374800Y-61002048D01*
X112522609Y-60987490D01*
X112664738Y-60944375D01*
X112795726Y-60874361D01*
X112910538Y-60780138D01*
X113004761Y-60665327D01*
X113074775Y-60534339D01*
X113117890Y-60392210D01*
X113128800Y-60281439D01*
X113128800Y-59657361D01*
X118620800Y-59657361D01*
X118620800Y-60281438D01*
X118631710Y-60392209D01*
X118674825Y-60534338D01*
X118744839Y-60665326D01*
X118839062Y-60780138D01*
X118953873Y-60874361D01*
X119084861Y-60944375D01*
X119226990Y-60987490D01*
X119374800Y-61002048D01*
X119522609Y-60987490D01*
X119664738Y-60944375D01*
X119795726Y-60874361D01*
X119910538Y-60780138D01*
X120004761Y-60665327D01*
X120074775Y-60534339D01*
X120117890Y-60392210D01*
X120128800Y-60281439D01*
X120128800Y-59657361D01*
X120117890Y-59546590D01*
X120074775Y-59404461D01*
X120004761Y-59273473D01*
X119910538Y-59158662D01*
X119795727Y-59064439D01*
X119664739Y-58994425D01*
X119522610Y-58951310D01*
X119374800Y-58936752D01*
X119226991Y-58951310D01*
X119084862Y-58994425D01*
X118953874Y-59064439D01*
X118839063Y-59158662D01*
X118744840Y-59273473D01*
X118674825Y-59404461D01*
X118631710Y-59546590D01*
X118620800Y-59657361D01*
X113128800Y-59657361D01*
X113117890Y-59546590D01*
X113074775Y-59404461D01*
X113004761Y-59273473D01*
X112910538Y-59158662D01*
X112795727Y-59064439D01*
X112664739Y-58994425D01*
X112522610Y-58951310D01*
X112374800Y-58936752D01*
X112226991Y-58951310D01*
X112084862Y-58994425D01*
X111953874Y-59064439D01*
X111839063Y-59158662D01*
X111744840Y-59273473D01*
X111674825Y-59404461D01*
X111631710Y-59546590D01*
X111620800Y-59657361D01*
X110769000Y-59657361D01*
X110769000Y-59632743D01*
X110727150Y-59422350D01*
X110645059Y-59224165D01*
X110525881Y-59045803D01*
X110374197Y-58894119D01*
X110195835Y-58774941D01*
X110193563Y-58774000D01*
X122056325Y-58774000D01*
X121895944Y-58840432D01*
X121729538Y-58951621D01*
X121588021Y-59093138D01*
X121476832Y-59259544D01*
X121400244Y-59444444D01*
X121361200Y-59640733D01*
X121361200Y-59840867D01*
X121400244Y-60037156D01*
X121476832Y-60222056D01*
X121588021Y-60388462D01*
X121729538Y-60529979D01*
X121895944Y-60641168D01*
X122048201Y-60704235D01*
X122048200Y-63052056D01*
X122046610Y-63068200D01*
X122048200Y-63084344D01*
X122048200Y-63084353D01*
X122052961Y-63132694D01*
X122071774Y-63194711D01*
X122102324Y-63251866D01*
X122143437Y-63301963D01*
X122155990Y-63312265D01*
X123242001Y-64398277D01*
X123242001Y-69825999D01*
X121227000Y-67810999D01*
X121227000Y-64500000D01*
X121224560Y-64475224D01*
X121217333Y-64451399D01*
X121205597Y-64429443D01*
X121189803Y-64410197D01*
X120589803Y-63810197D01*
X120570557Y-63794403D01*
X120548601Y-63782667D01*
X120524776Y-63775440D01*
X120500000Y-63773000D01*
X118677534Y-63773000D01*
X118682600Y-63747532D01*
X118682600Y-63652468D01*
X118664054Y-63559231D01*
X118627674Y-63471403D01*
X118577767Y-63396710D01*
X118667709Y-63387852D01*
X118805126Y-63346167D01*
X118931770Y-63278474D01*
X119042775Y-63187375D01*
X119133874Y-63076370D01*
X119201567Y-62949726D01*
X119243252Y-62812309D01*
X119257327Y-62669400D01*
X119243252Y-62526491D01*
X119201567Y-62389074D01*
X119133874Y-62262430D01*
X119042775Y-62151425D01*
X118931770Y-62060326D01*
X118805126Y-61992633D01*
X118667709Y-61950948D01*
X118560611Y-61940400D01*
X118188989Y-61940400D01*
X118081891Y-61950948D01*
X117944474Y-61992633D01*
X117817830Y-62060326D01*
X117706825Y-62151425D01*
X117615726Y-62262430D01*
X117548033Y-62389074D01*
X117506348Y-62526491D01*
X117492273Y-62669400D01*
X117506348Y-62812309D01*
X117548033Y-62949726D01*
X117615726Y-63076370D01*
X117706825Y-63187375D01*
X117794141Y-63259033D01*
X117745640Y-63238943D01*
X117691321Y-63184624D01*
X117677889Y-63168257D01*
X117612565Y-63114647D01*
X117538038Y-63074812D01*
X117457172Y-63050281D01*
X117394141Y-63044073D01*
X117394131Y-63044073D01*
X117373073Y-63041999D01*
X117352015Y-63044073D01*
X114151137Y-63044073D01*
X114201567Y-62949726D01*
X114243252Y-62812309D01*
X114257327Y-62669400D01*
X114243252Y-62526491D01*
X114201567Y-62389074D01*
X114133874Y-62262430D01*
X114042775Y-62151425D01*
X113931770Y-62060326D01*
X113805126Y-61992633D01*
X113667709Y-61950948D01*
X113560611Y-61940400D01*
X113188989Y-61940400D01*
X113081891Y-61950948D01*
X112944474Y-61992633D01*
X112817830Y-62060326D01*
X112706825Y-62151425D01*
X112615726Y-62262430D01*
X112548033Y-62389074D01*
X112506348Y-62526491D01*
X112492273Y-62669400D01*
X112506348Y-62812309D01*
X112548033Y-62949726D01*
X112598463Y-63044073D01*
X112385484Y-63044073D01*
X112364426Y-63041999D01*
X112343368Y-63044073D01*
X112343359Y-63044073D01*
X112280328Y-63050281D01*
X112199462Y-63074812D01*
X112124935Y-63114647D01*
X112059611Y-63168257D01*
X112046179Y-63184624D01*
X111629000Y-63601803D01*
X111629000Y-63254475D01*
X111630320Y-63253155D01*
X111690949Y-63162418D01*
X111732711Y-63061596D01*
X111754000Y-62954564D01*
X111754000Y-62845436D01*
X111732711Y-62738404D01*
X111690949Y-62637582D01*
X111630320Y-62546845D01*
X111553155Y-62469680D01*
X111462418Y-62409051D01*
X111361596Y-62367289D01*
X111254564Y-62346000D01*
X111252696Y-62346000D01*
X111218248Y-62311553D01*
X111218245Y-62311549D01*
X110888451Y-61981756D01*
X109918246Y-61011551D01*
X109904814Y-60995184D01*
X109839490Y-60941574D01*
X109764963Y-60901739D01*
X109684097Y-60877208D01*
X109621066Y-60871000D01*
X109621056Y-60871000D01*
X109599998Y-60868926D01*
X109578940Y-60871000D01*
X108877698Y-60871000D01*
X108095310Y-60088613D01*
X108116956Y-60036356D01*
X108156000Y-59840067D01*
X108156000Y-59639933D01*
X108116956Y-59443644D01*
X108040368Y-59258744D01*
X107929179Y-59092338D01*
X107787662Y-58950821D01*
X107621256Y-58839632D01*
X107462806Y-58774000D01*
X109166437Y-58774000D01*
X109164165Y-58774941D01*
%TA.AperFunction,Conductor*%
D30*
G36*
X109164165Y-58774941D02*
G01*
X108985803Y-58894119D01*
X108834119Y-59045803D01*
X108714941Y-59224165D01*
X108632850Y-59422350D01*
X108591000Y-59632743D01*
X108591000Y-59847257D01*
X108632850Y-60057650D01*
X108714941Y-60255835D01*
X108834119Y-60434197D01*
X108985803Y-60585881D01*
X109164165Y-60705059D01*
X109362350Y-60787150D01*
X109572743Y-60829000D01*
X109787257Y-60829000D01*
X109997650Y-60787150D01*
X110195835Y-60705059D01*
X110374197Y-60585881D01*
X110525881Y-60434197D01*
X110645059Y-60255835D01*
X110727150Y-60057650D01*
X110769000Y-59847257D01*
X110769000Y-59657361D01*
X111620800Y-59657361D01*
X111620800Y-60281438D01*
X111631710Y-60392209D01*
X111674825Y-60534338D01*
X111744839Y-60665326D01*
X111839062Y-60780138D01*
X111953873Y-60874361D01*
X112084861Y-60944375D01*
X112226990Y-60987490D01*
X112374800Y-61002048D01*
X112522609Y-60987490D01*
X112664738Y-60944375D01*
X112795726Y-60874361D01*
X112910538Y-60780138D01*
X113004761Y-60665327D01*
X113074775Y-60534339D01*
X113117890Y-60392210D01*
X113128800Y-60281439D01*
X113128800Y-59657361D01*
X118620800Y-59657361D01*
X118620800Y-60281438D01*
X118631710Y-60392209D01*
X118674825Y-60534338D01*
X118744839Y-60665326D01*
X118839062Y-60780138D01*
X118953873Y-60874361D01*
X119084861Y-60944375D01*
X119226990Y-60987490D01*
X119374800Y-61002048D01*
X119522609Y-60987490D01*
X119664738Y-60944375D01*
X119795726Y-60874361D01*
X119910538Y-60780138D01*
X120004761Y-60665327D01*
X120074775Y-60534339D01*
X120117890Y-60392210D01*
X120128800Y-60281439D01*
X120128800Y-59657361D01*
X120117890Y-59546590D01*
X120074775Y-59404461D01*
X120004761Y-59273473D01*
X119910538Y-59158662D01*
X119795727Y-59064439D01*
X119664739Y-58994425D01*
X119522610Y-58951310D01*
X119374800Y-58936752D01*
X119226991Y-58951310D01*
X119084862Y-58994425D01*
X118953874Y-59064439D01*
X118839063Y-59158662D01*
X118744840Y-59273473D01*
X118674825Y-59404461D01*
X118631710Y-59546590D01*
X118620800Y-59657361D01*
X113128800Y-59657361D01*
X113117890Y-59546590D01*
X113074775Y-59404461D01*
X113004761Y-59273473D01*
X112910538Y-59158662D01*
X112795727Y-59064439D01*
X112664739Y-58994425D01*
X112522610Y-58951310D01*
X112374800Y-58936752D01*
X112226991Y-58951310D01*
X112084862Y-58994425D01*
X111953874Y-59064439D01*
X111839063Y-59158662D01*
X111744840Y-59273473D01*
X111674825Y-59404461D01*
X111631710Y-59546590D01*
X111620800Y-59657361D01*
X110769000Y-59657361D01*
X110769000Y-59632743D01*
X110727150Y-59422350D01*
X110645059Y-59224165D01*
X110525881Y-59045803D01*
X110374197Y-58894119D01*
X110195835Y-58774941D01*
X110193563Y-58774000D01*
X122056325Y-58774000D01*
X121895944Y-58840432D01*
X121729538Y-58951621D01*
X121588021Y-59093138D01*
X121476832Y-59259544D01*
X121400244Y-59444444D01*
X121361200Y-59640733D01*
X121361200Y-59840867D01*
X121400244Y-60037156D01*
X121476832Y-60222056D01*
X121588021Y-60388462D01*
X121729538Y-60529979D01*
X121895944Y-60641168D01*
X122048201Y-60704235D01*
X122048200Y-63052056D01*
X122046610Y-63068200D01*
X122048200Y-63084344D01*
X122048200Y-63084353D01*
X122052961Y-63132694D01*
X122071774Y-63194711D01*
X122102324Y-63251866D01*
X122143437Y-63301963D01*
X122155990Y-63312265D01*
X123242001Y-64398277D01*
X123242001Y-69825999D01*
X121227000Y-67810999D01*
X121227000Y-64500000D01*
X121224560Y-64475224D01*
X121217333Y-64451399D01*
X121205597Y-64429443D01*
X121189803Y-64410197D01*
X120589803Y-63810197D01*
X120570557Y-63794403D01*
X120548601Y-63782667D01*
X120524776Y-63775440D01*
X120500000Y-63773000D01*
X118677534Y-63773000D01*
X118682600Y-63747532D01*
X118682600Y-63652468D01*
X118664054Y-63559231D01*
X118627674Y-63471403D01*
X118577767Y-63396710D01*
X118667709Y-63387852D01*
X118805126Y-63346167D01*
X118931770Y-63278474D01*
X119042775Y-63187375D01*
X119133874Y-63076370D01*
X119201567Y-62949726D01*
X119243252Y-62812309D01*
X119257327Y-62669400D01*
X119243252Y-62526491D01*
X119201567Y-62389074D01*
X119133874Y-62262430D01*
X119042775Y-62151425D01*
X118931770Y-62060326D01*
X118805126Y-61992633D01*
X118667709Y-61950948D01*
X118560611Y-61940400D01*
X118188989Y-61940400D01*
X118081891Y-61950948D01*
X117944474Y-61992633D01*
X117817830Y-62060326D01*
X117706825Y-62151425D01*
X117615726Y-62262430D01*
X117548033Y-62389074D01*
X117506348Y-62526491D01*
X117492273Y-62669400D01*
X117506348Y-62812309D01*
X117548033Y-62949726D01*
X117615726Y-63076370D01*
X117706825Y-63187375D01*
X117794141Y-63259033D01*
X117745640Y-63238943D01*
X117691321Y-63184624D01*
X117677889Y-63168257D01*
X117612565Y-63114647D01*
X117538038Y-63074812D01*
X117457172Y-63050281D01*
X117394141Y-63044073D01*
X117394131Y-63044073D01*
X117373073Y-63041999D01*
X117352015Y-63044073D01*
X114151137Y-63044073D01*
X114201567Y-62949726D01*
X114243252Y-62812309D01*
X114257327Y-62669400D01*
X114243252Y-62526491D01*
X114201567Y-62389074D01*
X114133874Y-62262430D01*
X114042775Y-62151425D01*
X113931770Y-62060326D01*
X113805126Y-61992633D01*
X113667709Y-61950948D01*
X113560611Y-61940400D01*
X113188989Y-61940400D01*
X113081891Y-61950948D01*
X112944474Y-61992633D01*
X112817830Y-62060326D01*
X112706825Y-62151425D01*
X112615726Y-62262430D01*
X112548033Y-62389074D01*
X112506348Y-62526491D01*
X112492273Y-62669400D01*
X112506348Y-62812309D01*
X112548033Y-62949726D01*
X112598463Y-63044073D01*
X112385484Y-63044073D01*
X112364426Y-63041999D01*
X112343368Y-63044073D01*
X112343359Y-63044073D01*
X112280328Y-63050281D01*
X112199462Y-63074812D01*
X112124935Y-63114647D01*
X112059611Y-63168257D01*
X112046179Y-63184624D01*
X111629000Y-63601803D01*
X111629000Y-63254475D01*
X111630320Y-63253155D01*
X111690949Y-63162418D01*
X111732711Y-63061596D01*
X111754000Y-62954564D01*
X111754000Y-62845436D01*
X111732711Y-62738404D01*
X111690949Y-62637582D01*
X111630320Y-62546845D01*
X111553155Y-62469680D01*
X111462418Y-62409051D01*
X111361596Y-62367289D01*
X111254564Y-62346000D01*
X111252696Y-62346000D01*
X111218248Y-62311553D01*
X111218245Y-62311549D01*
X110888451Y-61981756D01*
X109918246Y-61011551D01*
X109904814Y-60995184D01*
X109839490Y-60941574D01*
X109764963Y-60901739D01*
X109684097Y-60877208D01*
X109621066Y-60871000D01*
X109621056Y-60871000D01*
X109599998Y-60868926D01*
X109578940Y-60871000D01*
X108877698Y-60871000D01*
X108095310Y-60088613D01*
X108116956Y-60036356D01*
X108156000Y-59840067D01*
X108156000Y-59639933D01*
X108116956Y-59443644D01*
X108040368Y-59258744D01*
X107929179Y-59092338D01*
X107787662Y-58950821D01*
X107621256Y-58839632D01*
X107462806Y-58774000D01*
X109166437Y-58774000D01*
X109164165Y-58774941D01*
G37*
%TD.AperFunction*%
D29*
X115902436Y-64118697D02*
X115888449Y-64139293D01*
X115878749Y-64162222D01*
X115873709Y-64186602D01*
X115873000Y-64200000D01*
X115873000Y-65250000D01*
X115875440Y-65274776D01*
X115882667Y-65298601D01*
X115899507Y-65327654D01*
X116069507Y-65547654D01*
X116086587Y-65565767D01*
X116106873Y-65580200D01*
X116129585Y-65590398D01*
X116153850Y-65595969D01*
X116170000Y-65597000D01*
X117651027Y-65597000D01*
X117648815Y-65598815D01*
X117569463Y-65695506D01*
X117510498Y-65805820D01*
X117474188Y-65925518D01*
X117462383Y-66045380D01*
X117427550Y-66016794D01*
X117370743Y-65986430D01*
X117309103Y-65967732D01*
X117245000Y-65961418D01*
X116839387Y-65961418D01*
X116825537Y-65935506D01*
X116746185Y-65838815D01*
X116649494Y-65759463D01*
X116539180Y-65700498D01*
X116419482Y-65664188D01*
X116295000Y-65651928D01*
X116255750Y-65655000D01*
X116097000Y-65813750D01*
X116097000Y-66693000D01*
X116117000Y-66693000D01*
X116117000Y-66947000D01*
X116097000Y-66947000D01*
X116097000Y-66967000D01*
X115843000Y-66967000D01*
X115843000Y-66947000D01*
X115823000Y-66947000D01*
X115823000Y-66693000D01*
X115843000Y-66693000D01*
X115843000Y-65813750D01*
X115684250Y-65655000D01*
X115645000Y-65651928D01*
X115520518Y-65664188D01*
X115400820Y-65700498D01*
X115290506Y-65759463D01*
X115193815Y-65838815D01*
X115114463Y-65935506D01*
X115100613Y-65961418D01*
X114695000Y-65961418D01*
X114630897Y-65967732D01*
X114569257Y-65986430D01*
X114512450Y-66016794D01*
X114462657Y-66057657D01*
X114421794Y-66107450D01*
X114391430Y-66164257D01*
X114372732Y-66225897D01*
X114366418Y-66290000D01*
X114366418Y-66303000D01*
X114178582Y-66303000D01*
X114178582Y-66263750D01*
X114167585Y-66152094D01*
X114135016Y-66044728D01*
X114082127Y-65945779D01*
X114010950Y-65859050D01*
X113924221Y-65787873D01*
X113865594Y-65756536D01*
X113974482Y-65745812D01*
X114094180Y-65709502D01*
X114204494Y-65650537D01*
X114301185Y-65571185D01*
X114380537Y-65474494D01*
X114439502Y-65364180D01*
X114469180Y-65266343D01*
X114482786Y-65291797D01*
X114514527Y-65330473D01*
X114553203Y-65362214D01*
X114597328Y-65385800D01*
X114645207Y-65400324D01*
X114695000Y-65405228D01*
X115345000Y-65405228D01*
X115394793Y-65400324D01*
X115442672Y-65385800D01*
X115486797Y-65362214D01*
X115525473Y-65330473D01*
X115557214Y-65291797D01*
X115580800Y-65247672D01*
X115595324Y-65199793D01*
X115600228Y-65150000D01*
X115600228Y-64090000D01*
X115595324Y-64040207D01*
X115580800Y-63992328D01*
X115557214Y-63948203D01*
X115525473Y-63909527D01*
X115516390Y-63902073D01*
X116082956Y-63902073D01*
X115902436Y-64118697D01*
%TA.AperFunction,Conductor*%
D30*
G36*
X115902436Y-64118697D02*
G01*
X115888449Y-64139293D01*
X115878749Y-64162222D01*
X115873709Y-64186602D01*
X115873000Y-64200000D01*
X115873000Y-65250000D01*
X115875440Y-65274776D01*
X115882667Y-65298601D01*
X115899507Y-65327654D01*
X116069507Y-65547654D01*
X116086587Y-65565767D01*
X116106873Y-65580200D01*
X116129585Y-65590398D01*
X116153850Y-65595969D01*
X116170000Y-65597000D01*
X117651027Y-65597000D01*
X117648815Y-65598815D01*
X117569463Y-65695506D01*
X117510498Y-65805820D01*
X117474188Y-65925518D01*
X117462383Y-66045380D01*
X117427550Y-66016794D01*
X117370743Y-65986430D01*
X117309103Y-65967732D01*
X117245000Y-65961418D01*
X116839387Y-65961418D01*
X116825537Y-65935506D01*
X116746185Y-65838815D01*
X116649494Y-65759463D01*
X116539180Y-65700498D01*
X116419482Y-65664188D01*
X116295000Y-65651928D01*
X116255750Y-65655000D01*
X116097000Y-65813750D01*
X116097000Y-66693000D01*
X116117000Y-66693000D01*
X116117000Y-66947000D01*
X116097000Y-66947000D01*
X116097000Y-66967000D01*
X115843000Y-66967000D01*
X115843000Y-66947000D01*
X115823000Y-66947000D01*
X115823000Y-66693000D01*
X115843000Y-66693000D01*
X115843000Y-65813750D01*
X115684250Y-65655000D01*
X115645000Y-65651928D01*
X115520518Y-65664188D01*
X115400820Y-65700498D01*
X115290506Y-65759463D01*
X115193815Y-65838815D01*
X115114463Y-65935506D01*
X115100613Y-65961418D01*
X114695000Y-65961418D01*
X114630897Y-65967732D01*
X114569257Y-65986430D01*
X114512450Y-66016794D01*
X114462657Y-66057657D01*
X114421794Y-66107450D01*
X114391430Y-66164257D01*
X114372732Y-66225897D01*
X114366418Y-66290000D01*
X114366418Y-66303000D01*
X114178582Y-66303000D01*
X114178582Y-66263750D01*
X114167585Y-66152094D01*
X114135016Y-66044728D01*
X114082127Y-65945779D01*
X114010950Y-65859050D01*
X113924221Y-65787873D01*
X113865594Y-65756536D01*
X113974482Y-65745812D01*
X114094180Y-65709502D01*
X114204494Y-65650537D01*
X114301185Y-65571185D01*
X114380537Y-65474494D01*
X114439502Y-65364180D01*
X114469180Y-65266343D01*
X114482786Y-65291797D01*
X114514527Y-65330473D01*
X114553203Y-65362214D01*
X114597328Y-65385800D01*
X114645207Y-65400324D01*
X114695000Y-65405228D01*
X115345000Y-65405228D01*
X115394793Y-65400324D01*
X115442672Y-65385800D01*
X115486797Y-65362214D01*
X115525473Y-65330473D01*
X115557214Y-65291797D01*
X115580800Y-65247672D01*
X115595324Y-65199793D01*
X115600228Y-65150000D01*
X115600228Y-64090000D01*
X115595324Y-64040207D01*
X115580800Y-63992328D01*
X115557214Y-63948203D01*
X115525473Y-63909527D01*
X115516390Y-63902073D01*
X116082956Y-63902073D01*
X115902436Y-64118697D01*
G37*
%TD.AperFunction*%
D29*
X113277000Y-64505500D02*
X113297000Y-64505500D01*
X113297000Y-64759500D01*
X113277000Y-64759500D01*
X113277000Y-64779500D01*
X113023000Y-64779500D01*
X113023000Y-64759500D01*
X113003000Y-64759500D01*
X113003000Y-64505500D01*
X113023000Y-64505500D01*
X113023000Y-64485500D01*
X113277000Y-64485500D01*
X113277000Y-64505500D01*
%TA.AperFunction,Conductor*%
D30*
G36*
X113277000Y-64505500D02*
G01*
X113297000Y-64505500D01*
X113297000Y-64759500D01*
X113277000Y-64759500D01*
X113277000Y-64779500D01*
X113023000Y-64779500D01*
X113023000Y-64759500D01*
X113003000Y-64759500D01*
X113003000Y-64505500D01*
X113023000Y-64505500D01*
X113023000Y-64485500D01*
X113277000Y-64485500D01*
X113277000Y-64505500D01*
G37*
%TD.AperFunction*%
%TD*%
M02*
