%TF.GenerationSoftware,KiCad,Pcbnew,(5.1.10-1-10_14)*%
%TF.CreationDate,2021-05-30T00:03:35-07:00*%
%TF.ProjectId,BetsyBoard,42657473-7942-46f6-9172-642e6b696361,rev?*%
%TF.SameCoordinates,Original*%
%TF.FileFunction,Soldermask,Top*%
%TF.FilePolarity,Negative*%
%FSLAX46Y46*%
G04 Gerber Fmt 4.6, Leading zero omitted, Abs format (unit mm)*
G04 Created by KiCad (PCBNEW (5.1.10-1-10_14)) date 2021-05-30 00:03:35*
%MOMM*%
%LPD*%
G01*
G04 APERTURE LIST*
%ADD10R,1.700000X1.700000*%
%ADD11R,0.550000X0.600000*%
%ADD12O,1.000000X1.550000*%
%ADD13O,1.250000X0.950000*%
%ADD14R,1.200000X1.550000*%
%ADD15R,1.550000X1.500000*%
%ADD16R,1.500000X1.550000*%
%ADD17R,0.400000X1.350000*%
%ADD18R,1.060000X0.650000*%
%ADD19R,1.000000X1.800000*%
%ADD20R,0.400000X1.900000*%
%ADD21R,0.740000X2.400000*%
%ADD22R,1.200000X0.300000*%
%ADD23R,0.300000X1.200000*%
%ADD24C,1.524000*%
G04 APERTURE END LIST*
D10*
%TO.C,P6*%
X124917200Y-59740800D03*
%TD*%
%TO.C,C18*%
G36*
G01*
X114950000Y-70975000D02*
X114450000Y-70975000D01*
G75*
G02*
X114225000Y-70750000I0J225000D01*
G01*
X114225000Y-70300000D01*
G75*
G02*
X114450000Y-70075000I225000J0D01*
G01*
X114950000Y-70075000D01*
G75*
G02*
X115175000Y-70300000I0J-225000D01*
G01*
X115175000Y-70750000D01*
G75*
G02*
X114950000Y-70975000I-225000J0D01*
G01*
G37*
G36*
G01*
X114950000Y-72525000D02*
X114450000Y-72525000D01*
G75*
G02*
X114225000Y-72300000I0J225000D01*
G01*
X114225000Y-71850000D01*
G75*
G02*
X114450000Y-71625000I225000J0D01*
G01*
X114950000Y-71625000D01*
G75*
G02*
X115175000Y-71850000I0J-225000D01*
G01*
X115175000Y-72300000D01*
G75*
G02*
X114950000Y-72525000I-225000J0D01*
G01*
G37*
%TD*%
%TO.C,C4*%
G36*
G01*
X120550000Y-70975000D02*
X120050000Y-70975000D01*
G75*
G02*
X119825000Y-70750000I0J225000D01*
G01*
X119825000Y-70300000D01*
G75*
G02*
X120050000Y-70075000I225000J0D01*
G01*
X120550000Y-70075000D01*
G75*
G02*
X120775000Y-70300000I0J-225000D01*
G01*
X120775000Y-70750000D01*
G75*
G02*
X120550000Y-70975000I-225000J0D01*
G01*
G37*
G36*
G01*
X120550000Y-72525000D02*
X120050000Y-72525000D01*
G75*
G02*
X119825000Y-72300000I0J225000D01*
G01*
X119825000Y-71850000D01*
G75*
G02*
X120050000Y-71625000I225000J0D01*
G01*
X120550000Y-71625000D01*
G75*
G02*
X120775000Y-71850000I0J-225000D01*
G01*
X120775000Y-72300000D01*
G75*
G02*
X120550000Y-72525000I-225000J0D01*
G01*
G37*
%TD*%
D11*
%TO.C,SW2*%
X114555000Y-97770000D03*
X117505000Y-97770000D03*
X114555000Y-95970000D03*
X117505000Y-95970000D03*
%TD*%
D12*
%TO.C,J1*%
X112374800Y-59969400D03*
X119374800Y-59969400D03*
D13*
X113374800Y-62669400D03*
X118374800Y-62669400D03*
D14*
X112974800Y-59969400D03*
D15*
X114874800Y-59969400D03*
D16*
X116874800Y-59969400D03*
D14*
X118774800Y-59969400D03*
D17*
X114574800Y-62644400D03*
X115224800Y-62644400D03*
X115874800Y-62644400D03*
X116524800Y-62644400D03*
X117174800Y-62644400D03*
%TD*%
D18*
%TO.C,U3*%
X120940000Y-95924800D03*
X120940000Y-97824800D03*
X118740000Y-97824800D03*
X118740000Y-96874800D03*
X118740000Y-95924800D03*
%TD*%
D19*
%TO.C,Y1*%
X118760000Y-69790000D03*
X116260000Y-69790000D03*
%TD*%
D20*
%TO.C,X1*%
X118700000Y-72100000D03*
X117500000Y-72100000D03*
X116300000Y-72100000D03*
%TD*%
D21*
%TO.C,P3*%
X113490000Y-88778000D03*
X114760000Y-88778000D03*
X116030000Y-88778000D03*
X117300000Y-88778000D03*
X118570000Y-88778000D03*
X113490000Y-92678000D03*
X114760000Y-92678000D03*
X116030000Y-92678000D03*
X117300000Y-92678000D03*
X118570000Y-92678000D03*
%TD*%
D18*
%TO.C,U2*%
X113200000Y-65600000D03*
X113200000Y-64650000D03*
X113200000Y-66550000D03*
X111000000Y-66550000D03*
X111000000Y-65600000D03*
X111000000Y-64650000D03*
%TD*%
%TO.C,R4*%
G36*
G01*
X109886000Y-100073750D02*
X109886000Y-100586250D01*
G75*
G02*
X109667250Y-100805000I-218750J0D01*
G01*
X109229750Y-100805000D01*
G75*
G02*
X109011000Y-100586250I0J218750D01*
G01*
X109011000Y-100073750D01*
G75*
G02*
X109229750Y-99855000I218750J0D01*
G01*
X109667250Y-99855000D01*
G75*
G02*
X109886000Y-100073750I0J-218750D01*
G01*
G37*
G36*
G01*
X111461000Y-100073750D02*
X111461000Y-100586250D01*
G75*
G02*
X111242250Y-100805000I-218750J0D01*
G01*
X110804750Y-100805000D01*
G75*
G02*
X110586000Y-100586250I0J218750D01*
G01*
X110586000Y-100073750D01*
G75*
G02*
X110804750Y-99855000I218750J0D01*
G01*
X111242250Y-99855000D01*
G75*
G02*
X111461000Y-100073750I0J-218750D01*
G01*
G37*
%TD*%
%TO.C,R3*%
G36*
G01*
X118550000Y-100093750D02*
X118550000Y-100606250D01*
G75*
G02*
X118331250Y-100825000I-218750J0D01*
G01*
X117893750Y-100825000D01*
G75*
G02*
X117675000Y-100606250I0J218750D01*
G01*
X117675000Y-100093750D01*
G75*
G02*
X117893750Y-99875000I218750J0D01*
G01*
X118331250Y-99875000D01*
G75*
G02*
X118550000Y-100093750I0J-218750D01*
G01*
G37*
G36*
G01*
X120125000Y-100093750D02*
X120125000Y-100606250D01*
G75*
G02*
X119906250Y-100825000I-218750J0D01*
G01*
X119468750Y-100825000D01*
G75*
G02*
X119250000Y-100606250I0J218750D01*
G01*
X119250000Y-100093750D01*
G75*
G02*
X119468750Y-99875000I218750J0D01*
G01*
X119906250Y-99875000D01*
G75*
G02*
X120125000Y-100093750I0J-218750D01*
G01*
G37*
%TD*%
%TO.C,D2*%
G36*
G01*
X113634000Y-100586250D02*
X113634000Y-100073750D01*
G75*
G02*
X113852750Y-99855000I218750J0D01*
G01*
X114290250Y-99855000D01*
G75*
G02*
X114509000Y-100073750I0J-218750D01*
G01*
X114509000Y-100586250D01*
G75*
G02*
X114290250Y-100805000I-218750J0D01*
G01*
X113852750Y-100805000D01*
G75*
G02*
X113634000Y-100586250I0J218750D01*
G01*
G37*
G36*
G01*
X112059000Y-100586250D02*
X112059000Y-100073750D01*
G75*
G02*
X112277750Y-99855000I218750J0D01*
G01*
X112715250Y-99855000D01*
G75*
G02*
X112934000Y-100073750I0J-218750D01*
G01*
X112934000Y-100586250D01*
G75*
G02*
X112715250Y-100805000I-218750J0D01*
G01*
X112277750Y-100805000D01*
G75*
G02*
X112059000Y-100586250I0J218750D01*
G01*
G37*
%TD*%
%TO.C,D1*%
G36*
G01*
X122320800Y-100611650D02*
X122320800Y-100099150D01*
G75*
G02*
X122539550Y-99880400I218750J0D01*
G01*
X122977050Y-99880400D01*
G75*
G02*
X123195800Y-100099150I0J-218750D01*
G01*
X123195800Y-100611650D01*
G75*
G02*
X122977050Y-100830400I-218750J0D01*
G01*
X122539550Y-100830400D01*
G75*
G02*
X122320800Y-100611650I0J218750D01*
G01*
G37*
G36*
G01*
X120745800Y-100611650D02*
X120745800Y-100099150D01*
G75*
G02*
X120964550Y-99880400I218750J0D01*
G01*
X121402050Y-99880400D01*
G75*
G02*
X121620800Y-100099150I0J-218750D01*
G01*
X121620800Y-100611650D01*
G75*
G02*
X121402050Y-100830400I-218750J0D01*
G01*
X120964550Y-100830400D01*
G75*
G02*
X120745800Y-100611650I0J218750D01*
G01*
G37*
%TD*%
%TO.C,C17*%
G36*
G01*
X122276150Y-97199400D02*
X122788650Y-97199400D01*
G75*
G02*
X123007400Y-97418150I0J-218750D01*
G01*
X123007400Y-97855650D01*
G75*
G02*
X122788650Y-98074400I-218750J0D01*
G01*
X122276150Y-98074400D01*
G75*
G02*
X122057400Y-97855650I0J218750D01*
G01*
X122057400Y-97418150D01*
G75*
G02*
X122276150Y-97199400I218750J0D01*
G01*
G37*
G36*
G01*
X122276150Y-95624400D02*
X122788650Y-95624400D01*
G75*
G02*
X123007400Y-95843150I0J-218750D01*
G01*
X123007400Y-96280650D01*
G75*
G02*
X122788650Y-96499400I-218750J0D01*
G01*
X122276150Y-96499400D01*
G75*
G02*
X122057400Y-96280650I0J218750D01*
G01*
X122057400Y-95843150D01*
G75*
G02*
X122276150Y-95624400I218750J0D01*
G01*
G37*
%TD*%
%TO.C,C9*%
G36*
G01*
X118700000Y-67357750D02*
X118700000Y-67870250D01*
G75*
G02*
X118481250Y-68089000I-218750J0D01*
G01*
X118043750Y-68089000D01*
G75*
G02*
X117825000Y-67870250I0J218750D01*
G01*
X117825000Y-67357750D01*
G75*
G02*
X118043750Y-67139000I218750J0D01*
G01*
X118481250Y-67139000D01*
G75*
G02*
X118700000Y-67357750I0J-218750D01*
G01*
G37*
G36*
G01*
X120275000Y-67357750D02*
X120275000Y-67870250D01*
G75*
G02*
X120056250Y-68089000I-218750J0D01*
G01*
X119618750Y-68089000D01*
G75*
G02*
X119400000Y-67870250I0J218750D01*
G01*
X119400000Y-67357750D01*
G75*
G02*
X119618750Y-67139000I218750J0D01*
G01*
X120056250Y-67139000D01*
G75*
G02*
X120275000Y-67357750I0J-218750D01*
G01*
G37*
%TD*%
%TO.C,C8*%
G36*
G01*
X116400000Y-67870250D02*
X116400000Y-67357750D01*
G75*
G02*
X116618750Y-67139000I218750J0D01*
G01*
X117056250Y-67139000D01*
G75*
G02*
X117275000Y-67357750I0J-218750D01*
G01*
X117275000Y-67870250D01*
G75*
G02*
X117056250Y-68089000I-218750J0D01*
G01*
X116618750Y-68089000D01*
G75*
G02*
X116400000Y-67870250I0J218750D01*
G01*
G37*
G36*
G01*
X114825000Y-67870250D02*
X114825000Y-67357750D01*
G75*
G02*
X115043750Y-67139000I218750J0D01*
G01*
X115481250Y-67139000D01*
G75*
G02*
X115700000Y-67357750I0J-218750D01*
G01*
X115700000Y-67870250D01*
G75*
G02*
X115481250Y-68089000I-218750J0D01*
G01*
X115043750Y-68089000D01*
G75*
G02*
X114825000Y-67870250I0J218750D01*
G01*
G37*
%TD*%
%TO.C,C3*%
G36*
G01*
X110600000Y-92393750D02*
X110600000Y-92906250D01*
G75*
G02*
X110381250Y-93125000I-218750J0D01*
G01*
X109943750Y-93125000D01*
G75*
G02*
X109725000Y-92906250I0J218750D01*
G01*
X109725000Y-92393750D01*
G75*
G02*
X109943750Y-92175000I218750J0D01*
G01*
X110381250Y-92175000D01*
G75*
G02*
X110600000Y-92393750I0J-218750D01*
G01*
G37*
G36*
G01*
X112175000Y-92393750D02*
X112175000Y-92906250D01*
G75*
G02*
X111956250Y-93125000I-218750J0D01*
G01*
X111518750Y-93125000D01*
G75*
G02*
X111300000Y-92906250I0J218750D01*
G01*
X111300000Y-92393750D01*
G75*
G02*
X111518750Y-92175000I218750J0D01*
G01*
X111956250Y-92175000D01*
G75*
G02*
X112175000Y-92393750I0J-218750D01*
G01*
G37*
%TD*%
%TO.C,C7*%
G36*
G01*
X121156250Y-87950000D02*
X120643750Y-87950000D01*
G75*
G02*
X120425000Y-87731250I0J218750D01*
G01*
X120425000Y-87293750D01*
G75*
G02*
X120643750Y-87075000I218750J0D01*
G01*
X121156250Y-87075000D01*
G75*
G02*
X121375000Y-87293750I0J-218750D01*
G01*
X121375000Y-87731250D01*
G75*
G02*
X121156250Y-87950000I-218750J0D01*
G01*
G37*
G36*
G01*
X121156250Y-89525000D02*
X120643750Y-89525000D01*
G75*
G02*
X120425000Y-89306250I0J218750D01*
G01*
X120425000Y-88868750D01*
G75*
G02*
X120643750Y-88650000I218750J0D01*
G01*
X121156250Y-88650000D01*
G75*
G02*
X121375000Y-88868750I0J-218750D01*
G01*
X121375000Y-89306250D01*
G75*
G02*
X121156250Y-89525000I-218750J0D01*
G01*
G37*
%TD*%
D22*
%TO.C,U4*%
X121780000Y-76360000D03*
X121780000Y-76860000D03*
X121780000Y-77360000D03*
X121780000Y-77860000D03*
X121780000Y-78360000D03*
X121780000Y-78860000D03*
X121780000Y-79360000D03*
X121780000Y-79860000D03*
X121780000Y-80360000D03*
X121780000Y-80860000D03*
X121780000Y-81360000D03*
X121780000Y-81860000D03*
X121780000Y-82360000D03*
X121780000Y-82860000D03*
X121780000Y-83360000D03*
X121780000Y-83860000D03*
D23*
X119780000Y-85810000D03*
X119280000Y-85810000D03*
X118780000Y-85810000D03*
X118280000Y-85810000D03*
X117780000Y-85810000D03*
X117280000Y-85810000D03*
X116780000Y-85810000D03*
X116280000Y-85810000D03*
X115780000Y-85810000D03*
X115280000Y-85810000D03*
X114780000Y-85810000D03*
X114280000Y-85810000D03*
X113780000Y-85810000D03*
X113280000Y-85810000D03*
X112780000Y-85810000D03*
X112280000Y-85810000D03*
D22*
X110280000Y-83810000D03*
X110280000Y-83310000D03*
X110280000Y-82810000D03*
X110280000Y-82310000D03*
X110280000Y-81810000D03*
X110280000Y-81310000D03*
X110280000Y-80810000D03*
X110280000Y-80310000D03*
X110280000Y-79810000D03*
X110280000Y-79310000D03*
X110280000Y-78810000D03*
X110280000Y-78310000D03*
X110280000Y-77810000D03*
X110280000Y-77310000D03*
X110280000Y-76810000D03*
X110280000Y-76310000D03*
D23*
X112280000Y-74310000D03*
X112780000Y-74310000D03*
X113280000Y-74310000D03*
X113780000Y-74310000D03*
X114280000Y-74310000D03*
X114780000Y-74310000D03*
X115280000Y-74310000D03*
X115780000Y-74310000D03*
X116280000Y-74310000D03*
X116780000Y-74310000D03*
X117280000Y-74310000D03*
X117780000Y-74310000D03*
X118280000Y-74310000D03*
X118780000Y-74310000D03*
X119280000Y-74310000D03*
X119780000Y-74310000D03*
%TD*%
D24*
%TO.C,P4*%
X107140000Y-62280000D03*
X107140000Y-64820000D03*
X107140000Y-67360000D03*
X107140000Y-69900000D03*
X107140000Y-72440000D03*
X107140000Y-74980000D03*
X107140000Y-77520000D03*
X107140000Y-80060000D03*
X107140000Y-82600000D03*
X107140000Y-85140000D03*
X107140000Y-87680000D03*
X107140000Y-90220000D03*
X107140000Y-92760000D03*
X107140000Y-95300000D03*
X107140000Y-97840000D03*
X107140000Y-100380000D03*
%TD*%
%TO.C,P5*%
X124920000Y-100380000D03*
X124920000Y-97840000D03*
X124920000Y-95300000D03*
X124920000Y-92760000D03*
X124920000Y-90220000D03*
X124920000Y-87680000D03*
X124920000Y-85140000D03*
X124920000Y-82600000D03*
X124920000Y-80060000D03*
X124920000Y-77520000D03*
X124920000Y-74980000D03*
X124920000Y-72440000D03*
X124920000Y-69900000D03*
X124920000Y-67360000D03*
X124920000Y-64820000D03*
X124920000Y-62280000D03*
%TD*%
%TO.C,P1*%
X109680000Y-59740000D03*
%TD*%
%TO.C,P7*%
X122377200Y-59740800D03*
%TD*%
%TO.C,P2*%
X107140000Y-59740000D03*
%TD*%
M02*
