%TF.GenerationSoftware,KiCad,Pcbnew,(5.1.10-1-10_14)*%
%TF.CreationDate,2021-05-30T00:03:35-07:00*%
%TF.ProjectId,BetsyBoard,42657473-7942-46f6-9172-642e6b696361,rev?*%
%TF.SameCoordinates,Original*%
%TF.FileFunction,Legend,Bot*%
%TF.FilePolarity,Positive*%
%FSLAX46Y46*%
G04 Gerber Fmt 4.6, Leading zero omitted, Abs format (unit mm)*
G04 Created by KiCad (PCBNEW (5.1.10-1-10_14)) date 2021-05-30 00:03:35*
%MOMM*%
%LPD*%
G01*
G04 APERTURE LIST*
%ADD10C,0.150000*%
%ADD11C,0.125000*%
%ADD12C,0.100000*%
%ADD13C,0.200000*%
%ADD14C,0.120000*%
G04 APERTURE END LIST*
D10*
X120951047Y-95718380D02*
X120951047Y-96432666D01*
X120998666Y-96575523D01*
X121093904Y-96670761D01*
X121236761Y-96718380D01*
X121332000Y-96718380D01*
X119998666Y-96718380D02*
X120474857Y-96718380D01*
X120474857Y-95718380D01*
X119093904Y-96623142D02*
X119141523Y-96670761D01*
X119284380Y-96718380D01*
X119379619Y-96718380D01*
X119522476Y-96670761D01*
X119617714Y-96575523D01*
X119665333Y-96480285D01*
X119712952Y-96289809D01*
X119712952Y-96146952D01*
X119665333Y-95956476D01*
X119617714Y-95861238D01*
X119522476Y-95766000D01*
X119379619Y-95718380D01*
X119284380Y-95718380D01*
X119141523Y-95766000D01*
X119093904Y-95813619D01*
X118379619Y-95718380D02*
X118379619Y-96432666D01*
X118427238Y-96575523D01*
X118522476Y-96670761D01*
X118665333Y-96718380D01*
X118760571Y-96718380D01*
X117427238Y-96718380D02*
X117903428Y-96718380D01*
X117903428Y-95718380D01*
X116522476Y-96623142D02*
X116570095Y-96670761D01*
X116712952Y-96718380D01*
X116808190Y-96718380D01*
X116951047Y-96670761D01*
X117046285Y-96575523D01*
X117093904Y-96480285D01*
X117141523Y-96289809D01*
X117141523Y-96146952D01*
X117093904Y-95956476D01*
X117046285Y-95861238D01*
X116951047Y-95766000D01*
X116808190Y-95718380D01*
X116712952Y-95718380D01*
X116570095Y-95766000D01*
X116522476Y-95813619D01*
X115808190Y-95718380D02*
X115808190Y-96432666D01*
X115855809Y-96575523D01*
X115951047Y-96670761D01*
X116093904Y-96718380D01*
X116189142Y-96718380D01*
X114855809Y-96718380D02*
X115332000Y-96718380D01*
X115332000Y-95718380D01*
X113951047Y-96623142D02*
X113998666Y-96670761D01*
X114141523Y-96718380D01*
X114236761Y-96718380D01*
X114379619Y-96670761D01*
X114474857Y-96575523D01*
X114522476Y-96480285D01*
X114570095Y-96289809D01*
X114570095Y-96146952D01*
X114522476Y-95956476D01*
X114474857Y-95861238D01*
X114379619Y-95766000D01*
X114236761Y-95718380D01*
X114141523Y-95718380D01*
X113998666Y-95766000D01*
X113951047Y-95813619D01*
X113236761Y-95718380D02*
X113236761Y-96432666D01*
X113284380Y-96575523D01*
X113379619Y-96670761D01*
X113522476Y-96718380D01*
X113617714Y-96718380D01*
X112284380Y-96718380D02*
X112760571Y-96718380D01*
X112760571Y-95718380D01*
X111379619Y-96623142D02*
X111427238Y-96670761D01*
X111570095Y-96718380D01*
X111665333Y-96718380D01*
X111808190Y-96670761D01*
X111903428Y-96575523D01*
X111951047Y-96480285D01*
X111998666Y-96289809D01*
X111998666Y-96146952D01*
X111951047Y-95956476D01*
X111903428Y-95861238D01*
X111808190Y-95766000D01*
X111665333Y-95718380D01*
X111570095Y-95718380D01*
X111427238Y-95766000D01*
X111379619Y-95813619D01*
D11*
X109340476Y-95802380D02*
X109911904Y-95802380D01*
X109626190Y-95802380D02*
X109626190Y-94802380D01*
X109721428Y-94945238D01*
X109816666Y-95040476D01*
X109911904Y-95088095D01*
X108483333Y-95135714D02*
X108483333Y-95802380D01*
X108721428Y-94754761D02*
X108959523Y-95469047D01*
X108340476Y-95469047D01*
X109290476Y-100802380D02*
X109861904Y-100802380D01*
X109576190Y-100802380D02*
X109576190Y-99802380D01*
X109671428Y-99945238D01*
X109766666Y-100040476D01*
X109861904Y-100088095D01*
X108433333Y-99802380D02*
X108623809Y-99802380D01*
X108719047Y-99850000D01*
X108766666Y-99897619D01*
X108861904Y-100040476D01*
X108909523Y-100230952D01*
X108909523Y-100611904D01*
X108861904Y-100707142D01*
X108814285Y-100754761D01*
X108719047Y-100802380D01*
X108528571Y-100802380D01*
X108433333Y-100754761D01*
X108385714Y-100707142D01*
X108338095Y-100611904D01*
X108338095Y-100373809D01*
X108385714Y-100278571D01*
X108433333Y-100230952D01*
X108528571Y-100183333D01*
X108719047Y-100183333D01*
X108814285Y-100230952D01*
X108861904Y-100278571D01*
X108909523Y-100373809D01*
X110540476Y-87816666D02*
X110064285Y-87816666D01*
X110635714Y-88102380D02*
X110302380Y-87102380D01*
X109969047Y-88102380D01*
X109111904Y-88102380D02*
X109683333Y-88102380D01*
X109397619Y-88102380D02*
X109397619Y-87102380D01*
X109492857Y-87245238D01*
X109588095Y-87340476D01*
X109683333Y-87388095D01*
X108159523Y-88102380D02*
X108730952Y-88102380D01*
X108445238Y-88102380D02*
X108445238Y-87102380D01*
X108540476Y-87245238D01*
X108635714Y-87340476D01*
X108730952Y-87388095D01*
X109714285Y-77666666D02*
X109238095Y-77666666D01*
X109809523Y-77952380D02*
X109476190Y-76952380D01*
X109142857Y-77952380D01*
X108904761Y-76952380D02*
X108238095Y-76952380D01*
X108666666Y-77952380D01*
D10*
X123914285Y-72952380D02*
X123914285Y-71952380D01*
X123676190Y-71952380D01*
X123533333Y-72000000D01*
X123438095Y-72095238D01*
X123390476Y-72190476D01*
X123342857Y-72380952D01*
X123342857Y-72523809D01*
X123390476Y-72714285D01*
X123438095Y-72809523D01*
X123533333Y-72904761D01*
X123676190Y-72952380D01*
X123914285Y-72952380D01*
X122390476Y-72952380D02*
X122961904Y-72952380D01*
X122676190Y-72952380D02*
X122676190Y-71952380D01*
X122771428Y-72095238D01*
X122866666Y-72190476D01*
X122961904Y-72238095D01*
X122009523Y-72047619D02*
X121961904Y-72000000D01*
X121866666Y-71952380D01*
X121628571Y-71952380D01*
X121533333Y-72000000D01*
X121485714Y-72047619D01*
X121438095Y-72142857D01*
X121438095Y-72238095D01*
X121485714Y-72380952D01*
X122057142Y-72952380D01*
X121438095Y-72952380D01*
D11*
X123738095Y-88102380D02*
X123738095Y-87102380D01*
X123500000Y-87102380D01*
X123357142Y-87150000D01*
X123261904Y-87245238D01*
X123214285Y-87340476D01*
X123166666Y-87530952D01*
X123166666Y-87673809D01*
X123214285Y-87864285D01*
X123261904Y-87959523D01*
X123357142Y-88054761D01*
X123500000Y-88102380D01*
X123738095Y-88102380D01*
X122309523Y-87102380D02*
X122500000Y-87102380D01*
X122595238Y-87150000D01*
X122642857Y-87197619D01*
X122738095Y-87340476D01*
X122785714Y-87530952D01*
X122785714Y-87911904D01*
X122738095Y-88007142D01*
X122690476Y-88054761D01*
X122595238Y-88102380D01*
X122404761Y-88102380D01*
X122309523Y-88054761D01*
X122261904Y-88007142D01*
X122214285Y-87911904D01*
X122214285Y-87673809D01*
X122261904Y-87578571D01*
X122309523Y-87530952D01*
X122404761Y-87483333D01*
X122595238Y-87483333D01*
X122690476Y-87530952D01*
X122738095Y-87578571D01*
X122785714Y-87673809D01*
X123753571Y-95739285D02*
X123753571Y-94989285D01*
X123575000Y-94989285D01*
X123467857Y-95025000D01*
X123396428Y-95096428D01*
X123360714Y-95167857D01*
X123325000Y-95310714D01*
X123325000Y-95417857D01*
X123360714Y-95560714D01*
X123396428Y-95632142D01*
X123467857Y-95703571D01*
X123575000Y-95739285D01*
X123753571Y-95739285D01*
X123075000Y-94989285D02*
X122610714Y-94989285D01*
X122860714Y-95275000D01*
X122753571Y-95275000D01*
X122682142Y-95310714D01*
X122646428Y-95346428D01*
X122610714Y-95417857D01*
X122610714Y-95596428D01*
X122646428Y-95667857D01*
X122682142Y-95703571D01*
X122753571Y-95739285D01*
X122967857Y-95739285D01*
X123039285Y-95703571D01*
X123075000Y-95667857D01*
D10*
X123896285Y-75452380D02*
X123896285Y-74452380D01*
X123658190Y-74452380D01*
X123515333Y-74500000D01*
X123420095Y-74595238D01*
X123372476Y-74690476D01*
X123324857Y-74880952D01*
X123324857Y-75023809D01*
X123372476Y-75214285D01*
X123420095Y-75309523D01*
X123515333Y-75404761D01*
X123658190Y-75452380D01*
X123896285Y-75452380D01*
X122372476Y-75452380D02*
X122943904Y-75452380D01*
X122658190Y-75452380D02*
X122658190Y-74452380D01*
X122753428Y-74595238D01*
X122848666Y-74690476D01*
X122943904Y-74738095D01*
X121420095Y-75452380D02*
X121991523Y-75452380D01*
X121705809Y-75452380D02*
X121705809Y-74452380D01*
X121801047Y-74595238D01*
X121896285Y-74690476D01*
X121991523Y-74738095D01*
X123864285Y-70352380D02*
X123864285Y-69352380D01*
X123626190Y-69352380D01*
X123483333Y-69400000D01*
X123388095Y-69495238D01*
X123340476Y-69590476D01*
X123292857Y-69780952D01*
X123292857Y-69923809D01*
X123340476Y-70114285D01*
X123388095Y-70209523D01*
X123483333Y-70304761D01*
X123626190Y-70352380D01*
X123864285Y-70352380D01*
X122340476Y-70352380D02*
X122911904Y-70352380D01*
X122626190Y-70352380D02*
X122626190Y-69352380D01*
X122721428Y-69495238D01*
X122816666Y-69590476D01*
X122911904Y-69638095D01*
X122007142Y-69352380D02*
X121388095Y-69352380D01*
X121721428Y-69733333D01*
X121578571Y-69733333D01*
X121483333Y-69780952D01*
X121435714Y-69828571D01*
X121388095Y-69923809D01*
X121388095Y-70161904D01*
X121435714Y-70257142D01*
X121483333Y-70304761D01*
X121578571Y-70352380D01*
X121864285Y-70352380D01*
X121959523Y-70304761D01*
X122007142Y-70257142D01*
D12*
X123400000Y-59359047D02*
X123376190Y-59311428D01*
X123376190Y-59240000D01*
X123400000Y-59168571D01*
X123447619Y-59120952D01*
X123495238Y-59097142D01*
X123590476Y-59073333D01*
X123661904Y-59073333D01*
X123757142Y-59097142D01*
X123804761Y-59120952D01*
X123852380Y-59168571D01*
X123876190Y-59240000D01*
X123876190Y-59287619D01*
X123852380Y-59359047D01*
X123828571Y-59382857D01*
X123661904Y-59382857D01*
X123661904Y-59287619D01*
X123876190Y-59597142D02*
X123376190Y-59597142D01*
X123876190Y-59882857D01*
X123376190Y-59882857D01*
X123876190Y-60120952D02*
X123376190Y-60120952D01*
X123376190Y-60240000D01*
X123400000Y-60311428D01*
X123447619Y-60359047D01*
X123495238Y-60382857D01*
X123590476Y-60406666D01*
X123661904Y-60406666D01*
X123757142Y-60382857D01*
X123804761Y-60359047D01*
X123852380Y-60311428D01*
X123876190Y-60240000D01*
X123876190Y-60120952D01*
D10*
X123864285Y-65302380D02*
X123864285Y-64302380D01*
X123626190Y-64302380D01*
X123483333Y-64350000D01*
X123388095Y-64445238D01*
X123340476Y-64540476D01*
X123292857Y-64730952D01*
X123292857Y-64873809D01*
X123340476Y-65064285D01*
X123388095Y-65159523D01*
X123483333Y-65254761D01*
X123626190Y-65302380D01*
X123864285Y-65302380D01*
X122340476Y-65302380D02*
X122911904Y-65302380D01*
X122626190Y-65302380D02*
X122626190Y-64302380D01*
X122721428Y-64445238D01*
X122816666Y-64540476D01*
X122911904Y-64588095D01*
X121435714Y-64302380D02*
X121911904Y-64302380D01*
X121959523Y-64778571D01*
X121911904Y-64730952D01*
X121816666Y-64683333D01*
X121578571Y-64683333D01*
X121483333Y-64730952D01*
X121435714Y-64778571D01*
X121388095Y-64873809D01*
X121388095Y-65111904D01*
X121435714Y-65207142D01*
X121483333Y-65254761D01*
X121578571Y-65302380D01*
X121816666Y-65302380D01*
X121911904Y-65254761D01*
X121959523Y-65207142D01*
X123814285Y-62752380D02*
X123814285Y-61752380D01*
X123576190Y-61752380D01*
X123433333Y-61800000D01*
X123338095Y-61895238D01*
X123290476Y-61990476D01*
X123242857Y-62180952D01*
X123242857Y-62323809D01*
X123290476Y-62514285D01*
X123338095Y-62609523D01*
X123433333Y-62704761D01*
X123576190Y-62752380D01*
X123814285Y-62752380D01*
X122290476Y-62752380D02*
X122861904Y-62752380D01*
X122576190Y-62752380D02*
X122576190Y-61752380D01*
X122671428Y-61895238D01*
X122766666Y-61990476D01*
X122861904Y-62038095D01*
X121433333Y-61752380D02*
X121623809Y-61752380D01*
X121719047Y-61800000D01*
X121766666Y-61847619D01*
X121861904Y-61990476D01*
X121909523Y-62180952D01*
X121909523Y-62561904D01*
X121861904Y-62657142D01*
X121814285Y-62704761D01*
X121719047Y-62752380D01*
X121528571Y-62752380D01*
X121433333Y-62704761D01*
X121385714Y-62657142D01*
X121338095Y-62561904D01*
X121338095Y-62323809D01*
X121385714Y-62228571D01*
X121433333Y-62180952D01*
X121528571Y-62133333D01*
X121719047Y-62133333D01*
X121814285Y-62180952D01*
X121861904Y-62228571D01*
X121909523Y-62323809D01*
D13*
X121490952Y-59811428D02*
X120729047Y-59811428D01*
X121110000Y-60192380D02*
X121110000Y-59430476D01*
D10*
X123903571Y-77929761D02*
X123903571Y-76979761D01*
X123677380Y-76979761D01*
X123541666Y-77025000D01*
X123451190Y-77115476D01*
X123405952Y-77205952D01*
X123360714Y-77386904D01*
X123360714Y-77522619D01*
X123405952Y-77703571D01*
X123451190Y-77794047D01*
X123541666Y-77884523D01*
X123677380Y-77929761D01*
X123903571Y-77929761D01*
X122455952Y-77929761D02*
X122998809Y-77929761D01*
X122727380Y-77929761D02*
X122727380Y-76979761D01*
X122817857Y-77115476D01*
X122908333Y-77205952D01*
X122998809Y-77251190D01*
X121867857Y-76979761D02*
X121777380Y-76979761D01*
X121686904Y-77025000D01*
X121641666Y-77070238D01*
X121596428Y-77160714D01*
X121551190Y-77341666D01*
X121551190Y-77567857D01*
X121596428Y-77748809D01*
X121641666Y-77839285D01*
X121686904Y-77884523D01*
X121777380Y-77929761D01*
X121867857Y-77929761D01*
X121958333Y-77884523D01*
X122003571Y-77839285D01*
X122048809Y-77748809D01*
X122094047Y-77567857D01*
X122094047Y-77341666D01*
X122048809Y-77160714D01*
X122003571Y-77070238D01*
X121958333Y-77025000D01*
X121867857Y-76979761D01*
D11*
X123703571Y-100689285D02*
X123703571Y-99939285D01*
X123525000Y-99939285D01*
X123417857Y-99975000D01*
X123346428Y-100046428D01*
X123310714Y-100117857D01*
X123275000Y-100260714D01*
X123275000Y-100367857D01*
X123310714Y-100510714D01*
X123346428Y-100582142D01*
X123417857Y-100653571D01*
X123525000Y-100689285D01*
X123703571Y-100689285D01*
X122560714Y-100689285D02*
X122989285Y-100689285D01*
X122775000Y-100689285D02*
X122775000Y-99939285D01*
X122846428Y-100046428D01*
X122917857Y-100117857D01*
X122989285Y-100153571D01*
X123753571Y-98189285D02*
X123753571Y-97439285D01*
X123575000Y-97439285D01*
X123467857Y-97475000D01*
X123396428Y-97546428D01*
X123360714Y-97617857D01*
X123325000Y-97760714D01*
X123325000Y-97867857D01*
X123360714Y-98010714D01*
X123396428Y-98082142D01*
X123467857Y-98153571D01*
X123575000Y-98189285D01*
X123753571Y-98189285D01*
X123039285Y-97510714D02*
X123003571Y-97475000D01*
X122932142Y-97439285D01*
X122753571Y-97439285D01*
X122682142Y-97475000D01*
X122646428Y-97510714D01*
X122610714Y-97582142D01*
X122610714Y-97653571D01*
X122646428Y-97760714D01*
X123075000Y-98189285D01*
X122610714Y-98189285D01*
D10*
X123753571Y-93089285D02*
X123753571Y-92339285D01*
X123575000Y-92339285D01*
X123467857Y-92375000D01*
X123396428Y-92446428D01*
X123360714Y-92517857D01*
X123325000Y-92660714D01*
X123325000Y-92767857D01*
X123360714Y-92910714D01*
X123396428Y-92982142D01*
X123467857Y-93053571D01*
X123575000Y-93089285D01*
X123753571Y-93089285D01*
X122682142Y-92589285D02*
X122682142Y-93089285D01*
X122860714Y-92303571D02*
X123039285Y-92839285D01*
X122575000Y-92839285D01*
D11*
X123703571Y-90589285D02*
X123703571Y-89839285D01*
X123525000Y-89839285D01*
X123417857Y-89875000D01*
X123346428Y-89946428D01*
X123310714Y-90017857D01*
X123275000Y-90160714D01*
X123275000Y-90267857D01*
X123310714Y-90410714D01*
X123346428Y-90482142D01*
X123417857Y-90553571D01*
X123525000Y-90589285D01*
X123703571Y-90589285D01*
X122596428Y-89839285D02*
X122953571Y-89839285D01*
X122989285Y-90196428D01*
X122953571Y-90160714D01*
X122882142Y-90125000D01*
X122703571Y-90125000D01*
X122632142Y-90160714D01*
X122596428Y-90196428D01*
X122560714Y-90267857D01*
X122560714Y-90446428D01*
X122596428Y-90517857D01*
X122632142Y-90553571D01*
X122703571Y-90589285D01*
X122882142Y-90589285D01*
X122953571Y-90553571D01*
X122989285Y-90517857D01*
X123738095Y-85602380D02*
X123738095Y-84602380D01*
X123500000Y-84602380D01*
X123357142Y-84650000D01*
X123261904Y-84745238D01*
X123214285Y-84840476D01*
X123166666Y-85030952D01*
X123166666Y-85173809D01*
X123214285Y-85364285D01*
X123261904Y-85459523D01*
X123357142Y-85554761D01*
X123500000Y-85602380D01*
X123738095Y-85602380D01*
X122833333Y-84602380D02*
X122166666Y-84602380D01*
X122595238Y-85602380D01*
X123738095Y-83052380D02*
X123738095Y-82052380D01*
X123500000Y-82052380D01*
X123357142Y-82100000D01*
X123261904Y-82195238D01*
X123214285Y-82290476D01*
X123166666Y-82480952D01*
X123166666Y-82623809D01*
X123214285Y-82814285D01*
X123261904Y-82909523D01*
X123357142Y-83004761D01*
X123500000Y-83052380D01*
X123738095Y-83052380D01*
X122595238Y-82480952D02*
X122690476Y-82433333D01*
X122738095Y-82385714D01*
X122785714Y-82290476D01*
X122785714Y-82242857D01*
X122738095Y-82147619D01*
X122690476Y-82100000D01*
X122595238Y-82052380D01*
X122404761Y-82052380D01*
X122309523Y-82100000D01*
X122261904Y-82147619D01*
X122214285Y-82242857D01*
X122214285Y-82290476D01*
X122261904Y-82385714D01*
X122309523Y-82433333D01*
X122404761Y-82480952D01*
X122595238Y-82480952D01*
X122690476Y-82528571D01*
X122738095Y-82576190D01*
X122785714Y-82671428D01*
X122785714Y-82861904D01*
X122738095Y-82957142D01*
X122690476Y-83004761D01*
X122595238Y-83052380D01*
X122404761Y-83052380D01*
X122309523Y-83004761D01*
X122261904Y-82957142D01*
X122214285Y-82861904D01*
X122214285Y-82671428D01*
X122261904Y-82576190D01*
X122309523Y-82528571D01*
X122404761Y-82480952D01*
D10*
X123688095Y-80512380D02*
X123688095Y-79512380D01*
X123450000Y-79512380D01*
X123307142Y-79560000D01*
X123211904Y-79655238D01*
X123164285Y-79750476D01*
X123116666Y-79940952D01*
X123116666Y-80083809D01*
X123164285Y-80274285D01*
X123211904Y-80369523D01*
X123307142Y-80464761D01*
X123450000Y-80512380D01*
X123688095Y-80512380D01*
X122640476Y-80512380D02*
X122450000Y-80512380D01*
X122354761Y-80464761D01*
X122307142Y-80417142D01*
X122211904Y-80274285D01*
X122164285Y-80083809D01*
X122164285Y-79702857D01*
X122211904Y-79607619D01*
X122259523Y-79560000D01*
X122354761Y-79512380D01*
X122545238Y-79512380D01*
X122640476Y-79560000D01*
X122688095Y-79607619D01*
X122735714Y-79702857D01*
X122735714Y-79940952D01*
X122688095Y-80036190D01*
X122640476Y-80083809D01*
X122545238Y-80131428D01*
X122354761Y-80131428D01*
X122259523Y-80083809D01*
X122211904Y-80036190D01*
X122164285Y-79940952D01*
D11*
X109290476Y-98452380D02*
X109861904Y-98452380D01*
X109576190Y-98452380D02*
X109576190Y-97452380D01*
X109671428Y-97595238D01*
X109766666Y-97690476D01*
X109861904Y-97738095D01*
X108385714Y-97452380D02*
X108861904Y-97452380D01*
X108909523Y-97928571D01*
X108861904Y-97880952D01*
X108766666Y-97833333D01*
X108528571Y-97833333D01*
X108433333Y-97880952D01*
X108385714Y-97928571D01*
X108338095Y-98023809D01*
X108338095Y-98261904D01*
X108385714Y-98357142D01*
X108433333Y-98404761D01*
X108528571Y-98452380D01*
X108766666Y-98452380D01*
X108861904Y-98404761D01*
X108909523Y-98357142D01*
X110540476Y-85366666D02*
X110064285Y-85366666D01*
X110635714Y-85652380D02*
X110302380Y-84652380D01*
X109969047Y-85652380D01*
X109111904Y-85652380D02*
X109683333Y-85652380D01*
X109397619Y-85652380D02*
X109397619Y-84652380D01*
X109492857Y-84795238D01*
X109588095Y-84890476D01*
X109683333Y-84938095D01*
X108492857Y-84652380D02*
X108397619Y-84652380D01*
X108302380Y-84700000D01*
X108254761Y-84747619D01*
X108207142Y-84842857D01*
X108159523Y-85033333D01*
X108159523Y-85271428D01*
X108207142Y-85461904D01*
X108254761Y-85557142D01*
X108302380Y-85604761D01*
X108397619Y-85652380D01*
X108492857Y-85652380D01*
X108588095Y-85604761D01*
X108635714Y-85557142D01*
X108683333Y-85461904D01*
X108730952Y-85271428D01*
X108730952Y-85033333D01*
X108683333Y-84842857D01*
X108635714Y-84747619D01*
X108588095Y-84700000D01*
X108492857Y-84652380D01*
X110590476Y-92926666D02*
X110114285Y-92926666D01*
X110685714Y-93212380D02*
X110352380Y-92212380D01*
X110019047Y-93212380D01*
X109161904Y-93212380D02*
X109733333Y-93212380D01*
X109447619Y-93212380D02*
X109447619Y-92212380D01*
X109542857Y-92355238D01*
X109638095Y-92450476D01*
X109733333Y-92498095D01*
X108828571Y-92212380D02*
X108209523Y-92212380D01*
X108542857Y-92593333D01*
X108400000Y-92593333D01*
X108304761Y-92640952D01*
X108257142Y-92688571D01*
X108209523Y-92783809D01*
X108209523Y-93021904D01*
X108257142Y-93117142D01*
X108304761Y-93164761D01*
X108400000Y-93212380D01*
X108685714Y-93212380D01*
X108780952Y-93164761D01*
X108828571Y-93117142D01*
X110590476Y-90416666D02*
X110114285Y-90416666D01*
X110685714Y-90702380D02*
X110352380Y-89702380D01*
X110019047Y-90702380D01*
X109161904Y-90702380D02*
X109733333Y-90702380D01*
X109447619Y-90702380D02*
X109447619Y-89702380D01*
X109542857Y-89845238D01*
X109638095Y-89940476D01*
X109733333Y-89988095D01*
X108780952Y-89797619D02*
X108733333Y-89750000D01*
X108638095Y-89702380D01*
X108400000Y-89702380D01*
X108304761Y-89750000D01*
X108257142Y-89797619D01*
X108209523Y-89892857D01*
X108209523Y-89988095D01*
X108257142Y-90130952D01*
X108828571Y-90702380D01*
X108209523Y-90702380D01*
X109632285Y-82766666D02*
X109156095Y-82766666D01*
X109727523Y-83052380D02*
X109394190Y-82052380D01*
X109060857Y-83052380D01*
X108679904Y-83052380D02*
X108489428Y-83052380D01*
X108394190Y-83004761D01*
X108346571Y-82957142D01*
X108251333Y-82814285D01*
X108203714Y-82623809D01*
X108203714Y-82242857D01*
X108251333Y-82147619D01*
X108298952Y-82100000D01*
X108394190Y-82052380D01*
X108584666Y-82052380D01*
X108679904Y-82100000D01*
X108727523Y-82147619D01*
X108775142Y-82242857D01*
X108775142Y-82480952D01*
X108727523Y-82576190D01*
X108679904Y-82623809D01*
X108584666Y-82671428D01*
X108394190Y-82671428D01*
X108298952Y-82623809D01*
X108251333Y-82576190D01*
X108203714Y-82480952D01*
X109664285Y-80266666D02*
X109188095Y-80266666D01*
X109759523Y-80552380D02*
X109426190Y-79552380D01*
X109092857Y-80552380D01*
X108616666Y-79980952D02*
X108711904Y-79933333D01*
X108759523Y-79885714D01*
X108807142Y-79790476D01*
X108807142Y-79742857D01*
X108759523Y-79647619D01*
X108711904Y-79600000D01*
X108616666Y-79552380D01*
X108426190Y-79552380D01*
X108330952Y-79600000D01*
X108283333Y-79647619D01*
X108235714Y-79742857D01*
X108235714Y-79790476D01*
X108283333Y-79885714D01*
X108330952Y-79933333D01*
X108426190Y-79980952D01*
X108616666Y-79980952D01*
X108711904Y-80028571D01*
X108759523Y-80076190D01*
X108807142Y-80171428D01*
X108807142Y-80361904D01*
X108759523Y-80457142D01*
X108711904Y-80504761D01*
X108616666Y-80552380D01*
X108426190Y-80552380D01*
X108330952Y-80504761D01*
X108283333Y-80457142D01*
X108235714Y-80361904D01*
X108235714Y-80171428D01*
X108283333Y-80076190D01*
X108330952Y-80028571D01*
X108426190Y-79980952D01*
X109759285Y-75146666D02*
X109283095Y-75146666D01*
X109854523Y-75432380D02*
X109521190Y-74432380D01*
X109187857Y-75432380D01*
X108425952Y-74432380D02*
X108616428Y-74432380D01*
X108711666Y-74480000D01*
X108759285Y-74527619D01*
X108854523Y-74670476D01*
X108902142Y-74860952D01*
X108902142Y-75241904D01*
X108854523Y-75337142D01*
X108806904Y-75384761D01*
X108711666Y-75432380D01*
X108521190Y-75432380D01*
X108425952Y-75384761D01*
X108378333Y-75337142D01*
X108330714Y-75241904D01*
X108330714Y-75003809D01*
X108378333Y-74908571D01*
X108425952Y-74860952D01*
X108521190Y-74813333D01*
X108711666Y-74813333D01*
X108806904Y-74860952D01*
X108854523Y-74908571D01*
X108902142Y-75003809D01*
X109759285Y-72606666D02*
X109283095Y-72606666D01*
X109854523Y-72892380D02*
X109521190Y-71892380D01*
X109187857Y-72892380D01*
X108378333Y-71892380D02*
X108854523Y-71892380D01*
X108902142Y-72368571D01*
X108854523Y-72320952D01*
X108759285Y-72273333D01*
X108521190Y-72273333D01*
X108425952Y-72320952D01*
X108378333Y-72368571D01*
X108330714Y-72463809D01*
X108330714Y-72701904D01*
X108378333Y-72797142D01*
X108425952Y-72844761D01*
X108521190Y-72892380D01*
X108759285Y-72892380D01*
X108854523Y-72844761D01*
X108902142Y-72797142D01*
X109759285Y-70066666D02*
X109283095Y-70066666D01*
X109854523Y-70352380D02*
X109521190Y-69352380D01*
X109187857Y-70352380D01*
X108425952Y-69685714D02*
X108425952Y-70352380D01*
X108664047Y-69304761D02*
X108902142Y-70019047D01*
X108283095Y-70019047D01*
X109759285Y-67526666D02*
X109283095Y-67526666D01*
X109854523Y-67812380D02*
X109521190Y-66812380D01*
X109187857Y-67812380D01*
X108949761Y-66812380D02*
X108330714Y-66812380D01*
X108664047Y-67193333D01*
X108521190Y-67193333D01*
X108425952Y-67240952D01*
X108378333Y-67288571D01*
X108330714Y-67383809D01*
X108330714Y-67621904D01*
X108378333Y-67717142D01*
X108425952Y-67764761D01*
X108521190Y-67812380D01*
X108806904Y-67812380D01*
X108902142Y-67764761D01*
X108949761Y-67717142D01*
X109759285Y-64986666D02*
X109283095Y-64986666D01*
X109854523Y-65272380D02*
X109521190Y-64272380D01*
X109187857Y-65272380D01*
X108902142Y-64367619D02*
X108854523Y-64320000D01*
X108759285Y-64272380D01*
X108521190Y-64272380D01*
X108425952Y-64320000D01*
X108378333Y-64367619D01*
X108330714Y-64462857D01*
X108330714Y-64558095D01*
X108378333Y-64700952D01*
X108949761Y-65272380D01*
X108330714Y-65272380D01*
X109759285Y-62446666D02*
X109283095Y-62446666D01*
X109854523Y-62732380D02*
X109521190Y-61732380D01*
X109187857Y-62732380D01*
X108330714Y-62732380D02*
X108902142Y-62732380D01*
X108616428Y-62732380D02*
X108616428Y-61732380D01*
X108711666Y-61875238D01*
X108806904Y-61970476D01*
X108902142Y-62018095D01*
D14*
%TO.C,F1*%
X111885000Y-65316422D02*
X111885000Y-65833578D01*
X110465000Y-65316422D02*
X110465000Y-65833578D01*
%TO.C,U1*%
X114360000Y-66620000D02*
X114360000Y-64820000D01*
X117580000Y-64820000D02*
X117580000Y-67270000D01*
%TO.C,C10*%
X120960000Y-73087221D02*
X120960000Y-73412779D01*
X119940000Y-73087221D02*
X119940000Y-73412779D01*
%TO.C,J2*%
X110555000Y-99105000D02*
X121855000Y-99105000D01*
X110555000Y-93355000D02*
X110555000Y-99805000D01*
X121855000Y-93355000D02*
X121855000Y-99805000D01*
X121855000Y-93355000D02*
X110555000Y-93355000D01*
X110555000Y-99805000D02*
X121855000Y-99805000D01*
%TO.C,R2*%
X119637221Y-70360000D02*
X119962779Y-70360000D01*
X119637221Y-69340000D02*
X119962779Y-69340000D01*
%TO.C,C15*%
X111362779Y-83090000D02*
X111037221Y-83090000D01*
X111362779Y-84110000D02*
X111037221Y-84110000D01*
%TO.C,C11*%
X115862779Y-91390000D02*
X115537221Y-91390000D01*
X115862779Y-92410000D02*
X115537221Y-92410000D01*
%TO.C,C14*%
X110390000Y-77037221D02*
X110390000Y-77362779D01*
X111410000Y-77037221D02*
X111410000Y-77362779D01*
%TO.C,C2*%
X118090000Y-65341422D02*
X118090000Y-65858578D01*
X119510000Y-65341422D02*
X119510000Y-65858578D01*
%TO.C,C13*%
X117790000Y-77091422D02*
X117790000Y-77608578D01*
X119210000Y-77091422D02*
X119210000Y-77608578D01*
%TO.C,C12*%
X119790000Y-77091422D02*
X119790000Y-77608578D01*
X121210000Y-77091422D02*
X121210000Y-77608578D01*
%TO.C,C16*%
X110910000Y-71649221D02*
X110910000Y-71974779D01*
X111930000Y-71649221D02*
X111930000Y-71974779D01*
%TO.C,C6*%
X114587221Y-75360000D02*
X114912779Y-75360000D01*
X114587221Y-74340000D02*
X114912779Y-74340000D01*
%TO.C,C5*%
X114587221Y-73760000D02*
X114912779Y-73760000D01*
X114587221Y-72740000D02*
X114912779Y-72740000D01*
%TO.C,FB2*%
X114441422Y-76040000D02*
X114958578Y-76040000D01*
X114441422Y-77460000D02*
X114958578Y-77460000D01*
%TO.C,C1*%
X112440000Y-65828578D02*
X112440000Y-65311422D01*
X113860000Y-65828578D02*
X113860000Y-65311422D01*
%TO.C,F1*%
D10*
X111483333Y-68078571D02*
X111816666Y-68078571D01*
X111816666Y-68602380D02*
X111816666Y-67602380D01*
X111340476Y-67602380D01*
X110435714Y-68602380D02*
X111007142Y-68602380D01*
X110721428Y-68602380D02*
X110721428Y-67602380D01*
X110816666Y-67745238D01*
X110911904Y-67840476D01*
X111007142Y-67888095D01*
%TO.C,U1*%
X116711904Y-67952380D02*
X116711904Y-68761904D01*
X116664285Y-68857142D01*
X116616666Y-68904761D01*
X116521428Y-68952380D01*
X116330952Y-68952380D01*
X116235714Y-68904761D01*
X116188095Y-68857142D01*
X116140476Y-68761904D01*
X116140476Y-67952380D01*
X115140476Y-68952380D02*
X115711904Y-68952380D01*
X115426190Y-68952380D02*
X115426190Y-67952380D01*
X115521428Y-68095238D01*
X115616666Y-68190476D01*
X115711904Y-68238095D01*
%TO.C,C10*%
X119377142Y-72607142D02*
X119424761Y-72559523D01*
X119472380Y-72416666D01*
X119472380Y-72321428D01*
X119424761Y-72178571D01*
X119329523Y-72083333D01*
X119234285Y-72035714D01*
X119043809Y-71988095D01*
X118900952Y-71988095D01*
X118710476Y-72035714D01*
X118615238Y-72083333D01*
X118520000Y-72178571D01*
X118472380Y-72321428D01*
X118472380Y-72416666D01*
X118520000Y-72559523D01*
X118567619Y-72607142D01*
X119472380Y-73559523D02*
X119472380Y-72988095D01*
X119472380Y-73273809D02*
X118472380Y-73273809D01*
X118615238Y-73178571D01*
X118710476Y-73083333D01*
X118758095Y-72988095D01*
X118472380Y-74178571D02*
X118472380Y-74273809D01*
X118520000Y-74369047D01*
X118567619Y-74416666D01*
X118662857Y-74464285D01*
X118853333Y-74511904D01*
X119091428Y-74511904D01*
X119281904Y-74464285D01*
X119377142Y-74416666D01*
X119424761Y-74369047D01*
X119472380Y-74273809D01*
X119472380Y-74178571D01*
X119424761Y-74083333D01*
X119377142Y-74035714D01*
X119281904Y-73988095D01*
X119091428Y-73940476D01*
X118853333Y-73940476D01*
X118662857Y-73988095D01*
X118567619Y-74035714D01*
X118520000Y-74083333D01*
X118472380Y-74178571D01*
%TO.C,J2*%
X120983333Y-92035380D02*
X120983333Y-92749666D01*
X121030952Y-92892523D01*
X121126190Y-92987761D01*
X121269047Y-93035380D01*
X121364285Y-93035380D01*
X120554761Y-92130619D02*
X120507142Y-92083000D01*
X120411904Y-92035380D01*
X120173809Y-92035380D01*
X120078571Y-92083000D01*
X120030952Y-92130619D01*
X119983333Y-92225857D01*
X119983333Y-92321095D01*
X120030952Y-92463952D01*
X120602380Y-93035380D01*
X119983333Y-93035380D01*
%TO.C,R2*%
X117516666Y-70302380D02*
X117850000Y-69826190D01*
X118088095Y-70302380D02*
X118088095Y-69302380D01*
X117707142Y-69302380D01*
X117611904Y-69350000D01*
X117564285Y-69397619D01*
X117516666Y-69492857D01*
X117516666Y-69635714D01*
X117564285Y-69730952D01*
X117611904Y-69778571D01*
X117707142Y-69826190D01*
X118088095Y-69826190D01*
X117135714Y-69397619D02*
X117088095Y-69350000D01*
X116992857Y-69302380D01*
X116754761Y-69302380D01*
X116659523Y-69350000D01*
X116611904Y-69397619D01*
X116564285Y-69492857D01*
X116564285Y-69588095D01*
X116611904Y-69730952D01*
X117183333Y-70302380D01*
X116564285Y-70302380D01*
%TO.C,C15*%
X114942857Y-84057142D02*
X114990476Y-84104761D01*
X115133333Y-84152380D01*
X115228571Y-84152380D01*
X115371428Y-84104761D01*
X115466666Y-84009523D01*
X115514285Y-83914285D01*
X115561904Y-83723809D01*
X115561904Y-83580952D01*
X115514285Y-83390476D01*
X115466666Y-83295238D01*
X115371428Y-83200000D01*
X115228571Y-83152380D01*
X115133333Y-83152380D01*
X114990476Y-83200000D01*
X114942857Y-83247619D01*
X113990476Y-84152380D02*
X114561904Y-84152380D01*
X114276190Y-84152380D02*
X114276190Y-83152380D01*
X114371428Y-83295238D01*
X114466666Y-83390476D01*
X114561904Y-83438095D01*
X113085714Y-83152380D02*
X113561904Y-83152380D01*
X113609523Y-83628571D01*
X113561904Y-83580952D01*
X113466666Y-83533333D01*
X113228571Y-83533333D01*
X113133333Y-83580952D01*
X113085714Y-83628571D01*
X113038095Y-83723809D01*
X113038095Y-83961904D01*
X113085714Y-84057142D01*
X113133333Y-84104761D01*
X113228571Y-84152380D01*
X113466666Y-84152380D01*
X113561904Y-84104761D01*
X113609523Y-84057142D01*
%TO.C,C11*%
X116342857Y-90827142D02*
X116390476Y-90874761D01*
X116533333Y-90922380D01*
X116628571Y-90922380D01*
X116771428Y-90874761D01*
X116866666Y-90779523D01*
X116914285Y-90684285D01*
X116961904Y-90493809D01*
X116961904Y-90350952D01*
X116914285Y-90160476D01*
X116866666Y-90065238D01*
X116771428Y-89970000D01*
X116628571Y-89922380D01*
X116533333Y-89922380D01*
X116390476Y-89970000D01*
X116342857Y-90017619D01*
X115390476Y-90922380D02*
X115961904Y-90922380D01*
X115676190Y-90922380D02*
X115676190Y-89922380D01*
X115771428Y-90065238D01*
X115866666Y-90160476D01*
X115961904Y-90208095D01*
X114438095Y-90922380D02*
X115009523Y-90922380D01*
X114723809Y-90922380D02*
X114723809Y-89922380D01*
X114819047Y-90065238D01*
X114914285Y-90160476D01*
X115009523Y-90208095D01*
%TO.C,C14*%
X112442857Y-75357142D02*
X112490476Y-75404761D01*
X112633333Y-75452380D01*
X112728571Y-75452380D01*
X112871428Y-75404761D01*
X112966666Y-75309523D01*
X113014285Y-75214285D01*
X113061904Y-75023809D01*
X113061904Y-74880952D01*
X113014285Y-74690476D01*
X112966666Y-74595238D01*
X112871428Y-74500000D01*
X112728571Y-74452380D01*
X112633333Y-74452380D01*
X112490476Y-74500000D01*
X112442857Y-74547619D01*
X111490476Y-75452380D02*
X112061904Y-75452380D01*
X111776190Y-75452380D02*
X111776190Y-74452380D01*
X111871428Y-74595238D01*
X111966666Y-74690476D01*
X112061904Y-74738095D01*
X110633333Y-74785714D02*
X110633333Y-75452380D01*
X110871428Y-74404761D02*
X111109523Y-75119047D01*
X110490476Y-75119047D01*
%TO.C,C2*%
X119016666Y-68557142D02*
X119064285Y-68604761D01*
X119207142Y-68652380D01*
X119302380Y-68652380D01*
X119445238Y-68604761D01*
X119540476Y-68509523D01*
X119588095Y-68414285D01*
X119635714Y-68223809D01*
X119635714Y-68080952D01*
X119588095Y-67890476D01*
X119540476Y-67795238D01*
X119445238Y-67700000D01*
X119302380Y-67652380D01*
X119207142Y-67652380D01*
X119064285Y-67700000D01*
X119016666Y-67747619D01*
X118635714Y-67747619D02*
X118588095Y-67700000D01*
X118492857Y-67652380D01*
X118254761Y-67652380D01*
X118159523Y-67700000D01*
X118111904Y-67747619D01*
X118064285Y-67842857D01*
X118064285Y-67938095D01*
X118111904Y-68080952D01*
X118683333Y-68652380D01*
X118064285Y-68652380D01*
%TO.C,C13*%
X118857142Y-79827142D02*
X118904761Y-79779523D01*
X118952380Y-79636666D01*
X118952380Y-79541428D01*
X118904761Y-79398571D01*
X118809523Y-79303333D01*
X118714285Y-79255714D01*
X118523809Y-79208095D01*
X118380952Y-79208095D01*
X118190476Y-79255714D01*
X118095238Y-79303333D01*
X118000000Y-79398571D01*
X117952380Y-79541428D01*
X117952380Y-79636666D01*
X118000000Y-79779523D01*
X118047619Y-79827142D01*
X118952380Y-80779523D02*
X118952380Y-80208095D01*
X118952380Y-80493809D02*
X117952380Y-80493809D01*
X118095238Y-80398571D01*
X118190476Y-80303333D01*
X118238095Y-80208095D01*
X117952380Y-81112857D02*
X117952380Y-81731904D01*
X118333333Y-81398571D01*
X118333333Y-81541428D01*
X118380952Y-81636666D01*
X118428571Y-81684285D01*
X118523809Y-81731904D01*
X118761904Y-81731904D01*
X118857142Y-81684285D01*
X118904761Y-81636666D01*
X118952380Y-81541428D01*
X118952380Y-81255714D01*
X118904761Y-81160476D01*
X118857142Y-81112857D01*
%TO.C,C12*%
X120827142Y-79847142D02*
X120874761Y-79799523D01*
X120922380Y-79656666D01*
X120922380Y-79561428D01*
X120874761Y-79418571D01*
X120779523Y-79323333D01*
X120684285Y-79275714D01*
X120493809Y-79228095D01*
X120350952Y-79228095D01*
X120160476Y-79275714D01*
X120065238Y-79323333D01*
X119970000Y-79418571D01*
X119922380Y-79561428D01*
X119922380Y-79656666D01*
X119970000Y-79799523D01*
X120017619Y-79847142D01*
X120922380Y-80799523D02*
X120922380Y-80228095D01*
X120922380Y-80513809D02*
X119922380Y-80513809D01*
X120065238Y-80418571D01*
X120160476Y-80323333D01*
X120208095Y-80228095D01*
X120017619Y-81180476D02*
X119970000Y-81228095D01*
X119922380Y-81323333D01*
X119922380Y-81561428D01*
X119970000Y-81656666D01*
X120017619Y-81704285D01*
X120112857Y-81751904D01*
X120208095Y-81751904D01*
X120350952Y-81704285D01*
X120922380Y-81132857D01*
X120922380Y-81751904D01*
%TO.C,C16*%
X114292857Y-71457142D02*
X114340476Y-71504761D01*
X114483333Y-71552380D01*
X114578571Y-71552380D01*
X114721428Y-71504761D01*
X114816666Y-71409523D01*
X114864285Y-71314285D01*
X114911904Y-71123809D01*
X114911904Y-70980952D01*
X114864285Y-70790476D01*
X114816666Y-70695238D01*
X114721428Y-70600000D01*
X114578571Y-70552380D01*
X114483333Y-70552380D01*
X114340476Y-70600000D01*
X114292857Y-70647619D01*
X113340476Y-71552380D02*
X113911904Y-71552380D01*
X113626190Y-71552380D02*
X113626190Y-70552380D01*
X113721428Y-70695238D01*
X113816666Y-70790476D01*
X113911904Y-70838095D01*
X112483333Y-70552380D02*
X112673809Y-70552380D01*
X112769047Y-70600000D01*
X112816666Y-70647619D01*
X112911904Y-70790476D01*
X112959523Y-70980952D01*
X112959523Y-71361904D01*
X112911904Y-71457142D01*
X112864285Y-71504761D01*
X112769047Y-71552380D01*
X112578571Y-71552380D01*
X112483333Y-71504761D01*
X112435714Y-71457142D01*
X112388095Y-71361904D01*
X112388095Y-71123809D01*
X112435714Y-71028571D01*
X112483333Y-70980952D01*
X112578571Y-70933333D01*
X112769047Y-70933333D01*
X112864285Y-70980952D01*
X112911904Y-71028571D01*
X112959523Y-71123809D01*
%TO.C,C6*%
X117366666Y-75207142D02*
X117414285Y-75254761D01*
X117557142Y-75302380D01*
X117652380Y-75302380D01*
X117795238Y-75254761D01*
X117890476Y-75159523D01*
X117938095Y-75064285D01*
X117985714Y-74873809D01*
X117985714Y-74730952D01*
X117938095Y-74540476D01*
X117890476Y-74445238D01*
X117795238Y-74350000D01*
X117652380Y-74302380D01*
X117557142Y-74302380D01*
X117414285Y-74350000D01*
X117366666Y-74397619D01*
X116509523Y-74302380D02*
X116700000Y-74302380D01*
X116795238Y-74350000D01*
X116842857Y-74397619D01*
X116938095Y-74540476D01*
X116985714Y-74730952D01*
X116985714Y-75111904D01*
X116938095Y-75207142D01*
X116890476Y-75254761D01*
X116795238Y-75302380D01*
X116604761Y-75302380D01*
X116509523Y-75254761D01*
X116461904Y-75207142D01*
X116414285Y-75111904D01*
X116414285Y-74873809D01*
X116461904Y-74778571D01*
X116509523Y-74730952D01*
X116604761Y-74683333D01*
X116795238Y-74683333D01*
X116890476Y-74730952D01*
X116938095Y-74778571D01*
X116985714Y-74873809D01*
%TO.C,C5*%
X117366666Y-73657142D02*
X117414285Y-73704761D01*
X117557142Y-73752380D01*
X117652380Y-73752380D01*
X117795238Y-73704761D01*
X117890476Y-73609523D01*
X117938095Y-73514285D01*
X117985714Y-73323809D01*
X117985714Y-73180952D01*
X117938095Y-72990476D01*
X117890476Y-72895238D01*
X117795238Y-72800000D01*
X117652380Y-72752380D01*
X117557142Y-72752380D01*
X117414285Y-72800000D01*
X117366666Y-72847619D01*
X116461904Y-72752380D02*
X116938095Y-72752380D01*
X116985714Y-73228571D01*
X116938095Y-73180952D01*
X116842857Y-73133333D01*
X116604761Y-73133333D01*
X116509523Y-73180952D01*
X116461904Y-73228571D01*
X116414285Y-73323809D01*
X116414285Y-73561904D01*
X116461904Y-73657142D01*
X116509523Y-73704761D01*
X116604761Y-73752380D01*
X116842857Y-73752380D01*
X116938095Y-73704761D01*
X116985714Y-73657142D01*
%TO.C,FB2*%
X115533333Y-78328571D02*
X115866666Y-78328571D01*
X115866666Y-78852380D02*
X115866666Y-77852380D01*
X115390476Y-77852380D01*
X114676190Y-78328571D02*
X114533333Y-78376190D01*
X114485714Y-78423809D01*
X114438095Y-78519047D01*
X114438095Y-78661904D01*
X114485714Y-78757142D01*
X114533333Y-78804761D01*
X114628571Y-78852380D01*
X115009523Y-78852380D01*
X115009523Y-77852380D01*
X114676190Y-77852380D01*
X114580952Y-77900000D01*
X114533333Y-77947619D01*
X114485714Y-78042857D01*
X114485714Y-78138095D01*
X114533333Y-78233333D01*
X114580952Y-78280952D01*
X114676190Y-78328571D01*
X115009523Y-78328571D01*
X114057142Y-77947619D02*
X114009523Y-77900000D01*
X113914285Y-77852380D01*
X113676190Y-77852380D01*
X113580952Y-77900000D01*
X113533333Y-77947619D01*
X113485714Y-78042857D01*
X113485714Y-78138095D01*
X113533333Y-78280952D01*
X114104761Y-78852380D01*
X113485714Y-78852380D01*
%TO.C,C1*%
X113316666Y-68507142D02*
X113364285Y-68554761D01*
X113507142Y-68602380D01*
X113602380Y-68602380D01*
X113745238Y-68554761D01*
X113840476Y-68459523D01*
X113888095Y-68364285D01*
X113935714Y-68173809D01*
X113935714Y-68030952D01*
X113888095Y-67840476D01*
X113840476Y-67745238D01*
X113745238Y-67650000D01*
X113602380Y-67602380D01*
X113507142Y-67602380D01*
X113364285Y-67650000D01*
X113316666Y-67697619D01*
X112364285Y-68602380D02*
X112935714Y-68602380D01*
X112650000Y-68602380D02*
X112650000Y-67602380D01*
X112745238Y-67745238D01*
X112840476Y-67840476D01*
X112935714Y-67888095D01*
%TD*%
M02*
