G04 #@! TF.FileFunction,Copper,L1,Top,Signal*
%FSLAX46Y46*%
G04 Gerber Fmt 4.6, Leading zero omitted, Abs format (unit mm)*
G04 Created by KiCad (PCBNEW 0.201510170916+6271~30~ubuntu15.04.1-product) date Mon 02 Nov 2015 12:23:47 AM PST*
%MOMM*%
G01*
G04 APERTURE LIST*
%ADD10C,0.100000*%
%ADD11R,1.498600X0.797560*%
%ADD12R,0.899160X1.447800*%
%ADD13R,2.050000X1.450000*%
%ADD14R,0.500000X1.400000*%
%ADD15R,2.500000X3.800000*%
%ADD16R,2.800000X2.200000*%
%ADD17R,0.250000X1.000000*%
%ADD18R,1.000000X0.250000*%
%ADD19R,1.143000X0.635000*%
%ADD20R,0.889000X1.397000*%
%ADD21R,0.635000X1.143000*%
%ADD22R,1.397000X0.889000*%
%ADD23R,2.032000X1.524000*%
%ADD24R,1.198880X1.198880*%
%ADD25R,0.900000X1.400000*%
%ADD26R,2.200000X1.400000*%
%ADD27C,1.506220*%
%ADD28R,2.032000X1.727200*%
%ADD29O,2.032000X1.727200*%
%ADD30R,1.524000X1.524000*%
%ADD31C,1.524000*%
%ADD32R,3.657600X2.032000*%
%ADD33R,1.016000X2.032000*%
%ADD34R,0.400000X1.900000*%
%ADD35R,1.100000X1.900000*%
%ADD36R,1.060000X0.650000*%
%ADD37R,1.524000X2.199640*%
%ADD38O,1.524000X2.199640*%
%ADD39R,2.950000X0.700000*%
%ADD40R,0.400000X0.250000*%
%ADD41R,0.650000X1.300000*%
%ADD42C,0.600000*%
%ADD43C,0.250000*%
%ADD44C,0.350000*%
%ADD45C,0.500000*%
%ADD46C,1.000000*%
%ADD47C,0.200000*%
%ADD48C,0.150000*%
%ADD49C,0.254000*%
G04 APERTURE END LIST*
D10*
D11*
X114223560Y-94300660D03*
X114223560Y-93200840D03*
X114223560Y-92101020D03*
X114223560Y-91001200D03*
X114223560Y-89901380D03*
X114223560Y-88801560D03*
X114223560Y-87701740D03*
X114223560Y-86601920D03*
D12*
X109925880Y-97874440D03*
X121625120Y-84127960D03*
D13*
X119923400Y-84126200D03*
X111623400Y-84126200D03*
X111623400Y-97876200D03*
X119923400Y-97876200D03*
D14*
X125100000Y-56500000D03*
X124300000Y-56500000D03*
X123500000Y-56500000D03*
X125900000Y-56500000D03*
X126700000Y-56500000D03*
D15*
X120900000Y-54100000D03*
X129300000Y-54100000D03*
D16*
X138632900Y-95262700D03*
X133832900Y-95262700D03*
D17*
X125150000Y-80500000D03*
X125650000Y-80500000D03*
X126150000Y-80500000D03*
X126650000Y-80500000D03*
X127150000Y-80500000D03*
X127650000Y-80500000D03*
X128150000Y-80500000D03*
X128650000Y-80500000D03*
X129150000Y-80500000D03*
X129650000Y-80500000D03*
X130150000Y-80500000D03*
X130650000Y-80500000D03*
X131150000Y-80500000D03*
X131650000Y-80500000D03*
X132150000Y-80500000D03*
X132650000Y-80500000D03*
D18*
X134600000Y-78550000D03*
X134600000Y-78050000D03*
X134600000Y-77550000D03*
X134600000Y-77050000D03*
X134600000Y-76550000D03*
X134600000Y-76050000D03*
X134600000Y-75550000D03*
X134600000Y-75050000D03*
X134600000Y-74550000D03*
X134600000Y-74050000D03*
X134600000Y-73550000D03*
X134600000Y-73050000D03*
X134600000Y-72550000D03*
X134600000Y-72050000D03*
X134600000Y-71550000D03*
X134600000Y-71050000D03*
D17*
X132650000Y-69100000D03*
X132150000Y-69100000D03*
X131650000Y-69100000D03*
X131150000Y-69100000D03*
X130650000Y-69100000D03*
X130150000Y-69100000D03*
X129650000Y-69100000D03*
X129150000Y-69100000D03*
X128650000Y-69100000D03*
X128150000Y-69100000D03*
X127650000Y-69100000D03*
X127150000Y-69100000D03*
X126650000Y-69100000D03*
X126150000Y-69100000D03*
X125650000Y-69100000D03*
X125150000Y-69100000D03*
D18*
X123200000Y-71050000D03*
X123200000Y-71550000D03*
X123200000Y-72050000D03*
X123200000Y-72550000D03*
X123200000Y-73050000D03*
X123200000Y-73550000D03*
X123200000Y-74050000D03*
X123200000Y-74550000D03*
X123200000Y-75050000D03*
X123200000Y-75550000D03*
X123200000Y-76050000D03*
X123200000Y-76550000D03*
X123200000Y-77050000D03*
X123200000Y-77550000D03*
X123200000Y-78050000D03*
X123200000Y-78550000D03*
D19*
X139173400Y-89789200D03*
X139173400Y-91313200D03*
D20*
X136047500Y-66900000D03*
X137952500Y-66900000D03*
D21*
X136176000Y-70400000D03*
X137700000Y-70400000D03*
X135062000Y-83700000D03*
X133538000Y-83700000D03*
D19*
X136700000Y-77038000D03*
X136700000Y-78562000D03*
D21*
X124362000Y-82300000D03*
X122838000Y-82300000D03*
D19*
X121200000Y-78562000D03*
X121200000Y-77038000D03*
D21*
X124600000Y-67000000D03*
X123076000Y-67000000D03*
X135062000Y-82200000D03*
X133538000Y-82200000D03*
D22*
X132540000Y-56495000D03*
X132540000Y-58400000D03*
X132540000Y-62600000D03*
X132540000Y-60695000D03*
D23*
X113640000Y-81652000D03*
X113640000Y-78350000D03*
X116640000Y-81650000D03*
X116640000Y-78348000D03*
D21*
X125588000Y-88050000D03*
X127112000Y-88050000D03*
X136176000Y-68800000D03*
X137700000Y-68800000D03*
X129612000Y-88050000D03*
X128088000Y-88050000D03*
D24*
X120673400Y-59577180D03*
X120673400Y-61675220D03*
D25*
X136790000Y-63200000D03*
D26*
X139340000Y-63200000D03*
D24*
X122900000Y-59550980D03*
X122900000Y-61649020D03*
D27*
X114748400Y-75076200D03*
X112208400Y-75076200D03*
X117248400Y-75076200D03*
D22*
X136700000Y-81895000D03*
X136700000Y-83800000D03*
D28*
X145320000Y-95320000D03*
D29*
X145320000Y-92780000D03*
X145320000Y-90240000D03*
X145320000Y-87700000D03*
X145320000Y-85160000D03*
X145320000Y-82620000D03*
X145320000Y-80080000D03*
X145320000Y-77540000D03*
X145320000Y-75000000D03*
X145320000Y-72460000D03*
X145320000Y-69920000D03*
X145320000Y-67380000D03*
X145320000Y-64840000D03*
X145320000Y-62300000D03*
X145320000Y-59760000D03*
X145320000Y-57220000D03*
D28*
X104680000Y-57220000D03*
D29*
X104680000Y-59760000D03*
X104680000Y-62300000D03*
X104680000Y-64840000D03*
X104680000Y-67380000D03*
X104680000Y-69920000D03*
X104680000Y-72460000D03*
X104680000Y-75000000D03*
X104680000Y-77540000D03*
X104680000Y-80080000D03*
X104680000Y-82620000D03*
X104680000Y-85160000D03*
X104680000Y-87700000D03*
X104680000Y-90240000D03*
X104680000Y-92780000D03*
X104680000Y-95320000D03*
D30*
X104673400Y-53416200D03*
D31*
X107213400Y-53416200D03*
X109753400Y-53416200D03*
X112293400Y-53416200D03*
X114833400Y-53416200D03*
X117373400Y-53416200D03*
D21*
X119913400Y-75069700D03*
X121437400Y-75069700D03*
D19*
X122900000Y-63038000D03*
X122900000Y-64562000D03*
D32*
X137248251Y-53937455D03*
D33*
X137248251Y-60541455D03*
X139534251Y-60541455D03*
X134962251Y-60541455D03*
D34*
X126350000Y-83150000D03*
X127550000Y-83150000D03*
X128750000Y-83150000D03*
D35*
X126300000Y-85950000D03*
X128800000Y-85950000D03*
D21*
X119878000Y-80800000D03*
X121402000Y-80800000D03*
D36*
X135198400Y-90001200D03*
X135198400Y-90951200D03*
X135198400Y-91901200D03*
X137398400Y-91901200D03*
X137398400Y-90001200D03*
D19*
X120673400Y-63064200D03*
X120673400Y-64588200D03*
D37*
X145313400Y-53416200D03*
D38*
X142773400Y-53416200D03*
D39*
X111623400Y-65166200D03*
X111623400Y-63896200D03*
X111623400Y-62626200D03*
X111623400Y-61356200D03*
X111623400Y-60086200D03*
X116073400Y-65166200D03*
X116073400Y-63896200D03*
X116073400Y-62626200D03*
X116073400Y-61356200D03*
X116073400Y-60086200D03*
D40*
X128390000Y-58700000D03*
X128390000Y-59200000D03*
X128390000Y-59700000D03*
X129840000Y-58700000D03*
X129840000Y-59200000D03*
X129840000Y-59700000D03*
D41*
X129115000Y-59200000D03*
D42*
X134264400Y-86436200D03*
X136169400Y-85229700D03*
X134327900Y-84975708D03*
X122773400Y-83401200D03*
X123723400Y-65701200D03*
X120673400Y-65726200D03*
X120298401Y-51426200D03*
X131973400Y-52201200D03*
X129123400Y-57951200D03*
X129123400Y-57276200D03*
X126100000Y-67400000D03*
X118500000Y-80300000D03*
X111700000Y-88900000D03*
X139400000Y-68400000D03*
X134100000Y-67500000D03*
X133200000Y-66600000D03*
X117073400Y-57426200D03*
X109840000Y-89275700D03*
X110890000Y-90950000D03*
X110340000Y-86750000D03*
X124090000Y-79350000D03*
X124738929Y-78650794D03*
X111490000Y-86600000D03*
X132603778Y-72850593D03*
X119273400Y-59226200D03*
X127358049Y-65797511D03*
X125175031Y-58970534D03*
X126517380Y-60020200D03*
X129040000Y-65850000D03*
X128156321Y-65850232D03*
X125824409Y-58474823D03*
X114188420Y-57826200D03*
X112273387Y-67026200D03*
X125381361Y-78174035D03*
X125740747Y-77459289D03*
X126360336Y-76525680D03*
X125252172Y-76238393D03*
X125945717Y-75839627D03*
X126779552Y-74640470D03*
X126598903Y-73799990D03*
X128298936Y-73176979D03*
X128863003Y-72609664D03*
X128890000Y-74550000D03*
X129374992Y-73913760D03*
X130171171Y-74172599D03*
X130935184Y-73584573D03*
X131490000Y-74500000D03*
X133034110Y-72176179D03*
X128549372Y-78562200D03*
X129253706Y-79127894D03*
X130015718Y-78504494D03*
X130835400Y-79070210D03*
X131401094Y-78504506D03*
X132213317Y-78251136D03*
X132988995Y-77801125D03*
X133606836Y-77292900D03*
X135628499Y-76901103D03*
X133383351Y-76524737D03*
X135923380Y-75651089D03*
X133390000Y-75500000D03*
X135923380Y-74401068D03*
X133340000Y-74550000D03*
X135923380Y-73151047D03*
X133534029Y-73703674D03*
X109648380Y-62560200D03*
X111273400Y-67026200D03*
X113073400Y-67826200D03*
X133502400Y-89928698D03*
X113073400Y-67026200D03*
X127340000Y-79100000D03*
X127040000Y-75900000D03*
D43*
X121437400Y-75069700D02*
X121246900Y-75260200D01*
X121246900Y-75260200D02*
X121246900Y-76991100D01*
X121246900Y-76991100D02*
X121200000Y-77038000D01*
X121200000Y-77038000D02*
X116938000Y-77038000D01*
X116938000Y-77038000D02*
X116640000Y-77336000D01*
X116640000Y-77336000D02*
X116640000Y-78348000D01*
X127550000Y-83150000D02*
X127550000Y-83900000D01*
X127550000Y-83900000D02*
X128269986Y-84619986D01*
X128269986Y-84619986D02*
X131895722Y-84619986D01*
X135869401Y-85529699D02*
X136169400Y-85229700D01*
X131895722Y-84619986D02*
X133521436Y-86245700D01*
X133521436Y-86245700D02*
X135153400Y-86245700D01*
X135153400Y-86245700D02*
X135869401Y-85529699D01*
X128088000Y-88304000D02*
X128984000Y-89200000D01*
X133964401Y-86736199D02*
X134264400Y-86436200D01*
X128088000Y-88050000D02*
X128088000Y-88304000D01*
X128984000Y-89200000D02*
X131500600Y-89200000D01*
X130650000Y-83246064D02*
X133840136Y-86436200D01*
X130650000Y-80500000D02*
X130650000Y-83246064D01*
X131500600Y-89200000D02*
X133964401Y-86736199D01*
X133840136Y-86436200D02*
X134264400Y-86436200D01*
X133538000Y-83954000D02*
X134327900Y-84743900D01*
X134327900Y-84743900D02*
X134327900Y-84975708D01*
X133538000Y-83700000D02*
X133538000Y-83954000D01*
D44*
X137700000Y-70400000D02*
X138367500Y-70400000D01*
X138367500Y-70400000D02*
X140948400Y-72980900D01*
X140948400Y-72980900D02*
X140948400Y-90459700D01*
X140948400Y-90459700D02*
X140094900Y-91313200D01*
X140094900Y-91313200D02*
X139173400Y-91313200D01*
D43*
X138632900Y-93370700D02*
X139173400Y-92830200D01*
X139173400Y-92830200D02*
X139173400Y-91313200D01*
X138632900Y-95262700D02*
X138632900Y-93370700D01*
X117232089Y-96251200D02*
X125198400Y-96251200D01*
X125198400Y-96251200D02*
X127398400Y-98451200D01*
X127398400Y-98451200D02*
X136794400Y-98451200D01*
X136794400Y-98451200D02*
X138632900Y-96612700D01*
X138632900Y-96612700D02*
X138632900Y-95262700D01*
X134600000Y-71550000D02*
X133969344Y-71550000D01*
X133200000Y-70780656D02*
X133200000Y-67024264D01*
X133969344Y-71550000D02*
X133200000Y-70780656D01*
X133200000Y-67024264D02*
X133200000Y-66600000D01*
X136700000Y-78562000D02*
X135878500Y-78562000D01*
X135878500Y-78562000D02*
X135366500Y-78050000D01*
X135366500Y-78050000D02*
X134600000Y-78050000D01*
X122838000Y-82300000D02*
X122838000Y-83336600D01*
X122838000Y-83336600D02*
X122773400Y-83401200D01*
X121625120Y-82502920D02*
X121828040Y-82300000D01*
X121828040Y-82300000D02*
X122838000Y-82300000D01*
X121625120Y-84127960D02*
X121625120Y-82502920D01*
X121625120Y-84127960D02*
X121625120Y-85943860D01*
X121625120Y-85943860D02*
X118773400Y-88795580D01*
X117232089Y-96251200D02*
X110575220Y-96251200D01*
X110575220Y-96251200D02*
X109925880Y-96900540D01*
X109925880Y-96900540D02*
X109925880Y-97874440D01*
X114223560Y-88801560D02*
X111798440Y-88801560D01*
X111798440Y-88801560D02*
X111700000Y-88900000D01*
D44*
X118773400Y-92376200D02*
X117232089Y-93917511D01*
X117232089Y-93917511D02*
X117232089Y-96251200D01*
X118773400Y-88795580D02*
X118773400Y-92376200D01*
X116640000Y-78348000D02*
X113642000Y-78348000D01*
X113642000Y-78348000D02*
X113640000Y-78350000D01*
X137700000Y-68800000D02*
X137700000Y-70400000D01*
X139400000Y-68400000D02*
X138100000Y-68400000D01*
X138100000Y-68400000D02*
X137700000Y-68800000D01*
D43*
X133538000Y-82200000D02*
X133538000Y-80961600D01*
X133538000Y-80961600D02*
X134248400Y-80251200D01*
X136298400Y-80251200D02*
X136700000Y-79849600D01*
X136700000Y-79849600D02*
X136700000Y-78562000D01*
X134248400Y-80251200D02*
X136298400Y-80251200D01*
X133538000Y-83700000D02*
X133538000Y-82200000D01*
X118173400Y-60426200D02*
X117833400Y-60086200D01*
X117833400Y-60086200D02*
X116073400Y-60086200D01*
X118173400Y-62251200D02*
X118173400Y-60426200D01*
X117798400Y-62626200D02*
X118173400Y-62251200D01*
X116073400Y-63896200D02*
X117798400Y-63896200D01*
X117798400Y-63896200D02*
X118173400Y-63521200D01*
X118173400Y-63521200D02*
X118173400Y-63001200D01*
X118173400Y-63001200D02*
X117798400Y-62626200D01*
X117798400Y-62626200D02*
X116073400Y-62626200D01*
X123723400Y-65701200D02*
X123723400Y-65385400D01*
X123723400Y-65385400D02*
X122900000Y-64562000D01*
X120673400Y-64588200D02*
X120673400Y-65726200D01*
D45*
X120900000Y-53202800D02*
X120900000Y-52027799D01*
X120598400Y-51726199D02*
X120298401Y-51426200D01*
X120900000Y-52027799D02*
X120598400Y-51726199D01*
D46*
X120900000Y-53202800D02*
X120900000Y-54100000D01*
D45*
X130074600Y-54100000D02*
X131973400Y-52201200D01*
D46*
X129300000Y-54100000D02*
X130074600Y-54100000D01*
X132540000Y-60695000D02*
X134808706Y-60695000D01*
X134808706Y-60695000D02*
X134962251Y-60541455D01*
X132540000Y-60695000D02*
X132540000Y-58400000D01*
D45*
X129123400Y-57951200D02*
X129123400Y-57276200D01*
X129115000Y-57959600D02*
X129123400Y-57951200D01*
X129115000Y-59200000D02*
X129115000Y-57959600D01*
D43*
X139173400Y-91313200D02*
X138351900Y-91313200D01*
X138351900Y-91313200D02*
X137989900Y-90951200D01*
X137989900Y-90951200D02*
X135978400Y-90951200D01*
X135978400Y-90951200D02*
X135198400Y-90951200D01*
X128088000Y-88050000D02*
X127112000Y-88050000D01*
X123500000Y-56500000D02*
X123500000Y-58200000D01*
X123500000Y-58200000D02*
X124100000Y-58800000D01*
X124100000Y-58800000D02*
X124100000Y-64200000D01*
X124100000Y-64200000D02*
X123738000Y-64562000D01*
X123738000Y-64562000D02*
X122900000Y-64562000D01*
X122900000Y-64562000D02*
X122900000Y-66824000D01*
X122900000Y-66824000D02*
X123076000Y-67000000D01*
D45*
X120900000Y-54100000D02*
X129300000Y-54100000D01*
X123500000Y-56500000D02*
X123500000Y-55200000D01*
X122400000Y-54100000D02*
X120900000Y-54100000D01*
X123500000Y-55200000D02*
X122400000Y-54100000D01*
D43*
X125650000Y-69100000D02*
X125650000Y-67850000D01*
X125650000Y-67850000D02*
X126100000Y-67400000D01*
X116640000Y-78348000D02*
X116894000Y-78348000D01*
X118500000Y-79954000D02*
X118500000Y-80300000D01*
X116894000Y-78348000D02*
X118500000Y-79954000D01*
X123200000Y-78050000D02*
X122212000Y-78050000D01*
X122212000Y-78050000D02*
X122021500Y-77859500D01*
X122021500Y-77859500D02*
X122021500Y-77605500D01*
X122021500Y-77605500D02*
X121454000Y-77038000D01*
X121454000Y-77038000D02*
X121200000Y-77038000D01*
X111799100Y-88800900D02*
X111700000Y-88900000D01*
D45*
X139400000Y-68400000D02*
X139400000Y-68347500D01*
X139400000Y-68347500D02*
X137952500Y-66900000D01*
X133200000Y-66600000D02*
X134100000Y-67500000D01*
X129115000Y-59200000D02*
X129115000Y-60350000D01*
X129115000Y-60350000D02*
X129460000Y-60695000D01*
X129460000Y-60695000D02*
X131341500Y-60695000D01*
X131341500Y-60695000D02*
X132540000Y-60695000D01*
D43*
X115823400Y-58676200D02*
X117073400Y-57426200D01*
X115823400Y-60086200D02*
X115823400Y-58676200D01*
D45*
X124362000Y-82300000D02*
X124362000Y-82554000D01*
X123524989Y-90602789D02*
X124398400Y-91476200D01*
X135703902Y-87122702D02*
X137898500Y-84928104D01*
X124398400Y-91476200D02*
X130781398Y-91476200D01*
X124362000Y-82554000D02*
X123524989Y-83391011D01*
X135134896Y-87122702D02*
X135703902Y-87122702D01*
X130781398Y-91476200D02*
X135134896Y-87122702D01*
X137898500Y-84928104D02*
X137898500Y-84701500D01*
X123524989Y-83391011D02*
X123524989Y-90602789D01*
D43*
X112208400Y-75076200D02*
X112208400Y-76141258D01*
X112208400Y-76141258D02*
X112200000Y-76149658D01*
X112200000Y-76149658D02*
X112200000Y-79273002D01*
D45*
X136700000Y-77038000D02*
X138185200Y-77038000D01*
X138185200Y-77038000D02*
X138540000Y-77392800D01*
X138540000Y-77392800D02*
X138540000Y-81500000D01*
X138540000Y-81500000D02*
X138145000Y-81895000D01*
X138145000Y-81895000D02*
X136700000Y-81895000D01*
D43*
X136700000Y-77038000D02*
X136700000Y-77099600D01*
X136700000Y-77099600D02*
X136248400Y-77551200D01*
X136248400Y-77551200D02*
X135228411Y-77551200D01*
X135228411Y-77551200D02*
X135227211Y-77550000D01*
X135227211Y-77550000D02*
X134600000Y-77550000D01*
D45*
X136648400Y-76976200D02*
X136700000Y-77027800D01*
X136673400Y-76951200D02*
X136648400Y-76976200D01*
X136176000Y-71471500D02*
X136673400Y-71968900D01*
X136700000Y-77027800D02*
X136700000Y-77038000D01*
X136176000Y-70400000D02*
X136176000Y-71471500D01*
X136673400Y-71968900D02*
X136673400Y-76951200D01*
D43*
X124638000Y-67000000D02*
X124638000Y-67086600D01*
X122413947Y-68551200D02*
X121762747Y-67900000D01*
X124638000Y-67086600D02*
X123173400Y-68551200D01*
X123173400Y-68551200D02*
X122413947Y-68551200D01*
X121762747Y-67900000D02*
X120686547Y-68976200D01*
X120686547Y-68976200D02*
X118298400Y-68976200D01*
X118298400Y-68976200D02*
X116073400Y-66751200D01*
X116073400Y-66751200D02*
X116073400Y-65166200D01*
X139173400Y-89789200D02*
X139173400Y-89351200D01*
X139173400Y-89351200D02*
X136773400Y-86951200D01*
X136773400Y-86951200D02*
X136773400Y-85826600D01*
X136773400Y-85826600D02*
X137898500Y-84701500D01*
X136954000Y-81906800D02*
X136954000Y-81895000D01*
X139173400Y-89789200D02*
X137610400Y-89789200D01*
X137610400Y-89789200D02*
X137398400Y-90001200D01*
X136954000Y-81895000D02*
X136700000Y-81895000D01*
D45*
X137898500Y-84701500D02*
X137898500Y-82839500D01*
X137898500Y-82839500D02*
X136954000Y-81895000D01*
D43*
X121762747Y-59838793D02*
X121762747Y-67900000D01*
X122900000Y-59550980D02*
X122050560Y-59550980D01*
X122050560Y-59550980D02*
X121762747Y-59838793D01*
X120891198Y-57826200D02*
X122024660Y-57826200D01*
X122024660Y-57826200D02*
X122900000Y-58701540D01*
X122900000Y-58701540D02*
X122900000Y-59550980D01*
X119273400Y-52826200D02*
X119273400Y-56208402D01*
X119273400Y-56208402D02*
X120891198Y-57826200D01*
X118073400Y-51626200D02*
X119273400Y-52826200D01*
X105451400Y-51626200D02*
X118073400Y-51626200D01*
X104673400Y-53416200D02*
X104673400Y-52404200D01*
X104673400Y-52404200D02*
X105451400Y-51626200D01*
X112626998Y-79700000D02*
X112200000Y-79273002D01*
X116995265Y-79700000D02*
X112626998Y-79700000D01*
X118800002Y-80925002D02*
X118220267Y-80925002D01*
X121200000Y-78562000D02*
X120378500Y-78562000D01*
X120378500Y-78562000D02*
X119125002Y-79815498D01*
X119125002Y-80600002D02*
X118800002Y-80925002D01*
X119125002Y-79815498D02*
X119125002Y-80600002D01*
X118220267Y-80925002D02*
X116995265Y-79700000D01*
X125150000Y-80500000D02*
X124800000Y-80500000D01*
X124800000Y-80500000D02*
X124362000Y-80938000D01*
X124362000Y-80938000D02*
X124362000Y-82300000D01*
X134600000Y-71050000D02*
X135526000Y-71050000D01*
X135526000Y-71050000D02*
X136176000Y-70400000D01*
D45*
X136176000Y-68800000D02*
X136176000Y-70400000D01*
X136047500Y-66900000D02*
X136047500Y-68671500D01*
X136047500Y-68671500D02*
X136176000Y-68800000D01*
X132540000Y-62600000D02*
X132540000Y-63544500D01*
X132540000Y-63544500D02*
X135895500Y-66900000D01*
X135895500Y-66900000D02*
X136047500Y-66900000D01*
X132540000Y-62600000D02*
X132540000Y-63260000D01*
X132540000Y-63260000D02*
X131000000Y-64800000D01*
X131000000Y-64800000D02*
X129127010Y-64800000D01*
X129127010Y-64800000D02*
X126584000Y-64800000D01*
X124638000Y-66746000D02*
X124638000Y-67000000D01*
X126584000Y-64800000D02*
X124638000Y-66746000D01*
D43*
X124638000Y-67000000D02*
X124638000Y-68963000D01*
X124638000Y-68963000D02*
X124775000Y-69100000D01*
X124775000Y-69100000D02*
X125150000Y-69100000D01*
X123200000Y-78550000D02*
X121212000Y-78550000D01*
X121212000Y-78550000D02*
X121200000Y-78562000D01*
D45*
X121402000Y-80800000D02*
X121402000Y-78764000D01*
X121402000Y-78764000D02*
X121200000Y-78562000D01*
X124362000Y-82300000D02*
X124362000Y-82046000D01*
X122219500Y-80800000D02*
X121402000Y-80800000D01*
X124362000Y-82046000D02*
X123116000Y-80800000D01*
X123116000Y-80800000D02*
X122219500Y-80800000D01*
X136790000Y-63200000D02*
X136190000Y-62600000D01*
X136190000Y-62600000D02*
X135940000Y-62600000D01*
X135940000Y-62600000D02*
X132540000Y-62600000D01*
X137248251Y-60541455D02*
X137248251Y-62741749D01*
X137248251Y-62741749D02*
X136790000Y-63200000D01*
D43*
X131150000Y-80500000D02*
X131150000Y-82777796D01*
X131150000Y-82777796D02*
X133972913Y-85600709D01*
X134627901Y-85600709D02*
X135062000Y-85166608D01*
X135062000Y-85166608D02*
X135062000Y-84521500D01*
X135062000Y-84521500D02*
X135062000Y-83700000D01*
X133972913Y-85600709D02*
X134627901Y-85600709D01*
D45*
X135062000Y-82200000D02*
X135062000Y-83875002D01*
X135062000Y-83875002D02*
X135040000Y-83897002D01*
X135062000Y-83700000D02*
X135062000Y-82200000D01*
X136700000Y-83800000D02*
X135162000Y-83800000D01*
X135162000Y-83800000D02*
X135062000Y-83700000D01*
X134645400Y-51638200D02*
X132540000Y-53743600D01*
X132540000Y-53743600D02*
X132540000Y-56495000D01*
X139983400Y-51638200D02*
X134645400Y-51638200D01*
X142773400Y-53416200D02*
X141761400Y-53416200D01*
X141761400Y-53416200D02*
X139983400Y-51638200D01*
X126700000Y-56500000D02*
X130437120Y-56500000D01*
X130437120Y-56500000D02*
X132535000Y-56500000D01*
D47*
X129840000Y-59700000D02*
X130240000Y-59700000D01*
X130240000Y-59700000D02*
X130437120Y-59502880D01*
X130437120Y-59502880D02*
X130437120Y-56500000D01*
D45*
X139534251Y-60541455D02*
X139534251Y-63005749D01*
X139534251Y-63005749D02*
X139340000Y-63200000D01*
X132540000Y-56495000D02*
X135995796Y-56495000D01*
X135995796Y-56495000D02*
X139534251Y-60033455D01*
X139534251Y-60033455D02*
X139534251Y-60541455D01*
X132535000Y-56500000D02*
X132540000Y-56495000D01*
X113640000Y-81652000D02*
X113640000Y-82914000D01*
X113640000Y-82914000D02*
X116611400Y-85885400D01*
X116611400Y-85885400D02*
X116611400Y-90354660D01*
X116611400Y-90354660D02*
X115964860Y-91001200D01*
X115964860Y-91001200D02*
X114223560Y-91001200D01*
X118156000Y-81650000D02*
X116640000Y-81650000D01*
X119282000Y-81650000D02*
X118156000Y-81650000D01*
X119878000Y-80800000D02*
X119878000Y-81054000D01*
X119878000Y-81054000D02*
X119282000Y-81650000D01*
X116640000Y-81650000D02*
X113642000Y-81650000D01*
X113642000Y-81650000D02*
X113640000Y-81652000D01*
D43*
X119878000Y-80546000D02*
X119878000Y-80800000D01*
X126150000Y-80500000D02*
X126150000Y-81250000D01*
X126150000Y-81250000D02*
X126050009Y-81349991D01*
X126050009Y-81349991D02*
X125713598Y-81349991D01*
X125713598Y-81349991D02*
X125049989Y-82013600D01*
X125049989Y-82013600D02*
X125049989Y-83450011D01*
X125049989Y-83450011D02*
X124200000Y-84300000D01*
X124200000Y-84300000D02*
X124200000Y-85300000D01*
X124200000Y-85300000D02*
X124850000Y-85950000D01*
X124850000Y-85950000D02*
X125450000Y-85950000D01*
X125450000Y-85950000D02*
X126300000Y-85950000D01*
X126300000Y-85950000D02*
X126300000Y-85550000D01*
X126150000Y-85950000D02*
X125588000Y-86512000D01*
X125588000Y-86512000D02*
X125588000Y-88050000D01*
X126300000Y-85950000D02*
X126150000Y-85950000D01*
X126236408Y-81800002D02*
X126650000Y-81386410D01*
X125500000Y-82200000D02*
X125899998Y-81800002D01*
X125899998Y-81800002D02*
X126236408Y-81800002D01*
X126650000Y-81386410D02*
X126650000Y-81250000D01*
X126650000Y-81250000D02*
X126650000Y-80500000D01*
X128800000Y-85863590D02*
X127386401Y-84449991D01*
X127386401Y-84449991D02*
X125914989Y-84449991D01*
X125914989Y-84449991D02*
X125500000Y-84035002D01*
X125500000Y-84035002D02*
X125500000Y-82200000D01*
X128800000Y-85950000D02*
X128800000Y-85863590D01*
X128950000Y-85950000D02*
X129612000Y-86612000D01*
X129612000Y-86612000D02*
X129612000Y-88050000D01*
X128800000Y-85950000D02*
X128950000Y-85950000D01*
X111049997Y-72050000D02*
X107173367Y-75926630D01*
X123200000Y-72050000D02*
X111049997Y-72050000D01*
X112401360Y-94300660D02*
X113224260Y-94300660D01*
X113224260Y-94300660D02*
X114223560Y-94300660D01*
X107173367Y-89072667D02*
X112401360Y-94300660D01*
X107173367Y-75926630D02*
X107173367Y-89072667D01*
X123200000Y-72550000D02*
X111186408Y-72550000D01*
X112029425Y-93200840D02*
X113224260Y-93200840D01*
X111186408Y-72550000D02*
X107623378Y-76113030D01*
X107623378Y-76113030D02*
X107623378Y-88794793D01*
X107623378Y-88794793D02*
X112029425Y-93200840D01*
X113224260Y-93200840D02*
X114223560Y-93200840D01*
X109540001Y-88975701D02*
X109840000Y-89275700D01*
X109540001Y-75469229D02*
X109540001Y-88975701D01*
X115638189Y-73550000D02*
X111459230Y-73550000D01*
X115640111Y-73548078D02*
X115638189Y-73550000D01*
X111459230Y-73550000D02*
X109540001Y-75469229D01*
X122448078Y-73548078D02*
X115640111Y-73548078D01*
X122450000Y-73550000D02*
X122448078Y-73548078D01*
X123200000Y-73550000D02*
X122450000Y-73550000D01*
X110890000Y-90950000D02*
X112041020Y-92101020D01*
X112041020Y-92101020D02*
X114223560Y-92101020D01*
X108073389Y-76299430D02*
X111322819Y-73050000D01*
X108073389Y-88608393D02*
X108073389Y-76299430D01*
X111322819Y-73050000D02*
X122450000Y-73050000D01*
X109366376Y-89901380D02*
X108073389Y-88608393D01*
X114223560Y-89901380D02*
X109366376Y-89901380D01*
X122450000Y-73050000D02*
X123200000Y-73050000D01*
X124514264Y-79350000D02*
X124090000Y-79350000D01*
X127673916Y-72156495D02*
X127673916Y-74003716D01*
X128115013Y-77124987D02*
X125890000Y-79350000D01*
X127673916Y-74003716D02*
X128115013Y-74444813D01*
X129650000Y-69100000D02*
X129650000Y-70180411D01*
X125890000Y-79350000D02*
X124514264Y-79350000D01*
X128115013Y-74444813D02*
X128115013Y-77124987D01*
X129650000Y-70180411D02*
X127673916Y-72156495D01*
X110340000Y-86750000D02*
X110340000Y-87174264D01*
X110340000Y-87174264D02*
X110867476Y-87701740D01*
X110867476Y-87701740D02*
X114223560Y-87701740D01*
X129150000Y-69100000D02*
X129150000Y-70003590D01*
X129150000Y-70003590D02*
X127223905Y-71929685D01*
X127223905Y-71929685D02*
X127223905Y-74190116D01*
X127223905Y-74190116D02*
X127665002Y-74631212D01*
X127665002Y-74631212D02*
X127665002Y-76815398D01*
X127665002Y-76815398D02*
X125681363Y-78799037D01*
X125681363Y-78799037D02*
X124887172Y-78799037D01*
X124887172Y-78799037D02*
X124738929Y-78650794D01*
X114223560Y-86601920D02*
X111491920Y-86601920D01*
X111491920Y-86601920D02*
X111490000Y-86600000D01*
X132803185Y-73050000D02*
X132603778Y-72850593D01*
X134600000Y-73050000D02*
X132803185Y-73050000D01*
X119273400Y-59226200D02*
X120322420Y-59226200D01*
X120322420Y-59226200D02*
X120673400Y-59577180D01*
X104700000Y-57240000D02*
X104680000Y-57220000D01*
X120673400Y-61675220D02*
X120673400Y-63074360D01*
X122900000Y-61649020D02*
X122900000Y-63038000D01*
X122199400Y-76299400D02*
X122199400Y-74357698D01*
X122199400Y-74357698D02*
X121839791Y-73998089D01*
X121839791Y-73998089D02*
X115826511Y-73998089D01*
X115826511Y-73998089D02*
X115501509Y-74323091D01*
X115501509Y-74323091D02*
X114748400Y-75076200D01*
X123200000Y-76550000D02*
X122450000Y-76550000D01*
X122450000Y-76550000D02*
X122199400Y-76299400D01*
X117240000Y-75001200D02*
X117308500Y-75069700D01*
X117308500Y-75069700D02*
X119331700Y-75069700D01*
X119331700Y-75069700D02*
X119913400Y-75069700D01*
X117778000Y-75338000D02*
X117240000Y-74800000D01*
X127358049Y-66221775D02*
X127358049Y-65797511D01*
X127358049Y-67277953D02*
X127358049Y-66221775D01*
X126650000Y-67986002D02*
X127358049Y-67277953D01*
X126650000Y-69100000D02*
X126650000Y-67986002D01*
X128390000Y-59200000D02*
X125404497Y-59200000D01*
X125404497Y-59200000D02*
X125175031Y-58970534D01*
X125100000Y-58895503D02*
X125175031Y-58970534D01*
X125100000Y-56500000D02*
X125100000Y-58895503D01*
X128390000Y-59700000D02*
X126837580Y-59700000D01*
X125260200Y-60020200D02*
X126093116Y-60020200D01*
X124550011Y-57863600D02*
X124550011Y-59310011D01*
X124300000Y-57613589D02*
X124550011Y-57863600D01*
X126817379Y-59720201D02*
X126517380Y-60020200D01*
X124300000Y-56500000D02*
X124300000Y-57613589D01*
X126093116Y-60020200D02*
X126517380Y-60020200D01*
X124550011Y-59310011D02*
X125260200Y-60020200D01*
X126837580Y-59700000D02*
X126817379Y-59720201D01*
X127650000Y-69100000D02*
X127650000Y-68258824D01*
X129040000Y-66868824D02*
X129040000Y-65850000D01*
X127650000Y-68258824D02*
X129040000Y-66868824D01*
X127150000Y-68122413D02*
X128156321Y-67116092D01*
X128156321Y-67116092D02*
X128156321Y-66274496D01*
X128156321Y-66274496D02*
X128156321Y-65850232D01*
X127150000Y-69100000D02*
X127150000Y-68122413D01*
X127940000Y-58700000D02*
X127714823Y-58474823D01*
X125900000Y-56500000D02*
X125900000Y-58399232D01*
X128390000Y-58700000D02*
X127940000Y-58700000D01*
X125900000Y-58399232D02*
X125824409Y-58474823D01*
X127714823Y-58474823D02*
X126248673Y-58474823D01*
X126248673Y-58474823D02*
X125824409Y-58474823D01*
X126050009Y-69949991D02*
X124582815Y-69949991D01*
X113466200Y-65166200D02*
X111923400Y-65166200D01*
X126150000Y-69850000D02*
X126050009Y-69949991D01*
X124233925Y-69601101D02*
X117901100Y-69601101D01*
X117380000Y-69080000D02*
X113466200Y-65166200D01*
X117901100Y-69601101D02*
X117380000Y-69080000D01*
X124582815Y-69949991D02*
X124233925Y-69601101D01*
X126150000Y-69100000D02*
X126150000Y-69850000D01*
X114188420Y-58250464D02*
X114188420Y-57826200D01*
X114188420Y-63731180D02*
X114188420Y-58250464D01*
X112753400Y-65166200D02*
X114188420Y-63731180D01*
D48*
X111093400Y-65166200D02*
X111923400Y-65166200D01*
X111923400Y-65166200D02*
X112753400Y-65166200D01*
D43*
X123200000Y-71050000D02*
X114992082Y-71050000D01*
X114992082Y-71050000D02*
X112273387Y-68331305D01*
X112273387Y-68331305D02*
X112273387Y-67450464D01*
X112273387Y-67450464D02*
X112273387Y-67026200D01*
X107213400Y-53416200D02*
X108737400Y-54940200D01*
X108737400Y-54940200D02*
X108737400Y-62735200D01*
X108737400Y-62735200D02*
X109898400Y-63896200D01*
X109898400Y-63896200D02*
X111623400Y-63896200D01*
X123200000Y-77550000D02*
X124365953Y-77550000D01*
X124365953Y-77550000D02*
X124689989Y-77874036D01*
X125081362Y-77874036D02*
X125381361Y-78174035D01*
X124689989Y-77874036D02*
X125081362Y-77874036D01*
X124502364Y-77050000D02*
X124765770Y-77313406D01*
X125170600Y-77313406D02*
X125316483Y-77459289D01*
X124765770Y-77313406D02*
X125170600Y-77313406D01*
X125316483Y-77459289D02*
X125740747Y-77459289D01*
X123200000Y-77050000D02*
X124502364Y-77050000D01*
X123200000Y-76050000D02*
X124138775Y-76050000D01*
X125889889Y-76525680D02*
X125936072Y-76525680D01*
X124138775Y-76050000D02*
X124952170Y-76863395D01*
X125936072Y-76525680D02*
X126360336Y-76525680D01*
X125552174Y-76863395D02*
X125889889Y-76525680D01*
X124952170Y-76863395D02*
X125552174Y-76863395D01*
X123200000Y-75550000D02*
X124563779Y-75550000D01*
X124563779Y-75550000D02*
X124952173Y-75938394D01*
X124952173Y-75938394D02*
X125252172Y-76238393D01*
X125156090Y-75050000D02*
X125645718Y-75539628D01*
X123200000Y-75050000D02*
X125156090Y-75050000D01*
X125645718Y-75539628D02*
X125945717Y-75839627D01*
X128150000Y-69100000D02*
X128148400Y-69101600D01*
X128148400Y-69101600D02*
X128148400Y-69732369D01*
X128148400Y-69732369D02*
X125945900Y-71934869D01*
X125945900Y-71934869D02*
X125945900Y-74030897D01*
X125945900Y-74030897D02*
X126555473Y-74640470D01*
X126555473Y-74640470D02*
X126779552Y-74640470D01*
X128650000Y-69100000D02*
X128650000Y-69867180D01*
X126771400Y-71745780D02*
X126771400Y-73627493D01*
X128650000Y-69867180D02*
X126771400Y-71745780D01*
X126771400Y-73627493D02*
X126598903Y-73799990D01*
X128123927Y-73001970D02*
X128298936Y-73176979D01*
X128123927Y-72342895D02*
X128123927Y-73001970D01*
X130150000Y-70316822D02*
X128123927Y-72342895D01*
X130150000Y-69100000D02*
X130150000Y-70316822D01*
X128863003Y-72240230D02*
X128863003Y-72609664D01*
X130650000Y-69100000D02*
X130650000Y-70453233D01*
X130650000Y-70453233D02*
X128863003Y-72240230D01*
X129488005Y-72903219D02*
X128590001Y-73801223D01*
X128590001Y-74250001D02*
X128890000Y-74550000D01*
X128590001Y-73801223D02*
X128590001Y-74250001D01*
X129488005Y-72251639D02*
X129488005Y-72903219D01*
X131150000Y-69100000D02*
X131150000Y-70589644D01*
X131150000Y-70589644D02*
X129488005Y-72251639D01*
X131650000Y-70726055D02*
X129938016Y-72438039D01*
X131650000Y-69100000D02*
X131650000Y-70726055D01*
X129674991Y-73613761D02*
X129374992Y-73913760D01*
X129674991Y-73359091D02*
X129674991Y-73613761D01*
X129938016Y-73096066D02*
X129674991Y-73359091D01*
X129938016Y-72438039D02*
X129938016Y-73096066D01*
X132150000Y-69100000D02*
X132150000Y-70862465D01*
X130388027Y-73282466D02*
X130171171Y-73499322D01*
X132150000Y-70862465D02*
X130388027Y-72624438D01*
X130171171Y-73748335D02*
X130171171Y-74172599D01*
X130171171Y-73499322D02*
X130171171Y-73748335D01*
X130388027Y-72624438D02*
X130388027Y-73282466D01*
X130935184Y-72713692D02*
X130935184Y-73160309D01*
X132650000Y-69100000D02*
X132650000Y-70998876D01*
X132650000Y-70998876D02*
X130935184Y-72713692D01*
X130935184Y-73160309D02*
X130935184Y-73584573D01*
X131789999Y-74200001D02*
X131490000Y-74500000D01*
X131789999Y-72499784D02*
X131789999Y-74200001D01*
X132738605Y-71551178D02*
X131789999Y-72499784D01*
X133832933Y-72050000D02*
X133334111Y-71551178D01*
X134600000Y-72050000D02*
X133832933Y-72050000D01*
X133334111Y-71551178D02*
X132738605Y-71551178D01*
X133407931Y-72550000D02*
X133334109Y-72476178D01*
X133334109Y-72476178D02*
X133034110Y-72176179D01*
X134600000Y-72550000D02*
X133407931Y-72550000D01*
X128650000Y-80500000D02*
X128650000Y-79449192D01*
X128549372Y-78986464D02*
X128549372Y-78562200D01*
X128650000Y-79449192D02*
X128549372Y-79348564D01*
X128549372Y-79348564D02*
X128549372Y-78986464D01*
X129150000Y-79231600D02*
X129253706Y-79127894D01*
X129150000Y-80500000D02*
X129150000Y-79231600D01*
X129956383Y-79370201D02*
X129956383Y-78563829D01*
X129650000Y-80500000D02*
X129650000Y-79676584D01*
X129956383Y-78563829D02*
X130015718Y-78504494D01*
X129650000Y-79676584D02*
X129956383Y-79370201D01*
X130535401Y-79508112D02*
X130535401Y-79370209D01*
X130150000Y-80500000D02*
X130150000Y-79893513D01*
X130150000Y-79893513D02*
X130535401Y-79508112D01*
X130535401Y-79370209D02*
X130835400Y-79070210D01*
X131650000Y-78753412D02*
X131401094Y-78504506D01*
X131650000Y-80500000D02*
X131650000Y-78753412D01*
X132150000Y-80500000D02*
X132150000Y-78314453D01*
X132150000Y-78314453D02*
X132213317Y-78251136D01*
X132650000Y-80500000D02*
X132650000Y-79750000D01*
X132650000Y-79750000D02*
X132988995Y-79411005D01*
X132988995Y-79411005D02*
X132988995Y-77801125D01*
X133648639Y-78348639D02*
X133648639Y-77334703D01*
X133850000Y-78550000D02*
X133648639Y-78348639D01*
X133648639Y-77334703D02*
X133606836Y-77292900D01*
X134600000Y-78550000D02*
X133850000Y-78550000D01*
X134600000Y-77050000D02*
X135479602Y-77050000D01*
X135479602Y-77050000D02*
X135628499Y-76901103D01*
X133408614Y-76550000D02*
X133383351Y-76524737D01*
X134600000Y-76550000D02*
X133408614Y-76550000D01*
X134600000Y-76050000D02*
X135524469Y-76050000D01*
X135524469Y-76050000D02*
X135623381Y-75951088D01*
X135623381Y-75951088D02*
X135923380Y-75651089D01*
X134600000Y-75550000D02*
X133440000Y-75550000D01*
X133440000Y-75550000D02*
X133390000Y-75500000D01*
X135923380Y-74476620D02*
X135923380Y-74401068D01*
X135350000Y-75050000D02*
X135923380Y-74476620D01*
X134600000Y-75050000D02*
X135350000Y-75050000D01*
X134600000Y-74550000D02*
X133340000Y-74550000D01*
X135350000Y-74050000D02*
X135923380Y-73476620D01*
X135923380Y-73476620D02*
X135923380Y-73151047D01*
X134600000Y-74050000D02*
X135350000Y-74050000D01*
X133687703Y-73550000D02*
X133534029Y-73703674D01*
X134600000Y-73550000D02*
X133687703Y-73550000D01*
X123200000Y-71550000D02*
X114772936Y-71550000D01*
X114772936Y-71550000D02*
X111273400Y-68050464D01*
X111273400Y-68050464D02*
X111273400Y-67450464D01*
X111273400Y-67450464D02*
X111273400Y-67026200D01*
X110428116Y-61356200D02*
X109648380Y-62135936D01*
X109648380Y-62135936D02*
X109648380Y-62560200D01*
X111923400Y-61356200D02*
X110428116Y-61356200D01*
X127150000Y-80500000D02*
X127150000Y-81600000D01*
X127150000Y-81600000D02*
X126350000Y-82400000D01*
X126350000Y-82400000D02*
X126350000Y-83150000D01*
X127650000Y-81346413D02*
X128253587Y-81950000D01*
X127650000Y-80500000D02*
X127650000Y-81346413D01*
X128750000Y-82400000D02*
X128750000Y-83150000D01*
X128300000Y-81950000D02*
X128750000Y-82400000D01*
X128253587Y-81950000D02*
X128300000Y-81950000D01*
X123200000Y-74050000D02*
X123813590Y-74050000D01*
X124189989Y-73673601D02*
X124189989Y-70850013D01*
X124189989Y-70850013D02*
X123841099Y-70501123D01*
X116748323Y-70501123D02*
X114373399Y-68126199D01*
X123813590Y-74050000D02*
X124189989Y-73673601D01*
X123841099Y-70501123D02*
X116748323Y-70501123D01*
X113563400Y-61816200D02*
X112753400Y-62626200D01*
X117373400Y-53416200D02*
X113563400Y-57226200D01*
X113563400Y-57226200D02*
X113563400Y-61816200D01*
D48*
X112753400Y-62626200D02*
X111923400Y-62626200D01*
D43*
X113497664Y-67826200D02*
X113073400Y-67826200D01*
X114073400Y-67826200D02*
X113497664Y-67826200D01*
X114373399Y-68126199D02*
X114073400Y-67826200D01*
X115076127Y-68828927D02*
X114373399Y-68126199D01*
X111923400Y-60086200D02*
X112801400Y-59208200D01*
X112801400Y-59208200D02*
X112801400Y-56972200D01*
X112801400Y-56972200D02*
X114833400Y-54940200D01*
X114833400Y-54940200D02*
X114833400Y-53416200D01*
X135198400Y-90001200D02*
X133574902Y-90001200D01*
X133574902Y-90001200D02*
X133502400Y-89928698D01*
X124640000Y-73860000D02*
X124926700Y-73860000D01*
X124926700Y-73860000D02*
X126966700Y-75900000D01*
X126966700Y-75900000D02*
X127040000Y-75900000D01*
X114398404Y-67026200D02*
X113497664Y-67026200D01*
X124047525Y-70051112D02*
X117423316Y-70051112D01*
X124640000Y-73860000D02*
X124640000Y-70643587D01*
X124640000Y-70643587D02*
X124047525Y-70051112D01*
X117423316Y-70051112D02*
X114398404Y-67026200D01*
X113497664Y-67026200D02*
X113073400Y-67026200D01*
X128150000Y-80500000D02*
X128199999Y-80549999D01*
X127740000Y-79500000D02*
X127900000Y-79500000D01*
X127900000Y-79500000D02*
X128150000Y-79750000D01*
X128150000Y-79750000D02*
X128150000Y-80500000D01*
X127340000Y-79100000D02*
X127740000Y-79500000D01*
X123200000Y-74550000D02*
X123950000Y-74550000D01*
X123950000Y-74550000D02*
X124640000Y-73860000D01*
X135198400Y-91901200D02*
X134418400Y-91901200D01*
X134418400Y-91901200D02*
X133832900Y-92486700D01*
X133832900Y-92486700D02*
X133832900Y-93912700D01*
X133832900Y-93912700D02*
X133832900Y-95262700D01*
D49*
G36*
X146646142Y-51025858D02*
X148041676Y-51958323D01*
X148974142Y-53353856D01*
X149315000Y-55067467D01*
X149315000Y-94932533D01*
X148974142Y-96646144D01*
X148041676Y-98041677D01*
X146646142Y-98974142D01*
X144932533Y-99315000D01*
X105067467Y-99315000D01*
X103353856Y-98974142D01*
X102135692Y-98160190D01*
X108841300Y-98160190D01*
X108841300Y-98724649D01*
X108937973Y-98958038D01*
X109116601Y-99136667D01*
X109349990Y-99233340D01*
X109640130Y-99233340D01*
X109798880Y-99074590D01*
X109798880Y-98001440D01*
X109000050Y-98001440D01*
X108841300Y-98160190D01*
X102135692Y-98160190D01*
X101958323Y-98041676D01*
X101278489Y-97024231D01*
X108841300Y-97024231D01*
X108841300Y-97588690D01*
X109000050Y-97747440D01*
X109798880Y-97747440D01*
X109798880Y-97151200D01*
X109950960Y-97151200D01*
X109950960Y-98601200D01*
X109995238Y-98836517D01*
X110052880Y-98926095D01*
X110052880Y-99074590D01*
X110211630Y-99233340D01*
X110501770Y-99233340D01*
X110508691Y-99230473D01*
X110598400Y-99248640D01*
X112648400Y-99248640D01*
X112883717Y-99204362D01*
X113099841Y-99065290D01*
X113244831Y-98853090D01*
X113295840Y-98601200D01*
X113295840Y-97151200D01*
X118250960Y-97151200D01*
X118250960Y-98601200D01*
X118295238Y-98836517D01*
X118434310Y-99052641D01*
X118646510Y-99197631D01*
X118898400Y-99248640D01*
X120948400Y-99248640D01*
X121183717Y-99204362D01*
X121399841Y-99065290D01*
X121544831Y-98853090D01*
X121595840Y-98601200D01*
X121595840Y-97151200D01*
X121551562Y-96915883D01*
X121412490Y-96699759D01*
X121200290Y-96554769D01*
X120948400Y-96503760D01*
X118898400Y-96503760D01*
X118663083Y-96548038D01*
X118446959Y-96687110D01*
X118301969Y-96899310D01*
X118250960Y-97151200D01*
X113295840Y-97151200D01*
X113251562Y-96915883D01*
X113112490Y-96699759D01*
X112900290Y-96554769D01*
X112648400Y-96503760D01*
X110598400Y-96503760D01*
X110512398Y-96519942D01*
X110501770Y-96515540D01*
X110211630Y-96515540D01*
X110052880Y-96674290D01*
X110052880Y-96824799D01*
X110001969Y-96899310D01*
X109950960Y-97151200D01*
X109798880Y-97151200D01*
X109798880Y-96674290D01*
X109640130Y-96515540D01*
X109349990Y-96515540D01*
X109116601Y-96612213D01*
X108937973Y-96790842D01*
X108841300Y-97024231D01*
X101278489Y-97024231D01*
X101025858Y-96646142D01*
X100685000Y-94932533D01*
X100685000Y-59760000D01*
X102996655Y-59760000D01*
X103110729Y-60333489D01*
X103435585Y-60819670D01*
X103750366Y-61030000D01*
X103435585Y-61240330D01*
X103110729Y-61726511D01*
X102996655Y-62300000D01*
X103110729Y-62873489D01*
X103435585Y-63359670D01*
X103750366Y-63570000D01*
X103435585Y-63780330D01*
X103110729Y-64266511D01*
X102996655Y-64840000D01*
X103110729Y-65413489D01*
X103435585Y-65899670D01*
X103750366Y-66110000D01*
X103435585Y-66320330D01*
X103110729Y-66806511D01*
X102996655Y-67380000D01*
X103110729Y-67953489D01*
X103435585Y-68439670D01*
X103750366Y-68650000D01*
X103435585Y-68860330D01*
X103110729Y-69346511D01*
X102996655Y-69920000D01*
X103110729Y-70493489D01*
X103435585Y-70979670D01*
X103750366Y-71190000D01*
X103435585Y-71400330D01*
X103110729Y-71886511D01*
X102996655Y-72460000D01*
X103110729Y-73033489D01*
X103435585Y-73519670D01*
X103750366Y-73730000D01*
X103435585Y-73940330D01*
X103110729Y-74426511D01*
X102996655Y-75000000D01*
X103110729Y-75573489D01*
X103435585Y-76059670D01*
X103750366Y-76270000D01*
X103435585Y-76480330D01*
X103110729Y-76966511D01*
X102996655Y-77540000D01*
X103110729Y-78113489D01*
X103435585Y-78599670D01*
X103750366Y-78810000D01*
X103435585Y-79020330D01*
X103110729Y-79506511D01*
X102996655Y-80080000D01*
X103110729Y-80653489D01*
X103435585Y-81139670D01*
X103750366Y-81350000D01*
X103435585Y-81560330D01*
X103110729Y-82046511D01*
X102996655Y-82620000D01*
X103110729Y-83193489D01*
X103435585Y-83679670D01*
X103750366Y-83890000D01*
X103435585Y-84100330D01*
X103110729Y-84586511D01*
X102996655Y-85160000D01*
X103110729Y-85733489D01*
X103435585Y-86219670D01*
X103750366Y-86430000D01*
X103435585Y-86640330D01*
X103110729Y-87126511D01*
X102996655Y-87700000D01*
X103110729Y-88273489D01*
X103435585Y-88759670D01*
X103750366Y-88970000D01*
X103435585Y-89180330D01*
X103110729Y-89666511D01*
X102996655Y-90240000D01*
X103110729Y-90813489D01*
X103435585Y-91299670D01*
X103750366Y-91510000D01*
X103435585Y-91720330D01*
X103110729Y-92206511D01*
X102996655Y-92780000D01*
X103110729Y-93353489D01*
X103435585Y-93839670D01*
X103750366Y-94050000D01*
X103435585Y-94260330D01*
X103110729Y-94746511D01*
X102996655Y-95320000D01*
X103110729Y-95893489D01*
X103435585Y-96379670D01*
X103921766Y-96704526D01*
X104495255Y-96818600D01*
X104864745Y-96818600D01*
X105438234Y-96704526D01*
X105924415Y-96379670D01*
X106249271Y-95893489D01*
X106363345Y-95320000D01*
X106249271Y-94746511D01*
X105924415Y-94260330D01*
X105609634Y-94050000D01*
X105924415Y-93839670D01*
X106249271Y-93353489D01*
X106363345Y-92780000D01*
X106249271Y-92206511D01*
X105924415Y-91720330D01*
X105609634Y-91510000D01*
X105924415Y-91299670D01*
X106249271Y-90813489D01*
X106363345Y-90240000D01*
X106249271Y-89666511D01*
X105924415Y-89180330D01*
X105609634Y-88970000D01*
X105924415Y-88759670D01*
X106249271Y-88273489D01*
X106363345Y-87700000D01*
X106249271Y-87126511D01*
X105924415Y-86640330D01*
X105609634Y-86430000D01*
X105924415Y-86219670D01*
X106249271Y-85733489D01*
X106363345Y-85160000D01*
X106249271Y-84586511D01*
X105924415Y-84100330D01*
X105609634Y-83890000D01*
X105924415Y-83679670D01*
X106249271Y-83193489D01*
X106363345Y-82620000D01*
X106249271Y-82046511D01*
X105924415Y-81560330D01*
X105609634Y-81350000D01*
X105924415Y-81139670D01*
X106249271Y-80653489D01*
X106363345Y-80080000D01*
X106249271Y-79506511D01*
X105924415Y-79020330D01*
X105609634Y-78810000D01*
X105924415Y-78599670D01*
X106249271Y-78113489D01*
X106363345Y-77540000D01*
X106249271Y-76966511D01*
X105924415Y-76480330D01*
X105609634Y-76270000D01*
X105924415Y-76059670D01*
X106249271Y-75573489D01*
X106363345Y-75000000D01*
X106249271Y-74426511D01*
X105924415Y-73940330D01*
X105609634Y-73730000D01*
X105924415Y-73519670D01*
X106249271Y-73033489D01*
X106363345Y-72460000D01*
X106249271Y-71886511D01*
X105924415Y-71400330D01*
X105609634Y-71190000D01*
X105924415Y-70979670D01*
X106249271Y-70493489D01*
X106363345Y-69920000D01*
X106249271Y-69346511D01*
X105924415Y-68860330D01*
X105609634Y-68650000D01*
X105924415Y-68439670D01*
X106249271Y-67953489D01*
X106363345Y-67380000D01*
X106249271Y-66806511D01*
X105924415Y-66320330D01*
X105609634Y-66110000D01*
X105924415Y-65899670D01*
X106249271Y-65413489D01*
X106363345Y-64840000D01*
X106249271Y-64266511D01*
X105924415Y-63780330D01*
X105609634Y-63570000D01*
X105924415Y-63359670D01*
X106249271Y-62873489D01*
X106363345Y-62300000D01*
X106249271Y-61726511D01*
X105924415Y-61240330D01*
X105609634Y-61030000D01*
X105924415Y-60819670D01*
X106249271Y-60333489D01*
X106363345Y-59760000D01*
X106249271Y-59186511D01*
X105924415Y-58700330D01*
X105910087Y-58690757D01*
X105931317Y-58686762D01*
X106147441Y-58547690D01*
X106292431Y-58335490D01*
X106343440Y-58083600D01*
X106343440Y-56356400D01*
X106299162Y-56121083D01*
X106160090Y-55904959D01*
X105947890Y-55759969D01*
X105696000Y-55708960D01*
X103664000Y-55708960D01*
X103428683Y-55753238D01*
X103212559Y-55892310D01*
X103067569Y-56104510D01*
X103016560Y-56356400D01*
X103016560Y-58083600D01*
X103060838Y-58318917D01*
X103199910Y-58535041D01*
X103412110Y-58680031D01*
X103453439Y-58688400D01*
X103435585Y-58700330D01*
X103110729Y-59186511D01*
X102996655Y-59760000D01*
X100685000Y-59760000D01*
X100685000Y-55067467D01*
X101025858Y-53353858D01*
X101493354Y-52654200D01*
X103263960Y-52654200D01*
X103263960Y-54178200D01*
X103308238Y-54413517D01*
X103447310Y-54629641D01*
X103659510Y-54774631D01*
X103911400Y-54825640D01*
X105435400Y-54825640D01*
X105670717Y-54781362D01*
X105886841Y-54642290D01*
X106031831Y-54430090D01*
X106068892Y-54247076D01*
X106421030Y-54599829D01*
X106934300Y-54812957D01*
X107490061Y-54813442D01*
X107522455Y-54800057D01*
X107977400Y-55255002D01*
X107977400Y-62735200D01*
X108035252Y-63026039D01*
X108199999Y-63272601D01*
X109360999Y-64433601D01*
X109553427Y-64562177D01*
X109551969Y-64564310D01*
X109500960Y-64816200D01*
X109500960Y-65516200D01*
X109545238Y-65751517D01*
X109684310Y-65967641D01*
X109896510Y-66112631D01*
X110148400Y-66163640D01*
X110912522Y-66163640D01*
X110744457Y-66233083D01*
X110481208Y-66495873D01*
X110338562Y-66839401D01*
X110338238Y-67211367D01*
X110480283Y-67555143D01*
X110513400Y-67588318D01*
X110513400Y-68050464D01*
X110571252Y-68341303D01*
X110735999Y-68587865D01*
X113438134Y-71290000D01*
X111049997Y-71290000D01*
X110759158Y-71347852D01*
X110512596Y-71512599D01*
X106635966Y-75389229D01*
X106471219Y-75635791D01*
X106413367Y-75926630D01*
X106413367Y-89072667D01*
X106471219Y-89363506D01*
X106635966Y-89610068D01*
X111863959Y-94838061D01*
X112110521Y-95002808D01*
X112401360Y-95060660D01*
X112952114Y-95060660D01*
X113010170Y-95150881D01*
X113222370Y-95295871D01*
X113474260Y-95346880D01*
X114972860Y-95346880D01*
X115208177Y-95302602D01*
X115424301Y-95163530D01*
X115569291Y-94951330D01*
X115620300Y-94699440D01*
X115620300Y-93901880D01*
X115590819Y-93745202D01*
X115620300Y-93599620D01*
X115620300Y-92802060D01*
X115590819Y-92645382D01*
X115620300Y-92499800D01*
X115620300Y-91886200D01*
X115964855Y-91886200D01*
X115964860Y-91886201D01*
X116247344Y-91830010D01*
X116303535Y-91818833D01*
X116590650Y-91626990D01*
X117237187Y-90980452D01*
X117237190Y-90980450D01*
X117429033Y-90693335D01*
X117453409Y-90570790D01*
X117496401Y-90354660D01*
X117496400Y-90354655D01*
X117496400Y-85885405D01*
X117496401Y-85885400D01*
X117429033Y-85546725D01*
X117389033Y-85486860D01*
X117237190Y-85259610D01*
X117237187Y-85259608D01*
X115378780Y-83401200D01*
X118250960Y-83401200D01*
X118250960Y-84851200D01*
X118295238Y-85086517D01*
X118434310Y-85302641D01*
X118646510Y-85447631D01*
X118898400Y-85498640D01*
X120948400Y-85498640D01*
X121037290Y-85481914D01*
X121049230Y-85486860D01*
X121339370Y-85486860D01*
X121498120Y-85328110D01*
X121498120Y-85171454D01*
X121544831Y-85103090D01*
X121595840Y-84851200D01*
X121595840Y-83401200D01*
X121551562Y-83165883D01*
X121498120Y-83082832D01*
X121498120Y-82927810D01*
X121339370Y-82769060D01*
X121049230Y-82769060D01*
X121040930Y-82772498D01*
X120948400Y-82753760D01*
X118898400Y-82753760D01*
X118663083Y-82798038D01*
X118446959Y-82937110D01*
X118301969Y-83149310D01*
X118250960Y-83401200D01*
X115378780Y-83401200D01*
X114954247Y-82976667D01*
X115107441Y-82878090D01*
X115139317Y-82831438D01*
X115159910Y-82863441D01*
X115372110Y-83008431D01*
X115624000Y-83059440D01*
X117656000Y-83059440D01*
X117891317Y-83015162D01*
X118107441Y-82876090D01*
X118252431Y-82663890D01*
X118278532Y-82535000D01*
X119281995Y-82535000D01*
X119282000Y-82535001D01*
X119610620Y-82469633D01*
X119620675Y-82467633D01*
X119907790Y-82275790D01*
X120164640Y-82018940D01*
X120195500Y-82018940D01*
X120430817Y-81974662D01*
X120642811Y-81838247D01*
X120832610Y-81967931D01*
X121084500Y-82018940D01*
X121719500Y-82018940D01*
X121885500Y-81987705D01*
X121885500Y-82014250D01*
X122044250Y-82173000D01*
X122711000Y-82173000D01*
X122711000Y-82153000D01*
X122965000Y-82153000D01*
X122965000Y-82173000D01*
X122985000Y-82173000D01*
X122985000Y-82427000D01*
X122965000Y-82427000D01*
X122965000Y-82447000D01*
X122711000Y-82447000D01*
X122711000Y-82427000D01*
X122044250Y-82427000D01*
X121885500Y-82585750D01*
X121885500Y-82794430D01*
X121752120Y-82927810D01*
X121752120Y-84000960D01*
X121772120Y-84000960D01*
X121772120Y-84254960D01*
X121752120Y-84254960D01*
X121752120Y-85328110D01*
X121910870Y-85486860D01*
X122201010Y-85486860D01*
X122434399Y-85390187D01*
X122613027Y-85211558D01*
X122639989Y-85146466D01*
X122639989Y-90602784D01*
X122639988Y-90602789D01*
X122693020Y-90869391D01*
X122707356Y-90941464D01*
X122879470Y-91199052D01*
X122899199Y-91228579D01*
X123772608Y-92101987D01*
X123772610Y-92101990D01*
X124059725Y-92293833D01*
X124115916Y-92305010D01*
X124398400Y-92361201D01*
X124398405Y-92361200D01*
X130781393Y-92361200D01*
X130781398Y-92361201D01*
X131063882Y-92305010D01*
X131120073Y-92293833D01*
X131407188Y-92101990D01*
X132880261Y-90628917D01*
X132972073Y-90720890D01*
X133315601Y-90863536D01*
X133687567Y-90863860D01*
X133936024Y-90761200D01*
X134129150Y-90761200D01*
X134192150Y-90824200D01*
X134272451Y-90824200D01*
X134416510Y-90922631D01*
X134553520Y-90950376D01*
X134433083Y-90973038D01*
X134269657Y-91078200D01*
X134192150Y-91078200D01*
X134033400Y-91236950D01*
X134033400Y-91261968D01*
X133880999Y-91363799D01*
X133295499Y-91949299D01*
X133130752Y-92195861D01*
X133072900Y-92486700D01*
X133072900Y-93515260D01*
X132432900Y-93515260D01*
X132197583Y-93559538D01*
X131981459Y-93698610D01*
X131836469Y-93910810D01*
X131785460Y-94162700D01*
X131785460Y-96362700D01*
X131829738Y-96598017D01*
X131968810Y-96814141D01*
X132181010Y-96959131D01*
X132432900Y-97010140D01*
X135232900Y-97010140D01*
X135468217Y-96965862D01*
X135684341Y-96826790D01*
X135829331Y-96614590D01*
X135880340Y-96362700D01*
X135880340Y-95548450D01*
X136597900Y-95548450D01*
X136597900Y-96489010D01*
X136694573Y-96722399D01*
X136873202Y-96901027D01*
X137106591Y-96997700D01*
X138347150Y-96997700D01*
X138505900Y-96838950D01*
X138505900Y-95389700D01*
X138759900Y-95389700D01*
X138759900Y-96838950D01*
X138918650Y-96997700D01*
X140159209Y-96997700D01*
X140392598Y-96901027D01*
X140571227Y-96722399D01*
X140667900Y-96489010D01*
X140667900Y-95548450D01*
X140509150Y-95389700D01*
X138759900Y-95389700D01*
X138505900Y-95389700D01*
X136756650Y-95389700D01*
X136597900Y-95548450D01*
X135880340Y-95548450D01*
X135880340Y-94162700D01*
X135856574Y-94036390D01*
X136597900Y-94036390D01*
X136597900Y-94976950D01*
X136756650Y-95135700D01*
X138505900Y-95135700D01*
X138505900Y-93686450D01*
X138759900Y-93686450D01*
X138759900Y-95135700D01*
X140509150Y-95135700D01*
X140667900Y-94976950D01*
X140667900Y-94036390D01*
X140571227Y-93803001D01*
X140392598Y-93624373D01*
X140159209Y-93527700D01*
X138918650Y-93527700D01*
X138759900Y-93686450D01*
X138505900Y-93686450D01*
X138347150Y-93527700D01*
X137106591Y-93527700D01*
X136873202Y-93624373D01*
X136694573Y-93803001D01*
X136597900Y-94036390D01*
X135856574Y-94036390D01*
X135836062Y-93927383D01*
X135696990Y-93711259D01*
X135484790Y-93566269D01*
X135232900Y-93515260D01*
X134592900Y-93515260D01*
X134592900Y-92858351D01*
X134668400Y-92873640D01*
X135728400Y-92873640D01*
X135963717Y-92829362D01*
X136179841Y-92690290D01*
X136299633Y-92514968D01*
X136404310Y-92677641D01*
X136616510Y-92822631D01*
X136868400Y-92873640D01*
X137928400Y-92873640D01*
X138163717Y-92829362D01*
X138379841Y-92690290D01*
X138524831Y-92478090D01*
X138567841Y-92265700D01*
X138887650Y-92265700D01*
X139046400Y-92106950D01*
X139046400Y-91440200D01*
X139300400Y-91440200D01*
X139300400Y-92106950D01*
X139459150Y-92265700D01*
X139871210Y-92265700D01*
X140104599Y-92169027D01*
X140283227Y-91990398D01*
X140379900Y-91757009D01*
X140379900Y-91598950D01*
X140221150Y-91440200D01*
X139300400Y-91440200D01*
X139046400Y-91440200D01*
X139026400Y-91440200D01*
X139026400Y-91186200D01*
X139046400Y-91186200D01*
X139046400Y-91166200D01*
X139300400Y-91166200D01*
X139300400Y-91186200D01*
X140221150Y-91186200D01*
X140379900Y-91027450D01*
X140379900Y-90869391D01*
X140283227Y-90636002D01*
X140205139Y-90557914D01*
X140341331Y-90358590D01*
X140392340Y-90106700D01*
X140392340Y-89471700D01*
X140348062Y-89236383D01*
X140208990Y-89020259D01*
X139996790Y-88875269D01*
X139744900Y-88824260D01*
X139717791Y-88824260D01*
X139710801Y-88813799D01*
X137533400Y-86636398D01*
X137533400Y-86544783D01*
X138524287Y-85553896D01*
X138524290Y-85553894D01*
X138716133Y-85266779D01*
X138727429Y-85209991D01*
X138783501Y-84928104D01*
X138783500Y-84928099D01*
X138783500Y-82839505D01*
X138783501Y-82839500D01*
X138726051Y-82550684D01*
X138770790Y-82520790D01*
X139165787Y-82125792D01*
X139165790Y-82125790D01*
X139357633Y-81838675D01*
X139425000Y-81500000D01*
X139425000Y-77392805D01*
X139425001Y-77392800D01*
X139357633Y-77054126D01*
X139357633Y-77054125D01*
X139165790Y-76767010D01*
X139165787Y-76767008D01*
X138810990Y-76412210D01*
X138798507Y-76403869D01*
X138523875Y-76220367D01*
X138467684Y-76209190D01*
X138185200Y-76152999D01*
X138185195Y-76153000D01*
X137565732Y-76153000D01*
X137558400Y-76147990D01*
X137558400Y-71968905D01*
X137558401Y-71968900D01*
X137491033Y-71630226D01*
X137491033Y-71630225D01*
X137450775Y-71569975D01*
X137573000Y-71447750D01*
X137573000Y-70527000D01*
X137827000Y-70527000D01*
X137827000Y-71447750D01*
X137985750Y-71606500D01*
X138143809Y-71606500D01*
X138377198Y-71509827D01*
X138555827Y-71331199D01*
X138652500Y-71097810D01*
X138652500Y-70685750D01*
X138493750Y-70527000D01*
X137827000Y-70527000D01*
X137573000Y-70527000D01*
X137553000Y-70527000D01*
X137553000Y-70273000D01*
X137573000Y-70273000D01*
X137573000Y-68927000D01*
X137827000Y-68927000D01*
X137827000Y-70273000D01*
X138493750Y-70273000D01*
X138652500Y-70114250D01*
X138652500Y-69702190D01*
X138610171Y-69600000D01*
X138652500Y-69497810D01*
X138652500Y-69085750D01*
X138493750Y-68927000D01*
X137827000Y-68927000D01*
X137573000Y-68927000D01*
X137553000Y-68927000D01*
X137553000Y-68673000D01*
X137573000Y-68673000D01*
X137573000Y-68653000D01*
X137827000Y-68653000D01*
X137827000Y-68673000D01*
X138493750Y-68673000D01*
X138652500Y-68514250D01*
X138652500Y-68179987D01*
X138756698Y-68136827D01*
X138935327Y-67958199D01*
X139032000Y-67724810D01*
X139032000Y-67185750D01*
X138873250Y-67027000D01*
X138079500Y-67027000D01*
X138079500Y-67047000D01*
X137825500Y-67047000D01*
X137825500Y-67027000D01*
X137805500Y-67027000D01*
X137805500Y-66773000D01*
X137825500Y-66773000D01*
X137825500Y-65725250D01*
X138079500Y-65725250D01*
X138079500Y-66773000D01*
X138873250Y-66773000D01*
X139032000Y-66614250D01*
X139032000Y-66075190D01*
X138935327Y-65841801D01*
X138756698Y-65663173D01*
X138523309Y-65566500D01*
X138238250Y-65566500D01*
X138079500Y-65725250D01*
X137825500Y-65725250D01*
X137666750Y-65566500D01*
X137381691Y-65566500D01*
X137148302Y-65663173D01*
X136997329Y-65814146D01*
X136956090Y-65750059D01*
X136743890Y-65605069D01*
X136492000Y-65554060D01*
X135801139Y-65554060D01*
X133732080Y-63485000D01*
X135692560Y-63485000D01*
X135692560Y-63900000D01*
X135736838Y-64135317D01*
X135875910Y-64351441D01*
X136088110Y-64496431D01*
X136340000Y-64547440D01*
X137240000Y-64547440D01*
X137475317Y-64503162D01*
X137691441Y-64364090D01*
X137739134Y-64294289D01*
X137775910Y-64351441D01*
X137988110Y-64496431D01*
X138240000Y-64547440D01*
X140440000Y-64547440D01*
X140675317Y-64503162D01*
X140891441Y-64364090D01*
X141036431Y-64151890D01*
X141087440Y-63900000D01*
X141087440Y-62500000D01*
X141043162Y-62264683D01*
X140904090Y-62048559D01*
X140691890Y-61903569D01*
X140588594Y-61882651D01*
X140638682Y-61809345D01*
X140689691Y-61557455D01*
X140689691Y-59525455D01*
X140645413Y-59290138D01*
X140506341Y-59074014D01*
X140294141Y-58929024D01*
X140042251Y-58878015D01*
X139630390Y-58878015D01*
X137972376Y-57220000D01*
X143636655Y-57220000D01*
X143750729Y-57793489D01*
X144075585Y-58279670D01*
X144390366Y-58490000D01*
X144075585Y-58700330D01*
X143750729Y-59186511D01*
X143636655Y-59760000D01*
X143750729Y-60333489D01*
X144075585Y-60819670D01*
X144390366Y-61030000D01*
X144075585Y-61240330D01*
X143750729Y-61726511D01*
X143636655Y-62300000D01*
X143750729Y-62873489D01*
X144075585Y-63359670D01*
X144390366Y-63570000D01*
X144075585Y-63780330D01*
X143750729Y-64266511D01*
X143636655Y-64840000D01*
X143750729Y-65413489D01*
X144075585Y-65899670D01*
X144390366Y-66110000D01*
X144075585Y-66320330D01*
X143750729Y-66806511D01*
X143636655Y-67380000D01*
X143750729Y-67953489D01*
X144075585Y-68439670D01*
X144390366Y-68650000D01*
X144075585Y-68860330D01*
X143750729Y-69346511D01*
X143636655Y-69920000D01*
X143750729Y-70493489D01*
X144075585Y-70979670D01*
X144390366Y-71190000D01*
X144075585Y-71400330D01*
X143750729Y-71886511D01*
X143636655Y-72460000D01*
X143750729Y-73033489D01*
X144075585Y-73519670D01*
X144390366Y-73730000D01*
X144075585Y-73940330D01*
X143750729Y-74426511D01*
X143636655Y-75000000D01*
X143750729Y-75573489D01*
X144075585Y-76059670D01*
X144390366Y-76270000D01*
X144075585Y-76480330D01*
X143750729Y-76966511D01*
X143636655Y-77540000D01*
X143750729Y-78113489D01*
X144075585Y-78599670D01*
X144390366Y-78810000D01*
X144075585Y-79020330D01*
X143750729Y-79506511D01*
X143636655Y-80080000D01*
X143750729Y-80653489D01*
X144075585Y-81139670D01*
X144390366Y-81350000D01*
X144075585Y-81560330D01*
X143750729Y-82046511D01*
X143636655Y-82620000D01*
X143750729Y-83193489D01*
X144075585Y-83679670D01*
X144390366Y-83890000D01*
X144075585Y-84100330D01*
X143750729Y-84586511D01*
X143636655Y-85160000D01*
X143750729Y-85733489D01*
X144075585Y-86219670D01*
X144390366Y-86430000D01*
X144075585Y-86640330D01*
X143750729Y-87126511D01*
X143636655Y-87700000D01*
X143750729Y-88273489D01*
X144075585Y-88759670D01*
X144390366Y-88970000D01*
X144075585Y-89180330D01*
X143750729Y-89666511D01*
X143636655Y-90240000D01*
X143750729Y-90813489D01*
X144075585Y-91299670D01*
X144390366Y-91510000D01*
X144075585Y-91720330D01*
X143750729Y-92206511D01*
X143636655Y-92780000D01*
X143750729Y-93353489D01*
X144075585Y-93839670D01*
X144089913Y-93849243D01*
X144068683Y-93853238D01*
X143852559Y-93992310D01*
X143707569Y-94204510D01*
X143656560Y-94456400D01*
X143656560Y-96183600D01*
X143700838Y-96418917D01*
X143839910Y-96635041D01*
X144052110Y-96780031D01*
X144304000Y-96831040D01*
X146336000Y-96831040D01*
X146571317Y-96786762D01*
X146787441Y-96647690D01*
X146932431Y-96435490D01*
X146983440Y-96183600D01*
X146983440Y-94456400D01*
X146939162Y-94221083D01*
X146800090Y-94004959D01*
X146587890Y-93859969D01*
X146546561Y-93851600D01*
X146564415Y-93839670D01*
X146889271Y-93353489D01*
X147003345Y-92780000D01*
X146889271Y-92206511D01*
X146564415Y-91720330D01*
X146249634Y-91510000D01*
X146564415Y-91299670D01*
X146889271Y-90813489D01*
X147003345Y-90240000D01*
X146889271Y-89666511D01*
X146564415Y-89180330D01*
X146249634Y-88970000D01*
X146564415Y-88759670D01*
X146889271Y-88273489D01*
X147003345Y-87700000D01*
X146889271Y-87126511D01*
X146564415Y-86640330D01*
X146249634Y-86430000D01*
X146564415Y-86219670D01*
X146889271Y-85733489D01*
X147003345Y-85160000D01*
X146889271Y-84586511D01*
X146564415Y-84100330D01*
X146249634Y-83890000D01*
X146564415Y-83679670D01*
X146889271Y-83193489D01*
X147003345Y-82620000D01*
X146889271Y-82046511D01*
X146564415Y-81560330D01*
X146249634Y-81350000D01*
X146564415Y-81139670D01*
X146889271Y-80653489D01*
X147003345Y-80080000D01*
X146889271Y-79506511D01*
X146564415Y-79020330D01*
X146249634Y-78810000D01*
X146564415Y-78599670D01*
X146889271Y-78113489D01*
X147003345Y-77540000D01*
X146889271Y-76966511D01*
X146564415Y-76480330D01*
X146249634Y-76270000D01*
X146564415Y-76059670D01*
X146889271Y-75573489D01*
X147003345Y-75000000D01*
X146889271Y-74426511D01*
X146564415Y-73940330D01*
X146249634Y-73730000D01*
X146564415Y-73519670D01*
X146889271Y-73033489D01*
X147003345Y-72460000D01*
X146889271Y-71886511D01*
X146564415Y-71400330D01*
X146249634Y-71190000D01*
X146564415Y-70979670D01*
X146889271Y-70493489D01*
X147003345Y-69920000D01*
X146889271Y-69346511D01*
X146564415Y-68860330D01*
X146249634Y-68650000D01*
X146564415Y-68439670D01*
X146889271Y-67953489D01*
X147003345Y-67380000D01*
X146889271Y-66806511D01*
X146564415Y-66320330D01*
X146249634Y-66110000D01*
X146564415Y-65899670D01*
X146889271Y-65413489D01*
X147003345Y-64840000D01*
X146889271Y-64266511D01*
X146564415Y-63780330D01*
X146249634Y-63570000D01*
X146564415Y-63359670D01*
X146889271Y-62873489D01*
X147003345Y-62300000D01*
X146889271Y-61726511D01*
X146564415Y-61240330D01*
X146249634Y-61030000D01*
X146564415Y-60819670D01*
X146889271Y-60333489D01*
X147003345Y-59760000D01*
X146889271Y-59186511D01*
X146564415Y-58700330D01*
X146249634Y-58490000D01*
X146564415Y-58279670D01*
X146889271Y-57793489D01*
X147003345Y-57220000D01*
X146889271Y-56646511D01*
X146564415Y-56160330D01*
X146078234Y-55835474D01*
X145504745Y-55721400D01*
X145135255Y-55721400D01*
X144561766Y-55835474D01*
X144075585Y-56160330D01*
X143750729Y-56646511D01*
X143636655Y-57220000D01*
X137972376Y-57220000D01*
X136621586Y-55869210D01*
X136515925Y-55798610D01*
X136334471Y-55677367D01*
X136278280Y-55666190D01*
X135995796Y-55609999D01*
X135995791Y-55610000D01*
X133709630Y-55610000D01*
X133702590Y-55599059D01*
X133490390Y-55454069D01*
X133425000Y-55440827D01*
X133425000Y-54110180D01*
X134812204Y-52722975D01*
X134772011Y-52921455D01*
X134772011Y-54953455D01*
X134816289Y-55188772D01*
X134955361Y-55404896D01*
X135167561Y-55549886D01*
X135419451Y-55600895D01*
X139077051Y-55600895D01*
X139312368Y-55556617D01*
X139528492Y-55417545D01*
X139673482Y-55205345D01*
X139724491Y-54953455D01*
X139724491Y-52921455D01*
X139680213Y-52686138D01*
X139575365Y-52523200D01*
X139616820Y-52523200D01*
X141135608Y-54041987D01*
X141135610Y-54041990D01*
X141422725Y-54233833D01*
X141466825Y-54242605D01*
X141482740Y-54322616D01*
X141785572Y-54775835D01*
X142238791Y-55078667D01*
X142773400Y-55185007D01*
X143308009Y-55078667D01*
X143761228Y-54775835D01*
X143916400Y-54543604D01*
X143916400Y-54642330D01*
X144013073Y-54875719D01*
X144191702Y-55054347D01*
X144425091Y-55151020D01*
X145027650Y-55151020D01*
X145186400Y-54992270D01*
X145186400Y-53543200D01*
X145440400Y-53543200D01*
X145440400Y-54992270D01*
X145599150Y-55151020D01*
X146201709Y-55151020D01*
X146435098Y-55054347D01*
X146613727Y-54875719D01*
X146710400Y-54642330D01*
X146710400Y-53701950D01*
X146551650Y-53543200D01*
X145440400Y-53543200D01*
X145186400Y-53543200D01*
X145166400Y-53543200D01*
X145166400Y-53289200D01*
X145186400Y-53289200D01*
X145186400Y-51840130D01*
X145440400Y-51840130D01*
X145440400Y-53289200D01*
X146551650Y-53289200D01*
X146710400Y-53130450D01*
X146710400Y-52190070D01*
X146613727Y-51956681D01*
X146435098Y-51778053D01*
X146201709Y-51681380D01*
X145599150Y-51681380D01*
X145440400Y-51840130D01*
X145186400Y-51840130D01*
X145027650Y-51681380D01*
X144425091Y-51681380D01*
X144191702Y-51778053D01*
X144013073Y-51956681D01*
X143916400Y-52190070D01*
X143916400Y-52288796D01*
X143761228Y-52056565D01*
X143308009Y-51753733D01*
X142773400Y-51647393D01*
X142238791Y-51753733D01*
X141785572Y-52056565D01*
X141732609Y-52135830D01*
X140609190Y-51012410D01*
X140516024Y-50950159D01*
X140322075Y-50820567D01*
X140265884Y-50809390D01*
X139983400Y-50753199D01*
X139983395Y-50753200D01*
X134645405Y-50753200D01*
X134645400Y-50753199D01*
X134306725Y-50820567D01*
X134019610Y-51012410D01*
X134019608Y-51012413D01*
X131914210Y-53117810D01*
X131722367Y-53404925D01*
X131722367Y-53404926D01*
X131654999Y-53743600D01*
X131655000Y-53743605D01*
X131655000Y-55438152D01*
X131606183Y-55447338D01*
X131390059Y-55586410D01*
X131370524Y-55615000D01*
X131185000Y-55615000D01*
X131185000Y-54385750D01*
X131026250Y-54227000D01*
X129427000Y-54227000D01*
X129427000Y-54247000D01*
X129173000Y-54247000D01*
X129173000Y-54227000D01*
X127573750Y-54227000D01*
X127415000Y-54385750D01*
X127415000Y-55349973D01*
X127414090Y-55348559D01*
X127201890Y-55203569D01*
X126950000Y-55152560D01*
X126450000Y-55152560D01*
X126294493Y-55181821D01*
X126150000Y-55152560D01*
X125650000Y-55152560D01*
X125494493Y-55181821D01*
X125350000Y-55152560D01*
X124850000Y-55152560D01*
X124694493Y-55181821D01*
X124550000Y-55152560D01*
X124050000Y-55152560D01*
X123909913Y-55178919D01*
X123876309Y-55165000D01*
X123783750Y-55165000D01*
X123638616Y-55310134D01*
X123598559Y-55335910D01*
X123453569Y-55548110D01*
X123402560Y-55800000D01*
X123402560Y-57200000D01*
X123446838Y-57435317D01*
X123540000Y-57580095D01*
X123540000Y-57613589D01*
X123597852Y-57904428D01*
X123762599Y-58150990D01*
X123790011Y-58178402D01*
X123790011Y-58381539D01*
X123751330Y-58355109D01*
X123535846Y-58311472D01*
X123437401Y-58164139D01*
X123097352Y-57824090D01*
X123123691Y-57835000D01*
X123216250Y-57835000D01*
X123375000Y-57676250D01*
X123375000Y-56627000D01*
X122773750Y-56627000D01*
X122615000Y-56785750D01*
X122615000Y-57326310D01*
X122625909Y-57352647D01*
X122562061Y-57288799D01*
X122315499Y-57124052D01*
X122024660Y-57066200D01*
X121206000Y-57066200D01*
X120694525Y-56554725D01*
X120773000Y-56476250D01*
X120773000Y-54227000D01*
X121027000Y-54227000D01*
X121027000Y-56476250D01*
X121185750Y-56635000D01*
X122276309Y-56635000D01*
X122509698Y-56538327D01*
X122688327Y-56359699D01*
X122709451Y-56308701D01*
X122773750Y-56373000D01*
X123375000Y-56373000D01*
X123375000Y-55323750D01*
X123216250Y-55165000D01*
X123123691Y-55165000D01*
X122890302Y-55261673D01*
X122785000Y-55366974D01*
X122785000Y-54385750D01*
X122626250Y-54227000D01*
X121027000Y-54227000D01*
X120773000Y-54227000D01*
X120753000Y-54227000D01*
X120753000Y-53973000D01*
X120773000Y-53973000D01*
X120773000Y-51723750D01*
X121027000Y-51723750D01*
X121027000Y-53973000D01*
X122626250Y-53973000D01*
X122785000Y-53814250D01*
X122785000Y-52073690D01*
X127415000Y-52073690D01*
X127415000Y-53814250D01*
X127573750Y-53973000D01*
X129173000Y-53973000D01*
X129173000Y-51723750D01*
X129427000Y-51723750D01*
X129427000Y-53973000D01*
X131026250Y-53973000D01*
X131185000Y-53814250D01*
X131185000Y-52073690D01*
X131088327Y-51840301D01*
X130909698Y-51661673D01*
X130676309Y-51565000D01*
X129585750Y-51565000D01*
X129427000Y-51723750D01*
X129173000Y-51723750D01*
X129014250Y-51565000D01*
X127923691Y-51565000D01*
X127690302Y-51661673D01*
X127511673Y-51840301D01*
X127415000Y-52073690D01*
X122785000Y-52073690D01*
X122688327Y-51840301D01*
X122509698Y-51661673D01*
X122276309Y-51565000D01*
X121185750Y-51565000D01*
X121027000Y-51723750D01*
X120773000Y-51723750D01*
X120614250Y-51565000D01*
X119523691Y-51565000D01*
X119290302Y-51661673D01*
X119236988Y-51714986D01*
X118610801Y-51088799D01*
X118364239Y-50924052D01*
X118073400Y-50866200D01*
X105451400Y-50866200D01*
X105160561Y-50924052D01*
X104913999Y-51088799D01*
X104135999Y-51866799D01*
X104042480Y-52006760D01*
X103911400Y-52006760D01*
X103676083Y-52051038D01*
X103459959Y-52190110D01*
X103314969Y-52402310D01*
X103263960Y-52654200D01*
X101493354Y-52654200D01*
X101958323Y-51958324D01*
X103353856Y-51025858D01*
X105067467Y-50685000D01*
X144932533Y-50685000D01*
X146646142Y-51025858D01*
X146646142Y-51025858D01*
G37*
X146646142Y-51025858D02*
X148041676Y-51958323D01*
X148974142Y-53353856D01*
X149315000Y-55067467D01*
X149315000Y-94932533D01*
X148974142Y-96646144D01*
X148041676Y-98041677D01*
X146646142Y-98974142D01*
X144932533Y-99315000D01*
X105067467Y-99315000D01*
X103353856Y-98974142D01*
X102135692Y-98160190D01*
X108841300Y-98160190D01*
X108841300Y-98724649D01*
X108937973Y-98958038D01*
X109116601Y-99136667D01*
X109349990Y-99233340D01*
X109640130Y-99233340D01*
X109798880Y-99074590D01*
X109798880Y-98001440D01*
X109000050Y-98001440D01*
X108841300Y-98160190D01*
X102135692Y-98160190D01*
X101958323Y-98041676D01*
X101278489Y-97024231D01*
X108841300Y-97024231D01*
X108841300Y-97588690D01*
X109000050Y-97747440D01*
X109798880Y-97747440D01*
X109798880Y-97151200D01*
X109950960Y-97151200D01*
X109950960Y-98601200D01*
X109995238Y-98836517D01*
X110052880Y-98926095D01*
X110052880Y-99074590D01*
X110211630Y-99233340D01*
X110501770Y-99233340D01*
X110508691Y-99230473D01*
X110598400Y-99248640D01*
X112648400Y-99248640D01*
X112883717Y-99204362D01*
X113099841Y-99065290D01*
X113244831Y-98853090D01*
X113295840Y-98601200D01*
X113295840Y-97151200D01*
X118250960Y-97151200D01*
X118250960Y-98601200D01*
X118295238Y-98836517D01*
X118434310Y-99052641D01*
X118646510Y-99197631D01*
X118898400Y-99248640D01*
X120948400Y-99248640D01*
X121183717Y-99204362D01*
X121399841Y-99065290D01*
X121544831Y-98853090D01*
X121595840Y-98601200D01*
X121595840Y-97151200D01*
X121551562Y-96915883D01*
X121412490Y-96699759D01*
X121200290Y-96554769D01*
X120948400Y-96503760D01*
X118898400Y-96503760D01*
X118663083Y-96548038D01*
X118446959Y-96687110D01*
X118301969Y-96899310D01*
X118250960Y-97151200D01*
X113295840Y-97151200D01*
X113251562Y-96915883D01*
X113112490Y-96699759D01*
X112900290Y-96554769D01*
X112648400Y-96503760D01*
X110598400Y-96503760D01*
X110512398Y-96519942D01*
X110501770Y-96515540D01*
X110211630Y-96515540D01*
X110052880Y-96674290D01*
X110052880Y-96824799D01*
X110001969Y-96899310D01*
X109950960Y-97151200D01*
X109798880Y-97151200D01*
X109798880Y-96674290D01*
X109640130Y-96515540D01*
X109349990Y-96515540D01*
X109116601Y-96612213D01*
X108937973Y-96790842D01*
X108841300Y-97024231D01*
X101278489Y-97024231D01*
X101025858Y-96646142D01*
X100685000Y-94932533D01*
X100685000Y-59760000D01*
X102996655Y-59760000D01*
X103110729Y-60333489D01*
X103435585Y-60819670D01*
X103750366Y-61030000D01*
X103435585Y-61240330D01*
X103110729Y-61726511D01*
X102996655Y-62300000D01*
X103110729Y-62873489D01*
X103435585Y-63359670D01*
X103750366Y-63570000D01*
X103435585Y-63780330D01*
X103110729Y-64266511D01*
X102996655Y-64840000D01*
X103110729Y-65413489D01*
X103435585Y-65899670D01*
X103750366Y-66110000D01*
X103435585Y-66320330D01*
X103110729Y-66806511D01*
X102996655Y-67380000D01*
X103110729Y-67953489D01*
X103435585Y-68439670D01*
X103750366Y-68650000D01*
X103435585Y-68860330D01*
X103110729Y-69346511D01*
X102996655Y-69920000D01*
X103110729Y-70493489D01*
X103435585Y-70979670D01*
X103750366Y-71190000D01*
X103435585Y-71400330D01*
X103110729Y-71886511D01*
X102996655Y-72460000D01*
X103110729Y-73033489D01*
X103435585Y-73519670D01*
X103750366Y-73730000D01*
X103435585Y-73940330D01*
X103110729Y-74426511D01*
X102996655Y-75000000D01*
X103110729Y-75573489D01*
X103435585Y-76059670D01*
X103750366Y-76270000D01*
X103435585Y-76480330D01*
X103110729Y-76966511D01*
X102996655Y-77540000D01*
X103110729Y-78113489D01*
X103435585Y-78599670D01*
X103750366Y-78810000D01*
X103435585Y-79020330D01*
X103110729Y-79506511D01*
X102996655Y-80080000D01*
X103110729Y-80653489D01*
X103435585Y-81139670D01*
X103750366Y-81350000D01*
X103435585Y-81560330D01*
X103110729Y-82046511D01*
X102996655Y-82620000D01*
X103110729Y-83193489D01*
X103435585Y-83679670D01*
X103750366Y-83890000D01*
X103435585Y-84100330D01*
X103110729Y-84586511D01*
X102996655Y-85160000D01*
X103110729Y-85733489D01*
X103435585Y-86219670D01*
X103750366Y-86430000D01*
X103435585Y-86640330D01*
X103110729Y-87126511D01*
X102996655Y-87700000D01*
X103110729Y-88273489D01*
X103435585Y-88759670D01*
X103750366Y-88970000D01*
X103435585Y-89180330D01*
X103110729Y-89666511D01*
X102996655Y-90240000D01*
X103110729Y-90813489D01*
X103435585Y-91299670D01*
X103750366Y-91510000D01*
X103435585Y-91720330D01*
X103110729Y-92206511D01*
X102996655Y-92780000D01*
X103110729Y-93353489D01*
X103435585Y-93839670D01*
X103750366Y-94050000D01*
X103435585Y-94260330D01*
X103110729Y-94746511D01*
X102996655Y-95320000D01*
X103110729Y-95893489D01*
X103435585Y-96379670D01*
X103921766Y-96704526D01*
X104495255Y-96818600D01*
X104864745Y-96818600D01*
X105438234Y-96704526D01*
X105924415Y-96379670D01*
X106249271Y-95893489D01*
X106363345Y-95320000D01*
X106249271Y-94746511D01*
X105924415Y-94260330D01*
X105609634Y-94050000D01*
X105924415Y-93839670D01*
X106249271Y-93353489D01*
X106363345Y-92780000D01*
X106249271Y-92206511D01*
X105924415Y-91720330D01*
X105609634Y-91510000D01*
X105924415Y-91299670D01*
X106249271Y-90813489D01*
X106363345Y-90240000D01*
X106249271Y-89666511D01*
X105924415Y-89180330D01*
X105609634Y-88970000D01*
X105924415Y-88759670D01*
X106249271Y-88273489D01*
X106363345Y-87700000D01*
X106249271Y-87126511D01*
X105924415Y-86640330D01*
X105609634Y-86430000D01*
X105924415Y-86219670D01*
X106249271Y-85733489D01*
X106363345Y-85160000D01*
X106249271Y-84586511D01*
X105924415Y-84100330D01*
X105609634Y-83890000D01*
X105924415Y-83679670D01*
X106249271Y-83193489D01*
X106363345Y-82620000D01*
X106249271Y-82046511D01*
X105924415Y-81560330D01*
X105609634Y-81350000D01*
X105924415Y-81139670D01*
X106249271Y-80653489D01*
X106363345Y-80080000D01*
X106249271Y-79506511D01*
X105924415Y-79020330D01*
X105609634Y-78810000D01*
X105924415Y-78599670D01*
X106249271Y-78113489D01*
X106363345Y-77540000D01*
X106249271Y-76966511D01*
X105924415Y-76480330D01*
X105609634Y-76270000D01*
X105924415Y-76059670D01*
X106249271Y-75573489D01*
X106363345Y-75000000D01*
X106249271Y-74426511D01*
X105924415Y-73940330D01*
X105609634Y-73730000D01*
X105924415Y-73519670D01*
X106249271Y-73033489D01*
X106363345Y-72460000D01*
X106249271Y-71886511D01*
X105924415Y-71400330D01*
X105609634Y-71190000D01*
X105924415Y-70979670D01*
X106249271Y-70493489D01*
X106363345Y-69920000D01*
X106249271Y-69346511D01*
X105924415Y-68860330D01*
X105609634Y-68650000D01*
X105924415Y-68439670D01*
X106249271Y-67953489D01*
X106363345Y-67380000D01*
X106249271Y-66806511D01*
X105924415Y-66320330D01*
X105609634Y-66110000D01*
X105924415Y-65899670D01*
X106249271Y-65413489D01*
X106363345Y-64840000D01*
X106249271Y-64266511D01*
X105924415Y-63780330D01*
X105609634Y-63570000D01*
X105924415Y-63359670D01*
X106249271Y-62873489D01*
X106363345Y-62300000D01*
X106249271Y-61726511D01*
X105924415Y-61240330D01*
X105609634Y-61030000D01*
X105924415Y-60819670D01*
X106249271Y-60333489D01*
X106363345Y-59760000D01*
X106249271Y-59186511D01*
X105924415Y-58700330D01*
X105910087Y-58690757D01*
X105931317Y-58686762D01*
X106147441Y-58547690D01*
X106292431Y-58335490D01*
X106343440Y-58083600D01*
X106343440Y-56356400D01*
X106299162Y-56121083D01*
X106160090Y-55904959D01*
X105947890Y-55759969D01*
X105696000Y-55708960D01*
X103664000Y-55708960D01*
X103428683Y-55753238D01*
X103212559Y-55892310D01*
X103067569Y-56104510D01*
X103016560Y-56356400D01*
X103016560Y-58083600D01*
X103060838Y-58318917D01*
X103199910Y-58535041D01*
X103412110Y-58680031D01*
X103453439Y-58688400D01*
X103435585Y-58700330D01*
X103110729Y-59186511D01*
X102996655Y-59760000D01*
X100685000Y-59760000D01*
X100685000Y-55067467D01*
X101025858Y-53353858D01*
X101493354Y-52654200D01*
X103263960Y-52654200D01*
X103263960Y-54178200D01*
X103308238Y-54413517D01*
X103447310Y-54629641D01*
X103659510Y-54774631D01*
X103911400Y-54825640D01*
X105435400Y-54825640D01*
X105670717Y-54781362D01*
X105886841Y-54642290D01*
X106031831Y-54430090D01*
X106068892Y-54247076D01*
X106421030Y-54599829D01*
X106934300Y-54812957D01*
X107490061Y-54813442D01*
X107522455Y-54800057D01*
X107977400Y-55255002D01*
X107977400Y-62735200D01*
X108035252Y-63026039D01*
X108199999Y-63272601D01*
X109360999Y-64433601D01*
X109553427Y-64562177D01*
X109551969Y-64564310D01*
X109500960Y-64816200D01*
X109500960Y-65516200D01*
X109545238Y-65751517D01*
X109684310Y-65967641D01*
X109896510Y-66112631D01*
X110148400Y-66163640D01*
X110912522Y-66163640D01*
X110744457Y-66233083D01*
X110481208Y-66495873D01*
X110338562Y-66839401D01*
X110338238Y-67211367D01*
X110480283Y-67555143D01*
X110513400Y-67588318D01*
X110513400Y-68050464D01*
X110571252Y-68341303D01*
X110735999Y-68587865D01*
X113438134Y-71290000D01*
X111049997Y-71290000D01*
X110759158Y-71347852D01*
X110512596Y-71512599D01*
X106635966Y-75389229D01*
X106471219Y-75635791D01*
X106413367Y-75926630D01*
X106413367Y-89072667D01*
X106471219Y-89363506D01*
X106635966Y-89610068D01*
X111863959Y-94838061D01*
X112110521Y-95002808D01*
X112401360Y-95060660D01*
X112952114Y-95060660D01*
X113010170Y-95150881D01*
X113222370Y-95295871D01*
X113474260Y-95346880D01*
X114972860Y-95346880D01*
X115208177Y-95302602D01*
X115424301Y-95163530D01*
X115569291Y-94951330D01*
X115620300Y-94699440D01*
X115620300Y-93901880D01*
X115590819Y-93745202D01*
X115620300Y-93599620D01*
X115620300Y-92802060D01*
X115590819Y-92645382D01*
X115620300Y-92499800D01*
X115620300Y-91886200D01*
X115964855Y-91886200D01*
X115964860Y-91886201D01*
X116247344Y-91830010D01*
X116303535Y-91818833D01*
X116590650Y-91626990D01*
X117237187Y-90980452D01*
X117237190Y-90980450D01*
X117429033Y-90693335D01*
X117453409Y-90570790D01*
X117496401Y-90354660D01*
X117496400Y-90354655D01*
X117496400Y-85885405D01*
X117496401Y-85885400D01*
X117429033Y-85546725D01*
X117389033Y-85486860D01*
X117237190Y-85259610D01*
X117237187Y-85259608D01*
X115378780Y-83401200D01*
X118250960Y-83401200D01*
X118250960Y-84851200D01*
X118295238Y-85086517D01*
X118434310Y-85302641D01*
X118646510Y-85447631D01*
X118898400Y-85498640D01*
X120948400Y-85498640D01*
X121037290Y-85481914D01*
X121049230Y-85486860D01*
X121339370Y-85486860D01*
X121498120Y-85328110D01*
X121498120Y-85171454D01*
X121544831Y-85103090D01*
X121595840Y-84851200D01*
X121595840Y-83401200D01*
X121551562Y-83165883D01*
X121498120Y-83082832D01*
X121498120Y-82927810D01*
X121339370Y-82769060D01*
X121049230Y-82769060D01*
X121040930Y-82772498D01*
X120948400Y-82753760D01*
X118898400Y-82753760D01*
X118663083Y-82798038D01*
X118446959Y-82937110D01*
X118301969Y-83149310D01*
X118250960Y-83401200D01*
X115378780Y-83401200D01*
X114954247Y-82976667D01*
X115107441Y-82878090D01*
X115139317Y-82831438D01*
X115159910Y-82863441D01*
X115372110Y-83008431D01*
X115624000Y-83059440D01*
X117656000Y-83059440D01*
X117891317Y-83015162D01*
X118107441Y-82876090D01*
X118252431Y-82663890D01*
X118278532Y-82535000D01*
X119281995Y-82535000D01*
X119282000Y-82535001D01*
X119610620Y-82469633D01*
X119620675Y-82467633D01*
X119907790Y-82275790D01*
X120164640Y-82018940D01*
X120195500Y-82018940D01*
X120430817Y-81974662D01*
X120642811Y-81838247D01*
X120832610Y-81967931D01*
X121084500Y-82018940D01*
X121719500Y-82018940D01*
X121885500Y-81987705D01*
X121885500Y-82014250D01*
X122044250Y-82173000D01*
X122711000Y-82173000D01*
X122711000Y-82153000D01*
X122965000Y-82153000D01*
X122965000Y-82173000D01*
X122985000Y-82173000D01*
X122985000Y-82427000D01*
X122965000Y-82427000D01*
X122965000Y-82447000D01*
X122711000Y-82447000D01*
X122711000Y-82427000D01*
X122044250Y-82427000D01*
X121885500Y-82585750D01*
X121885500Y-82794430D01*
X121752120Y-82927810D01*
X121752120Y-84000960D01*
X121772120Y-84000960D01*
X121772120Y-84254960D01*
X121752120Y-84254960D01*
X121752120Y-85328110D01*
X121910870Y-85486860D01*
X122201010Y-85486860D01*
X122434399Y-85390187D01*
X122613027Y-85211558D01*
X122639989Y-85146466D01*
X122639989Y-90602784D01*
X122639988Y-90602789D01*
X122693020Y-90869391D01*
X122707356Y-90941464D01*
X122879470Y-91199052D01*
X122899199Y-91228579D01*
X123772608Y-92101987D01*
X123772610Y-92101990D01*
X124059725Y-92293833D01*
X124115916Y-92305010D01*
X124398400Y-92361201D01*
X124398405Y-92361200D01*
X130781393Y-92361200D01*
X130781398Y-92361201D01*
X131063882Y-92305010D01*
X131120073Y-92293833D01*
X131407188Y-92101990D01*
X132880261Y-90628917D01*
X132972073Y-90720890D01*
X133315601Y-90863536D01*
X133687567Y-90863860D01*
X133936024Y-90761200D01*
X134129150Y-90761200D01*
X134192150Y-90824200D01*
X134272451Y-90824200D01*
X134416510Y-90922631D01*
X134553520Y-90950376D01*
X134433083Y-90973038D01*
X134269657Y-91078200D01*
X134192150Y-91078200D01*
X134033400Y-91236950D01*
X134033400Y-91261968D01*
X133880999Y-91363799D01*
X133295499Y-91949299D01*
X133130752Y-92195861D01*
X133072900Y-92486700D01*
X133072900Y-93515260D01*
X132432900Y-93515260D01*
X132197583Y-93559538D01*
X131981459Y-93698610D01*
X131836469Y-93910810D01*
X131785460Y-94162700D01*
X131785460Y-96362700D01*
X131829738Y-96598017D01*
X131968810Y-96814141D01*
X132181010Y-96959131D01*
X132432900Y-97010140D01*
X135232900Y-97010140D01*
X135468217Y-96965862D01*
X135684341Y-96826790D01*
X135829331Y-96614590D01*
X135880340Y-96362700D01*
X135880340Y-95548450D01*
X136597900Y-95548450D01*
X136597900Y-96489010D01*
X136694573Y-96722399D01*
X136873202Y-96901027D01*
X137106591Y-96997700D01*
X138347150Y-96997700D01*
X138505900Y-96838950D01*
X138505900Y-95389700D01*
X138759900Y-95389700D01*
X138759900Y-96838950D01*
X138918650Y-96997700D01*
X140159209Y-96997700D01*
X140392598Y-96901027D01*
X140571227Y-96722399D01*
X140667900Y-96489010D01*
X140667900Y-95548450D01*
X140509150Y-95389700D01*
X138759900Y-95389700D01*
X138505900Y-95389700D01*
X136756650Y-95389700D01*
X136597900Y-95548450D01*
X135880340Y-95548450D01*
X135880340Y-94162700D01*
X135856574Y-94036390D01*
X136597900Y-94036390D01*
X136597900Y-94976950D01*
X136756650Y-95135700D01*
X138505900Y-95135700D01*
X138505900Y-93686450D01*
X138759900Y-93686450D01*
X138759900Y-95135700D01*
X140509150Y-95135700D01*
X140667900Y-94976950D01*
X140667900Y-94036390D01*
X140571227Y-93803001D01*
X140392598Y-93624373D01*
X140159209Y-93527700D01*
X138918650Y-93527700D01*
X138759900Y-93686450D01*
X138505900Y-93686450D01*
X138347150Y-93527700D01*
X137106591Y-93527700D01*
X136873202Y-93624373D01*
X136694573Y-93803001D01*
X136597900Y-94036390D01*
X135856574Y-94036390D01*
X135836062Y-93927383D01*
X135696990Y-93711259D01*
X135484790Y-93566269D01*
X135232900Y-93515260D01*
X134592900Y-93515260D01*
X134592900Y-92858351D01*
X134668400Y-92873640D01*
X135728400Y-92873640D01*
X135963717Y-92829362D01*
X136179841Y-92690290D01*
X136299633Y-92514968D01*
X136404310Y-92677641D01*
X136616510Y-92822631D01*
X136868400Y-92873640D01*
X137928400Y-92873640D01*
X138163717Y-92829362D01*
X138379841Y-92690290D01*
X138524831Y-92478090D01*
X138567841Y-92265700D01*
X138887650Y-92265700D01*
X139046400Y-92106950D01*
X139046400Y-91440200D01*
X139300400Y-91440200D01*
X139300400Y-92106950D01*
X139459150Y-92265700D01*
X139871210Y-92265700D01*
X140104599Y-92169027D01*
X140283227Y-91990398D01*
X140379900Y-91757009D01*
X140379900Y-91598950D01*
X140221150Y-91440200D01*
X139300400Y-91440200D01*
X139046400Y-91440200D01*
X139026400Y-91440200D01*
X139026400Y-91186200D01*
X139046400Y-91186200D01*
X139046400Y-91166200D01*
X139300400Y-91166200D01*
X139300400Y-91186200D01*
X140221150Y-91186200D01*
X140379900Y-91027450D01*
X140379900Y-90869391D01*
X140283227Y-90636002D01*
X140205139Y-90557914D01*
X140341331Y-90358590D01*
X140392340Y-90106700D01*
X140392340Y-89471700D01*
X140348062Y-89236383D01*
X140208990Y-89020259D01*
X139996790Y-88875269D01*
X139744900Y-88824260D01*
X139717791Y-88824260D01*
X139710801Y-88813799D01*
X137533400Y-86636398D01*
X137533400Y-86544783D01*
X138524287Y-85553896D01*
X138524290Y-85553894D01*
X138716133Y-85266779D01*
X138727429Y-85209991D01*
X138783501Y-84928104D01*
X138783500Y-84928099D01*
X138783500Y-82839505D01*
X138783501Y-82839500D01*
X138726051Y-82550684D01*
X138770790Y-82520790D01*
X139165787Y-82125792D01*
X139165790Y-82125790D01*
X139357633Y-81838675D01*
X139425000Y-81500000D01*
X139425000Y-77392805D01*
X139425001Y-77392800D01*
X139357633Y-77054126D01*
X139357633Y-77054125D01*
X139165790Y-76767010D01*
X139165787Y-76767008D01*
X138810990Y-76412210D01*
X138798507Y-76403869D01*
X138523875Y-76220367D01*
X138467684Y-76209190D01*
X138185200Y-76152999D01*
X138185195Y-76153000D01*
X137565732Y-76153000D01*
X137558400Y-76147990D01*
X137558400Y-71968905D01*
X137558401Y-71968900D01*
X137491033Y-71630226D01*
X137491033Y-71630225D01*
X137450775Y-71569975D01*
X137573000Y-71447750D01*
X137573000Y-70527000D01*
X137827000Y-70527000D01*
X137827000Y-71447750D01*
X137985750Y-71606500D01*
X138143809Y-71606500D01*
X138377198Y-71509827D01*
X138555827Y-71331199D01*
X138652500Y-71097810D01*
X138652500Y-70685750D01*
X138493750Y-70527000D01*
X137827000Y-70527000D01*
X137573000Y-70527000D01*
X137553000Y-70527000D01*
X137553000Y-70273000D01*
X137573000Y-70273000D01*
X137573000Y-68927000D01*
X137827000Y-68927000D01*
X137827000Y-70273000D01*
X138493750Y-70273000D01*
X138652500Y-70114250D01*
X138652500Y-69702190D01*
X138610171Y-69600000D01*
X138652500Y-69497810D01*
X138652500Y-69085750D01*
X138493750Y-68927000D01*
X137827000Y-68927000D01*
X137573000Y-68927000D01*
X137553000Y-68927000D01*
X137553000Y-68673000D01*
X137573000Y-68673000D01*
X137573000Y-68653000D01*
X137827000Y-68653000D01*
X137827000Y-68673000D01*
X138493750Y-68673000D01*
X138652500Y-68514250D01*
X138652500Y-68179987D01*
X138756698Y-68136827D01*
X138935327Y-67958199D01*
X139032000Y-67724810D01*
X139032000Y-67185750D01*
X138873250Y-67027000D01*
X138079500Y-67027000D01*
X138079500Y-67047000D01*
X137825500Y-67047000D01*
X137825500Y-67027000D01*
X137805500Y-67027000D01*
X137805500Y-66773000D01*
X137825500Y-66773000D01*
X137825500Y-65725250D01*
X138079500Y-65725250D01*
X138079500Y-66773000D01*
X138873250Y-66773000D01*
X139032000Y-66614250D01*
X139032000Y-66075190D01*
X138935327Y-65841801D01*
X138756698Y-65663173D01*
X138523309Y-65566500D01*
X138238250Y-65566500D01*
X138079500Y-65725250D01*
X137825500Y-65725250D01*
X137666750Y-65566500D01*
X137381691Y-65566500D01*
X137148302Y-65663173D01*
X136997329Y-65814146D01*
X136956090Y-65750059D01*
X136743890Y-65605069D01*
X136492000Y-65554060D01*
X135801139Y-65554060D01*
X133732080Y-63485000D01*
X135692560Y-63485000D01*
X135692560Y-63900000D01*
X135736838Y-64135317D01*
X135875910Y-64351441D01*
X136088110Y-64496431D01*
X136340000Y-64547440D01*
X137240000Y-64547440D01*
X137475317Y-64503162D01*
X137691441Y-64364090D01*
X137739134Y-64294289D01*
X137775910Y-64351441D01*
X137988110Y-64496431D01*
X138240000Y-64547440D01*
X140440000Y-64547440D01*
X140675317Y-64503162D01*
X140891441Y-64364090D01*
X141036431Y-64151890D01*
X141087440Y-63900000D01*
X141087440Y-62500000D01*
X141043162Y-62264683D01*
X140904090Y-62048559D01*
X140691890Y-61903569D01*
X140588594Y-61882651D01*
X140638682Y-61809345D01*
X140689691Y-61557455D01*
X140689691Y-59525455D01*
X140645413Y-59290138D01*
X140506341Y-59074014D01*
X140294141Y-58929024D01*
X140042251Y-58878015D01*
X139630390Y-58878015D01*
X137972376Y-57220000D01*
X143636655Y-57220000D01*
X143750729Y-57793489D01*
X144075585Y-58279670D01*
X144390366Y-58490000D01*
X144075585Y-58700330D01*
X143750729Y-59186511D01*
X143636655Y-59760000D01*
X143750729Y-60333489D01*
X144075585Y-60819670D01*
X144390366Y-61030000D01*
X144075585Y-61240330D01*
X143750729Y-61726511D01*
X143636655Y-62300000D01*
X143750729Y-62873489D01*
X144075585Y-63359670D01*
X144390366Y-63570000D01*
X144075585Y-63780330D01*
X143750729Y-64266511D01*
X143636655Y-64840000D01*
X143750729Y-65413489D01*
X144075585Y-65899670D01*
X144390366Y-66110000D01*
X144075585Y-66320330D01*
X143750729Y-66806511D01*
X143636655Y-67380000D01*
X143750729Y-67953489D01*
X144075585Y-68439670D01*
X144390366Y-68650000D01*
X144075585Y-68860330D01*
X143750729Y-69346511D01*
X143636655Y-69920000D01*
X143750729Y-70493489D01*
X144075585Y-70979670D01*
X144390366Y-71190000D01*
X144075585Y-71400330D01*
X143750729Y-71886511D01*
X143636655Y-72460000D01*
X143750729Y-73033489D01*
X144075585Y-73519670D01*
X144390366Y-73730000D01*
X144075585Y-73940330D01*
X143750729Y-74426511D01*
X143636655Y-75000000D01*
X143750729Y-75573489D01*
X144075585Y-76059670D01*
X144390366Y-76270000D01*
X144075585Y-76480330D01*
X143750729Y-76966511D01*
X143636655Y-77540000D01*
X143750729Y-78113489D01*
X144075585Y-78599670D01*
X144390366Y-78810000D01*
X144075585Y-79020330D01*
X143750729Y-79506511D01*
X143636655Y-80080000D01*
X143750729Y-80653489D01*
X144075585Y-81139670D01*
X144390366Y-81350000D01*
X144075585Y-81560330D01*
X143750729Y-82046511D01*
X143636655Y-82620000D01*
X143750729Y-83193489D01*
X144075585Y-83679670D01*
X144390366Y-83890000D01*
X144075585Y-84100330D01*
X143750729Y-84586511D01*
X143636655Y-85160000D01*
X143750729Y-85733489D01*
X144075585Y-86219670D01*
X144390366Y-86430000D01*
X144075585Y-86640330D01*
X143750729Y-87126511D01*
X143636655Y-87700000D01*
X143750729Y-88273489D01*
X144075585Y-88759670D01*
X144390366Y-88970000D01*
X144075585Y-89180330D01*
X143750729Y-89666511D01*
X143636655Y-90240000D01*
X143750729Y-90813489D01*
X144075585Y-91299670D01*
X144390366Y-91510000D01*
X144075585Y-91720330D01*
X143750729Y-92206511D01*
X143636655Y-92780000D01*
X143750729Y-93353489D01*
X144075585Y-93839670D01*
X144089913Y-93849243D01*
X144068683Y-93853238D01*
X143852559Y-93992310D01*
X143707569Y-94204510D01*
X143656560Y-94456400D01*
X143656560Y-96183600D01*
X143700838Y-96418917D01*
X143839910Y-96635041D01*
X144052110Y-96780031D01*
X144304000Y-96831040D01*
X146336000Y-96831040D01*
X146571317Y-96786762D01*
X146787441Y-96647690D01*
X146932431Y-96435490D01*
X146983440Y-96183600D01*
X146983440Y-94456400D01*
X146939162Y-94221083D01*
X146800090Y-94004959D01*
X146587890Y-93859969D01*
X146546561Y-93851600D01*
X146564415Y-93839670D01*
X146889271Y-93353489D01*
X147003345Y-92780000D01*
X146889271Y-92206511D01*
X146564415Y-91720330D01*
X146249634Y-91510000D01*
X146564415Y-91299670D01*
X146889271Y-90813489D01*
X147003345Y-90240000D01*
X146889271Y-89666511D01*
X146564415Y-89180330D01*
X146249634Y-88970000D01*
X146564415Y-88759670D01*
X146889271Y-88273489D01*
X147003345Y-87700000D01*
X146889271Y-87126511D01*
X146564415Y-86640330D01*
X146249634Y-86430000D01*
X146564415Y-86219670D01*
X146889271Y-85733489D01*
X147003345Y-85160000D01*
X146889271Y-84586511D01*
X146564415Y-84100330D01*
X146249634Y-83890000D01*
X146564415Y-83679670D01*
X146889271Y-83193489D01*
X147003345Y-82620000D01*
X146889271Y-82046511D01*
X146564415Y-81560330D01*
X146249634Y-81350000D01*
X146564415Y-81139670D01*
X146889271Y-80653489D01*
X147003345Y-80080000D01*
X146889271Y-79506511D01*
X146564415Y-79020330D01*
X146249634Y-78810000D01*
X146564415Y-78599670D01*
X146889271Y-78113489D01*
X147003345Y-77540000D01*
X146889271Y-76966511D01*
X146564415Y-76480330D01*
X146249634Y-76270000D01*
X146564415Y-76059670D01*
X146889271Y-75573489D01*
X147003345Y-75000000D01*
X146889271Y-74426511D01*
X146564415Y-73940330D01*
X146249634Y-73730000D01*
X146564415Y-73519670D01*
X146889271Y-73033489D01*
X147003345Y-72460000D01*
X146889271Y-71886511D01*
X146564415Y-71400330D01*
X146249634Y-71190000D01*
X146564415Y-70979670D01*
X146889271Y-70493489D01*
X147003345Y-69920000D01*
X146889271Y-69346511D01*
X146564415Y-68860330D01*
X146249634Y-68650000D01*
X146564415Y-68439670D01*
X146889271Y-67953489D01*
X147003345Y-67380000D01*
X146889271Y-66806511D01*
X146564415Y-66320330D01*
X146249634Y-66110000D01*
X146564415Y-65899670D01*
X146889271Y-65413489D01*
X147003345Y-64840000D01*
X146889271Y-64266511D01*
X146564415Y-63780330D01*
X146249634Y-63570000D01*
X146564415Y-63359670D01*
X146889271Y-62873489D01*
X147003345Y-62300000D01*
X146889271Y-61726511D01*
X146564415Y-61240330D01*
X146249634Y-61030000D01*
X146564415Y-60819670D01*
X146889271Y-60333489D01*
X147003345Y-59760000D01*
X146889271Y-59186511D01*
X146564415Y-58700330D01*
X146249634Y-58490000D01*
X146564415Y-58279670D01*
X146889271Y-57793489D01*
X147003345Y-57220000D01*
X146889271Y-56646511D01*
X146564415Y-56160330D01*
X146078234Y-55835474D01*
X145504745Y-55721400D01*
X145135255Y-55721400D01*
X144561766Y-55835474D01*
X144075585Y-56160330D01*
X143750729Y-56646511D01*
X143636655Y-57220000D01*
X137972376Y-57220000D01*
X136621586Y-55869210D01*
X136515925Y-55798610D01*
X136334471Y-55677367D01*
X136278280Y-55666190D01*
X135995796Y-55609999D01*
X135995791Y-55610000D01*
X133709630Y-55610000D01*
X133702590Y-55599059D01*
X133490390Y-55454069D01*
X133425000Y-55440827D01*
X133425000Y-54110180D01*
X134812204Y-52722975D01*
X134772011Y-52921455D01*
X134772011Y-54953455D01*
X134816289Y-55188772D01*
X134955361Y-55404896D01*
X135167561Y-55549886D01*
X135419451Y-55600895D01*
X139077051Y-55600895D01*
X139312368Y-55556617D01*
X139528492Y-55417545D01*
X139673482Y-55205345D01*
X139724491Y-54953455D01*
X139724491Y-52921455D01*
X139680213Y-52686138D01*
X139575365Y-52523200D01*
X139616820Y-52523200D01*
X141135608Y-54041987D01*
X141135610Y-54041990D01*
X141422725Y-54233833D01*
X141466825Y-54242605D01*
X141482740Y-54322616D01*
X141785572Y-54775835D01*
X142238791Y-55078667D01*
X142773400Y-55185007D01*
X143308009Y-55078667D01*
X143761228Y-54775835D01*
X143916400Y-54543604D01*
X143916400Y-54642330D01*
X144013073Y-54875719D01*
X144191702Y-55054347D01*
X144425091Y-55151020D01*
X145027650Y-55151020D01*
X145186400Y-54992270D01*
X145186400Y-53543200D01*
X145440400Y-53543200D01*
X145440400Y-54992270D01*
X145599150Y-55151020D01*
X146201709Y-55151020D01*
X146435098Y-55054347D01*
X146613727Y-54875719D01*
X146710400Y-54642330D01*
X146710400Y-53701950D01*
X146551650Y-53543200D01*
X145440400Y-53543200D01*
X145186400Y-53543200D01*
X145166400Y-53543200D01*
X145166400Y-53289200D01*
X145186400Y-53289200D01*
X145186400Y-51840130D01*
X145440400Y-51840130D01*
X145440400Y-53289200D01*
X146551650Y-53289200D01*
X146710400Y-53130450D01*
X146710400Y-52190070D01*
X146613727Y-51956681D01*
X146435098Y-51778053D01*
X146201709Y-51681380D01*
X145599150Y-51681380D01*
X145440400Y-51840130D01*
X145186400Y-51840130D01*
X145027650Y-51681380D01*
X144425091Y-51681380D01*
X144191702Y-51778053D01*
X144013073Y-51956681D01*
X143916400Y-52190070D01*
X143916400Y-52288796D01*
X143761228Y-52056565D01*
X143308009Y-51753733D01*
X142773400Y-51647393D01*
X142238791Y-51753733D01*
X141785572Y-52056565D01*
X141732609Y-52135830D01*
X140609190Y-51012410D01*
X140516024Y-50950159D01*
X140322075Y-50820567D01*
X140265884Y-50809390D01*
X139983400Y-50753199D01*
X139983395Y-50753200D01*
X134645405Y-50753200D01*
X134645400Y-50753199D01*
X134306725Y-50820567D01*
X134019610Y-51012410D01*
X134019608Y-51012413D01*
X131914210Y-53117810D01*
X131722367Y-53404925D01*
X131722367Y-53404926D01*
X131654999Y-53743600D01*
X131655000Y-53743605D01*
X131655000Y-55438152D01*
X131606183Y-55447338D01*
X131390059Y-55586410D01*
X131370524Y-55615000D01*
X131185000Y-55615000D01*
X131185000Y-54385750D01*
X131026250Y-54227000D01*
X129427000Y-54227000D01*
X129427000Y-54247000D01*
X129173000Y-54247000D01*
X129173000Y-54227000D01*
X127573750Y-54227000D01*
X127415000Y-54385750D01*
X127415000Y-55349973D01*
X127414090Y-55348559D01*
X127201890Y-55203569D01*
X126950000Y-55152560D01*
X126450000Y-55152560D01*
X126294493Y-55181821D01*
X126150000Y-55152560D01*
X125650000Y-55152560D01*
X125494493Y-55181821D01*
X125350000Y-55152560D01*
X124850000Y-55152560D01*
X124694493Y-55181821D01*
X124550000Y-55152560D01*
X124050000Y-55152560D01*
X123909913Y-55178919D01*
X123876309Y-55165000D01*
X123783750Y-55165000D01*
X123638616Y-55310134D01*
X123598559Y-55335910D01*
X123453569Y-55548110D01*
X123402560Y-55800000D01*
X123402560Y-57200000D01*
X123446838Y-57435317D01*
X123540000Y-57580095D01*
X123540000Y-57613589D01*
X123597852Y-57904428D01*
X123762599Y-58150990D01*
X123790011Y-58178402D01*
X123790011Y-58381539D01*
X123751330Y-58355109D01*
X123535846Y-58311472D01*
X123437401Y-58164139D01*
X123097352Y-57824090D01*
X123123691Y-57835000D01*
X123216250Y-57835000D01*
X123375000Y-57676250D01*
X123375000Y-56627000D01*
X122773750Y-56627000D01*
X122615000Y-56785750D01*
X122615000Y-57326310D01*
X122625909Y-57352647D01*
X122562061Y-57288799D01*
X122315499Y-57124052D01*
X122024660Y-57066200D01*
X121206000Y-57066200D01*
X120694525Y-56554725D01*
X120773000Y-56476250D01*
X120773000Y-54227000D01*
X121027000Y-54227000D01*
X121027000Y-56476250D01*
X121185750Y-56635000D01*
X122276309Y-56635000D01*
X122509698Y-56538327D01*
X122688327Y-56359699D01*
X122709451Y-56308701D01*
X122773750Y-56373000D01*
X123375000Y-56373000D01*
X123375000Y-55323750D01*
X123216250Y-55165000D01*
X123123691Y-55165000D01*
X122890302Y-55261673D01*
X122785000Y-55366974D01*
X122785000Y-54385750D01*
X122626250Y-54227000D01*
X121027000Y-54227000D01*
X120773000Y-54227000D01*
X120753000Y-54227000D01*
X120753000Y-53973000D01*
X120773000Y-53973000D01*
X120773000Y-51723750D01*
X121027000Y-51723750D01*
X121027000Y-53973000D01*
X122626250Y-53973000D01*
X122785000Y-53814250D01*
X122785000Y-52073690D01*
X127415000Y-52073690D01*
X127415000Y-53814250D01*
X127573750Y-53973000D01*
X129173000Y-53973000D01*
X129173000Y-51723750D01*
X129427000Y-51723750D01*
X129427000Y-53973000D01*
X131026250Y-53973000D01*
X131185000Y-53814250D01*
X131185000Y-52073690D01*
X131088327Y-51840301D01*
X130909698Y-51661673D01*
X130676309Y-51565000D01*
X129585750Y-51565000D01*
X129427000Y-51723750D01*
X129173000Y-51723750D01*
X129014250Y-51565000D01*
X127923691Y-51565000D01*
X127690302Y-51661673D01*
X127511673Y-51840301D01*
X127415000Y-52073690D01*
X122785000Y-52073690D01*
X122688327Y-51840301D01*
X122509698Y-51661673D01*
X122276309Y-51565000D01*
X121185750Y-51565000D01*
X121027000Y-51723750D01*
X120773000Y-51723750D01*
X120614250Y-51565000D01*
X119523691Y-51565000D01*
X119290302Y-51661673D01*
X119236988Y-51714986D01*
X118610801Y-51088799D01*
X118364239Y-50924052D01*
X118073400Y-50866200D01*
X105451400Y-50866200D01*
X105160561Y-50924052D01*
X104913999Y-51088799D01*
X104135999Y-51866799D01*
X104042480Y-52006760D01*
X103911400Y-52006760D01*
X103676083Y-52051038D01*
X103459959Y-52190110D01*
X103314969Y-52402310D01*
X103263960Y-52654200D01*
X101493354Y-52654200D01*
X101958323Y-51958324D01*
X103353856Y-51025858D01*
X105067467Y-50685000D01*
X144932533Y-50685000D01*
X146646142Y-51025858D01*
G36*
X136404310Y-90777641D02*
X136616510Y-90922631D01*
X136753520Y-90950376D01*
X136633083Y-90973038D01*
X136416959Y-91112110D01*
X136344544Y-91218094D01*
X136204650Y-91078200D01*
X136124349Y-91078200D01*
X135980290Y-90979769D01*
X135843280Y-90952024D01*
X135963717Y-90929362D01*
X136127143Y-90824200D01*
X136204650Y-90824200D01*
X136344365Y-90684485D01*
X136404310Y-90777641D01*
X136404310Y-90777641D01*
G37*
X136404310Y-90777641D02*
X136616510Y-90922631D01*
X136753520Y-90950376D01*
X136633083Y-90973038D01*
X136416959Y-91112110D01*
X136344544Y-91218094D01*
X136204650Y-91078200D01*
X136124349Y-91078200D01*
X135980290Y-90979769D01*
X135843280Y-90952024D01*
X135963717Y-90929362D01*
X136127143Y-90824200D01*
X136204650Y-90824200D01*
X136344365Y-90684485D01*
X136404310Y-90777641D01*
G36*
X130025000Y-81647440D02*
X130275000Y-81647440D01*
X130380705Y-81627550D01*
X130390000Y-81631400D01*
X130390000Y-82777796D01*
X130447852Y-83068635D01*
X130612599Y-83315197D01*
X133435512Y-86138110D01*
X133682074Y-86302857D01*
X133972913Y-86360709D01*
X134627903Y-86360709D01*
X134743607Y-86337693D01*
X134749000Y-86336621D01*
X134509106Y-86496912D01*
X134509104Y-86496915D01*
X130414818Y-90591200D01*
X124764979Y-90591200D01*
X124409989Y-90236209D01*
X124409989Y-86552475D01*
X124559161Y-86652148D01*
X124828000Y-86705624D01*
X124828000Y-87008657D01*
X124819059Y-87014410D01*
X124674069Y-87226610D01*
X124623060Y-87478500D01*
X124623060Y-88621500D01*
X124667338Y-88856817D01*
X124806410Y-89072941D01*
X125018610Y-89217931D01*
X125270500Y-89268940D01*
X125905500Y-89268940D01*
X126140817Y-89224662D01*
X126356941Y-89085590D01*
X126358412Y-89083437D01*
X126434802Y-89159827D01*
X126668191Y-89256500D01*
X126826250Y-89256500D01*
X126985000Y-89097750D01*
X126985000Y-88335750D01*
X127135500Y-88335750D01*
X127135500Y-88747810D01*
X127232173Y-88981199D01*
X127239000Y-88988026D01*
X127239000Y-89097750D01*
X127397750Y-89256500D01*
X127555809Y-89256500D01*
X127600000Y-89238195D01*
X127644191Y-89256500D01*
X127802250Y-89256500D01*
X127961000Y-89097750D01*
X127961000Y-88988026D01*
X127967827Y-88981199D01*
X128064500Y-88747810D01*
X128064500Y-88335750D01*
X127961000Y-88232250D01*
X127961000Y-88177000D01*
X127239000Y-88177000D01*
X127239000Y-88232250D01*
X127135500Y-88335750D01*
X126985000Y-88335750D01*
X126985000Y-88177000D01*
X126965000Y-88177000D01*
X126965000Y-87923000D01*
X126985000Y-87923000D01*
X126985000Y-87903000D01*
X127239000Y-87903000D01*
X127239000Y-87923000D01*
X127961000Y-87923000D01*
X127961000Y-87903000D01*
X128215000Y-87903000D01*
X128215000Y-87923000D01*
X128235000Y-87923000D01*
X128235000Y-88177000D01*
X128215000Y-88177000D01*
X128215000Y-89097750D01*
X128373750Y-89256500D01*
X128531809Y-89256500D01*
X128765198Y-89159827D01*
X128843286Y-89081739D01*
X129042610Y-89217931D01*
X129294500Y-89268940D01*
X129929500Y-89268940D01*
X130164817Y-89224662D01*
X130380941Y-89085590D01*
X130525931Y-88873390D01*
X130576940Y-88621500D01*
X130576940Y-87478500D01*
X130532662Y-87243183D01*
X130393590Y-87027059D01*
X130372000Y-87012307D01*
X130372000Y-86612000D01*
X130362293Y-86563201D01*
X130314148Y-86321160D01*
X130149401Y-86074599D01*
X129997440Y-85922638D01*
X129997440Y-85000000D01*
X129953162Y-84764683D01*
X129814090Y-84548559D01*
X129601890Y-84403569D01*
X129522153Y-84387422D01*
X129546431Y-84351890D01*
X129597440Y-84100000D01*
X129597440Y-82200000D01*
X129553162Y-81964683D01*
X129414090Y-81748559D01*
X129266097Y-81647440D01*
X129275000Y-81647440D01*
X129404589Y-81623056D01*
X129525000Y-81647440D01*
X129775000Y-81647440D01*
X129904589Y-81623056D01*
X130025000Y-81647440D01*
X130025000Y-81647440D01*
G37*
X130025000Y-81647440D02*
X130275000Y-81647440D01*
X130380705Y-81627550D01*
X130390000Y-81631400D01*
X130390000Y-82777796D01*
X130447852Y-83068635D01*
X130612599Y-83315197D01*
X133435512Y-86138110D01*
X133682074Y-86302857D01*
X133972913Y-86360709D01*
X134627903Y-86360709D01*
X134743607Y-86337693D01*
X134749000Y-86336621D01*
X134509106Y-86496912D01*
X134509104Y-86496915D01*
X130414818Y-90591200D01*
X124764979Y-90591200D01*
X124409989Y-90236209D01*
X124409989Y-86552475D01*
X124559161Y-86652148D01*
X124828000Y-86705624D01*
X124828000Y-87008657D01*
X124819059Y-87014410D01*
X124674069Y-87226610D01*
X124623060Y-87478500D01*
X124623060Y-88621500D01*
X124667338Y-88856817D01*
X124806410Y-89072941D01*
X125018610Y-89217931D01*
X125270500Y-89268940D01*
X125905500Y-89268940D01*
X126140817Y-89224662D01*
X126356941Y-89085590D01*
X126358412Y-89083437D01*
X126434802Y-89159827D01*
X126668191Y-89256500D01*
X126826250Y-89256500D01*
X126985000Y-89097750D01*
X126985000Y-88335750D01*
X127135500Y-88335750D01*
X127135500Y-88747810D01*
X127232173Y-88981199D01*
X127239000Y-88988026D01*
X127239000Y-89097750D01*
X127397750Y-89256500D01*
X127555809Y-89256500D01*
X127600000Y-89238195D01*
X127644191Y-89256500D01*
X127802250Y-89256500D01*
X127961000Y-89097750D01*
X127961000Y-88988026D01*
X127967827Y-88981199D01*
X128064500Y-88747810D01*
X128064500Y-88335750D01*
X127961000Y-88232250D01*
X127961000Y-88177000D01*
X127239000Y-88177000D01*
X127239000Y-88232250D01*
X127135500Y-88335750D01*
X126985000Y-88335750D01*
X126985000Y-88177000D01*
X126965000Y-88177000D01*
X126965000Y-87923000D01*
X126985000Y-87923000D01*
X126985000Y-87903000D01*
X127239000Y-87903000D01*
X127239000Y-87923000D01*
X127961000Y-87923000D01*
X127961000Y-87903000D01*
X128215000Y-87903000D01*
X128215000Y-87923000D01*
X128235000Y-87923000D01*
X128235000Y-88177000D01*
X128215000Y-88177000D01*
X128215000Y-89097750D01*
X128373750Y-89256500D01*
X128531809Y-89256500D01*
X128765198Y-89159827D01*
X128843286Y-89081739D01*
X129042610Y-89217931D01*
X129294500Y-89268940D01*
X129929500Y-89268940D01*
X130164817Y-89224662D01*
X130380941Y-89085590D01*
X130525931Y-88873390D01*
X130576940Y-88621500D01*
X130576940Y-87478500D01*
X130532662Y-87243183D01*
X130393590Y-87027059D01*
X130372000Y-87012307D01*
X130372000Y-86612000D01*
X130362293Y-86563201D01*
X130314148Y-86321160D01*
X130149401Y-86074599D01*
X129997440Y-85922638D01*
X129997440Y-85000000D01*
X129953162Y-84764683D01*
X129814090Y-84548559D01*
X129601890Y-84403569D01*
X129522153Y-84387422D01*
X129546431Y-84351890D01*
X129597440Y-84100000D01*
X129597440Y-82200000D01*
X129553162Y-81964683D01*
X129414090Y-81748559D01*
X129266097Y-81647440D01*
X129275000Y-81647440D01*
X129404589Y-81623056D01*
X129525000Y-81647440D01*
X129775000Y-81647440D01*
X129904589Y-81623056D01*
X130025000Y-81647440D01*
G36*
X115726400Y-86251979D02*
X115726400Y-89988081D01*
X115620300Y-90094180D01*
X115620300Y-89502600D01*
X115593648Y-89360959D01*
X115607860Y-89326649D01*
X115607860Y-89087310D01*
X115449110Y-88928560D01*
X115257520Y-88928560D01*
X115224750Y-88906169D01*
X114972860Y-88855160D01*
X113474260Y-88855160D01*
X113238943Y-88899438D01*
X113193686Y-88928560D01*
X112998010Y-88928560D01*
X112839260Y-89087310D01*
X112839260Y-89141380D01*
X110775118Y-89141380D01*
X110775162Y-89090533D01*
X110633117Y-88746757D01*
X110370327Y-88483508D01*
X110300001Y-88454306D01*
X110300001Y-88209067D01*
X110330075Y-88239141D01*
X110576637Y-88403888D01*
X110867476Y-88461740D01*
X112839260Y-88461740D01*
X112839260Y-88515810D01*
X112998010Y-88674560D01*
X113189600Y-88674560D01*
X113222370Y-88696951D01*
X113474260Y-88747960D01*
X114972860Y-88747960D01*
X115208177Y-88703682D01*
X115253434Y-88674560D01*
X115449110Y-88674560D01*
X115607860Y-88515810D01*
X115607860Y-88276471D01*
X115592284Y-88238867D01*
X115620300Y-88100520D01*
X115620300Y-87302960D01*
X115590819Y-87146282D01*
X115620300Y-87000700D01*
X115620300Y-86203140D01*
X115607028Y-86132608D01*
X115726400Y-86251979D01*
X115726400Y-86251979D01*
G37*
X115726400Y-86251979D02*
X115726400Y-89988081D01*
X115620300Y-90094180D01*
X115620300Y-89502600D01*
X115593648Y-89360959D01*
X115607860Y-89326649D01*
X115607860Y-89087310D01*
X115449110Y-88928560D01*
X115257520Y-88928560D01*
X115224750Y-88906169D01*
X114972860Y-88855160D01*
X113474260Y-88855160D01*
X113238943Y-88899438D01*
X113193686Y-88928560D01*
X112998010Y-88928560D01*
X112839260Y-89087310D01*
X112839260Y-89141380D01*
X110775118Y-89141380D01*
X110775162Y-89090533D01*
X110633117Y-88746757D01*
X110370327Y-88483508D01*
X110300001Y-88454306D01*
X110300001Y-88209067D01*
X110330075Y-88239141D01*
X110576637Y-88403888D01*
X110867476Y-88461740D01*
X112839260Y-88461740D01*
X112839260Y-88515810D01*
X112998010Y-88674560D01*
X113189600Y-88674560D01*
X113222370Y-88696951D01*
X113474260Y-88747960D01*
X114972860Y-88747960D01*
X115208177Y-88703682D01*
X115253434Y-88674560D01*
X115449110Y-88674560D01*
X115607860Y-88515810D01*
X115607860Y-88276471D01*
X115592284Y-88238867D01*
X115620300Y-88100520D01*
X115620300Y-87302960D01*
X115590819Y-87146282D01*
X115620300Y-87000700D01*
X115620300Y-86203140D01*
X115607028Y-86132608D01*
X115726400Y-86251979D01*
G36*
X136001500Y-84891940D02*
X136633258Y-84891940D01*
X136235999Y-85289199D01*
X136135666Y-85439359D01*
X135337322Y-86237702D01*
X135134901Y-86237702D01*
X135134896Y-86237701D01*
X134965961Y-86271305D01*
X135067977Y-86203140D01*
X135165302Y-86138110D01*
X135165303Y-86138109D01*
X135599402Y-85704008D01*
X135668912Y-85599978D01*
X135764148Y-85457447D01*
X135822000Y-85166608D01*
X135822000Y-84855590D01*
X136001500Y-84891940D01*
X136001500Y-84891940D01*
G37*
X136001500Y-84891940D02*
X136633258Y-84891940D01*
X136235999Y-85289199D01*
X136135666Y-85439359D01*
X135337322Y-86237702D01*
X135134901Y-86237702D01*
X135134896Y-86237701D01*
X134965961Y-86271305D01*
X135067977Y-86203140D01*
X135165302Y-86138110D01*
X135165303Y-86138109D01*
X135599402Y-85704008D01*
X135668912Y-85599978D01*
X135764148Y-85457447D01*
X135822000Y-85166608D01*
X135822000Y-84855590D01*
X136001500Y-84891940D01*
G36*
X136827000Y-78435000D02*
X136847000Y-78435000D01*
X136847000Y-78689000D01*
X136827000Y-78689000D01*
X136827000Y-79355750D01*
X136985750Y-79514500D01*
X137397810Y-79514500D01*
X137631199Y-79417827D01*
X137655000Y-79394026D01*
X137655000Y-80857219D01*
X137650390Y-80854069D01*
X137398500Y-80803060D01*
X136001500Y-80803060D01*
X135766183Y-80847338D01*
X135550059Y-80986410D01*
X135532539Y-81012051D01*
X135379500Y-80981060D01*
X134744500Y-80981060D01*
X134509183Y-81025338D01*
X134293059Y-81164410D01*
X134291588Y-81166563D01*
X134215198Y-81090173D01*
X133981809Y-80993500D01*
X133823750Y-80993500D01*
X133665000Y-81152250D01*
X133665000Y-82073000D01*
X133685000Y-82073000D01*
X133685000Y-82327000D01*
X133665000Y-82327000D01*
X133665000Y-83573000D01*
X133685000Y-83573000D01*
X133685000Y-83827000D01*
X133665000Y-83827000D01*
X133665000Y-83847000D01*
X133411000Y-83847000D01*
X133411000Y-83827000D01*
X133391000Y-83827000D01*
X133391000Y-83573000D01*
X133411000Y-83573000D01*
X133411000Y-82327000D01*
X132744250Y-82327000D01*
X132585500Y-82485750D01*
X132585500Y-82897810D01*
X132607118Y-82950000D01*
X132585500Y-83002190D01*
X132585500Y-83138494D01*
X131910000Y-82462994D01*
X131910000Y-81624152D01*
X132025000Y-81647440D01*
X132275000Y-81647440D01*
X132404589Y-81623056D01*
X132525000Y-81647440D01*
X132585500Y-81647440D01*
X132585500Y-81914250D01*
X132744250Y-82073000D01*
X133411000Y-82073000D01*
X133411000Y-81152250D01*
X133394874Y-81136124D01*
X133422440Y-81000000D01*
X133422440Y-80052362D01*
X133526396Y-79948406D01*
X133691143Y-79701845D01*
X133748995Y-79411005D01*
X133748995Y-79289909D01*
X133850000Y-79310000D01*
X134038569Y-79310000D01*
X134100000Y-79322440D01*
X135100000Y-79322440D01*
X135335317Y-79278162D01*
X135549282Y-79140479D01*
X135590173Y-79239198D01*
X135768801Y-79417827D01*
X136002190Y-79514500D01*
X136414250Y-79514500D01*
X136573000Y-79355750D01*
X136573000Y-78689000D01*
X136553000Y-78689000D01*
X136553000Y-78435000D01*
X136573000Y-78435000D01*
X136573000Y-78415000D01*
X136827000Y-78415000D01*
X136827000Y-78435000D01*
X136827000Y-78435000D01*
G37*
X136827000Y-78435000D02*
X136847000Y-78435000D01*
X136847000Y-78689000D01*
X136827000Y-78689000D01*
X136827000Y-79355750D01*
X136985750Y-79514500D01*
X137397810Y-79514500D01*
X137631199Y-79417827D01*
X137655000Y-79394026D01*
X137655000Y-80857219D01*
X137650390Y-80854069D01*
X137398500Y-80803060D01*
X136001500Y-80803060D01*
X135766183Y-80847338D01*
X135550059Y-80986410D01*
X135532539Y-81012051D01*
X135379500Y-80981060D01*
X134744500Y-80981060D01*
X134509183Y-81025338D01*
X134293059Y-81164410D01*
X134291588Y-81166563D01*
X134215198Y-81090173D01*
X133981809Y-80993500D01*
X133823750Y-80993500D01*
X133665000Y-81152250D01*
X133665000Y-82073000D01*
X133685000Y-82073000D01*
X133685000Y-82327000D01*
X133665000Y-82327000D01*
X133665000Y-83573000D01*
X133685000Y-83573000D01*
X133685000Y-83827000D01*
X133665000Y-83827000D01*
X133665000Y-83847000D01*
X133411000Y-83847000D01*
X133411000Y-83827000D01*
X133391000Y-83827000D01*
X133391000Y-83573000D01*
X133411000Y-83573000D01*
X133411000Y-82327000D01*
X132744250Y-82327000D01*
X132585500Y-82485750D01*
X132585500Y-82897810D01*
X132607118Y-82950000D01*
X132585500Y-83002190D01*
X132585500Y-83138494D01*
X131910000Y-82462994D01*
X131910000Y-81624152D01*
X132025000Y-81647440D01*
X132275000Y-81647440D01*
X132404589Y-81623056D01*
X132525000Y-81647440D01*
X132585500Y-81647440D01*
X132585500Y-81914250D01*
X132744250Y-82073000D01*
X133411000Y-82073000D01*
X133411000Y-81152250D01*
X133394874Y-81136124D01*
X133422440Y-81000000D01*
X133422440Y-80052362D01*
X133526396Y-79948406D01*
X133691143Y-79701845D01*
X133748995Y-79411005D01*
X133748995Y-79289909D01*
X133850000Y-79310000D01*
X134038569Y-79310000D01*
X134100000Y-79322440D01*
X135100000Y-79322440D01*
X135335317Y-79278162D01*
X135549282Y-79140479D01*
X135590173Y-79239198D01*
X135768801Y-79417827D01*
X136002190Y-79514500D01*
X136414250Y-79514500D01*
X136573000Y-79355750D01*
X136573000Y-78689000D01*
X136553000Y-78689000D01*
X136553000Y-78435000D01*
X136573000Y-78435000D01*
X136573000Y-78415000D01*
X136827000Y-78415000D01*
X136827000Y-78435000D01*
G36*
X127650000Y-83023000D02*
X127697000Y-83023000D01*
X127697000Y-83277000D01*
X127650000Y-83277000D01*
X127650000Y-83297000D01*
X127450000Y-83297000D01*
X127450000Y-83277000D01*
X127403000Y-83277000D01*
X127403000Y-83023000D01*
X127450000Y-83023000D01*
X127450000Y-83003000D01*
X127650000Y-83003000D01*
X127650000Y-83023000D01*
X127650000Y-83023000D01*
G37*
X127650000Y-83023000D02*
X127697000Y-83023000D01*
X127697000Y-83277000D01*
X127650000Y-83277000D01*
X127650000Y-83297000D01*
X127450000Y-83297000D01*
X127450000Y-83277000D01*
X127403000Y-83277000D01*
X127403000Y-83023000D01*
X127450000Y-83023000D01*
X127450000Y-83003000D01*
X127650000Y-83003000D01*
X127650000Y-83023000D01*
G36*
X113570931Y-75861474D02*
X113961072Y-76252296D01*
X114471076Y-76464069D01*
X115023301Y-76464551D01*
X115533674Y-76253669D01*
X115924496Y-75863528D01*
X115998320Y-75685741D01*
X116070931Y-75861474D01*
X116461072Y-76252296D01*
X116971076Y-76464069D01*
X117523301Y-76464551D01*
X118033674Y-76253669D01*
X118424496Y-75863528D01*
X118438543Y-75829700D01*
X118983929Y-75829700D01*
X118992738Y-75876517D01*
X119131810Y-76092641D01*
X119344010Y-76237631D01*
X119595900Y-76288640D01*
X120162335Y-76288640D01*
X120090173Y-76360802D01*
X119993500Y-76594191D01*
X119993500Y-76752250D01*
X120152250Y-76911000D01*
X121073000Y-76911000D01*
X121073000Y-76891000D01*
X121327000Y-76891000D01*
X121327000Y-76911000D01*
X121347000Y-76911000D01*
X121347000Y-77165000D01*
X121327000Y-77165000D01*
X121327000Y-77185000D01*
X121073000Y-77185000D01*
X121073000Y-77165000D01*
X120152250Y-77165000D01*
X119993500Y-77323750D01*
X119993500Y-77481809D01*
X120090173Y-77715198D01*
X120168261Y-77793286D01*
X120128302Y-77851768D01*
X120087661Y-77859852D01*
X119841099Y-78024599D01*
X118587601Y-79278097D01*
X118422854Y-79524659D01*
X118365002Y-79815498D01*
X118365002Y-79994935D01*
X118017046Y-79646979D01*
X118194327Y-79469698D01*
X118291000Y-79236309D01*
X118291000Y-78633750D01*
X118132250Y-78475000D01*
X116767000Y-78475000D01*
X116767000Y-78495000D01*
X116513000Y-78495000D01*
X116513000Y-78475000D01*
X115147750Y-78475000D01*
X115139000Y-78483750D01*
X115132250Y-78477000D01*
X113767000Y-78477000D01*
X113767000Y-78497000D01*
X113513000Y-78497000D01*
X113513000Y-78477000D01*
X113493000Y-78477000D01*
X113493000Y-78223000D01*
X113513000Y-78223000D01*
X113513000Y-77111750D01*
X113767000Y-77111750D01*
X113767000Y-78223000D01*
X115132250Y-78223000D01*
X115141000Y-78214250D01*
X115147750Y-78221000D01*
X116513000Y-78221000D01*
X116513000Y-77109750D01*
X116767000Y-77109750D01*
X116767000Y-78221000D01*
X118132250Y-78221000D01*
X118291000Y-78062250D01*
X118291000Y-77459691D01*
X118194327Y-77226302D01*
X118015699Y-77047673D01*
X117782310Y-76951000D01*
X116925750Y-76951000D01*
X116767000Y-77109750D01*
X116513000Y-77109750D01*
X116354250Y-76951000D01*
X115497690Y-76951000D01*
X115264301Y-77047673D01*
X115139000Y-77172975D01*
X115015699Y-77049673D01*
X114782310Y-76953000D01*
X113925750Y-76953000D01*
X113767000Y-77111750D01*
X113513000Y-77111750D01*
X113354250Y-76953000D01*
X112960000Y-76953000D01*
X112960000Y-76267583D01*
X112993674Y-76253669D01*
X113384496Y-75863528D01*
X113478369Y-75637457D01*
X113570931Y-75861474D01*
X113570931Y-75861474D01*
G37*
X113570931Y-75861474D02*
X113961072Y-76252296D01*
X114471076Y-76464069D01*
X115023301Y-76464551D01*
X115533674Y-76253669D01*
X115924496Y-75863528D01*
X115998320Y-75685741D01*
X116070931Y-75861474D01*
X116461072Y-76252296D01*
X116971076Y-76464069D01*
X117523301Y-76464551D01*
X118033674Y-76253669D01*
X118424496Y-75863528D01*
X118438543Y-75829700D01*
X118983929Y-75829700D01*
X118992738Y-75876517D01*
X119131810Y-76092641D01*
X119344010Y-76237631D01*
X119595900Y-76288640D01*
X120162335Y-76288640D01*
X120090173Y-76360802D01*
X119993500Y-76594191D01*
X119993500Y-76752250D01*
X120152250Y-76911000D01*
X121073000Y-76911000D01*
X121073000Y-76891000D01*
X121327000Y-76891000D01*
X121327000Y-76911000D01*
X121347000Y-76911000D01*
X121347000Y-77165000D01*
X121327000Y-77165000D01*
X121327000Y-77185000D01*
X121073000Y-77185000D01*
X121073000Y-77165000D01*
X120152250Y-77165000D01*
X119993500Y-77323750D01*
X119993500Y-77481809D01*
X120090173Y-77715198D01*
X120168261Y-77793286D01*
X120128302Y-77851768D01*
X120087661Y-77859852D01*
X119841099Y-78024599D01*
X118587601Y-79278097D01*
X118422854Y-79524659D01*
X118365002Y-79815498D01*
X118365002Y-79994935D01*
X118017046Y-79646979D01*
X118194327Y-79469698D01*
X118291000Y-79236309D01*
X118291000Y-78633750D01*
X118132250Y-78475000D01*
X116767000Y-78475000D01*
X116767000Y-78495000D01*
X116513000Y-78495000D01*
X116513000Y-78475000D01*
X115147750Y-78475000D01*
X115139000Y-78483750D01*
X115132250Y-78477000D01*
X113767000Y-78477000D01*
X113767000Y-78497000D01*
X113513000Y-78497000D01*
X113513000Y-78477000D01*
X113493000Y-78477000D01*
X113493000Y-78223000D01*
X113513000Y-78223000D01*
X113513000Y-77111750D01*
X113767000Y-77111750D01*
X113767000Y-78223000D01*
X115132250Y-78223000D01*
X115141000Y-78214250D01*
X115147750Y-78221000D01*
X116513000Y-78221000D01*
X116513000Y-77109750D01*
X116767000Y-77109750D01*
X116767000Y-78221000D01*
X118132250Y-78221000D01*
X118291000Y-78062250D01*
X118291000Y-77459691D01*
X118194327Y-77226302D01*
X118015699Y-77047673D01*
X117782310Y-76951000D01*
X116925750Y-76951000D01*
X116767000Y-77109750D01*
X116513000Y-77109750D01*
X116354250Y-76951000D01*
X115497690Y-76951000D01*
X115264301Y-77047673D01*
X115139000Y-77172975D01*
X115015699Y-77049673D01*
X114782310Y-76953000D01*
X113925750Y-76953000D01*
X113767000Y-77111750D01*
X113513000Y-77111750D01*
X113354250Y-76953000D01*
X112960000Y-76953000D01*
X112960000Y-76267583D01*
X112993674Y-76253669D01*
X113384496Y-75863528D01*
X113478369Y-75637457D01*
X113570931Y-75861474D01*
G36*
X121439400Y-75216700D02*
X121310400Y-75216700D01*
X121310400Y-75196700D01*
X121290400Y-75196700D01*
X121290400Y-74942700D01*
X121310400Y-74942700D01*
X121310400Y-74922700D01*
X121439400Y-74922700D01*
X121439400Y-75216700D01*
X121439400Y-75216700D01*
G37*
X121439400Y-75216700D02*
X121310400Y-75216700D01*
X121310400Y-75196700D01*
X121290400Y-75196700D01*
X121290400Y-74942700D01*
X121310400Y-74942700D01*
X121310400Y-74922700D01*
X121439400Y-74922700D01*
X121439400Y-75216700D01*
G36*
X134955560Y-67211639D02*
X134955560Y-67598500D01*
X134999838Y-67833817D01*
X135138910Y-68049941D01*
X135162500Y-68066059D01*
X135162500Y-68671495D01*
X135162499Y-68671500D01*
X135207743Y-68898953D01*
X135211060Y-68915626D01*
X135211060Y-69371500D01*
X135255338Y-69606817D01*
X135255805Y-69607543D01*
X135211060Y-69828500D01*
X135211060Y-70290000D01*
X135161431Y-70290000D01*
X135100000Y-70277560D01*
X134100000Y-70277560D01*
X133864683Y-70321838D01*
X133648559Y-70460910D01*
X133503569Y-70673110D01*
X133474024Y-70819009D01*
X133410000Y-70806273D01*
X133410000Y-69661431D01*
X133422440Y-69600000D01*
X133422440Y-68600000D01*
X133378162Y-68364683D01*
X133239090Y-68148559D01*
X133026890Y-68003569D01*
X132775000Y-67952560D01*
X132525000Y-67952560D01*
X132395411Y-67976944D01*
X132275000Y-67952560D01*
X132025000Y-67952560D01*
X131895411Y-67976944D01*
X131775000Y-67952560D01*
X131525000Y-67952560D01*
X131395411Y-67976944D01*
X131275000Y-67952560D01*
X131025000Y-67952560D01*
X130895411Y-67976944D01*
X130775000Y-67952560D01*
X130525000Y-67952560D01*
X130395411Y-67976944D01*
X130275000Y-67952560D01*
X130025000Y-67952560D01*
X129895411Y-67976944D01*
X129775000Y-67952560D01*
X129525000Y-67952560D01*
X129395411Y-67976944D01*
X129275000Y-67952560D01*
X129031066Y-67952560D01*
X129577401Y-67406225D01*
X129742148Y-67159663D01*
X129800000Y-66868824D01*
X129800000Y-66412463D01*
X129832192Y-66380327D01*
X129974838Y-66036799D01*
X129975144Y-65685000D01*
X130999995Y-65685000D01*
X131000000Y-65685001D01*
X131282484Y-65628810D01*
X131338675Y-65617633D01*
X131625790Y-65425790D01*
X132397750Y-64653830D01*
X134955560Y-67211639D01*
X134955560Y-67211639D01*
G37*
X134955560Y-67211639D02*
X134955560Y-67598500D01*
X134999838Y-67833817D01*
X135138910Y-68049941D01*
X135162500Y-68066059D01*
X135162500Y-68671495D01*
X135162499Y-68671500D01*
X135207743Y-68898953D01*
X135211060Y-68915626D01*
X135211060Y-69371500D01*
X135255338Y-69606817D01*
X135255805Y-69607543D01*
X135211060Y-69828500D01*
X135211060Y-70290000D01*
X135161431Y-70290000D01*
X135100000Y-70277560D01*
X134100000Y-70277560D01*
X133864683Y-70321838D01*
X133648559Y-70460910D01*
X133503569Y-70673110D01*
X133474024Y-70819009D01*
X133410000Y-70806273D01*
X133410000Y-69661431D01*
X133422440Y-69600000D01*
X133422440Y-68600000D01*
X133378162Y-68364683D01*
X133239090Y-68148559D01*
X133026890Y-68003569D01*
X132775000Y-67952560D01*
X132525000Y-67952560D01*
X132395411Y-67976944D01*
X132275000Y-67952560D01*
X132025000Y-67952560D01*
X131895411Y-67976944D01*
X131775000Y-67952560D01*
X131525000Y-67952560D01*
X131395411Y-67976944D01*
X131275000Y-67952560D01*
X131025000Y-67952560D01*
X130895411Y-67976944D01*
X130775000Y-67952560D01*
X130525000Y-67952560D01*
X130395411Y-67976944D01*
X130275000Y-67952560D01*
X130025000Y-67952560D01*
X129895411Y-67976944D01*
X129775000Y-67952560D01*
X129525000Y-67952560D01*
X129395411Y-67976944D01*
X129275000Y-67952560D01*
X129031066Y-67952560D01*
X129577401Y-67406225D01*
X129742148Y-67159663D01*
X129800000Y-66868824D01*
X129800000Y-66412463D01*
X129832192Y-66380327D01*
X129974838Y-66036799D01*
X129975144Y-65685000D01*
X130999995Y-65685000D01*
X131000000Y-65685001D01*
X131282484Y-65628810D01*
X131338675Y-65617633D01*
X131625790Y-65425790D01*
X132397750Y-64653830D01*
X134955560Y-67211639D01*
G36*
X118513400Y-56208402D02*
X118571252Y-56499241D01*
X118735999Y-56745803D01*
X120320496Y-58330300D01*
X120073960Y-58330300D01*
X119838643Y-58374578D01*
X119768815Y-58419511D01*
X119460199Y-58291362D01*
X119088233Y-58291038D01*
X118744457Y-58433083D01*
X118481208Y-58695873D01*
X118338562Y-59039401D01*
X118338238Y-59411367D01*
X118480283Y-59755143D01*
X118743073Y-60018392D01*
X119086601Y-60161038D01*
X119426520Y-60161334D01*
X119426520Y-60176620D01*
X119470798Y-60411937D01*
X119609870Y-60628061D01*
X119610867Y-60628743D01*
X119477529Y-60823890D01*
X119426520Y-61075780D01*
X119426520Y-62274660D01*
X119470798Y-62509977D01*
X119494834Y-62547329D01*
X119454460Y-62746700D01*
X119454460Y-63381700D01*
X119498738Y-63617017D01*
X119637810Y-63833141D01*
X119639963Y-63834612D01*
X119563573Y-63911002D01*
X119466900Y-64144391D01*
X119466900Y-64302450D01*
X119625650Y-64461200D01*
X120546400Y-64461200D01*
X120546400Y-64441200D01*
X120800400Y-64441200D01*
X120800400Y-64461200D01*
X120820400Y-64461200D01*
X120820400Y-64715200D01*
X120800400Y-64715200D01*
X120800400Y-65381950D01*
X120959150Y-65540700D01*
X121002747Y-65540700D01*
X121002747Y-67585198D01*
X120371745Y-68216200D01*
X118613202Y-68216200D01*
X116833400Y-66436398D01*
X116833400Y-66163640D01*
X117548400Y-66163640D01*
X117783717Y-66119362D01*
X117999841Y-65980290D01*
X118144831Y-65768090D01*
X118195840Y-65516200D01*
X118195840Y-64873950D01*
X119466900Y-64873950D01*
X119466900Y-65032009D01*
X119563573Y-65265398D01*
X119742201Y-65444027D01*
X119975590Y-65540700D01*
X120387650Y-65540700D01*
X120546400Y-65381950D01*
X120546400Y-64715200D01*
X119625650Y-64715200D01*
X119466900Y-64873950D01*
X118195840Y-64873950D01*
X118195840Y-64816200D01*
X118151562Y-64580883D01*
X118118421Y-64529381D01*
X118183400Y-64372509D01*
X118183400Y-64181950D01*
X118024650Y-64023200D01*
X116200400Y-64023200D01*
X116200400Y-64043200D01*
X115946400Y-64043200D01*
X115946400Y-64023200D01*
X115926400Y-64023200D01*
X115926400Y-63769200D01*
X115946400Y-63769200D01*
X115946400Y-62753200D01*
X116200400Y-62753200D01*
X116200400Y-63769200D01*
X118024650Y-63769200D01*
X118183400Y-63610450D01*
X118183400Y-63419891D01*
X118117668Y-63261200D01*
X118183400Y-63102509D01*
X118183400Y-62911950D01*
X118024650Y-62753200D01*
X116200400Y-62753200D01*
X115946400Y-62753200D01*
X115926400Y-62753200D01*
X115926400Y-62499200D01*
X115946400Y-62499200D01*
X115946400Y-62479200D01*
X116200400Y-62479200D01*
X116200400Y-62499200D01*
X118024650Y-62499200D01*
X118183400Y-62340450D01*
X118183400Y-62149891D01*
X118119381Y-61995337D01*
X118144831Y-61958090D01*
X118195840Y-61706200D01*
X118195840Y-61006200D01*
X118151562Y-60770883D01*
X118118421Y-60719381D01*
X118183400Y-60562509D01*
X118183400Y-60371950D01*
X118024650Y-60213200D01*
X116200400Y-60213200D01*
X116200400Y-60233200D01*
X115946400Y-60233200D01*
X115946400Y-60213200D01*
X115926400Y-60213200D01*
X115926400Y-59959200D01*
X115946400Y-59959200D01*
X115946400Y-59259950D01*
X116200400Y-59259950D01*
X116200400Y-59959200D01*
X118024650Y-59959200D01*
X118183400Y-59800450D01*
X118183400Y-59609891D01*
X118086727Y-59376502D01*
X117908099Y-59197873D01*
X117674710Y-59101200D01*
X116359150Y-59101200D01*
X116200400Y-59259950D01*
X115946400Y-59259950D01*
X115787650Y-59101200D01*
X114948420Y-59101200D01*
X114948420Y-58388663D01*
X114980612Y-58356527D01*
X115123258Y-58012999D01*
X115123582Y-57641033D01*
X114981537Y-57297257D01*
X114774522Y-57089880D01*
X117064019Y-54800383D01*
X117094300Y-54812957D01*
X117650061Y-54813442D01*
X118163703Y-54601210D01*
X118513400Y-54252123D01*
X118513400Y-56208402D01*
X118513400Y-56208402D01*
G37*
X118513400Y-56208402D02*
X118571252Y-56499241D01*
X118735999Y-56745803D01*
X120320496Y-58330300D01*
X120073960Y-58330300D01*
X119838643Y-58374578D01*
X119768815Y-58419511D01*
X119460199Y-58291362D01*
X119088233Y-58291038D01*
X118744457Y-58433083D01*
X118481208Y-58695873D01*
X118338562Y-59039401D01*
X118338238Y-59411367D01*
X118480283Y-59755143D01*
X118743073Y-60018392D01*
X119086601Y-60161038D01*
X119426520Y-60161334D01*
X119426520Y-60176620D01*
X119470798Y-60411937D01*
X119609870Y-60628061D01*
X119610867Y-60628743D01*
X119477529Y-60823890D01*
X119426520Y-61075780D01*
X119426520Y-62274660D01*
X119470798Y-62509977D01*
X119494834Y-62547329D01*
X119454460Y-62746700D01*
X119454460Y-63381700D01*
X119498738Y-63617017D01*
X119637810Y-63833141D01*
X119639963Y-63834612D01*
X119563573Y-63911002D01*
X119466900Y-64144391D01*
X119466900Y-64302450D01*
X119625650Y-64461200D01*
X120546400Y-64461200D01*
X120546400Y-64441200D01*
X120800400Y-64441200D01*
X120800400Y-64461200D01*
X120820400Y-64461200D01*
X120820400Y-64715200D01*
X120800400Y-64715200D01*
X120800400Y-65381950D01*
X120959150Y-65540700D01*
X121002747Y-65540700D01*
X121002747Y-67585198D01*
X120371745Y-68216200D01*
X118613202Y-68216200D01*
X116833400Y-66436398D01*
X116833400Y-66163640D01*
X117548400Y-66163640D01*
X117783717Y-66119362D01*
X117999841Y-65980290D01*
X118144831Y-65768090D01*
X118195840Y-65516200D01*
X118195840Y-64873950D01*
X119466900Y-64873950D01*
X119466900Y-65032009D01*
X119563573Y-65265398D01*
X119742201Y-65444027D01*
X119975590Y-65540700D01*
X120387650Y-65540700D01*
X120546400Y-65381950D01*
X120546400Y-64715200D01*
X119625650Y-64715200D01*
X119466900Y-64873950D01*
X118195840Y-64873950D01*
X118195840Y-64816200D01*
X118151562Y-64580883D01*
X118118421Y-64529381D01*
X118183400Y-64372509D01*
X118183400Y-64181950D01*
X118024650Y-64023200D01*
X116200400Y-64023200D01*
X116200400Y-64043200D01*
X115946400Y-64043200D01*
X115946400Y-64023200D01*
X115926400Y-64023200D01*
X115926400Y-63769200D01*
X115946400Y-63769200D01*
X115946400Y-62753200D01*
X116200400Y-62753200D01*
X116200400Y-63769200D01*
X118024650Y-63769200D01*
X118183400Y-63610450D01*
X118183400Y-63419891D01*
X118117668Y-63261200D01*
X118183400Y-63102509D01*
X118183400Y-62911950D01*
X118024650Y-62753200D01*
X116200400Y-62753200D01*
X115946400Y-62753200D01*
X115926400Y-62753200D01*
X115926400Y-62499200D01*
X115946400Y-62499200D01*
X115946400Y-62479200D01*
X116200400Y-62479200D01*
X116200400Y-62499200D01*
X118024650Y-62499200D01*
X118183400Y-62340450D01*
X118183400Y-62149891D01*
X118119381Y-61995337D01*
X118144831Y-61958090D01*
X118195840Y-61706200D01*
X118195840Y-61006200D01*
X118151562Y-60770883D01*
X118118421Y-60719381D01*
X118183400Y-60562509D01*
X118183400Y-60371950D01*
X118024650Y-60213200D01*
X116200400Y-60213200D01*
X116200400Y-60233200D01*
X115946400Y-60233200D01*
X115946400Y-60213200D01*
X115926400Y-60213200D01*
X115926400Y-59959200D01*
X115946400Y-59959200D01*
X115946400Y-59259950D01*
X116200400Y-59259950D01*
X116200400Y-59959200D01*
X118024650Y-59959200D01*
X118183400Y-59800450D01*
X118183400Y-59609891D01*
X118086727Y-59376502D01*
X117908099Y-59197873D01*
X117674710Y-59101200D01*
X116359150Y-59101200D01*
X116200400Y-59259950D01*
X115946400Y-59259950D01*
X115787650Y-59101200D01*
X114948420Y-59101200D01*
X114948420Y-58388663D01*
X114980612Y-58356527D01*
X115123258Y-58012999D01*
X115123582Y-57641033D01*
X114981537Y-57297257D01*
X114774522Y-57089880D01*
X117064019Y-54800383D01*
X117094300Y-54812957D01*
X117650061Y-54813442D01*
X118163703Y-54601210D01*
X118513400Y-54252123D01*
X118513400Y-56208402D01*
G36*
X126564932Y-66326454D02*
X126598049Y-66359629D01*
X126598049Y-66963150D01*
X126112599Y-67448601D01*
X125947852Y-67695163D01*
X125894178Y-67965000D01*
X125871250Y-67965000D01*
X125850938Y-67985312D01*
X125789683Y-67996838D01*
X125649273Y-68087190D01*
X125526890Y-68003569D01*
X125452192Y-67988442D01*
X125428750Y-67965000D01*
X125417173Y-67965000D01*
X125513931Y-67823390D01*
X125564940Y-67571500D01*
X125564940Y-67070640D01*
X126490139Y-66145440D01*
X126564932Y-66326454D01*
X126564932Y-66326454D01*
G37*
X126564932Y-66326454D02*
X126598049Y-66359629D01*
X126598049Y-66963150D01*
X126112599Y-67448601D01*
X125947852Y-67695163D01*
X125894178Y-67965000D01*
X125871250Y-67965000D01*
X125850938Y-67985312D01*
X125789683Y-67996838D01*
X125649273Y-68087190D01*
X125526890Y-68003569D01*
X125452192Y-67988442D01*
X125428750Y-67965000D01*
X125417173Y-67965000D01*
X125513931Y-67823390D01*
X125564940Y-67571500D01*
X125564940Y-67070640D01*
X126490139Y-66145440D01*
X126564932Y-66326454D01*
G36*
X137127231Y-58878015D02*
X136740251Y-58878015D01*
X136504934Y-58922293D01*
X136288810Y-59061365D01*
X136143820Y-59273565D01*
X136105251Y-59464024D01*
X136105251Y-59399145D01*
X136008578Y-59165756D01*
X135829949Y-58987128D01*
X135596560Y-58890455D01*
X135248001Y-58890455D01*
X135089251Y-59049205D01*
X135089251Y-60414455D01*
X135109251Y-60414455D01*
X135109251Y-60668455D01*
X135089251Y-60668455D01*
X135089251Y-60688455D01*
X134835251Y-60688455D01*
X134835251Y-60668455D01*
X133978001Y-60668455D01*
X133819251Y-60827205D01*
X133819251Y-60926501D01*
X133714750Y-60822000D01*
X132667000Y-60822000D01*
X132667000Y-60842000D01*
X132413000Y-60842000D01*
X132413000Y-60822000D01*
X131365250Y-60822000D01*
X131206500Y-60980750D01*
X131206500Y-61265809D01*
X131303173Y-61499198D01*
X131454146Y-61650171D01*
X131390059Y-61691410D01*
X131245069Y-61903610D01*
X131194060Y-62155500D01*
X131194060Y-63044500D01*
X131238338Y-63279817D01*
X131250188Y-63298233D01*
X130633420Y-63915000D01*
X126584005Y-63915000D01*
X126584000Y-63914999D01*
X126245326Y-63982366D01*
X126214535Y-64002940D01*
X125958210Y-64174210D01*
X125958208Y-64174213D01*
X124351360Y-65781060D01*
X124282500Y-65781060D01*
X124047183Y-65825338D01*
X123831059Y-65964410D01*
X123829588Y-65966563D01*
X123753198Y-65890173D01*
X123519809Y-65793500D01*
X123361750Y-65793500D01*
X123203000Y-65952250D01*
X123203000Y-66873000D01*
X123223000Y-66873000D01*
X123223000Y-67127000D01*
X123203000Y-67127000D01*
X123203000Y-67147000D01*
X122949000Y-67147000D01*
X122949000Y-67127000D01*
X122929000Y-67127000D01*
X122929000Y-66873000D01*
X122949000Y-66873000D01*
X122949000Y-65952250D01*
X122790250Y-65793500D01*
X122632191Y-65793500D01*
X122522747Y-65838833D01*
X122522747Y-65514500D01*
X122614250Y-65514500D01*
X122773000Y-65355750D01*
X122773000Y-64689000D01*
X123027000Y-64689000D01*
X123027000Y-65355750D01*
X123185750Y-65514500D01*
X123597810Y-65514500D01*
X123831199Y-65417827D01*
X124009827Y-65239198D01*
X124106500Y-65005809D01*
X124106500Y-64847750D01*
X123947750Y-64689000D01*
X123027000Y-64689000D01*
X122773000Y-64689000D01*
X122753000Y-64689000D01*
X122753000Y-64435000D01*
X122773000Y-64435000D01*
X122773000Y-64415000D01*
X123027000Y-64415000D01*
X123027000Y-64435000D01*
X123947750Y-64435000D01*
X124106500Y-64276250D01*
X124106500Y-64118191D01*
X124009827Y-63884802D01*
X123931739Y-63806714D01*
X124067931Y-63607390D01*
X124118940Y-63355500D01*
X124118940Y-62720500D01*
X124081479Y-62521413D01*
X124095871Y-62500350D01*
X124146880Y-62248460D01*
X124146880Y-61049580D01*
X124102602Y-60814263D01*
X123963530Y-60598139D01*
X123962533Y-60597457D01*
X124095871Y-60402310D01*
X124146880Y-60150420D01*
X124146880Y-59981682D01*
X124722799Y-60557601D01*
X124969361Y-60722348D01*
X125260200Y-60780200D01*
X125954917Y-60780200D01*
X125987053Y-60812392D01*
X126330581Y-60955038D01*
X126702547Y-60955362D01*
X127046323Y-60813317D01*
X127309572Y-60550527D01*
X127347162Y-60460000D01*
X128128569Y-60460000D01*
X128190000Y-60472440D01*
X128590000Y-60472440D01*
X128619821Y-60466829D01*
X128663690Y-60485000D01*
X128829250Y-60485000D01*
X128988000Y-60326250D01*
X128988000Y-60323478D01*
X129041441Y-60289090D01*
X129114884Y-60181603D01*
X129175910Y-60276441D01*
X129242000Y-60321598D01*
X129242000Y-60326250D01*
X129400750Y-60485000D01*
X129566310Y-60485000D01*
X129610873Y-60466542D01*
X129640000Y-60472440D01*
X130040000Y-60472440D01*
X130238976Y-60435000D01*
X130240000Y-60435000D01*
X130257918Y-60431436D01*
X130275317Y-60428162D01*
X130275738Y-60427891D01*
X130521272Y-60379051D01*
X130759723Y-60219723D01*
X130855255Y-60124191D01*
X131206500Y-60124191D01*
X131206500Y-60409250D01*
X131365250Y-60568000D01*
X132413000Y-60568000D01*
X132413000Y-59774250D01*
X132667000Y-59774250D01*
X132667000Y-60568000D01*
X133714750Y-60568000D01*
X133873500Y-60409250D01*
X133873500Y-60309954D01*
X133978001Y-60414455D01*
X134835251Y-60414455D01*
X134835251Y-59049205D01*
X134676501Y-58890455D01*
X134327942Y-58890455D01*
X134094553Y-58987128D01*
X133915924Y-59165756D01*
X133819251Y-59399145D01*
X133819251Y-59993222D01*
X133776827Y-59890802D01*
X133598199Y-59712173D01*
X133364810Y-59615500D01*
X132825750Y-59615500D01*
X132667000Y-59774250D01*
X132413000Y-59774250D01*
X132254250Y-59615500D01*
X131715190Y-59615500D01*
X131481801Y-59712173D01*
X131303173Y-59890802D01*
X131206500Y-60124191D01*
X130855255Y-60124191D01*
X130956844Y-60022603D01*
X131116171Y-59784152D01*
X131128892Y-59720201D01*
X131172120Y-59502880D01*
X131172120Y-58685750D01*
X131206500Y-58685750D01*
X131206500Y-58970809D01*
X131303173Y-59204198D01*
X131481801Y-59382827D01*
X131715190Y-59479500D01*
X132254250Y-59479500D01*
X132413000Y-59320750D01*
X132413000Y-58527000D01*
X132667000Y-58527000D01*
X132667000Y-59320750D01*
X132825750Y-59479500D01*
X133364810Y-59479500D01*
X133598199Y-59382827D01*
X133776827Y-59204198D01*
X133873500Y-58970809D01*
X133873500Y-58685750D01*
X133714750Y-58527000D01*
X132667000Y-58527000D01*
X132413000Y-58527000D01*
X131365250Y-58527000D01*
X131206500Y-58685750D01*
X131172120Y-58685750D01*
X131172120Y-57385000D01*
X131373587Y-57385000D01*
X131377410Y-57390941D01*
X131455011Y-57443963D01*
X131303173Y-57595802D01*
X131206500Y-57829191D01*
X131206500Y-58114250D01*
X131365250Y-58273000D01*
X132413000Y-58273000D01*
X132413000Y-58253000D01*
X132667000Y-58253000D01*
X132667000Y-58273000D01*
X133714750Y-58273000D01*
X133873500Y-58114250D01*
X133873500Y-57829191D01*
X133776827Y-57595802D01*
X133625854Y-57444829D01*
X133689941Y-57403590D01*
X133706059Y-57380000D01*
X135629216Y-57380000D01*
X137127231Y-58878015D01*
X137127231Y-58878015D01*
G37*
X137127231Y-58878015D02*
X136740251Y-58878015D01*
X136504934Y-58922293D01*
X136288810Y-59061365D01*
X136143820Y-59273565D01*
X136105251Y-59464024D01*
X136105251Y-59399145D01*
X136008578Y-59165756D01*
X135829949Y-58987128D01*
X135596560Y-58890455D01*
X135248001Y-58890455D01*
X135089251Y-59049205D01*
X135089251Y-60414455D01*
X135109251Y-60414455D01*
X135109251Y-60668455D01*
X135089251Y-60668455D01*
X135089251Y-60688455D01*
X134835251Y-60688455D01*
X134835251Y-60668455D01*
X133978001Y-60668455D01*
X133819251Y-60827205D01*
X133819251Y-60926501D01*
X133714750Y-60822000D01*
X132667000Y-60822000D01*
X132667000Y-60842000D01*
X132413000Y-60842000D01*
X132413000Y-60822000D01*
X131365250Y-60822000D01*
X131206500Y-60980750D01*
X131206500Y-61265809D01*
X131303173Y-61499198D01*
X131454146Y-61650171D01*
X131390059Y-61691410D01*
X131245069Y-61903610D01*
X131194060Y-62155500D01*
X131194060Y-63044500D01*
X131238338Y-63279817D01*
X131250188Y-63298233D01*
X130633420Y-63915000D01*
X126584005Y-63915000D01*
X126584000Y-63914999D01*
X126245326Y-63982366D01*
X126214535Y-64002940D01*
X125958210Y-64174210D01*
X125958208Y-64174213D01*
X124351360Y-65781060D01*
X124282500Y-65781060D01*
X124047183Y-65825338D01*
X123831059Y-65964410D01*
X123829588Y-65966563D01*
X123753198Y-65890173D01*
X123519809Y-65793500D01*
X123361750Y-65793500D01*
X123203000Y-65952250D01*
X123203000Y-66873000D01*
X123223000Y-66873000D01*
X123223000Y-67127000D01*
X123203000Y-67127000D01*
X123203000Y-67147000D01*
X122949000Y-67147000D01*
X122949000Y-67127000D01*
X122929000Y-67127000D01*
X122929000Y-66873000D01*
X122949000Y-66873000D01*
X122949000Y-65952250D01*
X122790250Y-65793500D01*
X122632191Y-65793500D01*
X122522747Y-65838833D01*
X122522747Y-65514500D01*
X122614250Y-65514500D01*
X122773000Y-65355750D01*
X122773000Y-64689000D01*
X123027000Y-64689000D01*
X123027000Y-65355750D01*
X123185750Y-65514500D01*
X123597810Y-65514500D01*
X123831199Y-65417827D01*
X124009827Y-65239198D01*
X124106500Y-65005809D01*
X124106500Y-64847750D01*
X123947750Y-64689000D01*
X123027000Y-64689000D01*
X122773000Y-64689000D01*
X122753000Y-64689000D01*
X122753000Y-64435000D01*
X122773000Y-64435000D01*
X122773000Y-64415000D01*
X123027000Y-64415000D01*
X123027000Y-64435000D01*
X123947750Y-64435000D01*
X124106500Y-64276250D01*
X124106500Y-64118191D01*
X124009827Y-63884802D01*
X123931739Y-63806714D01*
X124067931Y-63607390D01*
X124118940Y-63355500D01*
X124118940Y-62720500D01*
X124081479Y-62521413D01*
X124095871Y-62500350D01*
X124146880Y-62248460D01*
X124146880Y-61049580D01*
X124102602Y-60814263D01*
X123963530Y-60598139D01*
X123962533Y-60597457D01*
X124095871Y-60402310D01*
X124146880Y-60150420D01*
X124146880Y-59981682D01*
X124722799Y-60557601D01*
X124969361Y-60722348D01*
X125260200Y-60780200D01*
X125954917Y-60780200D01*
X125987053Y-60812392D01*
X126330581Y-60955038D01*
X126702547Y-60955362D01*
X127046323Y-60813317D01*
X127309572Y-60550527D01*
X127347162Y-60460000D01*
X128128569Y-60460000D01*
X128190000Y-60472440D01*
X128590000Y-60472440D01*
X128619821Y-60466829D01*
X128663690Y-60485000D01*
X128829250Y-60485000D01*
X128988000Y-60326250D01*
X128988000Y-60323478D01*
X129041441Y-60289090D01*
X129114884Y-60181603D01*
X129175910Y-60276441D01*
X129242000Y-60321598D01*
X129242000Y-60326250D01*
X129400750Y-60485000D01*
X129566310Y-60485000D01*
X129610873Y-60466542D01*
X129640000Y-60472440D01*
X130040000Y-60472440D01*
X130238976Y-60435000D01*
X130240000Y-60435000D01*
X130257918Y-60431436D01*
X130275317Y-60428162D01*
X130275738Y-60427891D01*
X130521272Y-60379051D01*
X130759723Y-60219723D01*
X130855255Y-60124191D01*
X131206500Y-60124191D01*
X131206500Y-60409250D01*
X131365250Y-60568000D01*
X132413000Y-60568000D01*
X132413000Y-59774250D01*
X132667000Y-59774250D01*
X132667000Y-60568000D01*
X133714750Y-60568000D01*
X133873500Y-60409250D01*
X133873500Y-60309954D01*
X133978001Y-60414455D01*
X134835251Y-60414455D01*
X134835251Y-59049205D01*
X134676501Y-58890455D01*
X134327942Y-58890455D01*
X134094553Y-58987128D01*
X133915924Y-59165756D01*
X133819251Y-59399145D01*
X133819251Y-59993222D01*
X133776827Y-59890802D01*
X133598199Y-59712173D01*
X133364810Y-59615500D01*
X132825750Y-59615500D01*
X132667000Y-59774250D01*
X132413000Y-59774250D01*
X132254250Y-59615500D01*
X131715190Y-59615500D01*
X131481801Y-59712173D01*
X131303173Y-59890802D01*
X131206500Y-60124191D01*
X130855255Y-60124191D01*
X130956844Y-60022603D01*
X131116171Y-59784152D01*
X131128892Y-59720201D01*
X131172120Y-59502880D01*
X131172120Y-58685750D01*
X131206500Y-58685750D01*
X131206500Y-58970809D01*
X131303173Y-59204198D01*
X131481801Y-59382827D01*
X131715190Y-59479500D01*
X132254250Y-59479500D01*
X132413000Y-59320750D01*
X132413000Y-58527000D01*
X132667000Y-58527000D01*
X132667000Y-59320750D01*
X132825750Y-59479500D01*
X133364810Y-59479500D01*
X133598199Y-59382827D01*
X133776827Y-59204198D01*
X133873500Y-58970809D01*
X133873500Y-58685750D01*
X133714750Y-58527000D01*
X132667000Y-58527000D01*
X132413000Y-58527000D01*
X131365250Y-58527000D01*
X131206500Y-58685750D01*
X131172120Y-58685750D01*
X131172120Y-57385000D01*
X131373587Y-57385000D01*
X131377410Y-57390941D01*
X131455011Y-57443963D01*
X131303173Y-57595802D01*
X131206500Y-57829191D01*
X131206500Y-58114250D01*
X131365250Y-58273000D01*
X132413000Y-58273000D01*
X132413000Y-58253000D01*
X132667000Y-58253000D01*
X132667000Y-58273000D01*
X133714750Y-58273000D01*
X133873500Y-58114250D01*
X133873500Y-57829191D01*
X133776827Y-57595802D01*
X133625854Y-57444829D01*
X133689941Y-57403590D01*
X133706059Y-57380000D01*
X135629216Y-57380000D01*
X137127231Y-58878015D01*
G36*
X108952792Y-52435987D02*
X109753400Y-53236595D01*
X110554008Y-52435987D01*
X110539728Y-52386200D01*
X111347816Y-52386200D01*
X111109771Y-52623830D01*
X111030005Y-52815927D01*
X110975797Y-52685057D01*
X110733613Y-52615592D01*
X109933005Y-53416200D01*
X110733613Y-54216808D01*
X110975797Y-54147343D01*
X111025909Y-54006882D01*
X111108390Y-54206503D01*
X111501030Y-54599829D01*
X112014300Y-54812957D01*
X112570061Y-54813442D01*
X113083703Y-54601210D01*
X113477029Y-54208570D01*
X113563349Y-54000688D01*
X113648390Y-54206503D01*
X114041030Y-54599829D01*
X114073400Y-54613270D01*
X114073400Y-54625398D01*
X112263999Y-56434799D01*
X112099252Y-56681361D01*
X112041400Y-56972200D01*
X112041400Y-58893397D01*
X111846037Y-59088760D01*
X110148400Y-59088760D01*
X109913083Y-59133038D01*
X109696959Y-59272110D01*
X109551969Y-59484310D01*
X109500960Y-59736200D01*
X109500960Y-60436200D01*
X109545238Y-60671517D01*
X109575939Y-60719228D01*
X109551969Y-60754310D01*
X109500960Y-61006200D01*
X109500960Y-61208554D01*
X109497400Y-61212114D01*
X109497400Y-54940200D01*
X109469119Y-54798022D01*
X109545702Y-54825344D01*
X110100768Y-54797562D01*
X110484543Y-54638597D01*
X110554008Y-54396413D01*
X109753400Y-53595805D01*
X109739258Y-53609948D01*
X109559653Y-53430343D01*
X109573795Y-53416200D01*
X108773187Y-52615592D01*
X108531003Y-52685057D01*
X108480891Y-52825518D01*
X108398410Y-52625897D01*
X108159131Y-52386200D01*
X108967072Y-52386200D01*
X108952792Y-52435987D01*
X108952792Y-52435987D01*
G37*
X108952792Y-52435987D02*
X109753400Y-53236595D01*
X110554008Y-52435987D01*
X110539728Y-52386200D01*
X111347816Y-52386200D01*
X111109771Y-52623830D01*
X111030005Y-52815927D01*
X110975797Y-52685057D01*
X110733613Y-52615592D01*
X109933005Y-53416200D01*
X110733613Y-54216808D01*
X110975797Y-54147343D01*
X111025909Y-54006882D01*
X111108390Y-54206503D01*
X111501030Y-54599829D01*
X112014300Y-54812957D01*
X112570061Y-54813442D01*
X113083703Y-54601210D01*
X113477029Y-54208570D01*
X113563349Y-54000688D01*
X113648390Y-54206503D01*
X114041030Y-54599829D01*
X114073400Y-54613270D01*
X114073400Y-54625398D01*
X112263999Y-56434799D01*
X112099252Y-56681361D01*
X112041400Y-56972200D01*
X112041400Y-58893397D01*
X111846037Y-59088760D01*
X110148400Y-59088760D01*
X109913083Y-59133038D01*
X109696959Y-59272110D01*
X109551969Y-59484310D01*
X109500960Y-59736200D01*
X109500960Y-60436200D01*
X109545238Y-60671517D01*
X109575939Y-60719228D01*
X109551969Y-60754310D01*
X109500960Y-61006200D01*
X109500960Y-61208554D01*
X109497400Y-61212114D01*
X109497400Y-54940200D01*
X109469119Y-54798022D01*
X109545702Y-54825344D01*
X110100768Y-54797562D01*
X110484543Y-54638597D01*
X110554008Y-54396413D01*
X109753400Y-53595805D01*
X109739258Y-53609948D01*
X109559653Y-53430343D01*
X109573795Y-53416200D01*
X108773187Y-52615592D01*
X108531003Y-52685057D01*
X108480891Y-52825518D01*
X108398410Y-52625897D01*
X108159131Y-52386200D01*
X108967072Y-52386200D01*
X108952792Y-52435987D01*
G36*
X129702120Y-57927560D02*
X129640000Y-57927560D01*
X129610179Y-57933171D01*
X129566310Y-57915000D01*
X129400750Y-57915000D01*
X129242000Y-58073750D01*
X129242000Y-58076522D01*
X129188559Y-58110910D01*
X129115116Y-58218397D01*
X129054090Y-58123559D01*
X128988000Y-58078402D01*
X128988000Y-58073750D01*
X128829250Y-57915000D01*
X128663690Y-57915000D01*
X128619127Y-57933458D01*
X128590000Y-57927560D01*
X128237464Y-57927560D01*
X128005662Y-57772675D01*
X127714823Y-57714823D01*
X127322600Y-57714823D01*
X127401441Y-57664090D01*
X127546431Y-57451890D01*
X127559977Y-57385000D01*
X129702120Y-57385000D01*
X129702120Y-57927560D01*
X129702120Y-57927560D01*
G37*
X129702120Y-57927560D02*
X129640000Y-57927560D01*
X129610179Y-57933171D01*
X129566310Y-57915000D01*
X129400750Y-57915000D01*
X129242000Y-58073750D01*
X129242000Y-58076522D01*
X129188559Y-58110910D01*
X129115116Y-58218397D01*
X129054090Y-58123559D01*
X128988000Y-58078402D01*
X128988000Y-58073750D01*
X128829250Y-57915000D01*
X128663690Y-57915000D01*
X128619127Y-57933458D01*
X128590000Y-57927560D01*
X128237464Y-57927560D01*
X128005662Y-57772675D01*
X127714823Y-57714823D01*
X127322600Y-57714823D01*
X127401441Y-57664090D01*
X127546431Y-57451890D01*
X127559977Y-57385000D01*
X129702120Y-57385000D01*
X129702120Y-57927560D01*
M02*
