G04 #@! TF.FileFunction,Soldermask,Top*
%FSLAX46Y46*%
G04 Gerber Fmt 4.6, Leading zero omitted, Abs format (unit mm)*
G04 Created by KiCad (PCBNEW 0.201510170916+6271~30~ubuntu15.04.1-product) date Mon 02 Nov 2015 12:23:47 AM PST*
%MOMM*%
G01*
G04 APERTURE LIST*
%ADD10C,0.100000*%
%ADD11R,1.498600X0.797560*%
%ADD12R,0.899160X1.447800*%
%ADD13R,2.070000X1.470000*%
%ADD14R,0.500000X1.400000*%
%ADD15R,2.500000X3.800000*%
%ADD16R,2.800000X2.200000*%
%ADD17R,0.250000X1.000000*%
%ADD18R,1.000000X0.250000*%
%ADD19R,1.143000X0.635000*%
%ADD20R,0.889000X1.397000*%
%ADD21R,0.635000X1.143000*%
%ADD22R,1.397000X0.889000*%
%ADD23R,2.032000X1.524000*%
%ADD24R,1.198880X1.198880*%
%ADD25R,0.900000X1.400000*%
%ADD26R,2.200000X1.400000*%
%ADD27C,1.506220*%
%ADD28R,2.032000X1.727200*%
%ADD29O,2.032000X1.727200*%
%ADD30R,1.524000X1.524000*%
%ADD31C,1.524000*%
%ADD32R,3.657600X2.032000*%
%ADD33R,1.016000X2.032000*%
%ADD34R,0.400000X1.900000*%
%ADD35R,1.100000X1.900000*%
%ADD36R,1.060000X0.650000*%
%ADD37R,1.524000X2.199640*%
%ADD38O,1.524000X2.199640*%
%ADD39R,2.950000X0.700000*%
%ADD40R,0.600000X0.450000*%
%ADD41R,0.850000X1.500000*%
G04 APERTURE END LIST*
D10*
D11*
X114223560Y-94300660D03*
X114223560Y-93200840D03*
X114223560Y-92101020D03*
X114223560Y-91001200D03*
X114223560Y-89901380D03*
X114223560Y-88801560D03*
X114223560Y-87701740D03*
X114223560Y-86601920D03*
D12*
X109925880Y-97874440D03*
X121625120Y-84127960D03*
D13*
X119923400Y-84126200D03*
X111623400Y-84126200D03*
X111623400Y-97876200D03*
X119923400Y-97876200D03*
D14*
X125100000Y-56500000D03*
X124300000Y-56500000D03*
X123500000Y-56500000D03*
X125900000Y-56500000D03*
X126700000Y-56500000D03*
D15*
X120900000Y-54100000D03*
X129300000Y-54100000D03*
D16*
X138632900Y-95262700D03*
X133832900Y-95262700D03*
D17*
X125150000Y-80500000D03*
X125650000Y-80500000D03*
X126150000Y-80500000D03*
X126650000Y-80500000D03*
X127150000Y-80500000D03*
X127650000Y-80500000D03*
X128150000Y-80500000D03*
X128650000Y-80500000D03*
X129150000Y-80500000D03*
X129650000Y-80500000D03*
X130150000Y-80500000D03*
X130650000Y-80500000D03*
X131150000Y-80500000D03*
X131650000Y-80500000D03*
X132150000Y-80500000D03*
X132650000Y-80500000D03*
D18*
X134600000Y-78550000D03*
X134600000Y-78050000D03*
X134600000Y-77550000D03*
X134600000Y-77050000D03*
X134600000Y-76550000D03*
X134600000Y-76050000D03*
X134600000Y-75550000D03*
X134600000Y-75050000D03*
X134600000Y-74550000D03*
X134600000Y-74050000D03*
X134600000Y-73550000D03*
X134600000Y-73050000D03*
X134600000Y-72550000D03*
X134600000Y-72050000D03*
X134600000Y-71550000D03*
X134600000Y-71050000D03*
D17*
X132650000Y-69100000D03*
X132150000Y-69100000D03*
X131650000Y-69100000D03*
X131150000Y-69100000D03*
X130650000Y-69100000D03*
X130150000Y-69100000D03*
X129650000Y-69100000D03*
X129150000Y-69100000D03*
X128650000Y-69100000D03*
X128150000Y-69100000D03*
X127650000Y-69100000D03*
X127150000Y-69100000D03*
X126650000Y-69100000D03*
X126150000Y-69100000D03*
X125650000Y-69100000D03*
X125150000Y-69100000D03*
D18*
X123200000Y-71050000D03*
X123200000Y-71550000D03*
X123200000Y-72050000D03*
X123200000Y-72550000D03*
X123200000Y-73050000D03*
X123200000Y-73550000D03*
X123200000Y-74050000D03*
X123200000Y-74550000D03*
X123200000Y-75050000D03*
X123200000Y-75550000D03*
X123200000Y-76050000D03*
X123200000Y-76550000D03*
X123200000Y-77050000D03*
X123200000Y-77550000D03*
X123200000Y-78050000D03*
X123200000Y-78550000D03*
D19*
X139173400Y-89789200D03*
X139173400Y-91313200D03*
D20*
X136047500Y-66900000D03*
X137952500Y-66900000D03*
D21*
X136176000Y-70400000D03*
X137700000Y-70400000D03*
X135062000Y-83700000D03*
X133538000Y-83700000D03*
D19*
X136700000Y-77038000D03*
X136700000Y-78562000D03*
D21*
X124362000Y-82300000D03*
X122838000Y-82300000D03*
D19*
X121200000Y-78562000D03*
X121200000Y-77038000D03*
D21*
X124600000Y-67000000D03*
X123076000Y-67000000D03*
X135062000Y-82200000D03*
X133538000Y-82200000D03*
D22*
X132540000Y-56495000D03*
X132540000Y-58400000D03*
X132540000Y-62600000D03*
X132540000Y-60695000D03*
D23*
X113640000Y-81652000D03*
X113640000Y-78350000D03*
X116640000Y-81650000D03*
X116640000Y-78348000D03*
D21*
X125588000Y-88050000D03*
X127112000Y-88050000D03*
X136176000Y-68800000D03*
X137700000Y-68800000D03*
X129612000Y-88050000D03*
X128088000Y-88050000D03*
D24*
X120673400Y-59577180D03*
X120673400Y-61675220D03*
D25*
X136790000Y-63200000D03*
D26*
X139340000Y-63200000D03*
D24*
X122900000Y-59550980D03*
X122900000Y-61649020D03*
D27*
X114748400Y-75076200D03*
X112208400Y-75076200D03*
X117248400Y-75076200D03*
D22*
X136700000Y-81895000D03*
X136700000Y-83800000D03*
D28*
X145320000Y-95320000D03*
D29*
X145320000Y-92780000D03*
X145320000Y-90240000D03*
X145320000Y-87700000D03*
X145320000Y-85160000D03*
X145320000Y-82620000D03*
X145320000Y-80080000D03*
X145320000Y-77540000D03*
X145320000Y-75000000D03*
X145320000Y-72460000D03*
X145320000Y-69920000D03*
X145320000Y-67380000D03*
X145320000Y-64840000D03*
X145320000Y-62300000D03*
X145320000Y-59760000D03*
X145320000Y-57220000D03*
D28*
X104680000Y-57220000D03*
D29*
X104680000Y-59760000D03*
X104680000Y-62300000D03*
X104680000Y-64840000D03*
X104680000Y-67380000D03*
X104680000Y-69920000D03*
X104680000Y-72460000D03*
X104680000Y-75000000D03*
X104680000Y-77540000D03*
X104680000Y-80080000D03*
X104680000Y-82620000D03*
X104680000Y-85160000D03*
X104680000Y-87700000D03*
X104680000Y-90240000D03*
X104680000Y-92780000D03*
X104680000Y-95320000D03*
D30*
X104673400Y-53416200D03*
D31*
X107213400Y-53416200D03*
X109753400Y-53416200D03*
X112293400Y-53416200D03*
X114833400Y-53416200D03*
X117373400Y-53416200D03*
D21*
X119913400Y-75069700D03*
X121437400Y-75069700D03*
D19*
X122900000Y-63038000D03*
X122900000Y-64562000D03*
D32*
X137248251Y-53937455D03*
D33*
X137248251Y-60541455D03*
X139534251Y-60541455D03*
X134962251Y-60541455D03*
D34*
X126350000Y-83150000D03*
X127550000Y-83150000D03*
X128750000Y-83150000D03*
D35*
X126300000Y-85950000D03*
X128800000Y-85950000D03*
D21*
X119878000Y-80800000D03*
X121402000Y-80800000D03*
D36*
X135198400Y-90001200D03*
X135198400Y-90951200D03*
X135198400Y-91901200D03*
X137398400Y-91901200D03*
X137398400Y-90001200D03*
D19*
X120673400Y-63064200D03*
X120673400Y-64588200D03*
D37*
X145313400Y-53416200D03*
D38*
X142773400Y-53416200D03*
D39*
X111623400Y-65166200D03*
X111623400Y-63896200D03*
X111623400Y-62626200D03*
X111623400Y-61356200D03*
X111623400Y-60086200D03*
X116073400Y-65166200D03*
X116073400Y-63896200D03*
X116073400Y-62626200D03*
X116073400Y-61356200D03*
X116073400Y-60086200D03*
D40*
X128390000Y-58700000D03*
X128390000Y-59200000D03*
X128390000Y-59700000D03*
X129840000Y-58700000D03*
X129840000Y-59200000D03*
X129840000Y-59700000D03*
D41*
X129115000Y-59200000D03*
M02*
