M48
;DRILL file {KiCad 0.201510170916+6271~30~ubuntu15.04.1-product} date Mon 02 Nov 2015 12:23:52 AM PST
;FORMAT={-:-/ absolute / inch / decimal}
FMAT,2
INCH,TZ
T1C0.016
T2C0.039
T3C0.039
T4C0.040
%
G90
G05
M72
T1
X4.3169Y-2.463
X4.3244Y-3.5148
X4.3441Y-3.4154
X4.3657Y-3.5807
X4.3808Y-2.6388
X4.3894Y-3.4094
X4.3976Y-3.5
X4.4202Y-2.6388
X4.4517Y-2.6388
X4.4517Y-2.6703
X4.4956Y-2.2766
X4.6092Y-2.2609
X4.6654Y-3.1614
X4.6958Y-2.3317
X4.7362Y-2.0247
X4.7509Y-2.5876
X4.8336Y-3.2835
X4.871Y-2.5867
X4.8854Y-3.124
X4.911Y-3.0965
X4.9282Y-2.3217
X4.9312Y-3.0015
X4.9363Y-3.0777
X4.9504Y-3.0496
X4.9537Y-2.3022
X4.9585Y-2.9858
X4.9646Y-2.6535
X4.9748Y-3.0128
X4.981Y-2.363
X4.9842Y-2.9055
X4.9913Y-2.9386
X5.0016Y-2.9882
X5.0134Y-3.1142
X5.0141Y-2.5905
X5.0455Y-2.5925
X5.0511Y-2.881
X5.061Y-3.093
X5.0733Y-2.8586
X5.0744Y-2.935
X5.0803Y-2.5925
X5.0836Y-2.255
X5.0836Y-2.2815
X5.0887Y-3.1153
X5.0935Y-2.91
X5.1187Y-3.0907
X5.1248Y-2.9202
X5.151Y-3.113
X5.1549Y-2.897
X5.1733Y-3.0907
X5.1768Y-2.9331
X5.1958Y-2.0552
X5.2052Y-3.0808
X5.2206Y-2.8681
X5.2358Y-3.063
X5.2376Y-2.8416
X5.2441Y-2.622
X5.2496Y-2.935
X5.2513Y-3.0128
X5.2516Y-2.9724
X5.256Y-3.5405
X5.2572Y-2.9017
X5.2601Y-3.043
X5.2795Y-2.6575
X5.286Y-3.403
X5.2885Y-3.3455
X5.3397Y-3.0276
X5.3513Y-2.88
X5.3513Y-2.9292
X5.3513Y-2.9784
X5.361Y-3.3555
X5.4882Y-2.6929
T2
X4.4177Y-2.9558
X4.5177Y-2.9558
X4.6161Y-2.9558
T3
X5.621Y-2.103
X5.721Y-2.103
T4
X4.121Y-2.103
X4.1213Y-2.2528
X4.1213Y-2.3528
X4.1213Y-2.4528
X4.1213Y-2.5528
X4.1213Y-2.6528
X4.1213Y-2.7528
X4.1213Y-2.8528
X4.1213Y-2.9528
X4.1213Y-3.0528
X4.1213Y-3.1528
X4.1213Y-3.2528
X4.1213Y-3.3528
X4.1213Y-3.4528
X4.1213Y-3.5528
X4.1213Y-3.6528
X4.1213Y-3.7528
X4.221Y-2.103
X4.321Y-2.103
X4.421Y-2.103
X4.521Y-2.103
X4.621Y-2.103
X5.7213Y-2.2528
X5.7213Y-2.3528
X5.7213Y-2.4528
X5.7213Y-2.5528
X5.7213Y-2.6528
X5.7213Y-2.7528
X5.7213Y-2.8528
X5.7213Y-2.9528
X5.7213Y-3.0528
X5.7213Y-3.1528
X5.7213Y-3.2528
X5.7213Y-3.3528
X5.7213Y-3.4528
X5.7213Y-3.5528
X5.7213Y-3.6528
X5.7213Y-3.7528
T0
M30
