G04 #@! TF.FileFunction,Copper,L2,Bot,Signal*
%FSLAX46Y46*%
G04 Gerber Fmt 4.6, Leading zero omitted, Abs format (unit mm)*
G04 Created by KiCad (PCBNEW 0.201510170916+6271~30~ubuntu15.04.1-product) date Mon 02 Nov 2015 12:23:47 AM PST*
%MOMM*%
G01*
G04 APERTURE LIST*
%ADD10C,0.100000*%
%ADD11C,1.506220*%
%ADD12R,2.032000X1.727200*%
%ADD13O,2.032000X1.727200*%
%ADD14R,1.524000X1.524000*%
%ADD15C,1.524000*%
%ADD16R,1.524000X2.199640*%
%ADD17O,1.524000X2.199640*%
%ADD18C,0.600000*%
%ADD19C,0.250000*%
%ADD20C,0.500000*%
%ADD21C,0.254000*%
G04 APERTURE END LIST*
D10*
D11*
X114748400Y-75076200D03*
X112208400Y-75076200D03*
X117248400Y-75076200D03*
D12*
X145320000Y-95320000D03*
D13*
X145320000Y-92780000D03*
X145320000Y-90240000D03*
X145320000Y-87700000D03*
X145320000Y-85160000D03*
X145320000Y-82620000D03*
X145320000Y-80080000D03*
X145320000Y-77540000D03*
X145320000Y-75000000D03*
X145320000Y-72460000D03*
X145320000Y-69920000D03*
X145320000Y-67380000D03*
X145320000Y-64840000D03*
X145320000Y-62300000D03*
X145320000Y-59760000D03*
X145320000Y-57220000D03*
D12*
X104680000Y-57220000D03*
D13*
X104680000Y-59760000D03*
X104680000Y-62300000D03*
X104680000Y-64840000D03*
X104680000Y-67380000D03*
X104680000Y-69920000D03*
X104680000Y-72460000D03*
X104680000Y-75000000D03*
X104680000Y-77540000D03*
X104680000Y-80080000D03*
X104680000Y-82620000D03*
X104680000Y-85160000D03*
X104680000Y-87700000D03*
X104680000Y-90240000D03*
X104680000Y-92780000D03*
X104680000Y-95320000D03*
D14*
X104673400Y-53416200D03*
D15*
X107213400Y-53416200D03*
X109753400Y-53416200D03*
X112293400Y-53416200D03*
X114833400Y-53416200D03*
X117373400Y-53416200D03*
D16*
X145313400Y-53416200D03*
D17*
X142773400Y-53416200D03*
D18*
X134264400Y-86436200D03*
X136169400Y-85229700D03*
X134327900Y-84975708D03*
X122773400Y-83401200D03*
X123723400Y-65701200D03*
X120673400Y-65726200D03*
X120298401Y-51426200D03*
X131973400Y-52201200D03*
X129123400Y-57951200D03*
X129123400Y-57276200D03*
X126100000Y-67400000D03*
X118500000Y-80300000D03*
X111700000Y-88900000D03*
X139400000Y-68400000D03*
X134100000Y-67500000D03*
X133200000Y-66600000D03*
X117073400Y-57426200D03*
X109840000Y-89275700D03*
X110890000Y-90950000D03*
X110340000Y-86750000D03*
X124090000Y-79350000D03*
X124738929Y-78650794D03*
X111490000Y-86600000D03*
X132603778Y-72850593D03*
X119273400Y-59226200D03*
X127358049Y-65797511D03*
X125175031Y-58970534D03*
X126517380Y-60020200D03*
X129040000Y-65850000D03*
X128156321Y-65850232D03*
X125824409Y-58474823D03*
X114188420Y-57826200D03*
X112273387Y-67026200D03*
X125381361Y-78174035D03*
X125740747Y-77459289D03*
X126360336Y-76525680D03*
X125252172Y-76238393D03*
X125945717Y-75839627D03*
X126779552Y-74640470D03*
X126598903Y-73799990D03*
X128298936Y-73176979D03*
X128863003Y-72609664D03*
X128890000Y-74550000D03*
X129374992Y-73913760D03*
X130171171Y-74172599D03*
X130935184Y-73584573D03*
X131490000Y-74500000D03*
X133034110Y-72176179D03*
X128549372Y-78562200D03*
X129253706Y-79127894D03*
X130015718Y-78504494D03*
X130835400Y-79070210D03*
X131401094Y-78504506D03*
X132213317Y-78251136D03*
X132988995Y-77801125D03*
X133606836Y-77292900D03*
X135628499Y-76901103D03*
X133383351Y-76524737D03*
X135923380Y-75651089D03*
X133390000Y-75500000D03*
X135923380Y-74401068D03*
X133340000Y-74550000D03*
X135923380Y-73151047D03*
X133534029Y-73703674D03*
X109648380Y-62560200D03*
X111273400Y-67026200D03*
X113073400Y-67826200D03*
X133502400Y-89928698D03*
X113073400Y-67026200D03*
X127340000Y-79100000D03*
X127040000Y-75900000D03*
D19*
X134327900Y-84975708D02*
X134327900Y-86372700D01*
X134327900Y-86372700D02*
X134264400Y-86436200D01*
X115251200Y-92451200D02*
X132412904Y-92451200D01*
X111700000Y-88900000D02*
X115251200Y-92451200D01*
X136169400Y-85653964D02*
X136169400Y-85229700D01*
X132412904Y-92451200D02*
X136169400Y-88694704D01*
X136169400Y-88694704D02*
X136169400Y-85653964D01*
X122773400Y-83401200D02*
X121601200Y-83401200D01*
X121601200Y-83401200D02*
X118500000Y-80300000D01*
X126100000Y-67400000D02*
X124401200Y-65701200D01*
X124401200Y-65701200D02*
X123723400Y-65701200D01*
X120673400Y-65726200D02*
X123698400Y-65726200D01*
X123698400Y-65726200D02*
X123723400Y-65701200D01*
X118273400Y-51426200D02*
X119874137Y-51426200D01*
X118073400Y-51626200D02*
X118273400Y-51426200D01*
X119874137Y-51426200D02*
X120298401Y-51426200D01*
D20*
X131973400Y-52201200D02*
X132273399Y-51901201D01*
X134498399Y-51901201D02*
X135123400Y-51276200D01*
X132273399Y-51901201D02*
X134498399Y-51901201D01*
X129123400Y-57276200D02*
X135123400Y-51276200D01*
X143511220Y-51276200D02*
X145313400Y-53078380D01*
X135123400Y-51276200D02*
X143511220Y-51276200D01*
D19*
X145313400Y-53078380D02*
X145313400Y-53416200D01*
X111473400Y-51626200D02*
X118073400Y-51626200D01*
X110515399Y-52584201D02*
X111473400Y-51626200D01*
X109753400Y-53416200D02*
X110515399Y-52654201D01*
X110515399Y-52654201D02*
X110515399Y-52584201D01*
X126100000Y-67400000D02*
X126399999Y-67699999D01*
X126399999Y-67699999D02*
X132100001Y-67699999D01*
X132100001Y-67699999D02*
X132900001Y-66899999D01*
X132900001Y-66899999D02*
X133200000Y-66600000D01*
X118500000Y-80300000D02*
X118500000Y-82100000D01*
X118500000Y-82100000D02*
X111700000Y-88900000D01*
D20*
X134100000Y-67500000D02*
X135000000Y-68400000D01*
X135000000Y-68400000D02*
X139400000Y-68400000D01*
D19*
X119073400Y-52626200D02*
X119073400Y-55426200D01*
X118073400Y-51626200D02*
X119073400Y-52626200D01*
X119073400Y-55426200D02*
X117073400Y-57426200D01*
X109840000Y-89699964D02*
X109840000Y-89275700D01*
X109840000Y-89900000D02*
X109840000Y-89699964D01*
X110890000Y-90950000D02*
X109840000Y-89900000D01*
X109990000Y-82450000D02*
X109990000Y-86400000D01*
X109990000Y-86400000D02*
X110340000Y-86750000D01*
X113090000Y-79350000D02*
X109990000Y-82450000D01*
X124090000Y-79350000D02*
X113090000Y-79350000D01*
X110039998Y-87375002D02*
X109464998Y-86800002D01*
X112889206Y-78650794D02*
X124314665Y-78650794D01*
X124314665Y-78650794D02*
X124738929Y-78650794D01*
X111490000Y-86600000D02*
X110714998Y-87375002D01*
X109464998Y-82075002D02*
X112889206Y-78650794D01*
X110714998Y-87375002D02*
X110039998Y-87375002D01*
X109464998Y-86800002D02*
X109464998Y-82075002D01*
X129972910Y-68976101D02*
X132188071Y-71191262D01*
X119032845Y-68976101D02*
X129972910Y-68976101D01*
X132188071Y-71191262D02*
X132188071Y-72434886D01*
X132303779Y-72550594D02*
X132603778Y-72850593D01*
X132188071Y-72434886D02*
X132303779Y-72550594D01*
X104680000Y-57220000D02*
X104832400Y-57220000D01*
X107823400Y-67926200D02*
X108873301Y-68976101D01*
X107823400Y-60211000D02*
X107823400Y-67926200D01*
X108873301Y-68976101D02*
X119032845Y-68976101D01*
X104832400Y-57220000D02*
X107823400Y-60211000D01*
X119032845Y-68976101D02*
X119032845Y-59466755D01*
X119032845Y-59466755D02*
X119273400Y-59226200D01*
X125175031Y-63614493D02*
X127058050Y-65497512D01*
X127058050Y-65497512D02*
X127358049Y-65797511D01*
X125175031Y-58970534D02*
X125175031Y-63614493D01*
X129040000Y-65850000D02*
X126498400Y-63308400D01*
X126498400Y-63308400D02*
X126498400Y-60039180D01*
X126498400Y-60039180D02*
X126517380Y-60020200D01*
X125824409Y-58474823D02*
X125824409Y-63270819D01*
X128156321Y-65602731D02*
X128156321Y-65850232D01*
X125824409Y-63270819D02*
X128156321Y-65602731D01*
X114188420Y-57401936D02*
X114188420Y-57826200D01*
X114188420Y-55311220D02*
X114188420Y-57401936D01*
X112293400Y-53416200D02*
X114188420Y-55311220D01*
X107213400Y-53416200D02*
X112273387Y-58476187D01*
X112273387Y-66601936D02*
X112273387Y-67026200D01*
X112273387Y-58476187D02*
X112273387Y-66601936D01*
X122791920Y-78200783D02*
X123118667Y-77874036D01*
X104680000Y-95320000D02*
X104832400Y-95320000D01*
X112702806Y-78200783D02*
X122791920Y-78200783D01*
X106947190Y-94206400D02*
X108939989Y-92213601D01*
X104832400Y-95320000D02*
X105946000Y-94206400D01*
X125081362Y-77874036D02*
X125381361Y-78174035D01*
X123118667Y-77874036D02*
X125081362Y-77874036D01*
X108939989Y-92213601D02*
X108939989Y-81963600D01*
X108939989Y-81963600D02*
X112702806Y-78200783D01*
X105946000Y-94206400D02*
X106947190Y-94206400D01*
X107000779Y-91666400D02*
X108489978Y-90177201D01*
X122605520Y-77750772D02*
X123042887Y-77313405D01*
X104680000Y-92780000D02*
X104832400Y-92780000D01*
X125316483Y-77459289D02*
X125740747Y-77459289D01*
X112516406Y-77750772D02*
X122605520Y-77750772D01*
X105946000Y-91666400D02*
X107000779Y-91666400D01*
X123042887Y-77313405D02*
X125170599Y-77313405D01*
X108489978Y-90177201D02*
X108489978Y-81777200D01*
X108489978Y-81777200D02*
X112516406Y-77750772D01*
X104832400Y-92780000D02*
X105946000Y-91666400D01*
X125170599Y-77313405D02*
X125316483Y-77459289D01*
X112330006Y-77300761D02*
X122419120Y-77300761D01*
X104680000Y-90240000D02*
X104832400Y-90240000D01*
X122419120Y-77300761D02*
X122856487Y-76863394D01*
X125552173Y-76863394D02*
X125889887Y-76525680D01*
X104832400Y-90240000D02*
X108039967Y-87032433D01*
X125889887Y-76525680D02*
X125936072Y-76525680D01*
X125936072Y-76525680D02*
X126360336Y-76525680D01*
X108039967Y-81590800D02*
X112330006Y-77300761D01*
X108039967Y-87032433D02*
X108039967Y-81590800D01*
X122856487Y-76863394D02*
X125552173Y-76863394D01*
X122232720Y-76850750D02*
X122845077Y-76238393D01*
X124827908Y-76238393D02*
X125252172Y-76238393D01*
X104832400Y-87700000D02*
X107589956Y-84942444D01*
X122845077Y-76238393D02*
X124827908Y-76238393D01*
X112143606Y-76850750D02*
X122232720Y-76850750D01*
X107589956Y-81404400D02*
X112143606Y-76850750D01*
X104680000Y-87700000D02*
X104832400Y-87700000D01*
X107589956Y-84942444D02*
X107589956Y-81404400D01*
X122907431Y-75539628D02*
X125645718Y-75539628D01*
X122046320Y-76400739D02*
X122907431Y-75539628D01*
X107139945Y-81218000D02*
X111957206Y-76400739D01*
X104680000Y-85160000D02*
X104832400Y-85160000D01*
X125645718Y-75539628D02*
X125945717Y-75839627D01*
X111957206Y-76400739D02*
X122046320Y-76400739D01*
X107139945Y-82852455D02*
X107139945Y-81218000D01*
X104832400Y-85160000D02*
X107139945Y-82852455D01*
X126355288Y-74640470D02*
X126779552Y-74640470D01*
X108223400Y-73601200D02*
X125316018Y-73601200D01*
X106921032Y-80531368D02*
X106921032Y-74903567D01*
X125316018Y-73601200D02*
X126355288Y-74640470D01*
X106921032Y-74903567D02*
X108223400Y-73601200D01*
X104832400Y-82620000D02*
X106921032Y-80531368D01*
X104680000Y-82620000D02*
X104832400Y-82620000D01*
X107987000Y-73151189D02*
X125502418Y-73151189D01*
X106471021Y-74667168D02*
X107987000Y-73151189D01*
X126151219Y-73799990D02*
X126174639Y-73799990D01*
X104680000Y-80080000D02*
X104832400Y-80080000D01*
X104832400Y-80080000D02*
X106471021Y-78441379D01*
X106471021Y-78441379D02*
X106471021Y-74667168D01*
X125502418Y-73151189D02*
X126151219Y-73799990D01*
X126174639Y-73799990D02*
X126598903Y-73799990D01*
X106021010Y-76351390D02*
X106021010Y-74480768D01*
X104680000Y-77540000D02*
X104832400Y-77540000D01*
X127823135Y-72701178D02*
X127998937Y-72876980D01*
X107800600Y-72701178D02*
X127823135Y-72701178D01*
X106021010Y-74480768D02*
X107800600Y-72701178D01*
X104832400Y-77540000D02*
X106021010Y-76351390D01*
X127998937Y-72876980D02*
X128298936Y-73176979D01*
X104832400Y-75000000D02*
X107581233Y-72251167D01*
X104680000Y-75000000D02*
X104832400Y-75000000D01*
X107581233Y-72251167D02*
X128504506Y-72251167D01*
X128504506Y-72251167D02*
X128563004Y-72309665D01*
X128563004Y-72309665D02*
X128863003Y-72609664D01*
X128590001Y-74250001D02*
X128890000Y-74550000D01*
X129488005Y-72903977D02*
X128590001Y-73801981D01*
X106604844Y-71801156D02*
X128979499Y-71801156D01*
X105946000Y-72460000D02*
X106604844Y-71801156D01*
X129488005Y-72309662D02*
X129488005Y-72903977D01*
X128590001Y-73801981D02*
X128590001Y-74250001D01*
X128979499Y-71801156D02*
X129488005Y-72309662D01*
X104680000Y-72460000D02*
X105946000Y-72460000D01*
X129938016Y-72123262D02*
X129938016Y-73096066D01*
X104680000Y-69920000D02*
X106585145Y-69920000D01*
X129674991Y-73359091D02*
X129674991Y-73613761D01*
X129165899Y-71351145D02*
X129938016Y-72123262D01*
X108016290Y-71351145D02*
X129165899Y-71351145D01*
X106585145Y-69920000D02*
X108016290Y-71351145D01*
X129674991Y-73613761D02*
X129374992Y-73913760D01*
X129938016Y-73096066D02*
X129674991Y-73359091D01*
X130171171Y-73748335D02*
X130171171Y-74172599D01*
X104680000Y-67380000D02*
X104832400Y-67380000D01*
X130171171Y-73499322D02*
X130171171Y-73748335D01*
X130388027Y-73282466D02*
X130171171Y-73499322D01*
X108248334Y-70901134D02*
X129352299Y-70901134D01*
X105946000Y-68598800D02*
X108248334Y-70901134D01*
X105946000Y-68493600D02*
X105946000Y-68598800D01*
X104832400Y-67380000D02*
X105946000Y-68493600D01*
X129352299Y-70901134D02*
X130388027Y-71936862D01*
X130388027Y-71936862D02*
X130388027Y-73282466D01*
X106473367Y-66480967D02*
X106473367Y-68489757D01*
X106473367Y-68489757D02*
X108434733Y-70451123D01*
X130838038Y-71750462D02*
X130838038Y-73487427D01*
X108434733Y-70451123D02*
X129538699Y-70451123D01*
X104832400Y-64840000D02*
X106473367Y-66480967D01*
X104680000Y-64840000D02*
X104832400Y-64840000D01*
X129538699Y-70451123D02*
X130838038Y-71750462D01*
X130838038Y-73487427D02*
X130935184Y-73584573D01*
X131597400Y-73968336D02*
X131490000Y-74075736D01*
X104832400Y-62300000D02*
X106923378Y-64390978D01*
X108621132Y-70001112D02*
X129725099Y-70001112D01*
X104680000Y-62300000D02*
X104832400Y-62300000D01*
X131288049Y-73012434D02*
X131597400Y-73321785D01*
X106923378Y-64390978D02*
X106923378Y-68303358D01*
X129725099Y-70001112D02*
X131288049Y-71564062D01*
X106923378Y-68303358D02*
X108621132Y-70001112D01*
X131288049Y-71564062D02*
X131288049Y-73012434D01*
X131597400Y-73321785D02*
X131597400Y-73968336D01*
X131490000Y-74075736D02*
X131490000Y-74500000D01*
X132870418Y-73483373D02*
X133334109Y-73019682D01*
X133334109Y-72476178D02*
X133034110Y-72176179D01*
X132270414Y-73483373D02*
X132870418Y-73483373D01*
X132047411Y-73260369D02*
X132270414Y-73483373D01*
X132047411Y-73135385D02*
X132047411Y-73260369D01*
X131738060Y-72826035D02*
X132047411Y-73135385D01*
X129911499Y-69551101D02*
X131738060Y-71377662D01*
X131738060Y-71377662D02*
X131738060Y-72826035D01*
X108807531Y-69551101D02*
X129911499Y-69551101D01*
X104680000Y-59760000D02*
X104832400Y-59760000D01*
X107373389Y-68116959D02*
X108807531Y-69551101D01*
X107373389Y-62300989D02*
X107373389Y-68116959D01*
X133334109Y-73019682D02*
X133334109Y-72476178D01*
X104832400Y-59760000D02*
X107373389Y-62300989D01*
X145320000Y-95320000D02*
X145167600Y-95320000D01*
X145167600Y-95320000D02*
X142140000Y-92292400D01*
X142140000Y-92292400D02*
X142140000Y-82100000D01*
X140889223Y-80849223D02*
X129908597Y-80849223D01*
X142140000Y-82100000D02*
X140889223Y-80849223D01*
X129908597Y-80849223D02*
X128549372Y-79489998D01*
X128549372Y-79489998D02*
X128549372Y-78986464D01*
X128549372Y-78986464D02*
X128549372Y-78562200D01*
X145320000Y-92780000D02*
X145167600Y-92780000D01*
X145167600Y-92780000D02*
X142590011Y-90202411D01*
X142590011Y-90202411D02*
X142590011Y-81913600D01*
X142590011Y-81913600D02*
X141075623Y-80399212D01*
X141075623Y-80399212D02*
X130094997Y-80399212D01*
X130094997Y-80399212D02*
X129253706Y-79557921D01*
X129253706Y-79557921D02*
X129253706Y-79552158D01*
X129253706Y-79552158D02*
X129253706Y-79127894D01*
X145320000Y-90240000D02*
X145167600Y-90240000D01*
X145167600Y-90240000D02*
X143040022Y-88112422D01*
X143040022Y-88112422D02*
X143040022Y-81727200D01*
X143040022Y-81727200D02*
X141262024Y-79949202D01*
X141262024Y-79949202D02*
X130281398Y-79949203D01*
X130281398Y-79949203D02*
X130015718Y-79683523D01*
X130015718Y-79683523D02*
X130015718Y-78928758D01*
X130015718Y-78928758D02*
X130015718Y-78504494D01*
X145167600Y-87700000D02*
X143490033Y-86022433D01*
X145320000Y-87700000D02*
X145167600Y-87700000D01*
X141416966Y-79467733D02*
X131232923Y-79467733D01*
X143490033Y-86022433D02*
X143490033Y-81540800D01*
X131135399Y-79370209D02*
X130835400Y-79070210D01*
X143490033Y-81540800D02*
X141416966Y-79467733D01*
X131232923Y-79467733D02*
X131135399Y-79370209D01*
X131914310Y-79017722D02*
X131701093Y-78804505D01*
X141603366Y-79017722D02*
X131914310Y-79017722D01*
X143940044Y-81354400D02*
X141603366Y-79017722D01*
X143940044Y-83932444D02*
X143940044Y-81354400D01*
X145167600Y-85160000D02*
X143940044Y-83932444D01*
X131701093Y-78804505D02*
X131401094Y-78504506D01*
X145320000Y-85160000D02*
X145167600Y-85160000D01*
X132529892Y-78567711D02*
X132513316Y-78551135D01*
X132513316Y-78551135D02*
X132213317Y-78251136D01*
X141789766Y-78567711D02*
X132529892Y-78567711D01*
X145320000Y-82620000D02*
X145320000Y-82097945D01*
X145320000Y-82097945D02*
X141789766Y-78567711D01*
X141976166Y-78117700D02*
X133305570Y-78117700D01*
X133305570Y-78117700D02*
X132988995Y-77801125D01*
X145320000Y-80080000D02*
X143938466Y-80080000D01*
X143938466Y-80080000D02*
X141976166Y-78117700D01*
X134264323Y-77526123D02*
X134031100Y-77292900D01*
X142034877Y-77540000D02*
X142021000Y-77526123D01*
X134031100Y-77292900D02*
X133606836Y-77292900D01*
X145320000Y-77540000D02*
X142034877Y-77540000D01*
X142021000Y-77526123D02*
X134264323Y-77526123D01*
X145320000Y-75000000D02*
X145167600Y-75000000D01*
X136052763Y-76901103D02*
X135628499Y-76901103D01*
X145167600Y-75000000D02*
X143266497Y-76901103D01*
X143266497Y-76901103D02*
X136052763Y-76901103D01*
X133807615Y-76524737D02*
X133383351Y-76524737D01*
X134056251Y-76276101D02*
X133807615Y-76524737D01*
X141709543Y-76276101D02*
X134056251Y-76276101D01*
X145320000Y-72665644D02*
X141709543Y-76276101D01*
X145320000Y-72460000D02*
X145320000Y-72665644D01*
X136347644Y-75651089D02*
X135923380Y-75651089D01*
X141698144Y-75651089D02*
X136347644Y-75651089D01*
X143690023Y-73659210D02*
X141698144Y-75651089D01*
X145167600Y-69920000D02*
X143690023Y-71397577D01*
X145320000Y-69920000D02*
X145167600Y-69920000D01*
X143690023Y-71397577D02*
X143690023Y-73659210D01*
X145167600Y-67380000D02*
X145320000Y-67380000D01*
X143240012Y-73472810D02*
X143240012Y-69307588D01*
X141686734Y-75026088D02*
X143240012Y-73472810D01*
X133863912Y-75026088D02*
X141686734Y-75026088D01*
X133390000Y-75500000D02*
X133863912Y-75026088D01*
X143240012Y-69307588D02*
X145167600Y-67380000D01*
X145320000Y-64840000D02*
X145167600Y-64840000D01*
X141675343Y-74401068D02*
X136347644Y-74401068D01*
X142790001Y-73286410D02*
X141675343Y-74401068D01*
X142790001Y-67217599D02*
X142790001Y-73286410D01*
X136347644Y-74401068D02*
X135923380Y-74401068D01*
X145167600Y-64840000D02*
X142790001Y-67217599D01*
X134849977Y-74550000D02*
X135623910Y-73776067D01*
X141663933Y-73776067D02*
X142339990Y-73100010D01*
X135623910Y-73776067D02*
X141663933Y-73776067D01*
X142339990Y-73100010D02*
X142339990Y-65127610D01*
X142339990Y-65127610D02*
X145167600Y-62300000D01*
X145167600Y-62300000D02*
X145320000Y-62300000D01*
X133340000Y-74550000D02*
X134849977Y-74550000D01*
X141840011Y-63087589D02*
X141840011Y-72659589D01*
X145167600Y-59760000D02*
X141840011Y-63087589D01*
X136347644Y-73151047D02*
X135923380Y-73151047D01*
X145320000Y-59760000D02*
X145167600Y-59760000D01*
X141840011Y-72659589D02*
X141348553Y-73151047D01*
X141348553Y-73151047D02*
X136347644Y-73151047D01*
X145320000Y-57220000D02*
X145167600Y-57220000D01*
X145167600Y-57220000D02*
X141390000Y-60997600D01*
X141390000Y-60997600D02*
X141390000Y-72309600D01*
X141173554Y-72526046D02*
X134711657Y-72526046D01*
X141390000Y-72309600D02*
X141173554Y-72526046D01*
X134711657Y-72526046D02*
X133834028Y-73403675D01*
X133834028Y-73403675D02*
X133534029Y-73703674D01*
X111273400Y-64185220D02*
X109948379Y-62860199D01*
X111273400Y-67026200D02*
X111273400Y-64185220D01*
X109948379Y-62860199D02*
X109648380Y-62560200D01*
X113497664Y-67826200D02*
X113073400Y-67826200D01*
X115273400Y-66050464D02*
X113497664Y-67826200D01*
X115273400Y-55516200D02*
X115273400Y-66050464D01*
X117373400Y-53416200D02*
X115273400Y-55516200D01*
X127340000Y-79100000D02*
X127372700Y-79100000D01*
X133202401Y-87088701D02*
X133202401Y-89628699D01*
X127372700Y-79100000D02*
X129628900Y-81356200D01*
X132413652Y-82997952D02*
X132413652Y-86299952D01*
X129628900Y-81356200D02*
X130771900Y-81356200D01*
X130771900Y-81356200D02*
X132413652Y-82997952D01*
X133202401Y-89628699D02*
X133502400Y-89928698D01*
X132413652Y-86299952D02*
X133202401Y-87088701D01*
X113373399Y-66726201D02*
X113073400Y-67026200D01*
X114823389Y-54503841D02*
X114823389Y-65276211D01*
X114833400Y-54493830D02*
X114823389Y-54503841D01*
X114833400Y-53416200D02*
X114833400Y-54493830D01*
X114823389Y-65276211D02*
X113373399Y-66726201D01*
X127040000Y-75900000D02*
X127040000Y-78800000D01*
X127040000Y-78800000D02*
X127340000Y-79100000D01*
D21*
G36*
X146646142Y-51025858D02*
X148041676Y-51958323D01*
X148974142Y-53353856D01*
X149315000Y-55067467D01*
X149315000Y-94932533D01*
X148974142Y-96646144D01*
X148041676Y-98041677D01*
X146646142Y-98974142D01*
X144932533Y-99315000D01*
X105067467Y-99315000D01*
X103353856Y-98974142D01*
X101958323Y-98041676D01*
X101025858Y-96646142D01*
X100685000Y-94932533D01*
X100685000Y-59760000D01*
X102996655Y-59760000D01*
X103110729Y-60333489D01*
X103435585Y-60819670D01*
X103750366Y-61030000D01*
X103435585Y-61240330D01*
X103110729Y-61726511D01*
X102996655Y-62300000D01*
X103110729Y-62873489D01*
X103435585Y-63359670D01*
X103750366Y-63570000D01*
X103435585Y-63780330D01*
X103110729Y-64266511D01*
X102996655Y-64840000D01*
X103110729Y-65413489D01*
X103435585Y-65899670D01*
X103750366Y-66110000D01*
X103435585Y-66320330D01*
X103110729Y-66806511D01*
X102996655Y-67380000D01*
X103110729Y-67953489D01*
X103435585Y-68439670D01*
X103750366Y-68650000D01*
X103435585Y-68860330D01*
X103110729Y-69346511D01*
X102996655Y-69920000D01*
X103110729Y-70493489D01*
X103435585Y-70979670D01*
X103750366Y-71190000D01*
X103435585Y-71400330D01*
X103110729Y-71886511D01*
X102996655Y-72460000D01*
X103110729Y-73033489D01*
X103435585Y-73519670D01*
X103750366Y-73730000D01*
X103435585Y-73940330D01*
X103110729Y-74426511D01*
X102996655Y-75000000D01*
X103110729Y-75573489D01*
X103435585Y-76059670D01*
X103750366Y-76270000D01*
X103435585Y-76480330D01*
X103110729Y-76966511D01*
X102996655Y-77540000D01*
X103110729Y-78113489D01*
X103435585Y-78599670D01*
X103750366Y-78810000D01*
X103435585Y-79020330D01*
X103110729Y-79506511D01*
X102996655Y-80080000D01*
X103110729Y-80653489D01*
X103435585Y-81139670D01*
X103750366Y-81350000D01*
X103435585Y-81560330D01*
X103110729Y-82046511D01*
X102996655Y-82620000D01*
X103110729Y-83193489D01*
X103435585Y-83679670D01*
X103750366Y-83890000D01*
X103435585Y-84100330D01*
X103110729Y-84586511D01*
X102996655Y-85160000D01*
X103110729Y-85733489D01*
X103435585Y-86219670D01*
X103750366Y-86430000D01*
X103435585Y-86640330D01*
X103110729Y-87126511D01*
X102996655Y-87700000D01*
X103110729Y-88273489D01*
X103435585Y-88759670D01*
X103750366Y-88970000D01*
X103435585Y-89180330D01*
X103110729Y-89666511D01*
X102996655Y-90240000D01*
X103110729Y-90813489D01*
X103435585Y-91299670D01*
X103750366Y-91510000D01*
X103435585Y-91720330D01*
X103110729Y-92206511D01*
X102996655Y-92780000D01*
X103110729Y-93353489D01*
X103435585Y-93839670D01*
X103750366Y-94050000D01*
X103435585Y-94260330D01*
X103110729Y-94746511D01*
X102996655Y-95320000D01*
X103110729Y-95893489D01*
X103435585Y-96379670D01*
X103921766Y-96704526D01*
X104495255Y-96818600D01*
X104864745Y-96818600D01*
X105438234Y-96704526D01*
X105924415Y-96379670D01*
X106249271Y-95893489D01*
X106363345Y-95320000D01*
X106293010Y-94966400D01*
X106947190Y-94966400D01*
X107238029Y-94908548D01*
X107484591Y-94743801D01*
X109477390Y-92751002D01*
X109642137Y-92504441D01*
X109699989Y-92213601D01*
X109699989Y-90834791D01*
X109954878Y-91089680D01*
X109954838Y-91135167D01*
X110096883Y-91478943D01*
X110359673Y-91742192D01*
X110703201Y-91884838D01*
X111075167Y-91885162D01*
X111418943Y-91743117D01*
X111682192Y-91480327D01*
X111824838Y-91136799D01*
X111825162Y-90764833D01*
X111683117Y-90421057D01*
X111420327Y-90157808D01*
X111076799Y-90015162D01*
X111029923Y-90015121D01*
X110687539Y-89672737D01*
X110774838Y-89462499D01*
X110775162Y-89090533D01*
X110633117Y-88746757D01*
X110370327Y-88483508D01*
X110026799Y-88340862D01*
X109699989Y-88340577D01*
X109699989Y-88044296D01*
X109749159Y-88077150D01*
X110039998Y-88135002D01*
X110714998Y-88135002D01*
X111005837Y-88077150D01*
X111252399Y-87912403D01*
X111629680Y-87535122D01*
X111675167Y-87535162D01*
X112018943Y-87393117D01*
X112282192Y-87130327D01*
X112424838Y-86786799D01*
X112425162Y-86414833D01*
X112283117Y-86071057D01*
X112020327Y-85807808D01*
X111676799Y-85665162D01*
X111304833Y-85664838D01*
X110961057Y-85806883D01*
X110827629Y-85940078D01*
X110750000Y-85907844D01*
X110750000Y-82764802D01*
X113404802Y-80110000D01*
X123527537Y-80110000D01*
X123559673Y-80142192D01*
X123903201Y-80284838D01*
X124275167Y-80285162D01*
X124618943Y-80143117D01*
X124882192Y-79880327D01*
X125021063Y-79545890D01*
X125267872Y-79443911D01*
X125531121Y-79181121D01*
X125560989Y-79109192D01*
X125566528Y-79109197D01*
X125910304Y-78967152D01*
X126173553Y-78704362D01*
X126280000Y-78448010D01*
X126280000Y-78800000D01*
X126337852Y-79090839D01*
X126404920Y-79191213D01*
X126404838Y-79285167D01*
X126546883Y-79628943D01*
X126809673Y-79892192D01*
X127153201Y-80034838D01*
X127232805Y-80034907D01*
X129091499Y-81893601D01*
X129338061Y-82058348D01*
X129628900Y-82116200D01*
X130457098Y-82116200D01*
X131653652Y-83312754D01*
X131653652Y-86299952D01*
X131711504Y-86590791D01*
X131876251Y-86837353D01*
X132442401Y-87403503D01*
X132442401Y-89628699D01*
X132500253Y-89919538D01*
X132567320Y-90019911D01*
X132567238Y-90113865D01*
X132709283Y-90457641D01*
X132972073Y-90720890D01*
X133315601Y-90863536D01*
X133687567Y-90863860D01*
X134031343Y-90721815D01*
X134294592Y-90459025D01*
X134437238Y-90115497D01*
X134437562Y-89743531D01*
X134295517Y-89399755D01*
X134032727Y-89136506D01*
X133962401Y-89107304D01*
X133962401Y-87088701D01*
X133904549Y-86797862D01*
X133739802Y-86551300D01*
X133173652Y-85985150D01*
X133173652Y-82997952D01*
X133115800Y-82707113D01*
X132951053Y-82460551D01*
X132099725Y-81609223D01*
X140574421Y-81609223D01*
X141380000Y-82414802D01*
X141380000Y-92292400D01*
X141437852Y-92583239D01*
X141602599Y-92829801D01*
X143656560Y-94883762D01*
X143656560Y-96183600D01*
X143700838Y-96418917D01*
X143839910Y-96635041D01*
X144052110Y-96780031D01*
X144304000Y-96831040D01*
X146336000Y-96831040D01*
X146571317Y-96786762D01*
X146787441Y-96647690D01*
X146932431Y-96435490D01*
X146983440Y-96183600D01*
X146983440Y-94456400D01*
X146939162Y-94221083D01*
X146800090Y-94004959D01*
X146587890Y-93859969D01*
X146546561Y-93851600D01*
X146564415Y-93839670D01*
X146889271Y-93353489D01*
X147003345Y-92780000D01*
X146889271Y-92206511D01*
X146564415Y-91720330D01*
X146249634Y-91510000D01*
X146564415Y-91299670D01*
X146889271Y-90813489D01*
X147003345Y-90240000D01*
X146889271Y-89666511D01*
X146564415Y-89180330D01*
X146249634Y-88970000D01*
X146564415Y-88759670D01*
X146889271Y-88273489D01*
X147003345Y-87700000D01*
X146889271Y-87126511D01*
X146564415Y-86640330D01*
X146249634Y-86430000D01*
X146564415Y-86219670D01*
X146889271Y-85733489D01*
X147003345Y-85160000D01*
X146889271Y-84586511D01*
X146564415Y-84100330D01*
X146249634Y-83890000D01*
X146564415Y-83679670D01*
X146889271Y-83193489D01*
X147003345Y-82620000D01*
X146889271Y-82046511D01*
X146564415Y-81560330D01*
X146249634Y-81350000D01*
X146564415Y-81139670D01*
X146889271Y-80653489D01*
X147003345Y-80080000D01*
X146889271Y-79506511D01*
X146564415Y-79020330D01*
X146249634Y-78810000D01*
X146564415Y-78599670D01*
X146889271Y-78113489D01*
X147003345Y-77540000D01*
X146889271Y-76966511D01*
X146564415Y-76480330D01*
X146249634Y-76270000D01*
X146564415Y-76059670D01*
X146889271Y-75573489D01*
X147003345Y-75000000D01*
X146889271Y-74426511D01*
X146564415Y-73940330D01*
X146249634Y-73730000D01*
X146564415Y-73519670D01*
X146889271Y-73033489D01*
X147003345Y-72460000D01*
X146889271Y-71886511D01*
X146564415Y-71400330D01*
X146249634Y-71190000D01*
X146564415Y-70979670D01*
X146889271Y-70493489D01*
X147003345Y-69920000D01*
X146889271Y-69346511D01*
X146564415Y-68860330D01*
X146249634Y-68650000D01*
X146564415Y-68439670D01*
X146889271Y-67953489D01*
X147003345Y-67380000D01*
X146889271Y-66806511D01*
X146564415Y-66320330D01*
X146249634Y-66110000D01*
X146564415Y-65899670D01*
X146889271Y-65413489D01*
X147003345Y-64840000D01*
X146889271Y-64266511D01*
X146564415Y-63780330D01*
X146249634Y-63570000D01*
X146564415Y-63359670D01*
X146889271Y-62873489D01*
X147003345Y-62300000D01*
X146889271Y-61726511D01*
X146564415Y-61240330D01*
X146249634Y-61030000D01*
X146564415Y-60819670D01*
X146889271Y-60333489D01*
X147003345Y-59760000D01*
X146889271Y-59186511D01*
X146564415Y-58700330D01*
X146249634Y-58490000D01*
X146564415Y-58279670D01*
X146889271Y-57793489D01*
X147003345Y-57220000D01*
X146889271Y-56646511D01*
X146564415Y-56160330D01*
X146078234Y-55835474D01*
X145504745Y-55721400D01*
X145135255Y-55721400D01*
X144561766Y-55835474D01*
X144075585Y-56160330D01*
X143750729Y-56646511D01*
X143636655Y-57220000D01*
X143712334Y-57600464D01*
X140852599Y-60460199D01*
X140687852Y-60706761D01*
X140630000Y-60997600D01*
X140630000Y-71766046D01*
X134711657Y-71766046D01*
X134420818Y-71823898D01*
X134174256Y-71988645D01*
X134012747Y-72150154D01*
X133969190Y-72084966D01*
X133969272Y-71991012D01*
X133827227Y-71647236D01*
X133564437Y-71383987D01*
X133220909Y-71241341D01*
X132948071Y-71241103D01*
X132948071Y-71191262D01*
X132890219Y-70900423D01*
X132725472Y-70653861D01*
X130510311Y-68438700D01*
X130263749Y-68273953D01*
X129972910Y-68216101D01*
X119792845Y-68216101D01*
X119792845Y-60023241D01*
X119802343Y-60019317D01*
X120065592Y-59756527D01*
X120208238Y-59412999D01*
X120208462Y-59155701D01*
X124239869Y-59155701D01*
X124381914Y-59499477D01*
X124415031Y-59532652D01*
X124415031Y-63614493D01*
X124472883Y-63905332D01*
X124637630Y-64151894D01*
X126422927Y-65937191D01*
X126422887Y-65982678D01*
X126564932Y-66326454D01*
X126827722Y-66589703D01*
X127171250Y-66732349D01*
X127543216Y-66732673D01*
X127693647Y-66670516D01*
X127969522Y-66785070D01*
X128341488Y-66785394D01*
X128598648Y-66679138D01*
X128853201Y-66784838D01*
X129225167Y-66785162D01*
X129568943Y-66643117D01*
X129832192Y-66380327D01*
X129974838Y-66036799D01*
X129975162Y-65664833D01*
X129833117Y-65321057D01*
X129570327Y-65057808D01*
X129226799Y-64915162D01*
X129179923Y-64915121D01*
X127258400Y-62993598D01*
X127258400Y-60601610D01*
X127309572Y-60550527D01*
X127452218Y-60206999D01*
X127452542Y-59835033D01*
X127310497Y-59491257D01*
X127047707Y-59228008D01*
X126704179Y-59085362D01*
X126584409Y-59085258D01*
X126584409Y-59037286D01*
X126616601Y-59005150D01*
X126759247Y-58661622D01*
X126759571Y-58289656D01*
X126617526Y-57945880D01*
X126354736Y-57682631D01*
X126011208Y-57539985D01*
X125639242Y-57539661D01*
X125295466Y-57681706D01*
X125032217Y-57944496D01*
X124994480Y-58035376D01*
X124989864Y-58035372D01*
X124646088Y-58177417D01*
X124382839Y-58440207D01*
X124240193Y-58783735D01*
X124239869Y-59155701D01*
X120208462Y-59155701D01*
X120208562Y-59041033D01*
X120066517Y-58697257D01*
X119803727Y-58434008D01*
X119460199Y-58291362D01*
X119088233Y-58291038D01*
X118744457Y-58433083D01*
X118481208Y-58695873D01*
X118338562Y-59039401D01*
X118338453Y-59164308D01*
X118330697Y-59175916D01*
X118272845Y-59466755D01*
X118272845Y-68216101D01*
X114182565Y-68216101D01*
X115810801Y-66587865D01*
X115975548Y-66341303D01*
X116033400Y-66050464D01*
X116033400Y-55831002D01*
X117064019Y-54800383D01*
X117094300Y-54812957D01*
X117650061Y-54813442D01*
X118163703Y-54601210D01*
X118557029Y-54208570D01*
X118770157Y-53695300D01*
X118770642Y-53139539D01*
X118731329Y-53044393D01*
X141376400Y-53044393D01*
X141376400Y-53788007D01*
X141482740Y-54322616D01*
X141785572Y-54775835D01*
X142238791Y-55078667D01*
X142773400Y-55185007D01*
X143308009Y-55078667D01*
X143761228Y-54775835D01*
X143916400Y-54543604D01*
X143916400Y-54642330D01*
X144013073Y-54875719D01*
X144191702Y-55054347D01*
X144425091Y-55151020D01*
X145027650Y-55151020D01*
X145186400Y-54992270D01*
X145186400Y-53543200D01*
X145440400Y-53543200D01*
X145440400Y-54992270D01*
X145599150Y-55151020D01*
X146201709Y-55151020D01*
X146435098Y-55054347D01*
X146613727Y-54875719D01*
X146710400Y-54642330D01*
X146710400Y-53701950D01*
X146551650Y-53543200D01*
X145440400Y-53543200D01*
X145186400Y-53543200D01*
X145166400Y-53543200D01*
X145166400Y-53289200D01*
X145186400Y-53289200D01*
X145186400Y-51840130D01*
X145440400Y-51840130D01*
X145440400Y-53289200D01*
X146551650Y-53289200D01*
X146710400Y-53130450D01*
X146710400Y-52190070D01*
X146613727Y-51956681D01*
X146435098Y-51778053D01*
X146201709Y-51681380D01*
X145599150Y-51681380D01*
X145440400Y-51840130D01*
X145186400Y-51840130D01*
X145027650Y-51681380D01*
X144425091Y-51681380D01*
X144191702Y-51778053D01*
X144013073Y-51956681D01*
X143916400Y-52190070D01*
X143916400Y-52288796D01*
X143761228Y-52056565D01*
X143308009Y-51753733D01*
X142773400Y-51647393D01*
X142238791Y-51753733D01*
X141785572Y-52056565D01*
X141482740Y-52509784D01*
X141376400Y-53044393D01*
X118731329Y-53044393D01*
X118558410Y-52625897D01*
X118165770Y-52232571D01*
X117652500Y-52019443D01*
X117096739Y-52018958D01*
X116583097Y-52231190D01*
X116189771Y-52623830D01*
X116103451Y-52831712D01*
X116018410Y-52625897D01*
X115625770Y-52232571D01*
X115112500Y-52019443D01*
X114556739Y-52018958D01*
X114043097Y-52231190D01*
X113649771Y-52623830D01*
X113563451Y-52831712D01*
X113478410Y-52625897D01*
X113085770Y-52232571D01*
X112572500Y-52019443D01*
X112016739Y-52018958D01*
X111503097Y-52231190D01*
X111109771Y-52623830D01*
X111030005Y-52815927D01*
X110975797Y-52685057D01*
X110733613Y-52615592D01*
X109933005Y-53416200D01*
X110733613Y-54216808D01*
X110975797Y-54147343D01*
X111025909Y-54006882D01*
X111108390Y-54206503D01*
X111501030Y-54599829D01*
X112014300Y-54812957D01*
X112570061Y-54813442D01*
X112602455Y-54800057D01*
X113428420Y-55626022D01*
X113428420Y-57263737D01*
X113396228Y-57295873D01*
X113253582Y-57639401D01*
X113253258Y-58011367D01*
X113395303Y-58355143D01*
X113658093Y-58618392D01*
X114001621Y-58761038D01*
X114063389Y-58761092D01*
X114063389Y-64961409D01*
X113033387Y-65991411D01*
X113033387Y-58476187D01*
X112994297Y-58279670D01*
X112975535Y-58185347D01*
X112810788Y-57938786D01*
X109690118Y-54818116D01*
X110100768Y-54797562D01*
X110484543Y-54638597D01*
X110554008Y-54396413D01*
X109753400Y-53595805D01*
X109739258Y-53609948D01*
X109559653Y-53430343D01*
X109573795Y-53416200D01*
X108773187Y-52615592D01*
X108531003Y-52685057D01*
X108480891Y-52825518D01*
X108398410Y-52625897D01*
X108208832Y-52435987D01*
X108952792Y-52435987D01*
X109753400Y-53236595D01*
X110554008Y-52435987D01*
X110484543Y-52193803D01*
X109961098Y-52007056D01*
X109406032Y-52034838D01*
X109022257Y-52193803D01*
X108952792Y-52435987D01*
X108208832Y-52435987D01*
X108005770Y-52232571D01*
X107492500Y-52019443D01*
X106936739Y-52018958D01*
X106423097Y-52231190D01*
X106069637Y-52584033D01*
X106038562Y-52418883D01*
X105899490Y-52202759D01*
X105687290Y-52057769D01*
X105435400Y-52006760D01*
X103911400Y-52006760D01*
X103676083Y-52051038D01*
X103459959Y-52190110D01*
X103314969Y-52402310D01*
X103263960Y-52654200D01*
X103263960Y-54178200D01*
X103308238Y-54413517D01*
X103447310Y-54629641D01*
X103659510Y-54774631D01*
X103911400Y-54825640D01*
X105435400Y-54825640D01*
X105670717Y-54781362D01*
X105886841Y-54642290D01*
X106031831Y-54430090D01*
X106068892Y-54247076D01*
X106421030Y-54599829D01*
X106934300Y-54812957D01*
X107490061Y-54813442D01*
X107522455Y-54800057D01*
X111513387Y-58790989D01*
X111513387Y-63350405D01*
X110583502Y-62420520D01*
X110583542Y-62375033D01*
X110441497Y-62031257D01*
X110178707Y-61768008D01*
X109835179Y-61625362D01*
X109463213Y-61625038D01*
X109119437Y-61767083D01*
X108856188Y-62029873D01*
X108713542Y-62373401D01*
X108713218Y-62745367D01*
X108855263Y-63089143D01*
X109118053Y-63352392D01*
X109461581Y-63495038D01*
X109508457Y-63495079D01*
X110513400Y-64500022D01*
X110513400Y-66463737D01*
X110481208Y-66495873D01*
X110338562Y-66839401D01*
X110338238Y-67211367D01*
X110480283Y-67555143D01*
X110743073Y-67818392D01*
X111086601Y-67961038D01*
X111458567Y-67961362D01*
X111773745Y-67831134D01*
X112086588Y-67961038D01*
X112138282Y-67961083D01*
X112138238Y-68011367D01*
X112222832Y-68216101D01*
X109188103Y-68216101D01*
X108583400Y-67611398D01*
X108583400Y-60211000D01*
X108525548Y-59920161D01*
X108360801Y-59673599D01*
X106343440Y-57656238D01*
X106343440Y-56356400D01*
X106299162Y-56121083D01*
X106160090Y-55904959D01*
X105947890Y-55759969D01*
X105696000Y-55708960D01*
X103664000Y-55708960D01*
X103428683Y-55753238D01*
X103212559Y-55892310D01*
X103067569Y-56104510D01*
X103016560Y-56356400D01*
X103016560Y-58083600D01*
X103060838Y-58318917D01*
X103199910Y-58535041D01*
X103412110Y-58680031D01*
X103453439Y-58688400D01*
X103435585Y-58700330D01*
X103110729Y-59186511D01*
X102996655Y-59760000D01*
X100685000Y-59760000D01*
X100685000Y-55067467D01*
X101025858Y-53353858D01*
X101958323Y-51958324D01*
X103353856Y-51025858D01*
X105067467Y-50685000D01*
X144932533Y-50685000D01*
X146646142Y-51025858D01*
X146646142Y-51025858D01*
G37*
X146646142Y-51025858D02*
X148041676Y-51958323D01*
X148974142Y-53353856D01*
X149315000Y-55067467D01*
X149315000Y-94932533D01*
X148974142Y-96646144D01*
X148041676Y-98041677D01*
X146646142Y-98974142D01*
X144932533Y-99315000D01*
X105067467Y-99315000D01*
X103353856Y-98974142D01*
X101958323Y-98041676D01*
X101025858Y-96646142D01*
X100685000Y-94932533D01*
X100685000Y-59760000D01*
X102996655Y-59760000D01*
X103110729Y-60333489D01*
X103435585Y-60819670D01*
X103750366Y-61030000D01*
X103435585Y-61240330D01*
X103110729Y-61726511D01*
X102996655Y-62300000D01*
X103110729Y-62873489D01*
X103435585Y-63359670D01*
X103750366Y-63570000D01*
X103435585Y-63780330D01*
X103110729Y-64266511D01*
X102996655Y-64840000D01*
X103110729Y-65413489D01*
X103435585Y-65899670D01*
X103750366Y-66110000D01*
X103435585Y-66320330D01*
X103110729Y-66806511D01*
X102996655Y-67380000D01*
X103110729Y-67953489D01*
X103435585Y-68439670D01*
X103750366Y-68650000D01*
X103435585Y-68860330D01*
X103110729Y-69346511D01*
X102996655Y-69920000D01*
X103110729Y-70493489D01*
X103435585Y-70979670D01*
X103750366Y-71190000D01*
X103435585Y-71400330D01*
X103110729Y-71886511D01*
X102996655Y-72460000D01*
X103110729Y-73033489D01*
X103435585Y-73519670D01*
X103750366Y-73730000D01*
X103435585Y-73940330D01*
X103110729Y-74426511D01*
X102996655Y-75000000D01*
X103110729Y-75573489D01*
X103435585Y-76059670D01*
X103750366Y-76270000D01*
X103435585Y-76480330D01*
X103110729Y-76966511D01*
X102996655Y-77540000D01*
X103110729Y-78113489D01*
X103435585Y-78599670D01*
X103750366Y-78810000D01*
X103435585Y-79020330D01*
X103110729Y-79506511D01*
X102996655Y-80080000D01*
X103110729Y-80653489D01*
X103435585Y-81139670D01*
X103750366Y-81350000D01*
X103435585Y-81560330D01*
X103110729Y-82046511D01*
X102996655Y-82620000D01*
X103110729Y-83193489D01*
X103435585Y-83679670D01*
X103750366Y-83890000D01*
X103435585Y-84100330D01*
X103110729Y-84586511D01*
X102996655Y-85160000D01*
X103110729Y-85733489D01*
X103435585Y-86219670D01*
X103750366Y-86430000D01*
X103435585Y-86640330D01*
X103110729Y-87126511D01*
X102996655Y-87700000D01*
X103110729Y-88273489D01*
X103435585Y-88759670D01*
X103750366Y-88970000D01*
X103435585Y-89180330D01*
X103110729Y-89666511D01*
X102996655Y-90240000D01*
X103110729Y-90813489D01*
X103435585Y-91299670D01*
X103750366Y-91510000D01*
X103435585Y-91720330D01*
X103110729Y-92206511D01*
X102996655Y-92780000D01*
X103110729Y-93353489D01*
X103435585Y-93839670D01*
X103750366Y-94050000D01*
X103435585Y-94260330D01*
X103110729Y-94746511D01*
X102996655Y-95320000D01*
X103110729Y-95893489D01*
X103435585Y-96379670D01*
X103921766Y-96704526D01*
X104495255Y-96818600D01*
X104864745Y-96818600D01*
X105438234Y-96704526D01*
X105924415Y-96379670D01*
X106249271Y-95893489D01*
X106363345Y-95320000D01*
X106293010Y-94966400D01*
X106947190Y-94966400D01*
X107238029Y-94908548D01*
X107484591Y-94743801D01*
X109477390Y-92751002D01*
X109642137Y-92504441D01*
X109699989Y-92213601D01*
X109699989Y-90834791D01*
X109954878Y-91089680D01*
X109954838Y-91135167D01*
X110096883Y-91478943D01*
X110359673Y-91742192D01*
X110703201Y-91884838D01*
X111075167Y-91885162D01*
X111418943Y-91743117D01*
X111682192Y-91480327D01*
X111824838Y-91136799D01*
X111825162Y-90764833D01*
X111683117Y-90421057D01*
X111420327Y-90157808D01*
X111076799Y-90015162D01*
X111029923Y-90015121D01*
X110687539Y-89672737D01*
X110774838Y-89462499D01*
X110775162Y-89090533D01*
X110633117Y-88746757D01*
X110370327Y-88483508D01*
X110026799Y-88340862D01*
X109699989Y-88340577D01*
X109699989Y-88044296D01*
X109749159Y-88077150D01*
X110039998Y-88135002D01*
X110714998Y-88135002D01*
X111005837Y-88077150D01*
X111252399Y-87912403D01*
X111629680Y-87535122D01*
X111675167Y-87535162D01*
X112018943Y-87393117D01*
X112282192Y-87130327D01*
X112424838Y-86786799D01*
X112425162Y-86414833D01*
X112283117Y-86071057D01*
X112020327Y-85807808D01*
X111676799Y-85665162D01*
X111304833Y-85664838D01*
X110961057Y-85806883D01*
X110827629Y-85940078D01*
X110750000Y-85907844D01*
X110750000Y-82764802D01*
X113404802Y-80110000D01*
X123527537Y-80110000D01*
X123559673Y-80142192D01*
X123903201Y-80284838D01*
X124275167Y-80285162D01*
X124618943Y-80143117D01*
X124882192Y-79880327D01*
X125021063Y-79545890D01*
X125267872Y-79443911D01*
X125531121Y-79181121D01*
X125560989Y-79109192D01*
X125566528Y-79109197D01*
X125910304Y-78967152D01*
X126173553Y-78704362D01*
X126280000Y-78448010D01*
X126280000Y-78800000D01*
X126337852Y-79090839D01*
X126404920Y-79191213D01*
X126404838Y-79285167D01*
X126546883Y-79628943D01*
X126809673Y-79892192D01*
X127153201Y-80034838D01*
X127232805Y-80034907D01*
X129091499Y-81893601D01*
X129338061Y-82058348D01*
X129628900Y-82116200D01*
X130457098Y-82116200D01*
X131653652Y-83312754D01*
X131653652Y-86299952D01*
X131711504Y-86590791D01*
X131876251Y-86837353D01*
X132442401Y-87403503D01*
X132442401Y-89628699D01*
X132500253Y-89919538D01*
X132567320Y-90019911D01*
X132567238Y-90113865D01*
X132709283Y-90457641D01*
X132972073Y-90720890D01*
X133315601Y-90863536D01*
X133687567Y-90863860D01*
X134031343Y-90721815D01*
X134294592Y-90459025D01*
X134437238Y-90115497D01*
X134437562Y-89743531D01*
X134295517Y-89399755D01*
X134032727Y-89136506D01*
X133962401Y-89107304D01*
X133962401Y-87088701D01*
X133904549Y-86797862D01*
X133739802Y-86551300D01*
X133173652Y-85985150D01*
X133173652Y-82997952D01*
X133115800Y-82707113D01*
X132951053Y-82460551D01*
X132099725Y-81609223D01*
X140574421Y-81609223D01*
X141380000Y-82414802D01*
X141380000Y-92292400D01*
X141437852Y-92583239D01*
X141602599Y-92829801D01*
X143656560Y-94883762D01*
X143656560Y-96183600D01*
X143700838Y-96418917D01*
X143839910Y-96635041D01*
X144052110Y-96780031D01*
X144304000Y-96831040D01*
X146336000Y-96831040D01*
X146571317Y-96786762D01*
X146787441Y-96647690D01*
X146932431Y-96435490D01*
X146983440Y-96183600D01*
X146983440Y-94456400D01*
X146939162Y-94221083D01*
X146800090Y-94004959D01*
X146587890Y-93859969D01*
X146546561Y-93851600D01*
X146564415Y-93839670D01*
X146889271Y-93353489D01*
X147003345Y-92780000D01*
X146889271Y-92206511D01*
X146564415Y-91720330D01*
X146249634Y-91510000D01*
X146564415Y-91299670D01*
X146889271Y-90813489D01*
X147003345Y-90240000D01*
X146889271Y-89666511D01*
X146564415Y-89180330D01*
X146249634Y-88970000D01*
X146564415Y-88759670D01*
X146889271Y-88273489D01*
X147003345Y-87700000D01*
X146889271Y-87126511D01*
X146564415Y-86640330D01*
X146249634Y-86430000D01*
X146564415Y-86219670D01*
X146889271Y-85733489D01*
X147003345Y-85160000D01*
X146889271Y-84586511D01*
X146564415Y-84100330D01*
X146249634Y-83890000D01*
X146564415Y-83679670D01*
X146889271Y-83193489D01*
X147003345Y-82620000D01*
X146889271Y-82046511D01*
X146564415Y-81560330D01*
X146249634Y-81350000D01*
X146564415Y-81139670D01*
X146889271Y-80653489D01*
X147003345Y-80080000D01*
X146889271Y-79506511D01*
X146564415Y-79020330D01*
X146249634Y-78810000D01*
X146564415Y-78599670D01*
X146889271Y-78113489D01*
X147003345Y-77540000D01*
X146889271Y-76966511D01*
X146564415Y-76480330D01*
X146249634Y-76270000D01*
X146564415Y-76059670D01*
X146889271Y-75573489D01*
X147003345Y-75000000D01*
X146889271Y-74426511D01*
X146564415Y-73940330D01*
X146249634Y-73730000D01*
X146564415Y-73519670D01*
X146889271Y-73033489D01*
X147003345Y-72460000D01*
X146889271Y-71886511D01*
X146564415Y-71400330D01*
X146249634Y-71190000D01*
X146564415Y-70979670D01*
X146889271Y-70493489D01*
X147003345Y-69920000D01*
X146889271Y-69346511D01*
X146564415Y-68860330D01*
X146249634Y-68650000D01*
X146564415Y-68439670D01*
X146889271Y-67953489D01*
X147003345Y-67380000D01*
X146889271Y-66806511D01*
X146564415Y-66320330D01*
X146249634Y-66110000D01*
X146564415Y-65899670D01*
X146889271Y-65413489D01*
X147003345Y-64840000D01*
X146889271Y-64266511D01*
X146564415Y-63780330D01*
X146249634Y-63570000D01*
X146564415Y-63359670D01*
X146889271Y-62873489D01*
X147003345Y-62300000D01*
X146889271Y-61726511D01*
X146564415Y-61240330D01*
X146249634Y-61030000D01*
X146564415Y-60819670D01*
X146889271Y-60333489D01*
X147003345Y-59760000D01*
X146889271Y-59186511D01*
X146564415Y-58700330D01*
X146249634Y-58490000D01*
X146564415Y-58279670D01*
X146889271Y-57793489D01*
X147003345Y-57220000D01*
X146889271Y-56646511D01*
X146564415Y-56160330D01*
X146078234Y-55835474D01*
X145504745Y-55721400D01*
X145135255Y-55721400D01*
X144561766Y-55835474D01*
X144075585Y-56160330D01*
X143750729Y-56646511D01*
X143636655Y-57220000D01*
X143712334Y-57600464D01*
X140852599Y-60460199D01*
X140687852Y-60706761D01*
X140630000Y-60997600D01*
X140630000Y-71766046D01*
X134711657Y-71766046D01*
X134420818Y-71823898D01*
X134174256Y-71988645D01*
X134012747Y-72150154D01*
X133969190Y-72084966D01*
X133969272Y-71991012D01*
X133827227Y-71647236D01*
X133564437Y-71383987D01*
X133220909Y-71241341D01*
X132948071Y-71241103D01*
X132948071Y-71191262D01*
X132890219Y-70900423D01*
X132725472Y-70653861D01*
X130510311Y-68438700D01*
X130263749Y-68273953D01*
X129972910Y-68216101D01*
X119792845Y-68216101D01*
X119792845Y-60023241D01*
X119802343Y-60019317D01*
X120065592Y-59756527D01*
X120208238Y-59412999D01*
X120208462Y-59155701D01*
X124239869Y-59155701D01*
X124381914Y-59499477D01*
X124415031Y-59532652D01*
X124415031Y-63614493D01*
X124472883Y-63905332D01*
X124637630Y-64151894D01*
X126422927Y-65937191D01*
X126422887Y-65982678D01*
X126564932Y-66326454D01*
X126827722Y-66589703D01*
X127171250Y-66732349D01*
X127543216Y-66732673D01*
X127693647Y-66670516D01*
X127969522Y-66785070D01*
X128341488Y-66785394D01*
X128598648Y-66679138D01*
X128853201Y-66784838D01*
X129225167Y-66785162D01*
X129568943Y-66643117D01*
X129832192Y-66380327D01*
X129974838Y-66036799D01*
X129975162Y-65664833D01*
X129833117Y-65321057D01*
X129570327Y-65057808D01*
X129226799Y-64915162D01*
X129179923Y-64915121D01*
X127258400Y-62993598D01*
X127258400Y-60601610D01*
X127309572Y-60550527D01*
X127452218Y-60206999D01*
X127452542Y-59835033D01*
X127310497Y-59491257D01*
X127047707Y-59228008D01*
X126704179Y-59085362D01*
X126584409Y-59085258D01*
X126584409Y-59037286D01*
X126616601Y-59005150D01*
X126759247Y-58661622D01*
X126759571Y-58289656D01*
X126617526Y-57945880D01*
X126354736Y-57682631D01*
X126011208Y-57539985D01*
X125639242Y-57539661D01*
X125295466Y-57681706D01*
X125032217Y-57944496D01*
X124994480Y-58035376D01*
X124989864Y-58035372D01*
X124646088Y-58177417D01*
X124382839Y-58440207D01*
X124240193Y-58783735D01*
X124239869Y-59155701D01*
X120208462Y-59155701D01*
X120208562Y-59041033D01*
X120066517Y-58697257D01*
X119803727Y-58434008D01*
X119460199Y-58291362D01*
X119088233Y-58291038D01*
X118744457Y-58433083D01*
X118481208Y-58695873D01*
X118338562Y-59039401D01*
X118338453Y-59164308D01*
X118330697Y-59175916D01*
X118272845Y-59466755D01*
X118272845Y-68216101D01*
X114182565Y-68216101D01*
X115810801Y-66587865D01*
X115975548Y-66341303D01*
X116033400Y-66050464D01*
X116033400Y-55831002D01*
X117064019Y-54800383D01*
X117094300Y-54812957D01*
X117650061Y-54813442D01*
X118163703Y-54601210D01*
X118557029Y-54208570D01*
X118770157Y-53695300D01*
X118770642Y-53139539D01*
X118731329Y-53044393D01*
X141376400Y-53044393D01*
X141376400Y-53788007D01*
X141482740Y-54322616D01*
X141785572Y-54775835D01*
X142238791Y-55078667D01*
X142773400Y-55185007D01*
X143308009Y-55078667D01*
X143761228Y-54775835D01*
X143916400Y-54543604D01*
X143916400Y-54642330D01*
X144013073Y-54875719D01*
X144191702Y-55054347D01*
X144425091Y-55151020D01*
X145027650Y-55151020D01*
X145186400Y-54992270D01*
X145186400Y-53543200D01*
X145440400Y-53543200D01*
X145440400Y-54992270D01*
X145599150Y-55151020D01*
X146201709Y-55151020D01*
X146435098Y-55054347D01*
X146613727Y-54875719D01*
X146710400Y-54642330D01*
X146710400Y-53701950D01*
X146551650Y-53543200D01*
X145440400Y-53543200D01*
X145186400Y-53543200D01*
X145166400Y-53543200D01*
X145166400Y-53289200D01*
X145186400Y-53289200D01*
X145186400Y-51840130D01*
X145440400Y-51840130D01*
X145440400Y-53289200D01*
X146551650Y-53289200D01*
X146710400Y-53130450D01*
X146710400Y-52190070D01*
X146613727Y-51956681D01*
X146435098Y-51778053D01*
X146201709Y-51681380D01*
X145599150Y-51681380D01*
X145440400Y-51840130D01*
X145186400Y-51840130D01*
X145027650Y-51681380D01*
X144425091Y-51681380D01*
X144191702Y-51778053D01*
X144013073Y-51956681D01*
X143916400Y-52190070D01*
X143916400Y-52288796D01*
X143761228Y-52056565D01*
X143308009Y-51753733D01*
X142773400Y-51647393D01*
X142238791Y-51753733D01*
X141785572Y-52056565D01*
X141482740Y-52509784D01*
X141376400Y-53044393D01*
X118731329Y-53044393D01*
X118558410Y-52625897D01*
X118165770Y-52232571D01*
X117652500Y-52019443D01*
X117096739Y-52018958D01*
X116583097Y-52231190D01*
X116189771Y-52623830D01*
X116103451Y-52831712D01*
X116018410Y-52625897D01*
X115625770Y-52232571D01*
X115112500Y-52019443D01*
X114556739Y-52018958D01*
X114043097Y-52231190D01*
X113649771Y-52623830D01*
X113563451Y-52831712D01*
X113478410Y-52625897D01*
X113085770Y-52232571D01*
X112572500Y-52019443D01*
X112016739Y-52018958D01*
X111503097Y-52231190D01*
X111109771Y-52623830D01*
X111030005Y-52815927D01*
X110975797Y-52685057D01*
X110733613Y-52615592D01*
X109933005Y-53416200D01*
X110733613Y-54216808D01*
X110975797Y-54147343D01*
X111025909Y-54006882D01*
X111108390Y-54206503D01*
X111501030Y-54599829D01*
X112014300Y-54812957D01*
X112570061Y-54813442D01*
X112602455Y-54800057D01*
X113428420Y-55626022D01*
X113428420Y-57263737D01*
X113396228Y-57295873D01*
X113253582Y-57639401D01*
X113253258Y-58011367D01*
X113395303Y-58355143D01*
X113658093Y-58618392D01*
X114001621Y-58761038D01*
X114063389Y-58761092D01*
X114063389Y-64961409D01*
X113033387Y-65991411D01*
X113033387Y-58476187D01*
X112994297Y-58279670D01*
X112975535Y-58185347D01*
X112810788Y-57938786D01*
X109690118Y-54818116D01*
X110100768Y-54797562D01*
X110484543Y-54638597D01*
X110554008Y-54396413D01*
X109753400Y-53595805D01*
X109739258Y-53609948D01*
X109559653Y-53430343D01*
X109573795Y-53416200D01*
X108773187Y-52615592D01*
X108531003Y-52685057D01*
X108480891Y-52825518D01*
X108398410Y-52625897D01*
X108208832Y-52435987D01*
X108952792Y-52435987D01*
X109753400Y-53236595D01*
X110554008Y-52435987D01*
X110484543Y-52193803D01*
X109961098Y-52007056D01*
X109406032Y-52034838D01*
X109022257Y-52193803D01*
X108952792Y-52435987D01*
X108208832Y-52435987D01*
X108005770Y-52232571D01*
X107492500Y-52019443D01*
X106936739Y-52018958D01*
X106423097Y-52231190D01*
X106069637Y-52584033D01*
X106038562Y-52418883D01*
X105899490Y-52202759D01*
X105687290Y-52057769D01*
X105435400Y-52006760D01*
X103911400Y-52006760D01*
X103676083Y-52051038D01*
X103459959Y-52190110D01*
X103314969Y-52402310D01*
X103263960Y-52654200D01*
X103263960Y-54178200D01*
X103308238Y-54413517D01*
X103447310Y-54629641D01*
X103659510Y-54774631D01*
X103911400Y-54825640D01*
X105435400Y-54825640D01*
X105670717Y-54781362D01*
X105886841Y-54642290D01*
X106031831Y-54430090D01*
X106068892Y-54247076D01*
X106421030Y-54599829D01*
X106934300Y-54812957D01*
X107490061Y-54813442D01*
X107522455Y-54800057D01*
X111513387Y-58790989D01*
X111513387Y-63350405D01*
X110583502Y-62420520D01*
X110583542Y-62375033D01*
X110441497Y-62031257D01*
X110178707Y-61768008D01*
X109835179Y-61625362D01*
X109463213Y-61625038D01*
X109119437Y-61767083D01*
X108856188Y-62029873D01*
X108713542Y-62373401D01*
X108713218Y-62745367D01*
X108855263Y-63089143D01*
X109118053Y-63352392D01*
X109461581Y-63495038D01*
X109508457Y-63495079D01*
X110513400Y-64500022D01*
X110513400Y-66463737D01*
X110481208Y-66495873D01*
X110338562Y-66839401D01*
X110338238Y-67211367D01*
X110480283Y-67555143D01*
X110743073Y-67818392D01*
X111086601Y-67961038D01*
X111458567Y-67961362D01*
X111773745Y-67831134D01*
X112086588Y-67961038D01*
X112138282Y-67961083D01*
X112138238Y-68011367D01*
X112222832Y-68216101D01*
X109188103Y-68216101D01*
X108583400Y-67611398D01*
X108583400Y-60211000D01*
X108525548Y-59920161D01*
X108360801Y-59673599D01*
X106343440Y-57656238D01*
X106343440Y-56356400D01*
X106299162Y-56121083D01*
X106160090Y-55904959D01*
X105947890Y-55759969D01*
X105696000Y-55708960D01*
X103664000Y-55708960D01*
X103428683Y-55753238D01*
X103212559Y-55892310D01*
X103067569Y-56104510D01*
X103016560Y-56356400D01*
X103016560Y-58083600D01*
X103060838Y-58318917D01*
X103199910Y-58535041D01*
X103412110Y-58680031D01*
X103453439Y-58688400D01*
X103435585Y-58700330D01*
X103110729Y-59186511D01*
X102996655Y-59760000D01*
X100685000Y-59760000D01*
X100685000Y-55067467D01*
X101025858Y-53353858D01*
X101958323Y-51958324D01*
X103353856Y-51025858D01*
X105067467Y-50685000D01*
X144932533Y-50685000D01*
X146646142Y-51025858D01*
M02*
