M48
; DRILL file {KiCad (5.1.6-0-10_14)} date Tuesday, September 29, 2020 at 11:34:17 PM
; FORMAT={-:-/ absolute / inch / decimal}
; #@! TF.CreationDate,2020-09-29T23:34:17-07:00
; #@! TF.GenerationSoftware,Kicad,Pcbnew,(5.1.6-0-10_14)
; #@! TF.FileFunction,Plated,1,4,PTH
FMAT,2
INCH
T1C0.0157
T2C0.0197
T3C0.0217
T4C0.0394
T5C0.0394
T6C0.1260
%
G90
G05
T1
X3.7795Y-2.3622
X3.7795Y-2.3622
X3.7795Y-3.4646
X3.8189Y-2.3622
X3.8189Y-3.4646
X3.8583Y-2.3622
X3.8583Y-3.4646
X3.8976Y-2.3622
X3.8976Y-3.4646
X3.937Y-2.3622
X3.937Y-3.4646
X3.9646Y-2.3898
X3.9764Y-3.4646
X3.9921Y-2.4173
X4.0157Y-2.4409
X4.0157Y-2.4803
X4.0157Y-3.3071
X4.0157Y-3.3465
X4.0157Y-3.3858
X4.0157Y-3.4252
X4.0394Y-2.5039
X4.0551Y-3.2677
X4.0669Y-2.5315
X4.0945Y-2.5591
X4.0945Y-3.2283
X4.0984Y-2.4961
X4.1339Y-2.5591
X4.1339Y-3.189
X4.1732Y-2.5591
X4.1732Y-3.1496
X4.1772Y-2.4902
X4.2047Y-3.3386
X4.2126Y-2.2638
X4.2126Y-2.5591
X4.2126Y-3.1102
X4.252Y-2.2638
X4.252Y-2.5591
X4.252Y-3.0709
X4.2598Y-2.4783
X4.2815Y-3.2776
X4.2913Y-2.5591
X4.2913Y-3.0315
X4.3189Y-2.5866
X4.3307Y-2.7657
X4.3307Y-2.8346
X4.3307Y-2.9921
X4.3425Y-2.6102
X4.3504Y-2.8051
X4.3602Y-2.4843
X4.3701Y-2.6378
X4.3701Y-2.8602
X4.3701Y-2.9528
X4.374Y-3.126
X4.3819Y-2.437
X4.3917Y-2.5256
X4.4016Y-3.2008
X4.4094Y-2.6378
X4.4193Y-3.3366
X4.4291Y-3.5728
X4.437Y-3.0335
X4.4488Y-2.6378
X4.4587Y-2.7657
X4.4665Y-2.4193
X4.4882Y-2.6378
X4.498Y-2.4941
X4.5276Y-2.6378
X4.5571Y-2.5197
X4.5571Y-2.9429
X4.5571Y-2.9724
X4.5571Y-3.0492
X4.5571Y-3.4252
X4.5571Y-3.6713
X4.5586Y-2.5586
X4.563Y-2.8701
X4.563Y-3.3465
X4.5669Y-2.6378
X4.5748Y-3.2402
X4.5787Y-2.6772
X4.5945Y-3.2717
X4.6142Y-3.2992
X4.6161Y-2.6575
X4.6358Y-3.4547
X4.6395Y-2.6218
X4.6496Y-2.7992
X4.6713Y-2.374
X4.6949Y-2.4902
X4.6969Y-2.5472
X4.7139Y-2.6738
X4.7146Y-3.4449
X4.7264Y-3.248
X4.7283Y-2.8799
X4.7414Y-2.675
X4.7441Y-2.4016
X4.7441Y-3.5728
X4.7579Y-3.248
X4.7615Y-2.8521
X4.7638Y-3.0118
X4.7638Y-3.1181
X4.7835Y-2.626
X4.7953Y-2.8287
X4.8268Y-2.4016
X4.8327Y-2.8169
X4.8386Y-3.124
X4.8425Y-2.9252
X4.8696Y-2.9479
X4.8819Y-2.9035
X4.8819Y-3.304
X4.9055Y-2.3504
X4.9311Y-3.3022
X4.9685Y-2.3504
X4.9803Y-3.3022
X4.9966Y-2.6063
X5.008Y-2.935
X5.0157Y-2.2913
X5.0219Y-2.8896
X5.0354Y-3.0787
X5.0394Y-3.2185
X5.0394Y-3.2815
X5.0394Y-3.7008
X5.0431Y-2.8616
X5.0492Y-3.4449
X5.0669Y-2.9803
X5.0689Y-2.7264
X5.0773Y-3.09
X5.0991Y-2.918
X5.1339Y-3.3543
X5.1398Y-2.5157
X5.1772Y-2.2264
X5.187Y-3.002
X5.1928Y-3.2836
X5.1969Y-2.4508
X5.1969Y-3.622
X5.2087Y-2.1516
X5.2402Y-3.7205
X5.2579Y-2.7815
X5.2657Y-2.8307
X5.2756Y-2.5
X5.313Y-2.6831
X5.315Y-3.6614
X5.3248Y-2.9921
X5.3248Y-3.1004
X5.3307Y-2.313
X5.372Y-2.6634
X5.3847Y-3.014
X5.4016Y-2.7193
X5.4035Y-2.8248
X5.4035Y-3.563
X5.4055Y-2.874
X5.4071Y-2.9248
X5.4101Y-3.0248
X5.4173Y-3.2913
X5.4626Y-3.061
X5.4764Y-3.2657
X5.4961Y-3.0413
X5.5217Y-3.0118
X5.5217Y-3.563
X5.5768Y-3.1634
X5.5787Y-3.2106
X5.5807Y-3.376
X5.6299Y-2.9823
T2
X5.4173Y-2.1654
X5.445Y-2.0985
X5.445Y-2.2322
X5.5118Y-2.0709
X5.5118Y-2.2598
X5.5786Y-2.0985
X5.5786Y-2.2322
X5.6063Y-2.1654
X5.4173Y-3.7402
X5.445Y-3.6733
X5.445Y-3.807
X5.5118Y-3.6457
X5.5118Y-3.8346
X5.5786Y-3.6733
X5.5786Y-3.807
X5.6063Y-3.7402
X3.8425Y-3.7402
X3.8702Y-3.6733
X3.8702Y-3.807
X3.937Y-3.6457
X3.937Y-3.8346
X4.0038Y-3.6733
X4.0038Y-3.807
X4.0315Y-3.7402
X3.8425Y-2.1654
X3.8702Y-2.0985
X3.8702Y-2.2322
X3.937Y-2.0709
X3.937Y-2.2598
X4.0038Y-2.0985
X4.0038Y-2.2322
X4.0315Y-2.1654
T4
X4.1819Y-3.7756
X4.2819Y-3.7756
X4.3819Y-3.7756
X4.4819Y-3.7756
X4.5819Y-3.7756
X4.6819Y-3.7756
X4.7819Y-3.7756
X4.8819Y-3.7756
X5.4906Y-2.4409
X5.4906Y-2.5409
X5.4906Y-2.6409
X5.4906Y-2.7409
X5.4906Y-2.8409
X5.5906Y-2.4409
X5.5906Y-2.5409
X5.5906Y-2.6409
X5.5906Y-2.7409
X5.5906Y-2.8409
X4.5441Y-2.085
X4.5441Y-2.185
X4.6441Y-2.085
X4.6441Y-2.185
X4.7441Y-2.085
X4.7441Y-2.185
X4.8441Y-2.085
X4.8441Y-2.185
X4.9441Y-2.085
X4.9441Y-2.185
X3.9016Y-2.4819
X3.9016Y-2.5819
X3.9016Y-2.6819
X3.9016Y-2.7819
X3.9016Y-2.8819
X3.9016Y-2.9819
X3.9016Y-3.0819
X3.9016Y-3.1819
X3.9016Y-3.2819
X3.9016Y-3.3819
T5
X4.95Y-3.6
X4.95Y-3.5
T6
X3.937Y-2.1654
X5.5118Y-2.1654
X5.5118Y-3.7402
X3.937Y-3.7402
T2
G00X5.0394Y-3.8888
M15
G01X5.0394Y-3.8671
M16
G05
G00X5.315Y-3.8888
M15
G01X5.315Y-3.8671
M16
G05
T3
G00X5.0728Y-3.7717
M15
G01X5.0846Y-3.7717
M16
G05
G00X5.2697Y-3.7717
M15
G01X5.2815Y-3.7717
M16
G05
T0
M30
