%TF.GenerationSoftware,KiCad,Pcbnew,(5.1.6-0-10_14)*%
%TF.CreationDate,2020-09-29T23:50:48-07:00*%
%TF.ProjectId,BetsyBoardBig,42657473-7942-46f6-9172-644269672e6b,rev?*%
%TF.SameCoordinates,Original*%
%TF.FileFunction,Copper,L1,Top*%
%TF.FilePolarity,Positive*%
%FSLAX46Y46*%
G04 Gerber Fmt 4.6, Leading zero omitted, Abs format (unit mm)*
G04 Created by KiCad (PCBNEW (5.1.6-0-10_14)) date 2020-09-29 23:50:48*
%MOMM*%
%LPD*%
G01*
G04 APERTURE LIST*
%TA.AperFunction,EtchedComponent*%
%ADD10C,0.100000*%
%TD*%
%TA.AperFunction,ComponentPad*%
%ADD11O,1.000000X1.550000*%
%TD*%
%TA.AperFunction,ComponentPad*%
%ADD12O,1.250000X0.950000*%
%TD*%
%TA.AperFunction,SMDPad,CuDef*%
%ADD13R,1.200000X1.550000*%
%TD*%
%TA.AperFunction,SMDPad,CuDef*%
%ADD14R,1.550000X1.500000*%
%TD*%
%TA.AperFunction,SMDPad,CuDef*%
%ADD15R,1.500000X1.550000*%
%TD*%
%TA.AperFunction,SMDPad,CuDef*%
%ADD16R,0.400000X1.350000*%
%TD*%
%TA.AperFunction,ComponentPad*%
%ADD17O,1.700000X1.700000*%
%TD*%
%TA.AperFunction,ComponentPad*%
%ADD18R,1.700000X1.700000*%
%TD*%
%TA.AperFunction,ComponentPad*%
%ADD19C,0.800000*%
%TD*%
%TA.AperFunction,ComponentPad*%
%ADD20C,6.400000*%
%TD*%
%TA.AperFunction,SMDPad,CuDef*%
%ADD21R,0.600000X0.550000*%
%TD*%
%TA.AperFunction,SMDPad,CuDef*%
%ADD22R,0.650000X1.060000*%
%TD*%
%TA.AperFunction,SMDPad,CuDef*%
%ADD23R,0.550000X2.910000*%
%TD*%
%TA.AperFunction,SMDPad,CuDef*%
%ADD24R,1.200000X1.050000*%
%TD*%
%TA.AperFunction,SMDPad,CuDef*%
%ADD25R,1.080000X1.050000*%
%TD*%
%TA.AperFunction,SMDPad,CuDef*%
%ADD26R,0.780000X0.720000*%
%TD*%
%TA.AperFunction,SMDPad,CuDef*%
%ADD27R,2.390000X1.050000*%
%TD*%
%TA.AperFunction,SMDPad,CuDef*%
%ADD28R,1.000000X0.500000*%
%TD*%
%TA.AperFunction,Conductor*%
%ADD29C,0.500000*%
%TD*%
%TA.AperFunction,SMDPad,CuDef*%
%ADD30R,1.060000X0.650000*%
%TD*%
%TA.AperFunction,SMDPad,CuDef*%
%ADD31R,1.000000X1.800000*%
%TD*%
%TA.AperFunction,SMDPad,CuDef*%
%ADD32R,0.400000X1.900000*%
%TD*%
%TA.AperFunction,SMDPad,CuDef*%
%ADD33R,2.400000X0.740000*%
%TD*%
%TA.AperFunction,SMDPad,CuDef*%
%ADD34R,1.600000X1.000000*%
%TD*%
%TA.AperFunction,ComponentPad*%
%ADD35C,1.524000*%
%TD*%
%TA.AperFunction,SMDPad,CuDef*%
%ADD36R,0.550000X0.600000*%
%TD*%
%TA.AperFunction,ViaPad*%
%ADD37C,0.600000*%
%TD*%
%TA.AperFunction,Conductor*%
%ADD38C,0.300000*%
%TD*%
%TA.AperFunction,Conductor*%
%ADD39C,0.200000*%
%TD*%
%TA.AperFunction,Conductor*%
%ADD40C,0.500000*%
%TD*%
%TA.AperFunction,Conductor*%
%ADD41C,0.025400*%
%TD*%
G04 APERTURE END LIST*
D10*
%TO.C,NT1*%
G36*
X119250000Y-67250000D02*
G01*
X118250000Y-67250000D01*
X118250000Y-66750000D01*
X119250000Y-66750000D01*
X119250000Y-67250000D01*
G37*
%TD*%
D11*
%TO.P,J1,6*%
%TO.N,Net-(J1-Pad6)*%
X135000000Y-98500000D03*
X128000000Y-98500000D03*
D12*
X134000000Y-95800000D03*
X129000000Y-95800000D03*
D13*
X134400000Y-98500000D03*
D14*
X132500000Y-98500000D03*
D15*
X130500000Y-98500000D03*
D13*
X128600000Y-98500000D03*
D16*
%TO.P,J1,5*%
%TO.N,GND*%
X132800000Y-95825000D03*
%TO.P,J1,4*%
%TO.N,Net-(J1-Pad4)*%
X132150000Y-95825000D03*
%TO.P,J1,3*%
%TO.N,/D+*%
X131500000Y-95825000D03*
%TO.P,J1,2*%
%TO.N,/D-*%
X130850000Y-95825000D03*
%TO.P,J1,1*%
%TO.N,/VBUS*%
X130200000Y-95825000D03*
%TD*%
%TO.P,C18,2*%
%TO.N,GND*%
%TA.AperFunction,SMDPad,CuDef*%
G36*
G01*
X120756250Y-62250000D02*
X120243750Y-62250000D01*
G75*
G02*
X120025000Y-62031250I0J218750D01*
G01*
X120025000Y-61593750D01*
G75*
G02*
X120243750Y-61375000I218750J0D01*
G01*
X120756250Y-61375000D01*
G75*
G02*
X120975000Y-61593750I0J-218750D01*
G01*
X120975000Y-62031250D01*
G75*
G02*
X120756250Y-62250000I-218750J0D01*
G01*
G37*
%TD.AperFunction*%
%TO.P,C18,1*%
%TO.N,/OSC_OUT*%
%TA.AperFunction,SMDPad,CuDef*%
G36*
G01*
X120756250Y-63825000D02*
X120243750Y-63825000D01*
G75*
G02*
X120025000Y-63606250I0J218750D01*
G01*
X120025000Y-63168750D01*
G75*
G02*
X120243750Y-62950000I218750J0D01*
G01*
X120756250Y-62950000D01*
G75*
G02*
X120975000Y-63168750I0J-218750D01*
G01*
X120975000Y-63606250D01*
G75*
G02*
X120756250Y-63825000I-218750J0D01*
G01*
G37*
%TD.AperFunction*%
%TD*%
%TO.P,C13,2*%
%TO.N,GND*%
%TA.AperFunction,SMDPad,CuDef*%
G36*
G01*
X122856250Y-62250000D02*
X122343750Y-62250000D01*
G75*
G02*
X122125000Y-62031250I0J218750D01*
G01*
X122125000Y-61593750D01*
G75*
G02*
X122343750Y-61375000I218750J0D01*
G01*
X122856250Y-61375000D01*
G75*
G02*
X123075000Y-61593750I0J-218750D01*
G01*
X123075000Y-62031250D01*
G75*
G02*
X122856250Y-62250000I-218750J0D01*
G01*
G37*
%TD.AperFunction*%
%TO.P,C13,1*%
%TO.N,/OSC_IN*%
%TA.AperFunction,SMDPad,CuDef*%
G36*
G01*
X122856250Y-63825000D02*
X122343750Y-63825000D01*
G75*
G02*
X122125000Y-63606250I0J218750D01*
G01*
X122125000Y-63168750D01*
G75*
G02*
X122343750Y-62950000I218750J0D01*
G01*
X122856250Y-62950000D01*
G75*
G02*
X123075000Y-63168750I0J-218750D01*
G01*
X123075000Y-63606250D01*
G75*
G02*
X122856250Y-63825000I-218750J0D01*
G01*
G37*
%TD.AperFunction*%
%TD*%
%TO.P,U4,64*%
%TO.N,VDD*%
%TA.AperFunction,SMDPad,CuDef*%
G36*
G01*
X124975000Y-71100000D02*
X126375000Y-71100000D01*
G75*
G02*
X126450000Y-71175000I0J-75000D01*
G01*
X126450000Y-71325000D01*
G75*
G02*
X126375000Y-71400000I-75000J0D01*
G01*
X124975000Y-71400000D01*
G75*
G02*
X124900000Y-71325000I0J75000D01*
G01*
X124900000Y-71175000D01*
G75*
G02*
X124975000Y-71100000I75000J0D01*
G01*
G37*
%TD.AperFunction*%
%TO.P,U4,63*%
%TO.N,GND*%
%TA.AperFunction,SMDPad,CuDef*%
G36*
G01*
X124975000Y-71600000D02*
X126375000Y-71600000D01*
G75*
G02*
X126450000Y-71675000I0J-75000D01*
G01*
X126450000Y-71825000D01*
G75*
G02*
X126375000Y-71900000I-75000J0D01*
G01*
X124975000Y-71900000D01*
G75*
G02*
X124900000Y-71825000I0J75000D01*
G01*
X124900000Y-71675000D01*
G75*
G02*
X124975000Y-71600000I75000J0D01*
G01*
G37*
%TD.AperFunction*%
%TO.P,U4,62*%
%TO.N,/SPI_SS#*%
%TA.AperFunction,SMDPad,CuDef*%
G36*
G01*
X124975000Y-72100000D02*
X126375000Y-72100000D01*
G75*
G02*
X126450000Y-72175000I0J-75000D01*
G01*
X126450000Y-72325000D01*
G75*
G02*
X126375000Y-72400000I-75000J0D01*
G01*
X124975000Y-72400000D01*
G75*
G02*
X124900000Y-72325000I0J75000D01*
G01*
X124900000Y-72175000D01*
G75*
G02*
X124975000Y-72100000I75000J0D01*
G01*
G37*
%TD.AperFunction*%
%TO.P,U4,61*%
%TO.N,/LED_RED*%
%TA.AperFunction,SMDPad,CuDef*%
G36*
G01*
X124975000Y-72600000D02*
X126375000Y-72600000D01*
G75*
G02*
X126450000Y-72675000I0J-75000D01*
G01*
X126450000Y-72825000D01*
G75*
G02*
X126375000Y-72900000I-75000J0D01*
G01*
X124975000Y-72900000D01*
G75*
G02*
X124900000Y-72825000I0J75000D01*
G01*
X124900000Y-72675000D01*
G75*
G02*
X124975000Y-72600000I75000J0D01*
G01*
G37*
%TD.AperFunction*%
%TO.P,U4,60*%
%TO.N,/BOOT0*%
%TA.AperFunction,SMDPad,CuDef*%
G36*
G01*
X124975000Y-73100000D02*
X126375000Y-73100000D01*
G75*
G02*
X126450000Y-73175000I0J-75000D01*
G01*
X126450000Y-73325000D01*
G75*
G02*
X126375000Y-73400000I-75000J0D01*
G01*
X124975000Y-73400000D01*
G75*
G02*
X124900000Y-73325000I0J75000D01*
G01*
X124900000Y-73175000D01*
G75*
G02*
X124975000Y-73100000I75000J0D01*
G01*
G37*
%TD.AperFunction*%
%TO.P,U4,59*%
%TO.N,/COMP_IN-*%
%TA.AperFunction,SMDPad,CuDef*%
G36*
G01*
X124975000Y-73600000D02*
X126375000Y-73600000D01*
G75*
G02*
X126450000Y-73675000I0J-75000D01*
G01*
X126450000Y-73825000D01*
G75*
G02*
X126375000Y-73900000I-75000J0D01*
G01*
X124975000Y-73900000D01*
G75*
G02*
X124900000Y-73825000I0J75000D01*
G01*
X124900000Y-73675000D01*
G75*
G02*
X124975000Y-73600000I75000J0D01*
G01*
G37*
%TD.AperFunction*%
%TO.P,U4,58*%
%TO.N,/COMP_IN+*%
%TA.AperFunction,SMDPad,CuDef*%
G36*
G01*
X124975000Y-74100000D02*
X126375000Y-74100000D01*
G75*
G02*
X126450000Y-74175000I0J-75000D01*
G01*
X126450000Y-74325000D01*
G75*
G02*
X126375000Y-74400000I-75000J0D01*
G01*
X124975000Y-74400000D01*
G75*
G02*
X124900000Y-74325000I0J75000D01*
G01*
X124900000Y-74175000D01*
G75*
G02*
X124975000Y-74100000I75000J0D01*
G01*
G37*
%TD.AperFunction*%
%TO.P,U4,57*%
%TO.N,/COMP_OUT*%
%TA.AperFunction,SMDPad,CuDef*%
G36*
G01*
X124975000Y-74600000D02*
X126375000Y-74600000D01*
G75*
G02*
X126450000Y-74675000I0J-75000D01*
G01*
X126450000Y-74825000D01*
G75*
G02*
X126375000Y-74900000I-75000J0D01*
G01*
X124975000Y-74900000D01*
G75*
G02*
X124900000Y-74825000I0J75000D01*
G01*
X124900000Y-74675000D01*
G75*
G02*
X124975000Y-74600000I75000J0D01*
G01*
G37*
%TD.AperFunction*%
%TO.P,U4,56*%
%TO.N,/~JTRST*%
%TA.AperFunction,SMDPad,CuDef*%
G36*
G01*
X124975000Y-75100000D02*
X126375000Y-75100000D01*
G75*
G02*
X126450000Y-75175000I0J-75000D01*
G01*
X126450000Y-75325000D01*
G75*
G02*
X126375000Y-75400000I-75000J0D01*
G01*
X124975000Y-75400000D01*
G75*
G02*
X124900000Y-75325000I0J75000D01*
G01*
X124900000Y-75175000D01*
G75*
G02*
X124975000Y-75100000I75000J0D01*
G01*
G37*
%TD.AperFunction*%
%TO.P,U4,55*%
%TO.N,/JTDO_SWO*%
%TA.AperFunction,SMDPad,CuDef*%
G36*
G01*
X124975000Y-75600000D02*
X126375000Y-75600000D01*
G75*
G02*
X126450000Y-75675000I0J-75000D01*
G01*
X126450000Y-75825000D01*
G75*
G02*
X126375000Y-75900000I-75000J0D01*
G01*
X124975000Y-75900000D01*
G75*
G02*
X124900000Y-75825000I0J75000D01*
G01*
X124900000Y-75675000D01*
G75*
G02*
X124975000Y-75600000I75000J0D01*
G01*
G37*
%TD.AperFunction*%
%TO.P,U4,54*%
%TO.N,/SDMMC_CMD*%
%TA.AperFunction,SMDPad,CuDef*%
G36*
G01*
X124975000Y-76100000D02*
X126375000Y-76100000D01*
G75*
G02*
X126450000Y-76175000I0J-75000D01*
G01*
X126450000Y-76325000D01*
G75*
G02*
X126375000Y-76400000I-75000J0D01*
G01*
X124975000Y-76400000D01*
G75*
G02*
X124900000Y-76325000I0J75000D01*
G01*
X124900000Y-76175000D01*
G75*
G02*
X124975000Y-76100000I75000J0D01*
G01*
G37*
%TD.AperFunction*%
%TO.P,U4,53*%
%TO.N,/SDMMC_CLK*%
%TA.AperFunction,SMDPad,CuDef*%
G36*
G01*
X124975000Y-76600000D02*
X126375000Y-76600000D01*
G75*
G02*
X126450000Y-76675000I0J-75000D01*
G01*
X126450000Y-76825000D01*
G75*
G02*
X126375000Y-76900000I-75000J0D01*
G01*
X124975000Y-76900000D01*
G75*
G02*
X124900000Y-76825000I0J75000D01*
G01*
X124900000Y-76675000D01*
G75*
G02*
X124975000Y-76600000I75000J0D01*
G01*
G37*
%TD.AperFunction*%
%TO.P,U4,52*%
%TO.N,/SDMMC_D3*%
%TA.AperFunction,SMDPad,CuDef*%
G36*
G01*
X124975000Y-77100000D02*
X126375000Y-77100000D01*
G75*
G02*
X126450000Y-77175000I0J-75000D01*
G01*
X126450000Y-77325000D01*
G75*
G02*
X126375000Y-77400000I-75000J0D01*
G01*
X124975000Y-77400000D01*
G75*
G02*
X124900000Y-77325000I0J75000D01*
G01*
X124900000Y-77175000D01*
G75*
G02*
X124975000Y-77100000I75000J0D01*
G01*
G37*
%TD.AperFunction*%
%TO.P,U4,51*%
%TO.N,/SDMMC_D2*%
%TA.AperFunction,SMDPad,CuDef*%
G36*
G01*
X124975000Y-77600000D02*
X126375000Y-77600000D01*
G75*
G02*
X126450000Y-77675000I0J-75000D01*
G01*
X126450000Y-77825000D01*
G75*
G02*
X126375000Y-77900000I-75000J0D01*
G01*
X124975000Y-77900000D01*
G75*
G02*
X124900000Y-77825000I0J75000D01*
G01*
X124900000Y-77675000D01*
G75*
G02*
X124975000Y-77600000I75000J0D01*
G01*
G37*
%TD.AperFunction*%
%TO.P,U4,50*%
%TO.N,/JTDI*%
%TA.AperFunction,SMDPad,CuDef*%
G36*
G01*
X124975000Y-78100000D02*
X126375000Y-78100000D01*
G75*
G02*
X126450000Y-78175000I0J-75000D01*
G01*
X126450000Y-78325000D01*
G75*
G02*
X126375000Y-78400000I-75000J0D01*
G01*
X124975000Y-78400000D01*
G75*
G02*
X124900000Y-78325000I0J75000D01*
G01*
X124900000Y-78175000D01*
G75*
G02*
X124975000Y-78100000I75000J0D01*
G01*
G37*
%TD.AperFunction*%
%TO.P,U4,49*%
%TO.N,/JTCK_SWCLK*%
%TA.AperFunction,SMDPad,CuDef*%
G36*
G01*
X124975000Y-78600000D02*
X126375000Y-78600000D01*
G75*
G02*
X126450000Y-78675000I0J-75000D01*
G01*
X126450000Y-78825000D01*
G75*
G02*
X126375000Y-78900000I-75000J0D01*
G01*
X124975000Y-78900000D01*
G75*
G02*
X124900000Y-78825000I0J75000D01*
G01*
X124900000Y-78675000D01*
G75*
G02*
X124975000Y-78600000I75000J0D01*
G01*
G37*
%TD.AperFunction*%
%TO.P,U4,48*%
%TO.N,VDD*%
%TA.AperFunction,SMDPad,CuDef*%
G36*
G01*
X123675000Y-79900000D02*
X123825000Y-79900000D01*
G75*
G02*
X123900000Y-79975000I0J-75000D01*
G01*
X123900000Y-81375000D01*
G75*
G02*
X123825000Y-81450000I-75000J0D01*
G01*
X123675000Y-81450000D01*
G75*
G02*
X123600000Y-81375000I0J75000D01*
G01*
X123600000Y-79975000D01*
G75*
G02*
X123675000Y-79900000I75000J0D01*
G01*
G37*
%TD.AperFunction*%
%TO.P,U4,47*%
%TO.N,GND*%
%TA.AperFunction,SMDPad,CuDef*%
G36*
G01*
X123175000Y-79900000D02*
X123325000Y-79900000D01*
G75*
G02*
X123400000Y-79975000I0J-75000D01*
G01*
X123400000Y-81375000D01*
G75*
G02*
X123325000Y-81450000I-75000J0D01*
G01*
X123175000Y-81450000D01*
G75*
G02*
X123100000Y-81375000I0J75000D01*
G01*
X123100000Y-79975000D01*
G75*
G02*
X123175000Y-79900000I75000J0D01*
G01*
G37*
%TD.AperFunction*%
%TO.P,U4,46*%
%TO.N,/JTMS_SWDIO*%
%TA.AperFunction,SMDPad,CuDef*%
G36*
G01*
X122675000Y-79900000D02*
X122825000Y-79900000D01*
G75*
G02*
X122900000Y-79975000I0J-75000D01*
G01*
X122900000Y-81375000D01*
G75*
G02*
X122825000Y-81450000I-75000J0D01*
G01*
X122675000Y-81450000D01*
G75*
G02*
X122600000Y-81375000I0J75000D01*
G01*
X122600000Y-79975000D01*
G75*
G02*
X122675000Y-79900000I75000J0D01*
G01*
G37*
%TD.AperFunction*%
%TO.P,U4,45*%
%TO.N,/OTG_FS_D+*%
%TA.AperFunction,SMDPad,CuDef*%
G36*
G01*
X122175000Y-79900000D02*
X122325000Y-79900000D01*
G75*
G02*
X122400000Y-79975000I0J-75000D01*
G01*
X122400000Y-81375000D01*
G75*
G02*
X122325000Y-81450000I-75000J0D01*
G01*
X122175000Y-81450000D01*
G75*
G02*
X122100000Y-81375000I0J75000D01*
G01*
X122100000Y-79975000D01*
G75*
G02*
X122175000Y-79900000I75000J0D01*
G01*
G37*
%TD.AperFunction*%
%TO.P,U4,44*%
%TO.N,/OTG_FS_D-*%
%TA.AperFunction,SMDPad,CuDef*%
G36*
G01*
X121675000Y-79900000D02*
X121825000Y-79900000D01*
G75*
G02*
X121900000Y-79975000I0J-75000D01*
G01*
X121900000Y-81375000D01*
G75*
G02*
X121825000Y-81450000I-75000J0D01*
G01*
X121675000Y-81450000D01*
G75*
G02*
X121600000Y-81375000I0J75000D01*
G01*
X121600000Y-79975000D01*
G75*
G02*
X121675000Y-79900000I75000J0D01*
G01*
G37*
%TD.AperFunction*%
%TO.P,U4,43*%
%TO.N,/USART1_RX*%
%TA.AperFunction,SMDPad,CuDef*%
G36*
G01*
X121175000Y-79900000D02*
X121325000Y-79900000D01*
G75*
G02*
X121400000Y-79975000I0J-75000D01*
G01*
X121400000Y-81375000D01*
G75*
G02*
X121325000Y-81450000I-75000J0D01*
G01*
X121175000Y-81450000D01*
G75*
G02*
X121100000Y-81375000I0J75000D01*
G01*
X121100000Y-79975000D01*
G75*
G02*
X121175000Y-79900000I75000J0D01*
G01*
G37*
%TD.AperFunction*%
%TO.P,U4,42*%
%TO.N,/USART1_TX*%
%TA.AperFunction,SMDPad,CuDef*%
G36*
G01*
X120675000Y-79900000D02*
X120825000Y-79900000D01*
G75*
G02*
X120900000Y-79975000I0J-75000D01*
G01*
X120900000Y-81375000D01*
G75*
G02*
X120825000Y-81450000I-75000J0D01*
G01*
X120675000Y-81450000D01*
G75*
G02*
X120600000Y-81375000I0J75000D01*
G01*
X120600000Y-79975000D01*
G75*
G02*
X120675000Y-79900000I75000J0D01*
G01*
G37*
%TD.AperFunction*%
%TO.P,U4,41*%
%TO.N,/OCLK_M*%
%TA.AperFunction,SMDPad,CuDef*%
G36*
G01*
X120175000Y-79900000D02*
X120325000Y-79900000D01*
G75*
G02*
X120400000Y-79975000I0J-75000D01*
G01*
X120400000Y-81375000D01*
G75*
G02*
X120325000Y-81450000I-75000J0D01*
G01*
X120175000Y-81450000D01*
G75*
G02*
X120100000Y-81375000I0J75000D01*
G01*
X120100000Y-79975000D01*
G75*
G02*
X120175000Y-79900000I75000J0D01*
G01*
G37*
%TD.AperFunction*%
%TO.P,U4,40*%
%TO.N,/SDMMC_D1*%
%TA.AperFunction,SMDPad,CuDef*%
G36*
G01*
X119675000Y-79900000D02*
X119825000Y-79900000D01*
G75*
G02*
X119900000Y-79975000I0J-75000D01*
G01*
X119900000Y-81375000D01*
G75*
G02*
X119825000Y-81450000I-75000J0D01*
G01*
X119675000Y-81450000D01*
G75*
G02*
X119600000Y-81375000I0J75000D01*
G01*
X119600000Y-79975000D01*
G75*
G02*
X119675000Y-79900000I75000J0D01*
G01*
G37*
%TD.AperFunction*%
%TO.P,U4,39*%
%TO.N,/SDMMC_D0*%
%TA.AperFunction,SMDPad,CuDef*%
G36*
G01*
X119175000Y-79900000D02*
X119325000Y-79900000D01*
G75*
G02*
X119400000Y-79975000I0J-75000D01*
G01*
X119400000Y-81375000D01*
G75*
G02*
X119325000Y-81450000I-75000J0D01*
G01*
X119175000Y-81450000D01*
G75*
G02*
X119100000Y-81375000I0J75000D01*
G01*
X119100000Y-79975000D01*
G75*
G02*
X119175000Y-79900000I75000J0D01*
G01*
G37*
%TD.AperFunction*%
%TO.P,U4,38*%
%TO.N,/SDMMC_DET*%
%TA.AperFunction,SMDPad,CuDef*%
G36*
G01*
X118675000Y-79900000D02*
X118825000Y-79900000D01*
G75*
G02*
X118900000Y-79975000I0J-75000D01*
G01*
X118900000Y-81375000D01*
G75*
G02*
X118825000Y-81450000I-75000J0D01*
G01*
X118675000Y-81450000D01*
G75*
G02*
X118600000Y-81375000I0J75000D01*
G01*
X118600000Y-79975000D01*
G75*
G02*
X118675000Y-79900000I75000J0D01*
G01*
G37*
%TD.AperFunction*%
%TO.P,U4,37*%
%TO.N,/USR_SW*%
%TA.AperFunction,SMDPad,CuDef*%
G36*
G01*
X118175000Y-79900000D02*
X118325000Y-79900000D01*
G75*
G02*
X118400000Y-79975000I0J-75000D01*
G01*
X118400000Y-81375000D01*
G75*
G02*
X118325000Y-81450000I-75000J0D01*
G01*
X118175000Y-81450000D01*
G75*
G02*
X118100000Y-81375000I0J75000D01*
G01*
X118100000Y-79975000D01*
G75*
G02*
X118175000Y-79900000I75000J0D01*
G01*
G37*
%TD.AperFunction*%
%TO.P,U4,36*%
%TO.N,/RTC_REFIN*%
%TA.AperFunction,SMDPad,CuDef*%
G36*
G01*
X117675000Y-79900000D02*
X117825000Y-79900000D01*
G75*
G02*
X117900000Y-79975000I0J-75000D01*
G01*
X117900000Y-81375000D01*
G75*
G02*
X117825000Y-81450000I-75000J0D01*
G01*
X117675000Y-81450000D01*
G75*
G02*
X117600000Y-81375000I0J75000D01*
G01*
X117600000Y-79975000D01*
G75*
G02*
X117675000Y-79900000I75000J0D01*
G01*
G37*
%TD.AperFunction*%
%TO.P,U4,35*%
%TO.N,/USART3_RTS*%
%TA.AperFunction,SMDPad,CuDef*%
G36*
G01*
X117175000Y-79900000D02*
X117325000Y-79900000D01*
G75*
G02*
X117400000Y-79975000I0J-75000D01*
G01*
X117400000Y-81375000D01*
G75*
G02*
X117325000Y-81450000I-75000J0D01*
G01*
X117175000Y-81450000D01*
G75*
G02*
X117100000Y-81375000I0J75000D01*
G01*
X117100000Y-79975000D01*
G75*
G02*
X117175000Y-79900000I75000J0D01*
G01*
G37*
%TD.AperFunction*%
%TO.P,U4,34*%
%TO.N,/USART3_CTS*%
%TA.AperFunction,SMDPad,CuDef*%
G36*
G01*
X116675000Y-79900000D02*
X116825000Y-79900000D01*
G75*
G02*
X116900000Y-79975000I0J-75000D01*
G01*
X116900000Y-81375000D01*
G75*
G02*
X116825000Y-81450000I-75000J0D01*
G01*
X116675000Y-81450000D01*
G75*
G02*
X116600000Y-81375000I0J75000D01*
G01*
X116600000Y-79975000D01*
G75*
G02*
X116675000Y-79900000I75000J0D01*
G01*
G37*
%TD.AperFunction*%
%TO.P,U4,33*%
%TO.N,/USART3_CK*%
%TA.AperFunction,SMDPad,CuDef*%
G36*
G01*
X116175000Y-79900000D02*
X116325000Y-79900000D01*
G75*
G02*
X116400000Y-79975000I0J-75000D01*
G01*
X116400000Y-81375000D01*
G75*
G02*
X116325000Y-81450000I-75000J0D01*
G01*
X116175000Y-81450000D01*
G75*
G02*
X116100000Y-81375000I0J75000D01*
G01*
X116100000Y-79975000D01*
G75*
G02*
X116175000Y-79900000I75000J0D01*
G01*
G37*
%TD.AperFunction*%
%TO.P,U4,32*%
%TO.N,VDD*%
%TA.AperFunction,SMDPad,CuDef*%
G36*
G01*
X113625000Y-78600000D02*
X115025000Y-78600000D01*
G75*
G02*
X115100000Y-78675000I0J-75000D01*
G01*
X115100000Y-78825000D01*
G75*
G02*
X115025000Y-78900000I-75000J0D01*
G01*
X113625000Y-78900000D01*
G75*
G02*
X113550000Y-78825000I0J75000D01*
G01*
X113550000Y-78675000D01*
G75*
G02*
X113625000Y-78600000I75000J0D01*
G01*
G37*
%TD.AperFunction*%
%TO.P,U4,31*%
%TO.N,GND*%
%TA.AperFunction,SMDPad,CuDef*%
G36*
G01*
X113625000Y-78100000D02*
X115025000Y-78100000D01*
G75*
G02*
X115100000Y-78175000I0J-75000D01*
G01*
X115100000Y-78325000D01*
G75*
G02*
X115025000Y-78400000I-75000J0D01*
G01*
X113625000Y-78400000D01*
G75*
G02*
X113550000Y-78325000I0J75000D01*
G01*
X113550000Y-78175000D01*
G75*
G02*
X113625000Y-78100000I75000J0D01*
G01*
G37*
%TD.AperFunction*%
%TO.P,U4,30*%
%TO.N,/QSPI_CS#*%
%TA.AperFunction,SMDPad,CuDef*%
G36*
G01*
X113625000Y-77600000D02*
X115025000Y-77600000D01*
G75*
G02*
X115100000Y-77675000I0J-75000D01*
G01*
X115100000Y-77825000D01*
G75*
G02*
X115025000Y-77900000I-75000J0D01*
G01*
X113625000Y-77900000D01*
G75*
G02*
X113550000Y-77825000I0J75000D01*
G01*
X113550000Y-77675000D01*
G75*
G02*
X113625000Y-77600000I75000J0D01*
G01*
G37*
%TD.AperFunction*%
%TO.P,U4,29*%
%TO.N,/SPI_SCK*%
%TA.AperFunction,SMDPad,CuDef*%
G36*
G01*
X113625000Y-77100000D02*
X115025000Y-77100000D01*
G75*
G02*
X115100000Y-77175000I0J-75000D01*
G01*
X115100000Y-77325000D01*
G75*
G02*
X115025000Y-77400000I-75000J0D01*
G01*
X113625000Y-77400000D01*
G75*
G02*
X113550000Y-77325000I0J75000D01*
G01*
X113550000Y-77175000D01*
G75*
G02*
X113625000Y-77100000I75000J0D01*
G01*
G37*
%TD.AperFunction*%
%TO.P,U4,28*%
%TO.N,/RTC_OUT*%
%TA.AperFunction,SMDPad,CuDef*%
G36*
G01*
X113625000Y-76600000D02*
X115025000Y-76600000D01*
G75*
G02*
X115100000Y-76675000I0J-75000D01*
G01*
X115100000Y-76825000D01*
G75*
G02*
X115025000Y-76900000I-75000J0D01*
G01*
X113625000Y-76900000D01*
G75*
G02*
X113550000Y-76825000I0J75000D01*
G01*
X113550000Y-76675000D01*
G75*
G02*
X113625000Y-76600000I75000J0D01*
G01*
G37*
%TD.AperFunction*%
%TO.P,U4,27*%
%TO.N,/QSPI_IO0*%
%TA.AperFunction,SMDPad,CuDef*%
G36*
G01*
X113625000Y-76100000D02*
X115025000Y-76100000D01*
G75*
G02*
X115100000Y-76175000I0J-75000D01*
G01*
X115100000Y-76325000D01*
G75*
G02*
X115025000Y-76400000I-75000J0D01*
G01*
X113625000Y-76400000D01*
G75*
G02*
X113550000Y-76325000I0J75000D01*
G01*
X113550000Y-76175000D01*
G75*
G02*
X113625000Y-76100000I75000J0D01*
G01*
G37*
%TD.AperFunction*%
%TO.P,U4,26*%
%TO.N,/QSPI_IO1*%
%TA.AperFunction,SMDPad,CuDef*%
G36*
G01*
X113625000Y-75600000D02*
X115025000Y-75600000D01*
G75*
G02*
X115100000Y-75675000I0J-75000D01*
G01*
X115100000Y-75825000D01*
G75*
G02*
X115025000Y-75900000I-75000J0D01*
G01*
X113625000Y-75900000D01*
G75*
G02*
X113550000Y-75825000I0J75000D01*
G01*
X113550000Y-75675000D01*
G75*
G02*
X113625000Y-75600000I75000J0D01*
G01*
G37*
%TD.AperFunction*%
%TO.P,U4,25*%
%TO.N,/USART3_RXD*%
%TA.AperFunction,SMDPad,CuDef*%
G36*
G01*
X113625000Y-75100000D02*
X115025000Y-75100000D01*
G75*
G02*
X115100000Y-75175000I0J-75000D01*
G01*
X115100000Y-75325000D01*
G75*
G02*
X115025000Y-75400000I-75000J0D01*
G01*
X113625000Y-75400000D01*
G75*
G02*
X113550000Y-75325000I0J75000D01*
G01*
X113550000Y-75175000D01*
G75*
G02*
X113625000Y-75100000I75000J0D01*
G01*
G37*
%TD.AperFunction*%
%TO.P,U4,24*%
%TO.N,/USART3_TXD*%
%TA.AperFunction,SMDPad,CuDef*%
G36*
G01*
X113625000Y-74600000D02*
X115025000Y-74600000D01*
G75*
G02*
X115100000Y-74675000I0J-75000D01*
G01*
X115100000Y-74825000D01*
G75*
G02*
X115025000Y-74900000I-75000J0D01*
G01*
X113625000Y-74900000D01*
G75*
G02*
X113550000Y-74825000I0J75000D01*
G01*
X113550000Y-74675000D01*
G75*
G02*
X113625000Y-74600000I75000J0D01*
G01*
G37*
%TD.AperFunction*%
%TO.P,U4,23*%
%TO.N,/QSPI_IO2*%
%TA.AperFunction,SMDPad,CuDef*%
G36*
G01*
X113625000Y-74100000D02*
X115025000Y-74100000D01*
G75*
G02*
X115100000Y-74175000I0J-75000D01*
G01*
X115100000Y-74325000D01*
G75*
G02*
X115025000Y-74400000I-75000J0D01*
G01*
X113625000Y-74400000D01*
G75*
G02*
X113550000Y-74325000I0J75000D01*
G01*
X113550000Y-74175000D01*
G75*
G02*
X113625000Y-74100000I75000J0D01*
G01*
G37*
%TD.AperFunction*%
%TO.P,U4,22*%
%TO.N,/QSPI_IO3*%
%TA.AperFunction,SMDPad,CuDef*%
G36*
G01*
X113625000Y-73600000D02*
X115025000Y-73600000D01*
G75*
G02*
X115100000Y-73675000I0J-75000D01*
G01*
X115100000Y-73825000D01*
G75*
G02*
X115025000Y-73900000I-75000J0D01*
G01*
X113625000Y-73900000D01*
G75*
G02*
X113550000Y-73825000I0J75000D01*
G01*
X113550000Y-73675000D01*
G75*
G02*
X113625000Y-73600000I75000J0D01*
G01*
G37*
%TD.AperFunction*%
%TO.P,U4,21*%
%TO.N,/DAC_OUT2*%
%TA.AperFunction,SMDPad,CuDef*%
G36*
G01*
X113625000Y-73100000D02*
X115025000Y-73100000D01*
G75*
G02*
X115100000Y-73175000I0J-75000D01*
G01*
X115100000Y-73325000D01*
G75*
G02*
X115025000Y-73400000I-75000J0D01*
G01*
X113625000Y-73400000D01*
G75*
G02*
X113550000Y-73325000I0J75000D01*
G01*
X113550000Y-73175000D01*
G75*
G02*
X113625000Y-73100000I75000J0D01*
G01*
G37*
%TD.AperFunction*%
%TO.P,U4,20*%
%TO.N,/DAC_OUT1*%
%TA.AperFunction,SMDPad,CuDef*%
G36*
G01*
X113625000Y-72600000D02*
X115025000Y-72600000D01*
G75*
G02*
X115100000Y-72675000I0J-75000D01*
G01*
X115100000Y-72825000D01*
G75*
G02*
X115025000Y-72900000I-75000J0D01*
G01*
X113625000Y-72900000D01*
G75*
G02*
X113550000Y-72825000I0J75000D01*
G01*
X113550000Y-72675000D01*
G75*
G02*
X113625000Y-72600000I75000J0D01*
G01*
G37*
%TD.AperFunction*%
%TO.P,U4,19*%
%TO.N,VDD*%
%TA.AperFunction,SMDPad,CuDef*%
G36*
G01*
X113625000Y-72100000D02*
X115025000Y-72100000D01*
G75*
G02*
X115100000Y-72175000I0J-75000D01*
G01*
X115100000Y-72325000D01*
G75*
G02*
X115025000Y-72400000I-75000J0D01*
G01*
X113625000Y-72400000D01*
G75*
G02*
X113550000Y-72325000I0J75000D01*
G01*
X113550000Y-72175000D01*
G75*
G02*
X113625000Y-72100000I75000J0D01*
G01*
G37*
%TD.AperFunction*%
%TO.P,U4,18*%
%TO.N,GND*%
%TA.AperFunction,SMDPad,CuDef*%
G36*
G01*
X113625000Y-71600000D02*
X115025000Y-71600000D01*
G75*
G02*
X115100000Y-71675000I0J-75000D01*
G01*
X115100000Y-71825000D01*
G75*
G02*
X115025000Y-71900000I-75000J0D01*
G01*
X113625000Y-71900000D01*
G75*
G02*
X113550000Y-71825000I0J75000D01*
G01*
X113550000Y-71675000D01*
G75*
G02*
X113625000Y-71600000I75000J0D01*
G01*
G37*
%TD.AperFunction*%
%TO.P,U4,17*%
%TO.N,/OPAMP_OUT*%
%TA.AperFunction,SMDPad,CuDef*%
G36*
G01*
X113625000Y-71100000D02*
X115025000Y-71100000D01*
G75*
G02*
X115100000Y-71175000I0J-75000D01*
G01*
X115100000Y-71325000D01*
G75*
G02*
X115025000Y-71400000I-75000J0D01*
G01*
X113625000Y-71400000D01*
G75*
G02*
X113550000Y-71325000I0J75000D01*
G01*
X113550000Y-71175000D01*
G75*
G02*
X113625000Y-71100000I75000J0D01*
G01*
G37*
%TD.AperFunction*%
%TO.P,U4,16*%
%TO.N,/OCLK_LS*%
%TA.AperFunction,SMDPad,CuDef*%
G36*
G01*
X116175000Y-68550000D02*
X116325000Y-68550000D01*
G75*
G02*
X116400000Y-68625000I0J-75000D01*
G01*
X116400000Y-70025000D01*
G75*
G02*
X116325000Y-70100000I-75000J0D01*
G01*
X116175000Y-70100000D01*
G75*
G02*
X116100000Y-70025000I0J75000D01*
G01*
X116100000Y-68625000D01*
G75*
G02*
X116175000Y-68550000I75000J0D01*
G01*
G37*
%TD.AperFunction*%
%TO.P,U4,15*%
%TO.N,/OPAMP_IN-*%
%TA.AperFunction,SMDPad,CuDef*%
G36*
G01*
X116675000Y-68550000D02*
X116825000Y-68550000D01*
G75*
G02*
X116900000Y-68625000I0J-75000D01*
G01*
X116900000Y-70025000D01*
G75*
G02*
X116825000Y-70100000I-75000J0D01*
G01*
X116675000Y-70100000D01*
G75*
G02*
X116600000Y-70025000I0J75000D01*
G01*
X116600000Y-68625000D01*
G75*
G02*
X116675000Y-68550000I75000J0D01*
G01*
G37*
%TD.AperFunction*%
%TO.P,U4,14*%
%TO.N,/OPAMP_IN+*%
%TA.AperFunction,SMDPad,CuDef*%
G36*
G01*
X117175000Y-68550000D02*
X117325000Y-68550000D01*
G75*
G02*
X117400000Y-68625000I0J-75000D01*
G01*
X117400000Y-70025000D01*
G75*
G02*
X117325000Y-70100000I-75000J0D01*
G01*
X117175000Y-70100000D01*
G75*
G02*
X117100000Y-70025000I0J75000D01*
G01*
X117100000Y-68625000D01*
G75*
G02*
X117175000Y-68550000I75000J0D01*
G01*
G37*
%TD.AperFunction*%
%TO.P,U4,13*%
%TO.N,VDDA*%
%TA.AperFunction,SMDPad,CuDef*%
G36*
G01*
X117675000Y-68550000D02*
X117825000Y-68550000D01*
G75*
G02*
X117900000Y-68625000I0J-75000D01*
G01*
X117900000Y-70025000D01*
G75*
G02*
X117825000Y-70100000I-75000J0D01*
G01*
X117675000Y-70100000D01*
G75*
G02*
X117600000Y-70025000I0J75000D01*
G01*
X117600000Y-68625000D01*
G75*
G02*
X117675000Y-68550000I75000J0D01*
G01*
G37*
%TD.AperFunction*%
%TO.P,U4,12*%
%TO.N,VSSA*%
%TA.AperFunction,SMDPad,CuDef*%
G36*
G01*
X118175000Y-68550000D02*
X118325000Y-68550000D01*
G75*
G02*
X118400000Y-68625000I0J-75000D01*
G01*
X118400000Y-70025000D01*
G75*
G02*
X118325000Y-70100000I-75000J0D01*
G01*
X118175000Y-70100000D01*
G75*
G02*
X118100000Y-70025000I0J75000D01*
G01*
X118100000Y-68625000D01*
G75*
G02*
X118175000Y-68550000I75000J0D01*
G01*
G37*
%TD.AperFunction*%
%TO.P,U4,11*%
%TO.N,/SPI_MOSI*%
%TA.AperFunction,SMDPad,CuDef*%
G36*
G01*
X118675000Y-68550000D02*
X118825000Y-68550000D01*
G75*
G02*
X118900000Y-68625000I0J-75000D01*
G01*
X118900000Y-70025000D01*
G75*
G02*
X118825000Y-70100000I-75000J0D01*
G01*
X118675000Y-70100000D01*
G75*
G02*
X118600000Y-70025000I0J75000D01*
G01*
X118600000Y-68625000D01*
G75*
G02*
X118675000Y-68550000I75000J0D01*
G01*
G37*
%TD.AperFunction*%
%TO.P,U4,10*%
%TO.N,/SPI_MISO*%
%TA.AperFunction,SMDPad,CuDef*%
G36*
G01*
X119175000Y-68550000D02*
X119325000Y-68550000D01*
G75*
G02*
X119400000Y-68625000I0J-75000D01*
G01*
X119400000Y-70025000D01*
G75*
G02*
X119325000Y-70100000I-75000J0D01*
G01*
X119175000Y-70100000D01*
G75*
G02*
X119100000Y-70025000I0J75000D01*
G01*
X119100000Y-68625000D01*
G75*
G02*
X119175000Y-68550000I75000J0D01*
G01*
G37*
%TD.AperFunction*%
%TO.P,U4,9*%
%TO.N,/I2C_SDA*%
%TA.AperFunction,SMDPad,CuDef*%
G36*
G01*
X119675000Y-68550000D02*
X119825000Y-68550000D01*
G75*
G02*
X119900000Y-68625000I0J-75000D01*
G01*
X119900000Y-70025000D01*
G75*
G02*
X119825000Y-70100000I-75000J0D01*
G01*
X119675000Y-70100000D01*
G75*
G02*
X119600000Y-70025000I0J75000D01*
G01*
X119600000Y-68625000D01*
G75*
G02*
X119675000Y-68550000I75000J0D01*
G01*
G37*
%TD.AperFunction*%
%TO.P,U4,8*%
%TO.N,/I2C_SCL*%
%TA.AperFunction,SMDPad,CuDef*%
G36*
G01*
X120175000Y-68550000D02*
X120325000Y-68550000D01*
G75*
G02*
X120400000Y-68625000I0J-75000D01*
G01*
X120400000Y-70025000D01*
G75*
G02*
X120325000Y-70100000I-75000J0D01*
G01*
X120175000Y-70100000D01*
G75*
G02*
X120100000Y-70025000I0J75000D01*
G01*
X120100000Y-68625000D01*
G75*
G02*
X120175000Y-68550000I75000J0D01*
G01*
G37*
%TD.AperFunction*%
%TO.P,U4,7*%
%TO.N,/~RST*%
%TA.AperFunction,SMDPad,CuDef*%
G36*
G01*
X120675000Y-68550000D02*
X120825000Y-68550000D01*
G75*
G02*
X120900000Y-68625000I0J-75000D01*
G01*
X120900000Y-70025000D01*
G75*
G02*
X120825000Y-70100000I-75000J0D01*
G01*
X120675000Y-70100000D01*
G75*
G02*
X120600000Y-70025000I0J75000D01*
G01*
X120600000Y-68625000D01*
G75*
G02*
X120675000Y-68550000I75000J0D01*
G01*
G37*
%TD.AperFunction*%
%TO.P,U4,6*%
%TO.N,/OSC_OUT*%
%TA.AperFunction,SMDPad,CuDef*%
G36*
G01*
X121175000Y-68550000D02*
X121325000Y-68550000D01*
G75*
G02*
X121400000Y-68625000I0J-75000D01*
G01*
X121400000Y-70025000D01*
G75*
G02*
X121325000Y-70100000I-75000J0D01*
G01*
X121175000Y-70100000D01*
G75*
G02*
X121100000Y-70025000I0J75000D01*
G01*
X121100000Y-68625000D01*
G75*
G02*
X121175000Y-68550000I75000J0D01*
G01*
G37*
%TD.AperFunction*%
%TO.P,U4,5*%
%TO.N,/OSC_IN*%
%TA.AperFunction,SMDPad,CuDef*%
G36*
G01*
X121675000Y-68550000D02*
X121825000Y-68550000D01*
G75*
G02*
X121900000Y-68625000I0J-75000D01*
G01*
X121900000Y-70025000D01*
G75*
G02*
X121825000Y-70100000I-75000J0D01*
G01*
X121675000Y-70100000D01*
G75*
G02*
X121600000Y-70025000I0J75000D01*
G01*
X121600000Y-68625000D01*
G75*
G02*
X121675000Y-68550000I75000J0D01*
G01*
G37*
%TD.AperFunction*%
%TO.P,U4,4*%
%TO.N,/RTC_OSC_OUT*%
%TA.AperFunction,SMDPad,CuDef*%
G36*
G01*
X122175000Y-68550000D02*
X122325000Y-68550000D01*
G75*
G02*
X122400000Y-68625000I0J-75000D01*
G01*
X122400000Y-70025000D01*
G75*
G02*
X122325000Y-70100000I-75000J0D01*
G01*
X122175000Y-70100000D01*
G75*
G02*
X122100000Y-70025000I0J75000D01*
G01*
X122100000Y-68625000D01*
G75*
G02*
X122175000Y-68550000I75000J0D01*
G01*
G37*
%TD.AperFunction*%
%TO.P,U4,3*%
%TO.N,/RTC_OSC_IN*%
%TA.AperFunction,SMDPad,CuDef*%
G36*
G01*
X122675000Y-68550000D02*
X122825000Y-68550000D01*
G75*
G02*
X122900000Y-68625000I0J-75000D01*
G01*
X122900000Y-70025000D01*
G75*
G02*
X122825000Y-70100000I-75000J0D01*
G01*
X122675000Y-70100000D01*
G75*
G02*
X122600000Y-70025000I0J75000D01*
G01*
X122600000Y-68625000D01*
G75*
G02*
X122675000Y-68550000I75000J0D01*
G01*
G37*
%TD.AperFunction*%
%TO.P,U4,2*%
%TO.N,/RTC_TS*%
%TA.AperFunction,SMDPad,CuDef*%
G36*
G01*
X123175000Y-68550000D02*
X123325000Y-68550000D01*
G75*
G02*
X123400000Y-68625000I0J-75000D01*
G01*
X123400000Y-70025000D01*
G75*
G02*
X123325000Y-70100000I-75000J0D01*
G01*
X123175000Y-70100000D01*
G75*
G02*
X123100000Y-70025000I0J75000D01*
G01*
X123100000Y-68625000D01*
G75*
G02*
X123175000Y-68550000I75000J0D01*
G01*
G37*
%TD.AperFunction*%
%TO.P,U4,1*%
%TO.N,/VBAT*%
%TA.AperFunction,SMDPad,CuDef*%
G36*
G01*
X123675000Y-68550000D02*
X123825000Y-68550000D01*
G75*
G02*
X123900000Y-68625000I0J-75000D01*
G01*
X123900000Y-70025000D01*
G75*
G02*
X123825000Y-70100000I-75000J0D01*
G01*
X123675000Y-70100000D01*
G75*
G02*
X123600000Y-70025000I0J75000D01*
G01*
X123600000Y-68625000D01*
G75*
G02*
X123675000Y-68550000I75000J0D01*
G01*
G37*
%TD.AperFunction*%
%TD*%
D17*
%TO.P,J7,10*%
%TO.N,VDDA*%
X99100000Y-63040000D03*
%TO.P,J7,9*%
%TO.N,/OPAMP_IN-*%
X99100000Y-65580000D03*
%TO.P,J7,8*%
%TO.N,/OPAMP_IN+*%
X99100000Y-68120000D03*
%TO.P,J7,7*%
%TO.N,/OPAMP_OUT*%
X99100000Y-70660000D03*
%TO.P,J7,6*%
%TO.N,/COMP_IN-*%
X99100000Y-73200000D03*
%TO.P,J7,5*%
%TO.N,/COMP_IN+*%
X99100000Y-75740000D03*
%TO.P,J7,4*%
%TO.N,/COMP_OUT*%
X99100000Y-78280000D03*
%TO.P,J7,3*%
%TO.N,/DAC_OUT1*%
X99100000Y-80820000D03*
%TO.P,J7,2*%
%TO.N,/DAC_OUT2*%
X99100000Y-83360000D03*
D18*
%TO.P,J7,1*%
%TO.N,VSSA*%
X99100000Y-85900000D03*
%TD*%
D17*
%TO.P,J3,10*%
%TO.N,GND*%
X125580000Y-52960000D03*
%TO.P,J3,9*%
%TO.N,/JTCK_SWCLK*%
X125580000Y-55500000D03*
%TO.P,J3,8*%
%TO.N,/OCLK_M*%
X123040000Y-52960000D03*
%TO.P,J3,7*%
%TO.N,/RTC_REFIN*%
X123040000Y-55500000D03*
%TO.P,J3,6*%
%TO.N,/OCLK_LS*%
X120500000Y-52960000D03*
%TO.P,J3,5*%
%TO.N,/RTC_TS*%
X120500000Y-55500000D03*
%TO.P,J3,4*%
%TO.N,/I2C_SDA*%
X117960000Y-52960000D03*
%TO.P,J3,3*%
%TO.N,/RTC_OUT*%
X117960000Y-55500000D03*
%TO.P,J3,2*%
%TO.N,/I2C_SCL*%
X115420000Y-52960000D03*
D18*
%TO.P,J3,1*%
%TO.N,VDD*%
X115420000Y-55500000D03*
%TD*%
D19*
%TO.P,H4,1*%
%TO.N,GND*%
X101697056Y-93302944D03*
X100000000Y-92600000D03*
X98302944Y-93302944D03*
X97600000Y-95000000D03*
X98302944Y-96697056D03*
X100000000Y-97400000D03*
X101697056Y-96697056D03*
X102400000Y-95000000D03*
D20*
X100000000Y-95000000D03*
%TD*%
D19*
%TO.P,H3,1*%
%TO.N,GND*%
X141697056Y-93302944D03*
X140000000Y-92600000D03*
X138302944Y-93302944D03*
X137600000Y-95000000D03*
X138302944Y-96697056D03*
X140000000Y-97400000D03*
X141697056Y-96697056D03*
X142400000Y-95000000D03*
D20*
X140000000Y-95000000D03*
%TD*%
D19*
%TO.P,H2,1*%
%TO.N,GND*%
X141697056Y-53302944D03*
X140000000Y-52600000D03*
X138302944Y-53302944D03*
X137600000Y-55000000D03*
X138302944Y-56697056D03*
X140000000Y-57400000D03*
X141697056Y-56697056D03*
X142400000Y-55000000D03*
D20*
X140000000Y-55000000D03*
%TD*%
D19*
%TO.P,H1,1*%
%TO.N,GND*%
X101697056Y-53302944D03*
X100000000Y-52600000D03*
X98302944Y-53302944D03*
X97600000Y-55000000D03*
X98302944Y-56697056D03*
X100000000Y-57400000D03*
X101697056Y-56697056D03*
X102400000Y-55000000D03*
D20*
X100000000Y-55000000D03*
%TD*%
D21*
%TO.P,SW3,2*%
%TO.N,Net-(R1-Pad2)*%
X122300000Y-91625000D03*
X122300000Y-88675000D03*
%TO.P,SW3,1*%
%TO.N,GND*%
X120500000Y-91625000D03*
X120500000Y-88675000D03*
%TD*%
%TO.P,R7,2*%
%TO.N,/I2C_SDA*%
%TA.AperFunction,SMDPad,CuDef*%
G36*
G01*
X104106250Y-61200000D02*
X103593750Y-61200000D01*
G75*
G02*
X103375000Y-60981250I0J218750D01*
G01*
X103375000Y-60543750D01*
G75*
G02*
X103593750Y-60325000I218750J0D01*
G01*
X104106250Y-60325000D01*
G75*
G02*
X104325000Y-60543750I0J-218750D01*
G01*
X104325000Y-60981250D01*
G75*
G02*
X104106250Y-61200000I-218750J0D01*
G01*
G37*
%TD.AperFunction*%
%TO.P,R7,1*%
%TO.N,VDD*%
%TA.AperFunction,SMDPad,CuDef*%
G36*
G01*
X104106250Y-62775000D02*
X103593750Y-62775000D01*
G75*
G02*
X103375000Y-62556250I0J218750D01*
G01*
X103375000Y-62118750D01*
G75*
G02*
X103593750Y-61900000I218750J0D01*
G01*
X104106250Y-61900000D01*
G75*
G02*
X104325000Y-62118750I0J-218750D01*
G01*
X104325000Y-62556250D01*
G75*
G02*
X104106250Y-62775000I-218750J0D01*
G01*
G37*
%TD.AperFunction*%
%TD*%
%TO.P,R6,2*%
%TO.N,/I2C_SCL*%
%TA.AperFunction,SMDPad,CuDef*%
G36*
G01*
X105856250Y-61200000D02*
X105343750Y-61200000D01*
G75*
G02*
X105125000Y-60981250I0J218750D01*
G01*
X105125000Y-60543750D01*
G75*
G02*
X105343750Y-60325000I218750J0D01*
G01*
X105856250Y-60325000D01*
G75*
G02*
X106075000Y-60543750I0J-218750D01*
G01*
X106075000Y-60981250D01*
G75*
G02*
X105856250Y-61200000I-218750J0D01*
G01*
G37*
%TD.AperFunction*%
%TO.P,R6,1*%
%TO.N,VDD*%
%TA.AperFunction,SMDPad,CuDef*%
G36*
G01*
X105856250Y-62775000D02*
X105343750Y-62775000D01*
G75*
G02*
X105125000Y-62556250I0J218750D01*
G01*
X105125000Y-62118750D01*
G75*
G02*
X105343750Y-61900000I218750J0D01*
G01*
X105856250Y-61900000D01*
G75*
G02*
X106075000Y-62118750I0J-218750D01*
G01*
X106075000Y-62556250D01*
G75*
G02*
X105856250Y-62775000I-218750J0D01*
G01*
G37*
%TD.AperFunction*%
%TD*%
%TO.P,R5,2*%
%TO.N,/USR_SW*%
%TA.AperFunction,SMDPad,CuDef*%
G36*
G01*
X118150000Y-85306250D02*
X118150000Y-84793750D01*
G75*
G02*
X118368750Y-84575000I218750J0D01*
G01*
X118806250Y-84575000D01*
G75*
G02*
X119025000Y-84793750I0J-218750D01*
G01*
X119025000Y-85306250D01*
G75*
G02*
X118806250Y-85525000I-218750J0D01*
G01*
X118368750Y-85525000D01*
G75*
G02*
X118150000Y-85306250I0J218750D01*
G01*
G37*
%TD.AperFunction*%
%TO.P,R5,1*%
%TO.N,VDD*%
%TA.AperFunction,SMDPad,CuDef*%
G36*
G01*
X116575000Y-85306250D02*
X116575000Y-84793750D01*
G75*
G02*
X116793750Y-84575000I218750J0D01*
G01*
X117231250Y-84575000D01*
G75*
G02*
X117450000Y-84793750I0J-218750D01*
G01*
X117450000Y-85306250D01*
G75*
G02*
X117231250Y-85525000I-218750J0D01*
G01*
X116793750Y-85525000D01*
G75*
G02*
X116575000Y-85306250I0J218750D01*
G01*
G37*
%TD.AperFunction*%
%TD*%
%TO.P,R1,2*%
%TO.N,Net-(R1-Pad2)*%
%TA.AperFunction,SMDPad,CuDef*%
G36*
G01*
X122043750Y-86950000D02*
X122556250Y-86950000D01*
G75*
G02*
X122775000Y-87168750I0J-218750D01*
G01*
X122775000Y-87606250D01*
G75*
G02*
X122556250Y-87825000I-218750J0D01*
G01*
X122043750Y-87825000D01*
G75*
G02*
X121825000Y-87606250I0J218750D01*
G01*
X121825000Y-87168750D01*
G75*
G02*
X122043750Y-86950000I218750J0D01*
G01*
G37*
%TD.AperFunction*%
%TO.P,R1,1*%
%TO.N,/USR_SW*%
%TA.AperFunction,SMDPad,CuDef*%
G36*
G01*
X122043750Y-85375000D02*
X122556250Y-85375000D01*
G75*
G02*
X122775000Y-85593750I0J-218750D01*
G01*
X122775000Y-86031250D01*
G75*
G02*
X122556250Y-86250000I-218750J0D01*
G01*
X122043750Y-86250000D01*
G75*
G02*
X121825000Y-86031250I0J218750D01*
G01*
X121825000Y-85593750D01*
G75*
G02*
X122043750Y-85375000I218750J0D01*
G01*
G37*
%TD.AperFunction*%
%TD*%
%TO.P,J6,MP*%
%TO.N,N/C*%
%TA.AperFunction,SMDPad,CuDef*%
G36*
G01*
X106800000Y-51474999D02*
X106800000Y-52775001D01*
G75*
G02*
X106550001Y-53025000I-249999J0D01*
G01*
X105849999Y-53025000D01*
G75*
G02*
X105600000Y-52775001I0J249999D01*
G01*
X105600000Y-51474999D01*
G75*
G02*
X105849999Y-51225000I249999J0D01*
G01*
X106550001Y-51225000D01*
G75*
G02*
X106800000Y-51474999I0J-249999D01*
G01*
G37*
%TD.AperFunction*%
%TA.AperFunction,SMDPad,CuDef*%
G36*
G01*
X112400000Y-51474999D02*
X112400000Y-52775001D01*
G75*
G02*
X112150001Y-53025000I-249999J0D01*
G01*
X111449999Y-53025000D01*
G75*
G02*
X111200000Y-52775001I0J249999D01*
G01*
X111200000Y-51474999D01*
G75*
G02*
X111449999Y-51225000I249999J0D01*
G01*
X112150001Y-51225000D01*
G75*
G02*
X112400000Y-51474999I0J-249999D01*
G01*
G37*
%TD.AperFunction*%
%TO.P,J6,4*%
%TO.N,GND*%
%TA.AperFunction,SMDPad,CuDef*%
G36*
G01*
X107800000Y-55375000D02*
X107800000Y-56625000D01*
G75*
G02*
X107650000Y-56775000I-150000J0D01*
G01*
X107350000Y-56775000D01*
G75*
G02*
X107200000Y-56625000I0J150000D01*
G01*
X107200000Y-55375000D01*
G75*
G02*
X107350000Y-55225000I150000J0D01*
G01*
X107650000Y-55225000D01*
G75*
G02*
X107800000Y-55375000I0J-150000D01*
G01*
G37*
%TD.AperFunction*%
%TO.P,J6,3*%
%TO.N,VDD*%
%TA.AperFunction,SMDPad,CuDef*%
G36*
G01*
X108800000Y-55375000D02*
X108800000Y-56625000D01*
G75*
G02*
X108650000Y-56775000I-150000J0D01*
G01*
X108350000Y-56775000D01*
G75*
G02*
X108200000Y-56625000I0J150000D01*
G01*
X108200000Y-55375000D01*
G75*
G02*
X108350000Y-55225000I150000J0D01*
G01*
X108650000Y-55225000D01*
G75*
G02*
X108800000Y-55375000I0J-150000D01*
G01*
G37*
%TD.AperFunction*%
%TO.P,J6,2*%
%TO.N,/I2C_SDA*%
%TA.AperFunction,SMDPad,CuDef*%
G36*
G01*
X109800000Y-55375000D02*
X109800000Y-56625000D01*
G75*
G02*
X109650000Y-56775000I-150000J0D01*
G01*
X109350000Y-56775000D01*
G75*
G02*
X109200000Y-56625000I0J150000D01*
G01*
X109200000Y-55375000D01*
G75*
G02*
X109350000Y-55225000I150000J0D01*
G01*
X109650000Y-55225000D01*
G75*
G02*
X109800000Y-55375000I0J-150000D01*
G01*
G37*
%TD.AperFunction*%
%TO.P,J6,1*%
%TO.N,/I2C_SCL*%
%TA.AperFunction,SMDPad,CuDef*%
G36*
G01*
X110800000Y-55375000D02*
X110800000Y-56625000D01*
G75*
G02*
X110650000Y-56775000I-150000J0D01*
G01*
X110350000Y-56775000D01*
G75*
G02*
X110200000Y-56625000I0J150000D01*
G01*
X110200000Y-55375000D01*
G75*
G02*
X110350000Y-55225000I150000J0D01*
G01*
X110650000Y-55225000D01*
G75*
G02*
X110800000Y-55375000I0J-150000D01*
G01*
G37*
%TD.AperFunction*%
%TD*%
D17*
%TO.P,J5,10*%
%TO.N,/USART1_TX*%
X139460000Y-72160000D03*
%TO.P,J5,9*%
%TO.N,/USART1_RX*%
X142000000Y-72160000D03*
%TO.P,J5,8*%
%TO.N,/JTDO_SWO*%
X139460000Y-69620000D03*
%TO.P,J5,7*%
%TO.N,/JTMS_SWDIO*%
X142000000Y-69620000D03*
%TO.P,J5,6*%
%TO.N,GND*%
X139460000Y-67080000D03*
%TO.P,J5,5*%
%TO.N,/SPI_MISO*%
X142000000Y-67080000D03*
%TO.P,J5,4*%
%TO.N,/SPI_MOSI*%
X139460000Y-64540000D03*
%TO.P,J5,3*%
%TO.N,/SPI_SCK*%
X142000000Y-64540000D03*
%TO.P,J5,2*%
%TO.N,/SPI_SS#*%
X139460000Y-62000000D03*
D18*
%TO.P,J5,1*%
%TO.N,VDD*%
X142000000Y-62000000D03*
%TD*%
D17*
%TO.P,J4,8*%
%TO.N,/USART3_CK*%
X106220000Y-95900000D03*
%TO.P,J4,7*%
%TO.N,GND*%
X108760000Y-95900000D03*
%TO.P,J4,6*%
%TO.N,/USART3_CTS*%
X111300000Y-95900000D03*
%TO.P,J4,5*%
%TO.N,/USART3_RTS*%
X113840000Y-95900000D03*
%TO.P,J4,4*%
%TO.N,/USART3_RXD*%
X116380000Y-95900000D03*
%TO.P,J4,3*%
%TO.N,/USART3_TXD*%
X118920000Y-95900000D03*
%TO.P,J4,2*%
%TO.N,GND*%
X121460000Y-95900000D03*
D18*
%TO.P,J4,1*%
%TO.N,VDD*%
X124000000Y-95900000D03*
%TD*%
%TO.P,C4,2*%
%TO.N,GND*%
%TA.AperFunction,SMDPad,CuDef*%
G36*
G01*
X120243750Y-86950000D02*
X120756250Y-86950000D01*
G75*
G02*
X120975000Y-87168750I0J-218750D01*
G01*
X120975000Y-87606250D01*
G75*
G02*
X120756250Y-87825000I-218750J0D01*
G01*
X120243750Y-87825000D01*
G75*
G02*
X120025000Y-87606250I0J218750D01*
G01*
X120025000Y-87168750D01*
G75*
G02*
X120243750Y-86950000I218750J0D01*
G01*
G37*
%TD.AperFunction*%
%TO.P,C4,1*%
%TO.N,/USR_SW*%
%TA.AperFunction,SMDPad,CuDef*%
G36*
G01*
X120243750Y-85375000D02*
X120756250Y-85375000D01*
G75*
G02*
X120975000Y-85593750I0J-218750D01*
G01*
X120975000Y-86031250D01*
G75*
G02*
X120756250Y-86250000I-218750J0D01*
G01*
X120243750Y-86250000D01*
G75*
G02*
X120025000Y-86031250I0J218750D01*
G01*
X120025000Y-85593750D01*
G75*
G02*
X120243750Y-85375000I218750J0D01*
G01*
G37*
%TD.AperFunction*%
%TD*%
%TO.P,P6,MP*%
%TO.N,N/C*%
%TA.AperFunction,SMDPad,CuDef*%
G36*
G01*
X132200000Y-52800001D02*
X132200000Y-51499999D01*
G75*
G02*
X132449999Y-51250000I249999J0D01*
G01*
X133150001Y-51250000D01*
G75*
G02*
X133400000Y-51499999I0J-249999D01*
G01*
X133400000Y-52800001D01*
G75*
G02*
X133150001Y-53050000I-249999J0D01*
G01*
X132449999Y-53050000D01*
G75*
G02*
X132200000Y-52800001I0J249999D01*
G01*
G37*
%TD.AperFunction*%
%TA.AperFunction,SMDPad,CuDef*%
G36*
G01*
X128600000Y-52800001D02*
X128600000Y-51499999D01*
G75*
G02*
X128849999Y-51250000I249999J0D01*
G01*
X129550001Y-51250000D01*
G75*
G02*
X129800000Y-51499999I0J-249999D01*
G01*
X129800000Y-52800001D01*
G75*
G02*
X129550001Y-53050000I-249999J0D01*
G01*
X128849999Y-53050000D01*
G75*
G02*
X128600000Y-52800001I0J249999D01*
G01*
G37*
%TD.AperFunction*%
%TO.P,P6,2*%
%TO.N,GND*%
%TA.AperFunction,SMDPad,CuDef*%
G36*
G01*
X131200000Y-55300000D02*
X131200000Y-54050000D01*
G75*
G02*
X131350000Y-53900000I150000J0D01*
G01*
X131650000Y-53900000D01*
G75*
G02*
X131800000Y-54050000I0J-150000D01*
G01*
X131800000Y-55300000D01*
G75*
G02*
X131650000Y-55450000I-150000J0D01*
G01*
X131350000Y-55450000D01*
G75*
G02*
X131200000Y-55300000I0J150000D01*
G01*
G37*
%TD.AperFunction*%
%TO.P,P6,1*%
%TO.N,/VBAT_IN*%
%TA.AperFunction,SMDPad,CuDef*%
G36*
G01*
X130200000Y-55300000D02*
X130200000Y-54050000D01*
G75*
G02*
X130350000Y-53900000I150000J0D01*
G01*
X130650000Y-53900000D01*
G75*
G02*
X130800000Y-54050000I0J-150000D01*
G01*
X130800000Y-55300000D01*
G75*
G02*
X130650000Y-55450000I-150000J0D01*
G01*
X130350000Y-55450000D01*
G75*
G02*
X130200000Y-55300000I0J150000D01*
G01*
G37*
%TD.AperFunction*%
%TD*%
%TO.P,U5,16*%
%TO.N,/QSPI_SCK*%
%TA.AperFunction,SMDPad,CuDef*%
G36*
G01*
X113125000Y-83705000D02*
X113125000Y-83405000D01*
G75*
G02*
X113275000Y-83255000I150000J0D01*
G01*
X115025000Y-83255000D01*
G75*
G02*
X115175000Y-83405000I0J-150000D01*
G01*
X115175000Y-83705000D01*
G75*
G02*
X115025000Y-83855000I-150000J0D01*
G01*
X113275000Y-83855000D01*
G75*
G02*
X113125000Y-83705000I0J150000D01*
G01*
G37*
%TD.AperFunction*%
%TO.P,U5,15*%
%TO.N,/QSPI_IO0*%
%TA.AperFunction,SMDPad,CuDef*%
G36*
G01*
X113125000Y-84975000D02*
X113125000Y-84675000D01*
G75*
G02*
X113275000Y-84525000I150000J0D01*
G01*
X115025000Y-84525000D01*
G75*
G02*
X115175000Y-84675000I0J-150000D01*
G01*
X115175000Y-84975000D01*
G75*
G02*
X115025000Y-85125000I-150000J0D01*
G01*
X113275000Y-85125000D01*
G75*
G02*
X113125000Y-84975000I0J150000D01*
G01*
G37*
%TD.AperFunction*%
%TO.P,U5,14*%
%TO.N,Net-(U5-Pad14)*%
%TA.AperFunction,SMDPad,CuDef*%
G36*
G01*
X113125000Y-86245000D02*
X113125000Y-85945000D01*
G75*
G02*
X113275000Y-85795000I150000J0D01*
G01*
X115025000Y-85795000D01*
G75*
G02*
X115175000Y-85945000I0J-150000D01*
G01*
X115175000Y-86245000D01*
G75*
G02*
X115025000Y-86395000I-150000J0D01*
G01*
X113275000Y-86395000D01*
G75*
G02*
X113125000Y-86245000I0J150000D01*
G01*
G37*
%TD.AperFunction*%
%TO.P,U5,13*%
%TO.N,Net-(U5-Pad13)*%
%TA.AperFunction,SMDPad,CuDef*%
G36*
G01*
X113125000Y-87515000D02*
X113125000Y-87215000D01*
G75*
G02*
X113275000Y-87065000I150000J0D01*
G01*
X115025000Y-87065000D01*
G75*
G02*
X115175000Y-87215000I0J-150000D01*
G01*
X115175000Y-87515000D01*
G75*
G02*
X115025000Y-87665000I-150000J0D01*
G01*
X113275000Y-87665000D01*
G75*
G02*
X113125000Y-87515000I0J150000D01*
G01*
G37*
%TD.AperFunction*%
%TO.P,U5,12*%
%TO.N,Net-(U5-Pad12)*%
%TA.AperFunction,SMDPad,CuDef*%
G36*
G01*
X113125000Y-88785000D02*
X113125000Y-88485000D01*
G75*
G02*
X113275000Y-88335000I150000J0D01*
G01*
X115025000Y-88335000D01*
G75*
G02*
X115175000Y-88485000I0J-150000D01*
G01*
X115175000Y-88785000D01*
G75*
G02*
X115025000Y-88935000I-150000J0D01*
G01*
X113275000Y-88935000D01*
G75*
G02*
X113125000Y-88785000I0J150000D01*
G01*
G37*
%TD.AperFunction*%
%TO.P,U5,11*%
%TO.N,Net-(U5-Pad11)*%
%TA.AperFunction,SMDPad,CuDef*%
G36*
G01*
X113125000Y-90055000D02*
X113125000Y-89755000D01*
G75*
G02*
X113275000Y-89605000I150000J0D01*
G01*
X115025000Y-89605000D01*
G75*
G02*
X115175000Y-89755000I0J-150000D01*
G01*
X115175000Y-90055000D01*
G75*
G02*
X115025000Y-90205000I-150000J0D01*
G01*
X113275000Y-90205000D01*
G75*
G02*
X113125000Y-90055000I0J150000D01*
G01*
G37*
%TD.AperFunction*%
%TO.P,U5,10*%
%TO.N,GND*%
%TA.AperFunction,SMDPad,CuDef*%
G36*
G01*
X113125000Y-91325000D02*
X113125000Y-91025000D01*
G75*
G02*
X113275000Y-90875000I150000J0D01*
G01*
X115025000Y-90875000D01*
G75*
G02*
X115175000Y-91025000I0J-150000D01*
G01*
X115175000Y-91325000D01*
G75*
G02*
X115025000Y-91475000I-150000J0D01*
G01*
X113275000Y-91475000D01*
G75*
G02*
X113125000Y-91325000I0J150000D01*
G01*
G37*
%TD.AperFunction*%
%TO.P,U5,9*%
%TO.N,/QSPI_IO2*%
%TA.AperFunction,SMDPad,CuDef*%
G36*
G01*
X113125000Y-92595000D02*
X113125000Y-92295000D01*
G75*
G02*
X113275000Y-92145000I150000J0D01*
G01*
X115025000Y-92145000D01*
G75*
G02*
X115175000Y-92295000I0J-150000D01*
G01*
X115175000Y-92595000D01*
G75*
G02*
X115025000Y-92745000I-150000J0D01*
G01*
X113275000Y-92745000D01*
G75*
G02*
X113125000Y-92595000I0J150000D01*
G01*
G37*
%TD.AperFunction*%
%TO.P,U5,8*%
%TO.N,/QSPI_IO1*%
%TA.AperFunction,SMDPad,CuDef*%
G36*
G01*
X103825000Y-92595000D02*
X103825000Y-92295000D01*
G75*
G02*
X103975000Y-92145000I150000J0D01*
G01*
X105725000Y-92145000D01*
G75*
G02*
X105875000Y-92295000I0J-150000D01*
G01*
X105875000Y-92595000D01*
G75*
G02*
X105725000Y-92745000I-150000J0D01*
G01*
X103975000Y-92745000D01*
G75*
G02*
X103825000Y-92595000I0J150000D01*
G01*
G37*
%TD.AperFunction*%
%TO.P,U5,7*%
%TO.N,/QSPI_CS#*%
%TA.AperFunction,SMDPad,CuDef*%
G36*
G01*
X103825000Y-91325000D02*
X103825000Y-91025000D01*
G75*
G02*
X103975000Y-90875000I150000J0D01*
G01*
X105725000Y-90875000D01*
G75*
G02*
X105875000Y-91025000I0J-150000D01*
G01*
X105875000Y-91325000D01*
G75*
G02*
X105725000Y-91475000I-150000J0D01*
G01*
X103975000Y-91475000D01*
G75*
G02*
X103825000Y-91325000I0J150000D01*
G01*
G37*
%TD.AperFunction*%
%TO.P,U5,6*%
%TO.N,Net-(U5-Pad6)*%
%TA.AperFunction,SMDPad,CuDef*%
G36*
G01*
X103825000Y-90055000D02*
X103825000Y-89755000D01*
G75*
G02*
X103975000Y-89605000I150000J0D01*
G01*
X105725000Y-89605000D01*
G75*
G02*
X105875000Y-89755000I0J-150000D01*
G01*
X105875000Y-90055000D01*
G75*
G02*
X105725000Y-90205000I-150000J0D01*
G01*
X103975000Y-90205000D01*
G75*
G02*
X103825000Y-90055000I0J150000D01*
G01*
G37*
%TD.AperFunction*%
%TO.P,U5,5*%
%TO.N,Net-(U5-Pad5)*%
%TA.AperFunction,SMDPad,CuDef*%
G36*
G01*
X103825000Y-88785000D02*
X103825000Y-88485000D01*
G75*
G02*
X103975000Y-88335000I150000J0D01*
G01*
X105725000Y-88335000D01*
G75*
G02*
X105875000Y-88485000I0J-150000D01*
G01*
X105875000Y-88785000D01*
G75*
G02*
X105725000Y-88935000I-150000J0D01*
G01*
X103975000Y-88935000D01*
G75*
G02*
X103825000Y-88785000I0J150000D01*
G01*
G37*
%TD.AperFunction*%
%TO.P,U5,4*%
%TO.N,Net-(U5-Pad4)*%
%TA.AperFunction,SMDPad,CuDef*%
G36*
G01*
X103825000Y-87515000D02*
X103825000Y-87215000D01*
G75*
G02*
X103975000Y-87065000I150000J0D01*
G01*
X105725000Y-87065000D01*
G75*
G02*
X105875000Y-87215000I0J-150000D01*
G01*
X105875000Y-87515000D01*
G75*
G02*
X105725000Y-87665000I-150000J0D01*
G01*
X103975000Y-87665000D01*
G75*
G02*
X103825000Y-87515000I0J150000D01*
G01*
G37*
%TD.AperFunction*%
%TO.P,U5,3*%
%TO.N,Net-(U5-Pad3)*%
%TA.AperFunction,SMDPad,CuDef*%
G36*
G01*
X103825000Y-86245000D02*
X103825000Y-85945000D01*
G75*
G02*
X103975000Y-85795000I150000J0D01*
G01*
X105725000Y-85795000D01*
G75*
G02*
X105875000Y-85945000I0J-150000D01*
G01*
X105875000Y-86245000D01*
G75*
G02*
X105725000Y-86395000I-150000J0D01*
G01*
X103975000Y-86395000D01*
G75*
G02*
X103825000Y-86245000I0J150000D01*
G01*
G37*
%TD.AperFunction*%
%TO.P,U5,2*%
%TO.N,VDD*%
%TA.AperFunction,SMDPad,CuDef*%
G36*
G01*
X103825000Y-84975000D02*
X103825000Y-84675000D01*
G75*
G02*
X103975000Y-84525000I150000J0D01*
G01*
X105725000Y-84525000D01*
G75*
G02*
X105875000Y-84675000I0J-150000D01*
G01*
X105875000Y-84975000D01*
G75*
G02*
X105725000Y-85125000I-150000J0D01*
G01*
X103975000Y-85125000D01*
G75*
G02*
X103825000Y-84975000I0J150000D01*
G01*
G37*
%TD.AperFunction*%
%TO.P,U5,1*%
%TO.N,/QSPI_IO3*%
%TA.AperFunction,SMDPad,CuDef*%
G36*
G01*
X103825000Y-83705000D02*
X103825000Y-83405000D01*
G75*
G02*
X103975000Y-83255000I150000J0D01*
G01*
X105725000Y-83255000D01*
G75*
G02*
X105875000Y-83405000I0J-150000D01*
G01*
X105875000Y-83705000D01*
G75*
G02*
X105725000Y-83855000I-150000J0D01*
G01*
X103975000Y-83855000D01*
G75*
G02*
X103825000Y-83705000I0J150000D01*
G01*
G37*
%TD.AperFunction*%
%TD*%
D22*
%TO.P,U1,5*%
%TO.N,VDD*%
X116700000Y-88950000D03*
%TO.P,U1,4*%
%TO.N,Net-(U1-Pad4)*%
X118600000Y-88950000D03*
%TO.P,U1,3*%
%TO.N,/VIN*%
X118600000Y-91150000D03*
%TO.P,U1,2*%
%TO.N,GND*%
X117650000Y-91150000D03*
%TO.P,U1,1*%
%TO.N,/VIN*%
X116700000Y-91150000D03*
%TD*%
%TO.P,R2,2*%
%TO.N,/BOOT0*%
%TA.AperFunction,SMDPad,CuDef*%
G36*
G01*
X135843750Y-61650000D02*
X136356250Y-61650000D01*
G75*
G02*
X136575000Y-61868750I0J-218750D01*
G01*
X136575000Y-62306250D01*
G75*
G02*
X136356250Y-62525000I-218750J0D01*
G01*
X135843750Y-62525000D01*
G75*
G02*
X135625000Y-62306250I0J218750D01*
G01*
X135625000Y-61868750D01*
G75*
G02*
X135843750Y-61650000I218750J0D01*
G01*
G37*
%TD.AperFunction*%
%TO.P,R2,1*%
%TO.N,/BOOT_SEL*%
%TA.AperFunction,SMDPad,CuDef*%
G36*
G01*
X135843750Y-60075000D02*
X136356250Y-60075000D01*
G75*
G02*
X136575000Y-60293750I0J-218750D01*
G01*
X136575000Y-60731250D01*
G75*
G02*
X136356250Y-60950000I-218750J0D01*
G01*
X135843750Y-60950000D01*
G75*
G02*
X135625000Y-60731250I0J218750D01*
G01*
X135625000Y-60293750D01*
G75*
G02*
X135843750Y-60075000I218750J0D01*
G01*
G37*
%TD.AperFunction*%
%TD*%
D23*
%TO.P,J2,*%
%TO.N,*%
X135810000Y-81905000D03*
D24*
%TO.P,J2,10*%
%TO.N,GND*%
X136490000Y-78675000D03*
D25*
X139100000Y-78675000D03*
D26*
%TO.P,J2,9*%
%TO.N,/SDMMC_DET*%
X140370000Y-78700000D03*
D23*
%TO.P,J2,*%
%TO.N,*%
X135810000Y-85920000D03*
D24*
%TO.P,J2,10*%
%TO.N,GND*%
X137060000Y-89325000D03*
D27*
X140250000Y-89325000D03*
D28*
%TO.P,J2,8*%
%TO.N,/SDMMC_D1*%
X143050000Y-88150000D03*
%TO.P,J2,7*%
%TO.N,/SDMMC_D0*%
X143050000Y-87050000D03*
%TO.P,J2,6*%
%TO.N,GND*%
X143050000Y-85950000D03*
%TO.P,J2,5*%
%TO.N,/SDMMC_CLK*%
X143050000Y-84850000D03*
%TO.P,J2,4*%
%TO.N,VDD*%
X143050000Y-83750000D03*
%TO.P,J2,3*%
%TO.N,/SDMMC_CMD*%
X143050000Y-82650000D03*
%TO.P,J2,2*%
%TO.N,/SDMMC_D3*%
X143050000Y-81550000D03*
%TO.P,J2,1*%
%TO.N,/SDMMC_D2*%
X143050000Y-80450000D03*
%TD*%
%TO.P,FB2,2*%
%TO.N,VDD*%
%TA.AperFunction,SMDPad,CuDef*%
G36*
G01*
X118200000Y-61906250D02*
X118200000Y-60993750D01*
G75*
G02*
X118443750Y-60750000I243750J0D01*
G01*
X118931250Y-60750000D01*
G75*
G02*
X119175000Y-60993750I0J-243750D01*
G01*
X119175000Y-61906250D01*
G75*
G02*
X118931250Y-62150000I-243750J0D01*
G01*
X118443750Y-62150000D01*
G75*
G02*
X118200000Y-61906250I0J243750D01*
G01*
G37*
%TD.AperFunction*%
%TO.P,FB2,1*%
%TO.N,VDDA*%
%TA.AperFunction,SMDPad,CuDef*%
G36*
G01*
X116325000Y-61906250D02*
X116325000Y-60993750D01*
G75*
G02*
X116568750Y-60750000I243750J0D01*
G01*
X117056250Y-60750000D01*
G75*
G02*
X117300000Y-60993750I0J-243750D01*
G01*
X117300000Y-61906250D01*
G75*
G02*
X117056250Y-62150000I-243750J0D01*
G01*
X116568750Y-62150000D01*
G75*
G02*
X116325000Y-61906250I0J243750D01*
G01*
G37*
%TD.AperFunction*%
%TD*%
%TO.P,FB1,2*%
%TO.N,/VBUS*%
%TA.AperFunction,SMDPad,CuDef*%
G36*
G01*
X121800000Y-93456250D02*
X121800000Y-92543750D01*
G75*
G02*
X122043750Y-92300000I243750J0D01*
G01*
X122531250Y-92300000D01*
G75*
G02*
X122775000Y-92543750I0J-243750D01*
G01*
X122775000Y-93456250D01*
G75*
G02*
X122531250Y-93700000I-243750J0D01*
G01*
X122043750Y-93700000D01*
G75*
G02*
X121800000Y-93456250I0J243750D01*
G01*
G37*
%TD.AperFunction*%
%TO.P,FB1,1*%
%TO.N,/VIN*%
%TA.AperFunction,SMDPad,CuDef*%
G36*
G01*
X119925000Y-93456250D02*
X119925000Y-92543750D01*
G75*
G02*
X120168750Y-92300000I243750J0D01*
G01*
X120656250Y-92300000D01*
G75*
G02*
X120900000Y-92543750I0J-243750D01*
G01*
X120900000Y-93456250D01*
G75*
G02*
X120656250Y-93700000I-243750J0D01*
G01*
X120168750Y-93700000D01*
G75*
G02*
X119925000Y-93456250I0J243750D01*
G01*
G37*
%TD.AperFunction*%
%TD*%
%TO.P,C16,2*%
%TO.N,GND*%
%TA.AperFunction,SMDPad,CuDef*%
G36*
G01*
X123650000Y-82843750D02*
X123650000Y-83356250D01*
G75*
G02*
X123431250Y-83575000I-218750J0D01*
G01*
X122993750Y-83575000D01*
G75*
G02*
X122775000Y-83356250I0J218750D01*
G01*
X122775000Y-82843750D01*
G75*
G02*
X122993750Y-82625000I218750J0D01*
G01*
X123431250Y-82625000D01*
G75*
G02*
X123650000Y-82843750I0J-218750D01*
G01*
G37*
%TD.AperFunction*%
%TO.P,C16,1*%
%TO.N,VDD*%
%TA.AperFunction,SMDPad,CuDef*%
G36*
G01*
X125225000Y-82843750D02*
X125225000Y-83356250D01*
G75*
G02*
X125006250Y-83575000I-218750J0D01*
G01*
X124568750Y-83575000D01*
G75*
G02*
X124350000Y-83356250I0J218750D01*
G01*
X124350000Y-82843750D01*
G75*
G02*
X124568750Y-82625000I218750J0D01*
G01*
X125006250Y-82625000D01*
G75*
G02*
X125225000Y-82843750I0J-218750D01*
G01*
G37*
%TD.AperFunction*%
%TD*%
%TO.P,C15,2*%
%TO.N,GND*%
%TA.AperFunction,SMDPad,CuDef*%
G36*
G01*
X112256250Y-79150000D02*
X111743750Y-79150000D01*
G75*
G02*
X111525000Y-78931250I0J218750D01*
G01*
X111525000Y-78493750D01*
G75*
G02*
X111743750Y-78275000I218750J0D01*
G01*
X112256250Y-78275000D01*
G75*
G02*
X112475000Y-78493750I0J-218750D01*
G01*
X112475000Y-78931250D01*
G75*
G02*
X112256250Y-79150000I-218750J0D01*
G01*
G37*
%TD.AperFunction*%
%TO.P,C15,1*%
%TO.N,VDD*%
%TA.AperFunction,SMDPad,CuDef*%
G36*
G01*
X112256250Y-80725000D02*
X111743750Y-80725000D01*
G75*
G02*
X111525000Y-80506250I0J218750D01*
G01*
X111525000Y-80068750D01*
G75*
G02*
X111743750Y-79850000I218750J0D01*
G01*
X112256250Y-79850000D01*
G75*
G02*
X112475000Y-80068750I0J-218750D01*
G01*
X112475000Y-80506250D01*
G75*
G02*
X112256250Y-80725000I-218750J0D01*
G01*
G37*
%TD.AperFunction*%
%TD*%
%TO.P,C14,2*%
%TO.N,GND*%
%TA.AperFunction,SMDPad,CuDef*%
G36*
G01*
X112256250Y-70900000D02*
X111743750Y-70900000D01*
G75*
G02*
X111525000Y-70681250I0J218750D01*
G01*
X111525000Y-70243750D01*
G75*
G02*
X111743750Y-70025000I218750J0D01*
G01*
X112256250Y-70025000D01*
G75*
G02*
X112475000Y-70243750I0J-218750D01*
G01*
X112475000Y-70681250D01*
G75*
G02*
X112256250Y-70900000I-218750J0D01*
G01*
G37*
%TD.AperFunction*%
%TO.P,C14,1*%
%TO.N,VDD*%
%TA.AperFunction,SMDPad,CuDef*%
G36*
G01*
X112256250Y-72475000D02*
X111743750Y-72475000D01*
G75*
G02*
X111525000Y-72256250I0J218750D01*
G01*
X111525000Y-71818750D01*
G75*
G02*
X111743750Y-71600000I218750J0D01*
G01*
X112256250Y-71600000D01*
G75*
G02*
X112475000Y-71818750I0J-218750D01*
G01*
X112475000Y-72256250D01*
G75*
G02*
X112256250Y-72475000I-218750J0D01*
G01*
G37*
%TD.AperFunction*%
%TD*%
%TO.P,C12,2*%
%TO.N,GND*%
%TA.AperFunction,SMDPad,CuDef*%
G36*
G01*
X127106250Y-81700000D02*
X126193750Y-81700000D01*
G75*
G02*
X125950000Y-81456250I0J243750D01*
G01*
X125950000Y-80968750D01*
G75*
G02*
X126193750Y-80725000I243750J0D01*
G01*
X127106250Y-80725000D01*
G75*
G02*
X127350000Y-80968750I0J-243750D01*
G01*
X127350000Y-81456250D01*
G75*
G02*
X127106250Y-81700000I-243750J0D01*
G01*
G37*
%TD.AperFunction*%
%TO.P,C12,1*%
%TO.N,VDD*%
%TA.AperFunction,SMDPad,CuDef*%
G36*
G01*
X127106250Y-83575000D02*
X126193750Y-83575000D01*
G75*
G02*
X125950000Y-83331250I0J243750D01*
G01*
X125950000Y-82843750D01*
G75*
G02*
X126193750Y-82600000I243750J0D01*
G01*
X127106250Y-82600000D01*
G75*
G02*
X127350000Y-82843750I0J-243750D01*
G01*
X127350000Y-83331250D01*
G75*
G02*
X127106250Y-83575000I-243750J0D01*
G01*
G37*
%TD.AperFunction*%
%TD*%
%TO.P,C11,2*%
%TO.N,GND*%
%TA.AperFunction,SMDPad,CuDef*%
G36*
G01*
X141900000Y-76543750D02*
X141900000Y-77056250D01*
G75*
G02*
X141681250Y-77275000I-218750J0D01*
G01*
X141243750Y-77275000D01*
G75*
G02*
X141025000Y-77056250I0J218750D01*
G01*
X141025000Y-76543750D01*
G75*
G02*
X141243750Y-76325000I218750J0D01*
G01*
X141681250Y-76325000D01*
G75*
G02*
X141900000Y-76543750I0J-218750D01*
G01*
G37*
%TD.AperFunction*%
%TO.P,C11,1*%
%TO.N,VDD*%
%TA.AperFunction,SMDPad,CuDef*%
G36*
G01*
X143475000Y-76543750D02*
X143475000Y-77056250D01*
G75*
G02*
X143256250Y-77275000I-218750J0D01*
G01*
X142818750Y-77275000D01*
G75*
G02*
X142600000Y-77056250I0J218750D01*
G01*
X142600000Y-76543750D01*
G75*
G02*
X142818750Y-76325000I218750J0D01*
G01*
X143256250Y-76325000D01*
G75*
G02*
X143475000Y-76543750I0J-218750D01*
G01*
G37*
%TD.AperFunction*%
%TD*%
%TO.P,C10,2*%
%TO.N,GND*%
%TA.AperFunction,SMDPad,CuDef*%
G36*
G01*
X126706250Y-67500000D02*
X126193750Y-67500000D01*
G75*
G02*
X125975000Y-67281250I0J218750D01*
G01*
X125975000Y-66843750D01*
G75*
G02*
X126193750Y-66625000I218750J0D01*
G01*
X126706250Y-66625000D01*
G75*
G02*
X126925000Y-66843750I0J-218750D01*
G01*
X126925000Y-67281250D01*
G75*
G02*
X126706250Y-67500000I-218750J0D01*
G01*
G37*
%TD.AperFunction*%
%TO.P,C10,1*%
%TO.N,/VBAT*%
%TA.AperFunction,SMDPad,CuDef*%
G36*
G01*
X126706250Y-69075000D02*
X126193750Y-69075000D01*
G75*
G02*
X125975000Y-68856250I0J218750D01*
G01*
X125975000Y-68418750D01*
G75*
G02*
X126193750Y-68200000I218750J0D01*
G01*
X126706250Y-68200000D01*
G75*
G02*
X126925000Y-68418750I0J-218750D01*
G01*
X126925000Y-68856250D01*
G75*
G02*
X126706250Y-69075000I-218750J0D01*
G01*
G37*
%TD.AperFunction*%
%TD*%
%TO.P,C6,2*%
%TO.N,GND*%
%TA.AperFunction,SMDPad,CuDef*%
G36*
G01*
X117950000Y-65106250D02*
X117950000Y-64593750D01*
G75*
G02*
X118168750Y-64375000I218750J0D01*
G01*
X118606250Y-64375000D01*
G75*
G02*
X118825000Y-64593750I0J-218750D01*
G01*
X118825000Y-65106250D01*
G75*
G02*
X118606250Y-65325000I-218750J0D01*
G01*
X118168750Y-65325000D01*
G75*
G02*
X117950000Y-65106250I0J218750D01*
G01*
G37*
%TD.AperFunction*%
%TO.P,C6,1*%
%TO.N,VDDA*%
%TA.AperFunction,SMDPad,CuDef*%
G36*
G01*
X116375000Y-65106250D02*
X116375000Y-64593750D01*
G75*
G02*
X116593750Y-64375000I218750J0D01*
G01*
X117031250Y-64375000D01*
G75*
G02*
X117250000Y-64593750I0J-218750D01*
G01*
X117250000Y-65106250D01*
G75*
G02*
X117031250Y-65325000I-218750J0D01*
G01*
X116593750Y-65325000D01*
G75*
G02*
X116375000Y-65106250I0J218750D01*
G01*
G37*
%TD.AperFunction*%
%TD*%
%TO.P,C5,2*%
%TO.N,GND*%
%TA.AperFunction,SMDPad,CuDef*%
G36*
G01*
X117950000Y-63506250D02*
X117950000Y-62993750D01*
G75*
G02*
X118168750Y-62775000I218750J0D01*
G01*
X118606250Y-62775000D01*
G75*
G02*
X118825000Y-62993750I0J-218750D01*
G01*
X118825000Y-63506250D01*
G75*
G02*
X118606250Y-63725000I-218750J0D01*
G01*
X118168750Y-63725000D01*
G75*
G02*
X117950000Y-63506250I0J218750D01*
G01*
G37*
%TD.AperFunction*%
%TO.P,C5,1*%
%TO.N,VDDA*%
%TA.AperFunction,SMDPad,CuDef*%
G36*
G01*
X116375000Y-63506250D02*
X116375000Y-62993750D01*
G75*
G02*
X116593750Y-62775000I218750J0D01*
G01*
X117031250Y-62775000D01*
G75*
G02*
X117250000Y-62993750I0J-218750D01*
G01*
X117250000Y-63506250D01*
G75*
G02*
X117031250Y-63725000I-218750J0D01*
G01*
X116593750Y-63725000D01*
G75*
G02*
X116375000Y-63506250I0J218750D01*
G01*
G37*
%TD.AperFunction*%
%TD*%
%TO.P,C2,2*%
%TO.N,GND*%
%TA.AperFunction,SMDPad,CuDef*%
G36*
G01*
X118200000Y-87456250D02*
X118200000Y-86543750D01*
G75*
G02*
X118443750Y-86300000I243750J0D01*
G01*
X118931250Y-86300000D01*
G75*
G02*
X119175000Y-86543750I0J-243750D01*
G01*
X119175000Y-87456250D01*
G75*
G02*
X118931250Y-87700000I-243750J0D01*
G01*
X118443750Y-87700000D01*
G75*
G02*
X118200000Y-87456250I0J243750D01*
G01*
G37*
%TD.AperFunction*%
%TO.P,C2,1*%
%TO.N,VDD*%
%TA.AperFunction,SMDPad,CuDef*%
G36*
G01*
X116325000Y-87456250D02*
X116325000Y-86543750D01*
G75*
G02*
X116568750Y-86300000I243750J0D01*
G01*
X117056250Y-86300000D01*
G75*
G02*
X117300000Y-86543750I0J-243750D01*
G01*
X117300000Y-87456250D01*
G75*
G02*
X117056250Y-87700000I-243750J0D01*
G01*
X116568750Y-87700000D01*
G75*
G02*
X116325000Y-87456250I0J243750D01*
G01*
G37*
%TD.AperFunction*%
%TD*%
%TO.P,C1,2*%
%TO.N,GND*%
%TA.AperFunction,SMDPad,CuDef*%
G36*
G01*
X117350000Y-92543750D02*
X117350000Y-93456250D01*
G75*
G02*
X117106250Y-93700000I-243750J0D01*
G01*
X116618750Y-93700000D01*
G75*
G02*
X116375000Y-93456250I0J243750D01*
G01*
X116375000Y-92543750D01*
G75*
G02*
X116618750Y-92300000I243750J0D01*
G01*
X117106250Y-92300000D01*
G75*
G02*
X117350000Y-92543750I0J-243750D01*
G01*
G37*
%TD.AperFunction*%
%TO.P,C1,1*%
%TO.N,/VIN*%
%TA.AperFunction,SMDPad,CuDef*%
G36*
G01*
X119225000Y-92543750D02*
X119225000Y-93456250D01*
G75*
G02*
X118981250Y-93700000I-243750J0D01*
G01*
X118493750Y-93700000D01*
G75*
G02*
X118250000Y-93456250I0J243750D01*
G01*
X118250000Y-92543750D01*
G75*
G02*
X118493750Y-92300000I243750J0D01*
G01*
X118981250Y-92300000D01*
G75*
G02*
X119225000Y-92543750I0J-243750D01*
G01*
G37*
%TD.AperFunction*%
%TD*%
D29*
%TO.N,VSSA*%
%TO.C,NT1*%
X118250000Y-67000000D03*
%TO.N,GND*%
X119250000Y-67000000D03*
%TD*%
D30*
%TO.P,U3,5*%
%TO.N,VDD*%
X112400000Y-62400000D03*
%TO.P,U3,4*%
%TO.N,Net-(U3-Pad4)*%
X112400000Y-60500000D03*
%TO.P,U3,3*%
%TO.N,Net-(SW2-Pad2)*%
X114600000Y-60500000D03*
%TO.P,U3,2*%
%TO.N,GND*%
X114600000Y-61450000D03*
%TO.P,U3,1*%
%TO.N,/~RST*%
X114600000Y-62400000D03*
%TD*%
D31*
%TO.P,Y1,2*%
%TO.N,/RTC_OSC_OUT*%
X124150000Y-64200000D03*
%TO.P,Y1,1*%
%TO.N,/RTC_OSC_IN*%
X126650000Y-64200000D03*
%TD*%
D32*
%TO.P,X1,1*%
%TO.N,/OSC_IN*%
X122720000Y-65215000D03*
%TO.P,X1,2*%
%TO.N,GND*%
X121520000Y-65215000D03*
%TO.P,X1,3*%
%TO.N,/OSC_OUT*%
X120320000Y-65215000D03*
%TD*%
D33*
%TO.P,P3,2*%
%TO.N,/JTMS_SWDIO*%
X131550000Y-74290000D03*
%TO.P,P3,4*%
%TO.N,/JTCK_SWCLK*%
X131550000Y-73020000D03*
%TO.P,P3,6*%
%TO.N,/JTDO_SWO*%
X131550000Y-71750000D03*
%TO.P,P3,8*%
%TO.N,/JTDI*%
X131550000Y-70480000D03*
%TO.P,P3,10*%
%TO.N,/~JTRST*%
X131550000Y-69210000D03*
%TO.P,P3,1*%
%TO.N,VDD*%
X135450000Y-74290000D03*
%TO.P,P3,3*%
%TO.N,GND*%
X135450000Y-73020000D03*
%TO.P,P3,5*%
X135450000Y-71750000D03*
%TO.P,P3,7*%
%TO.N,Net-(P3-Pad7)*%
X135450000Y-70480000D03*
%TO.P,P3,9*%
%TO.N,GND*%
X135450000Y-69210000D03*
%TD*%
D34*
%TO.P,SW1,1*%
%TO.N,/VBAT_IN*%
X130400000Y-58750000D03*
%TO.P,SW1,2*%
%TO.N,/VBAT*%
X130400000Y-60500000D03*
%TO.P,SW1,3*%
%TO.N,VDD*%
X130400000Y-62250000D03*
%TO.P,SW1,4*%
X134100000Y-58750000D03*
%TO.P,SW1,5*%
%TO.N,/BOOT_SEL*%
X134100000Y-60500000D03*
%TO.P,SW1,6*%
%TO.N,GND*%
X134100000Y-62250000D03*
%TD*%
D22*
%TO.P,U2,5*%
%TO.N,/VBUS*%
X131150000Y-93000000D03*
%TO.P,U2,6*%
%TO.N,/D+*%
X132100000Y-93000000D03*
%TO.P,U2,4*%
%TO.N,/D-*%
X130200000Y-93000000D03*
%TO.P,U2,3*%
%TO.N,/OTG_FS_D-*%
X130200000Y-90800000D03*
%TO.P,U2,2*%
%TO.N,GND*%
X131150000Y-90800000D03*
%TO.P,U2,1*%
%TO.N,/OTG_FS_D+*%
X132100000Y-90800000D03*
%TD*%
%TO.P,R4,2*%
%TO.N,GND*%
%TA.AperFunction,SMDPad,CuDef*%
G36*
G01*
X128143750Y-92700000D02*
X128656250Y-92700000D01*
G75*
G02*
X128875000Y-92918750I0J-218750D01*
G01*
X128875000Y-93356250D01*
G75*
G02*
X128656250Y-93575000I-218750J0D01*
G01*
X128143750Y-93575000D01*
G75*
G02*
X127925000Y-93356250I0J218750D01*
G01*
X127925000Y-92918750D01*
G75*
G02*
X128143750Y-92700000I218750J0D01*
G01*
G37*
%TD.AperFunction*%
%TO.P,R4,1*%
%TO.N,Net-(D2-Pad1)*%
%TA.AperFunction,SMDPad,CuDef*%
G36*
G01*
X128143750Y-91125000D02*
X128656250Y-91125000D01*
G75*
G02*
X128875000Y-91343750I0J-218750D01*
G01*
X128875000Y-91781250D01*
G75*
G02*
X128656250Y-92000000I-218750J0D01*
G01*
X128143750Y-92000000D01*
G75*
G02*
X127925000Y-91781250I0J218750D01*
G01*
X127925000Y-91343750D01*
G75*
G02*
X128143750Y-91125000I218750J0D01*
G01*
G37*
%TD.AperFunction*%
%TD*%
%TO.P,R3,2*%
%TO.N,GND*%
%TA.AperFunction,SMDPad,CuDef*%
G36*
G01*
X133648750Y-92691500D02*
X134161250Y-92691500D01*
G75*
G02*
X134380000Y-92910250I0J-218750D01*
G01*
X134380000Y-93347750D01*
G75*
G02*
X134161250Y-93566500I-218750J0D01*
G01*
X133648750Y-93566500D01*
G75*
G02*
X133430000Y-93347750I0J218750D01*
G01*
X133430000Y-92910250D01*
G75*
G02*
X133648750Y-92691500I218750J0D01*
G01*
G37*
%TD.AperFunction*%
%TO.P,R3,1*%
%TO.N,Net-(D1-Pad1)*%
%TA.AperFunction,SMDPad,CuDef*%
G36*
G01*
X133648750Y-91116500D02*
X134161250Y-91116500D01*
G75*
G02*
X134380000Y-91335250I0J-218750D01*
G01*
X134380000Y-91772750D01*
G75*
G02*
X134161250Y-91991500I-218750J0D01*
G01*
X133648750Y-91991500D01*
G75*
G02*
X133430000Y-91772750I0J218750D01*
G01*
X133430000Y-91335250D01*
G75*
G02*
X133648750Y-91116500I218750J0D01*
G01*
G37*
%TD.AperFunction*%
%TD*%
%TO.P,D2,2*%
%TO.N,VDD*%
%TA.AperFunction,SMDPad,CuDef*%
G36*
G01*
X128641250Y-88864000D02*
X128128750Y-88864000D01*
G75*
G02*
X127910000Y-88645250I0J218750D01*
G01*
X127910000Y-88207750D01*
G75*
G02*
X128128750Y-87989000I218750J0D01*
G01*
X128641250Y-87989000D01*
G75*
G02*
X128860000Y-88207750I0J-218750D01*
G01*
X128860000Y-88645250D01*
G75*
G02*
X128641250Y-88864000I-218750J0D01*
G01*
G37*
%TD.AperFunction*%
%TO.P,D2,1*%
%TO.N,Net-(D2-Pad1)*%
%TA.AperFunction,SMDPad,CuDef*%
G36*
G01*
X128641250Y-90439000D02*
X128128750Y-90439000D01*
G75*
G02*
X127910000Y-90220250I0J218750D01*
G01*
X127910000Y-89782750D01*
G75*
G02*
X128128750Y-89564000I218750J0D01*
G01*
X128641250Y-89564000D01*
G75*
G02*
X128860000Y-89782750I0J-218750D01*
G01*
X128860000Y-90220250D01*
G75*
G02*
X128641250Y-90439000I-218750J0D01*
G01*
G37*
%TD.AperFunction*%
%TD*%
%TO.P,D1,2*%
%TO.N,/LED_RED*%
%TA.AperFunction,SMDPad,CuDef*%
G36*
G01*
X134166650Y-88664000D02*
X133654150Y-88664000D01*
G75*
G02*
X133435400Y-88445250I0J218750D01*
G01*
X133435400Y-88007750D01*
G75*
G02*
X133654150Y-87789000I218750J0D01*
G01*
X134166650Y-87789000D01*
G75*
G02*
X134385400Y-88007750I0J-218750D01*
G01*
X134385400Y-88445250D01*
G75*
G02*
X134166650Y-88664000I-218750J0D01*
G01*
G37*
%TD.AperFunction*%
%TO.P,D1,1*%
%TO.N,Net-(D1-Pad1)*%
%TA.AperFunction,SMDPad,CuDef*%
G36*
G01*
X134166650Y-90239000D02*
X133654150Y-90239000D01*
G75*
G02*
X133435400Y-90020250I0J218750D01*
G01*
X133435400Y-89582750D01*
G75*
G02*
X133654150Y-89364000I218750J0D01*
G01*
X134166650Y-89364000D01*
G75*
G02*
X134385400Y-89582750I0J-218750D01*
G01*
X134385400Y-90020250D01*
G75*
G02*
X134166650Y-90239000I-218750J0D01*
G01*
G37*
%TD.AperFunction*%
%TD*%
%TO.P,C17,2*%
%TO.N,GND*%
%TA.AperFunction,SMDPad,CuDef*%
G36*
G01*
X127743750Y-71312500D02*
X128256250Y-71312500D01*
G75*
G02*
X128475000Y-71531250I0J-218750D01*
G01*
X128475000Y-71968750D01*
G75*
G02*
X128256250Y-72187500I-218750J0D01*
G01*
X127743750Y-72187500D01*
G75*
G02*
X127525000Y-71968750I0J218750D01*
G01*
X127525000Y-71531250D01*
G75*
G02*
X127743750Y-71312500I218750J0D01*
G01*
G37*
%TD.AperFunction*%
%TO.P,C17,1*%
%TO.N,VDD*%
%TA.AperFunction,SMDPad,CuDef*%
G36*
G01*
X127743750Y-69737500D02*
X128256250Y-69737500D01*
G75*
G02*
X128475000Y-69956250I0J-218750D01*
G01*
X128475000Y-70393750D01*
G75*
G02*
X128256250Y-70612500I-218750J0D01*
G01*
X127743750Y-70612500D01*
G75*
G02*
X127525000Y-70393750I0J218750D01*
G01*
X127525000Y-69956250D01*
G75*
G02*
X127743750Y-69737500I218750J0D01*
G01*
G37*
%TD.AperFunction*%
%TD*%
%TO.P,C9,2*%
%TO.N,GND*%
%TA.AperFunction,SMDPad,CuDef*%
G36*
G01*
X124856250Y-61050000D02*
X124343750Y-61050000D01*
G75*
G02*
X124125000Y-60831250I0J218750D01*
G01*
X124125000Y-60393750D01*
G75*
G02*
X124343750Y-60175000I218750J0D01*
G01*
X124856250Y-60175000D01*
G75*
G02*
X125075000Y-60393750I0J-218750D01*
G01*
X125075000Y-60831250D01*
G75*
G02*
X124856250Y-61050000I-218750J0D01*
G01*
G37*
%TD.AperFunction*%
%TO.P,C9,1*%
%TO.N,/RTC_OSC_OUT*%
%TA.AperFunction,SMDPad,CuDef*%
G36*
G01*
X124856250Y-62625000D02*
X124343750Y-62625000D01*
G75*
G02*
X124125000Y-62406250I0J218750D01*
G01*
X124125000Y-61968750D01*
G75*
G02*
X124343750Y-61750000I218750J0D01*
G01*
X124856250Y-61750000D01*
G75*
G02*
X125075000Y-61968750I0J-218750D01*
G01*
X125075000Y-62406250D01*
G75*
G02*
X124856250Y-62625000I-218750J0D01*
G01*
G37*
%TD.AperFunction*%
%TD*%
%TO.P,C8,2*%
%TO.N,GND*%
%TA.AperFunction,SMDPad,CuDef*%
G36*
G01*
X126456250Y-61050000D02*
X125943750Y-61050000D01*
G75*
G02*
X125725000Y-60831250I0J218750D01*
G01*
X125725000Y-60393750D01*
G75*
G02*
X125943750Y-60175000I218750J0D01*
G01*
X126456250Y-60175000D01*
G75*
G02*
X126675000Y-60393750I0J-218750D01*
G01*
X126675000Y-60831250D01*
G75*
G02*
X126456250Y-61050000I-218750J0D01*
G01*
G37*
%TD.AperFunction*%
%TO.P,C8,1*%
%TO.N,/RTC_OSC_IN*%
%TA.AperFunction,SMDPad,CuDef*%
G36*
G01*
X126456250Y-62625000D02*
X125943750Y-62625000D01*
G75*
G02*
X125725000Y-62406250I0J218750D01*
G01*
X125725000Y-61968750D01*
G75*
G02*
X125943750Y-61750000I218750J0D01*
G01*
X126456250Y-61750000D01*
G75*
G02*
X126675000Y-61968750I0J-218750D01*
G01*
X126675000Y-62406250D01*
G75*
G02*
X126456250Y-62625000I-218750J0D01*
G01*
G37*
%TD.AperFunction*%
%TD*%
%TO.P,C3,2*%
%TO.N,GND*%
%TA.AperFunction,SMDPad,CuDef*%
G36*
G01*
X133100000Y-76143750D02*
X133100000Y-76656250D01*
G75*
G02*
X132881250Y-76875000I-218750J0D01*
G01*
X132443750Y-76875000D01*
G75*
G02*
X132225000Y-76656250I0J218750D01*
G01*
X132225000Y-76143750D01*
G75*
G02*
X132443750Y-75925000I218750J0D01*
G01*
X132881250Y-75925000D01*
G75*
G02*
X133100000Y-76143750I0J-218750D01*
G01*
G37*
%TD.AperFunction*%
%TO.P,C3,1*%
%TO.N,VDD*%
%TA.AperFunction,SMDPad,CuDef*%
G36*
G01*
X134675000Y-76143750D02*
X134675000Y-76656250D01*
G75*
G02*
X134456250Y-76875000I-218750J0D01*
G01*
X134018750Y-76875000D01*
G75*
G02*
X133800000Y-76656250I0J218750D01*
G01*
X133800000Y-76143750D01*
G75*
G02*
X134018750Y-75925000I218750J0D01*
G01*
X134456250Y-75925000D01*
G75*
G02*
X134675000Y-76143750I0J-218750D01*
G01*
G37*
%TD.AperFunction*%
%TD*%
%TO.P,C7,2*%
%TO.N,VDD*%
%TA.AperFunction,SMDPad,CuDef*%
G36*
G01*
X113100000Y-64043750D02*
X113100000Y-64556250D01*
G75*
G02*
X112881250Y-64775000I-218750J0D01*
G01*
X112443750Y-64775000D01*
G75*
G02*
X112225000Y-64556250I0J218750D01*
G01*
X112225000Y-64043750D01*
G75*
G02*
X112443750Y-63825000I218750J0D01*
G01*
X112881250Y-63825000D01*
G75*
G02*
X113100000Y-64043750I0J-218750D01*
G01*
G37*
%TD.AperFunction*%
%TO.P,C7,1*%
%TO.N,GND*%
%TA.AperFunction,SMDPad,CuDef*%
G36*
G01*
X114675000Y-64043750D02*
X114675000Y-64556250D01*
G75*
G02*
X114456250Y-64775000I-218750J0D01*
G01*
X114018750Y-64775000D01*
G75*
G02*
X113800000Y-64556250I0J218750D01*
G01*
X113800000Y-64043750D01*
G75*
G02*
X114018750Y-63825000I218750J0D01*
G01*
X114456250Y-63825000D01*
G75*
G02*
X114675000Y-64043750I0J-218750D01*
G01*
G37*
%TD.AperFunction*%
%TD*%
D35*
%TO.P,P1,1*%
%TO.N,VDD*%
X125730000Y-88900000D03*
%TD*%
D36*
%TO.P,SW2,1*%
%TO.N,GND*%
X107475000Y-62350000D03*
X110425000Y-62350000D03*
%TO.P,SW2,2*%
%TO.N,Net-(SW2-Pad2)*%
X107475000Y-60550000D03*
X110425000Y-60550000D03*
%TD*%
D35*
%TO.P,P2,1*%
%TO.N,/VBUS*%
X125730000Y-91440000D03*
%TD*%
D37*
%TO.N,GND*%
X137250000Y-71750000D03*
X137300000Y-73000000D03*
X108200000Y-62950000D03*
X110750000Y-63100000D03*
X114250000Y-63350000D03*
X113450000Y-61450000D03*
X113250000Y-70250000D03*
X107000000Y-57500000D03*
X119249997Y-63250003D03*
X134000000Y-63500000D03*
X131750000Y-76250000D03*
X135250000Y-78750000D03*
X138750000Y-77750000D03*
X140250000Y-76500000D03*
X141750000Y-85750000D03*
X140250000Y-90500000D03*
X137250000Y-90500000D03*
X135000000Y-93000000D03*
X128000000Y-94000000D03*
X132000000Y-92000000D03*
X120500000Y-90750000D03*
X119750000Y-87500000D03*
X117750000Y-87750000D03*
X115750000Y-93250000D03*
X112500000Y-90750000D03*
X128000000Y-81750000D03*
X124000000Y-83922590D03*
X111100000Y-79400000D03*
X128093719Y-72685285D03*
X131500000Y-56550000D03*
X132300000Y-54650000D03*
X121500000Y-66700000D03*
X126913916Y-66200010D03*
X120500000Y-61000000D03*
X122600000Y-61000000D03*
X124600000Y-59700000D03*
X126200000Y-59700000D03*
X133100000Y-94500000D03*
X137200000Y-69069990D03*
X119300000Y-64700000D03*
%TO.N,VDD*%
X104100000Y-63400000D03*
X106100000Y-63250000D03*
X111300000Y-61900000D03*
X111550000Y-64150000D03*
X111000000Y-72650010D03*
X108000000Y-57500000D03*
X132000000Y-62250000D03*
X128750000Y-69250000D03*
X135250000Y-76000000D03*
X143000000Y-75750000D03*
X128250000Y-87500000D03*
X115750000Y-87000000D03*
X128000000Y-83350022D03*
X125250000Y-83874990D03*
X126500000Y-83874990D03*
X115900000Y-85000000D03*
X111800000Y-81300000D03*
X106800000Y-84800000D03*
X137341131Y-74289616D03*
X135400000Y-58750000D03*
X118650000Y-60300000D03*
%TO.N,/SDMMC_D2*%
X141650000Y-80350000D03*
X137600000Y-83600000D03*
%TO.N,/SDMMC_D3*%
X139100000Y-82950000D03*
X141700000Y-81550000D03*
%TO.N,/JTDI*%
X127900000Y-78199990D03*
X133549998Y-70650000D03*
%TO.N,/~RST*%
X130550000Y-63900000D03*
X127399999Y-58200001D03*
%TO.N,VDDA*%
X117250000Y-67500000D03*
%TO.N,/SDMMC_DET*%
X139600000Y-77250000D03*
X131896766Y-83403234D03*
%TO.N,VSSA*%
X98000000Y-60000000D03*
X99000000Y-60000000D03*
X100700000Y-60700000D03*
X102600000Y-63600000D03*
X105000000Y-65000000D03*
X106000000Y-65000000D03*
X107000000Y-65000000D03*
X108000000Y-65000000D03*
X110300000Y-66300000D03*
X112000000Y-67000000D03*
X115000000Y-67000000D03*
X116000000Y-67000000D03*
X113000000Y-67000000D03*
X114000000Y-67000000D03*
X101400000Y-61400000D03*
X103300000Y-64300000D03*
X109700000Y-65700000D03*
X109000000Y-65000000D03*
X102000000Y-63000000D03*
X96000000Y-60000000D03*
X97000000Y-60000000D03*
X100000000Y-60000000D03*
X102000000Y-62000000D03*
X111000000Y-67000000D03*
X104000000Y-65000000D03*
X96000000Y-60000000D03*
X96000000Y-88000000D03*
X97000000Y-88000000D03*
X98000000Y-88000000D03*
X99000000Y-88000000D03*
X100000000Y-88000000D03*
X101000000Y-88000000D03*
X102000000Y-87000000D03*
X102000000Y-86000000D03*
X102000000Y-85000000D03*
X102000000Y-84000000D03*
X103000000Y-83000000D03*
X104000000Y-82000000D03*
X105000000Y-81000000D03*
X106000000Y-80000000D03*
X107000000Y-79000000D03*
X108000000Y-78000000D03*
X109000000Y-77000000D03*
X110000000Y-76000000D03*
X111000000Y-75000000D03*
X117844472Y-66594462D03*
%TO.N,/QSPI_IO0*%
X112250000Y-84750000D03*
X108750000Y-83250000D03*
%TO.N,/LED_RED*%
X127202858Y-74550010D03*
X130400000Y-85200000D03*
%TO.N,/RTC_REFIN*%
X120942829Y-72444195D03*
%TO.N,/RTC_OUT*%
X112700000Y-77050000D03*
X115900000Y-72900000D03*
X118100000Y-71100000D03*
%TO.N,/USART3_CK*%
X116200000Y-82300000D03*
%TO.N,/USART3_CTS*%
X116700000Y-83100000D03*
%TO.N,/USART3_RTS*%
X117200000Y-83800000D03*
%TO.N,/USART3_RXD*%
X115750000Y-75500000D03*
%TO.N,/COMP_OUT*%
X123686945Y-74876110D03*
%TO.N,/COMP_IN-*%
X124000000Y-73750000D03*
%TO.N,/COMP_IN+*%
X123000000Y-74300010D03*
%TO.N,/USART3_TXD*%
X115750000Y-74750000D03*
%TO.N,/USART1_TX*%
X120050010Y-82500000D03*
X136772539Y-76555293D03*
%TO.N,/USART1_RX*%
X120850000Y-82500000D03*
X137416768Y-76829129D03*
%TO.N,/SPI_MISO*%
X122750000Y-71550000D03*
%TO.N,/SPI_MOSI*%
X121800019Y-71850000D03*
%TO.N,/SPI_SCK*%
X115750000Y-77450000D03*
%TO.N,/SPI_SS#*%
X127557447Y-73394626D03*
X136450000Y-67650000D03*
%TO.N,/I2C_SDA*%
X119733322Y-67914508D03*
X115788916Y-64988916D03*
%TO.N,/I2C_SCL*%
X115750000Y-64000000D03*
X120432631Y-67945873D03*
%TO.N,/COMP_OUT*%
X110000000Y-72000000D03*
%TO.N,/COMP_IN-*%
X110000000Y-70250000D03*
%TO.N,/COMP_IN+*%
X110500000Y-71250000D03*
%TO.N,/OCLK_M*%
X120100000Y-73150000D03*
X120999997Y-76500003D03*
X121000000Y-79200002D03*
%TO.N,/OCLK_LS*%
X116300000Y-68000000D03*
%TO.N,/JTMS_SWDIO*%
X122900000Y-79350000D03*
X128700000Y-75700000D03*
%TO.N,/JTCK_SWCLK*%
X129517150Y-74117150D03*
X128963916Y-78486074D03*
X134950000Y-68150000D03*
%TO.N,/JTDO_SWO*%
X133750000Y-71900000D03*
%TD*%
D38*
%TO.N,GND*%
X113287500Y-71750000D02*
X112000000Y-70462500D01*
X114325000Y-71750000D02*
X113287500Y-71750000D01*
X112462500Y-78250000D02*
X112000000Y-78712500D01*
X114325000Y-78250000D02*
X112462500Y-78250000D01*
X128000000Y-71750000D02*
X125675000Y-71750000D01*
X123250000Y-83062500D02*
X123212500Y-83100000D01*
X123250000Y-80675000D02*
X123250000Y-83062500D01*
X133400000Y-73570000D02*
X133950000Y-73020000D01*
X133400000Y-75662500D02*
X133400000Y-73570000D01*
X133950000Y-73020000D02*
X135450000Y-73020000D01*
X132662500Y-76400000D02*
X133400000Y-75662500D01*
X135450000Y-73020000D02*
X135450000Y-71750000D01*
X135450000Y-71750000D02*
X137250000Y-71750000D01*
X137280000Y-73020000D02*
X137300000Y-73000000D01*
X135450000Y-73020000D02*
X137280000Y-73020000D01*
X107600000Y-62350000D02*
X108200000Y-62950000D01*
X107475000Y-62350000D02*
X107600000Y-62350000D01*
X110425000Y-62775000D02*
X110750000Y-63100000D01*
X110425000Y-62350000D02*
X110425000Y-62775000D01*
X114237500Y-63362500D02*
X114250000Y-63350000D01*
X114237500Y-64300000D02*
X114237500Y-63362500D01*
X114600000Y-61450000D02*
X113450000Y-61450000D01*
X118387500Y-64850000D02*
X118387500Y-65387500D01*
X119250000Y-66250000D02*
X119250000Y-67000000D01*
X118387500Y-65387500D02*
X119250000Y-66250000D01*
X113037500Y-70462500D02*
X113250000Y-70250000D01*
X112000000Y-70462500D02*
X113037500Y-70462500D01*
X107500000Y-57000000D02*
X107000000Y-57500000D01*
X107500000Y-56000000D02*
X107500000Y-57000000D01*
X119249994Y-63250000D02*
X119249997Y-63250003D01*
X118387500Y-63250000D02*
X119249994Y-63250000D01*
X134100000Y-63400000D02*
X134000000Y-63500000D01*
X134100000Y-62250000D02*
X134100000Y-63400000D01*
X132662500Y-76400000D02*
X131900000Y-76400000D01*
X131900000Y-76400000D02*
X131750000Y-76250000D01*
X136490000Y-78675000D02*
X135325000Y-78675000D01*
X135325000Y-78675000D02*
X135250000Y-78750000D01*
X139100000Y-78100000D02*
X138750000Y-77750000D01*
X139100000Y-78675000D02*
X139100000Y-78100000D01*
X140550000Y-76800000D02*
X140250000Y-76500000D01*
X141462500Y-76800000D02*
X140550000Y-76800000D01*
X141950000Y-85950000D02*
X141750000Y-85750000D01*
X143050000Y-85950000D02*
X141950000Y-85950000D01*
X140250000Y-89325000D02*
X140250000Y-90500000D01*
X137060000Y-90310000D02*
X137250000Y-90500000D01*
X137060000Y-89325000D02*
X137060000Y-90310000D01*
X134871000Y-93129000D02*
X135000000Y-93000000D01*
X133905000Y-93129000D02*
X134871000Y-93129000D01*
X128400000Y-93600000D02*
X128000000Y-94000000D01*
X128400000Y-93137500D02*
X128400000Y-93600000D01*
X131150000Y-91150000D02*
X132000000Y-92000000D01*
X131150000Y-90800000D02*
X131150000Y-91150000D01*
X120500000Y-91625000D02*
X120500000Y-90750000D01*
X119862500Y-87387500D02*
X119750000Y-87500000D01*
X120500000Y-87387500D02*
X119862500Y-87387500D01*
X118687500Y-87000000D02*
X118500000Y-87000000D01*
X118500000Y-87000000D02*
X117750000Y-87750000D01*
X115900000Y-93100000D02*
X115750000Y-93250000D01*
X116862500Y-93100000D02*
X115900000Y-93100000D01*
X112925000Y-91175000D02*
X112500000Y-90750000D01*
X114150000Y-91175000D02*
X112925000Y-91175000D01*
X117650000Y-92312500D02*
X116862500Y-93100000D01*
X117650000Y-91150000D02*
X117650000Y-92312500D01*
X120500000Y-88675000D02*
X120500000Y-87387500D01*
X127462500Y-81212500D02*
X128000000Y-81750000D01*
X126650000Y-81212500D02*
X127462500Y-81212500D01*
X123212500Y-83100000D02*
X123212500Y-83135090D01*
X123212500Y-83135090D02*
X124000000Y-83922590D01*
X111787500Y-78712500D02*
X111100000Y-79400000D01*
X112000000Y-78712500D02*
X111787500Y-78712500D01*
X128000000Y-72591566D02*
X128093719Y-72685285D01*
X128000000Y-71750000D02*
X128000000Y-72591566D01*
X131500000Y-54675000D02*
X131500000Y-56550000D01*
X131500000Y-54675000D02*
X132275000Y-54675000D01*
X121520000Y-66680000D02*
X121500000Y-66700000D01*
X121520000Y-65215000D02*
X121520000Y-66680000D01*
X126450000Y-66663926D02*
X126913916Y-66200010D01*
X126450000Y-67062500D02*
X126450000Y-66663926D01*
X120500000Y-61812500D02*
X120500000Y-61000000D01*
X122600000Y-61812500D02*
X122600000Y-61000000D01*
X124600000Y-60612500D02*
X124600000Y-60600000D01*
X124600000Y-60600000D02*
X124600000Y-59700000D01*
X126200000Y-60612500D02*
X126200000Y-59700000D01*
X132800000Y-94800000D02*
X133100000Y-94500000D01*
X132800000Y-95825000D02*
X132800000Y-94800000D01*
X135450000Y-69210000D02*
X137059990Y-69210000D01*
X137059990Y-69210000D02*
X137200000Y-69069990D01*
X118387500Y-64850000D02*
X119150000Y-64850000D01*
X119150000Y-64850000D02*
X119300000Y-64700000D01*
%TO.N,VDD*%
X112212500Y-72250000D02*
X112000000Y-72037500D01*
X114325000Y-72250000D02*
X112212500Y-72250000D01*
X114325000Y-78750000D02*
X113250000Y-78750000D01*
X113250000Y-78750000D02*
X112750000Y-79250000D01*
X112750000Y-79537500D02*
X112000000Y-80287500D01*
X112750000Y-79250000D02*
X112750000Y-79537500D01*
X125675000Y-71250000D02*
X126750000Y-71250000D01*
X127825000Y-70175000D02*
X128000000Y-70175000D01*
X126750000Y-71250000D02*
X127825000Y-70175000D01*
X124787500Y-82587500D02*
X124787500Y-83100000D01*
X123750000Y-81550000D02*
X124787500Y-82587500D01*
X123750000Y-80675000D02*
X123750000Y-81550000D01*
X143850000Y-83750000D02*
X144250000Y-83350000D01*
X143050000Y-83750000D02*
X143850000Y-83750000D01*
X144250000Y-78012500D02*
X143037500Y-76800000D01*
X144250000Y-83350000D02*
X144250000Y-78012500D01*
X134237500Y-75502500D02*
X135450000Y-74290000D01*
X134237500Y-76400000D02*
X134237500Y-75502500D01*
X103850000Y-63150000D02*
X104100000Y-63400000D01*
X103850000Y-62337500D02*
X103850000Y-63150000D01*
X105600000Y-62750000D02*
X106100000Y-63250000D01*
X105600000Y-62337500D02*
X105600000Y-62750000D01*
X111800000Y-62400000D02*
X111300000Y-61900000D01*
X112400000Y-62400000D02*
X111800000Y-62400000D01*
X111700000Y-64300000D02*
X111550000Y-64150000D01*
X112662500Y-64300000D02*
X111700000Y-64300000D01*
X108500000Y-57000000D02*
X108000000Y-57500000D01*
X108500000Y-56000000D02*
X108500000Y-57000000D01*
X130400000Y-62250000D02*
X132000000Y-62250000D01*
X128000000Y-70000000D02*
X128750000Y-69250000D01*
X128000000Y-70175000D02*
X128000000Y-70000000D01*
X134850000Y-76400000D02*
X135250000Y-76000000D01*
X134237500Y-76400000D02*
X134850000Y-76400000D01*
X143037500Y-75787500D02*
X143000000Y-75750000D01*
X143037500Y-76800000D02*
X143037500Y-75787500D01*
X128385000Y-87635000D02*
X128250000Y-87500000D01*
X128385000Y-88426500D02*
X128385000Y-87635000D01*
X116812500Y-87000000D02*
X115750000Y-87000000D01*
X116700000Y-87112500D02*
X116812500Y-87000000D01*
X116700000Y-88950000D02*
X116700000Y-87112500D01*
X127737478Y-83087500D02*
X128000000Y-83350022D01*
X126650000Y-83087500D02*
X127737478Y-83087500D01*
X126650000Y-83087500D02*
X126650000Y-83724990D01*
X126650000Y-83724990D02*
X126500000Y-83874990D01*
X124787500Y-83100000D02*
X124787500Y-83412490D01*
X124787500Y-83412490D02*
X125250000Y-83874990D01*
X116812500Y-85250000D02*
X117012500Y-85050000D01*
X116812500Y-87000000D02*
X116812500Y-85250000D01*
X117012500Y-85050000D02*
X115950000Y-85050000D01*
X115950000Y-85050000D02*
X115900000Y-85000000D01*
X112000000Y-81100000D02*
X111800000Y-81300000D01*
X112000000Y-80287500D02*
X112000000Y-81100000D01*
X106775000Y-84825000D02*
X106800000Y-84800000D01*
X104850000Y-84825000D02*
X106775000Y-84825000D01*
X111387490Y-72650010D02*
X111000000Y-72650010D01*
X112000000Y-72037500D02*
X111387490Y-72650010D01*
X135450000Y-74290000D02*
X137340747Y-74290000D01*
X137340747Y-74290000D02*
X137341131Y-74289616D01*
X134100000Y-58750000D02*
X135400000Y-58750000D01*
X118687500Y-60337500D02*
X118650000Y-60300000D01*
X118687500Y-61450000D02*
X118687500Y-60337500D01*
%TO.N,/RTC_OSC_IN*%
X126650000Y-62637500D02*
X126200000Y-62187500D01*
X126650000Y-64200000D02*
X126650000Y-62637500D01*
X122750000Y-68100000D02*
X126650000Y-64200000D01*
X122750000Y-69325000D02*
X122750000Y-68100000D01*
%TO.N,/RTC_OSC_OUT*%
X124150000Y-62637500D02*
X124600000Y-62187500D01*
X124150000Y-64200000D02*
X124150000Y-62637500D01*
X122250000Y-69325000D02*
X122250000Y-67850000D01*
X124150000Y-65950000D02*
X124150000Y-64200000D01*
X122250000Y-67850000D02*
X124150000Y-65950000D01*
%TO.N,/SDMMC_D2*%
X141750000Y-80450000D02*
X143050000Y-80450000D01*
X141650000Y-80350000D02*
X141750000Y-80450000D01*
X137189988Y-84010012D02*
X137600000Y-83600000D01*
X134944312Y-84010012D02*
X137189988Y-84010012D01*
X129513918Y-78579618D02*
X134944312Y-84010012D01*
X125675000Y-77750000D02*
X127535986Y-77750000D01*
X129513918Y-78222072D02*
X129513918Y-78579618D01*
X127535986Y-77750000D02*
X127635998Y-77649988D01*
X127635998Y-77649988D02*
X128941834Y-77649988D01*
X128941834Y-77649988D02*
X129513918Y-78222072D01*
%TO.N,/SDMMC_D3*%
X141700000Y-81550000D02*
X143050000Y-81550000D01*
X136589999Y-83610001D02*
X137250000Y-82950000D01*
X135334999Y-83610001D02*
X136589999Y-83610001D01*
X125675000Y-77250000D02*
X125675023Y-77249977D01*
X125675023Y-77249977D02*
X129107523Y-77249977D01*
X129107523Y-77249977D02*
X129913929Y-78056383D01*
X137250000Y-82950000D02*
X139100000Y-82950000D01*
X129913929Y-78413929D02*
X135060001Y-83560001D01*
X129913929Y-78056383D02*
X129913929Y-78413929D01*
X135284999Y-83560001D02*
X135334999Y-83610001D01*
X135060001Y-83560001D02*
X135284999Y-83560001D01*
%TO.N,/SDMMC_CMD*%
X141985998Y-82650000D02*
X143050000Y-82650000D01*
X132999988Y-79799988D02*
X139135986Y-79799988D01*
X139135986Y-79799988D02*
X141985998Y-82650000D01*
X125675000Y-76250000D02*
X129450000Y-76250000D01*
X129450000Y-76250000D02*
X132999988Y-79799988D01*
%TO.N,/SDMMC_D0*%
X120320307Y-78199989D02*
X123324653Y-78199989D01*
X123324653Y-78199989D02*
X124674685Y-79550021D01*
X119250000Y-79270296D02*
X120320307Y-78199989D01*
X127265721Y-79550021D02*
X135415700Y-87700000D01*
X141600000Y-87700000D02*
X142250000Y-87050000D01*
X142250000Y-87050000D02*
X143050000Y-87050000D01*
X135415700Y-87700000D02*
X141600000Y-87700000D01*
X124674685Y-79550021D02*
X127265721Y-79550021D01*
X119250000Y-80675000D02*
X119250000Y-79270296D01*
%TO.N,/SDMMC_D1*%
X135300000Y-88150000D02*
X142250000Y-88150000D01*
X127100032Y-79950032D02*
X135300000Y-88150000D01*
X124508996Y-79950032D02*
X127100032Y-79950032D01*
X119750000Y-79335996D02*
X120485996Y-78600000D01*
X123158964Y-78600000D02*
X124508996Y-79950032D01*
X119750000Y-80675000D02*
X119750000Y-79335996D01*
X120485996Y-78600000D02*
X123158964Y-78600000D01*
X142250000Y-88150000D02*
X143050000Y-88150000D01*
%TO.N,Net-(D1-Pad1)*%
X133905000Y-89806900D02*
X133910400Y-89801500D01*
X133905000Y-91554000D02*
X133905000Y-89806900D01*
%TO.N,/BOOT0*%
X136100000Y-64450000D02*
X136100000Y-62087500D01*
X133050000Y-67500000D02*
X136100000Y-64450000D01*
X129300000Y-67500000D02*
X133050000Y-67500000D01*
X124900000Y-73250000D02*
X124250000Y-72600000D01*
X124250000Y-71298942D02*
X125398931Y-70150011D01*
X124250000Y-72600000D02*
X124250000Y-71298942D01*
X126649989Y-70150011D02*
X129300000Y-67500000D01*
X125398931Y-70150011D02*
X126649989Y-70150011D01*
X125675000Y-73250000D02*
X124900000Y-73250000D01*
D39*
%TO.N,/OTG_FS_D+*%
X131375000Y-89279999D02*
X131375000Y-88456800D01*
X132100000Y-90004999D02*
X131375000Y-89279999D01*
X132100000Y-90800000D02*
X132100000Y-90004999D01*
X131375000Y-88456800D02*
X127893200Y-84975000D01*
X127893200Y-84975000D02*
X123643200Y-84975000D01*
X122225000Y-80700000D02*
X122250000Y-80675000D01*
X122225000Y-83556800D02*
X122225000Y-80700000D01*
X123643200Y-84975000D02*
X122225000Y-83556800D01*
%TO.N,/OTG_FS_D-*%
X130200000Y-90800000D02*
X130200000Y-90004999D01*
X130925000Y-89279999D02*
X130925000Y-88643200D01*
X130200000Y-90004999D02*
X130925000Y-89279999D01*
X130925000Y-88643200D02*
X127706800Y-85425000D01*
X127706800Y-85425000D02*
X123456800Y-85425000D01*
X121775000Y-80700000D02*
X121750000Y-80675000D01*
X121775000Y-83743200D02*
X121775000Y-80700000D01*
X123456800Y-85425000D02*
X121775000Y-83743200D01*
D38*
%TO.N,/JTDI*%
X127849990Y-78250000D02*
X127900000Y-78199990D01*
X125675000Y-78250000D02*
X127849990Y-78250000D01*
X133379998Y-70480000D02*
X133549998Y-70650000D01*
X131550000Y-70480000D02*
X133379998Y-70480000D01*
%TO.N,/~RST*%
X121300000Y-70650000D02*
X120750000Y-70100000D01*
X124333244Y-70650000D02*
X121300000Y-70650000D01*
X126475428Y-69750000D02*
X125233244Y-69750000D01*
X130550000Y-65675428D02*
X126475428Y-69750000D01*
X125233244Y-69750000D02*
X124333244Y-70650000D01*
X120750000Y-70100000D02*
X120750000Y-69325000D01*
X130550000Y-63900000D02*
X130550000Y-65675428D01*
X114600000Y-62400000D02*
X115430000Y-62400000D01*
X115650000Y-59650000D02*
X117099999Y-58200001D01*
X117099999Y-58200001D02*
X127399999Y-58200001D01*
X115430000Y-62400000D02*
X115650000Y-62180000D01*
X115650000Y-62180000D02*
X115650000Y-59650000D01*
%TO.N,/VBAT*%
X125775000Y-69325000D02*
X123750000Y-69325000D01*
X126450000Y-68650000D02*
X125775000Y-69325000D01*
X126450000Y-68637500D02*
X126450000Y-68650000D01*
X130400000Y-60500000D02*
X129300000Y-60500000D01*
X126925000Y-68637500D02*
X126450000Y-68637500D01*
X129300000Y-60500000D02*
X129050000Y-60750000D01*
X129050000Y-60750000D02*
X129050000Y-66512500D01*
X129050000Y-66512500D02*
X126925000Y-68637500D01*
%TO.N,/OSC_IN*%
X121750000Y-69325000D02*
X121750000Y-67650000D01*
X122720000Y-66680000D02*
X122720000Y-65215000D01*
X121750000Y-67650000D02*
X122720000Y-66680000D01*
X122720000Y-63507500D02*
X122600000Y-63387500D01*
X122720000Y-65215000D02*
X122720000Y-63507500D01*
%TO.N,/OSC_OUT*%
X121250000Y-69325000D02*
X121250000Y-67600000D01*
X120320000Y-66670000D02*
X120320000Y-65215000D01*
X121250000Y-67600000D02*
X120320000Y-66670000D01*
X120320000Y-63567500D02*
X120500000Y-63387500D01*
X120320000Y-65215000D02*
X120320000Y-63567500D01*
%TO.N,/VBAT_IN*%
X130500000Y-58650000D02*
X130400000Y-58750000D01*
X130500000Y-54675000D02*
X130500000Y-58650000D01*
%TO.N,/BOOT_SEL*%
X134112500Y-60512500D02*
X134100000Y-60500000D01*
X136100000Y-60512500D02*
X134112500Y-60512500D01*
%TO.N,/SDMMC_CLK*%
X132834299Y-80199999D02*
X138149999Y-80199999D01*
X125675000Y-76750000D02*
X129384300Y-76750000D01*
X129384300Y-76750000D02*
X132834299Y-80199999D01*
X138149999Y-80199999D02*
X142800000Y-84850000D01*
X142800000Y-84850000D02*
X143050000Y-84850000D01*
%TO.N,VDDA*%
X116812500Y-64850000D02*
X116812500Y-67062500D01*
X117750000Y-69325000D02*
X117750000Y-68000000D01*
X117750000Y-68000000D02*
X117250000Y-67500000D01*
X116812500Y-67062500D02*
X117250000Y-67500000D01*
D40*
X116812500Y-64850000D02*
X116812500Y-63250000D01*
X116812500Y-63250000D02*
X116812500Y-61450000D01*
D38*
%TO.N,Net-(D2-Pad1)*%
X128400000Y-90016500D02*
X128385000Y-90001500D01*
X128400000Y-91562500D02*
X128400000Y-90016500D01*
%TO.N,/VBUS*%
X130200000Y-95825000D02*
X130200000Y-94700000D01*
X129250000Y-93750000D02*
X129250000Y-92250000D01*
X129250000Y-92250000D02*
X129500000Y-92000000D01*
X131150000Y-92170000D02*
X131150000Y-93000000D01*
X130980000Y-92000000D02*
X131150000Y-92170000D01*
X129500000Y-92000000D02*
X130980000Y-92000000D01*
X130200000Y-94700000D02*
X129750000Y-94250000D01*
X129750000Y-94250000D02*
X129250000Y-93750000D01*
X123947500Y-91440000D02*
X122287500Y-93100000D01*
X125730000Y-91440000D02*
X123947500Y-91440000D01*
X123700000Y-93100000D02*
X122287500Y-93100000D01*
X125200000Y-94600000D02*
X123700000Y-93100000D01*
X129000000Y-94600000D02*
X125200000Y-94600000D01*
X129350000Y-94250000D02*
X129000000Y-94600000D01*
X129750000Y-94250000D02*
X129350000Y-94250000D01*
%TO.N,Net-(J1-Pad6)*%
X129150000Y-97075000D02*
X128000000Y-98225000D01*
X129150000Y-95800000D02*
X129150000Y-97075000D01*
X133850000Y-97075000D02*
X135000000Y-98225000D01*
X133850000Y-95800000D02*
X133850000Y-97075000D01*
X132500000Y-98500000D02*
X134400000Y-98500000D01*
X132500000Y-98500000D02*
X130500000Y-98500000D01*
X128600000Y-98500000D02*
X130500000Y-98500000D01*
D39*
%TO.N,/D+*%
X132100000Y-93359322D02*
X132100000Y-93000000D01*
X131500000Y-93959322D02*
X132100000Y-93359322D01*
X131500000Y-95825000D02*
X131500000Y-93959322D01*
%TO.N,/D-*%
X130200000Y-93359322D02*
X130200000Y-93000000D01*
X130850000Y-94009322D02*
X130200000Y-93359322D01*
X130850000Y-95825000D02*
X130850000Y-94009322D01*
D38*
%TO.N,/~JTRST*%
X127316872Y-75250000D02*
X127752860Y-74814012D01*
X127752860Y-74814012D02*
X127752860Y-74501738D01*
X129099978Y-73154620D02*
X129099978Y-70160022D01*
X129099978Y-70160022D02*
X130050000Y-69210000D01*
X127752860Y-74501738D02*
X129099978Y-73154620D01*
X125675000Y-75250000D02*
X127316872Y-75250000D01*
X130050000Y-69210000D02*
X131550000Y-69210000D01*
%TO.N,Net-(SW2-Pad2)*%
X114600000Y-60500000D02*
X114350000Y-60500000D01*
X114350000Y-60500000D02*
X113350000Y-59500000D01*
X111475000Y-59500000D02*
X110425000Y-60550000D01*
X113350000Y-59500000D02*
X111475000Y-59500000D01*
X110425000Y-60550000D02*
X107475000Y-60550000D01*
%TO.N,/SDMMC_DET*%
X140370000Y-78020000D02*
X140370000Y-78700000D01*
X139600000Y-77250000D02*
X140370000Y-78020000D01*
X118750000Y-79204596D02*
X120154618Y-77799978D01*
X123490342Y-77799978D02*
X124840374Y-79150010D01*
X127643542Y-79150010D02*
X131896766Y-83403234D01*
X124840374Y-79150010D02*
X127643542Y-79150010D01*
X120154618Y-77799978D02*
X123490342Y-77799978D01*
X118750000Y-80675000D02*
X118750000Y-79204596D01*
%TO.N,VSSA*%
X118250000Y-69325000D02*
X118250000Y-67000000D01*
X118250000Y-67000000D02*
X117844472Y-66594472D01*
X117844472Y-66594472D02*
X117844472Y-66594462D01*
%TO.N,/VIN*%
X120412500Y-93100000D02*
X118737500Y-93100000D01*
X116700000Y-90320000D02*
X117020000Y-90000000D01*
X116700000Y-91150000D02*
X116700000Y-90320000D01*
X118280000Y-90000000D02*
X118600000Y-90320000D01*
X118600000Y-90320000D02*
X118600000Y-91150000D01*
X117020000Y-90000000D02*
X118280000Y-90000000D01*
X118600000Y-92962500D02*
X118737500Y-93100000D01*
X118600000Y-91150000D02*
X118600000Y-92962500D01*
%TO.N,/QSPI_CS#*%
X104850000Y-91175000D02*
X106825000Y-91175000D01*
X106825000Y-91175000D02*
X108000000Y-90000000D01*
X108000000Y-90000000D02*
X108000000Y-85064002D01*
X108000000Y-85064002D02*
X109500000Y-83564002D01*
X109500000Y-83564002D02*
X109500000Y-79881400D01*
X109500000Y-79881400D02*
X111631400Y-77750000D01*
X111631400Y-77750000D02*
X114250000Y-77750000D01*
%TO.N,/QSPI_IO0*%
X112325000Y-84825000D02*
X112250000Y-84750000D01*
X114150000Y-84825000D02*
X112325000Y-84825000D01*
X108750000Y-79650000D02*
X108750000Y-83250000D01*
X112150000Y-76250000D02*
X108750000Y-79650000D01*
X114250000Y-76250000D02*
X112150000Y-76250000D01*
%TO.N,/QSPI_IO1*%
X109000000Y-85750000D02*
X116300002Y-78449998D01*
X104850000Y-92445000D02*
X107055000Y-92445000D01*
X116300002Y-76990366D02*
X115059636Y-75750000D01*
X109000000Y-90500000D02*
X109000000Y-85750000D01*
X107055000Y-92445000D02*
X109000000Y-90500000D01*
X116300002Y-78449998D02*
X116300002Y-76990366D01*
X115059636Y-75750000D02*
X114250000Y-75750000D01*
%TO.N,/QSPI_IO3*%
X106195000Y-83555000D02*
X104850000Y-83555000D01*
X107750000Y-82000000D02*
X106195000Y-83555000D01*
X112550000Y-74950000D02*
X107750000Y-79750000D01*
X107750000Y-79750000D02*
X107750000Y-82000000D01*
X113350000Y-73750000D02*
X112550000Y-74550000D01*
X112550000Y-74550000D02*
X112550000Y-74950000D01*
X114250000Y-73750000D02*
X113350000Y-73750000D01*
%TO.N,/QSPI_IO2*%
X113125000Y-92445000D02*
X114150000Y-92445000D01*
X110250000Y-85350000D02*
X110250000Y-89570000D01*
X110250000Y-89570000D02*
X113125000Y-92445000D01*
X117000000Y-78600000D02*
X110250000Y-85350000D01*
X116500000Y-74000000D02*
X117000000Y-74500000D01*
X115150000Y-74250000D02*
X115400000Y-74000000D01*
X117000000Y-74500000D02*
X117000000Y-78600000D01*
X115400000Y-74000000D02*
X116500000Y-74000000D01*
X114250000Y-74250000D02*
X115150000Y-74250000D01*
%TO.N,/USR_SW*%
X118250000Y-80675000D02*
X118250000Y-83650000D01*
X118587500Y-83987500D02*
X118587500Y-85050000D01*
X118250000Y-83650000D02*
X118587500Y-83987500D01*
X119737500Y-85050000D02*
X120500000Y-85812500D01*
X118587500Y-85050000D02*
X119737500Y-85050000D01*
X120500000Y-85812500D02*
X122300000Y-85812500D01*
%TO.N,/LED_RED*%
X126902859Y-74250011D02*
X127202858Y-74550010D01*
X126902859Y-73202859D02*
X126902859Y-74250011D01*
X125675000Y-72750000D02*
X126450000Y-72750000D01*
X126450000Y-72750000D02*
X126902859Y-73202859D01*
X133910400Y-87410400D02*
X133910400Y-88226500D01*
X131700000Y-85200000D02*
X133910400Y-87410400D01*
X130400000Y-85200000D02*
X131700000Y-85200000D01*
%TO.N,/RTC_REFIN*%
X117750000Y-74635996D02*
X119941801Y-72444195D01*
X119941801Y-72444195D02*
X120942829Y-72444195D01*
X117750000Y-80675000D02*
X117750000Y-74635996D01*
%TO.N,/RTC_TS*%
X121349999Y-56349999D02*
X120500000Y-55500000D01*
X128500000Y-64600000D02*
X128500000Y-58285998D01*
X122386083Y-57386083D02*
X121349999Y-56349999D01*
X127450000Y-65650000D02*
X128500000Y-64600000D01*
X128500000Y-58285998D02*
X127600085Y-57386083D01*
X127600085Y-57386083D02*
X122386083Y-57386083D01*
X126150000Y-65650000D02*
X127450000Y-65650000D01*
X123250000Y-69325000D02*
X123250000Y-68550000D01*
X123250000Y-68550000D02*
X126150000Y-65650000D01*
%TO.N,/RTC_OUT*%
X113000000Y-76750000D02*
X112700000Y-77050000D01*
X114325000Y-76750000D02*
X113000000Y-76750000D01*
X117700000Y-71100000D02*
X115900000Y-72900000D01*
X118100000Y-71100000D02*
X117700000Y-71100000D01*
%TO.N,/USART3_CK*%
X116250000Y-82250000D02*
X116200000Y-82300000D01*
X116250000Y-80675000D02*
X116250000Y-82250000D01*
%TO.N,/USART3_CTS*%
X116750000Y-83050000D02*
X116700000Y-83100000D01*
X116750000Y-80675000D02*
X116750000Y-83050000D01*
%TO.N,/USART3_RTS*%
X117250000Y-80950000D02*
X117250000Y-80675000D01*
X117250000Y-83750000D02*
X117250000Y-80950000D01*
X117200000Y-83800000D02*
X117250000Y-83750000D01*
%TO.N,/USART3_RXD*%
X115500000Y-75250000D02*
X115750000Y-75500000D01*
X114250000Y-75250000D02*
X115500000Y-75250000D01*
%TO.N,/COMP_OUT*%
X125750000Y-74800000D02*
X123763055Y-74800000D01*
X123763055Y-74800000D02*
X123686945Y-74876110D01*
%TO.N,/COMP_IN-*%
X124050000Y-73800000D02*
X124000000Y-73750000D01*
X125750000Y-73800000D02*
X124050000Y-73800000D01*
%TO.N,/COMP_OUT*%
X100630000Y-78380000D02*
X100870000Y-78380000D01*
X99000000Y-78380000D02*
X100630000Y-78380000D01*
%TO.N,/COMP_IN+*%
X125750000Y-74300000D02*
X123000010Y-74300000D01*
X123000010Y-74300000D02*
X123000000Y-74300010D01*
%TO.N,/USART3_TXD*%
X114250000Y-74750000D02*
X115750000Y-74750000D01*
%TO.N,/USART1_TX*%
X120750000Y-81800010D02*
X120050010Y-82500000D01*
X120750000Y-80675000D02*
X120750000Y-81800010D01*
X139460000Y-72160000D02*
X139460000Y-73867832D01*
X139460000Y-73867832D02*
X136772539Y-76555293D01*
%TO.N,/USART1_RX*%
X121250000Y-82100000D02*
X120850000Y-82500000D01*
X121250000Y-80675000D02*
X121250000Y-82100000D01*
X142000000Y-72160000D02*
X137416768Y-76743232D01*
X137416768Y-76743232D02*
X137416768Y-76829129D01*
%TO.N,/SPI_MISO*%
X122450001Y-71250001D02*
X122750000Y-71550000D01*
X119650001Y-71250001D02*
X122450001Y-71250001D01*
X119250000Y-70850000D02*
X119650001Y-71250001D01*
X119250000Y-69325000D02*
X119250000Y-70850000D01*
%TO.N,/SPI_MOSI*%
X119650000Y-71850000D02*
X121800019Y-71850000D01*
X118750000Y-70950000D02*
X119650000Y-71850000D01*
X118750000Y-69325000D02*
X118750000Y-70950000D01*
%TO.N,/SPI_SCK*%
X115550000Y-77250000D02*
X115750000Y-77450000D01*
X114325000Y-77250000D02*
X115550000Y-77250000D01*
%TO.N,/SPI_SS#*%
X127000000Y-72250000D02*
X127557447Y-72807447D01*
X125675000Y-72250000D02*
X127000000Y-72250000D01*
X127557447Y-72807447D02*
X127557447Y-73394626D01*
X137850000Y-66250000D02*
X136450000Y-67650000D01*
X137850000Y-63650000D02*
X137850000Y-66250000D01*
X139460000Y-62040000D02*
X137850000Y-63650000D01*
%TO.N,/I2C_SDA*%
X119750000Y-69325000D02*
X119750000Y-67931186D01*
X119750000Y-67931186D02*
X119733322Y-67914508D01*
X105750000Y-64200000D02*
X109600000Y-64200000D01*
X114677832Y-66100000D02*
X115788916Y-64988916D01*
X104774990Y-61687490D02*
X104774990Y-63224990D01*
X104774990Y-63224990D02*
X105750000Y-64200000D01*
X109600000Y-64200000D02*
X111500000Y-66100000D01*
X111500000Y-66100000D02*
X114677832Y-66100000D01*
X103850000Y-60762500D02*
X104774990Y-61687490D01*
X107762004Y-58700000D02*
X105475000Y-58700000D01*
X109500000Y-56962004D02*
X107762004Y-58700000D01*
X109500000Y-56000000D02*
X109500000Y-56962004D01*
X105475000Y-58700000D02*
X103850000Y-60325000D01*
X103850000Y-60325000D02*
X103850000Y-60762500D01*
%TO.N,/I2C_SCL*%
X120250000Y-69325000D02*
X120250000Y-68128504D01*
X120250000Y-68128504D02*
X120432631Y-67945873D01*
X110500000Y-56900000D02*
X110500000Y-56000000D01*
X108050000Y-59350000D02*
X110500000Y-56900000D01*
X107012500Y-59350000D02*
X108050000Y-59350000D01*
X105600000Y-60762500D02*
X107012500Y-59350000D01*
X114600000Y-65400000D02*
X115750000Y-64250000D01*
X111700000Y-65400000D02*
X114600000Y-65400000D01*
X109850000Y-63550000D02*
X111700000Y-65400000D01*
X107649998Y-63550000D02*
X109850000Y-63550000D01*
X106700000Y-62600002D02*
X107649998Y-63550000D01*
X106700000Y-61862500D02*
X106700000Y-62600002D01*
X115750000Y-64250000D02*
X115750000Y-64000000D01*
X105600000Y-60762500D02*
X106700000Y-61862500D01*
%TO.N,/DAC_OUT2*%
X100665000Y-83460000D02*
X99000000Y-83460000D01*
X110025000Y-74100000D02*
X100665000Y-83460000D01*
X112150000Y-74100000D02*
X110025000Y-74100000D01*
X113000000Y-73250000D02*
X112150000Y-74100000D01*
X114250000Y-73250000D02*
X113000000Y-73250000D01*
%TO.N,/COMP_OUT*%
X102120000Y-78380000D02*
X100630000Y-78380000D01*
X102620000Y-78380000D02*
X102120000Y-78380000D01*
X109000000Y-72000000D02*
X102620000Y-78380000D01*
X110000000Y-72000000D02*
X109000000Y-72000000D01*
%TO.N,/DAC_OUT1*%
X99000000Y-80920000D02*
X101846424Y-80920000D01*
X101846424Y-80920000D02*
X109466412Y-73300012D01*
X109466412Y-73300012D02*
X112016838Y-73300012D01*
X112016838Y-73300012D02*
X112566850Y-72750000D01*
X112566850Y-72750000D02*
X114250000Y-72750000D01*
%TO.N,/COMP_IN-*%
X109950000Y-70200000D02*
X110000000Y-70250000D01*
X106050000Y-70200000D02*
X109950000Y-70200000D01*
X102950000Y-73300000D02*
X106050000Y-70200000D01*
X99000000Y-73300000D02*
X102950000Y-73300000D01*
%TO.N,/OPAMP_OUT*%
X113549999Y-69449999D02*
X104350001Y-69449999D01*
X103200000Y-70600000D02*
X99160000Y-70600000D01*
X104350001Y-69449999D02*
X103200000Y-70600000D01*
X114050002Y-69950002D02*
X113549999Y-69449999D01*
X114050002Y-70975002D02*
X114050002Y-69950002D01*
X99160000Y-70600000D02*
X99100000Y-70660000D01*
X114325000Y-71250000D02*
X114050002Y-70975002D01*
%TO.N,/COMP_IN+*%
X107287868Y-71250000D02*
X110500000Y-71250000D01*
X102697868Y-75840000D02*
X107287868Y-71250000D01*
X99000000Y-75840000D02*
X102697868Y-75840000D01*
%TO.N,/OCLK_M*%
X120999997Y-74049997D02*
X120999997Y-76500003D01*
X120100000Y-73150000D02*
X120999997Y-74049997D01*
X120549998Y-79200002D02*
X121000000Y-79200002D01*
X120250000Y-79500000D02*
X120549998Y-79200002D01*
X120250000Y-80675000D02*
X120250000Y-79500000D01*
%TO.N,/OCLK_LS*%
X116250000Y-68050000D02*
X116300000Y-68000000D01*
X116250000Y-69325000D02*
X116250000Y-68050000D01*
%TO.N,/JTMS_SWDIO*%
X122750000Y-79500000D02*
X122900000Y-79350000D01*
X122750000Y-80675000D02*
X122750000Y-79500000D01*
X130140000Y-75700000D02*
X128700000Y-75700000D01*
X131550000Y-74290000D02*
X130140000Y-75700000D01*
X140720000Y-70900000D02*
X142000000Y-69620000D01*
X138750000Y-70900000D02*
X140720000Y-70900000D01*
X138150000Y-71500000D02*
X138750000Y-70900000D01*
X138150000Y-74400000D02*
X138150000Y-71500000D01*
X132100000Y-77550000D02*
X135000000Y-77550000D01*
X131550000Y-74290000D02*
X131550000Y-75500000D01*
X131150000Y-75900000D02*
X131150000Y-76600000D01*
X135000000Y-77550000D02*
X138150000Y-74400000D01*
X131150000Y-76600000D02*
X132100000Y-77550000D01*
X131550000Y-75500000D02*
X131150000Y-75900000D01*
%TO.N,/JTCK_SWCLK*%
X130614300Y-73020000D02*
X129517150Y-74117150D01*
X131550000Y-73020000D02*
X130614300Y-73020000D01*
X128699990Y-78750000D02*
X128963916Y-78486074D01*
X125675000Y-78750000D02*
X128699990Y-78750000D01*
X127780000Y-53300000D02*
X125580000Y-55500000D01*
X132100000Y-53300000D02*
X127780000Y-53300000D01*
X137250000Y-58450000D02*
X132100000Y-53300000D01*
X134950000Y-67000000D02*
X137250000Y-64700000D01*
X137250000Y-64700000D02*
X137250000Y-58450000D01*
X134950000Y-68150000D02*
X134950000Y-67000000D01*
%TO.N,/JTDO_SWO*%
X128152871Y-74667427D02*
X130050000Y-72770298D01*
X130720000Y-71750000D02*
X131550000Y-71750000D01*
X127382572Y-75750000D02*
X128152871Y-74979701D01*
X128152871Y-74979701D02*
X128152871Y-74667427D01*
X130050000Y-72420000D02*
X130720000Y-71750000D01*
X130050000Y-72770298D02*
X130050000Y-72420000D01*
X125675000Y-75750000D02*
X127382572Y-75750000D01*
X131550000Y-71750000D02*
X133600000Y-71750000D01*
X133600000Y-71750000D02*
X133750000Y-71900000D01*
%TO.N,/I2C_SDA*%
X109500000Y-56000000D02*
X109500000Y-55000000D01*
X109500000Y-55000000D02*
X111050000Y-53450000D01*
X111050000Y-53450000D02*
X112850000Y-53450000D01*
X112850000Y-53450000D02*
X114600000Y-51700000D01*
X116700000Y-51700000D02*
X117960000Y-52960000D01*
X114600000Y-51700000D02*
X116700000Y-51700000D01*
%TO.N,/I2C_SCL*%
X110500000Y-56000000D02*
X110500000Y-55150000D01*
X110500000Y-55150000D02*
X111650000Y-54000000D01*
X114380000Y-54000000D02*
X115420000Y-52960000D01*
X111650000Y-54000000D02*
X114380000Y-54000000D01*
%TO.N,/OPAMP_IN-*%
X100302081Y-65580000D02*
X99100000Y-65580000D01*
X101830000Y-65580000D02*
X100302081Y-65580000D01*
X116550000Y-70500000D02*
X115700000Y-70500000D01*
X109700000Y-68100000D02*
X108400000Y-66800000D01*
X108400000Y-66800000D02*
X103050000Y-66800000D01*
X113795404Y-68100000D02*
X109700000Y-68100000D01*
X115400011Y-70200011D02*
X115400011Y-69704607D01*
X115700000Y-70500000D02*
X115400011Y-70200011D01*
X103050000Y-66800000D02*
X101830000Y-65580000D01*
X115400011Y-69704607D02*
X113795404Y-68100000D01*
X116750000Y-70300000D02*
X116550000Y-70500000D01*
X116750000Y-69325000D02*
X116750000Y-70300000D01*
%TO.N,/OPAMP_IN+*%
X114800000Y-69900000D02*
X113600000Y-68700000D01*
X108400000Y-68700000D02*
X107820000Y-68120000D01*
X113600000Y-68700000D02*
X108400000Y-68700000D01*
X114800000Y-70400000D02*
X114800000Y-69900000D01*
X100302081Y-68120000D02*
X99100000Y-68120000D01*
X107820000Y-68120000D02*
X100302081Y-68120000D01*
X115500000Y-71100000D02*
X114800000Y-70400000D01*
X117250000Y-70500000D02*
X116650000Y-71100000D01*
X116650000Y-71100000D02*
X115500000Y-71100000D01*
X117250000Y-69325000D02*
X117250000Y-70500000D01*
%TO.N,Net-(R1-Pad2)*%
X122300000Y-88675000D02*
X122300000Y-87387500D01*
X122300000Y-91625000D02*
X122300000Y-88675000D01*
%TD*%
D41*
%TO.N,VSSA*%
G36*
X102487300Y-61705427D02*
G01*
X102487300Y-62800000D01*
X102487544Y-62802478D01*
X102488267Y-62804860D01*
X102489440Y-62807056D01*
X102491020Y-62808980D01*
X104191020Y-64508980D01*
X104192944Y-64510560D01*
X104195140Y-64511733D01*
X104197522Y-64512456D01*
X104200000Y-64512700D01*
X109194740Y-64512700D01*
X111191020Y-66508980D01*
X111192944Y-66510560D01*
X111195140Y-66511733D01*
X111197522Y-66512456D01*
X111200000Y-66512700D01*
X116244740Y-66512700D01*
X116449801Y-66717761D01*
X116449801Y-67044684D01*
X116448046Y-67062500D01*
X116455050Y-67133601D01*
X116475788Y-67201970D01*
X116490297Y-67229114D01*
X116195228Y-67487300D01*
X110805260Y-67487300D01*
X108808980Y-65491020D01*
X108807056Y-65489440D01*
X108804860Y-65488267D01*
X108802478Y-65487544D01*
X108800000Y-65487300D01*
X103805260Y-65487300D01*
X101512700Y-63194740D01*
X101512700Y-62200000D01*
X101512456Y-62197522D01*
X101511733Y-62195140D01*
X101510560Y-62192944D01*
X101508980Y-62191020D01*
X99808980Y-60491020D01*
X99807056Y-60489440D01*
X99804860Y-60488267D01*
X99802478Y-60487544D01*
X99800000Y-60487300D01*
X95075400Y-60487300D01*
X95075400Y-59512700D01*
X100194903Y-59512700D01*
X102487300Y-61705427D01*
G37*
X102487300Y-61705427D02*
X102487300Y-62800000D01*
X102487544Y-62802478D01*
X102488267Y-62804860D01*
X102489440Y-62807056D01*
X102491020Y-62808980D01*
X104191020Y-64508980D01*
X104192944Y-64510560D01*
X104195140Y-64511733D01*
X104197522Y-64512456D01*
X104200000Y-64512700D01*
X109194740Y-64512700D01*
X111191020Y-66508980D01*
X111192944Y-66510560D01*
X111195140Y-66511733D01*
X111197522Y-66512456D01*
X111200000Y-66512700D01*
X116244740Y-66512700D01*
X116449801Y-66717761D01*
X116449801Y-67044684D01*
X116448046Y-67062500D01*
X116455050Y-67133601D01*
X116475788Y-67201970D01*
X116490297Y-67229114D01*
X116195228Y-67487300D01*
X110805260Y-67487300D01*
X108808980Y-65491020D01*
X108807056Y-65489440D01*
X108804860Y-65488267D01*
X108802478Y-65487544D01*
X108800000Y-65487300D01*
X103805260Y-65487300D01*
X101512700Y-63194740D01*
X101512700Y-62200000D01*
X101512456Y-62197522D01*
X101511733Y-62195140D01*
X101510560Y-62192944D01*
X101508980Y-62191020D01*
X99808980Y-60491020D01*
X99807056Y-60489440D01*
X99804860Y-60488267D01*
X99802478Y-60487544D01*
X99800000Y-60487300D01*
X95075400Y-60487300D01*
X95075400Y-59512700D01*
X100194903Y-59512700D01*
X102487300Y-61705427D01*
G36*
X111632040Y-75100000D02*
G01*
X102491020Y-84241020D01*
X102489440Y-84242944D01*
X102488267Y-84245140D01*
X102487544Y-84247522D01*
X102487300Y-84250000D01*
X102487300Y-87244740D01*
X101244740Y-88487300D01*
X95075400Y-88487300D01*
X95075400Y-87512700D01*
X100750000Y-87512700D01*
X100752478Y-87512456D01*
X100754860Y-87511733D01*
X100757056Y-87510560D01*
X100758980Y-87508980D01*
X101508980Y-86758980D01*
X101510560Y-86757056D01*
X101511733Y-86754860D01*
X101512456Y-86752478D01*
X101512700Y-86750000D01*
X101512700Y-83755260D01*
X110900000Y-74367960D01*
X111632040Y-75100000D01*
G37*
X111632040Y-75100000D02*
X102491020Y-84241020D01*
X102489440Y-84242944D01*
X102488267Y-84245140D01*
X102487544Y-84247522D01*
X102487300Y-84250000D01*
X102487300Y-87244740D01*
X101244740Y-88487300D01*
X95075400Y-88487300D01*
X95075400Y-87512700D01*
X100750000Y-87512700D01*
X100752478Y-87512456D01*
X100754860Y-87511733D01*
X100757056Y-87510560D01*
X100758980Y-87508980D01*
X101508980Y-86758980D01*
X101510560Y-86757056D01*
X101511733Y-86754860D01*
X101512456Y-86752478D01*
X101512700Y-86750000D01*
X101512700Y-83755260D01*
X110900000Y-74367960D01*
X111632040Y-75100000D01*
%TD*%
M02*
