%TF.GenerationSoftware,KiCad,Pcbnew,(5.1.6-0-10_14)*%
%TF.CreationDate,2020-09-29T23:50:48-07:00*%
%TF.ProjectId,BetsyBoardBig,42657473-7942-46f6-9172-644269672e6b,rev?*%
%TF.SameCoordinates,Original*%
%TF.FileFunction,Soldermask,Bot*%
%TF.FilePolarity,Negative*%
%FSLAX46Y46*%
G04 Gerber Fmt 4.6, Leading zero omitted, Abs format (unit mm)*
G04 Created by KiCad (PCBNEW (5.1.6-0-10_14)) date 2020-09-29 23:50:48*
%MOMM*%
%LPD*%
G01*
G04 APERTURE LIST*
%ADD10O,1.100000X1.650000*%
%ADD11O,1.350000X1.050000*%
%ADD12O,1.800000X1.800000*%
%ADD13R,1.800000X1.800000*%
%ADD14C,0.900000*%
%ADD15C,6.500000*%
%ADD16C,1.624000*%
G04 APERTURE END LIST*
D10*
%TO.C,J1*%
X135000000Y-98500000D03*
X128000000Y-98500000D03*
D11*
X134000000Y-95800000D03*
X129000000Y-95800000D03*
%TD*%
D12*
%TO.C,J7*%
X99100000Y-63040000D03*
X99100000Y-65580000D03*
X99100000Y-68120000D03*
X99100000Y-70660000D03*
X99100000Y-73200000D03*
X99100000Y-75740000D03*
X99100000Y-78280000D03*
X99100000Y-80820000D03*
X99100000Y-83360000D03*
D13*
X99100000Y-85900000D03*
%TD*%
D12*
%TO.C,J3*%
X125580000Y-52960000D03*
X125580000Y-55500000D03*
X123040000Y-52960000D03*
X123040000Y-55500000D03*
X120500000Y-52960000D03*
X120500000Y-55500000D03*
X117960000Y-52960000D03*
X117960000Y-55500000D03*
X115420000Y-52960000D03*
D13*
X115420000Y-55500000D03*
%TD*%
D14*
%TO.C,H4*%
X101697056Y-93302944D03*
X100000000Y-92600000D03*
X98302944Y-93302944D03*
X97600000Y-95000000D03*
X98302944Y-96697056D03*
X100000000Y-97400000D03*
X101697056Y-96697056D03*
X102400000Y-95000000D03*
D15*
X100000000Y-95000000D03*
%TD*%
D14*
%TO.C,H3*%
X141697056Y-93302944D03*
X140000000Y-92600000D03*
X138302944Y-93302944D03*
X137600000Y-95000000D03*
X138302944Y-96697056D03*
X140000000Y-97400000D03*
X141697056Y-96697056D03*
X142400000Y-95000000D03*
D15*
X140000000Y-95000000D03*
%TD*%
D14*
%TO.C,H2*%
X141697056Y-53302944D03*
X140000000Y-52600000D03*
X138302944Y-53302944D03*
X137600000Y-55000000D03*
X138302944Y-56697056D03*
X140000000Y-57400000D03*
X141697056Y-56697056D03*
X142400000Y-55000000D03*
D15*
X140000000Y-55000000D03*
%TD*%
D14*
%TO.C,H1*%
X101697056Y-53302944D03*
X100000000Y-52600000D03*
X98302944Y-53302944D03*
X97600000Y-55000000D03*
X98302944Y-56697056D03*
X100000000Y-57400000D03*
X101697056Y-56697056D03*
X102400000Y-55000000D03*
D15*
X100000000Y-55000000D03*
%TD*%
D12*
%TO.C,J5*%
X139460000Y-72160000D03*
X142000000Y-72160000D03*
X139460000Y-69620000D03*
X142000000Y-69620000D03*
X139460000Y-67080000D03*
X142000000Y-67080000D03*
X139460000Y-64540000D03*
X142000000Y-64540000D03*
X139460000Y-62000000D03*
D13*
X142000000Y-62000000D03*
%TD*%
D12*
%TO.C,J4*%
X106220000Y-95900000D03*
X108760000Y-95900000D03*
X111300000Y-95900000D03*
X113840000Y-95900000D03*
X116380000Y-95900000D03*
X118920000Y-95900000D03*
X121460000Y-95900000D03*
D13*
X124000000Y-95900000D03*
%TD*%
D16*
%TO.C,P1*%
X125730000Y-88900000D03*
%TD*%
%TO.C,P2*%
X125730000Y-91440000D03*
%TD*%
M02*
